<?xml version="1.0" encoding="utf-8"?>
<!-- Generator: Adobe Illustrator 23.0.4, SVG Export Plug-In . SVG Version: 6.00 Build 0)  -->
<svg version="1.1" xmlns="http://www.w3.org/2000/svg" xmlns:xlink="http://www.w3.org/1999/xlink" x="0px" y="0px"
	 viewBox="0 0 924 519.75" style="enable-background:new 0 0 924 519.75;" xml:space="preserve">
<style type="text/css">
	.st0{clip-path:url(#SVGID_2_);}
	.st1{clip-path:url(#SVGID_4_);fill:#343434;}
	.st2{fill:#FFFFFF;}
	.st3{clip-path:url(#SVGID_6_);}
	.st4{clip-path:url(#SVGID_8_);fill:#343434;}
</style>
<g id="wijzen">
	<g>
		<defs>
			<path id="SVGID_1_" d="M83.66,428.29c75.64-58.63,119.28-96.33,121.75-92.95c2.47,3.38,0.49,8.7-5.95,15.98
				c6.44,0,9.66,3.21,9.66,9.63c0,9.63-4.6,16.47-10.8,16.47c-6.2,0-39.14,21.95-40.44,21.95c-1.31,0-36.59,35.51-36.59,35.51
				S108.74,432.68,83.66,428.29z"/>
		</defs>
		<clipPath id="SVGID_2_">
			<use xlink:href="#SVGID_1_"  style="overflow:visible;"/>
		</clipPath>
		<g class="st0">
			<defs>
				<rect id="SVGID_3_" x="-150.78" y="-169.54" width="1002.78" height="683.17"/>
			</defs>
			<clipPath id="SVGID_4_">
				<use xlink:href="#SVGID_3_"  style="overflow:visible;"/>
			</clipPath>
			<rect x="83.66" y="330.48" class="st1" width="130.04" height="98.9"/>
		</g>
	</g>
	<g id="Vorm_7_1_">
		<path d="M214.07,333.71c2.14-0.51,4.18-1.03,6.21-1.57c1.58-0.42,2.58,0.77,3.04,1.73c0.44,0.91,0.19,2.35-0.18,3.41
			c-0.59,1.72-1.4,3.4-2.36,4.96c-0.54,0.88-1.53,1.51-2.37,2.17c-1.28,1.01-2.66,1.88-3.9,2.94c-0.48,0.41-0.75,1.13-0.92,1.76
			c-0.05,0.17,0.63,0.78,0.97,0.78c2.52-0.02,4.5,1.23,6.22,2.79c0.8,0.72,1.3,1.93,1.6,3.01c0.53,1.87,1.07,3.82,1.08,5.74
			c0.01,1.62-0.19,3.38-1.5,4.76c-0.45,0.48-0.27,1.49-0.55,2.19c-0.64,1.57-1.29,3.15-2.14,4.6c-0.47,0.81-1.37,1.36-2.08,2.03
			c-0.81,0.77-1.51,1.81-2.48,2.22c-0.8,0.34-1.95,0.07-2.87-0.19c-0.85-0.24-1.26-0.68-1.92,0.55c-0.68,1.26-2.18,2.06-3.27,3.11
			c-1.51,1.45-3.27,2.45-5.16,3.34c-3.46,1.62-6.75,3.65-10.3,5.02c-2.86,1.11-6.02,1.44-9.01,2.26c-1.1,0.3-2.13,0.97-3.09,1.6
			c-1.51,1-2.98,2.09-4.41,3.2c-0.97,0.75-1.82,1.65-2.79,2.4c-0.48,0.37-1.18,0.47-1.66,0.84c-1.5,1.14-2.85,2.51-4.45,3.48
			c-1,0.61-1.75,1.39-2.62,2.09c-2.06,1.64-4.35,3-6.44,4.61c-1.63,1.25-3.01,2.83-4.68,4.03c-1.89,1.36-3.97,2.44-5.95,3.67
			c-0.47,0.29-0.85,0.74-1.32,1.05c-1,0.67-2.02,1.31-3.03,1.96c-1.37,0.88-2.77,1.74-4.11,2.66c-1.42,0.98-2.78,2.06-4.2,3.05
			c-1.24,0.86-2.55,1.64-3.8,2.48c-0.18,0.12-0.21,0.45-0.38,0.6c-0.73,0.62-1.48,1.23-2.25,1.8c-0.59,0.44-1.24,0.81-1.86,1.21
			c-2.17,1.4-4.26,2.93-6.52,4.15c-2.73,1.47-5.61,2.66-8.41,3.99c-2.28,1.08-4.53,2.21-6.82,3.26c-0.64,0.3-1.37,0.54-2.07,0.57
			c-0.51,0.03-1.03-0.33-1.55-0.51c0.25-0.5,0.37-1.2,0.77-1.47c1.12-0.75,2.35-1.34,3.55-1.96c1.85-0.97,3.72-1.9,5.58-2.86
			c4.03-2.09,8.08-4.15,12.06-6.33c1.22-0.67,2.25-1.67,3.39-2.5c0.56-0.4,1.16-0.74,1.73-1.12c2.69-1.84,5.36-3.71,8.05-5.54
			c1.52-1.03,3.11-1.97,4.63-3c3.06-2.06,6.16-4.07,9.12-6.26c3.56-2.64,7.04-5.41,10.48-8.21c1.93-1.57,3.67-3.38,5.56-5
			c1.18-1.01,2.54-1.81,3.73-2.81c2.03-1.7,3.99-3.48,5.97-5.24c1.53-1.37,3.42-1.84,5.36-2.28c2.79-0.63,5.55-1.43,8.32-2.16
			c0.69-0.18,1.41-0.33,2.07-0.61c1.9-0.81,3.78-1.65,5.64-2.52c1.66-0.78,3.5-1.36,4.89-2.49c2.5-2.04,5.58-3.37,7.3-6.4
			c1.87-3.29-0.6-6.62-3.69-7.24c-1.59-0.32-3.18-0.43-4.78,0.1c-0.73,0.24-0.95-0.14-0.79-0.92c0.43-2.15,1.08-2.91,3.35-2.87
			c2.69,0.06,5.43,0.02,7.59,2.25c2.04,2.11,3.78,4.15,2.65,7.36c-0.16,0.44,0.08,1.48,0.26,1.51c0.69,0.12,1.29-0.02,1.65-0.96
			c0.6-1.55,1.62-2.94,2.3-4.47c0.23-0.52,0.01-1.26-0.05-1.89c-0.18-1.89-1.4-3.28-2.35-4.8c-1.65-2.63-4.31-3.83-7.05-4.87
			c-1.03-0.39-2.16-0.54-3.18-0.95c-1.52-0.61-2.41,0.05-3.11,1.29c-0.52,0.93-1.28,1.5-2.38,1.33c-1.15-0.17-2.47-0.25-2.8-1.66
			c-0.12-0.51,0.17-1.32,0.56-1.69c0.71-0.68,2.04-0.95,2.4-1.72c0.91-2,3.02-1.97,4.41-3.08c0.7-0.56,1.53-0.96,2.29-1.45
			c2.48-1.58,4.97-3.13,7.41-4.76c1.02-0.68,2.05-1.42,2.86-2.33c1.32-1.49,3.13-2.44,4.15-4.32c0.67-1.24-0.67-1.45-0.59-2.24
			c-0.74,0.1-1.53,0.07-2.2,0.34c-0.96,0.39-1.81,1.05-2.76,1.49c-1.33,0.61-2.74,1.03-4.04,1.68c-1.71,0.86-3.35,1.86-5.01,2.83
			c-2.46,1.44-5.13,2.62-7.29,4.42c-4.33,3.6-8.87,6.87-13.66,9.8c-0.96,0.59-1.96,1.12-2.94,1.67c-0.12,0.07-0.38,0.06-0.4,0.13
			c-0.73,2.52-3.38,2.59-5.02,3.94c-1,0.83-1.98,1.77-3.12,2.33c-1.43,0.7-2.52,1.71-3.7,2.72c-1.29,1.11-2.97,1.75-4.47,2.61
			c-0.31,0.18-0.61,0.39-0.91,0.58c-1.01,0.65-2.04,1.28-3.03,1.96c-0.78,0.54-1.45,1.24-2.25,1.72c-0.78,0.47-1.69,0.71-2.51,1.12
			c-0.46,0.23-0.99,0.52-1.25,0.93c-1.17,1.88-3,2.84-4.87,3.79c-0.44,0.22-0.83,0.59-1.19,0.94c-0.84,0.82-2.09,1.16-2.54,2.49
			c-0.19,0.56-1.03,1.03-1.68,1.29c-2.52,1.01-4.31,3-6.45,4.53c-1.61,1.15-3.36,2.1-4.97,3.24c-2.57,1.83-5.02,3.83-7.63,5.59
			c-2.17,1.46-4.57,2.59-6.74,4.06c-1.5,1.01-2.71,2.44-4.17,3.52c-2.33,1.73-4.76,3.31-7.15,4.97c-0.9,0.62-1.81,1.24-2.65,1.94
			c-2.47,2.04-4.89,4.15-7.37,6.18c-0.43,0.35-1.16,0.35-1.59,0.71c-1.56,1.33-3.06,2.73-4.58,4.12c-0.72,0.66-1.37,1.39-2.14,1.99
			c-1.36,1.07-2.75,2.11-4.2,3.05c-0.58,0.37-1.35,0.54-2.05,0.6c-1.01,0.09-1.63-0.95-1.07-1.83c0.43-0.68,1.02-1.3,1.65-1.81
			c3.38-2.71,6.78-5.4,10.21-8.05c1.61-1.25,3.34-2.35,4.96-3.59c2.53-1.94,4.93-4.04,7.52-5.89c2.63-1.88,5.48-3.43,8.11-5.3
			c3.2-2.27,6.26-4.73,9.38-7.1c0.29-0.22,0.61-0.39,0.91-0.59c3.16-2.15,6.35-4.27,9.47-6.48c2.46-1.74,4.83-3.6,7.26-5.39
			c2.94-2.16,5.92-4.28,8.85-6.45c1.97-1.46,3.84-3.05,5.84-4.46c2.04-1.43,4.21-2.67,6.27-4.08c5-3.42,9.96-6.88,14.93-10.34
			c2.08-1.45,4.22-2.83,6.21-4.4c2.52-1.98,4.92-4.12,7.37-6.18c0.12-0.1,0.26-0.17,0.39-0.25c4.29-2.88,8.49-5.9,12.89-8.59
			c2.55-1.56,5.43-2.56,8.13-3.86C212.61,334.66,213.27,334.14,214.07,333.71 M213.23,352.56c-1.7-0.84-3.4-1.75-5.23-0.31
			c-0.4,0.31-0.74,0.7-1.1,1.05c0.49,0.3,0.95,0.66,1.47,0.88c1.54,0.63,3.19,1.05,4.65,1.83c2.73,1.46,4.7,3.78,6.36,6.36
			c0.14,0.22,0.48,0.32,0.73,0.47c0.04-0.27,0.18-0.57,0.11-0.82c-0.34-1.2-0.83-2.36-1.09-3.58c-0.54-2.56-1.68-4.52-4.45-5.15
			C214.24,353.2,213.86,352.84,213.23,352.56z"/>
	</g>
</g>
<g id="meetlat">
	<g id="Vorm_6_1_">
		<path class="st2" d="M618.06,224.9c0,0.61,0.05,1.11-0.01,1.61c-0.11,0.95,0.44,1.51,1.07,2.07c0.42,0.38,1.05,0.76,1.14,1.23
			c0.15,0.78-0.72,0.64-1.17,0.92c-0.41,0.25-0.77,0.96-0.76,1.46c0.01,3.98,0.12,7.97,0.19,11.95c0.02,0.97,0,1.94,0,2.91
			c0,1.51-0.62,2.11-2.06,1.69c-3.26-0.95-6.58-1.21-9.95-1.14c-1.7,0.04-3.41,0.06-5.11,0.02c-2.46-0.06-4.92-0.06-7.37-0.26
			c-1.96-0.16-3.9-0.52-5.85-0.82c-1.05-0.16-2.09-0.39-3.15-0.52c-0.94-0.12-1.14-0.78-0.93-1.45c0.75-2.36,0.3-4.78,0.43-7.16
			c0.15-2.69,0.32-5.38,0.44-8.07c0.02-0.41-0.26-0.81-0.32-1.23c-0.05-0.38-0.05-0.78,0.02-1.16c0.16-0.92,0.48-1.83,0.52-2.76
			c0.14-3.03,0.32-6.06,0.19-9.08c-0.07-1.55-0.22-3.02-0.01-4.61c0.46-3.55,0.53-7.14,0.76-10.72c0.14-2.08,0.27-4.16,0.46-6.23
			c0.28-3.01,0.61-6.02,0.91-9.03c0.16-1.58,0.29-3.16,0.46-4.74c0.3-2.78,0.62-5.56,0.91-8.34c0.12-1.15,0.13-2.31,0.24-3.46
			c0.29-2.93,0.62-5.87,0.91-8.8c0.18-1.81,0.29-3.62,0.47-5.43c0.12-1.24,0.31-2.47,0.45-3.71c0.04-0.35,0.09-0.74-0.01-1.07
			c-0.3-0.99-0.02-1.89,0.23-2.82c0.42-1.55,0.89-3.1,1.14-4.69c0.47-2.96,0.73-5.96,1.19-8.93c0.37-2.35,0.99-4.66,1.33-7.01
			c0.34-2.34,0.45-4.71,0.72-7.05c0.2-1.7,0.5-3.39,0.76-5.08c0.12-0.75,0.28-1.5,0.37-2.25c0.18-1.46,0.4-2.93,0.45-4.4
			c0.13-3.6,0.2-7.2,0.23-10.8c0.01-1.54-0.07-3.08-0.25-4.6c-0.06-0.52-0.53-1-0.86-1.47c-0.4-0.56-0.78-1.15-0.3-1.79
			c0.67-0.9,0.57-1.91,0.5-2.89c-0.27-3.62-0.61-7.24-0.9-10.87c-0.19-2.33-0.23-4.67-0.42-6.99c-0.12-1.58-0.18-3.16-0.21-4.75
			c-0.05-2.07-0.22-4.14-0.29-6.21c-0.09-2.76-0.16-5.52-0.23-8.28c-0.08-3.08-0.17-6.16-0.23-9.24c-0.09-4.63-0.16-9.27-0.23-13.9
			c-0.01-0.59-0.02-1.17,0-1.76c0.06-1.85,0.65-2.39,2.35-1.85c2.32,0.74,4.69,0.79,7.08,0.93c2.9,0.16,5.79,0.64,8.69,0.86
			c1.61,0.13,3.24,0.01,4.86,0.03c1,0.01,2.06-0.27,2.72,0.95c0.2,0.36,0.92,0.57,1.42,0.62c0.95,0.1,1.91,0.03,2.87,0.03
			c0.85-0.01,1.73,0.07,1.89,1.09c0.16,1.03-0.69,1.67-1.46,1.84c-1.22,0.28-2.52,0.25-3.79,0.27c-2.13,0.04-2.26-0.02-2.72,2
			c-0.53,2.37-0.91,4.79-1.15,7.21c-0.23,2.25-0.21,4.52-0.25,6.79c-0.04,1.85-0.01,3.7-0.01,5.55c0,1.57,0.32,1.82,1.85,1.54
			c0.21-0.04,0.49,0.14,0.7,0.28c0.05,0.03-0.06,0.31-0.1,0.47c-0.05,0.22-0.22,0.51-0.14,0.65c0.14,0.23,0.42,0.41,0.68,0.53
			c0.15,0.08,0.44-0.07,0.55,0.03c0.37,0.31,0.69,0.69,1.03,1.04c-0.34,0.18-0.67,0.48-1.03,0.52c-0.72,0.08-1.46,0.08-2.18,0.01
			c-1.06-0.1-1.37,0.46-1.38,1.38c-0.07,4.06-0.16,8.12-0.22,12.18c-0.03,1.96-0.03,3.93,0,5.89c0.04,2.07,0.14,4.14,0.22,6.22
			c0.01,0.15-0.03,0.38,0.05,0.43c0.98,0.65,1.97,1.29,2.97,1.92c0.28,0.18,0.58,0.32,0.88,0.47c-0.23,0.3-0.4,0.75-0.7,0.88
			c-0.62,0.26-1.35,0.26-1.97,0.52c-0.39,0.17-0.97,0.61-0.96,0.92c0.05,1.56,0.17,3.11,0.29,4.67c0.07,0.94,0.13,2.47,0.13,3.41
			c0,4.14,0.02,8.29-0.01,12.43c-0.01,0.94,0.06,1.53,1.21,0.91c0.3-0.16,0.74-0.12,1.1-0.08c0.19,0.02,0.4,0.19,0.43,0.38
			c0.22,1.24-0.43,2.49-1.76,3.01c-0.98,0.38-1.22,0.98-1.21,1.93c0.02,4.55-0.01,9.1,0.02,13.65c0.02,2.39,0.16,4.78,0.21,7.17
			c0.04,1.73,0.05,3.47-0.01,5.2c-0.03,0.9,0.15,1.37,1.18,1.24c0.95-0.13,1.5,0.32,1.87,1.25c0.38,0.94-0.07,1.12-0.77,1.26
			c-0.47,0.09-0.94,0.16-1.41,0.18c-0.88,0.05-1.07,0.65-1.07,1.36c-0.01,4.32-0.03,8.64,0,12.97c0.03,3.07,0.17,6.13,0.2,9.2
			c0.01,0.83,0.22,1.15,1.09,1.11c0.97-0.05,1.65,0.52,2.03,1.37c0.4,0.88,0.13,1.32-0.75,1.36c-2.28,0.1-2.22,0.1-2.14,2.36
			c0.08,2.37,0.02,4.74,0.02,7.11c0,2.96,0,5.92,0,8.87c0,2.27-0.02,4.54,0.01,6.81c0.01,0.77,0.07,1.56,0.26,2.3
			c0.06,0.24,0.57,0.4,0.9,0.53c0.52,0.2,1.37-0.44,1.58,0.57c0.22,1.06-0.39,2.67-1.17,2.85c-1.15,0.26-1.44,0.92-1.37,2.01
			c0.13,1.88,0.21,3.76,0.23,5.64c0.01,1.08-0.18,2.15-0.2,3.23c-0.03,1.31,0.45,1.75,1.79,1.76c0.19,0,0.44-0.08,0.56,0.02
			c0.31,0.25,0.57,0.57,0.85,0.86c-0.28,0.17-0.56,0.46-0.85,0.48c-2.38,0.15-2.43,0.13-2.35,2.58
			C617.7,219.84,617.9,222.32,618.06,224.9 M588.61,191.51c-0.08,1.65-0.18,3.3-0.2,4.95c0,0.3,0.32,0.84,0.54,0.87
			c1.69,0.22,3.38,0.45,5.08,0.48c4.36,0.06,8.71,0.02,13.07,0.02c0.31,0,0.61-0.03,0.91,0.01c1.89,0.22,3.78,0.5,5.68,0.66
			c0.88,0.08,2.45-1.4,2.46-2.19c0.01-2.9,0.03-5.81-0.03-8.71c-0.01-0.27-0.46-0.69-0.77-0.75c-1.38-0.29-2.78-0.49-4.18-0.72
			c-1.4-0.23-2.79-0.47-4.19-0.69c-1.76-0.28-3.53-0.51-5.28-0.81c-2.28-0.39-4.54-0.88-6.82-1.24c-1.14-0.18-2.31-0.14-3.46-0.26
			c-1.57-0.16-2.14,0.41-2.14,1.91c0,1.08-0.11,2.16-0.22,3.23C588.95,189.27,588.76,190.27,588.61,191.51 M593.72,226.1
			c0,0,2.45,0,3.54,0c2.5,0,5-0.06,7.49,0.02c2.31,0.07,4.64,0.13,6.91,0.51c1.17,0.19,2.52-0.27,3.56,0.82
			c0.36,0.38,1.65-0.44,1.62-0.96c-0.14-2.75-0.3-5.49-0.44-8.24c-0.03-0.52-0.02-1.38-0.02-1.9c0.01-1.41-0.35-1.71-1.64-1.34
			c-0.45,0.13-0.93,0.36-1.36,0.29c-1.42-0.23-2.81-0.59-4.22-0.87c-1-0.19-2-0.43-3.01-0.46c-2.46-0.07-4.92,0.04-7.38-0.04
			c-3.39-0.1-6.78-0.29-10.17-0.45c-0.72-0.03-1.13,0.24-1.15,1.03c-0.05,1.46-0.16,2.92-0.22,4.38c-0.09,2.26-0.17,4.52-0.21,6.78
			c0,0.3,0.28,0.85,0.43,0.85c0.68-0.01,1.36-0.21,2.05-0.27c1.46-0.11,2.92-0.18,4.5-0.15 M615.92,151.35
			c-0.08-1.35-0.22-2.69-0.21-4.04c0-1.5,0.13-3,0.22-4.49c0.05-0.85-0.3-1.24-1.18-1.24c-0.62,0-1.24-0.12-1.85-0.22
			c-1.19-0.19-1.9,0.25-2.26,1.32c-0.22,0.67-0.55,1.3-0.84,1.94c-0.89,1.96-1.79,3.92-2.66,5.9c-0.07,0.16,0.01,0.55,0.12,0.6
			c0.18,0.08,0.52,0.06,0.67-0.07c0.24-0.2,0.42-0.5,0.58-0.78c1.12-1.95,2.21-3.9,3.34-5.84c0.15-0.26,0.39-0.53,0.65-0.63
			c0.32-0.12,0.71-0.07,1.07-0.09c-0.01,0.28,0.05,0.59-0.04,0.85c-0.4,1.13-0.83,2.26-1.3,3.36c-0.19,0.46-0.58,0.83-0.78,1.29
			c-0.09,0.2,0.07,0.51,0.12,0.77c0.21-0.06,0.48-0.06,0.63-0.19c0.46-0.4,0.84-0.91,1.32-1.26c0.25-0.18,0.66-0.13,1-0.19
			c-0.11,0.29-0.15,0.65-0.35,0.85c-1.02,1-2.09,1.95-3.13,2.94c-0.17,0.16-0.24,0.42-0.36,0.63c0.22,0.11,0.44,0.28,0.67,0.31
			c0.84,0.11,1.71,0.08,2.54,0.27c0.49,0.11,1.16,0.45,1.29,0.83c0.13,0.39-0.2,1.12-0.56,1.41c-0.4,0.33-1.14,0.58-1.61,0.44
			c-1.54-0.47-3.12-0.63-4.66-0.96c-4.61-0.99-9.25-1.52-13.94-1.78c-0.41-0.02-1.04-0.33-1.13-0.63c-0.09-0.31,0.32-0.8,0.57-1.18
			c0.3-0.46,0.71-0.85,0.96-1.34c0.55-1.07,1-2.19,1.52-3.27c0.31-0.64,0.7-1.24,1-1.88c0.1-0.2,0.03-0.48,0.03-0.73
			c-0.19,0.1-0.42,0.16-0.56,0.31c-1.12,1.17-2.24,2.35-3.32,3.56c-0.25,0.28-0.43,0.68-0.48,1.05c-0.34,2.43-0.68,4.86-0.92,7.31
			c-0.22,2.22-0.18,4.48-0.53,6.68c-0.19,1.19,0.23,1.17,1.08,1.16c6.7-0.06,13.4-0.21,20.04,0.92c0.99,0.17,2.06,0.2,2.73,1.17
			c0.11,0.16,0.32,0.25,0.48,0.37c0.09-0.23,0.28-0.46,0.27-0.69c-0.03-0.58-0.2-1.16-0.2-1.74
			C615.91,160.09,615.92,155.83,615.92,151.35 M613.4,50.59c1.93-0.3,2.08-0.47,2.06-2.6c-0.01-0.66-0.22-1.31-0.21-1.97
			c0.04-2.45,0.16-4.9,0.19-7.36c0-0.27-0.36-0.72-0.62-0.79c-1.32-0.35-2.65-0.66-3.99-0.87c-2.34-0.37-4.69-0.75-7.05-0.96
			c-2.17-0.2-4.4,0.02-6.54-0.33c-1.16-0.19-1.29,0.02-1.29,0.98c0.02,3.59,0,7.18,0.02,10.77c0,0.69,0.11,1.39,0.24,2.08
			c0.04,0.18,0.32,0.42,0.52,0.45c0.65,0.13,1.31,0.21,1.96,0.24c2.11,0.1,4.22,0.17,6.32,0.23
			C607.77,50.56,610.53,50.63,613.4,50.59 M605.98,69.31c0,0-2.64,0-4.06,0c-0.89,0-1.79-0.01-2.68,0
			c-1.94,0.03-2.49,0.68-2.06,2.49c0.06,0.24,0.13,0.64,0.14,0.89c0.16,2.76,0.28,5.52,0.5,8.27c0.03,0.33,0.6,0.93,0.8,0.89
			c2.73-0.64,5.48-0.74,8.27-0.63c1.45,0.06,2.92-0.18,4.38-0.19c1.11-0.01,2.23,0.13,3.34,0.22c0.51,0.04,0.9-0.34,0.85-0.85
			c-0.09-1.04-0.17-2.08-0.23-3.12c-0.09-1.76-0.25-3.53-0.22-5.3c0.11-5.48,0.3-10.96,0.42-16.44c0.01-0.32-0.17-0.76-0.41-0.96
			c-0.52-0.43-1.15-0.72-1.71-1.11c-0.72-0.5-1.22-0.1-1.52,0.44c-1.57,2.83-3.08,5.68-4.6,8.53c-0.11,0.2-0.04,0.49-0.06,0.74
			c0.22-0.11,0.53-0.16,0.63-0.34c1.35-2.23,2.67-4.48,4.01-6.71c0.14-0.24,0.42-0.4,0.63-0.6c0.17,0.28,0.51,0.59,0.47,0.84
			c-0.22,1.35-0.48,2.69-0.82,4.01c-0.35,1.34-0.82,2.64-1.2,3.98c-0.31,1.09,0.43,2.19,1.59,2.42c1.83,0.36,1.83,0.36,1.15,2.13
			c-0.01,0.03,0,0.08,0,0.11c-0.16,1-0.87,1.06-1.66,0.96c-1.86-0.22-3.71-0.46-5.8-0.69 M597.91,125.3
			c-1.39,0.23-1.62,1.22-1.75,2.43c-0.19,1.68-0.6,3.34-0.87,5.02c-0.27,1.69-0.5,3.39-0.7,5.1c-0.07,0.61,0.03,1.21,0.89,1.13
			c2.87-0.27,5.73-0.61,8.6-0.79c1.29-0.08,2.61,0.09,3.91,0.21c2.2,0.2,4.39,0.48,6.59,0.66c0.47,0.04,1.3,0.36,1.32-0.56
			c0.05-2.35,0-4.71,0.03-7.07c0.01-1.08,0.08-2.16,0.22-3.23c0.11-0.79-0.24-1.19-1.09-1.05c-0.43,0.07-0.87,0.27-1.28,0.21
			c-2.37-0.34-4.72-0.8-7.09-1.11C603.85,125.86,600.99,125.6,597.91,125.3 M598.94,104.53c-0.08,0.54-0.16,1.08-0.23,1.62
			c-0.11,0.85,0.31,1.46,1.07,1.68c0.7,0.2,1.46,0.22,2.19,0.25c0.99,0.04,1.99-0.05,2.98,0.02c2.47,0.19,4.93,0.48,7.4,0.65
			c0.41,0.03,0.89-0.27,1.25-0.54c0.5-0.38,0.83-0.95,1.62-0.85c0.2,0.03,0.63-0.37,0.68-0.63c0.15-0.87,0.2-1.76,0.25-2.65
			c0.09-1.62,0.18-3.25,0.22-4.87c0.02-0.7,0.32-1.67-0.71-1.89c-1.53-0.32-3.08-0.59-4.64-0.69c-2.46-0.16-4.93-0.19-7.39-0.25
			c-1.22-0.03-2.45-0.05-3.67,0.03c-0.28,0.02-0.74,0.48-0.76,0.76C599.07,99.54,599.02,101.92,598.94,104.53 M598.71,239.48
			c-0.57,0.72-1.1,1.47-1.72,2.14c-0.22,0.24-0.79,0.48-0.98,0.36c-0.27-0.17-0.45-0.65-0.49-1.02c-0.04-0.38,0.07-0.79,0.21-1.16
			c0.59-1.55,1.24-3.08,1.81-4.64c0.14-0.4,0.07-0.87,0.1-1.31c-0.32,0.33-0.72,0.6-0.94,0.99c-1.2,2.18-2.32,4.39-3.52,6.57
			c-1.13,2.05-1.83,2.32-3.89,1.63c-1.14-0.39-1.43-1.18-1-2.35c0.67-1.83,1.26-3.68,1.86-5.53c0.06-0.18-0.05-0.4-0.08-0.61
			c-0.16,0.08-0.38,0.13-0.46,0.26c-0.48,0.83-0.84,1.75-1.41,2.5c-1.34,1.79-2.42,3.62-1.91,5.98c0.02,0.11-0.04,0.26,0.01,0.34
			c0.21,0.28,0.4,0.69,0.68,0.76c0.91,0.23,1.85,0.39,2.78,0.48c1.3,0.13,2.61,0.14,3.92,0.25c2.73,0.21,5.47,0.47,8.2,0.66
			c0.23,0.02,0.61-0.2,0.69-0.4c0.78-2.01,1.5-4.04,2.26-6.06c0.44-1.16,0.93-2.29,1.36-3.45c0.09-0.25-0.01-0.56-0.02-0.84
			c-0.2,0.17-0.45,0.3-0.58,0.51c-0.58,0.94-1.12,1.91-1.68,2.86c-0.45,0.77-0.86,1.57-1.4,2.28c-0.35,0.47-0.79,1.16-1.55,0.6
			c-0.7-0.52-0.5-1.24-0.29-1.93c0.05-0.17,0.17-0.31,0.24-0.47c0.64-1.68,1.3-3.36,1.9-5.06c0.11-0.3-0.02-0.69-0.04-1.04
			c-0.29,0.22-0.68,0.38-0.84,0.67C600.87,235.39,599.86,237.38,598.71,239.48 M617.07,230.76c-0.51-0.57-0.83-0.41-0.91,0.29
			c-0.11,0.96-0.17,1.92-0.24,2.88c-0.16,2.15-0.3,4.3-0.47,6.46c-0.01,0.13-0.08,0.27-0.15,0.39c-0.16,0.3-0.34,0.59-0.51,0.88
			c-0.31-0.34-0.86-0.66-0.9-1.03c-0.16-1.75-0.26-3.52,0.53-5.19c0.13-0.28,0.12-0.65,0.09-0.98c-0.01-0.08-0.43-0.23-0.48-0.18
			c-0.25,0.26-0.49,0.55-0.63,0.88c-0.63,1.49-1.15,3.05-1.88,4.49c-0.48,0.96-1.22,1.8-1.9,2.65c-0.44,0.55-0.86,0.37-1.04-0.25
			c-0.1-0.35-0.17-0.76-0.09-1.1c0.38-1.63,0.82-3.25,1.21-4.88c0.04-0.18-0.15-0.41-0.24-0.61c-0.15,0.15-0.34,0.28-0.43,0.46
			c-1.56,3.06-2.17,6.6-4.68,9.19c-0.16,0.16-0.03,0.6-0.03,0.91c0.24,0,0.49,0.02,0.73-0.01c0.54-0.06,1.08-0.22,1.62-0.21
			c2.53,0.05,5.06,0.13,7.58,0.23c0.31,0.01,0.62,0.2,0.94,0.21c0.78,0.01,1.62,0.07,1.64-1.1c0.07-4.13,0.15-8.27,0.23-12.4
			C617.08,232.16,617.07,231.57,617.07,230.76 M606.28,53.8c-0.11,0.34-0.15,0.72-0.34,1.01c-0.64,1-1.36,1.96-2.01,2.96
			c-0.44,0.69-0.84,1.4-1.21,2.14c-0.12,0.23-0.05,0.56-0.07,0.84c0.19-0.15,0.43-0.26,0.56-0.46c1.55-2.3,3.09-4.6,4.61-6.92
			c0.07-0.11-0.09-0.55-0.2-0.57c-0.69-0.13-1.38-0.24-2.08-0.24c-2.42-0.03-4.84,0-7.26-0.02c-0.35,0-0.74-0.28-1.04-0.19
			c-0.39,0.12-1.04,0.51-1.02,0.73c0.14,1.45-0.62,3.03,0.56,4.34c0.1,0.11,0.07,0.35,0.06,0.53c-0.07,2.39-0.18,4.78-0.18,7.17
			c0,0.47,0.41,1.35,0.6,1.34c0.6-0.03,1.2-0.37,1.78-0.63c0.2-0.09,0.3-0.36,0.5-0.46c0.2-0.11,0.46-0.12,0.7-0.17
			c-0.05,0.19-0.1,0.38-0.16,0.56c-0.19,0.64-0.21,1.07,0.72,1.02c1.33-0.08,2.67-0.02,4.01-0.02c0.44,0,0.75,0.11,0.38-0.6
			c-0.26-0.5-0.13-1.31,0.07-1.9c0.3-0.9,0.83-1.72,1.23-2.58c0.07-0.14,0.03-0.34,0.04-0.51c-0.16,0.06-0.38,0.08-0.48,0.2
			c-0.56,0.72-1.01,1.53-1.64,2.17c-0.73,0.76-1.51,1.61-2.44,1.96c-0.4,0.15-1.2-0.93-1.89-1.33c-0.39-0.22-0.93-0.17-1.39-0.29
			c-0.32-0.08-0.89-0.33-0.88-0.36c0.31-1.09,0.56-2.22,1.07-3.22c0.51-0.98,1.35-1.79,1.97-2.73c0.55-0.83,0.95-1.75,1.49-2.59
			c0.17-0.27,0.57-0.4,0.86-0.59c-0.08,0.36-0.14,0.74-0.26,1.09c-0.04,0.13-0.23,0.2-0.31,0.33c-0.63,1.08-1.27,2.15-1.85,3.25
			c-0.1,0.19,0.08,0.53,0.14,0.8c0.17-0.16,0.39-0.3,0.52-0.49c1.18-1.73,2.31-3.48,3.53-5.18
			C605.21,53.92,605.77,53.86,606.28,53.8 M614.78,168.79c-0.12,0.72-0.54,1.58-0.29,2.15c0.53,1.22,0.32,2.33-0.2,3.35
			c-1.26,2.46-2.34,4.93-2.07,7.8c0.02,0.25-0.48,0.81-0.59,0.78c-0.37-0.12-0.86-0.39-0.94-0.7c-0.15-0.57-0.02-1.21-0.05-1.82
			c-0.02-0.33-0.03-0.77-0.23-0.96c-0.72-0.67-0.91-1.53-0.41-2.36c0.22-0.37,0.46-0.73,0.64-1.11c0.06-0.14-0.03-0.35-0.06-0.53
			c-0.16,0.05-0.35,0.07-0.47,0.17c-0.22,0.19-0.46,0.41-0.6,0.67c-0.56,0.99-0.96,2.09-1.65,2.97c-0.49,0.63-1.65,1.52-1.99,1.33
			c-1.17-0.63-1.67-0.19-2.14,0.73c-0.23,0.44-0.42,0.89-0.63,1.33c0.49,0.11,0.97,0.26,1.47,0.33c1.62,0.24,3.25,0.48,4.87,0.69
			c1.89,0.25,3.78,0.49,5.68,0.67c0.26,0.02,0.74-0.28,0.79-0.5c0.17-0.75,0.24-1.53,0.25-2.3c0.03-2.11,0.01-4.23,0.01-6.34
			c0-1.53,0.07-3.06-0.03-4.58C616.07,169.76,616.08,168.76,614.78,168.79 M605.48,25c-0.27-0.08-0.54-0.19-0.82-0.22
			c-2.08-0.24-4.17-0.46-6.25-0.7c-0.51-0.06-1.04-0.29-1.5-0.18c-0.36,0.08-0.86,0.52-0.91,0.85c-0.18,1.22-0.22,2.45-0.25,3.69
			c-0.01,0.3,0.19,0.6,0.3,0.9c0.2-0.28,0.47-0.54,0.59-0.85c0.28-0.73,0.35-1.56,0.76-2.2c0.23-0.36,1.02-0.66,1.42-0.54
			c0.73,0.23,0.18,0.77-0.04,1.13c-0.49,0.83-1.03,1.64-1.52,2.47c-0.08,0.13-0.04,0.43,0.06,0.53c0.1,0.09,0.42,0.09,0.52,0
			c0.92-0.86,1.81-1.74,2.71-2.62c0.19-0.18,0.31-0.5,0.52-0.56c0.36-0.11,0.78-0.08,1.17-0.11c-0.04,0.36,0.04,0.8-0.14,1.08
			c-0.38,0.59-0.89,1.1-1.36,1.62c-1.14,1.27-1.77,2.68-1.11,4.39c0.07,0.18,0.24,0.32,0.36,0.48c0.11-0.19,0.27-0.36,0.3-0.56
			c0.04-0.25-0.09-0.51-0.06-0.76c0.06-0.5,0.05-1.08,0.3-1.47c0.97-1.52,2.03-2.99,3.06-4.47c0.15-0.22,0.35-0.42,0.57-0.56
			c0.17-0.11,0.4-0.12,0.61-0.18c0.04,0.17,0.16,0.37,0.11,0.51c-0.2,0.57-0.38,1.16-0.69,1.66c-0.51,0.83-1.16,1.58-1.66,2.42
			c-0.14,0.24,0.01,0.66,0.03,1c0.11-0.01,0.26,0.03,0.32-0.03c1.29-1.33,2.55-2.69,3.86-3.99c0.43-0.43,1.25-1.12,1.49-0.98
			c0.82,0.46,0.09,1.11-0.13,1.68c-0.07,0.16-0.21,0.29-0.3,0.45c-0.54,0.92-1.11,1.83-1.6,2.78c-0.11,0.21,0.07,0.56,0.11,0.85
			c0.19-0.14,0.41-0.25,0.56-0.42c0.96-1.01,1.9-2.04,2.84-3.06c0.86-0.94,1.72-1.87,2.58-2.81c0.09-0.1,0.19-0.35,0.16-0.37
			c-0.2-0.15-0.42-0.34-0.64-0.36C609.79,25.3,607.75,25.15,605.48,25 M601.46,176.59c0.95-1.4,1.9-2.8,2.83-4.22
			c0.75-1.14,1.46-2.3,2.22-3.43c0.27-0.4,0.58-0.79,0.96-1.08c0.18-0.14,0.57-0.1,0.82,0c0.1,0.04,0.13,0.48,0.05,0.68
			c-0.54,1.34-1.07,2.69-1.7,4c-0.93,1.91-1.95,3.78-2.88,5.69c-0.12,0.25,0.02,0.62,0.04,0.94c0.22-0.21,0.49-0.38,0.64-0.62
			c1.91-3.16,4.22-6.1,5.34-9.71c0.1-0.32,0.92-0.41,1.41-0.61c0.05,0.37,0.16,0.75,0.12,1.11c-0.04,0.34-0.21,0.67-0.36,0.99
			c-0.78,1.62-1.58,3.24-2.37,4.87c-0.08,0.17-0.11,0.37-0.17,0.56c0.18-0.08,0.45-0.1,0.54-0.24c1.26-1.84,2.56-3.66,3.7-5.58
			c0.3-0.51,0.34-1.46,0.05-1.94c-0.29-0.48-1.12-0.79-1.75-0.88c-1.64-0.25-3.3-0.4-4.96-0.47c-1.74-0.08-1.73-0.01-2.29,1.75
			c-0.15,0.47-0.41,0.9-0.63,1.34c-0.97,1.97-1.96,3.92-2.92,5.9c-0.44,0.92-0.83,1.87-1.2,2.83c-0.08,0.21,0.04,0.5,0.07,0.76
			c0.23-0.06,0.57-0.05,0.69-0.2C600.29,178.26,600.81,177.48,601.46,176.59 M606.05,209.87c0.36,0.55,0.62,0.13,0.8-0.13
			c0.38-0.56,0.75-1.14,1.03-1.75c0.82-1.84,1.61-3.69,2.38-5.55c0.23-0.56,0.6-0.93,1.16-0.68c0.29,0.13,0.62,0.68,0.56,0.95
			c-0.25,1.14-0.66,2.24-0.98,3.37c-0.07,0.24,0.04,0.52,0.07,0.78c0.24-0.07,0.55-0.07,0.7-0.22c0.22-0.22,0.34-0.54,0.47-0.83
			c0.29-0.68,0.53-1.39,0.86-2.05c0.14-0.27,0.48-0.44,0.72-0.66c0.24,0.3,0.68,0.59,0.68,0.88c-0.02,1.37-0.2,2.75-0.25,4.12
			c-0.02,0.57-0.03,1.27,0.27,1.69c0.63,0.86,0.07,1.36-0.48,1.63c-0.29,0.14-1.1-0.25-1.29-0.6c-0.28-0.51-0.19-1.21-0.29-1.82
			c-0.03-0.2-0.19-0.38-0.29-0.57c-0.14,0.11-0.32,0.18-0.4,0.32c-0.47,0.8-0.89,1.63-1.38,2.41c-0.33,0.52-0.75,0.99-1.13,1.48
			c0.57,0.04,1.14,0.08,1.71,0.11c1.46,0.08,2.92,0.22,4.38,0.18c0.35-0.01,0.86-0.59,0.97-1c0.13-0.49-0.16-1.07-0.15-1.61
			c0.05-3.04,0.15-6.08,0.18-9.13c0.01-0.5-0.27-0.92-0.83-0.34c-0.55,0.57-1.1,0.73-1.94,0.45c-1.19-0.39-2.47-0.56-3.72-0.69
			c-0.33-0.04-1.03,0.44-1.01,0.61c0.26,2.05-0.95,3.61-1.65,5.35C606.8,207.58,606.44,208.62,606.05,209.87 M611.91,83.07
			c-1.39,0-2.78,0-4.17,0c-0.23,0-0.45-0.01-0.68-0.03c-0.7-0.06-1.41-0.24-2.09-0.17c-0.86,0.09-1.6,0.4-1.91,1.43
			c-0.33,1.11-0.89,2.15-1.35,3.22c-0.46,1.07-0.95,2.13-1.38,3.21c-0.06,0.15,0.09,0.39,0.14,0.6c0.18-0.12,0.42-0.2,0.52-0.36
			c1.26-2.07,2.48-4.18,3.77-6.23c0.22-0.35,0.75-0.51,1.14-0.75c0.06,0.49,0.32,1.08,0.14,1.44c-0.63,1.24-1.42,2.4-2.15,3.59
			c-0.49,0.79-1.02,1.56-1.43,2.39c-0.12,0.24,0.12,0.66,0.19,1c0.18-0.06,0.45-0.06,0.54-0.19c1.35-1.84,2.69-3.69,4-5.57
			c0.44-0.64,0.78-1.36,1.16-2.04c0.35-0.63,0.94-0.81,1.51-0.53c0.18,0.09,0.21,0.88,0.04,1.19c-0.72,1.28-1.54,2.5-2.32,3.74
			c-0.4,0.64-0.87,1.24-1.19,1.92c-0.12,0.25,0.09,0.66,0.15,1c0.22-0.16,0.46-0.28,0.64-0.47c0.25-0.26,0.44-0.58,0.66-0.87
			c1.27-1.74,2.81-3.31,3.41-5.47c0.05-0.17,0.12-0.41,0.24-0.46c0.5-0.18,1.02-0.3,1.54-0.44c-0.03,0.33-0.04,0.65-0.09,0.98
			c-0.04,0.24-0.1,0.5-0.2,0.72c-0.61,1.24-1.25,2.46-1.84,3.71c-0.09,0.19,0.01,0.47,0.02,0.71c0.18-0.05,0.42-0.05,0.55-0.16
			c0.99-0.89,1.88-1.85,2.19-3.22c0.19-0.83,0.62-1.43,1.63-1.37c0.39,0.02,1.05-0.24,0.46-0.69
			C614.65,84.09,613.76,82.82,611.91,83.07 M600.55,206.66c0.08-0.2,0.14-0.4,0.23-0.59c0.94-1.82,1.9-3.64,2.84-5.47
			c0.07-0.13,0.1-0.39,0.02-0.45c-0.15-0.13-0.37-0.23-0.58-0.25c-0.93-0.1-1.87-0.14-2.81-0.24c-1.03-0.11-1.97,0.5-2.38,1.39
			c-0.67,1.44-1.45,2.84-2.17,4.26c-0.7,1.39-1.39,2.78-2.03,4.2c-0.11,0.25,0.08,0.62,0.12,0.94c0.23-0.09,0.57-0.11,0.68-0.28
			c1.2-1.9,2.39-3.81,3.53-5.76c0.66-1.13,1.2-2.33,1.86-3.47c0.12-0.2,0.55-0.22,0.84-0.33c0.1,0.3,0.36,0.67,0.27,0.9
			c-0.52,1.39-1.1,2.75-1.71,4.1c-0.67,1.48-1.41,2.93-2.08,4.41c-0.09,0.2,0.1,0.51,0.16,0.77c0.19-0.13,0.44-0.21,0.56-0.39
			C598.77,209.22,599.59,207.99,600.55,206.66 M598.82,150.08c0.27-0.04,0.67,0.03,0.78-0.12c1.55-2.12,3.54-3.91,4.49-6.47
			c0.33-0.88,1.09-1.59,1.64-2.39c0.07-0.11,0.13-0.35,0.08-0.4c-0.13-0.12-0.33-0.25-0.5-0.24c-1.11,0.05-2.23,0.22-3.34,0.19
			c-0.8-0.02-1.3,0.29-1.64,0.91c-1.02,1.87-2,3.75-2.99,5.63c-0.18,0.34-0.35,0.7-0.45,1.07c-0.05,0.19,0.04,0.43,0.07,0.65
			c0.21-0.12,0.51-0.18,0.62-0.35c0.78-1.31,1.53-2.64,2.28-3.98c0.31-0.56,0.56-1.15,0.91-1.68c0.14-0.2,0.49-0.26,0.74-0.39
			c0.06,0.23,0.15,0.45,0.18,0.68c0.11,0.91-0.22,1.67-0.69,2.46C600.16,147.05,599.46,148.53,598.82,150.08 M615.92,124.72
			c0-4.21,0-8.42,0-12.62c0-1-0.45-1.37-1.3-0.95c-0.42,0.21-0.77,0.71-0.97,1.16c-0.35,0.79-0.81,1.65,0.19,2.4
			c0.13,0.1,0.03,0.51,0.02,0.78c-0.07,2.1-0.23,4.21-0.2,6.31C613.67,123.4,614.42,124.89,615.92,124.72 M597.91,174.87
			c1.4-2.4,2.81-4.79,4.2-7.19c0.27-0.46,0.49-0.94,0.73-1.41c-0.53,0.04-1.05,0.13-1.58,0.11c-1.11-0.04-2.23-0.11-3.34-0.23
			c-1.16-0.13-1.83,0.95-1.64,1.48c0.42,1.22-0.46,1.99-0.55,2.97c-0.03,0.35-0.04,0.71-0.07,1.07c0.33-0.2,0.79-0.33,0.96-0.63
			c0.53-0.96,0.89-2,1.43-2.95c0.25-0.44,0.7-0.81,1.13-1.11c0.49-0.34,0.82-0.11,0.66,0.45c-0.33,1.16-0.65,2.33-1.15,3.42
			c-1.01,2.18-2.14,4.3-3.2,6.47c-0.09,0.18,0.02,0.47,0.04,0.71c0.22-0.12,0.51-0.19,0.63-0.38
			C596.74,176.77,597.26,175.87,597.91,174.87 M601.58,120.02c-0.27,0.5-0.58,0.98-0.78,1.51c-0.07,0.18,0.14,0.46,0.22,0.69
			c0.19-0.12,0.44-0.21,0.56-0.38c2.3-3.28,4.59-6.56,6.87-9.86c0.2-0.28,0.29-0.63,0.43-0.95c-0.36-0.14-0.71-0.32-1.09-0.41
			c-0.81-0.2-1.11,0.32-1.29,0.98c-0.11,0.37-0.18,0.77-0.38,1.1C604.67,115.11,603.18,117.5,601.58,120.02 M604.68,209.18
			c0.38-0.95,0.78-1.89,1.13-2.85c0.09-0.25,0.01-0.55,0.01-0.83c-0.23,0.18-0.5,0.32-0.68,0.54c-1.16,1.42-2.27,2.88-3.46,4.28
			c-0.47,0.55-1.08,0.96-1.75,0.13c-0.09-0.11-0.58-0.07-0.67,0.05c-0.26,0.37-0.35,0.85-0.6,1.23c-0.59,0.93,0.12,0.8,0.62,0.77
			c0.75-0.04,1.49-0.2,2.23-0.21c1.85-0.04,2.34-0.36,2.92-2.06C604.54,209.96,604.6,209.69,604.68,209.18 M608.46,140.9
			c-0.74,0.1-1.89-0.39-1.91,0.9c-0.02,1.16-0.64,1.95-1.15,2.86c-0.54,0.99-1.02,2.02-1.44,3.06c-0.09,0.22,0.16,0.57,0.26,0.87
			c0.24-0.09,0.57-0.11,0.7-0.28c1.08-1.49,2.12-3.01,3.17-4.52c0.49-0.71,0.95-1.44,1.47-2.14c0.21-0.28,0.51-0.49,0.77-0.73
			c-0.38-0.08-0.77-0.2-1.16-0.24C609.02,140.67,608.85,140.83,608.46,140.9 M609.96,112.1c-0.89,1.5-1.83,2.97-2.65,4.51
			c-0.77,1.43-1.43,2.91-2.09,4.39c-0.1,0.23,0.01,0.56,0.03,0.84c0.26-0.1,0.64-0.12,0.76-0.31c0.67-1.05,1.24-2.15,1.9-3.21
			c1.3-2.1,2.62-4.17,3.93-6.26c0.14-0.22,0.24-0.47,0.36-0.71c-0.27-0.09-0.53-0.22-0.8-0.27
			C610.64,110.92,610.32,111.41,609.96,112.1 M594.01,166.15c-0.58,0.08-1.21,0.34-1.72,0.19c-1.11-0.31-1.3,0.36-1.36,1.11
			c-0.19,2.31-0.32,4.62-0.47,6.93c-0.02,0.32-0.04,0.63-0.06,0.95c0.21-0.3,0.44-0.58,0.61-0.9c0.16-0.31,0.21-0.68,0.38-0.98
			c1.16-2.18,1.19-4.86,2.96-6.78C594.41,166.59,594.27,166.32,594.01,166.15 M603.19,63.79c0.65-0.8,1.34-1.57,1.93-2.41
			c1.78-2.5,3.52-5.03,5.25-7.56c0.11-0.17,0.03-0.47,0.04-0.71c-0.31,0-0.69-0.1-0.91,0.03c-0.29,0.18-0.46,0.55-0.66,0.85
			c-0.55,0.84-1.06,1.7-1.62,2.53c-1.34,1.97-2.71,3.91-4.02,5.9C603,62.74,603.11,63.25,603.19,63.79 M588.5,234.54
			c0.75-1.6,1.53-3.18,2.26-4.79c0.45-1,0.18-1.43-0.87-1.4c-0.77,0.03-1.56,0.08-2.3,0.25c-0.31,0.07-0.7,0.47-0.76,0.77
			c-0.09,0.48,0.06,1.02,0.11,1.53c0.16-0.04,0.33-0.06,0.48-0.11c0.24-0.09,0.48-0.19,0.72-0.29c0.03,0.29,0.14,0.59,0.08,0.86
			c-0.22,1.05-0.53,2.08-0.73,3.13c-0.04,0.22,0.23,0.49,0.35,0.74C588.02,235.04,588.2,234.85,588.5,234.54 M592.4,178.31
			c-0.59,0.47-0.92,1.3-1.94,1.2c-0.2-0.02-0.54,0.67-0.67,1.07c-0.06,0.18,0.2,0.64,0.37,0.68c0.76,0.15,1.53,0.23,2.31,0.25
			c0.62,0.01,0.98-0.23,0.76-0.99c-0.1-0.34,0.04-0.81,0.2-1.16c0.75-1.64,1.56-3.25,2.33-4.88c0.07-0.16,0.04-0.37,0.06-0.55
			c-0.21,0.01-0.48-0.07-0.61,0.04c-0.27,0.23-0.49,0.53-0.67,0.83C593.85,175.93,593.19,177.06,592.4,178.31 M592.05,232.59
			c-0.31,1.21-0.65,2.41-0.9,3.63c-0.1,0.47,0.03,0.99,0.06,1.49c0.28-0.39,0.64-0.75,0.83-1.19c1.04-2.47,2.04-4.96,3.05-7.44
			c0.04-0.11-0.03-0.38-0.06-0.38c-0.59-0.04-1.21-0.18-1.75-0.02c-0.27,0.08-0.41,0.71-0.53,1.11
			C592.49,230.64,592.28,231.5,592.05,232.59 M612.25,120.13c0-0.31,0-0.61,0-0.92c0-0.27,0.02-0.54,0.03-0.8
			c-0.32,0.13-0.78,0.18-0.92,0.42c-0.89,1.46-1.69,2.97-2.56,4.44c-0.31,0.53-0.26,0.79,0.38,0.89c0.93,0.14,1.86,0.34,2.79,0.44
			c0.63,0.07,0.77-0.11,0.56-0.86C612.24,122.66,612.33,121.49,612.25,120.13 M591.82,202.99c0.23-0.82,0.49-1.63,0.67-2.46
			c0.05-0.26-0.13-0.57-0.21-0.86c-0.31,0.18-0.72,0.29-0.9,0.55c-0.48,0.7-0.88,1.46-1.29,2.21c-0.73,1.33-1.51,2.65-2.13,4.04
			c-0.16,0.37,0.18,0.96,0.29,1.45c0.32-0.23,0.74-0.4,0.94-0.7C590.06,205.86,590.88,204.47,591.82,202.99 M598.48,141.71
			c0.19-0.27,0.38-0.54,0.57-0.81c-0.31-0.07-0.63-0.24-0.93-0.21c-1.2,0.12-2.42,0.19-3.56,0.51c-0.31,0.09-0.38,0.99-0.56,1.53
			c0.13,0.03,0.27,0.08,0.4,0.08c0.24-0.01,0.48-0.07,0.71-0.11c-0.06,0.24-0.06,0.51-0.18,0.71c-0.49,0.83-1.02,1.63-1.51,2.46
			c-0.09,0.15-0.07,0.36-0.1,0.55c0.21-0.05,0.48-0.04,0.61-0.17c0.92-0.94,1.8-1.92,2.72-2.86
			C597.19,142.83,597.79,142.34,598.48,141.71 M599.17,115.54c0.38-0.45,0.82-0.87,1.12-1.37c0.66-1.09,1.24-2.23,1.87-3.34
			c0.23-0.41,0.18-0.62-0.34-0.7c-0.71-0.11-1.4-0.32-2.1-0.44c-0.63-0.11-1.1,0.12-1.24,0.8c-0.14,0.67-0.31,1.33-0.39,2.01
			c-0.04,0.32,0.12,0.67,0.2,1.01c0.22-0.24,0.46-0.47,0.64-0.73c0.12-0.17,0.12-0.42,0.24-0.58c0.38-0.53,0.78-1.04,1.21-1.53
			c0.08-0.1,0.35-0.03,0.52-0.05c-0.05,0.18-0.05,0.4-0.14,0.55c-0.8,1.27-1.65,2.51-2.39,3.81c-0.27,0.47-0.29,1.08-0.42,1.63
			c0.38-0.26,0.75-0.51,1.13-0.77C599.12,115.83,599.14,115.8,599.17,115.54 M613.63,93.97c0.17,1.23,1.16,0.07,1.64,0.55
			c0.17,0.17,0.66,0.03,1,0.02c-0.01-0.16,0-0.32-0.02-0.47c-0.11-0.91-0.28-1.82-0.31-2.73c-0.05-1.33,0-2.67-0.03-4.01
			c0-0.2-0.17-0.4-0.26-0.6c-0.22,0.2-0.55,0.35-0.62,0.59c-0.2,0.65-0.29,1.33-0.44,2C614.27,90.8,613.95,92.27,613.63,93.97
			 M594.12,235.35c-0.46,0.92-0.94,1.82-1.36,2.75c-0.13,0.3-0.11,0.67-0.16,1c0.32-0.22,0.64-0.44,0.95-0.67
			c0.05-0.04,0.07-0.12,0.11-0.18c1.28-2.33,2.57-4.65,3.84-6.98c0.3-0.56,0.55-1.15,0.81-1.72c0.11-0.23,0.2-0.48,0.3-0.71
			c-0.27-0.08-0.64-0.32-0.79-0.22c-0.44,0.3-0.94,0.66-1.16,1.12c-0.61,1.3-1.08,2.68-1.64,4.01
			C594.81,234.25,594.5,234.73,594.12,235.35 M610.19,60c-0.54,1-1,2.04-1.63,2.98c-0.73,1.09-1.6,2.08-2.4,3.12
			c-0.13,0.17-0.22,0.36-0.33,0.55c0.21,0.04,0.42,0.13,0.63,0.11c0.77-0.06,1.55-0.09,2.3-0.25c0.29-0.06,0.64-0.42,0.72-0.72
			c0.51-1.85,0.97-3.72,1.4-5.59c0.08-0.37-0.03-0.78-0.05-1.17C610.62,59.28,610.4,59.53,610.19,60 M599.05,119.56
			c0.57-1.18,1.15-2.35,1.68-3.54c0.09-0.21-0.07-0.54-0.11-0.82c-0.18,0.12-0.4,0.2-0.54,0.35c-1.88,2.11-3.13,4.49-3.2,7.38
			c-0.01,0.25,0.23,0.73,0.34,0.72c0.49-0.03,0.99-0.16,1.46-0.31c0.12-0.04,0.26-0.41,0.23-0.44
			C597.63,121.81,598.59,120.74,599.05,119.56 M594.69,203.56c0.51-0.97,1-1.96,1.55-2.91c0.33-0.58,0.23-0.9-0.44-0.73
			c-0.5,0.12-1.09,0.37-1.38,0.76c-0.41,0.55-0.58,1.28-0.84,1.93c-0.57,1.41-1.17,2.81-1.68,4.24c-0.11,0.3,0.08,0.72,0.14,1.08
			c0.25-0.21,0.6-0.37,0.74-0.63C593.41,206.1,593.98,204.88,594.69,203.56 M613.97,28.67c-1.37,1.68-2.76,3.34-4.09,5.06
			c-0.11,0.14,0.14,0.83,0.32,0.87c0.52,0.12,1.08,0.02,1.63,0.05c0.68,0.04,1.01-0.06,1.16-0.92c0.25-1.49,0.81-2.93,1.22-4.39
			C614.26,29.18,614.13,28.97,613.97,28.67 M600.66,150.08c-0.13,0.21-0.27,0.42-0.4,0.63c-0.13,0.21-0.26,0.42-0.4,0.63
			c0.3,0.11,0.58,0.26,0.89,0.33c0.46,0.11,0.93,0.15,1.39,0.24c2.11,0.42,3.44-0.34,4.07-2.36c0.06-0.2-0.07-0.46-0.11-0.7
			c-0.19,0.08-0.41,0.12-0.56,0.25c-0.6,0.5-1.12,1.11-1.78,1.5c-0.81,0.48-1.3,0.16-1.39-0.66c-0.04-0.42-0.21-0.82-0.32-1.24
			c-0.32,0.31-0.64,0.61-0.95,0.92C600.99,149.75,600.88,149.86,600.66,150.08 M605.02,110.38c-1.02-0.68-1.21,0.28-1.47,0.84
			c-0.43,0.92-0.71,1.92-1.09,2.86c-0.43,1.08-0.93,2.13-1.35,3.22c-0.08,0.21,0.08,0.51,0.12,0.77c0.16-0.16,0.35-0.31,0.48-0.49
			c0.92-1.37,1.94-2.69,2.71-4.14C604.89,112.57,605.58,111.63,605.02,110.38 M615.01,30.62c-0.31,1.1-0.65,2.19-0.89,3.3
			c-0.06,0.27,0.22,0.61,0.35,0.92c0.32-0.42,1.22,0.11,1.27-0.92c0.06-1.18,0.49-2.33,0.61-3.51c0.11-1.07,0.05-2.16,0.02-3.24
			c-0.01-0.19-0.28-0.37-0.43-0.56c-0.08,0.21-0.18,0.42-0.23,0.63C615.46,28.29,615.23,29.34,615.01,30.62 M605.94,200.12
			c-0.34,0.27-0.99,0.54-0.98,0.79c0.06,1.56-0.84,2.73-1.43,4.02c-0.19,0.42-0.52,0.79-0.65,1.22c-0.07,0.22,0.16,0.53,0.25,0.79
			c0.19-0.15,0.43-0.26,0.56-0.45c0.65-0.99,1.29-1.99,1.91-2.99c0.49-0.79,0.96-1.59,1.42-2.4c0.13-0.24,0.18-0.53,0.27-0.79
			C606.91,200.24,606.54,200.18,605.94,200.12 M591.48,212.09c0.17-0.37,0.33-0.74,0.5-1.1c-0.23-0.09-0.45-0.24-0.69-0.26
			c-1.29-0.12-1.57-0.49-1.28-1.76c0.04-0.18,0.06-0.37,0.09-0.55c-0.21,0.05-0.45,0.05-0.61,0.17c-0.53,0.4-1.17,0.76-1.49,1.31
			c-0.34,0.59-0.37,1.36-0.53,2.06c0.45,0.04,0.9,0.11,1.35,0.13c0.49,0.02,0.99,0.01,1.49,0.01c0.32,0,0.79,0,0.79,0
			 M613.86,232.13c0.19-0.34,0.38-0.68,0.56-1.02c0.32-0.63,0.2-1.33-0.41-1.5c-0.43-0.12-1.05,0.32-1.51,0.61
			c-0.18,0.11-0.18,0.52-0.24,0.79c-0.23,1.05-0.44,2.1-0.66,3.15c-0.09,0.42-0.22,0.84-0.24,1.26c-0.01,0.23,0.16,0.48,0.24,0.72
			c0.19-0.16,0.45-0.29,0.56-0.5C612.74,234.57,613.29,233.46,613.86,232.13 M605.37,229.61c-0.03,0.18-0.03,0.37-0.08,0.54
			c-0.58,1.66-1.19,3.32-1.73,4.99c-0.09,0.29,0.11,0.67,0.17,1.01c0.2-0.23,0.46-0.43,0.6-0.69c0.97-1.77,1.92-3.54,2.88-5.32
			c0.14-0.27,0.27-0.54,0.41-0.82c-0.42-0.17-0.85-0.47-1.27-0.48C606.05,228.85,605.77,229.26,605.37,229.61 M598.37,83.98
			c0.04,1.03,0.05,2.06,0.13,3.09c0.02,0.28,0.26,0.54,0.39,0.82c0.18-0.2,0.34-0.42,0.53-0.59c0.74-0.67,0.8-1.9,1.97-2.27
			c0.28-0.09,0.41-0.79,0.5-1.22c0.03-0.13-0.32-0.5-0.46-0.48C600.45,83.46,599.47,83.68,598.37,83.98 M600.89,232.94
			c0.67-1.13,1.34-2.27,2.03-3.4c0.33-0.53,0.18-0.84-0.4-0.96c-0.76-0.15-1.26,0.12-1.52,0.88c-0.27,0.8-0.56,1.6-0.87,2.39
			c-0.27,0.69-0.65,1.34-0.86,2.05c-0.09,0.31,0.13,0.72,0.22,1.08c0.21-0.2,0.48-0.36,0.62-0.6
			C600.37,233.96,600.56,233.5,600.89,232.94 M601.69,178.2c-0.75,0.91-1.55,1.79-2.24,2.74c-0.26,0.36-0.65,1.09,0.13,1.22
			c0.49,0.08,1.31-0.3,1.57-0.73c0.68-1.14,1.15-2.41,1.69-3.64c0.18-0.42,0.33-0.86,0.45-1.3c0.04-0.12-0.04-0.28-0.06-0.43
			c-0.11,0.08-0.24,0.14-0.32,0.24C602.5,176.85,602.1,177.41,601.69,178.2 M597.56,179.58c0.4-1.09,0.81-2.17,1.19-3.27
			c0.06-0.18-0.02-0.42-0.04-0.63c-0.15,0.12-0.35,0.22-0.46,0.37c-1.14,1.61-2.28,3.23-3.39,4.87c-0.07,0.11,0.09,0.55,0.21,0.58
			C596.24,181.81,596.61,181.5,597.56,179.58 M610.87,29.93c-0.05,0.13-0.13,0.26-0.16,0.39c-0.05,0.23-0.08,0.48-0.12,0.71
			c0.22-0.11,0.49-0.17,0.64-0.34c1.09-1.22,2.18-2.45,3.23-3.7c0.13-0.16,0.19-0.58,0.09-0.68c-0.21-0.2-0.58-0.41-0.83-0.35
			c-0.32,0.07-0.69,0.34-0.87,0.62C612.2,27.65,611.61,28.74,610.87,29.93 M613.17,90.53c0.04-0.66-0.18-0.85-0.63-0.28
			c-0.92,1.18-1.79,2.38-2.67,3.59c-0.05,0.07,0.03,0.32,0.13,0.39c0.63,0.43,1.83-0.03,2.08-0.78
			C612.41,92.51,612.73,91.58,613.17,90.53 M587.81,203.1c0.27-0.07,0.66-0.06,0.78-0.23c0.61-0.88,1.16-1.8,1.69-2.73
			c0.08-0.14,0.02-0.51-0.1-0.61c-0.59-0.45-1.88,0.06-2.02,0.78C587.99,201.2,587.85,202.1,587.81,203.1 M603.07,32.46
			c-0.24,0.16-0.53,0.28-0.7,0.5c-0.17,0.21-0.22,0.52-0.32,0.78c0.24-0.01,0.49-0.02,0.73-0.01c1.6,0.04,1.86-1.36,2.5-2.35
			c0.06-0.1-0.02-0.33-0.11-0.45c-0.03-0.05-0.29-0.02-0.38,0.06C604.25,31.42,603.72,31.89,603.07,32.46 M602.84,121.51
			c-0.19,0.26-0.45,0.5-0.54,0.8c-0.11,0.34-0.2,0.98-0.07,1.05c0.42,0.22,0.86,0.23,1.09-0.45c0.33-0.99,0.83-1.93,1.24-2.9
			c0.05-0.12,0.04-0.26,0.07-0.39c-0.16,0.04-0.38,0.02-0.46,0.12C603.75,120.28,603.36,120.84,602.84,121.51 M607.78,120.25
			c-0.59,0.98-1.22,1.94-1.76,2.94c-0.12,0.21,0.03,0.57,0.05,0.85c0.24-0.09,0.6-0.12,0.7-0.29c0.56-1.06,1.07-2.15,1.57-3.25
			C608.35,120.46,608.04,120.26,607.78,120.25 M596.53,31.66c-0.16,0.24-0.42,0.46-0.46,0.72c-0.05,0.32,0.07,0.67,0.12,1.01
			c0.26-0.11,0.59-0.17,0.78-0.35c0.39-0.38,0.73-0.83,1.06-1.27c0.19-0.27,0.32-0.59,0.47-0.88c-0.42,0.1-0.85,0.17-1.25,0.32
			C597.06,31.26,596.92,31.49,596.53,31.66 M607.09,34.18c1.31-0.11,1.2-1.48,1.89-2.15c0.17-0.16,0.12-0.55,0.16-0.83
			c-0.26,0.11-0.58,0.16-0.76,0.34c-0.52,0.53-1.02,1.08-1.44,1.68C606.81,33.4,606.95,33.78,607.09,34.18 M607.89,91.9
			c-0.35,0.5-0.74,0.99-1.03,1.52c-0.1,0.18,0.04,0.52,0.13,0.76c0.02,0.05,0.38,0.07,0.44-0.01c0.48-0.67,0.95-1.35,1.36-2.07
			c0.1-0.18-0.04-0.5-0.07-0.75C608.48,91.5,608.24,91.64,607.89,91.9 M607.32,210.67c-0.24,0.39-0.57,0.76-0.69,1.19
			c-0.07,0.24,0.2,0.58,0.32,0.87c0.32-0.13,0.84-0.2,0.91-0.41c0.18-0.57,0.16-1.21,0.23-1.82
			C607.86,210.53,607.65,210.55,607.32,210.67 M594.92,210.9c-0.08,0.08-0.22,0.15-0.23,0.24c-0.06,0.49-0.09,0.98-0.13,1.47
			c0.31-0.28,0.63-0.54,0.92-0.84c0.12-0.12,0.21-0.3,0.23-0.47c0.04-0.39,0.03-0.79,0.04-1.18
			C595.52,210.35,595.28,210.57,594.92,210.9 M604.22,93.51c0.12-0.42,0.23-0.84,0.35-1.26c-0.45,0.29-0.91,0.57-1.34,0.89
			c-0.1,0.07-0.14,0.25-0.16,0.38c-0.03,0.21-0.11,0.55-0.02,0.61c0.17,0.11,0.47,0.14,0.68,0.07
			C603.92,94.14,604.06,93.9,604.22,93.51 M599.63,90.07c-0.01-0.46-0.01-0.93-0.02-1.39c-0.29,0.23-0.81,0.43-0.84,0.69
			c-0.06,0.55,0.14,1.12,0.23,1.68C599.21,90.8,599.42,90.55,599.63,90.07 M599.97,93.16c-0.24,0.24-0.51,0.46-0.71,0.73
			c-0.07,0.09,0.01,0.32,0.08,0.45c0.03,0.06,0.24,0.09,0.3,0.05c0.39-0.27,0.8-0.52,1.11-0.86c0.16-0.17,0.13-0.51,0.19-0.77
			C600.66,92.86,600.37,92.95,599.97,93.16 M609.27,151.58c-0.29,0.13-0.61,0.22-0.85,0.42c-0.14,0.11-0.25,0.51-0.18,0.58
			c0.21,0.22,0.51,0.4,0.8,0.46c0.11,0.02,0.39-0.3,0.43-0.5C609.53,152.27,609.42,151.97,609.27,151.58 M607.43,235.58
			c-0.13,0.36-0.29,0.72-0.38,1.09c-0.03,0.11,0.17,0.4,0.23,0.38C607.77,236.96,607.94,235.89,607.43,235.58z"/>
		<path class="st2" d="M650.52,22.19c-0.08,0.08-0.11,0.11-0.14,0.14c-1.55,1.84-0.22,3.82-0.26,5.73c-0.03,1.59-0.13,1.53-1.67,1.8
			c-1.91,0.34-3.69,0.07-5.47-0.51c-1.83-0.59-3.06-1.9-3.38-3.73c-0.27-1.6,0.47-3,1.83-4c0.47-0.35,0.89-0.78,1.37-1.12
			c0.63-0.45,0.43-0.92,0.11-1.42c-0.92-1.43-0.31-3.27,1.34-3.69c2.22-0.56,4.47-0.78,6.71-0.03c1.29,0.43,1.74,1.23,1.28,2.54
			c-0.41,1.16-0.97,2.27-1.45,3.41C650.7,21.57,650.66,21.86,650.52,22.19 M647.6,25.11c-0.09-0.87-0.3-1.63-1.38-1.74
			c-0.17-0.02-0.33-0.33-0.45-0.53c-0.73-1.27-1.4-1.39-2.59-0.41c-0.32,0.27-0.6,0.58-0.89,0.89c-0.87,0.91-0.82,2.18-0.02,3.14
			c1.41,1.66,3.27,1.89,5.24,1.73c0.46-0.04,0.97-0.28,0.59-1.05C647.81,26.57,647.83,25.87,647.6,25.11 M646.45,20.29
			c0.57,0.57,1.11,1.17,1.72,1.68c0.13,0.11,0.69,0,0.78-0.16c0.44-0.8,0.75-1.68,1.18-2.48c0.72-1.34,0.39-2.06-1.04-2.61
			c-1.42-0.55-2.6,0.19-3.85,0.54c-0.2,0.05-0.4,0.96-0.24,1.3C645.3,19.16,645.87,19.64,646.45,20.29z"/>
		<path class="st2" d="M665.5,23.16c0.55,3.46-2.77,7.1-5.66,7.86c-1.98,0.51-3.57-0.08-4.99-1.41c-2.5-2.32-3.12-5.4-1.72-8.66
			c0.78-1.82,1.62-3.55,3.62-4.27c1.77-0.64,3.62-1.5,5.32,0.08c0.79,0.73,1.53,1.59,2.03,2.53
			C664.7,20.47,665.04,21.79,665.5,23.16 M657.35,18.34c-2.38,1.34-4.39,6.4-1.75,9.24c1.69,1.82,2.91,2.44,4.88,1.28
			c0.73-0.43,1.29-1.22,1.81-1.94c1.06-1.47,1.78-3.93,0.26-5.68c-0.76-0.88-1.6-1.69-2.33-2.59
			C659.4,17.66,658.49,17.66,657.35,18.34z"/>
		<path class="st2" d="M634.28,25.69c0.42,1.27-0.05,2.38-0.26,3.49c-0.05,0.25-0.45,0.62-0.68,0.61c-0.85-0.04-1.67-1.47-1.61-2.33
			c0.09-1.34,0.02-2.7,0.02-4.04c0-0.84,0.03-1.68-0.01-2.52c-0.04-0.77-0.01-1.59-0.26-2.3c-0.28-0.81-0.24-1.39,0.61-1.61
			c1.08-0.28,1.89,0.31,1.94,1.36c0.04,0.8-0.02,1.6,0.01,2.4C634.12,22.36,634.21,23.96,634.28,25.69z"/>
		<path class="st2" d="M636.64,31.83c-0.21-0.37-0.5-0.7-0.48-1c0.03-0.39,0.2-0.97,0.49-1.11c0.36-0.18,0.95-0.11,1.33,0.08
			c0.2,0.1,0.29,0.73,0.18,1.04C637.93,31.46,637.88,32.52,636.64,31.83z"/>
		<path class="st2" d="M679.1,131.09c0.31,0.07,0.56,0.2,0.81,0.33c-0.18,0.1-0.43,0.32-0.54,0.27
			C679.21,131.62,679.14,131.34,679.1,131.09z"/>
		<path class="st2" d="M598.31,54.43c0.24-0.25,0.43-0.45,0.61-0.65c0.01,0.27,0.1,0.59,0,0.81c-0.27,0.61-0.6,1.19-0.95,1.75
			c-0.1,0.16-0.35,0.21-0.53,0.31c-0.02-0.2-0.12-0.45-0.05-0.61C597.65,55.52,597.96,55.01,598.31,54.43z"/>
		<path class="st2" d="M599.57,84.62c0.29-0.05,0.52-0.05,0.75-0.05c-0.06,0.11-0.12,0.31-0.19,0.32c-0.22,0.02-0.46-0.03-0.69-0.06
			c-0.01,0-0.02-0.06-0.01-0.08C599.45,84.72,599.49,84.7,599.57,84.62z"/>
	</g>
</g>
<g id="bureau">
	<g>
		<defs>
			<path id="SVGID_5_" d="M591.77,464.18l47.11,10.08l51.8-32.06l47.92,5.5v26.56l50.09,9.16c24.6-8.56,36.62-13.35,36.08-14.38
				c-0.82-1.53,7.17-117.9,4.82-117.9s-172.93-7.81-172.93-7.84c0-0.02-22.19,13.41-66.57,40.27L591.77,464.18z"/>
		</defs>
		<clipPath id="SVGID_6_">
			<use xlink:href="#SVGID_5_"  style="overflow:visible;"/>
		</clipPath>
		<g class="st3">
			<defs>
				<rect id="SVGID_7_" x="-150.78" y="-169.54" width="1002.78" height="683.17"/>
			</defs>
			<clipPath id="SVGID_8_">
				<use xlink:href="#SVGID_7_"  style="overflow:visible;"/>
			</clipPath>
			<rect x="585.51" y="338.72" class="st4" width="249.09" height="149.27"/>
		</g>
	</g>
	<g id="Vorm_35_1_">
		<path d="M689.21,416.9c0.1-0.48,0.27-0.82,0.27-1.17c0.04-2.33-0.01-4.66,0.03-6.98c0-0.28-0.2-0.51-0.48-0.53
			c-4.4-0.36-8.81-0.66-13.21-1.04c-4.13-0.35-8.25-0.77-12.38-1.13c-2.58-0.22-5.17-0.43-7.76-0.57c-2.86-0.15-5.73-0.2-8.59-0.3
			c-2.34-0.08-4.69-0.11-7.02-0.3c-3.85-0.32-7.68-0.76-11.52-1.12c-1.43-0.13-2.88-0.16-4.31-0.3
			c-10.62-1.04-21.26-0.38-31.89-0.56c-1.52-0.03-1.85,0.57-1.62,2.22c0.04,0.27,0.07,0.54,0.08,0.8
			c0.21,5.55,0.56,11.09,0.72,16.64c0.15,5.1,0.3,10.2,0.27,15.3c-0.03,3.97-0.35,7.93-0.54,11.9c-0.19,3.94-0.39,7.87-0.57,11.81
			c-0.11,2.39-0.21,4.78-0.28,7.16c-0.11,3.39,0.06,6.81-0.4,10.15c-0.22,1.61,0.56,3.25-0.4,4.86c-0.43,0.73,0.57,0.74,1.18,0.84
			c4.21,0.73,8.49,1.23,12.6,2.36c3.93,1.07,7.65,2.89,11.51,4.24c3.09,1.08,6.29,1.6,9.59,1.72c2.38,0.09,4.75,0.64,7.12,1.04
			c1.45,0.25,2.9,0.57,4.33,0.93c0.37,0.09,0.67,0.44,1,0.67c-0.28,0.2-0.55,0.55-0.85,0.58c-0.99,0.11-2,0.23-2.99,0.13
			c-2.08-0.21-4.14-0.55-6.22-0.83c-6.87-0.92-13.65-2-19.97-5.24c-3.69-1.89-7.62-3.43-11.91-3.65c-1.6-0.09-3.19-0.51-4.77-0.88
			c-1.09-0.26-2.13-1.77-2.1-2.94c0.08-3.53,0.14-7.06,0.29-10.59c0.13-3.16,0.37-6.32,0.56-9.47c0.19-3.25,0.41-6.5,0.56-9.76
			c0.13-2.78,0.16-5.57,0.31-8.35c0.13-2.54,0.48-5.08,0.53-7.62c0.09-3.96,0.1-7.93,0-11.9c-0.1-4.02-0.37-8.03-0.55-12.04
			c-0.12-2.64-0.14-5.29-0.33-7.92c-0.05-0.7-0.38-1.58-0.89-2.02c-1.71-1.47-1.61-2.47,0.25-3.59c3.97-2.39,7.86-4.93,11.79-7.4
			c4.27-2.68,8.52-5.37,12.83-7.99c6-3.65,11.99-7.32,18.07-10.84c7.05-4.08,14.19-8.02,21.29-12.01c2.97-1.67,5.94-3.34,8.94-4.96
			c0.41-0.22,0.99-0.19,1.49-0.17c1.48,0.06,2.97,0.22,4.45,0.26c1.49,0.05,2.98,0.04,4.47,0c2.67-0.07,5.35-0.34,8.02-0.24
			c6.32,0.22,12.62,0.9,18.94,0.92c0.56,0,1.12-0.04,1.68-0.07c1.51-0.08,3.02,0.02,4.53-0.04c1.91-0.07,3.82-0.28,5.74-0.26
			c6.93,0.06,13.86,0.18,20.79,0.47c0.65,0.03,1.71,0.15,2.35,0.25c7.88,1.25,15.79,0.88,23.7,1c4.3,0.07,8.6,0.33,12.9,0.56
			c4.5,0.24,9,0.58,13.5,0.84c3.73,0.22,7.46,0.43,11.19,0.57c3.81,0.14,7.63,0.14,11.45,0.31c7.37,0.32,14.76,0.57,22.07,1.57
			c0.48,0.07,0.96,0.16,1.44,0.25c3.66,0.74,7.37,1.08,11.05,1.61c0.45,0.07,0.87,0.33,1.31,0.5c-0.19,0.45-0.27,1-0.58,1.32
			c-3.26,3.32-6.61,6.57-9.85,9.9c-2.75,2.83-5.44,5.71-8.08,8.65c-3.35,3.73-6.67,7.48-9.89,11.33c-3.11,3.72-6.09,7.55-9.1,11.36
			c-2.29,2.9-4.55,5.81-6.75,8.77c-0.68,0.91-1.25,1.97-1.58,3.04c-0.22,0.72,0.08,1.59,0.13,2.39c0.19,2.78,0.39,5.55,0.57,8.33
			c0.2,3.16,0.38,6.31,0.57,9.47c0.29,4.8,0.56,9.6,0.86,14.4c0.15,2.4,0.46,4.79,0.54,7.19c0.1,2.65-0.01,5.3,0.03,7.95
			c0.08,6.02,0.15,12.04,0.3,18.06c0.05,1.88,0.49,3.74,0.52,5.62c0.04,2.35-0.18,4.71-0.24,7.07c-0.02,0.76-0.03,1.55,0.19,2.25
			c0.1,0.3,0.89,0.64,1.24,0.54c1.82-0.52,3.63-1.11,5.38-1.82c2.41-0.97,4.75-2.1,7.14-3.1c4.95-2.08,9.93-4.07,14.85-6.2
			c2.1-0.91,4.1-2.06,6.14-3.1c0.39-0.2,0.82-0.61,1.18-0.56c1.66,0.26,1.61-0.73,1.57-1.88c-0.12-3.77-0.23-7.54-0.28-11.3
			c-0.02-1.2,0.23-2.39,0.26-3.59c0.06-3.39-0.02-6.78,0.03-10.17c0-0.75-0.01-1.5-0.01-2.26c-0.02-1.13,0.01-2.26-0.01-3.38
			c-0.09-5.24-0.24-10.49-0.26-15.73c-0.01-3.02,0.1-6.05,0.29-9.07c0.2-3.17,0.54-6.33,0.84-9.5c0.37-3.89,0.71-7.78,1.15-11.66
			c0.41-3.57,0.93-7.13,1.43-10.69c0.04-0.26,0.3-0.48,0.45-0.73c0.22,0.34,0.66,0.69,0.64,1c-0.14,1.92-0.38,3.83-0.61,5.73
			c-0.15,1.22-0.37,2.43-0.49,3.65c-0.4,4.08-0.81,8.15-1.14,12.23c-0.34,4.26-0.57,8.52-0.87,12.78c-0.17,2.4-0.44,4.79-0.54,7.19
			c-0.05,1.19,0.19,2.39,0.25,3.59c0.11,2.15,0.25,4.3,0.28,6.45c0.05,3.57,0.05,7.14,0,10.71c-0.06,5.34-0.24,10.68-0.26,16.02
			c-0.01,3.86,0.13,7.73,0.29,11.59c0.07,1.64,0.43,3.27,0.51,4.91c0.02,0.47-0.47,0.96-0.72,1.44c-0.22-0.48-0.6-0.95-0.64-1.44
			c-0.11-1.53,0.11-3.08-0.16-4.59c-0.02-0.12-0.13-0.17-0.24-0.12c-3.63,1.74-7.27,3.49-10.97,5.08c-6.13,2.63-12.36,5-18.5,7.6
			c-0.47,0.2-0.94,0.38-1.43,0.54c-2.47,0.85-4.98,1.94-7.56,2.33c-1.94,0.29-3.99-0.17-5.98-0.22c-0.05,0-0.11,0-0.16,0
			c-5.04,0.18-10.03-0.22-14.98-1.14c-0.02,0-0.03,0-0.05,0c-4.71,0.12-9.29-0.53-13.84-1.66c-2.61-0.65-5.32-0.92-7.96-1.48
			c-4.04-0.85-8.24-1.01-12-3.14c-0.15-0.08-0.23-0.24-0.23-0.41c0.18-3.69,0.2-7.39,0.36-11.09c0.15-3.51,0.35-7.02,0.57-10.52
			c0.15-2.49,0.38-4.98,0.56-7.47c0.29-4.07,0.54-8.14,0.87-12.21c0.23-2.93,0.58-5.85,0.83-8.79c0.05-0.57-0.26-1.16-0.25-1.74
			c0.08-9.76,0.19-19.51,0.28-29.27c0-0.18-0.13-0.33-0.31-0.34c-4.31-0.36-8.62-0.77-12.92-1.27c-3.52-0.41-7.05-0.85-10.54-1.44
			c-4.41-0.74-8.77-1.76-13.19-2.44c-0.28-0.04-0.56-0.08-0.84-0.1c-5.03-0.41-10.07-0.59-15.1-0.86c-1.2-0.07-2.39-0.22-3.59-0.27
			c-0.62-0.03-0.79,0.06-0.74,0.95c0.15,2.67-0.03,5.37-0.18,8.05c-0.09,1.69-0.47,3.36-0.53,5.05c-0.16,4.15-0.24,8.3-0.3,12.45
			c-0.05,3.49-0.08,6.98,0.01,10.47c0.11,4.24,0.4,8.48,1.68,12.57c0.17,0.55,0.35,1.18,0.25,1.73c-0.1,0.55-0.54,1.04-0.83,1.55
			c-0.38-0.43-1.01-0.82-1.09-1.29c-0.38-2.53-0.75-5.08-0.87-7.64c-0.26-5.34-0.25-10.69-0.37-16.03
			c-0.02-0.96,0.01-1.91,0.03-2.87c0.08-2.87-0.12-5.77,0.05-8.64C688.54,422.14,688.92,419.6,689.21,416.9 M734.6,411.48
			c2.98,0.38,5.96,0.79,8.95,1.13c2.06,0.24,4.13,0.33,6.19,0.59c3.24,0.42,6.46,0.97,9.69,1.4c2.54,0.34,5.09,0.57,7.64,0.87
			c4.04,0.47,8.07,1.03,12.12,1.39c2.05,0.19,4.12,0,6.19,0.04c3.15,0.06,6.3,0.25,9.45,0.23c0.76-0.01,1.68-0.5,2.23-1.06
			c1.04-1.07,1.85-2.35,2.76-3.55c2.12-2.79,4.18-5.62,6.38-8.35c2.9-3.58,5.88-7.11,8.88-10.6c3.29-3.84,6.61-7.66,10-11.42
			c2.31-2.56,4.77-4.98,7.15-7.47c0.86-0.91,1.63-1.9,2.52-2.78c1.71-1.68,3.48-3.31,5.22-4.96c0.16-0.15,0.45-0.45,0.43-0.48
			c-0.2-0.25-0.44-0.61-0.71-0.66c-1.97-0.33-3.94-0.63-5.92-0.87c-1.91-0.23-3.84-0.35-5.76-0.59c-2.75-0.34-5.48-0.86-8.24-1.11
			c-3.34-0.3-6.69-0.42-10.04-0.59c-2.43-0.12-4.87-0.25-7.31-0.27c-1.5-0.01-3,0.29-4.5,0.24c-1.78-0.06-3.55-0.42-5.33-0.53
			c-3.87-0.24-7.74-0.38-11.61-0.59c-2.87-0.16-5.74-0.38-8.62-0.56c-3.06-0.2-6.12-0.44-9.19-0.56c-3.96-0.15-7.92-0.19-11.87-0.3
			c-2.86-0.08-5.73-0.13-8.59-0.3c-4.03-0.23-8.04-0.62-12.07-0.83c-3.45-0.18-6.9-0.26-10.35-0.29c-4.95-0.05-9.9-0.01-14.85-0.01
			c-0.33,0-0.67-0.01-1,0c-3.77,0.09-7.54,0.38-11.3,0.23c-4.18-0.16-8.34-0.78-12.52-1.06c-1.66-0.11-3.34,0.19-5.02,0.25
			c-3.34,0.12-6.68,0.12-10.02,0.32c-1.56,0.09-3.19,0.3-4.62,0.88c-2.32,0.94-4.51,2.21-6.74,3.38c-2.94,1.53-5.89,3.05-8.78,4.66
			c-4.06,2.27-8.08,4.62-12.11,6.96c-3.69,2.14-7.37,4.27-11.03,6.47c-3.21,1.93-6.37,3.93-9.55,5.9c-2.8,1.73-5.61,3.46-8.41,5.2
			c-4.74,2.93-9.47,5.85-14.21,8.79c-0.24,0.15-0.44,0.33-0.67,0.5c0.28,0.12,0.57,0.36,0.85,0.34c1.1-0.05,2.21-0.25,3.31-0.25
			c4.9-0.03,9.8-0.01,14.71-0.01c3.35,0,6.7-0.11,10.04,0.03c2.98,0.13,5.95,0.55,8.93,0.82c3.21,0.3,6.42,0.62,9.64,0.85
			c3.58,0.25,7.17,0.42,10.76,0.58c3.29,0.14,6.59,0.13,9.88,0.31c3.84,0.21,7.67,0.51,11.5,0.85c3.51,0.32,7.01,0.78,10.52,1.12
			c4.27,0.41,8.53,0.82,12.81,1.14c3.49,0.26,6.98,0.51,10.47,0.56c4.85,0.07,9.65,0.38,14.41,1.42c2.22,0.49,4.52,0.56,6.78,0.9
			C727.46,410.3,730.89,410.9,734.6,411.48 M797,428.18c-0.19-2.3-0.45-4.6-0.55-6.9c-0.09-2.25-0.16-2.35-2.48-2.39
			c-5.24-0.08-10.48-0.14-15.72-0.3c-2.78-0.08-5.55-0.34-8.33-0.56c-0.99-0.08-1.96-0.31-2.95-0.46c-3.5-0.51-7-1.05-10.5-1.52
			c-1.91-0.26-3.9-0.15-5.74-0.66c-1.53-0.43-1.46,0.24-1.43,1.23c0.09,3.21,0.3,6.43,0.25,9.64c-0.05,3.11-0.44,6.22-0.51,9.33
			c-0.05,2.43,0.23,4.87,0.23,7.3c0,2.29-0.14,4.58-0.27,6.87c-0.16,2.87-0.34,5.74-0.57,8.61c-0.25,3.12-0.58,6.23-0.84,9.35
			c-0.3,3.54-0.63,7.09-0.84,10.64c-0.18,2.91-0.27,5.82-0.28,8.73c-0.01,2.43,0.23,4.87,0.23,7.3c0,0.85,0.32,1.24,0.99,1.58
			c3.56,1.82,7.57,1.67,11.35,2.57c2.06,0.49,4.18,0.73,6.28,1.04c3.54,0.53,7.09,1.06,10.64,1.54c0.89,0.12,1.81-0.05,2.71,0.03
			c3.98,0.35,7.96,0.82,11.95,1.1c2.27,0.16,4.57,0,6.85,0.05c0.62,0.01,1.23,0.26,1.84,0.39c-0.01-0.68-0.04-1.37-0.01-2.05
			c0.08-2.21,0.31-4.43,0.25-6.64c-0.09-3.49-0.38-6.98-0.53-10.47c-0.07-1.63-0.01-3.27-0.01-4.9c0-4.16,0.11-8.31-0.03-12.46
			c-0.15-4.41-0.55-8.8-0.82-13.21c-0.2-3.2-0.42-6.41-0.56-9.61C797.36,438.4,797.19,433.43,797,428.18z"/>
		<path d="M680.7,471.38c-3.68,1.69-7.23,3.48-10.92,4.89c-6.94,2.66-13.03,6.89-19.61,10.22c-2.87,1.45-5.74,2.92-8.61,4.38
			c-0.22,0.11-0.47,0.15-0.71,0.22c0.02-0.26-0.06-0.64,0.08-0.75c1.08-0.9,2.08-2.04,3.34-2.55c6.5-2.66,12.28-6.64,18.48-9.84
			c3.12-1.61,6.35-3.03,9.57-4.45c4.83-2.13,9.32-4.87,13.88-7.49c1.33-0.76,2.41-1.97,3.75-2.68c1.68-0.89,3.35-2.15,5.52-1.34
			c0.46,0.17,1.03,0.02,1.56,0.04c3.92,0.19,7.85,0.23,11.75,0.61c4.16,0.4,8.28,1.18,12.43,1.65c2.95,0.33,5.94,0.31,8.89,0.62
			c3.34,0.36,6.64,1.02,9.98,1.36c1.37,0.14,2.72,0.16,3.93,0.89c0.26,0.16,0.49,0.35,0.73,0.53c-0.25,0.22-0.48,0.61-0.75,0.64
			c-1.08,0.1-2.19,0.24-3.25,0.1c-2.59-0.34-5.16-0.87-7.76-1.23c-3.12-0.44-6.25-0.81-9.38-1.14c-2.25-0.24-4.51-0.35-6.76-0.59
			c-2.76-0.3-5.57-0.03-8.25-1.1c-0.82-0.33-1.81-0.25-2.72-0.32c-3.78-0.29-7.56-0.6-11.35-0.82c-0.4-0.02-0.8,0.54-1.25,0.72
			C688.73,465.76,685.09,469.11,680.7,471.38z"/>
		<path d="M633.65,419.47c0.08-1.55-0.98-1.12-1.68-1.12c-0.82,0-1.63,0.23-2.45,0.25c-1.78,0.04-3.56,0.13-5.33-0.02
			c-2.26-0.19-4.5-0.58-6.75-0.9c-1.65-0.24-3.31-0.48-4.95-0.79c-3.61-0.68-7.21-1.41-10.82-2.13c-0.47-0.1-0.92-0.32-1.39-0.42
			c-1.36-0.31-2.01,0.25-2.05,1.65c-0.08,2.86-0.14,5.73-0.3,8.59c-0.1,1.83-0.38,3.65-0.55,5.47c-0.19,2.05,0.5,2.63,2.64,2.58
			c3.3-0.08,6.6-0.09,9.89,0c4.68,0.12,9.37,0.24,14.03,0.59c3.58,0.27,7.13,0.9,10.68,1.41c0.26,0.04,0.49,0.33,0.74,0.5
			c-0.16,0.21-0.29,0.56-0.49,0.6c-1.24,0.24-2.58,0.78-3.74,0.53c-4.96-1.05-9.92-1.71-15-1.69c-4.72,0.01-9.45-0.45-14.18-0.46
			c-1.62,0-3.19,0.07-4.79-0.3c-0.84-0.19-0.97-0.53-0.93-1.22c0.2-3.44,0.4-6.88,0.57-10.32c0.12-2.53,0.18-5.06,0.3-7.59
			c0.06-1.35,1.28-2.33,2.68-2.04c3.32,0.68,6.61,1.52,9.94,2.16c1.88,0.36,3.82,0.42,5.72,0.69c2.1,0.3,4.17,0.88,6.27,1
			c2.73,0.16,5.53,0.3,8.21-0.1c2.81-0.42,4.53,0.55,4.88,3.38c0.4,3.26-0.24,6.39-0.84,9.55c-0.15,0.78,0.01,1.61-0.05,2.42
			c-0.03,0.38-0.24,0.75-0.37,1.12c-0.25-0.39-0.71-0.79-0.71-1.18c0-1.39,0.15-2.78,0.25-4.16
			C633.26,424.88,633.46,422.25,633.65,419.47z"/>
		<path d="M625.94,483.16c-0.19,0.92-0.44,1.69-0.53,2.48c-0.02,0.19,0.41,0.56,0.69,0.63c0.4,0.11,0.87-0.06,1.27,0.05
			c0.59,0.16,1.14,0.46,1.71,0.69c-0.63,0.52-1.26,1.48-1.89,1.48c-1.4,0-2.81-0.49-4.21-0.77c-1.5-0.29-2.99-0.62-4.5-0.85
			c-3.9-0.6-7.8-1.18-11.71-1.71c-1.47-0.2-2.96-0.2-4.45-0.3c-1.29-0.09-2.6-0.1-3.87-0.32c-0.81-0.14-1.56-0.6-1.19-1.71
			c0.08-0.25,0.17-0.56,0.11-0.8c-0.85-3.4,0.8-6.64,0.65-10c-0.02-0.46,0.7-1.18,1.24-1.39c0.78-0.3,1.71-0.33,2.57-0.33
			c4.57-0.03,9.13,0.01,13.7-0.03c1.96-0.02,3.92-0.18,5.88-0.27c0.33-0.01,0.74-0.11,0.97,0.04c0.48,0.3,0.86,0.75,1.28,1.14
			c-0.48,0.18-0.95,0.5-1.43,0.51c-7.1,0.13-14.19,0.21-21.29,0.31c-1.53,0.02-1.84,0.33-1.84,1.86c0,2.35,0.02,4.7-0.01,7.04
			c-0.02,1.95,0.76,2.06,2.07,2.2c2.14,0.22,4.3,0.15,6.44,0.34c1.98,0.18,3.95,0.56,5.92,0.84c2.02,0.29,4.05,0.57,6.07,0.84
			c0.91,0.12,1.82,0.26,2.74,0.28c1.91,0.05,1.95-0.05,2.18-1.94c0.46-3.85,0.92-7.7,1.46-11.54c0.07-0.49,0.58-0.91,0.88-1.36
			c0.17,0.44,0.53,0.9,0.48,1.31c-0.21,1.7-0.6,3.38-0.81,5.07C626.27,478.98,626.13,481,625.94,483.16z"/>
		<path d="M638.79,461.74c0.1-2.86,0.03-5.6,0.32-8.3c0.42-3.78,1.13-7.52,1.66-11.28c0.26-1.81,0.4-3.64,0.58-5.47
			c0.39-3.98,0.78-7.96,1.14-11.94c0.14-1.53,0.22-3.06,0.29-4.59c0.11-2.4,0.22-4.8,0.28-7.21c0.04-1.58-0.02-3.17,0.03-4.76
			c0.02-0.52,0.17-1.07,0.42-1.53c0.11-0.19,0.61-0.17,0.94-0.24c0.06,0.26,0.15,0.53,0.16,0.79c0.01,0.27-0.1,0.54-0.1,0.81
			c-0.1,4.05-0.12,8.11-0.32,12.15c-0.13,2.75-0.52,5.49-0.76,8.23c-0.23,2.59-0.36,5.19-0.65,7.77c-0.3,2.7-0.76,5.39-1.12,8.09
			c-0.22,1.63-0.44,3.26-0.57,4.9c-0.32,4.3-0.68,8.61-0.84,12.92c-0.2,5.09-0.2,10.19-0.31,15.29c-0.08,3.67-0.15,7.34-0.3,11.01
			c-0.04,1.07-0.33,2.13-0.56,3.19c-0.06,0.26-0.32,0.48-0.49,0.72c-0.21-0.3-0.59-0.59-0.61-0.9c-0.06-1.47-0.06-2.95-0.02-4.42
			c0.07-2.53,0.21-5.06,0.27-7.59c0.12-5.21,0.19-10.42,0.3-15.63C638.53,463.13,638.69,462.51,638.79,461.74z"/>
		<path d="M624.72,446.96c-5.17-0.61-10.27-1.11-15.41-0.95c-3.06,0.1-6.12,0.02-9.18,0.02c-0.33,0-0.71,0.1-0.99-0.03
			c-0.35-0.16-0.61-0.51-0.91-0.78c0.31-0.3,0.59-0.68,0.96-0.88c0.26-0.14,0.65-0.03,0.98-0.03c5.04,0,10.09-0.15,15.12,0.05
			c3.99,0.15,7.97,0.69,11.94,1.14c0.37,0.04,0.95,0.73,0.94,1.11c-0.09,3.17-0.33,6.33-0.44,9.5c-0.04,1.09,0.16,2.19,0.19,3.28
			c0.01,0.3-0.18,0.62-0.28,0.92c-0.38-0.29-1.06-0.56-1.08-0.86c-0.07-1.89,0.01-3.78,0.05-5.66c0.05-1.89,0.24-3.8,0.09-5.67
			C626.67,447.7,625.46,447.39,624.72,446.96z"/>
		<path d="M617.08,462.6c3.84-0.03,7.53-0.1,11.15-1.01c0.16-0.04,0.32-0.04,0.49-0.07c0.02,0.22,0.11,0.48,0.03,0.67
			c-0.47,1.23-2.02,1.93-3.35,1.87c-1.65-0.08-3.3,0.13-4.96,0.17c-2.03,0.05-4.07,0.16-6.1,0.03c-1.85-0.12-3.67-0.54-5.51-0.8
			c-2.79-0.39-5.59-0.76-8.38-1.15c-0.12-0.02-0.23-0.14-0.33-0.24c-0.39-0.4-1.17-0.98-1.08-1.18c0.28-0.64,0.86-0.52,1.6-0.37
			c2.76,0.55,5.56,0.87,8.36,1.22C611.65,462.06,614.3,462.31,617.08,462.6z"/>
		<path d="M843.27,368.35c-0.1,5.23-0.24,10.33-0.27,15.42c-0.01,3.11,0.2,6.22,0.25,9.34c0.02,1.15-0.14,2.3-0.29,3.44
			c-0.03,0.24-0.38,0.43-0.58,0.65c-0.18-0.24-0.52-0.48-0.51-0.71c0.06-2.88,0.2-5.75,0.24-8.63c0.02-1.3-0.14-2.59-0.22-3.89
			c-0.02-0.37-0.05-0.75-0.05-1.12c0-3.37-0.06-6.75,0.02-10.12c0.03-1.35,0.32-2.7,0.58-4.03
			C842.48,368.49,842.98,368.37,843.27,368.35z"/>
		<path d="M596.86,453.46c0.06-1.51,0.18-2.88,0.15-4.25c-0.01-0.65-0.39-1.29-0.4-1.94c0-0.31,0.45-0.63,0.7-0.95
			c0.23,0.24,0.65,0.47,0.65,0.71c0.05,2.43,0.03,4.87,0.03,7.3c0,0.9,0,1.8,0,2.7c0,0.4,0.11,0.84-0.03,1.17
			c-0.16,0.37-0.56,0.65-0.86,0.96c-0.18-0.38-0.52-0.76-0.51-1.13C596.63,456.55,596.76,455.08,596.86,453.46z"/>
		<path d="M610.87,424.68c2.89,0.46,5.62,0.13,8.3-0.89c0.33-0.13,0.84,0.2,1.26,0.32c-0.31,0.26-0.59,0.68-0.94,0.77
			c-2.11,0.53-4.22,1.12-6.37,1.38c-0.78,0.09-1.66-0.7-2.48-1.11C610.63,425.14,610.74,424.89,610.87,424.68z"/>
		<path d="M613.08,456.31c1.48-0.1,2.81-0.21,4.15-0.27c0.23-0.01,0.47,0.23,0.71,0.35c-0.18,0.2-0.33,0.48-0.55,0.59
			c-2.59,1.3-5.15,0.8-7.67-0.23c-0.27-0.11-0.37-0.63-0.54-0.96c0.38-0.11,0.79-0.39,1.13-0.31
			C611.2,455.68,612.06,456.03,613.08,456.31z"/>
		<path d="M620.72,480.52c-2.26,1.09-6.35-0.76-7.16-2.75c-0.1-0.26-0.05-0.58-0.07-0.87c0.26,0.05,0.56,0.03,0.76,0.17
			c0.53,0.36,0.97,0.84,1.51,1.18c1.28,0.82,2.62,1.49,4.22,1.52C620.25,479.77,620.52,480.21,620.72,480.52z"/>
		<path d="M725.6,372.92c-1.98-0.29-3.81-0.58-5.64-0.85c-0.66-0.1-1.45-0.41-1.97-0.17c-1.05,0.5-1.31,1.69-1.15,2.71
			c0.06,0.37,1.11,0.69,1.75,0.86c2.62,0.71,5.27,1.29,7.87,2.04c1.23,0.35,1.23,1.01,0.43,2c-1.63,2.02-3.15,4.12-4.72,6.18
			c-1.83,2.39-3.66,4.76-5.49,7.15c-2.55,3.32-5.12,6.63-7.63,9.98c-0.99,1.33-1.55,1.28-2.93,0.54c-2.24-1.2-4.62-2.16-7.01-3.06
			c-3.46-1.3-6.98-2.46-10.49-3.64c-0.63-0.21-1.35-0.16-2-0.34c-0.28-0.08-0.48-0.43-0.72-0.66c0.31-0.15,0.61-0.39,0.94-0.45
			c2.04-0.39,3.78,0.67,5.61,1.26c4.92,1.57,9.86,3.07,14.72,4.81c1.15,0.41,1.41-0.29,1.78-0.75c2.41-2.98,4.77-6,7.09-9.05
			c2.76-3.65,5.41-7.39,8.22-11c0.79-1.02,0.28-1.26-0.48-1.54c-1.41-0.51-2.81-1.05-4.26-1.42c-3.5-0.88-7.01-1.73-10.54-2.48
			c-2.03-0.43-4.11-0.64-6.17-0.97c-0.99-0.16-1.56,0.36-2.05,1.11c-2.57,3.94-5.08,7.9-7.73,11.78c-1.51,2.21-3.21,4.3-4.89,6.4
			c-0.3,0.37-0.91,0.53-1.41,0.67c-0.11,0.03-0.55-0.51-0.49-0.66c0.18-0.47,0.49-0.9,0.81-1.3c0.39-0.49,0.88-0.9,1.24-1.4
			c2.57-3.5,5.17-6.98,7.66-10.54c1.61-2.3,3.13-4.68,4.52-7.12c0.58-1.03,1.36-1.09,2.18-0.92c3.8,0.79,7.58,1.7,11.37,2.51
			c0.87,0.19,1.75,0.17,1.6-1.19c-0.07-0.63-0.02-1.27-0.01-1.9c0.01-0.93,1.01-1.62,2.28-1.43c2.86,0.43,5.69,1.04,8.55,1.38
			c2.48,0.3,4.97,0.35,7.38,1.15c2.4,0.79,4.89,1.29,7.29,2.07c0.64,0.21,1.09,1,1.62,1.52c-0.77,0.08-1.6,0.39-2.31,0.21
			c-4-1.01-7.96-2.15-11.95-3.19C727.6,373,726.66,373.02,725.6,372.92z"/>
		<path d="M736.24,382.7c1.08-1.55,2.06-3.06,3.12-4.5c0.17-0.23,0.75-0.16,1.14-0.23c-0.11,0.27-0.21,0.55-0.35,0.81
			c-2.67,5.13-6.55,9.39-9.98,13.98c-1.08,1.45-2.1,2.94-3.17,4.39c-0.35,0.48-0.74,0.96-1.19,1.34c-0.16,0.13-0.59,0.03-0.84-0.09
			c-0.11-0.06-0.16-0.51-0.06-0.65c0.69-0.92-0.01-0.84-0.58-0.84c-1.66-0.01-3.33,0.01-4.99-0.01c-0.34-0.01-0.76-0.08-1.01-0.28
			c-0.24-0.2-0.48-0.66-0.41-0.92c0.06-0.22,0.56-0.48,0.86-0.47c1.77,0.05,3.63-0.15,5.27,0.35c1.65,0.51,2.32-0.23,3.14-1.25
			c2.37-2.97,4.78-5.91,7.14-8.88C735.01,384.6,735.57,383.66,736.24,382.7z"/>
		<path d="M670.27,386.84c0.84-1.08,1.75-2.07,2.65-3.08c1.45-1.63,2.82-3.35,4.36-4.89c1.75-1.74,3.65-3.32,5.51-4.96
			c0.14-0.13,0.45-0.16,0.65-0.12c0.34,0.07,0.8,0.15,0.94,0.39c0.12,0.2-0.07,0.72-0.28,0.93c-4.08,4.12-8.18,8.21-12.29,12.31
			C670.98,388.28,670.67,387.57,670.27,386.84z"/>
		<path d="M706.68,387.56c-1.86-0.36-3.66-0.57-5.41-0.98c-0.42-0.1-0.69-0.85-1.02-1.29c0.49-0.04,1-0.21,1.46-0.11
			c2.38,0.54,4.76,1.11,7.12,1.76c0.71,0.2,1.37,0.63,1.97,1.07c0.28,0.21,0.36,0.69,0.53,1.05c-0.37-0.05-0.76-0.03-1.1-0.15
			C709.06,388.5,707.91,388.06,706.68,387.56z"/>
		<path d="M711.4,383.42c-2.29-0.69-4.5-1.31-6.72-1.93c-0.17-0.05-0.39-0.05-0.5-0.17c-0.31-0.32-0.57-0.69-0.85-1.04
			c0.38-0.07,0.8-0.28,1.14-0.2c2.75,0.66,5.65,0.85,8.08,2.52c0.56,0.39,0.97,0.99,1.46,1.5c-0.65-0.11-1.3-0.2-1.94-0.33
			C711.86,383.72,711.67,383.58,711.4,383.42z"/>
		<path d="M786.65,436.54c0.26-1.56,0.28-3.1,0.69-4.53c0.37-1.26-0.3-1.68-1.14-1.94c-2.78-0.88-5.57-1.75-8.39-2.47
			c-1.48-0.38-3.05-0.47-4.57-0.69c-2.38-0.35-4.75-0.71-7.13-1.05c-0.77-0.11-1.53-0.27-2.3-0.29c-2.05-0.06-4.11-0.04-6.16-0.09
			c-0.92-0.02-0.91,0.55-0.92,1.21c-0.08,5.24-0.17,10.49-0.3,15.73c-0.01,0.46-0.38,0.9-0.59,1.35c-0.18-0.43-0.51-0.86-0.51-1.29
			c0.04-2.44,0.21-4.87,0.25-7.31c0.05-2.87,0.01-5.74,0.01-8.61c0-0.92-0.03-1.84,0.03-2.76c0.01-0.12,0.49-0.31,0.74-0.29
			c3.16,0.17,6.33,0.25,9.47,0.59c2.45,0.27,4.85,0.93,7.28,1.34c2.15,0.36,4.35,0.45,6.47,0.95c3.06,0.71,6.06,1.66,9.07,2.56
			c0.36,0.11,0.79,0.56,0.86,0.92c0.06,0.3-0.35,0.7-0.56,1.05c-0.16,0.25-0.47,0.47-0.51,0.73c-0.41,2.69-0.76,5.39-1.18,8.09
			c-0.05,0.32-0.41,0.6-0.62,0.9c-0.17-0.3-0.49-0.61-0.47-0.89C786.25,438.68,786.43,437.64,786.65,436.54z"/>
		<path d="M755.88,484.59c0.29-2.69,0.61-5.23,0.83-7.78c0.07-0.75,0.23-1.16,1.05-1.08c0.28,0.03,0.57,0.01,0.86,0
			c3.34-0.09,6.67-0.27,10.01-0.26c3.95,0.01,7.91,0.16,11.86,0.27c0.91,0.03,1.91-0.02,2.71,0.34c0.72,0.33,1.52,1.06,1.75,1.78
			c0.9,2.83,0.72,5.74,0.39,8.67c-0.17,1.58,0.18,3.22,0.31,4.84c0.01,0.12,0.21,0.24,0.2,0.34c-0.07,0.44-0.18,0.87-0.27,1.31
			c-0.37-0.28-0.99-0.5-1.07-0.84c-0.31-1.37-0.58-2.77-0.61-4.16c-0.04-1.83,0.15-3.66,0.26-5.49c0.06-1,0.28-2.01,0.18-2.99
			c-0.12-1.18-1.03-1.73-2.17-1.79c-2.38-0.12-4.77-0.23-7.16-0.29c-5.14-0.12-10.29-0.2-15.43-0.29c-1.68-0.03-1.9,0.21-1.99,1.84
			c-0.19,3.49-0.37,6.98-0.59,10.46c-0.02,0.38-0.35,0.74-0.54,1.12c-0.29-0.37-0.82-0.75-0.82-1.12
			C755.63,487.88,755.78,486.31,755.88,484.59z"/>
		<path d="M781.86,455.46c-2.77-0.44-5.39-0.89-8.02-1.3c-2.24-0.35-4.48-0.72-6.73-0.96c-2.53-0.27-5.08-0.37-7.61-0.6
			c-1.07-0.1-1.33,0.31-1.37,1.35c-0.09,2.59-0.38,5.17-0.51,7.76c-0.03,0.65,0.29,1.32,0.33,1.99c0.02,0.42-0.13,0.88-0.32,1.26
			c-0.08,0.16-0.66,0.27-0.71,0.2c-0.21-0.32-0.46-0.73-0.44-1.08c0.14-2.21,0.38-4.41,0.53-6.62c0.04-0.58-0.05-1.2-0.2-1.76
			c-0.76-2.81,0.72-4.94,3.6-4.75c3.37,0.22,6.73,0.69,10.09,1.11c4.19,0.53,8.38,1.13,12.57,1.71c1.35,0.18,2.71,0.32,4.04,0.6
			c0.49,0.11,0.9,0.59,1.34,0.91c-0.45,0.35-0.93,1.04-1.35,1C785.38,456.11,783.7,455.74,781.86,455.46z"/>
		<path d="M782.79,468.95c-3.23,0.93-6.38,1.37-9.68,0.82c-2.85-0.47-5.76-0.55-8.63-0.91c-2.38-0.3-4.73-0.73-7.09-1.14
			c-0.24-0.04-0.44-0.29-0.65-0.44c0.19-0.23,0.37-0.64,0.57-0.66c1.15-0.06,2.33-0.14,3.47-0.01c2.71,0.31,5.39,0.82,8.1,1.1
			c2.77,0.29,5.55,0.59,8.33,0.53c2.15-0.04,4.28-0.63,6.42-0.98c0.08-0.01,0.17-0.11,0.24-0.09c0.53,0.09,1.06,0.19,1.59,0.29
			c-0.38,0.37-0.71,0.83-1.16,1.08C783.88,468.78,783.35,468.78,782.79,468.95z"/>
		<path d="M758.23,491.51c4.39,0.4,8.71,1,13.04,1.32c3.71,0.27,7.44,0.21,11.15,0.34c0.58,0.02,1.15,0.33,1.72,0.51
			c-0.61,0.4-1.21,1.12-1.83,1.13c-3.99,0.1-7.97,0.03-11.93-0.76c-1.86-0.37-3.82-0.16-5.72-0.35c-1.94-0.19-3.86-0.51-5.78-0.86
			C758.34,492.74,757.46,492.54,758.23,491.51z"/>
		<path d="M772.44,444.32c1.44,0.19,2.74,0.5,4.05,0.55c2.33,0.09,4.66,0,6.99,0.04c0.42,0.01,0.83,0.27,1.24,0.42
			c-0.36,0.26-0.69,0.65-1.09,0.77c-2.24,0.64-4.5,0.71-6.82,0.26c-1.4-0.27-2.87-0.18-4.3-0.33c-2.36-0.25-4.72-0.51-7.07-0.86
			c-1.91-0.29-3.79-0.7-5.68-1.11c-0.38-0.08-0.69-0.42-1.04-0.64c0.39-0.17,0.8-0.52,1.16-0.48c3.12,0.36,6.23,0.8,9.35,1.19
			C770.25,444.23,771.28,444.25,772.44,444.32z"/>
		<path d="M771.01,437.75c-0.83-0.3-1.53-0.57-2.18-0.93c-0.18-0.1-0.3-0.54-0.23-0.75c0.05-0.16,0.46-0.33,0.69-0.3
			c1.79,0.25,3.57,0.52,5.34,0.86c0.35,0.07,0.63,0.46,0.95,0.71c-0.26,0.16-0.52,0.45-0.79,0.46
			C773.58,437.83,772.37,437.77,771.01,437.75z"/>
		<path d="M785.01,461.17c0.1,1.29,0.24,2.44,0.25,3.59c0,0.29-0.38,0.59-0.59,0.88c-0.27-0.26-0.75-0.5-0.77-0.77
			c-0.08-1.39-0.02-2.79-0.04-4.19c-0.01-0.51-0.13-1.01-0.12-1.51c0.01-0.45,0.09-0.92,0.22-1.35c0.02-0.07,0.57-0.13,0.62-0.04
			c0.2,0.33,0.38,0.72,0.41,1.1C785.05,459.59,785.01,460.31,785.01,461.17z"/>
		<path d="M775.3,462.6c0.87,0.75,0.88,0.97-0.32,1.19c-2.12,0.4-4.02,0.19-5.72-1.13c-0.28-0.22-0.36-0.69-0.53-1.05
			c0.36,0.04,0.77,0,1.08,0.14C771.51,462.56,773.31,462.7,775.3,462.6z"/>
		<path d="M770.37,487.66c-1.12-0.02-2.19-0.03-3.2-0.26c-0.4-0.09-0.68-0.7-1.01-1.07c0.35-0.1,0.74-0.37,1.04-0.29
			c1.87,0.54,3.66,0.31,5.45-0.35c0.25-0.09,0.58,0.07,0.88,0.11c-0.17,0.26-0.29,0.64-0.53,0.75
			C772.16,486.95,771.29,487.25,770.37,487.66z"/>
	</g>
</g>
</svg>
