<?xml version="1.0" encoding="utf-8"?>
<!-- Generator: Adobe Illustrator 23.0.4, SVG Export Plug-In . SVG Version: 6.00 Build 0)  -->
<svg version="1.1" id="Layer_1" xmlns="http://www.w3.org/2000/svg" xmlns:xlink="http://www.w3.org/1999/xlink" x="0px" y="0px"
	 viewBox="0 0 1195.05 731.46" style="enable-background:new 0 0 1195.05 731.46;" xml:space="preserve">
<style type="text/css">
	.st0{fill:#606060;}
	.st1{fill:#FFFFFF;}
</style>
<g id="bh">
	<path class="st0" d="M559.48,198.85c3.5-3.5,13.67-33.33,7-40c-5.5-5.5-13-12-18-11c-0.29,0.06-0.64,0.1-1.05,0.14
		c-0.86-2.23-2.45-6.73-2.45-9.64c0-4,1-24,1-24s-4-31-17-32s-35,18-35,18l-7.45,11.58c-3.69-1.52-8.81-2.82-10.05,0.92
		c-2,6-12,0-13,6s-13,4-13,8s-12-2-13,5s-3,2-5,6s-5.5-2.5-6.5-0.5s-4,1-4,1s-1-12-4-14s-5-6-8-7s-2-9-4-9s-4-4-2-7s-3-2-7-3
		s-4-7-9-7c-3.52,0-5.56-4.96-7.85-6.49c0.44-7.63,1.68-30.52,0.85-35.51c-1-6-4-11-15-13s-21,23-23,30c-2,7-11,10-11,10s-9,0-14-1
		s-9,3-9,3l-2.46,11.41c-6.46-3.84-14.14-9.01-13.54-14.41c1-9,6-20,8-24s1-15,1-15s-3-1-8.5-1.5c2.5,18.5-15,25-21,37s6,46,11,50
		s24.5,22.5,42.5,25.5c17.78,2.96,23.5,2.5,23.5,2.5s19,21,39,20s21-11,21-11l9,2c0,0,10.5,16.5,21.5,21.5c10.38,4.72,31,8,37,2
		s37-10,37-10s29-1,31,9s-7,15-14,22c-6.04,6.04-6.5,11.5-4,15c4.54,6.36,6.5,9.5,6.5,9.5s12-8,11-8s-3.5-5.5-3-9
		C542.74,204,556.44,201.89,559.48,198.85z M346.98,108.35c0,0-29-5-32-13c-0.18-0.47-1.03-1.13-2.28-1.93
		c0.11-0.29,0.21-0.64,0.28-1.07c1-6,8-12,8-12s10,2,17,1s14-15,14-15l2-14c0,0,6-11,16-8c8.54,2.56,6.14,33.55,5.26,42.56
		C368.18,92.85,346.98,108.35,346.98,108.35z M518.48,148.85c-1,2-18.5-1.5-23-4c-4.33-2.4-4.96-28.84-5-30.86l15.5-14.64
		c0,0,14-11,21-6s12,18,12,18s-1,16-1,20c0,3.57,0,12.72,1.43,16.77C530.64,147.99,519.16,147.48,518.48,148.85z"/>
	<g id="Vorm_8_1_">
		<path d="M482.65,123.85c1.19-2.39,2.44-3.14,4.69-2.63c1.09,0.25,1.3-0.24,1.59-1.11c1.22-3.61,2.67-7.18,5.24-10.02
			c1.9-2.1,3.79-4.26,6.32-5.79c2.05-1.24,3.58-3.3,5.57-4.67c2.39-1.65,4.93-3.16,7.58-4.36c3.24-1.47,6.59-2.49,10.28-2.62
			c4.86-0.17,8.53,1.73,11.71,5.1c3.25,3.44,6.2,7.16,7.88,11.6c1.3,3.45,2.26,7.08,2.89,10.71c0.64,3.67,0.93,7.45,0.92,11.18
			c-0.01,3.73-0.59,7.45-0.89,11.18c-0.21,2.69-0.8,5.44-0.43,8.06c0.56,3.91,3.45,6.06,7.01,7.58c5.49,2.35,10.53,5.38,13.54,10.88
			c2.36,4.33,3.2,8.98,2.49,13.81c-0.68,4.64-1.47,9.29-2.63,13.83c-1.56,6.13-4.62,11.49-9.97,15.14c-2.97,2.02-6.21,3.64-9.3,5.49
			c-1.89,1.13-2.74,3.03-3.69,4.93c-1.66,3.33-0.4,6.07,1.35,8.81c1.16,1.82,0.97,2.66-0.78,4.03c-0.21,0.16-0.5,0.34-0.56,0.56
			c-0.66,2.45-2.59,3.04-4.75,3.36c-0.47,0.07-0.99,0.2-1.35,0.48c-1.25,0.96-2.49,1.14-4.07,0.74c-1.61-0.4-2.29-1.49-3.22-2.62
			c-2.46-2.99-3.78-6.49-4.99-10.07c-0.38-1.12-0.78-2.22-1.19-3.32c-0.08-0.21-0.38-0.45-0.33-0.58c1.06-2.46-0.49-5.92,2.86-7.5
			c0.59-2.22,3.25-2.71,4.03-4.91c0.27-0.77,1.67-1.27,2.65-1.63c0.81-0.3,1.58-0.25,1.91-1.39c0.19-0.65,1.14-1.41,1.83-1.5
			c2.24-0.31,2.98-1.89,3.52-3.67c0.37-1.22,0.73-2.23,2.19-2.54c0.31-0.07,0.58-1.12,0.56-1.71c-0.02-0.8-0.18-1.46,0.77-1.89
			s0.66-0.93,0.06-1.64c-0.72-0.86-1.11-2-1.7-2.98c-0.34-0.55-0.7-1.2-1.22-1.51c-1.86-1.12-3.8-2.12-5.71-3.15
			c-0.47-0.25-1.06-0.36-1.42-0.72c-1.44-1.41-3.16-1.98-5.12-1.88c-0.36,0.02-0.76,0.27-1.04,0.53c-1.5,1.3-2.85,1.48-4.55,0.56
			c-0.32-0.17-0.77-0.58-0.93-0.49c-1.54,0.9-3.28-0.41-4.44,0.06c-1.88,0.76-3.63,1.24-5.61,0.96c-2.32,2.42-5.24,1.11-7.92,1.29
			c-0.36,0.03-0.72,0.16-1.08,0.26c-0.82,0.21-1.63,0.44-2.45,0.64c-0.15,0.04-0.34-0.03-0.47,0.03c-1.64,0.71-3.21,1.65-4.92,2.09
			c-2.12,0.55-4.34,0.68-6.52,1c-0.46,0.07-0.93,0.12-1.35,0.28c-0.52,0.2-0.99,0.54-1.49,0.79c-0.53,0.27-1.39,0.37-1.55,0.78
			c-0.73,1.8-2.22,1.5-3.15,0.82c-1.44-1.04-2.4-0.45-3.41,0.34c-2.7,2.11-5.69,3.5-9.13,3.76c-3.69,0.27-7.38,0.63-11.08,0.64
			c-4.15,0-8.24-0.55-12.1-2.3c-2.99-1.36-6.2-2.33-9-4c-4.69-2.8-8.78-6.47-11.87-11c-2.88-4.22-3.38-9.1-3.11-14.19
			c0.27-5.05,1.35-9.91,2.57-14.77c0.39-1.56,0.92-3.08,1.47-4.59c0.13-0.36,0.62-0.57,0.94-0.87c0.43-0.4,1.17-0.77,1.22-1.22
			c0.17-1.42,1.32-1.74,2.24-2.3c1.03-0.63,2.24-1.01,3.19-1.74c1.55-1.19,2.87-0.64,4.49-0.1c1.57,0.52,3.41,0.64,5.05,0.4
			c0.97-0.14,1.8-1.32,2.66-2.07c1.4-1.22,2.73-2.27,4.86-1.59c2.32,0.75,3.8-1.2,5.5-2.24c1.94-1.19,3.88-2.14,6.25-1.86
			c0.32,0.04,0.87-0.24,1-0.52c1.65-3.47,4.64-4.96,8.17-5.69c0.31-0.06,0.68-0.06,0.91-0.24c1.22-0.91,2.13-0.33,3.08,0.48
			c0.88,0.76,1.44,0.98,2.42-0.31C478.93,126.73,480.27,124.75,482.65,123.85 M455.97,179.88c0.33-2.34,0.57-4.7,1.04-7.01
			c0.13-0.62,0.97-1.08,1.48-1.62c0.17,0.62,0.54,1.27,0.47,1.86c-0.46,3.66-1.09,7.29-1.52,10.95c-0.47,3.96-0.34,7.88,2.11,11.3
			c0.27,0.38,0.91,0.71,1.37,0.7c2-0.06,4.01-0.43,6-0.35c3.21,0.13,6-0.85,8.74-2.39c4.01-2.26,7.13-5.47,9.68-9.16
			c1.85-2.69,3.29-5.71,4.65-8.7c1.04-2.3,1.66-4.78,2.48-7.18c0.34-0.98,0.87-1.93,1.02-2.94c0.44-2.92,0.58-5.89,1.15-8.77
			c0.31-1.57-0.03-2.8-0.96-3.85c-2.65-2.97-3.87-6.53-4.08-10.35c-0.28-4.97-0.54-9.96,0.35-14.92c0.24-1.34-0.42-2.31-1.62-2.85
			c-1.34-0.6-2.48-0.07-3.49,0.81c-0.44,0.38-0.86,0.8-1.22,1.26c-0.62,0.78-1.36,1.53-1.73,2.43c-0.63,1.54-1.23,3-2.85,3.81
			c-0.49,0.24-0.81,0.82-1.21,1.25c0.49,0.3,0.94,0.74,1.47,0.89c2.08,0.58,2.28,0.86,1.81,3c-0.12,0.56-0.43,1.13-0.36,1.66
			c0.14,1.09,0.18,2.41,0.82,3.17c0.69,0.82,1.86,0.42,2.68-0.42c0.16-0.17,0.51-0.15,0.78-0.22c0.04,0.31,0.22,0.7,0.1,0.93
			c-0.65,1.2-1.53,2.04-3.08,1.76c-1.23-0.22-2.05-0.86-2.44-2.04c-0.48-1.43-0.55-2.86-0.06-4.32c0.1-0.28-0.25-0.72-0.4-1.08
			c-0.41,0.24-1.05,0.38-1.19,0.72c-0.57,1.44-0.96,2.95-1.47,4.41c-0.13,0.38-0.47,0.69-0.71,1.04c-0.21-0.42-0.66-0.89-0.58-1.24
			c0.22-1.01,0.67-1.97,1.01-2.95c0.17-0.5,0.31-1.01,0.46-1.52c-0.45,0.27-1.16,0.44-1.29,0.82c-0.4,1.12-0.6,0.21-0.7-0.04
			c-0.63-1.72,0.99-1.86,1.81-2.59c0.2-0.18,0.19-0.6,0.27-0.91c-0.52,0-1.17-0.2-1.53,0.04c-2.15,1.42-3.07,1.7-1.95,5.43
			c0.66,2.19-1.47,5.14-3.72,5.33c-0.12,0.01-0.43-0.53-0.38-0.59c0.27-0.33,0.6-0.64,0.97-0.86c1.4-0.82,2.34-1.99,1.79-3.6
			c-1.08-3.18-0.38-5.47,2.77-6.89c0.24-0.11,0.34-0.52,0.51-0.79c-0.26-0.15-0.52-0.4-0.79-0.43c-1.12-0.1-2.25-0.2-3.38-0.18
			c-2.27,0.05-2.76,0.55-3.38,2.7c-0.31,1.07-0.03,2.46-1.41,3.06c0.19,0.34,0.37,0.68,0.57,1.01c0.56,0.9,1.24,1.74,1.65,2.7
			c0.14,0.34-0.35,0.95-0.55,1.43c-0.22-0.4-0.43-0.8-0.66-1.19c-0.17-0.29-0.31-0.64-0.55-0.85c-1.26-1.03-2.48-2.14-3.86-3
			c-0.77-0.48-2.24-0.8-2.54,0.24c-0.49,1.68-1.37,1.22-2.42,0.99c-0.71-0.16-1.43-0.24-1.02,0.96c0.12,0.37-0.24,0.87-0.24,1.31
			c-0.02,2.31-1.16,3.02-3.12,1.9c-0.36-0.21-0.67-0.51-1.03-0.73c-2.43-1.49-6.29-0.03-6.95,2.62c-0.65,2.62-1.22,2.99-3.82,2.32
			c-1.12-0.29-2.44-0.45-3.24-1.15c-1.48-1.32-3.56-1.9-5.21-0.77c-1.65,1.14-3.09,2.6-4.77,3.68c-1.32,0.85-1.99,1.92-2.35,3.39
			c-1.01,4.15-1.68,8.33-2.06,12.6c-0.23,2.66-0.37,5.29,0.15,7.82c1.4,6.79,6.09,11.26,11.45,15.12c3.51,2.53,7.59,3.94,11.54,5.58
			c0.8,0.34,1.6,0.8,2.44,0.91c2.42,0.32,4.86,0.5,7.29,0.72c0.25,0.02,0.51-0.02,0.76-0.04c-0.08-0.25-0.12-0.52-0.23-0.76
			c-0.56-1.24-1.37-2.43-1.67-3.73C454.96,187.79,455.41,183.99,455.97,179.88 M525.93,95.32c-4.65-0.42-9.12,0.65-13.09,2.79
			c-3.72,2-7.08,4.75-10.39,7.42c-3.47,2.8-7.28,5.36-9.1,9.76c-1.01,2.43-2.2,4.78-3.22,7.2c-0.13,0.3,0.26,0.82,0.41,1.24
			c0.29-0.28,0.63-0.53,0.85-0.85c1-1.48,1.73-3.23,2.99-4.44c2.93-2.8,6.16-5.27,9.16-7.99c3.73-3.38,7.49-6.69,11.99-9.02
			c0.62-0.32,1.29-0.66,1.96-0.71c2.01-0.15,4.05-0.4,6.03-0.17c2.04,0.24,4.17,0.37,5.92,1.87c4.29,3.65,6.79,8.45,8.92,13.48
			c1.93,4.55,2.55,9.33,1.86,14.23c-0.57,4.1-1.55,8.17-1.78,12.29c-0.17,3.11,0.29,6.34,0.98,9.4c0.45,2,1.67,3.75,1.4,6.03
			c-0.18,1.56-0.52,2.55-2.13,2.74c-1.99,0.23-3.99,0.34-5.98,0.57c-6.67,0.77-13.26,0.5-19.72-1.47c-1.41-0.43-2.9-0.63-4.31-1.06
			c-2.86-0.87-5.67-1.9-8.55-2.68c-0.81-0.22-1.99-0.04-2.64,0.44c-0.59,0.44-0.83,1.52-0.96,2.37c-0.24,1.49-0.05,3.09-0.46,4.51
			c-1.19,4.08-2.78,8.05-3.86,12.16c-1.18,4.49-3.62,8.18-6.45,11.71c-0.27,0.33-0.36,0.8-0.53,1.21c0.49-0.04,1,0.01,1.47-0.12
			c2.04-0.57,4.05-1.31,6.11-1.75c2.21-0.47,4.51-0.5,6.7-1.04c2.88-0.71,5.65-1.92,8.54-2.58c3.22-0.74,6.51-1.35,9.8-1.58
			c3.87-0.27,7.81-0.41,11.64,0.02c3.54,0.4,6.98,1.64,10.46,2.52c0.04,0.01,0.05,0.12,0.09,0.14c3.25,1.05,5.24,4.66,9.14,4.49
			c0.41-0.02,1.32,1.13,1.21,1.5c-0.36,1.2-1.09,0.5-1.74,0.08c-0.24-0.16-0.63-0.07-0.96-0.1c0.05,0.25,0.05,0.53,0.16,0.76
			c0.62,1.23,1.52,2.38,1.87,3.68c0.57,2.1,0.82,4.22-0.36,6.38c-0.84,1.55-1.23,3.38-1.61,5.13c-0.3,1.37-1.16,1.36-2.19,1.31
			c-0.53-0.03-1.19-0.17-1.57,0.08c-2.76,1.8-5.55,3.58-8.16,5.58c-2.17,1.66-4.33,3.44-6.1,5.51c-1.04,1.21-1.21,3.12-1.94,4.63
			c-0.99,2.03-0.47,3.9,0.34,5.76c0.36,0.83,0.94,1.11,1.89,0.68c2.42-1.09,4.95-1.95,7.3-3.15c1.36-0.7,3.02-1.02,3.66-2.96
			c0.71-2.16,2.01-4.11,2.96-6.2c0.19-0.42-0.12-1.04-0.09-1.56c0.03-0.54,0.03-1.22,0.34-1.59c0.42-0.49,1.1-0.8,1.72-1.08
			c0.24-0.11,0.61,0.09,0.92,0.15c-0.12,0.3-0.17,0.65-0.37,0.87c-0.39,0.44-0.9,0.77-1.28,1.22c-0.17,0.2-0.15,0.57-0.22,0.87
			c0.28,0.01,0.62,0.12,0.83,0.01c2.37-1.23,4.78-2.39,7.06-3.77c6.33-3.82,9.9-9.75,12-16.59c0.88-2.88,1.04-5.98,1.48-8.99
			c0.25-1.75,0.56-3.5,0.56-5.26c0.01-2.32,0.2-4.79-0.5-6.93c-1.38-4.23-3.61-8.12-7.71-10.39c-2.57-1.42-5.3-2.56-7.98-3.77
			c-0.58-0.26-1.53-0.11-1.83-0.5c-1.55-2.06-3.13-4.13-4.35-6.38c-1.75-3.24-0.75-6.74-0.41-10.14c0.37-3.69,1.12-7.37,1.16-11.06
			c0.06-4.96-0.59-9.85-1.95-14.7c-1.26-4.52-2.26-9.03-5.16-12.9c-2.05-2.73-4.09-5.43-6.89-7.44
			C529.8,96.09,528.27,95.02,525.93,95.32 M491.13,132.82c0.11,3.44,0.26,6.89,0.32,10.33c0.07,4.22,3.89,10.17,8.04,10.51
			c1.64,0.13,3.26,0.7,4.87,1.13c3.05,0.82,6.08,1.76,9.15,2.51c2.22,0.54,4.49,0.88,6.75,1.28c1.3,0.23,2.63,0.61,3.92,0.56
			c4.54-0.19,9.07-0.58,13.6-0.8c1.12-0.05,1.16-0.21,0.85-1.3c-0.94-3.29-1.94-6.62-2.38-10c-0.66-5.09,0.05-10.12,1.38-15.1
			c0.55-2.06,0.62-4.31,0.53-6.45c-0.3-6.91-3.13-12.89-7.27-18.27c-1-1.3-2.42-2.63-3.91-3.12c-4.59-1.52-9.28-1.62-13.48,1.18
			c-2.57,1.71-4.86,3.85-7.27,5.81c-3.25,2.64-6.54,5.24-9.71,7.97c-2.09,1.8-3.98,4.11-4.24,6.75
			C492.05,128.08,491.6,130.26,491.13,132.82 M541.56,233.06c0.63-1.44-0.36-2.48-0.77-3.71c-0.41-1.25-0.99-1.27-1.91-0.96
			c-2.02,0.67-4.08,1.26-6.03,2.11c-3.52,1.55-3.45,1.6-1.25,4.85c0.79,1.17,1.8,1.32,2.9,0.88
			C536.82,235.28,539.08,234.2,541.56,233.06 M545.71,199.63c0.43,0.39,0.85,0.79,1.28,1.18c0.19-0.51,0.4-1.01,0.55-1.52
			c0.19-0.65,0.26-1.34,0.5-1.98c0.4-1.08-0.69-1.16-0.94-0.99c-0.68,0.45-1.25,1.14-1.69,1.83
			C545.23,198.44,545.51,199,545.71,199.63 M542.65,204.34c1.19,1.55,1.87,0.04,2.61-0.51c0.51-0.38,0.81-1.05,1.2-1.59
			c-0.55-0.03-1.09-0.05-1.64-0.08c-0.42-0.02-0.85-0.08-1.27-0.05C542.21,202.18,541.88,202.85,542.65,204.34 M544.23,192.61
			c0.26,0.26,0.47,0.65,0.78,0.77c0.77,0.29,1.59,0.44,2.39,0.65c-0.33-0.68-0.53-1.5-1.04-2.01
			C545.73,191.37,544.77,190.45,544.23,192.61 M523.52,183.78c0.96,0.26,1.91,0.57,2.89,0.74c0.16,0.03,0.43-0.54,0.65-0.83
			c-0.24-0.16-0.47-0.41-0.74-0.45c-0.9-0.15-1.81-0.23-2.73-0.29C523.54,182.94,523.46,183.35,523.52,183.78 M543.91,188.84
			c-0.85-0.42-1.7-0.85-2.55-1.27c-0.05,0.19-0.19,0.52-0.14,0.54c0.82,0.48,1.65,0.95,2.51,1.38c0.23,0.11,0.54,0.07,0.81,0.1
			C544.44,189.37,544.34,189.14,543.91,188.84 M511.15,184.85c-0.8-0.07-1.6-0.18-2.41-0.19c-0.12,0-0.42,0.6-0.34,0.72
			C509.01,186.28,510.72,186.07,511.15,184.85 M454.06,141.67c0.29,0.3,0.58,0.59,0.87,0.89c0.09-0.45,0.22-0.89,0.26-1.34
			c0.02-0.24-0.08-0.51-0.17-0.75c-0.1-0.26-0.24-0.51-0.36-0.76c-0.27,0.23-0.66,0.4-0.77,0.69
			C453.76,140.7,453.91,141.1,454.06,141.67 M518.51,183.45c0.7,0.28,1.38,0.62,2.1,0.82c0.21,0.06,0.53-0.28,0.79-0.44
			c-0.21-0.18-0.41-0.49-0.64-0.51C519.98,183.24,519.18,183.26,518.51,183.45 M525.81,218.92c0.62,1.1,1.12,0.07,1.56-0.17
			c0.21-0.11,0.16-0.69,0.23-1.06c-0.43,0.12-0.88,0.18-1.27,0.37C526.07,218.18,525.9,218.49,525.81,218.92 M515.94,183.89
			c-0.48-0.08-0.97-0.24-1.45-0.21c-0.19,0.01-0.36,0.43-0.54,0.67c0.52,0.16,1.04,0.45,1.55,0.44
			C515.77,184.79,516.02,184.26,515.94,183.89 M466.47,136.04c-0.56-0.19-1.11-0.43-1.69-0.54c-0.14-0.03-0.36,0.39-0.54,0.61
			C464.96,136.19,465.68,136.28,466.47,136.04 M538.09,186.74c0.2,0.17,0.38,0.42,0.61,0.47c0.27,0.07,0.62,0.04,0.85-0.09
			c0.1-0.06,0.09-0.63-0.03-0.71c-0.49-0.3-1.04-0.49-1.57-0.72C537.96,185.97,537.96,186.25,538.09,186.74 M535.8,185.31
			c0-0.16,0.04-0.43-0.02-0.46c-0.67-0.3-1.36-0.56-2.05-0.83c-0.05,0.15-0.17,0.41-0.15,0.42
			C534.25,184.79,534.92,185.12,535.8,185.31 M532.74,211.27c-0.05,0.23-0.09,0.47-0.14,0.7c0.55,0.03,1.09,0.09,1.63,0.04
			c0.09-0.01,0.14-0.48,0.21-0.73c-0.3-0.08-0.59-0.18-0.89-0.22C533.36,211.04,533.15,211.12,532.74,211.27 M483.02,193.04
			c0.19-0.47,0.37-0.93,0.56-1.4c-0.39,0.12-0.78,0.23-1.16,0.35C482.55,192.38,482.68,192.77,483.02,193.04 M490.98,189.85
			c-0.17-0.28-0.31-0.74-0.53-0.79c-0.38-0.08-0.81,0.09-1.22,0.16c0.25,0.25,0.47,0.55,0.77,0.72
			C490.2,190.06,490.51,189.97,490.98,189.85 M444.3,142.84c-0.19,0.47-0.39,0.93-0.53,1.41c-0.02,0.05,0.31,0.21,0.48,0.32
			c0.16-0.5,0.31-1,0.46-1.51C444.72,143.03,444.66,142.97,444.3,142.84 M538.51,209.15c-0.42-0.21-0.83-0.46-1.28-0.61
			c-0.07-0.02-0.29,0.38-0.44,0.58c0.45,0.04,0.9,0.07,1.34,0.11C538.2,209.24,538.25,209.26,538.51,209.15 M435.15,143.63
			c0.55,0.13,1.11,0.26,1.66,0.38l0.07-0.3C436.34,143.57,435.79,143.44,435.15,143.63 M495.11,188.74
			c-0.38-0.09-0.75-0.2-1.13-0.26c-0.13-0.02-0.35,0.03-0.4,0.13c-0.06,0.11,0.01,0.43,0.02,0.43
			C494.15,189.02,494.7,188.98,495.11,188.74 M540.61,207.01c0.4,0.02,0.81,0.04,1.21,0.06c-0.01-0.15-0.03-0.3-0.04-0.46
			C541.35,206.68,540.91,206.75,540.61,207.01 M467.19,133.05c-0.29-0.2-0.58-0.42-0.89-0.57c-0.05-0.03-0.24,0.23-0.37,0.36
			C466.28,132.95,466.63,133.06,467.19,133.05 M479.46,129.49c-0.3,0.13-0.59,0.27-0.89,0.4c0.19,0.19,0.37,0.38,0.56,0.57
			C479.28,130.21,479.43,129.95,479.46,129.49 M505.43,185.24c0,0.24,0.01,0.47,0.01,0.71c0.24-0.03,0.48-0.06,0.72-0.1
			C506.03,185.67,505.9,185.5,505.43,185.24 M469.16,130.71c0.32,0.09,0.64,0.17,0.96,0.26c0.02-0.15,0.04-0.29,0.06-0.44
			C469.91,130.55,469.63,130.57,469.16,130.71 M473.25,130.46c0.37,0.05,0.75,0.11,1.12,0.16c-0.02-0.08-0.03-0.24-0.05-0.24
			C473.86,130.37,473.39,130.38,473.25,130.46z"/>
		<path d="M303.68,55.84c-0.85,5-3.49,9.24-5.13,13.85c-1.32,3.7-3.48,7.23-3.27,11.36c0.31,6.13,2.65,11.16,8.18,14.34
			c0.37,0.21,0.73,0.43,1.11,0.61c2.59,1.22,2.21,1.1,3.05-1.59c1.09-3.48,1.57-7.39,5.09-9.74c1.67-1.12,3.44-1.35,5.25-1.22
			c3.05,0.22,6.08,0.79,9.13,1.07c4.2,0.4,8.46,0.64,12.11-1.96c1.23-0.88,2.29-2.3,2.87-3.71c0.79-1.92,0.98-4.09,1.57-6.11
			c0.84-2.89,1.65-5.8,2.79-8.58c1.11-2.7,2.46-5.33,3.98-7.82c1.06-1.74,2.36-3.48,3.94-4.71c3.44-2.67,7-5.09,11.72-5.23
			c5.08-0.14,8.84,2.12,12.05,5.66c2.81,3.09,3.46,7.06,3.9,11c0.69,6.18,0.33,12.37-0.15,18.55c-0.29,3.67-0.55,7.34-0.91,11
			c-0.08,0.78-0.68,1.5-0.83,2.28c-0.18,0.95,0.44,1.5,1.24,0.92c1.36-1,1.52,0.16,2.06,0.86c0.38,0.49,0.81,1.07,1.35,1.3
			c1.42,0.62,3.33,0.71,2.66,3.11c-0.03,0.11,0.29,0.34,0.46,0.48c0.32,0.27,0.74,0.47,0.97,0.8c0.63,0.92,1.16,1.91,1.78,2.85
			c0.9,1.36,2.1,2.05,3.83,1.84c0.61-0.07,1.28,0.39,1.92,0.62c0.09,0.03,0.15,0.15,0.24,0.2c1.07,0.58,2.55,0.92,3.1,1.82
			c0.52,0.85-0.01,2.3,1.18,3.11c0.23,0.16,0.35,0.73,0.26,1.04c-0.33,1.18-0.79,2.33-1.14,3.51c-0.06,0.21,0.06,0.57,0.23,0.73
			c0.13,0.13,0.45,0.05,0.69,0.06c1.58,0.03,3.16-0.01,4.73,0.12c0.35,0.03,0.83,0.64,0.93,1.06c0.37,1.58,0.6,3.2,0.92,4.8
			c0.08,0.42,0.36,1.19,0.46,1.17c1.24-0.18,1.51,0.85,2.16,1.49c0.61,0.61,1.5,0.98,2.3,1.38c1.74,0.87,3.68,1.45,4.11,3.83
			c0.14,0.78,0.78,1.48,1.2,2.21c2.1,3.63,3.01,7.5,2.08,11.64c-0.34,1.52,0.88,1.49,1.55,2.04c0.8,0.65,1.9,1.12,2.39,1.95
			c0.65,1.12-0.22,2.08-1.52,1.74c-1.56-0.41-1.94,0.33-2.46,1.63c-0.89,2.21-2.04,4.34-3.3,6.36c-1.17,1.87-2.64,3.54-3.95,5.32
			c-0.14,0.19-0.1,0.52-0.14,0.79c0.31,0.05,0.61,0.13,0.92,0.13c1.7,0.01,3.43-0.17,5.1,0.06c0.92,0.13,1.75,0.93,2.63,1.43
			c-1.04,0.4-2.08,1.12-3.12,1.12c-2.01-0.01-4.01-0.54-6.03-0.62c-0.9-0.03-2.01,0.29-2.71,0.85c-3.39,2.71-6.91,5.04-10.93,6.84
			c-4.24,1.9-8.49,1.8-12.86,1.71c-2.62-0.05-5.24-0.07-7.86-0.23c-1.11-0.07-2.24-0.35-3.3-0.71c-2.85-0.97-5.78-1.8-8.46-3.11
			c-6.46-3.17-12.57-6.84-16.06-13.58c-1.08-2.09-1.06-1.94-3.13-0.48c-0.9,0.63-2.21,0.97-3.33,0.93
			c-2.08-0.06-4.29,0.36-6.17-1.12c-0.39-0.31-1.29-0.42-1.7-0.18c-1.85,1.08-2.96,1.09-4.74-0.79c-0.86-0.91-1.49-0.96-2.59-0.52
			c-0.61,0.24-1.53-0.1-2.24-0.38c-0.88-0.35-1.7-0.86-2.5-1.38c-2.22-1.44-5.21-0.51-7.29-2.41c-0.19-0.17-0.72,0.1-1.08,0.05
			c-0.94-0.13-1.88-0.3-2.81-0.51c-0.97-0.22-1.93-0.75-2.87-0.7c-1.3,0.08-1.96-0.56-2.7-1.39c-0.55-0.62-1.22-1.41-1.95-1.55
			c-1.44-0.27-2.12-1.13-2.94-2.2c-1.16-1.51-2.63-2.78-4.04-4.08c-0.26-0.24-0.85-0.21-1.28-0.19c-2.43,0.14-4.5-1.45-5.11-3.86
			c-0.19-0.77-0.48-1.61-1-2.18c-0.35-0.38-1.24-0.59-1.75-0.43c-1.29,0.39-2.38,0.39-3.41-0.58c-1.13-1.06-1.66-2.4-1.22-3.8
			c0.45-1.43-0.32-2.06-0.95-3.13c-1.33-2.28-4.04-3.75-4.13-6.78c-0.01-0.32-0.37-0.76-0.68-0.93c-2.19-1.18-2.84-2.94-2.04-5.3
			c0.43-1.28,0.88-2.52-0.51-3.78c-0.62-0.56-0.69-2.02-0.58-3.02c0.12-1.12,0.21-2-0.61-2.95c-0.95-1.1-1.56-2.36-1.02-4
			c0.22-0.66,0-1.67-0.39-2.29c-1.04-1.63-1.08-3.27,0.09-4.66c1.04-1.23,1.28-2.43,0.71-3.79c-0.57-1.36-0.18-2.63,0.67-3.45
			c0.88-0.85,0.88-1.44,0.6-2.52c-0.19-0.75,0.16-1.77,0.57-2.51c0.68-1.21,0.87-2.39,0.36-3.65c-0.74-1.84,0.45-3.03,1.35-4.33
			c0.48-0.69,0.92-1.41,1.37-2.13c0.06-0.09,0.02-0.25,0.09-0.32c1.77-1.9,3.3-4.21,5.43-5.53c1.49-0.93,2.76-2.06,4.12-3.09
			c0.38-0.29,0.25-1.27,0.35-1.93c0.25-1.53,0.35-3.11,0.81-4.57c0.26-0.85,0.97-1.78,1.73-2.19c1.46-0.8,1.91-1.85,1.66-3.39
			c-0.12-0.73-0.13-1.47-0.18-2.21c-0.11-1.45,0.99-2.46,2.48-2.3c0.36,0.04,0.77,0.04,1.1-0.09c2.07-0.87,4.04-0.17,5.96,0.43
			c1.56,0.49,1.72,1.98,1.69,3.37C303.88,52.41,303.72,54.08,303.68,55.84 M276.93,93.07c-0.41,5.18,0.07,10.24,1.59,15.24
			c1.79,5.9,4.3,11.47,7.56,16.66c2.11,3.36,3.55,7.22,6.98,9.69c1.62,1.16,3.08,2.57,4.54,3.94c1.41,1.33,3.48,1.7,4.8,2.78
			c2.11,1.72,4.33,2.98,6.69,4.24c4.57,2.43,9.37,4.22,14.35,5.41c4.4,1.05,8.94,1.57,13.43,2.22c2.47,0.36,4.97,0.52,7.46,0.75
			c1.64,0.15,2.42-0.74,1.99-2.29c-0.26-0.92-0.69-1.8-0.94-2.73c-2-7.4-1.2-14.81,0.06-22.2c0.29-1.68,0.75-3.33,1.19-4.98
			c0.18-0.67,0.1-0.92-0.65-1.14c-2.81-0.83-5.59-1.75-8.37-2.68c-3.44-1.15-6.91-2.25-10.3-3.54c-4.35-1.65-8.4-3.87-11.82-7.06
			c-1.03-0.97-1.87-2.24-2.48-3.53c-1.19-2.51-0.87-5.18,0.08-7.65c1.71-4.41,3.71-6.98,8.66-7.31c4.84-0.32,9.62,0.24,14.37,1.04
			c3.41,0.57,6.15-0.26,7.99-3.24c1.97-3.2,3.76-6.51,5.51-9.84c0.76-1.43,1.36-2.98,1.79-4.54c0.87-3.2,1.45-6.49,2.38-9.67
			c1.21-4.13,4.2-6.92,7.68-9.22c3.48-2.3,7.85-1.24,9.58,0.64c3.09,3.38,5.42,7.24,6.57,11.79c0.88,3.48,0.6,6.96,0.61,10.45
			c0,2.5,0.13,5.02-0.08,7.51c-0.33,3.92-0.92,7.82-1.34,11.73c-0.04,0.33,0.32,0.7,0.5,1.06c0.27-0.24,0.72-0.45,0.77-0.72
			c0.7-3.82,1.53-7.64,1.96-11.5c0.35-3.12,0.08-6.31,0.31-9.45c0.38-5.38,0.13-10.67-1.05-15.97c-1.34-6.02-5.53-8.91-10.85-10.38
			c-2.43-0.67-5.15-0.63-7.67,0.82c-3.52,2.04-6.99,4.03-8.89,7.87c-1.56,3.15-3.3,6.23-4.67,9.46c-0.95,2.25-1.79,4.67-2.03,7.07
			c-0.51,5.15-2.15,9.39-7.23,11.59c-3.59,1.56-7.25,2.15-11.16,1.24c-2.46-0.57-5-1.02-7.51-1.06c-2.19-0.04-4.74-0.5-6.44,1.4
			c-2.17,2.44-2.65,5.68-3.42,8.72c-0.3,1.19-0.19,2.47-0.32,3.71c-0.11,0.97-0.26,1.91-1.58,0.86c-0.66-0.52-1.45-0.87-2.21-1.25
			c-4.87-2.4-8.51-5.85-10.41-11.13c-1.43-3.98-2.39-7.87-0.88-12.01c1-2.72,1.96-5.45,3.02-8.14c0.67-1.7,1.53-3.32,2.22-5
			c0.71-1.71,1.3-3.47,1.97-5.2c0.27-0.7,0.08-1.18-0.67-1.07c-1.77,0.26-3.64,0.37-5.23,1.09c-0.87,0.39-1.45,1.82-1.8,2.9
			c-1.45,4.54-4.59,7.85-7.84,11.09c-3.05,3.05-6.15,6.03-6.9,10.6c-0.26,1.59-0.53,3.23-1.16,4.69
			C276.83,88.76,276.88,90.72,276.93,93.07 M415.94,144.65c0.1,1.05,0.26,2.1,0.25,3.15c0,0.25-0.57,0.49-0.88,0.74
			c-0.23-0.42-0.64-0.83-0.67-1.26c-0.12-1.8-0.19-1.81-1.89-1c-0.68,0.33-1.69,0.6-2.3,0.33c-2.87-1.25-4.07-4.08-3.13-7.03
			c0.57-1.78,0.79-3.74-0.32-5.18c-1.35-1.75-2.82-3.28-3.95-5.31c-1.13-2.04-0.96-3.55-0.18-5.3c0.64-1.43,0.35-2.33-1.2-2.75
			c-0.93-0.25-1.88-0.44-2.82-0.69c-0.64-0.17-1.26-0.39-1.89-0.59c0.47,0.51,0.97,1,1.4,1.54c0.22,0.27,0.31,0.63,0.46,0.96
			c-0.35,0.1-0.73,0.32-1.06,0.27c-1.95-0.31-2.79-1.61-2.38-3.55c0.03-0.15-0.01-0.32-0.01-0.47c-0.01-1.22-0.13-2.45-0.02-3.67
			c0.27-2.88-0.34-3.77-3.21-4.15c-0.83-0.11-1.69,0.02-2.54,0.08c-2.26,0.15-3.62-0.61-4.21-2.59c-0.22-0.74-0.16-1.57-0.18-2.36
			c-0.2-6.52-7.64-8.84-12.02-6c-1.83,1.18-3.34,2.87-4.93,4.39c-2.4,2.28-4.63,4.76-7.16,6.87c-3.2,2.68-6.69,5.01-9.95,7.62
			c-1.6,1.28-3.04,2.76-3.26,5.04c-0.37,3.75-0.89,7.48-1.26,11.23c-0.6,6.07-0.38,12.06,2.44,17.66c1.5,2.98,2.69,6.24,4.76,8.77
			c3.62,4.44,8.57,7.34,13.76,9.71c0.52,0.24,1.74-0.02,2.03-0.45c1.67-2.5,3.37-5.01,4.66-7.71c1.47-3.08,2.48-6.39,3.8-9.55
			c0.24-0.59,0.97-0.98,1.51-1.41c0.05-0.04,0.55,0.26,0.57,0.42c0.05,0.59,0.09,1.22-0.08,1.77c-0.35,1.14-0.82,2.25-1.28,3.35
			c-0.99,2.33-1.88,4.72-3.06,6.95c-1.16,2.18-2.55,4.25-3.99,6.25c-0.89,1.24-0.6,1.63,0.74,2c4.39,1.21,8.83,1.83,13.39,1.81
			c3.77-0.02,7.55,0,11.13-1.3c2.26-0.82,4.53-1.82,6.49-3.18c2.24-1.55,4.21-3.52,6.2-5.42c3.47-3.32,5.81-7.41,7.09-11.97
			c0.87-3.1,1.24-6.35,1.63-9.56c0.45-3.77-0.85-5.1-4.48-4.69c-1.3,0.15-1.84-0.52-2.04-1.5c-0.15-0.71,0.22-1.52,0.12-2.25
			c-0.15-1.09-0.17-2.76-0.83-3.11c-1.4-0.75-3.16-0.81-4.78-1.12c-0.01,0-0.23,0.52-0.15,0.66c0.25,0.41,0.59,0.77,0.94,1.1
			c2.14,1.97,2.71,4.53,1.62,7.14c-0.24,0.57-0.54,1.27-0.4,1.81c0.27,1.12,0.55,2.47,1.33,3.16c0.78,0.7,2.01,0.66,3.05-0.45
			C413.79,142.77,415.02,143.11,415.94,144.65 M337.67,115.88c0.48,0.23,0.94,0.55,1.45,0.68c2.7,0.68,5.42,1.32,8.14,1.95
			c0.27,0.06,0.65,0.05,0.86-0.1c3.47-2.54,6.96-5.06,10.38-7.67c1.63-1.24,3.25-2.55,4.67-4.02c2.05-2.12,3.8-4.55,5.91-6.6
			c1.33-1.3,3.09-2.16,4.64-3.24c0.3-0.21,0.73-0.47,0.8-0.77c0.6-2.79,1.44-5.58,1.62-8.41c0.27-4.4-0.09-8.85,0.13-13.26
			c0.34-6.93-1.56-12.98-6.26-18.14c-1.42-1.56-4.58-2.07-6.18-1.5c-3.3,1.18-5.79,3.48-7.52,6.38c-1.15,1.94-1.72,4.28-2.31,6.5
			c-0.59,2.21-0.54,4.63-1.38,6.71c-1.65,4.11-3.58,8.14-5.68,12.05c-1.35,2.52-3.2,5.02-6.06,5.8c-2.03,0.55-4.36,0.17-6.53-0.02
			c-3.7-0.32-7.37-0.99-11.07-1.15c-2.16-0.09-4.52,0.22-5.98,2.19c-1.49,2.01-2.88,4.18-3,6.75c-0.08,1.62-0.42,3.47,1.23,4.72
			c1.8,1.36,3.55,2.8,5.38,4.13C325.85,112.45,331.6,114.11,337.67,115.88 M299.24,49.07c-0.28-0.07-0.57-0.23-0.83-0.18
			c-1.13,0.23-2.97,0.25-3.21,0.87c-0.44,1.16-0.2,2.75,0.19,4.03c0.5,1.66,1.97,0.78,3.07,0.71c2.85-0.18,2.85-0.19,3.16-2.95
			C301.78,50.23,300.93,49.21,299.24,49.07 M338.64,155.8c-0.55-0.13-1.1-0.29-1.66-0.39c-0.17-0.03-0.39,0.05-0.55,0.15
			c-0.04,0.02,0,0.33,0.09,0.42c0.64,0.63,1.27,1.28,1.98,1.83c0.14,0.11,0.73-0.1,0.88-0.32c0.22-0.34,0.24-0.81,0.34-1.23
			c0.38,0.28,0.84,0.5,1.13,0.86c0.94,1.17,1.77,1.26,2.94,0.36c0.34-0.26,1.11-0.53,1.26-0.38c1.36,1.35,1.82-0.54,2.73-0.72
			c0.08-0.02,0.19-0.58,0.07-0.75c-0.11-0.17-0.49-0.23-0.74-0.21c-0.89,0.09-1.77,0.32-2.66,0.33
			C342.58,155.79,340.71,155.71,338.64,155.8 M277.84,118.58c1.19,0.98,1.55-0.38,1.9-0.87c0.65-0.9,0.33-1.97-0.47-2.7
			c-0.22-0.2-1.19-0.05-1.25,0.12C277.69,116.17,276.66,117.2,277.84,118.58 M334.24,155.1c-1.2-0.29-2.4-0.59-3.61-0.85
			c-0.19-0.04-0.42,0.15-0.63,0.23c0.13,0.13,0.26,0.27,0.39,0.4c0.55,0.57,1.02,1.25,1.67,1.68c0.69,0.46,1.54,0.68,2.33,1
			c0.06-0.55,0.15-1.1,0.18-1.66C334.57,155.71,334.44,155.5,334.24,155.1 M283.65,124.36c-0.22,0.26-0.61,0.52-0.62,0.79
			c-0.1,1.96,1.53,2.78,2.68,3.9c0.26,0.25,0.7,0.32,1.06,0.48c-0.1-0.35-0.14-0.73-0.32-1.03
			C285.66,127.13,284.81,125.79,283.65,124.36 M286.95,131.12c-0.96-0.36-1.57,0.19-1.4,0.99c0.16,0.77,0.83,1.46,1.35,2.12
			c0.05,0.07,0.94-0.29,0.95-0.48C287.91,132.87,289.18,131.64,286.95,131.12 M282.85,122.59c-0.32-0.64-0.62-1.28-0.95-1.91
			c-0.19-0.37-0.43-0.72-0.65-1.08c-0.26,0.39-0.73,0.78-0.73,1.18c0,0.66,0.16,1.4,0.49,1.96
			C281.45,123.51,282.66,123.47,282.85,122.59 M399.37,114.87c0.08-0.07,0.15-0.15,0.23-0.22c-0.57-0.28-1.47-0.93-1.66-0.77
			c-0.52,0.44-0.82,1.21-1.03,1.9c-0.12,0.4,0.12,0.9,0.19,1.36c0.21-0.17,0.43-0.31,0.61-0.5
			C398.21,116.09,398.69,115.54,399.37,114.87 M292.86,137.98c-0.37,1.6,1.17,1.84,1.92,2.62c0.17,0.18,0.59,0.13,0.89,0.18
			c-0.02-0.36,0.11-0.89-0.08-1.06C294.8,139.05,293.91,138.47,292.86,137.98 M306.78,147.29c0.38,0.77,0.72,1.57,1.16,2.31
			c0.14,0.23,0.53,0.3,0.81,0.44c0.11-0.24,0.27-0.46,0.34-0.71C309.58,147.47,308.14,147.46,306.78,147.29 M312.73,149.59
			c-0.49-0.08-0.98-0.15-1.47-0.23c0.33,0.39,0.66,0.78,0.99,1.16c0.03,0.03,0.11,0.02,0.16,0.04c0.7,0.26,1.39,0.52,2.1,0.74
			c0.01,0,0.26-0.53,0.21-0.56C314.19,150.37,313.62,150.03,312.73,149.59 M304.45,145.33c-0.66-0.16-1.32-0.32-1.99-0.48
			c0.35,0.57,0.68,1.15,1.05,1.71c0.08,0.11,0.26,0.2,0.41,0.22c0.41,0.04,0.82,0.04,1.22,0.05
			C304.95,146.39,304.76,145.96,304.45,145.33 M328.15,154.87c-0.54-0.41-1.02-0.95-1.63-1.2c-0.43-0.18-1.02,0.01-1.54,0.03
			c0.28,0.26,0.52,0.6,0.85,0.77C326.53,154.83,326.89,156.3,328.15,154.87 M273.95,97.45c0.32,0.43,0.64,0.86,0.96,1.28
			c0.09-0.44,0.22-0.87,0.27-1.31c0.03-0.3-0.05-0.62-0.11-0.93c-0.06-0.32-0.14-0.63-0.21-0.94c-0.27,0.23-0.6,0.43-0.78,0.71
			C273.91,96.54,273.9,96.92,273.95,97.45 M405.89,125.03c-0.3-0.36-0.59-0.73-0.89-1.09c-0.44,0.5-0.91,0.97-1.28,1.51
			c-0.07,0.1,0.3,0.5,0.47,0.75c0.42-0.28,0.85-0.55,1.27-0.83C405.54,125.32,405.61,125.23,405.89,125.03 M275.73,101.74
			c-0.27-0.08-0.55-0.17-0.82-0.25c0.01,0.89,0.01,1.79,0.07,2.68c0.01,0.1,0.33,0.18,0.51,0.27c0.11-0.78,0.22-1.55,0.33-2.33
			C275.83,102.06,275.84,102,275.73,101.74 M406.78,126.47c-0.49,0.34-0.99,0.68-1.46,1.04c-0.03,0.03,0.11,0.38,0.14,0.38
			c0.67-0.12,1.42-0.13,1.98-0.45C408.56,126.81,407.65,126.7,406.78,126.47 M283.18,71.39c-0.07-0.08-0.18-0.23-0.21-0.22
			c-0.82,0.35-1.64,0.72-2.45,1.09c0.09,0.16,0.23,0.47,0.25,0.46C281.55,72.41,282.32,72.06,283.18,71.39 M285.56,68.8
			c0.3-0.29,0.59-0.57,0.89-0.86c-0.48,0.02-0.99-0.06-1.42,0.09c-0.44,0.14-0.83,0.49-1.21,0.79c-0.04,0.03,0.15,0.48,0.19,0.47
			C284.46,69.19,284.9,69.05,285.56,68.8 M291.16,57.15c0.27,0.47,0.54,0.95,0.8,1.42c0.23-0.58,0.45-1.16,0.68-1.74
			C292.17,56.82,291.71,56.82,291.16,57.15 M413.87,132.04c0.11,0.61,0.21,1.22,0.32,1.83c0.24-0.34,0.55-0.66,0.71-1.04
			C415.24,132.02,414.95,131.69,413.87,132.04 M415.32,136.25c0.35-0.35,0.7-0.71,1.05-1.06c-0.45,0.04-0.91,0.03-1.34,0.13
			c-0.26,0.06-0.53,0.24-0.71,0.44c-0.11,0.11-0.06,0.37-0.08,0.57C414.49,136.27,414.74,136.22,415.32,136.25 M318.3,151.28
			c-0.27-0.07-0.54-0.16-0.82-0.19c-0.24-0.02-0.49,0.04-0.73,0.06c0.18,0.2,0.34,0.41,0.55,0.58c0.24,0.2,0.48,0.45,0.76,0.52
			c0.39,0.1,0.81,0.05,1.22,0.07C319.06,152,318.84,151.68,318.3,151.28 M386.9,106.08c0.35,0.35,0.65,0.85,1.07,0.99
			c0.21,0.07,0.64-0.48,0.98-0.75c-0.47-0.2-0.93-0.43-1.42-0.6C387.43,105.69,387.25,105.87,386.9,106.08 M397.53,112.32
			c0.19-0.46,0.38-0.92,0.57-1.38c-0.37-0.09-0.74-0.17-1.12-0.26C397.12,111.15,397.26,111.63,397.53,112.32 M277.57,77.95
			c0.38-0.36,0.77-0.71,1.12-1.1c0.03-0.04-0.17-0.3-0.27-0.45c-0.31,0.39-0.63,0.79-0.93,1.18
			C277.45,77.62,277.46,77.69,277.57,77.95 M277.13,109.1c-0.21,0.42-0.46,0.83-0.61,1.28c-0.02,0.07,0.38,0.29,0.58,0.44
			C277.15,110.31,277.2,109.81,277.13,109.1z"/>
		<path d="M302.97,162.09c0.21,0.21,0.33,0.48,0.42,0.75c0.01,0.03-0.18,0.11-0.28,0.17C303.03,162.73,302.95,162.45,302.97,162.09z
			"/>
		<path d="M433.89,147.81c1.95-1.6,3.78,0.07,4.24,2.5c0.09,0.49,0.36,1.26,0.67,1.33c0.49,0.1,1.22-0.14,1.6-0.49
			c1.7-1.59,3.72-1.31,5.74-1.18c0.59,0.04,1.18,0.08,1.77,0.07c2.02-0.06,2.58-1.06,1.61-2.83c-0.18-0.33-0.27-0.72-0.4-1.08
			c0.46-0.13,0.92-0.35,1.38-0.36c1.65-0.03,2.76,0.71,3.53,2.24c0.38,0.75,1.29,1.23,1.92,1.87c0.27,0.27,0.44,0.65,0.65,0.98
			c-0.4,0.09-0.9,0.38-1.2,0.24c-1.19-0.56-2.16-0.92-2.29,0.98c-0.01,0.16-0.57,0.44-0.79,0.38s-0.44-0.49-0.46-0.77
			c-0.02-0.3,0.25-0.6,0.3-0.92c0.11-0.69,0.16-1.4,0.23-2.09c-0.51,0.39-1.03,0.77-1.52,1.18c-0.16,0.13-0.2,0.42-0.36,0.5
			c-0.68,0.36-1.38,0.67-2.07,1c0.62,0.27,1.36,0.41,1.83,0.84c1.2,1.1,0.02,2.12-0.53,2.8c-0.83,1.04-1.99,1.92-3.18,2.54
			c-1.56,0.82-2.85-0.12-3.86-2.49c-0.97-2.29-0.95-2.22-3.42-1.54c-0.75,0.21-1.65-0.05-2.47-0.18c-0.73-0.11-1.43-0.38-2.16-0.49
			c-0.86-0.13-1.73-0.16-2.59-0.23c0.28,0.72,0.64,1.43,0.81,2.17c0.11,0.5,0.09,1.13-0.11,1.6c-0.76,1.77-1.7,3.47-2.39,5.26
			c-0.15,0.38,0.44,1.05,0.71,1.57c0.16,0.31,0.37,0.6,0.55,0.9c-0.39,0.12-0.83,0.43-1.15,0.33c-1.14-0.35-1.36,0.09-1.35,1.14
			c0,0.39-0.48,0.79-0.74,1.18c-0.18-0.49-0.65-1.09-0.5-1.45c0.62-1.59,0.31-2.84-0.87-4.03c-0.39-0.39-0.66-1.06-0.7-1.62
			c-0.04-0.5,0.3-1.03,0.47-1.55c0.26,0.35,0.54,0.69,0.76,1.06c0.25,0.43,0.36,0.96,0.68,1.31c0.27,0.29,0.74,0.42,1.15,0.52
			c0.06,0.01,0.31-0.52,0.38-0.82c0.43-1.71,0.83-3.43,1.24-5.15c0.05-0.22,0.23-0.52,0.14-0.65c-1.22-1.9-0.2-3.41,0.86-4.87
			C432.48,148.87,433.19,148.41,433.89,147.81 M443.76,151.67c-0.62,1.7,0.53,4.29,2.06,4.08c1.43-0.19,2.74-1.26,4.1-1.94
			c-0.17-0.2-0.31-0.52-0.52-0.59C447.6,152.63,446,151.39,443.76,151.67 M432.9,150.12c0.84,0.38,1.67,0.78,2.53,1.11
			c0.2,0.08,0.51-0.14,0.77-0.22c-0.12-0.24-0.21-0.49-0.35-0.71C435.08,149.09,434.09,149.07,432.9,150.12z"/>
		<path d="M464.62,154.03c1.42,0.16,2.66,0.32,3.71-0.69c0.21-0.2,0.66-0.14,0.99-0.19c-0.03,0.43,0.1,0.97-0.11,1.29
			c-0.84,1.3-3.47,1.99-4.83,1.26c-1.37-0.74-2.51-1.34-4.11-0.12c-0.93,0.71-2.55,0.44-3.81,0.79c-1.49,0.41-2.91,1.05-4.4,1.5
			c-0.36,0.11-0.84-0.16-1.26-0.26c0.19-0.33,0.31-0.82,0.59-0.95c1.02-0.46,2.07-0.9,3.16-1.16c2.82-0.65,2.93-1.23,3.1-4.24
			c0.08-1.36-0.03-2.76-0.25-4.1c-0.26-1.58,0.4-2.65,1.72-3.16c1.4-0.54,2.46,0.15,3.25,1.43c0.43,0.7,1.24,1.17,1.76,1.83
			c0.31,0.4,0.4,0.97,0.59,1.47c-0.57-0.11-1.24-0.08-1.69-0.38c-0.52-0.35-0.77-1.08-1.27-1.47c-0.58-0.45-1.3-0.93-1.98-0.96
			c-0.54-0.02-1.17,0.34-1,1.43c0.28,1.82,0.1,3.71,0.15,5.56c0.01,0.41,0.17,0.81,0.26,1.22c0.28-0.18,0.57-0.35,0.84-0.55
			C461.2,152.72,462.86,152.87,464.62,154.03z"/>
		<path d="M474.57,169.32c0.88-2.27,1.93-4.14,4.75-3.75c0.34,0.05,0.66,0.27,0.99,0.42c-0.21,0.35-0.34,0.85-0.65,1.01
			c-0.5,0.26-1.2,0.16-1.65,0.46c-0.48,0.32-0.89,0.87-1.12,1.41c-1.08,2.62-2.39,5.04-4.92,6.58c-0.95,0.57-1.76,0.9-1.66,2.55
			c0.09,1.58-1.08,3.25-1.74,4.86c-0.07,0.17-0.43,0.23-0.65,0.34c-0.16-0.45-0.53-0.95-0.44-1.35c0.21-0.95,0.46-1.99,1.02-2.75
			c0.82-1.11,0.46-1.99-0.09-2.95c-0.25-0.45-0.54-0.87-0.8-1.31c-0.89-1.55-0.67-2.43,0.78-3.43
			C470.23,170.14,472.23,169.44,474.57,169.32 M473.62,172.17c1.01-0.6,0.39-1.04-0.24-0.89c-1.41,0.34-2.78,0.87-4.09,1.49
			c-0.36,0.17-0.76,1.12-0.6,1.39c0.44,0.73,1.15,1.09,2.03,0.37C471.62,173.8,472.6,173.17,473.62,172.17z"/>
		<path d="M441.29,173.73c-0.22,0.53-0.4,0.9-0.58,1.27c-0.35-0.59-1.1-1.28-0.99-1.75c0.46-1.87,0.32-4.04,2.35-5.28
			c0.84-0.51,0.66-2.25-0.24-2.49c-1.37-0.37-2.82-0.49-4.24-0.65c-0.22-0.03-0.5,0.42-0.72,0.39c-0.58-0.06-0.18,1.78-1.07,0.61
			c-0.51-0.66-0.87-1.8,0.33-2.37c0.65-0.3,1.45-0.54,2.14-0.46c1.52,0.18,3.01,0.58,4.51,0.91c0.19,0.04,0.43,0.21,0.49,0.38
			c0.54,1.5,1.41,2.55,3.15,2.62c0.19,0.01,0.36,0.48,0.53,0.74c-0.45,0.24-0.88,0.53-1.36,0.72c-0.27,0.1-0.61,0.03-0.91,0.04
			c0.28,0.24,0.53,0.57,0.85,0.69c0.58,0.22,1.25,0.23,1.8,0.49c0.31,0.14,0.46,0.61,0.68,0.94c-0.37,0.23-0.82,0.72-1.09,0.64
			c-0.95-0.32-2.07-0.62-2.7-1.32c-0.86-0.94-1.67-0.47-1.92,0.06C441.78,171.04,441.63,172.34,441.29,173.73z"/>
		<path d="M480.2,171.11c1.46-2.57,3.33-4.9,1.26-7.85c-0.33-0.47-0.82-0.84-1.2-1.28c-0.29-0.32-0.52-0.69-0.78-1.04
			c0.62-0.08,1.55-0.45,1.8-0.19c1.28,1.32,2.68,2.68,3.42,4.31c0.4,0.87-0.23,2.41-0.77,3.45c-0.94,1.81-2.11,3.52-3.33,5.16
			c-0.62,0.84-0.55,1.16,0.38,1.52c0.24,0.09,0.32,0.6,0.47,0.92c-0.35,0.1-0.9,0.4-1.02,0.28c-1.61-1.62-2.36,0.33-3.43,0.81
			c-0.47,0.21-0.8,0.74-1.27,1c-0.25,0.14-0.64,0.01-0.97,0c0.06-0.39-0.02-0.93,0.2-1.15c0.86-0.82,1.93-1.44,2.72-2.32
			C478.62,173.68,479.34,172.44,480.2,171.11z"/>
		<path d="M486.88,136.98c-0.48-0.69-0.49-1.94-1.67-1.35c-1.05,0.53-0.63,1.35-0.15,2.12c0.28,0.45,0.6,0.99,0.6,1.49
			c0.01,0.58-0.31,1.17-0.49,1.75c-0.22-0.46-0.39-0.96-0.67-1.38c-0.91-1.34-1.88-2.84-1.27-4.4c0.79-1.99,2.31-3.65,2.78-5.84
			c0.07-0.35,0.84-0.54,1.29-0.81c0.19,0.54,0.71,1.32,0.51,1.59c-1.72,2.4,0.05,4.51,0.37,6.75c0.17,1.2,0.04,2.45-0.02,3.67
			c-0.01,0.25-0.3,0.49-0.46,0.74c-0.19-0.25-0.51-0.48-0.54-0.75C487.06,139.4,487.02,138.24,486.88,136.98z"/>
		<path d="M461.06,164.86c-1.44,0.98-2.75,1.93-4.12,2.77c-0.34,0.21-1.04,0.26-1.31,0.05c-0.61-0.47-0.49-0.94,0.25-1.38
			c2.83-1.67,5.59-3.46,8.45-5.08c0.37-0.21,1.15,0.32,1.74,0.47c1.61,0.41,3.22,0.81,4.83,1.21c0.34,0.08,0.69,0.12,1.03,0.19
			c-0.3,0.43-0.54,1.19-0.89,1.25c-1.25,0.18-2.77,0.57-3.76,0.06c-2.1-1.09-3.85-1.17-5.65,0.38
			C461.54,164.86,461.32,164.79,461.06,164.86z"/>
		<path d="M485.07,154.81c-0.25,0.67-0.42,1.54-0.9,1.77c-3.23,1.53-6.5,2.97-9.81,4.31c-0.44,0.18-1.16-0.34-1.76-0.53
			c0.46-0.29,0.9-0.66,1.4-0.87c2.87-1.23,5.77-2.4,8.64-3.62C483.45,155.52,484.22,155.09,485.07,154.81z"/>
		<path d="M490.62,154.38c0.54,0.32,0.97,0.7,1.41,1.08c-0.45,0.32-0.89,0.66-1.36,0.95c-1.1,0.67-2.2,1.33-3.33,1.95
			c-0.31,0.17-0.7,0.2-1.05,0.29c0-0.42-0.17-1.08,0.04-1.24C487.68,156.36,489.11,155.42,490.62,154.38z"/>
		<path d="M484.88,150.11c-0.37,1.03-0.65,1.91-1.04,2.74c-0.13,0.29-0.52,0.46-0.8,0.68c-0.17-0.31-0.46-0.6-0.49-0.92
			c-0.19-1.92,0.94-3.24,2.17-4.49c0.19-0.19,0.65-0.11,0.98-0.16c-0.06,0.35-0.07,0.72-0.19,1.04
			C485.36,149.34,485.12,149.63,484.88,150.11z"/>
		<path d="M440.5,154.66c0.12,0.2,0.26,0.33,0.23,0.39c-0.56,1.34-2.02,2.3-1.65,4.02c-0.27-0.07-0.76-0.09-0.78-0.21
			c-0.25-1.23-0.48-2.48-0.56-3.73c-0.01-0.16,0.81-0.45,1.27-0.54C439.47,154.49,439.96,154.56,440.5,154.66z"/>
		<path d="M464.58,143.57c-0.06,0.46-0.19,0.83-0.32,1.19c-0.22-0.3-0.49-0.58-0.63-0.92c-0.13-0.33-0.19-0.73-0.16-1.08
			c0.04-0.47,0.2-0.92,0.31-1.39c0.15,0.4,0.31,0.79,0.45,1.19C464.34,142.86,464.43,143.17,464.58,143.57z"/>
		<path d="M435.91,158.04c-0.21,0.37-0.38,0.57-0.53,0.78c-0.25,0.34-0.48,0.69-0.72,1.03c0-0.58-0.14-1.22,0.06-1.73
			C434.84,157.82,435.29,156.59,435.91,158.04z"/>
		<path d="M516.17,173.41c-0.44,0.44-0.83,0.72-1.23,1c-0.11-0.62-0.41-1.28-0.29-1.85c0.61-2.9,1.5-5.75,1.18-8.79
			c-0.03-0.33,0.63-0.72,0.97-1.09c0.31,0.42,0.89,0.84,0.88,1.25c-0.01,1.51-0.11,3.03-0.36,4.51
			C517.07,170.06,516.59,171.65,516.17,173.41z"/>
		<path d="M554.52,198.06c-0.68-0.41-1.24-0.73-1.68-1.17c-0.25-0.25-0.3-0.71-0.44-1.07c0.4-0.14,0.84-0.47,1.2-0.4
			c1.56,0.3,3.11,0.68,4.64,1.11c0.27,0.08,0.67,0.6,0.61,0.8c-0.1,0.34-0.5,0.82-0.8,0.84
			C556.93,198.23,555.81,198.13,554.52,198.06z"/>
		<path d="M554.49,167.76c-0.46-0.45-0.91-0.75-1.24-1.15c-0.13-0.15-0.08-0.64,0.07-0.78c0.22-0.2,0.65-0.37,0.9-0.29
			c0.49,0.16,0.88,0.62,1.37,0.76c0.87,0.26,1.3,0.75,0.83,1.55c-0.14,0.23-0.9,0.11-1.38,0.13
			C554.89,167.98,554.72,167.9,554.49,167.76z"/>
		<path d="M526.03,164.53c-1.03-0.36-1.95-0.59-2.72-1.05c-0.55-0.32-0.41-0.89,0.3-0.92c0.74-0.03,1.51,0.03,2.24,0.19
			c0.49,0.11,0.93,0.48,1.39,0.73C526.88,163.85,526.54,164.21,526.03,164.53z"/>
		<path d="M538.39,181.46c-1.13-0.07-2.16-0.14-3.17-0.36c-0.27-0.06-0.46-0.51-0.68-0.79c0.25-0.19,0.51-0.56,0.74-0.54
			c1.08,0.07,2.17,0.23,3.23,0.45C538.58,180.24,538.5,180.99,538.39,181.46z"/>
		<path d="M505.78,161.09c-0.97,0.23-1.91,0.38-2.84,0.33c-0.32-0.02-0.61-0.5-0.92-0.77c0.28-0.25,0.55-0.7,0.83-0.71
			C503.93,159.94,505.29,159.22,505.78,161.09z"/>
		<path d="M561.46,181.19c0.5-0.19,0.89-0.32,1.29-0.44c0.07,0.89,0.18,1.79,0.16,2.68c0,0.23-0.42,0.45-0.65,0.67
			c-0.32-0.36-0.8-0.68-0.92-1.09C561.19,182.46,561.34,181.84,561.46,181.19z"/>
		<path d="M557.1,205.96c-0.36-0.44-0.91-1.32-0.83-1.39c0.68-0.54,1.48-0.92,2.24-1.35c0.07,0.49,0.35,1.11,0.15,1.43
			C558.35,205.17,557.71,205.49,557.1,205.96z"/>
		<path d="M493.76,183.76c0.83-0.41,1.72-0.78,2.64-1c0.22-0.05,0.55,0.42,0.83,0.65c-0.2,0.23-0.36,0.62-0.59,0.67
			C495.7,184.28,494.63,185.51,493.76,183.76z"/>
		<path d="M560.8,172.96c0.26,0.27,0.58,0.41,0.64,0.62c0.2,0.8,0.32,1.63,0.47,2.45c-0.24,0.03-0.64,0.17-0.69,0.09
			c-0.51-0.81-1-1.65-1.39-2.52C559.79,173.49,560.42,173.1,560.8,172.96z"/>
		<path d="M531.67,163.34c0.21-0.33,0.47-0.74,0.76-0.75c0.84-0.04,1.69,0.07,2.54,0.13c-0.05,0.27-0.05,0.76-0.15,0.78
			C533.79,163.69,532.73,164.68,531.67,163.34z"/>
		<path d="M563.53,195.65c-0.26,0.39-0.47,0.62-0.69,0.85c-0.21-0.31-0.67-0.73-0.59-0.9c0.34-0.73,0.8-1.41,1.3-2.04
			c0.1-0.12,0.58,0.07,0.89,0.12C564.15,194.28,563.86,194.88,563.53,195.65z"/>
		<path d="M501.87,182.89c-0.16,0.05-0.22,0.04-0.27,0.02c-0.57-0.23-1.13-0.46-1.7-0.69c0.28-0.3,0.54-0.84,0.84-0.86
			c0.63-0.04,1.29,0.18,1.93,0.29C502.44,182.05,502.21,182.44,501.87,182.89z"/>
		<path d="M522.38,179.38c-0.4,0.23-0.71,0.56-0.98,0.52c-0.68-0.09-1.33-0.34-2-0.52c0.3-0.33,0.68-0.99,0.9-0.94
			C521.06,178.6,522.44,177.44,522.38,179.38z"/>
		<path d="M550.4,209.36c0.38-0.56,0.65-1.09,1.08-1.31c0.29-0.15,0.87,0.01,1.18,0.24c0.13,0.1-0.05,1-0.18,1.02
			C551.79,209.44,551.24,211.62,550.4,209.36z"/>
		<path d="M539.17,222.91c-0.34-0.43-0.89-1.14-0.74-1.38c0.4-0.61,1.11-1,1.7-1.48c0.07,0.16,0.25,0.36,0.21,0.46
			C540.01,221.31,539.63,222.07,539.17,222.91z"/>
		<path d="M546.36,185.21c-0.53,0.34-1.06,0.72-1.49,0.63c-0.35-0.07-0.74-0.68-0.8-1.1c-0.03-0.22,0.71-0.84,0.89-0.76
			C545.5,184.2,545.93,184.67,546.36,185.21z"/>
		<path d="M533.42,219.78c-0.83-0.91-0.19-1.37,0.45-1.49c0.45-0.09,1,0.32,1.5,0.5c-0.36,0.39-0.67,0.82-1.09,1.13
			C534.12,220.05,533.75,219.9,533.42,219.78z"/>
		<path d="M514.41,179.31c-0.54,1.34-1.1,0.73-1.16,0.06c-0.05-0.53,0.47-1.15,0.82-1.67c0.12-0.17,0.5-0.17,0.76-0.24
			C514.7,178.02,514.57,178.58,514.41,179.31z"/>
		<path d="M538.23,215.84c-0.64-0.35-1.17-0.75-1.7-1.16c0.31-0.21,0.62-0.59,0.93-0.6C538.83,214.03,538.55,214.94,538.23,215.84z"
			/>
		<path d="M319.39,125.11c-0.53,1.12-0.91,2.19-1.41,3.21c-0.23,0.46-0.69,0.81-1.05,1.21c-0.09-0.5-0.36-1.07-0.22-1.5
			c0.57-1.76,1.17-3.53,1.95-5.2c0.62-1.33,1.42-2.6,2.31-3.77c0.67-0.88,1.54-1.65,2.44-2.3c0.32-0.24,0.99,0,1.5,0.02
			c-0.22,0.46-0.32,1.14-0.69,1.36C321.54,119.71,320.65,122.46,319.39,125.11z"/>
		<path d="M289.93,90.48c-2.8,1.43-5.48,2.83-8.2,4.15c-0.54,0.26-1.23,0.3-1.85,0.29c-0.49,0-0.98-0.23-1.47-0.36
			c0.42-0.57,0.93-1.68,1.23-1.63c3.5,0.62,5.75-2.04,8.59-3.12c0.36-0.14,0.66-0.46,1.02-0.6c0.68-0.27,1.32-1.42,2.05-0.26
			C291.4,89.11,290.48,89.91,289.93,90.48z"/>
		<path d="M311.72,139.87c0.34-1.44,0.58-2.73,0.99-3.96c0.15-0.45,0.72-0.76,1.09-1.14c0.07,0.46,0.27,0.93,0.19,1.36
			c-0.22,1.23-0.54,2.44-0.86,3.65c-0.12,0.47-0.34,0.91-0.51,1.37C312.32,140.77,312,140.4,311.72,139.87z"/>
		<path d="M319.87,145.07c0.57,0.83,1.08,1.55,1.6,2.28c-0.77-0.15-1.55-0.38-2.33-0.41c-1.19-0.05-2.11-1.22-1.9-1.68
			C317.67,144.34,318.85,144.38,319.87,145.07z"/>
		<path d="M280.21,85.25c0.27-1.07,0.28-2.13,1.44-2.41c0.22-0.05,0.77,0.35,0.75,0.42c-0.39,1.37-0.84,2.72-1.31,4.07
			c-0.02,0.05-0.59,0.01-0.6-0.06C280.34,86.66,280.26,86.04,280.21,85.25z"/>
		<path d="M338.95,121.9c0.47-0.1,0.88-0.04,1.19-0.18c1.17-0.55,1.59,0.25,2.03,1.06c-0.68,0.32-1.41,0.96-2.03,0.87
			s-1.14-0.9-1.7-1.4C338.57,122.14,338.71,122.05,338.95,121.9z"/>
		<path d="M284.09,78.19c0.39-0.22,0.67-0.37,0.96-0.52c0.08,0.36,0.25,0.73,0.21,1.08c-0.09,0.67-0.25,1.35-0.48,1.98
			c-0.12,0.33-0.45,0.57-0.68,0.86c-0.18-0.27-0.53-0.56-0.52-0.82C283.65,79.93,283.84,79.1,284.09,78.19z"/>
		<path d="M297.91,97.49c1-0.38,2.84,0.44,2.85,1.27c0,0.34-0.59,0.69-0.91,1.04C299.17,99.05,298.49,98.3,297.91,97.49z"/>
		<path d="M327.8,148.99c-0.35-0.53-1.31-1.15-0.1-1.46c0.69-0.17,1.48,0,2.21,0.1c0.06,0.01,0.12,0.95,0.03,0.98
			C329.31,148.83,328.63,148.91,327.8,148.99z"/>
		<path d="M293.34,87.96c0.15,0.25,0.3,0.38,0.32,0.54c0.1,0.69,0.17,1.39,0.25,2.09c-0.35-0.21-0.82-0.33-1.02-0.63
			c-0.49-0.74-1.34-1.5-0.36-2.45C292.6,87.44,293.02,87.73,293.34,87.96z"/>
		<path d="M332.32,118.03c0.58,0.37,1.07,0.8,1.55,1.24c-0.64,0.17-1.29,0.49-1.92,0.46c-0.35-0.02-0.67-0.62-1.01-0.95
			C331.36,118.54,331.79,118.31,332.32,118.03z"/>
		<path d="M293.05,128.37c0.56,0.6,0.95,1.17,1.34,1.73c-0.26,0.17-0.67,0.54-0.76,0.48c-0.59-0.43-1.15-0.93-1.65-1.46
			c-0.14-0.15-0.07-0.49-0.09-0.74C292.22,128.36,292.56,128.35,293.05,128.37z"/>
		<path d="M337.5,151.4c-0.78-0.12-1.47-0.28-2.13-0.51c-0.09-0.03-0.1-0.65-0.04-0.67c0.55-0.18,1.22-0.53,1.65-0.35
			C337.33,150.02,337.4,150.82,337.5,151.4z"/>
		<path d="M309.19,143.12c-0.57,0.22-1.14,0.4-1.64,0.28c-0.39-0.09-0.7-0.54-1.04-0.84c0.23-0.21,0.45-0.58,0.71-0.61
			c0.4-0.05,0.86,0.05,1.23,0.23C308.76,142.34,308.97,142.7,309.19,143.12z"/>
		<path d="M298.49,59.17c0.53-0.14,0.95-0.22,1.38-0.3c-0.22,0.44-0.38,0.93-0.67,1.31c-0.28,0.36-0.72,0.6-1.09,0.9
			C298.2,60.46,298.29,59.85,298.49,59.17z"/>
		<path d="M321.7,115.48c-0.4-0.41-0.7-0.89-0.99-1.36c0.39-0.21,0.79-0.59,1.16-0.56c0.34,0.02,0.76,0.43,0.94,0.78
			C323.42,115.51,322.23,115.13,321.7,115.48z"/>
		<path d="M280.43,107.78c0.31-0.39,0.65-0.86,0.85-0.8c0.77,0.2,0.98,1.99,0.31,2.47c-0.12,0.09-0.56-0.03-0.65-0.18
			C280.7,108.86,280.57,108.39,280.43,107.78z"/>
		<path d="M316.33,109.28c0.09,0.47,0.11,0.83,0.13,1.19c-0.6-0.08-1.22-0.12-1.8-0.27c-0.13-0.03-0.15-0.47-0.22-0.72
			C315.05,109.38,315.66,109.28,316.33,109.28z"/>
		<path d="M286.72,122.2c0.88-0.33,2.1,0.49,1.87,1.18c-0.08,0.24-0.88,0.52-0.96,0.43C287.22,123.36,286.94,122.79,286.72,122.2z"
			/>
		<path d="M289.41,70.69c0.47,0.07,0.83,0.2,1.2,0.34c-0.24,0.45-0.47,0.9-0.71,1.35c-0.38-0.22-0.82-0.39-1.1-0.7
			C288.72,71.58,289.12,71.07,289.41,70.69z"/>
		<path d="M343.13,151.35c0.61,0.14,1.13,0.31,1.6,0.58c0.09,0.05-0.01,0.71-0.11,0.73c-0.39,0.1-0.98,0.22-1.19,0.02
			C343.14,152.41,343.14,151.85,343.13,151.35z"/>
		<path d="M299.48,135.62c0.38,0.08,0.83,0.17,0.9,0.38c0.18,0.53,0.19,1.11,0.28,1.67c-0.25-0.06-0.58-0.04-0.72-0.19
			C299.5,136.98,298.24,136.68,299.48,135.62z"/>
		<path d="M284.31,116.88c0.22,0.13,0.45,0.33,0.44,0.52c-0.03,0.46-0.18,0.92-0.28,1.37c-0.23-0.23-0.47-0.46-0.7-0.69
			C283.08,117.38,283.79,117.22,284.31,116.88z"/>
		<path d="M295.13,69.86c-0.26,0.52-0.48,0.88-0.7,1.24c-0.15-0.26-0.49-0.68-0.42-0.77c0.33-0.42,0.77-0.74,1.17-1.1
			C295.17,69.39,295.17,69.54,295.13,69.86z"/>
		<path d="M291.91,68.3c-0.28-0.3-0.45-0.67-0.63-1.03c0.25-0.09,0.5-0.17,0.75-0.26C292.03,67.42,292.02,67.83,291.91,68.3z"/>
		<path d="M292.27,79.98c-0.31-0.19-0.51-0.44-0.71-0.7c0.25-0.09,0.5-0.17,0.75-0.26C292.34,79.32,292.36,79.62,292.27,79.98z"/>
		<path d="M378.04,110.81c-1.26-0.51-1.79-0.32-2.05,1.02c-0.35,1.81-1.3,3.52-1.52,5.34c-0.35,2.92-0.27,5.89-0.45,8.83
			c-0.03,0.55-0.41,1.07-0.63,1.61c-0.23-0.61-0.7-1.24-0.65-1.83c0.17-2.13,0.62-4.24,0.73-6.37c0.06-1.12-0.27-2.31-0.63-3.4
			c-0.52-1.61-1.97-2.08-3.81-1.54c-0.33,0.1-0.72-0.01-1.08-0.02c0.13-0.41,0.13-0.99,0.41-1.2c1.26-0.97,3.65-1.46,4.9,0.6
			c0.13,0.21,0.39,0.35,0.59,0.52c0.12-0.24,0.27-0.47,0.34-0.72c0.2-0.73,0.39-1.47,0.53-2.22c0.06-0.34,0.01-0.71,0.01-1.07
			c-0.29,0.11-0.61,0.18-0.87,0.33c-1.01,0.6-1.93,1.18-3.1,0.16c-0.7-0.61-1.74-0.82-2.5-1.38c-0.49-0.36-1.15-1.23-1.01-1.55
			c0.26-0.6,0.99-1.13,1.64-1.38c0.82-0.31,1.77-0.24,2.62-0.49c0.68-0.2,1.45-0.5,1.9-1c1.26-1.41,2.67-2.51,4.57-2.84
			c0.84-0.15,1.52-0.09,1.52,1.08c0.01,2.79,1.44,4.96,3.52,6.53c2.12,1.59,2.13,3.34,1.25,5.76c-0.16,0.44-0.23,0.92-0.34,1.38
			c0.49-0.01,1.02,0.1,1.45-0.06c1.47-0.55,2.91-1.18,4.35-1.8c0.17-0.07,0.26-0.32,0.39-0.49c-0.23-0.12-0.45-0.32-0.7-0.35
			c-0.69-0.09-1.42-0.03-2.09-0.2c-0.41-0.11-0.74-0.54-1.1-0.82c0.44-0.28,0.92-0.86,1.3-0.79c1.22,0.21,2.55,0.41,3.56,1.06
			c2.55,1.62,2.7,3.89,0.65,6.32c-0.15,0.18-0.35,0.32-0.53,0.47c-0.25-0.41-0.66-0.79-0.72-1.23c-0.11-0.76,0.97-1.91-0.51-2.15
			c-0.68-0.11-1.47,0.63-2.24,0.82c-1.79,0.43-3.59,0.85-5.41,1.1c-1.03,0.14-1.31,0.33-0.72,1.29c0.96,1.55,2.27,2.57,4.03,3.06
			c1.71,0.48,3.51,0.82,5.06,1.64c0.97,0.52,1.59,1.76,2.25,2.76c0.13,0.2-0.23,1.04-0.48,1.1c-0.68,0.16-1.46,0.22-2.14,0.05
			c-3.62-0.91-5.68-4.16-8.71-6c-0.95-0.58-1.43-2.03-1.96-3.15c-0.12-0.25,0.34-0.91,0.68-1.23c1.48-1.4,2.89-2.84,3.02-5
			c0.03-0.45-0.4-0.94-0.61-1.41c-0.32,0.29-0.67,0.56-0.97,0.86c-0.22,0.22-0.39,0.49-0.58,0.74c-0.2-0.21-0.38-0.44-0.6-0.63
			C379.81,112.22,379.01,111.54,378.04,110.81 M378.2,105.75c-0.59-0.4-1.38-1.25-1.72-1.09c-0.77,0.34-1.32,1.18-1.97,1.82
			c0.5,0.34,1,0.68,1.49,1.03c0.13,0.09,0.22,0.24,0.35,0.32c0.45,0.26,0.91,0.51,1.36,0.76c0.08-0.61,0.15-1.23,0.24-1.84
			C378,106.52,378.07,106.31,378.2,105.75 M370.48,107.94c-0.41,0.06-0.83,0.13-1.24,0.19c0.3,0.26,0.57,0.64,0.92,0.76
			c0.86,0.28,1.75,0.49,2.64,0.63c0.22,0.03,0.66-0.27,0.71-0.49c0.06-0.22-0.18-0.72-0.38-0.77
			C372.33,108.04,371.5,107.95,370.48,107.94 M379.05,108.06c0.02,0.49-0.15,1.16,0.1,1.44c0.4,0.43,1.09,0.61,1.65,0.89
			c0.01-0.12,0.07-0.28,0.01-0.36C380.31,109.32,379.78,108.63,379.05,108.06 M390.96,126.55c-0.75-0.29-1.51-0.59-2.26-0.88
			c-0.01,0.12-0.06,0.34-0.03,0.35c0.7,0.29,1.41,0.57,2.12,0.83C390.86,126.87,390.98,126.79,390.96,126.55z"/>
		<path d="M365.53,142.14c-1.6,0.92-0.72,2.11-0.46,3.13c0.31,1.19,0.87,2.31,1.23,3.48c0.16,0.54,0.13,1.16,0.11,1.73
			c-0.01,0.22-0.25,0.43-0.38,0.64c-0.19-0.19-0.47-0.34-0.56-0.56c-0.66-1.65-1.29-3.31-1.93-4.96c-0.64-1.67-1.23-3.13-3.36-3.71
			c-1.78-0.48-2.48-2.39-3-4.16c-0.84-2.82-1.5-5.73-0.99-8.6c0.34-1.89,1.58-3.61,2.41-5.41c0.38-0.83,0.76-1.66,1.14-2.49
			c0.25-0.54,0.35-1.31,0.77-1.56c0.77-0.45,1.73-0.59,2.6-0.86c-0.08,0.76-0.07,1.55-0.26,2.28c-0.44,1.69-1.2,3.33-1.38,5.04
			c-0.09,0.87,0.79,1.85,1.25,2.77c0.24,0.49,0.52,0.96,0.78,1.44c-0.67-0.18-1.63-0.15-1.94-0.59c-0.72-1.01-1.12-2.24-1.66-3.38
			c-0.11-0.24-0.25-0.47-0.38-0.7c-0.19,0.11-0.51,0.18-0.57,0.34c-1.07,2.86-1.84,5.71-0.93,8.82c0.46,1.59,1.6,1.78,2.82,1.98
			c0.15,0.02,0.59-0.68,0.61-1.05c0.07-1.4-0.02-2.8,0.06-4.2c0.01-0.19,0.88-0.57,1.02-0.46c1.51,1.24,3.06,2.46,4.38,3.89
			c1.83,1.98,0.43,3.86-0.48,5.7C366.21,141.19,365.91,141.63,365.53,142.14 M364.94,139.1c-0.19-1.24-0.32-2.5-0.63-3.71
			c-0.09-0.33-0.76-0.51-1.16-0.76c-0.11,0.34-0.3,0.69-0.3,1.03c0.02,1.37,0.05,2.74,0.2,4.1c0.06,0.58,0.44,1.12,0.68,1.68
			c0.34-0.51,0.68-1,1-1.52C364.82,139.79,364.82,139.6,364.94,139.1 M359.69,139.77c0.37,0.29,0.71,0.62,1.11,0.85
			c0.25,0.14,0.59,0.14,0.89,0.2c-0.03-0.25-0.13-0.5-0.1-0.74c0.33-2.14-1.57-1.3-2.44-1.83c-0.16-0.1-0.41-0.02-0.62-0.03
			c0.09,0.18,0.15,0.39,0.28,0.55C359.03,139.05,359.31,139.3,359.69,139.77z"/>
		<path d="M392.11,124.28c-0.24-0.55-0.58-1.01-0.56-1.45c0.01-0.36,0.45-0.7,0.7-1.04c0.19,0.23,0.45,0.42,0.55,0.68
			c0.61,1.65,2.9,3.27,4.6,3c0.33-0.05,0.89,0.17,1.06,0.44c1.27,2.11,2.41,4.29,3.71,6.38c0.4,0.64,1.09,1.35,1.77,1.53
			c1.71,0.43,2.38,1.55,2.22,3.08c-0.12,1.12-0.67,2.2-1.11,3.26c-0.12,0.29-0.52,0.46-0.79,0.69c-0.14-0.46-0.3-0.91-0.4-1.37
			c-0.02-0.09,0.23-0.21,0.3-0.35c1.09-1.97,0.77-2.79-1.33-3.41c-0.22-0.06-0.59-0.05-0.64-0.17c-1.02-2.38-2.18-0.69-3.43-0.25
			c-0.88,0.31-1.95,0.23-2.89,0.08c-0.21-0.03-0.55-1.42-0.32-1.64c0.71-0.68,1.67-1.1,2.55-1.6c0.07-0.04,0.38,0.2,0.37,0.23
			c-0.1,0.3-0.24,0.59-0.4,0.85c-0.12,0.19-0.29,0.35-0.44,0.52c0.27,0.04,0.57,0.19,0.79,0.1c0.47-0.19,1.17-0.41,1.26-0.76
			c0.14-0.5-0.03-1.24-0.33-1.68c-0.77-1.12-1.69-2.12-2.55-3.18c-0.07-0.09-0.11-0.27-0.18-0.28
			C394.31,127.78,393.62,125.61,392.11,124.28z"/>
		<path d="M402.3,162.37c0.9-2.66,1.77-5.25,2.47-7.87c0.38-1.4-1.05-3.24-2.88-4.29c-0.54-0.31-0.85-1.02-1.27-1.54
			c0.74,0.02,1.63-0.21,2.21,0.11c3.12,1.72,4.09,4.24,3.23,7.8c-0.74,3.05-1.56,6.07-3.5,8.63c-0.25,0.32-0.69,0.5-1.05,0.74
			c-0.06-0.47-0.25-0.97-0.15-1.4C401.55,163.81,401.91,163.13,402.3,162.37z"/>
		<path d="M397.16,159.99c-1.27,1.48-2.47,2.83-3.74,4.1c-0.22,0.22-0.74,0.15-1.12,0.22c0.03-0.51-0.15-1.2,0.11-1.5
			c2.17-2.46,4.44-4.83,6.65-7.25c0.68-0.74,0.48-1.25-0.49-1.56c-0.77-0.24-1.55-0.53-2.26-0.92c-0.25-0.13-0.3-0.62-0.44-0.95
			c0.3-0.1,0.63-0.33,0.9-0.28c0.95,0.17,1.92,0.34,2.82,0.67c1.25,0.47,1.73,2.1,0.89,3.27
			C399.49,157.2,398.31,158.49,397.16,159.99z"/>
		<path d="M369.27,145.93c-0.16,0.66-0.25,1.17-0.41,1.66c-0.11,0.33-0.32,0.63-0.49,0.94c-0.16-0.41-0.53-0.86-0.45-1.22
			c0.41-2.02,0.99-4.01,1.39-6.04c0.49-2.49,0.88-5.02,0.02-7.49c-0.34-0.98-1.15-1.79-1.66-2.73c-0.22-0.4-0.2-0.93-0.29-1.4
			c0.46,0.12,1.01,0.12,1.37,0.37c2.5,1.73,2.64,4.49,2.54,7.05c-0.09,2.48-0.85,4.94-1.36,7.41
			C369.86,144.94,369.53,145.34,369.27,145.93z"/>
		<path d="M393.6,148.87c-0.12-0.2-0.25-0.31-0.23-0.39c0.22-0.86,0.46-1.72,0.69-2.57c0.21,0.81,0.49,1.61,0.61,2.44
			s0.24,1.26,1.22,0.74c0.31-0.16,0.89,0.21,1.35,0.34c-0.31,0.35-0.56,0.9-0.94,1.01c-1.86,0.55-2.95,1.72-3.34,3.61
			c-0.28,1.36-0.62,2.7-0.97,4.04c-0.09,0.33-0.33,0.61-0.5,0.91c-0.27-0.34-0.81-0.72-0.77-1.02c0.21-1.55,0.43-3.13,0.92-4.6
			C392.15,151.84,392.97,150.43,393.6,148.87z"/>
		<path d="M391.06,145.89c-0.29-0.27-0.66-0.68-0.75-1.15c-0.34-1.75-0.52-3.53-0.88-5.27c-0.48-2.33-2.13-3.6-4.21-4.49
			c-0.55-0.23-0.95-0.79-1.42-1.2c0.61-0.14,1.27-0.49,1.84-0.39c2.38,0.43,3.86,2.17,4.65,4.2
			C391.29,140.16,391.93,142.9,391.06,145.89z"/>
		<path d="M368.08,117.2c2.45-0.95,4.75,0.69,4.43,3.35c-0.2,1.68-0.75,3.31-1.16,4.97c-0.04,0.15-0.14,0.29-0.21,0.43
			c-0.13-0.15-0.36-0.3-0.37-0.46c-0.01-0.75,0.01-1.5,0.08-2.24c0.09-0.98,0.13-1.97,0.37-2.91c0.3-1.17-0.5-1.29-1.23-1.65
			C369.3,118.34,368.69,117.81,368.08,117.2z"/>
		<path d="M377.49,136.93c-0.25-1.02-0.54-1.94-0.59-2.87c-0.02-0.49,0.37-1.01,0.58-1.51c0.19,0.39,0.42,0.76,0.58,1.17
			c0.79,2.04,1.57,4.09,2.35,6.13c0.11,0.3,0.25,0.6,0.28,0.91c0.04,0.39-0.02,0.79-0.04,1.19c-0.35-0.21-0.85-0.33-1.02-0.64
			C378.89,139.9,378.24,138.46,377.49,136.93z"/>
	</g>
</g>
<g id="hand">
	<path class="st0" d="M99.14,688.53l13-152c0,0-10-10-15-17s-32-41-32-41s-6-21,0-29s11-18,11-18l4.69-32.94l27.31-18.06
		c0,0,17-7,20,4s11,0,11,0s7-5,18-2s8,9,8,9s13-18,17-13s11-5,12,6s3,3,3,3s28,6,25,8s8,14,5,20s1,28,1,28s-21,74-30,82s-5,26-5,26
		l-10,110L99.14,688.53z"/>
	<g id="Vorm_9_1_">
		<path class="st1" d="M69.31,472.09c1.72-4.22,3.29-8.33,5.22-12.26c1.47-3,3.37-5.79,5.12-8.65c1.91-3.12,4.06-6.12,5.74-9.37
			c0.83-1.6,0.95-3.6,1.21-5.45c0.46-3.29,0.79-6.6,1.18-9.91c0.51-4.28,1.03-8.55,1.54-12.83c0.02-0.13,0.01-0.26,0-0.38
			c-0.61-5.36,2.49-8.53,6.61-11.04c3.53-2.15,6.9-4.82,10.72-6.13c4.02-1.38,6.98-4.17,10.6-6.02c2.08-1.06,3.95-2.51,6.01-3.62
			c3.14-1.69,8.09-0.64,10.88,1.66c2.45,2.02,4.38,4.2,4.96,7.37c0.14,0.79,0.15,1.6,0.26,2.4c0.04,0.25,0.22,0.49,0.34,0.73
			c0.16-0.21,0.39-0.4,0.46-0.63c0.96-3.15,3.17-5.18,6.08-6.38c1.75-0.72,3.68-1.11,5.56-1.42c3.03-0.49,6.08-1.01,9.14-1.13
			c3.36-0.12,6.76-0.02,10.09,0.4c2.36,0.3,4.06,1.92,4.88,4.28c0.21,0.61,0.59,1.16,0.9,1.74c0.34-0.59,0.61-1.24,1.03-1.77
			c0.74-0.93,1.48-1.9,2.39-2.66c5.13-4.27,10.97-6.39,17.71-5.51c2.25,0.29,3.69,1.92,5.09,3.48c2.24,2.49,2.92,5.52,2.9,8.8
			c-0.04,4.77,0.08,9.54-0.04,14.3c-0.07,2.74-0.46,5.48-0.72,8.22c-0.38,3.9-0.65,7.82-1.2,11.7c-0.63,4.51-1.91,8.96-2.14,13.48
			c-0.16,3.13-1.59,5.68-2.24,8.54c-0.3,1.33-0.05,2.78-0.23,4.15c-0.31,2.42-0.74,4.81-1.14,7.22c-0.05,0.28-0.18,0.61-0.39,0.79
			c-0.65,0.58-1.34,1.11-2.02,1.66c0.01-0.8-0.04-1.61,0.03-2.41c0.12-1.54,0.56-3.1,0.42-4.61c-0.39-4.1,1.02-7.9,1.75-11.8
			c0.71-3.81,1.43-7.61,2.15-11.42c0.74-3.93,1.52-7.85,2.18-11.79c0.3-1.77,0.32-3.58,0.52-5.37c0.31-2.69,0.68-5.36,0.98-8.05
			c0.05-0.49-0.22-1.01-0.2-1.51c0.09-1.68,0.4-3.36,0.34-5.03c-0.15-3.62-0.02-7.33-0.84-10.81c-1.27-5.4-6.5-7.32-11.55-6.18
			c-5.32,1.2-9.62,4.02-12.55,8.49c-1.74,2.66-2.78,5.68-2.1,9.26c0.53,2.81-0.19,5.87-0.34,8.81c-0.09,1.77-0.2,3.55-0.24,5.32
			c-0.05,1.91-0.03,3.82-0.03,5.73c-0.01,2.11,0.3,4.29-0.07,6.33c-0.85,4.66-0.82,9.39-1.64,14.07c-0.9,5.09-3.06,10.01-2.54,15.35
			c0.36,3.74,1.9,7,6.02,7.93c0.38,0.09,1.06-0.15,1.26-0.46c0.35-0.52,0.55-1.22,0.59-1.85c0.19-2.76,1.2-5.48,0.58-8.28
			c-0.1-0.44-0.57-0.78-0.79-1.21c-0.22-0.42-0.6-1.09-0.44-1.29c0.38-0.49,1.05-1.12,1.57-1.09c1.63,0.09,3.25,0.45,4.88,0.71
			c1.56,0.25,3.12,0.68,4.68,0.74c4.19,0.14,4.59,0.39,3.94,4.38c-0.59,3.62-1.36,7.23-2.31,10.77c-0.86,3.18-1.72,6.42-4.38,8.77
			c-1.7,1.49-3.83,1.61-5.38-0.06c-1.96-2.12-3.78-4.34-3.71-7.52c0.01-0.42-0.64-1.09-1.11-1.26c-2.5-0.91-5.14-1.54-6.19-4.47
			c-0.09-0.26-0.63-0.57-0.88-0.52c-0.25,0.05-0.46,0.52-0.6,0.84c-0.41,0.92-0.73,1.88-1.18,2.78c-0.19,0.37-0.61,0.63-0.92,0.94
			c-0.33-0.44-0.92-0.87-0.93-1.32c-0.07-2.15-0.21-4.3,0.84-6.37c0.61-1.2,1.15-2.72,0.95-3.97c-0.39-2.56,1.38-4.38,1.72-6.66
			c0.49-3.29,1.64-6.53,1.75-9.81c0.22-6.36,1.8-12.59,1.34-19.02c-0.26-3.64,0.47-7.34,0.66-11.02c0.2-3.88,0.01-7.79,0.48-11.63
			c0.4-3.26-0.38-5.83-2.7-8.03c-1.69-1.61-3.93-1.62-5.99-1.76c-5.79-0.38-11.5,0.42-17.08,1.92c-2.61,0.7-4.92,2.1-5.99,4.88
			c-0.77,1.99-2.57,3.53-2.22,6.03c0.42,2.95,0.73,5.94,0.76,8.91c0.05,4.11-0.2,8.23-0.36,12.34c-0.03,0.66-0.17,1.33-0.39,1.95
			c-0.35,1.03-0.97,1.26-1.78,0.41c-1.46-1.54-0.78-3.42-0.83-5.18c-0.03-1.12-0.07-2.25-0.02-3.37c0.06-1.36,0.34-2.71,0.32-4.06
			c-0.07-4.5-0.04-9.02-0.44-13.49c-0.23-2.59-0.7-5.4-1.95-7.62c-2.88-5.09-7.06-7.84-12.95-4.49c-3.7,2.1-7.27,4.44-10.92,6.63
			c-1.02,0.61-2.06,1.22-3.17,1.62c-4.52,1.61-8.35,4.38-12.33,6.93c-2.95,1.89-3.97,4.74-4.39,7.98
			c-0.88,6.68-0.61,13.52-2.65,20.06c-0.17,0.54,0.28,1.26,0.45,1.9c0.36-0.43,0.75-0.85,1.08-1.3c1.5-2,3.04-3.98,4.48-6.03
			c1.33-1.89,3.24-2.06,5.22-1.78c2.03,0.28,2.25-0.95,2.61-2.44c0.89-3.69-0.01-7.11-1.19-10.55c-0.24-0.69,0.06-1.56,0.11-2.34
			c0.79,0.35,1.95,0.47,2.32,1.08c1.59,2.64,2.08,5.6,1.79,8.65c-0.14,1.45-0.5,2.87-0.73,4.31c-0.25,1.55,0.81,1.86,1.99,2.03
			c4.48,0.64,8.95,1.34,13.44,1.9c2.11,0.27,4.3,0.04,6.37,0.46c3.93,0.8,7.95,1.31,11.11,4.4c1,0.98,3.02,1.14,4.6,1.27
			c3.46,0.28,6.94,0.29,10.42,0.44c2.47,0.11,5.68,2.91,5.9,5.46c0.28,3.2,0.43,6.54-2.75,8.62c-1.17,0.76-2.59,1.56-3.91,1.6
			c-4.07,0.12-8.11,0.96-12.25-0.17c-1.78-0.49-4,0.29-5.94,0.77c-3.01,0.74-5.7-0.03-8.16-1.57c-0.79-0.5-1.35-1.77-1.51-2.77
			c-0.42-2.78-0.56-5.59-0.83-8.39c-0.09-0.91-0.06-1.91-0.42-2.71c-0.72-1.59,0.4-2.09,1.39-2.33c1.34-0.33,1.61,0.88,1.71,1.85
			c0.31,3.16,0.54,6.32,0.78,9.49c0.14,1.79,2,3.58,4.01,3.58c1.61,0.01,3.23-0.3,4.84-0.34c2.33-0.06,4.66-0.02,6.99-0.02
			c1.24,0,2.49,0.09,3.72-0.02c2.14-0.19,4.29-0.4,6.41-0.77c3.13-0.56,3.93-1.88,3.27-5.04c-0.81-3.87-1.69-4.38-5.75-4.61
			c-4.9-0.28-9.83-0.18-14.63-1.77c-1.39-0.46-3.21,0.4-4.83,0.68c-0.47,0.08-0.92,0.3-1.39,0.35c-0.45,0.05-0.92-0.04-1.38-0.07
			c0.36-0.49,0.61-1.14,1.09-1.42c0.7-0.41,1.57-0.53,2.35-0.82c0.37-0.14,0.7-0.39,1.04-0.6c-0.32-0.31-0.62-0.87-0.96-0.89
			c-2.72-0.2-5.45-0.27-8.17-0.43c-2.18-0.13-4.37-0.2-6.52-0.52c-3.36-0.5-6.68-1.22-10.03-1.77c-2.78-0.45-5.58-1.03-8.37-1.05
			c-1.07-0.01-2.5,1.14-3.18,2.15c-4.85,7.2-9.68,14.42-14.23,21.8c-2.49,4.04-4.35,8.46-6.62,12.63
			c-1.79,3.28-2.66,6.75-2.66,10.44c0.01,4.08,1.51,7.67,3.95,10.86c4.85,6.34,9.75,12.65,14.7,18.92c1.74,2.21,3.68,4.26,5.56,6.36
			c3.61,4.02,7.3,7.95,10.81,12.06c0.93,1.08,1.18,2.71,1.92,3.99c3.4,5.84,7.34,11.43,12.77,15.4c4.84,3.54,10.69,4.51,16.69,2.6
			c0.51-0.16,1.07-0.37,1.58-0.32c0.56,0.05,1.1,0.37,1.65,0.58c-0.33,0.57-0.54,1.48-1,1.64c-3.1,1.04-6.05,2.17-9.62,1.77
			c-3.8-0.43-6.99-1.78-10.07-3.67c-2.9-1.78-6.06-3.31-7.89-6.43c-2.18-3.71-4.26-7.49-6.56-11.12c-1.6-2.52-3.36-4.96-5.3-7.22
			c-2.96-3.45-6.21-6.64-9.19-10.07c-2.79-3.22-5.34-6.65-8.09-9.9c-1.67-1.98-3.64-3.71-5.23-5.74c-1.75-2.23-3.33-4.61-4.76-7.06
			c-1.68-2.87-3.12-5.88-4.65-8.84c-0.19-0.36-0.33-0.8-0.33-1.2C69.29,477.34,69.31,474.81,69.31,472.09 M190.12,468.43
			c0.13-1.1,0.1-2.25,0.41-3.29c1.18-3.94,1.22-3.92-2.47-4.92c-0.06-0.02-0.11-0.05-0.17-0.06c-3.81-0.84-5.07,0.19-5.1,4.12
			c-0.01,1.11-0.2,2.22-0.31,3.32c-0.27,2.7-0.62,5.4-0.8,8.11c-0.09,1.45,1.68,4.02,2.75,4.03c1.8,0.02,2.41-1.44,2.99-2.82
			c0.14-0.33,0.27-0.66,0.38-0.99C188.58,473.56,189.35,471.19,190.12,468.43z"/>
		<path class="st1" d="M155.01,494.88c0.69,1.33,1.26,2.56,1.87,3.78c0.14,0.28,0.41,0.49,0.61,0.74c0.23-0.27,0.5-0.51,0.68-0.81
			c1.16-1.95,2.13-4.04,3.47-5.86c2.45-3.32,5-6.58,7.74-9.67c1.55-1.75,3.51-3.15,5.37-4.59c0.41-0.32,1.29-0.38,1.79-0.17
			c0.63,0.27,1.16,0.89,1.58,1.47c0.07,0.1-0.62,1.07-1.03,1.12c-2.77,0.34-4.59,2.17-6.17,4.11c-2.77,3.41-5.37,6.97-7.9,10.57
			c-1.47,2.1-2.69,4.39-3.94,6.64c-0.17,0.3,0.06,0.92,0.26,1.31c1.63,3.16,2.63,6.61,2.56,10.05c-0.08,4.26-0.88,8.53-1.66,12.75
			c-0.34,1.82-1.36,3.53-2.14,5.25c-0.12,0.27-0.59,0.37-0.9,0.55c-0.19-0.37-0.58-0.76-0.54-1.11c0.19-2.08,0.48-4.15,0.74-6.22
			c0.25-2.01,0.45-4.03,0.78-6.03c0.56-3.4,0.65-6.81-0.44-10.09c-0.8-2.41-1.93-4.72-3.06-7c-1.19-2.4-2.34-4.86-3.87-7.04
			c-3.04-4.36-6.2-8.68-10.79-11.63c-1.13-0.73-1.76-0.57-2.58,0.67c-1.05,1.57-2.52,2.89-3.95,4.16c-0.47,0.41-1.4,0.42-2.11,0.4
			c-1.42-0.04-2.86-0.43-4.26-0.32c-3.23,0.25-4.73-1.25-5.11-4.66c-0.18-1.61-0.17-3.24-0.45-4.83c-0.09-0.5-0.77-1.13-1.29-1.28
			c-1.56-0.44-3.19-0.68-4.79-0.99c-0.34-0.07-0.69-0.1-1.04-0.15c0.05,0.39,0.01,0.82,0.16,1.17c0.77,1.8,1.44,3.67,2.45,5.33
			c1.07,1.76,0.7,3.34-0.07,4.96c-0.22,0.46-0.71,1.11-1.07,1.11c-0.52-0.01-1.18-0.42-1.51-0.86c-0.33-0.44-0.52-1.15-0.45-1.71
			c0.44-3.94-1.47-7.03-3.48-10.12c-0.55-0.84-0.95-1.78-1.41-2.68c-0.18-0.35-0.3-0.73-0.44-1.1c-0.3,0.33-0.64,0.64-0.89,1.01
			c-1.64,2.39-3.27,4.8-4.91,7.2c-0.14,0.21-0.33,0.44-0.55,0.53c-0.52,0.22-1.07,0.36-1.6,0.53c0.08-0.61-0.03-1.34,0.27-1.82
			c2.3-3.67,4.84-7.21,6.98-10.97c1.07-1.87,1.43-4.14,2.17-6.21c0.14-0.39,0.54-0.69,0.82-1.04c0.23,0.39,0.71,0.83,0.65,1.18
			c-0.3,1.97-0.72,3.92-1.12,5.87c-0.06,0.28-0.42,0.6-0.35,0.79c0.72,1.88,1.5,3.74,2.3,5.59c0.12,0.28,0.43,0.48,0.65,0.72
			c0.17-0.32,0.34-0.63,0.49-0.95c0.21-0.42,0.44-1.23,0.59-1.22c2.23,0.23,1.21-1.23,0.91-1.94c-1.03-2.46-0.99-4.94-0.29-7.41
			c0.17-0.59,1-1.35,1.55-1.37c0.48-0.02,1.07,0.52,0.81,1.72c-0.88,4.15,0.6,7.62,4.04,10.18c0.2,0.15,0.59,0.26,0.77,0.16
			c0.23-0.13,0.45-0.48,0.46-0.74c0.04-1.5-0.03-2.99,0.03-4.49c0.08-2.06,0.14-4.14,0.43-6.18c0.1-0.68,0.85-1.28,1.3-1.91
			c0.45,0.64,1.27,1.28,1.28,1.92c0.01,3.41-0.24,6.82-0.29,10.23c-0.01,0.95,0.35,1.9,0.53,2.85c0.06,0.34,0.27,0.82,0.12,1.02
			c-1.34,1.86-0.7,3.8-0.27,5.71c0.11,0.49,0.59,1.28,0.92,1.28c2.01,0.04,4.12,0.26,6.02-0.27c2.63-0.72,3.79-3.62,2.96-6.45
			c-0.89-3.02-1.92-6-2.8-9.03c-0.1-0.35,0.27-1.04,0.62-1.29c0.61-0.43,1.51-1.03,2.05-0.85c0.59,0.2,1.1,1.14,1.32,1.86
			c0.3,0.98,0.22,2.08,0.47,3.09c0.1,0.4,0.63,0.7,0.96,1.05c0.31-0.39,0.82-0.74,0.89-1.16c0.6-3.65,2.2-7.12,1.98-10.93
			c-0.04-0.71,0.27-1.43,0.35-2.15c0.16-1.49-0.62-1.63-1.86-1.37c-3.79,0.77-7.58,1.69-11.41,2.13c-4.42,0.51-8.88,0.76-13.33,0.75
			c-2.39,0-4.8-0.7-7.15-1.25c-0.51-0.12-1.27-1.15-1.15-1.48c0.22-0.59,0.97-1.26,1.59-1.36c0.93-0.14,1.93,0.29,2.91,0.3
			c4.32,0.04,8.68,0.4,12.94-0.08c5.43-0.6,10.96-0.68,16.22-2.56c1.78-0.64,3.58,0.9,3.55,2.94c-0.04,2.83-0.45,5.68-0.31,8.49
			c0.17,3.38,1.76,6.2,4.5,8.27c0.41,0.31,0.96,0.42,1.44,0.63c0.01-0.6,0.17-1.24,0.02-1.8c-0.47-1.76-0.59-3.45,0.12-5.2
			c0.47-1.16,1.08-1.86,2.45-1.83c3.42,0.05,6.84,0,10.26,0.02c1.91,0.01,2.65,0.83,2.71,2.69c0.22,6.35-0.3,12.59-2.3,18.67
			c-0.37,1.14-0.28,2.51-0.89,3.47c-1.84,2.87-4.66,2.29-7.39,1.71c-0.31-0.07-0.62-0.15-0.93-0.23c0.07,0.35,0.06,0.73,0.21,1.03
			C153.89,493.03,154.42,493.9,155.01,494.88 M161.26,475.36c0.22-1.25,0.37-2.52,0.69-3.75c0.64-2.5-0.71-3.83-3.28-3.41
			c-1.36,0.22-2.82,0.19-4.18-0.05c-1.99-0.36-2.68,0.5-2.55,2.57c0.23,3.58,0.3,7.21,0.02,10.79c-0.19,2.41,0.77,5.81,2.83,6.97
			c1.63,0.92,3.79,0.56,4.19-1.59c0.22-1.23,0.69-2.41,0.93-3.64C160.4,480.75,160.82,478.24,161.26,475.36 M141.45,479.4
			c0.35,0.23,0.77,0.39,1.05,0.69c1.6,1.69,3.14,3.43,4.77,5.09c0.31,0.31,0.87,0.37,1.32,0.55c0.12-0.33,0.42-0.72,0.34-0.99
			c-0.87-2.92-0.14-5.7,0.68-8.46c0.24-0.82,0.21-1.34-0.75-1.09c-3.39,0.87-4.84-1.24-6.07-3.79c-0.1-0.2-0.41-0.44-0.6-0.42
			c-0.19,0.01-0.37,0.31-0.53,0.5c-0.94,1.07-1.85,2.17-2.81,3.22c-1.12,1.21-0.65,3.3,0.94,3.93
			C140.26,478.83,140.76,479.01,141.45,479.4z"/>
		<path class="st1" d="M197.14,541.44c2.98-2.79,6.4-5.11,8.63-8.26c3.58-5.05,6.57-10.56,9.43-16.07c1.68-3.24,2.5-6.91,3.91-10.3
			c1.69-4.05,3.59-8,5.41-11.99c2.67-5.88,5.47-11.71,7.98-17.66c1.72-4.09,3.04-8.36,4.51-12.55c0.14-0.4,0.08-0.88,0.05-1.33
			c-0.26-3.49,0.6-7.02-0.36-10.49c-0.09-0.32,0.13-0.72,0.14-1.08c0.01-0.31,0.04-0.74-0.13-0.89c-0.17-0.15-0.61-0.06-0.89,0.02
			c-0.62,0.19-1.23,0.42-1.84,0.67c-0.86,0.35-1.53,0.67-0.86,1.88c0.45,0.8,0.16,1.46-1.09,1.41c-1.8-0.08-3.73,0.34-4.25-2.18
			c-0.04-0.21-0.34-0.36-0.53-0.54c-0.19,0.31-0.43,0.59-0.57,0.92c-1.04,2.45-1.95,4.97-3.13,7.35c-0.54,1.08-1.54,1.97-2.45,2.82
			c-0.35,0.32-1.01,0.31-1.53,0.45c0-0.52-0.19-1.14,0.03-1.53c1.2-2.2,2.85-4.23,3.7-6.55c1.28-3.52,2.13-7.22,2.94-10.89
			c0.32-1.43,0.1-2.98,0.04-4.48c-0.18-4.43,0.5-8.71,1.46-13.04c0.8-3.59,0.86-7.35,1.24-11.04c0.06-0.56-0.11-1.27,0.18-1.65
			c1.97-2.57,0.07-4.56-0.85-6.73c-1.39-3.3-3.84-5.65-6.79-7.48c-1.81-1.12-3.81-1.91-5.99-0.71c-0.3,0.17-0.78,0.33-1.04,0.21
			c-2.31-1.1-3.73,0.23-5.15,1.74c-0.31,0.33-0.8,0.48-1.21,0.72c-0.03-0.69-0.35-1.57-0.05-2.05c2.71-4.33,4.79-4.99,9.76-4.23
			c2.97,0.45,5.88,1.16,7.96,3.49c1.81,2.02,3.56,4.14,5.04,6.42c0.88,1.36,1.21,3.08,1.72,4.66c0.76,2.38,1.62,4.75,2.15,7.18
			c0.57,2.62,1.09,5.31,1.14,7.98c0.11,6.49,1.2,12.79,2.81,19.05c0.5,1.93,0.91,3.92,1.05,5.9c0.26,3.78,0.6,7.61,0.31,11.37
			c-0.18,2.42-1.39,4.77-2.21,7.13c-1.51,4.37-2.83,8.83-4.67,13.06c-2.2,5.06-5.06,9.83-7.27,14.88c-2.04,4.66-3.45,9.6-5.42,14.29
			c-1.42,3.39-3.26,6.6-4.98,9.86c-1.87,3.53-3.79,7.03-5.76,10.5c-0.69,1.21-1.44,2.44-2.41,3.41c-2.99,3.01-5.94,6.11-9.23,8.78
			c-2.63,2.13-5.94,2.88-9.34,2.05c-0.56-0.14-1.03-1.19-1.23-1.91c-0.06-0.21,0.91-1.03,1.44-1.05
			C191.72,542.81,194.55,543.2,197.14,541.44 M235.33,449c0.19-0.56,0.6-1.15,0.54-1.68c-0.26-2.3-0.62-4.59-1.02-6.87
			c-0.5-2.85-1.29-5.67-1.59-8.54c-0.44-4.29-0.54-8.62-0.85-12.93c-0.04-0.53-0.46-1.02-0.7-1.53c-0.27,0.55-0.71,1.07-0.78,1.64
			c-0.32,2.7-0.49,5.42-0.81,8.13c-0.5,4.21-1.97,8.33-1.48,12.61c0.33,2.9-0.39,5.59-0.93,8.34c-0.09,0.45,0.1,0.96,0.16,1.44
			c0.37-0.32,0.91-0.58,1.08-0.98c0.53-1.25,0.9-2.57,1.37-3.85c0.11-0.3,0.39-0.53,0.59-0.79c0.25,0.24,0.64,0.44,0.74,0.74
			c0.32,0.96,0.6,1.94,0.78,2.94C232.78,449.65,232.93,449.75,235.33,449z"/>
		<path class="st1" d="M118.94,565.2c0.38-3.82,0.75-7.44,1.19-11.06c0.04-0.32,0.51-0.58,0.79-0.87c0.24,0.32,0.69,0.65,0.69,0.96
			c-0.06,1.81-0.17,3.62-0.36,5.42c-0.19,1.7-0.56,3.37-0.74,5.07c-0.42,3.88-0.63,7.78-1.21,11.63c-0.59,3.94-1.6,7.82-2.24,11.75
			c-0.53,3.28-0.77,6.6-1.19,9.9c-0.47,3.64-1.08,7.26-1.51,10.91c-0.26,2.24-0.2,4.52-0.43,6.76c-0.45,4.47-1.03,8.93-1.51,13.41
			c-0.18,1.67-0.29,3.35-0.39,5.03c-0.15,2.77-0.24,5.54-0.4,8.3c-0.37,6.38-0.75,12.76-1.16,19.14c-0.22,3.36-0.43,6.72-0.78,10.07
			c-0.43,4.16-1.01,8.3-1.52,12.44c-0.16,1.29-0.27,2.59-0.39,3.88c-0.14,1.48-0.38,2.97-0.35,4.46c0.02,1.34,0.46,2.66,0.48,4
			c0.01,0.64-0.51,1.29-0.79,1.93c-0.29-0.4-0.8-0.77-0.84-1.19c-0.21-1.86-0.5-3.75-0.38-5.6c0.24-3.63,0.8-7.24,1.09-10.87
			c0.45-5.67,0.78-11.35,1.17-17.02c0.25-3.68,0.54-7.35,0.76-11.03c0.28-4.64,0.43-9.28,0.8-13.91c0.41-5.18,1-10.35,1.52-15.52
			c0.51-5.05,0.93-10.1,1.56-15.13c0.65-5.21,1.5-10.39,2.29-15.59c0.76-5,1.58-10,2.29-15.01c0.47-3.35,0.78-6.73,1.18-10.1
			C118.64,566.69,118.81,566.04,118.94,565.2z"/>
		<path class="st1" d="M197.14,606.85c-0.61,5.08-1.14,10.06-1.63,15.04c-0.19,1.93-0.31,3.87-0.39,5.8
			c-0.16,3.79-0.32,7.59-0.38,11.38c-0.16,9.97-0.27,19.94-0.4,29.92c0,0.19,0.07,0.42-0.01,0.57c-0.31,0.62-0.67,1.22-1.01,1.83
			c-0.3-0.64-0.85-1.28-0.87-1.93c-0.08-3.72-0.09-7.44-0.03-11.16c0.09-6.06,0.18-12.12,0.4-18.18c0.15-4.19,0.45-8.38,0.76-12.57
			c0.34-4.72,0.64-9.44,1.18-14.14c0.48-4.18,1.29-8.32,1.88-12.48c0.57-4.08,1.02-8.17,1.56-12.25c0.63-4.8,1.36-9.59,1.88-14.41
			c0.22-2.05-0.05-4.15,0.06-6.22c0.16-3.31,0.48-6.6,0.66-9.91c0.05-0.89-0.26-1.8-0.28-2.7c-0.04-2.84-0.04-5.69,0-8.53
			c0.01-0.59,0.18-1.2,0.39-1.76c0.11-0.29,0.46-0.5,0.7-0.75c0.14,0.28,0.42,0.56,0.41,0.83c-0.09,2.39-0.35,4.77-0.34,7.15
			c0.02,3.15,0.34,6.31,0.33,9.46c-0.01,3.9-0.02,7.83-0.41,11.7c-0.58,5.86-1.51,11.68-2.25,17.52c-0.54,4.21-1.02,8.43-1.55,12.63
			C197.68,604.74,197.43,605.74,197.14,606.85z"/>
		<path class="st1" d="M201.28,454.77c0.13-1.16,0.22-2.14,0.4-3.11c0.08-0.39,0.36-0.74,0.55-1.12c0.32,0.37,0.82,0.69,0.93,1.12
			c0.16,0.6,0.12,1.28,0.03,1.91c-0.32,2.23,0.84,3.8,2.32,5.18c0.34,0.32,0.95,0.37,1.43,0.54c0.11-0.74,0.32-1.49,0.27-2.21
			c-0.03-0.34-0.6-0.62-0.9-0.96c-0.41-0.45-0.79-0.93-1.18-1.4c0.66-0.5,1.31-1.42,1.98-1.43c2.7-0.05,5.43,0.02,8.09,0.42
			c0.72,0.11,1.61,1.45,1.78,2.35c0.29,1.57,0.28,3.26,0.04,4.85c-0.5,3.41-1.07,6.83-1.9,10.17c-0.73,2.94-2.71,4.34-5.06,4.08
			c-2.26-0.25-4.95-3.21-4.89-5.67c0.05-1.95,0.19-3.99,0.81-5.81c0.57-1.67-0.12-2.3-1.23-3.17
			C202.95,459.11,201.45,457.43,201.28,454.77 M212.82,468.43c0.64-2.68,1.55-5.34,1.85-8.06c0.35-3.12-0.83-4.04-3.99-4.09
			c-1.34-0.02-1.79,0.38-1.75,1.73c0.05,1.63,0.22,3.39-0.3,4.87c-0.78,2.24-1.27,4.42-1.25,6.8c0.02,1.94,1.4,2.53,2.7,2.67
			c0.71,0.07,1.65-1.05,2.31-1.8C212.75,470.15,212.69,469.4,212.82,468.43z"/>
		<path class="st1" d="M157.32,551.64c-3.13,3.26-5.14,6.89-5.34,11.4c-0.03,0.74-0.71,2.08-1,2.06c-1.46-0.13-0.75-1.41-0.87-2.25
			c-0.37-2.6-0.4-5.2,1.17-7.45c0.92-1.32,2.13-2.45,3.2-3.67c0.36-0.41,0.67-0.86,1-1.29c-0.48-0.21-0.94-0.53-1.44-0.61
			c-1.28-0.19-2.6-0.19-3.86-0.45c-0.59-0.12-1.08-0.67-1.62-1.02c0.35-0.41,0.67-1.16,1.05-1.19c3.3-0.26,5.5-2.83,8.39-3.92
			c0.36-0.13,0.91-0.52,0.89-0.72c-0.05-0.37-0.43-0.93-0.74-0.98c-1.15-0.2-2.34-0.18-3.5-0.35c-0.63-0.09-1.24-0.39-1.86-0.6
			c0.43-0.52,0.8-1.4,1.31-1.51c2.39-0.47,4.69-0.2,6.92,0.99c1.44,0.77,1.35,1.63,0.38,2.38c-1.95,1.52-4.07,2.84-6.1,4.25
			c-0.36,0.25-0.65,0.6-0.98,0.9c0.4,0.09,0.8,0.2,1.2,0.25c0.74,0.08,1.59-0.09,2.22,0.22
			C159.33,548.87,159.21,549.73,157.32,551.64z"/>
		<path class="st1" d="M104.32,442.46c0.38,1.19,0.87,2.16,1.13,3.18c0.25,1-0.22,1.66-1.17,2.26c-1.05,0.66-1.42-0.05-1.79-0.58
			c-1.49-2.12-2.92-4.29-4.29-6.49c-0.2-0.31,0.03-0.89,0.07-1.35c0.48,0.23,1.07,0.35,1.41,0.71c0.49,0.51,0.77,1.21,1.19,1.8
			c0.19,0.27,0.49,0.46,0.75,0.68c0.13-0.39,0.47-0.87,0.35-1.16c-0.39-0.93-0.92-1.81-1.46-2.66c-0.97-1.53-2.04-2.99-2.94-4.56
			c-0.17-0.3,0.11-1.19,0.42-1.36c0.49-0.26,1.45-0.42,1.75-0.14c0.88,0.83,1.54,1.89,2.27,2.87c1.17,1.57,2.34,3.13,3.47,4.72
			c0.17,0.23,0.14,0.61,0.2,0.92c-0.28,0-0.55,0.02-0.83,0.01C104.06,441.29,103.35,441.32,104.32,442.46z"/>
		<path class="st1" d="M149.82,415.62c1.83,0.03,3.56,0.25,5.29,0.26c1.48,0.01,2.95-0.3,4.43-0.32c0.57-0.01,1.15,0.42,1.72,0.65
			c-0.55,0.8-0.98,2.13-1.67,2.29c-1.92,0.43-3.98,0.62-5.93,0.4c-1.39-0.16-2.72-1.08-4.01-1.79
			C149.48,417.01,149.69,416.2,149.82,415.62z"/>
		<path class="st1" d="M154.24,454.48c-0.69-0.83-1.51-1.3,0.33-1.72c2.28-0.53,4.4-1.72,6.6-2.6c0.44-0.18,0.93-0.41,1.37-0.35
			c0.49,0.06,1.07,0.31,1.35,0.67c0.13,0.18-0.27,0.89-0.57,1.22c-0.31,0.34-0.79,0.7-1.21,0.72c-1.05,0.06-1.1,0.27-0.44,1.06
			c0.87,1.05,0.27,1.68-0.84,1.64C158.66,455.04,156.5,454.77,154.24,454.48z"/>
		<path class="st1" d="M183.97,447.08c-0.97-0.18-1.32-0.32-0.84-1.36c0.98-2.15,2.57-2.63,4.69-2.52c1.09,0.05,2.19-0.25,3.29-0.34
			c0.42-0.03,0.85,0.08,1.28,0.13c-0.1,0.39-0.19,0.79-0.31,1.17c-0.54,1.83-1.63,2.73-3.67,2.57
			C187,446.63,185.57,446.95,183.97,447.08z"/>
		<path class="st1" d="M189.35,397.83c0.66-0.6,1.34-0.98,1.98-1.42c0.29-0.2,0.48-0.54,0.72-0.81c-0.27-0.15-0.52-0.33-0.8-0.46
			c-0.75-0.34-1.51-0.65-2.27-0.97c0.88-0.19,1.76-0.53,2.64-0.54c1.29-0.01,2.58,0.19,3.86,0.37c0.39,0.05,0.75,0.32,1.13,0.49
			c-0.18,0.35-0.31,0.75-0.56,1.05c-0.73,0.91-1.51,1.78-2.27,2.67C192.95,399.19,190.05,399.06,189.35,397.83z"/>
		<path class="st1" d="M132.7,465.06c-1.07,0.22-2.04,0.43-3.01,0.46c-1.32,0.04-2.53-1.11-2.26-2.13c0.34-1.24,1.18-1.14,2.35-1
			c2.1,0.26,4.26,0.03,6.4,0.1c0.54,0.02,1.08,0.4,1.62,0.62c-0.45,0.3-0.87,0.72-1.37,0.88
			C135.24,464.39,134.01,464.65,132.7,465.06z"/>
		<path class="st1" d="M214.75,442.08c-1.14,0.18-2.09,0.37-3.04,0.53c-0.38,0.06-0.78,0.04-1.17,0.06
			c-0.01-0.34-0.03-0.68-0.01-1.02c0.09-1.64,0.5-2.62,2.57-1.96c1.02,0.32,2.3-0.22,3.46-0.28c0.42-0.02,0.85,0.23,1.27,0.35
			c-0.18,0.5-0.21,1.23-0.57,1.46C216.58,441.65,215.72,441.8,214.75,442.08z"/>
		<path class="st1" d="M195.6,398.89c-0.17-0.4-0.25-0.71-0.33-1.02c0.46,0.07,0.92,0.14,1.38,0.21
			C196.34,398.38,196.02,398.68,195.6,398.89z"/>
	</g>
</g>
<g id="billen">
	<path class="st0" d="M880.15,216.79c0,0,65,19,87,19s67-7,92,10s26,12,31,25s7-20,12-22c2-1,9.45,1.63,8.23,5.82
		c-1.23,4.18,9.77,3.18,9.77,17.18s6,17,6,22s9-4,9,2s-11,29-14,31s47-8,47-8l2.52,30.5l-71.52,29.5c0,0-14,0-18-2s-19,52-21,52
		s-221.5-154.5-221.5-154.5L880.15,216.79z"/>
	<g id="Vorm_11_1_">
		<path class="st1" d="M1057.29,259.37c-2.69-1.58-5.27-3.07-7.88-4.53c-0.64-0.36-1.33-0.65-2.02-0.92
			c-3.92-1.55-7.78-3.3-11.79-4.58c-4.54-1.45-9.2-2.57-13.85-3.63c-2.74-0.62-5.57-0.99-8.38-1.2c-4.88-0.37-9.79-0.81-14.68-0.69
			c-4.49,0.11-8.97,0.93-13.45,1.39c-1.98,0.2-3.97,0.31-5.95,0.37c-4.84,0.15-9.69,0.24-14.53,0.4c-0.93,0.03-1.91,0.15-2.75,0.5
			c-0.52,0.22-1.03,0.9-1.18,1.46c-0.44,1.68-0.52,3.48-1.09,5.11c-0.67,1.93-1.75,3.71-2.56,5.6c-1.23,2.88-2.3,5.83-3.57,8.7
			c-1.17,2.66-2.56,5.23-3.76,7.88c-3.43,7.58-6.78,15.2-10.23,22.78c-1.28,2.81-2.72,5.54-4.18,8.26
			c-2.12,3.94-4.34,7.82-6.47,11.76c-1.2,2.21-2.17,4.56-3.5,6.69c-2.19,3.5-4.65,6.83-6.88,10.3c-2.17,3.37-4.44,6.64-7.49,9.29
			c-0.79,0.69-1.68,1.27-2.58,1.81c-0.18,0.11-0.83-0.15-0.83-0.25c-0.02-0.54-0.09-1.24,0.21-1.6c0.85-1.04,1.88-1.92,2.82-2.89
			c1.59-1.65,3.15-3.29,2.74-5.92c-0.07-0.47,0.29-1.23,0.69-1.52c1.38-0.99,1.05-2.55,1.5-3.84c0.24-0.7,0.51-1.45,1-1.97
			c0.34-0.36,1.06-0.35,1.61-0.51c-0.21,0.44-0.54,0.85-0.62,1.31c-0.22,1.27-0.37,2.56-0.48,3.85c-0.01,0.16,0.43,0.49,0.67,0.5
			c0.23,0.01,0.58-0.25,0.69-0.48c0.52-1.08,1.07-2.16,1.41-3.29c0.14-0.47-0.21-1.07-0.3-1.62c-0.2-1.12-0.89-2.52-0.47-3.32
			c1.08-2.05,1.57-4.19,2.04-6.39c0.15-0.7,0.52-1.74,1.02-1.91c2.16-0.73,2.22-2.57,2.66-4.26c0.17-0.65,0.36-1.47,0.83-1.85
			c1.25-1,1.94-2.3,2.07-3.78c0.14-1.65,0.96-2.46,2.41-3.07c1.32-0.54,2.7-1.24,2.48-3.13c-0.03-0.3,0.11-0.76,0.34-0.94
			c2.47-1.97,1.91-5.26,3.38-7.69c0.87-1.44,0.82-3.55,1.88-4.72c1.74-1.93,2.22-4.29,3.28-6.46c0.98-2.01,2.31-3.85,3.38-5.82
			c0.43-0.79,0.46-1.78,0.83-2.61c1.21-2.78,1.59-5.93,3.98-8.2c0.59-0.56,0.44-1.87,0.66-2.83c0.65-2.83,0.99-5.77,3.42-7.86
			c0.41-0.35,0.5-1.14,0.64-1.75c0.27-1.19,0.48-2.4,0.7-3.6c0.03-0.16-0.01-0.33-0.03-0.5c-0.09,0.02-0.23,0.01-0.25,0.06
			c-0.89,1.67-2.68,1.05-3.91,1.21c-5.1,0.65-10.21,0.76-15.3-0.57c-2.72-0.71-5.61-0.73-8.4-1.19c-2.51-0.42-5.01-0.97-7.49-1.57
			c-3.69-0.9-7.37-1.83-11.03-2.86c-4.74-1.34-9.52-2.6-14.16-4.23c-6.83-2.4-13.56-5.07-20.31-7.7c-1.22-0.47-2.34-1.23-3.43-1.97
			c-0.32-0.22-0.39-0.83-0.57-1.25c0.51,0,1.09-0.15,1.53,0.02c4.98,1.98,9.88,4.15,14.91,6c4.88,1.79,9.85,3.34,14.83,4.86
			c3.85,1.17,7.75,2.15,11.64,3.18c3.34,0.89,6.66,1.82,10.03,2.58c3.74,0.84,7.51,1.59,11.3,2.21c2.58,0.42,5.22,0.76,7.83,0.72
			c4.79-0.07,9.6-0.31,14.37-0.74c2.58-0.23,5.11-1.06,7.68-1.51c1.81-0.32,3.64-0.52,5.47-0.64c4.52-0.29,9.13-0.05,13.55-0.86
			c7.19-1.31,14.38-1.59,21.61-1.32c4.37,0.16,8.75,0.78,13.08,1.46c4.24,0.67,8.47,1.51,12.61,2.6c3.53,0.92,6.99,2.15,10.38,3.52
			c4.33,1.75,8.62,3.64,12.8,5.73c2.68,1.34,5.25,2.97,7.62,4.8c4.9,3.78,9.8,7.58,14.36,11.75c2.87,2.62,5.4,5.74,5.94,9.9
			c0.02,0.18,0.21,0.35,0.32,0.52c0.24-0.16,0.62-0.28,0.7-0.5c1.77-5,3.4-10.06,5.31-15.01c0.98-2.55,2.47-4.9,3.75-7.33
			c0.1-0.2,0.37-0.47,0.53-0.45c1.77,0.15,3.68,0.03,5.27,0.66c1.14,0.45,2.22,1.82,2.66,3.02c0.39,1.06,0,2.49-0.28,3.7
			c-0.25,1.06-0.02,1.59,1.06,1.46c4.51-0.55,5.83,2.9,7.27,5.95c1.24,2.61,1.71,5.49,1.55,8.43c-0.02,0.44,0.08,0.99,0.34,1.32
			c2.1,2.63,2.61,5.74,3.02,8.95c0.23,1.86,0.73,3.76,1.49,5.47c0.89,1.99,1.93,3.84,1.08,6.11c-0.16,0.43-0.13,1.01,0.02,1.46
			c0.07,0.2,0.78,0.45,0.94,0.33c2.27-1.73,5.98-1.78,7.87,0.63c1.48,1.89,1.93,3.95,0.92,6.16c-1.65,3.58-3.14,7.26-5.15,10.62
			c-2.62,4.39-5.7,8.51-8.57,12.75c-0.29,0.43-0.81,0.89-0.79,1.31c0.02,0.37,0.69,1.04,1.01,1c3.28-0.36,6.56-0.77,9.82-1.29
			c2.52-0.4,5.02-1,7.53-1.45c2.94-0.53,5.87-1.14,8.83-1.45c4.01-0.43,7.92-1.1,11.71-2.58c2.5-0.98,5.15-1.73,7.8-2.06
			c0.83-0.1,2.23,1.36,2.73,2.41c0.52,1.09-0.46,1.64-1.72,1.86c-3.42,0.6-6.8,1.44-10.2,2.15c-0.98,0.2-2,0.43-2.98,0.36
			c-1.65-0.12-2.38,1.04-2.69,2.15c-0.39,1.41-1.26,1.45-2.34,1.6c-2.55,0.36-5.14,0.63-7.62,1.27c-1.11,0.29-2.06,1.34-2.97,2.17
			c-0.8,0.74-1.54,0.9-2.61,0.67c-0.86-0.19-1.86-0.05-2.72,0.21c-4.37,1.34-8.72,2.78-13.08,4.16c-0.24,0.08-0.52-0.01-0.79-0.02
			c0.07-0.3,0.05-0.77,0.23-0.87c1.42-0.73,2.83-1.51,4.33-2.04c2.75-0.96,5.57-1.75,8.35-2.64c0.23-0.07,0.39-0.39,0.58-0.59
			c-0.24-0.17-0.49-0.49-0.71-0.48c-1.43,0.09-2.88,0.11-4.27,0.42c-2.12,0.48-4.19,1.2-6.3,1.75c-0.32,0.08-0.79-0.19-1.09-0.42
			c-0.09-0.07,0.1-0.57,0.22-0.85c0.14-0.31,0.36-0.59,0.51-0.9c0.09-0.19,0.11-0.42,0.15-0.63c-0.29-0.04-0.67-0.21-0.85-0.09
			c-0.26,0.17-0.43,0.54-0.57,0.85c-1.7,4.04-3.58,8.03-5.01,12.17c-0.9,2.61-1.21,5.45-1.64,8.2c-0.63,4.01-2.2,7.69-3.59,11.47
			c-1.46,3.95-4.02,6.98-6.75,9.98c-0.17,0.18-0.46,0.33-0.5,0.53c-0.11,0.49-0.11,1-0.15,1.5c0.42-0.14,0.91-0.18,1.25-0.43
			c3.52-2.53,6.85-5.39,10.57-7.58c3.77-2.21,7.61-4.32,11.98-5.5c3.24-0.88,6.09-3.12,9.2-4.55c4.25-1.94,8.55-3.79,12.9-5.49
			c3.93-1.54,7.93-2.92,11.96-4.17c1.94-0.6,4.01-0.75,6.03-1.09c1.27-0.22,2.53-0.46,3.8-0.63c0.36-0.05,0.75,0.12,1.13,0.19
			c-0.14,0.31-0.3,0.6-0.4,0.92c-0.76,2.43-2.59,2.98-4.87,2.86c-3.47-0.18-6.63,1.15-9.8,2.25c-6.41,2.22-12.92,4.28-19.07,7.11
			c-5.09,2.34-9.97,5.19-14.74,8.27c-6.95,4.49-14.58,7.79-22.24,11.02c-4.14,1.75-8.13,1.76-12.25,1.62c-3-0.1-5.87-1.18-8.37-2.94
			c-1.13-0.79-1.69-0.64-2.01,0.7c-0.86,3.59-1.7,7.19-2.6,10.77c-0.83,3.29-1.57,6.62-2.62,9.84c-1.98,6.08-4.02,12.14-6.32,18.11
			c-1.08,2.81-2.82,5.37-4.23,8.06c-0.37,0.7-0.46,1.58-0.93,2.19c-0.54,0.7-1.35,1.2-2.05,1.79c-0.7-0.84-1.26-1.64-0.53-2.83
			c1.07-1.76,2.05-3.58,2.97-5.43c1.52-3.07,3.21-6.08,4.38-9.28c2.19-6.01,4.22-12.09,6.02-18.23c1.45-4.92,2.7-9.92,3.59-14.97
			c0.74-4.16,0.92-8.43,1.16-12.67c0.25-4.44,0.52-8.91,0.32-13.35c-0.17-3.87-0.87-7.73-1.53-11.56
			c-0.71-4.18-1.64-8.32-2.47-12.48c-0.15-0.75-0.06-1.62-0.43-2.22c-0.5-0.79-0.66-1.73-2.43-1.51c-2.17,0.27-3.48,1.55-5.18,2.38
			c-0.47,0.23-1.15,0.06-1.73,0.07c0.2-0.47,0.36-0.97,0.61-1.41c0.67-1.2,1.85-2.34,1.97-3.59c0.18-1.81,1.38-2.03,2.53-2.41
			c1.28-0.43,1.87-0.77,1.39-2.43c-1.37-4.77-3.54-9.14-5.76-13.54c-3.41-6.76-8.15-12.58-12.5-18.68
			c-0.98-1.37-2.19-2.59-3.39-3.78c-4.98-4.9-9.84-9.93-15.05-14.57c-2.75-2.45-6.08-4.27-9.24-6.22c-4.01-2.48-8-5.05-12.22-7.13
			c-5.67-2.8-11.21-5.97-17.5-7.35c-1.89-0.42-3.73-1.11-5.5-1.88c-0.42-0.18-0.64-1.19-0.62-1.8c0.01-0.25,0.98-0.79,1.36-0.67
			c2.9,0.87,5.83,1.69,8.62,2.85c4.79,1.99,9.51,4.16,14.19,6.38c1.92,0.91,3.67,2.17,5.5,3.26c4.3,2.57,8.62,5.11,12.89,7.74
			c1.49,0.92,2.94,1.97,4.24,3.14c2.71,2.45,5.37,4.97,7.94,7.56c3.36,3.38,6.89,6.64,9.87,10.33c3.51,4.35,6.55,9.09,9.73,13.71
			c0.91,1.32,1.58,2.79,2.38,4.19c0.15,0.27,0.39,0.49,0.58,0.74c0.23-0.31,0.64-0.6,0.67-0.92c0.09-0.98-0.02-1.97,0.04-2.96
			c0.33-5.8,1.24-11.53,4.54-16.41c1.22-1.8,3.53-2.97,5.55-4.06c1.13-0.61,2.25,0.22,2.87,1.48c2.24,4.54,2.79,9.21,1.49,14.15
			c-0.74,2.8-1.24,5.66-1.8,8.5c-0.05,0.26,0.26,0.59,0.41,0.89c0.33-0.23,0.78-0.39,0.98-0.71c1.39-2.19,2.61-4.5,4.12-6.61
			c2.73-3.84,4.85-7.93,5.99-12.51c0.13-0.51,0.22-1.03,0.26-1.55c0.14-1.55,0.27-3.1,0.37-4.66c0.07-1.03,0.08-1.99-0.89-2.8
			c-0.56-0.47-0.8-1.37-1.07-2.12c-1.17-3.23-3.22-5.89-5.67-8.18c-2.38-2.22-5.03-4.17-7.6-6.18
			C1063.53,264.08,1060.44,261.79,1057.29,259.37 M1108.83,334.97c5.22-4.61,8.2-10.73,11.23-16.8c1.15-2.3,2.31-4.6,3.25-6.98
			c1.01-2.57-1.01-5.14-3.59-4.49c-4.1,1.04-6.72,3.33-7.21,7.73c-0.3,2.63-1.06,5.14-3.12,7.03c-1.79,1.65-3.65,3.23-5.31,5
			c-1.07,1.14-1.72,2.68-2.83,3.78c-0.64,0.63-1.81,0.74-2.74,1.08c0.03-0.8-0.27-1.89,0.14-2.35c1.92-2.15,4.04-4.12,6.07-6.18
			c1.7-1.73,3.6-3.25,4.36-5.78c1.02-3.39,1.03-7.24,4.14-9.75c0.04-0.03,0.05-0.11,0.04-0.16c-0.07-2.25,0.21-4.59-0.3-6.74
			c-0.81-3.4-2.58-6.51-2.77-10.16c-0.09-1.78-0.33-3.87-2.1-5.22c-1.02-0.78-2.05-0.93-2.62,0.14c-0.71,1.34-1.07,2.89-1.45,4.39
			c-0.52,2.02-0.81,4.1-1.38,6.09c-0.68,2.36-1.24,5.05,0.42,6.76c2.26,2.33,1.52,5.34,2.75,7.81c0.13,0.27-0.39,0.87-0.61,1.31
			c-0.45-0.24-0.97-0.42-1.34-0.75c-0.21-0.19-0.18-0.65-0.29-0.98c-0.7-2.09-0.7-2.09-2.7-0.88c-0.24,0.15-0.51,0.25-0.77,0.39
			c-1.52,0.79-3.27,1.32-4.53,2.42c-3.1,2.72-3.57,6.2-2.29,10.05c0.19,0.57,0.01,1.78-0.29,1.88c-0.95,0.34-1.62-0.19-1.97-1.25
			c-0.93-2.79-0.78-5.71-0.19-8.4c0.41-1.88,2.03-3.69,3.52-5.1c1.29-1.22,3.13-1.86,4.78-2.67c1.58-0.78,2.08-2.21,1.35-3.51
			c-1.91-3.4,0.04-6.85-0.38-10.29c-0.27-2.23,1.03-4.66,1.69-6.98c0.55-1.93,2.38-3.19,4.35-3.62c0.75-0.17,1.89-1.3,1.84-1.9
			c-0.29-3.33-1.77-6.3-3.72-8.95c-0.53-0.72-1.85-1.24-2.75-1.16c-0.7,0.06-1.65,1.09-1.88,1.87c-0.89,3.04-1.41,6.19-2.32,9.23
			c-1.14,3.8-0.58,7.39,1.19,10.75c1.25,2.38,0.72,3.77-1.41,5.21c-1.47,1-2.73,2.45-3.79,3.92c-2.53,3.49-3.95,7.48-4.88,11.67
			c-0.16,0.73-0.83,1.34-1.27,2.01c-0.18-0.79-0.36-1.58-0.54-2.36c-0.01-0.06-0.02-0.13,0-0.18c1.72-5.81,3.47-11.57,8.2-15.86
			c2.43-2.21,2.28-2.28,0.84-5.33c-0.89-1.88-1.76-3.77-1.31-6.02c0.41-2.02,0.4-4.13,0.81-6.16c0.58-2.88,1.02-5.87,2.2-8.52
			c0.86-1.93,1.21-3.67,1.16-5.72c-0.05-1.76-1.03-2.77-2.38-2.94c-1.11-0.14-2.79,0.27-3.44,1.07c-3.42,4.26-4.39,9.31-4.01,14.66
			c0.1,1.37,0.42,2.73,0.48,4.1c0.02,0.47-0.45,0.95-0.7,1.43c-0.37-0.43-0.88-0.8-1.07-1.3c-0.18-0.49,0.05-1.11-0.07-1.64
			c-0.09-0.4-0.43-0.75-0.66-1.13c-0.27,0.28-0.61,0.51-0.78,0.83c-2.08,3.89-2.51,8.09-2.18,12.39c0.06,0.78,0.66,1.62,1.22,2.24
			c0.8,0.89,1.81,1.58,2.68,2.39c0.23,0.21,0.48,0.66,0.4,0.86c-0.11,0.25-0.54,0.45-0.86,0.51c-1.48,0.28-2.73-0.73-3.44-2.7
			c-0.16-0.46-0.43-0.88-0.65-1.32c-0.3,0.43-0.69,0.83-0.87,1.3c-1.35,3.55-2.43,7.14-5.12,10.13c-2.44,2.7-4.22,5.99-6.31,9.01
			c-1.58,2.27-2.77,4.96-1.73,7.46c1.15,2.77,0.84,4.85-0.89,7c-0.27,0.33-0.57,0.64-0.86,0.96c-0.27-0.36-0.62-0.69-0.79-1.1
			c-0.17-0.42-0.24-0.92-0.21-1.38c0.05-1.11,0.45-2.28,0.23-3.32c-0.62-2.96-0.31-5.81,0.96-8.45c0.76-1.6,0.57-2.93,0.25-4.55
			c-0.39-2.01-0.82-4.35-0.18-6.17c1.21-3.42,1.84-6.83,1.63-10.39c-0.05-0.82-0.68-2.05-1.32-2.27c-0.79-0.26-2.17,0.04-2.76,0.63
			c-0.99,0.99-1.56,2.39-2.29,3.64c-0.84,1.44-1.93,2.81-2.4,4.36c-0.84,2.82-1.39,5.75-1.88,8.66c-0.39,2.3-0.91,4.64,0.4,6.91
			c3.35,5.83,4.72,12.38,6.53,18.75c1.36,4.79,1.92,9.8,3.07,14.66c1.25,5.3,1.38,10.7,1.78,16.08c0.19,2.58,0.13,5.18,0,7.77
			c-0.12,2.43-0.39,4.86-0.73,7.28c-0.32,2.26-0.02,3.07,2.1,4.06c1.39,0.65,2.82,1.25,4.29,1.7c4.74,1.43,9.45,1.67,13.67-1.39
			c1.63-1.19,2.79-3,4.26-4.42c4.04-3.89,5.75-9.05,7.44-14.12c0.99-2.96,0.76-6.32,1.64-9.33c1.78-6.07,3.35-12.25,6.21-17.96
			c0.12-0.24,0.08-0.56,0.11-0.84c-0.34,0.03-0.77-0.06-1.01,0.11c-2.25,1.58-4.46,3.23-6.72,4.8c-0.45,0.31-1.09,0.36-1.64,0.52
			c0.01-0.64-0.25-1.5,0.07-1.88c0.85-1.02,1.88-1.9,2.94-2.71C1104.8,337.82,1106.74,336.51,1108.83,334.97 M927.28,312.57
			c-0.06,0.28-0.24,0.6-0.16,0.83c0.26,0.73,0.63,1.42,0.95,2.13c0.5-0.52,1.06-1,1.49-1.57c0.34-0.44,0.6-0.97,0.76-1.5
			c0.14-0.47,0.11-1,0.15-1.5c-0.66,0.01-1.4-0.16-1.96,0.08C928.06,311.24,927.81,311.92,927.28,312.57 M932.47,308.87
			c0.21-0.71,0.51-1.4,0.61-2.13c0.07-0.48,0.06-1.18-0.23-1.46c-0.27-0.26-1.04-0.27-1.44-0.08c-1.34,0.63-1.11,1.96-0.89,3.02
			C930.59,308.6,931.66,308.79,932.47,308.87 M924.51,320.53c2.15,0.98,1.71-1.11,2.16-1.96c0.22-0.42-0.23-1.2-0.38-1.81
			c-0.55,0.23-1.19,0.34-1.63,0.7C923.68,318.27,923.5,319.28,924.51,320.53 M956.52,255.95c0.06-0.28,0.17-0.56,0.17-0.84
			c0-0.56-0.06-1.11-0.09-1.67c-0.42,0.24-0.91,0.42-1.26,0.75c-0.41,0.4-0.94,0.89-0.99,1.39c-0.08,0.71,0.22,1.47,0.36,2.21
			C955.26,257.24,955.8,256.69,956.52,255.95 M939.68,293.14c-0.17-0.54-0.34-1.08-0.51-1.62c-0.34,0.44-0.86,0.82-1,1.32
			c-0.33,1.22-0.52,2.48-0.69,3.73c-0.04,0.25,0.23,0.55,0.35,0.82c0.24-0.23,0.6-0.41,0.71-0.7
			C938.97,295.66,939.31,294.58,939.68,293.14 M952.64,260.94c0.11,0.93,0.21,1.85,0.32,2.78c0.32-0.61,0.66-1.22,0.96-1.85
			c0.2-0.4,0.51-0.84,0.48-1.25c-0.05-0.71-0.33-1.39-0.51-2.09c-0.42,0.5-0.85,0.98-1.24,1.5
			C952.56,260.15,952.64,260.39,952.64,260.94 M943.75,280.93c-0.35,0.6-0.97,1.19-0.98,1.79c-0.01,0.79,0.46,1.6,0.72,2.39
			c0.31-0.25,0.81-0.47,0.88-0.77c0.24-1.15,0.45-2.33,0.45-3.5C944.83,280.05,944.34,279.79,943.75,280.93 M1060.53,333.3
			c0.22-0.22,0.46-0.41,0.64-0.65c0.24-0.32,0.44-0.67,0.66-1c-0.41-0.19-0.8-0.42-1.23-0.55c-0.28-0.08-0.66-0.12-0.9,0.01
			c-0.56,0.31-1.53,0.8-1.49,1.1C1058.34,333.17,1058.99,333.85,1060.53,333.3 M940.61,286.67c-1.2,0.68-1,1.85-0.88,2.9
			c0.05,0.4,0.61,0.74,0.95,1.11c0.41-0.8,0.99-1.58,1.16-2.43C941.92,287.79,941.29,287.2,940.61,286.67 M948.2,270.94
			c-0.12,0.74-0.33,1.48-0.33,2.21c0,0.31,0.41,0.62,0.63,0.93c0.27-0.26,0.67-0.48,0.78-0.8c0.23-0.64,0.34-1.33,0.42-2.01
			c0.06-0.54,0.01-1.09,0.01-1.63C949.27,270.01,948.82,270.38,948.2,270.94 M922.66,322.75c-0.37,1.01-0.79,2-1.07,3.03
			c-0.06,0.22,0.31,0.6,0.55,0.83c0.07,0.06,0.54-0.11,0.58-0.25c0.38-1.25,0.71-2.52,1.05-3.78
			C923.4,322.52,923.03,322.45,922.66,322.75 M957.45,248.73c-1.23,1-0.34,2.22-0.31,3.35c0,0.06,0.68,0.27,0.84,0.15
			C958.99,251.48,958.76,249.28,957.45,248.73 M950.42,268.35c1.51,0.09,1.53,0.09,1.46-1.88c-0.02-0.43-0.31-0.84-0.47-1.26
			c-0.45,0.4-1.1,0.72-1.3,1.23C949.91,266.91,950.17,267.58,950.42,268.35 M946.16,279.26c0.34-1.14,0.69-2.28,1.03-3.41
			c-0.17-0.02-0.41-0.12-0.51-0.04C945.56,276.7,945.11,277.75,946.16,279.26 M934.5,301.66c0.24,0.89,0.81,1.43,1.35,0.4
			c0.33-0.63-0.02-1.61-0.07-2.43c-0.38,0.51-0.77,1.02-1.15,1.53C934.59,301.2,934.55,301.24,934.5,301.66 M915.81,334.41
			c-0.17,0.32-0.34,0.65-0.51,0.97c0.16,0.05,0.31,0.09,0.47,0.14C915.84,335.21,915.92,334.9,915.81,334.41z"/>
		<path class="st1" d="M997.79,384.01c2.59-4.79,5.18-9.39,7.77-13.99c0.08-0.15,0.1-0.39,0.22-0.45c0.7-0.39,1.42-0.74,2.13-1.1
			c-0.17,0.66-0.2,1.39-0.52,1.95c-2.08,3.65-4.22,7.26-6.33,10.89c-0.13,0.22-0.14,0.5-0.21,0.76c0.3-0.11,0.73-0.14,0.87-0.35
			c2.73-4.17,5.39-8.38,8.15-12.53c0.92-1.38,2.03-2.64,3.13-3.89c3.25-3.66,6.47-7.36,9.84-10.9c1.56-1.64,3.47-2.94,5.17-4.45
			c1.63-1.45,3.25-2.92,4.75-4.49c0.42-0.44,0.5-1.29,0.54-1.97c0.11-1.68,1.53-3.53,3.12-3.81c0.27-0.05,0.73,0.18,0.85,0.41
			c0.1,0.2-0.11,0.66-0.32,0.86c-0.65,0.61-1.45,1.08-2.02,1.75c-0.27,0.32-0.12,0.98-0.16,1.49c0.35-0.2,0.81-0.32,1.03-0.61
			c2.02-2.69,4.92-4.3,7.56-6.24c0.56-0.41,0.94-1.32,1.03-2.06c0.28-2.14,1.92-3.02,3.68-1.86c0.23,0.15,0.54,0.22,0.82,0.25
			c2.09,0.21,5.43-2.25,5.94-4.25c0.13-0.52,0.6-1,1.03-1.37c0.18-0.15,0.66,0.05,1,0.09c-0.06,0.3-0.09,0.61-0.2,0.89
			c-0.23,0.58-0.44,1.19-0.76,1.72c-0.46,0.76-0.88,1.63-1.56,2.15c-1.2,0.92-1.64,1.86-1.26,3.39c0.18,0.71-0.05,1.94-0.55,2.3
			c-0.83,0.6-2.02,0.73-3.08,0.98c-0.13,0.03-0.56-0.45-0.53-0.63c0.05-0.3,0.33-0.68,0.6-0.79c1.02-0.39,1.51-1.12,1.1-2.07
			c-0.14-0.32-1.22-0.54-1.67-0.34c-0.8,0.36-1.94,0.57-1.32,2.14c0.79,2-1.41,4.73-3.56,4.66c-0.37-0.01-0.72-0.32-1.08-0.5
			c0.2-0.32,0.38-0.67,0.62-0.95c0.39-0.47,0.99-0.84,1.21-1.38c0.2-0.5,0.03-1.16,0.02-1.75c-0.39,0.25-0.8,0.48-1.17,0.75
			c-0.53,0.38-1.05,0.76-1.55,1.18c-0.85,0.71-0.87,1.38-0.15,2.32c0.41,0.53,0.65,1.77,0.33,2.16c-0.67,0.81-1.77,1.28-2.69,1.88
			c-0.12-0.43-0.38-0.89-0.32-1.29c0.12-0.77,0.43-1.52,0.66-2.27c-0.35-0.05-0.84-0.26-1.03-0.11c-0.68,0.55-1.42,1.14-1.83,1.89
			c-0.28,0.53,0.1,1.37-0.09,2c-0.38,1.25-0.85,2.49-1.49,3.63c-0.21,0.37-1.01,0.49-1.57,0.56c-0.28,0.04-0.73-0.22-0.86-0.47
			c-0.1-0.18,0.19-0.58,0.33-0.87c0.38-0.77,0.8-1.52,1.16-2.3c0.1-0.22,0.05-0.5,0.07-0.76c-0.29,0.03-0.68-0.04-0.85,0.12
			c-0.78,0.7-1.71,1.35-2.17,2.24c-0.36,0.7-0.09,1.72-0.14,2.59c-0.07,1.19,0.2,2.53-1.25,3.17c-0.46,0.2-0.95,0.32-1.43,0.47
			c-0.09-0.58-0.22-1.15-0.27-1.74c-0.05-0.63-0.03-1.27-0.04-1.9c-0.48,0.5-1.11,0.92-1.41,1.51c-0.25,0.48-0.25,1.19-0.12,1.74
			c0.44,1.83,0.02,2.9-1.64,3.66c-0.35,0.16-0.75,0.18-1.13,0.27c-0.04-0.41-0.09-0.83-0.1-1.24c-0.01-0.55,0.01-1.1,0.01-1.65
			c-0.38,0.54-0.96,1.04-1.1,1.63c-0.36,1.54-0.46,3.13-0.82,4.67c-0.13,0.58-0.57,1.2-1.05,1.57c-0.46,0.35-1.15,0.41-1.74,0.59
			c0.08-0.54,0.14-1.09,0.26-1.63c0.15-0.68,0.35-1.35,0.5-2.03c0.01-0.03-0.46-0.21-0.48-0.18c-0.4,0.69-0.8,1.39-1.14,2.12
			c-0.1,0.2,0.09,0.61-0.03,0.71c-2.09,1.76-1.44,3.61-0.44,5.65c0.22,0.46-0.41,1.87-0.94,2.06c-1.91,0.7-2.39,2.14-2.71,3.88
			c-0.19,1.03-3.51,2.14-4.34,1.52c-0.13-0.1-0.07-0.79,0.07-0.86c1.25-0.61,1.6-1.64,1.87-2.94c0.16-0.74,1.09-1.32,1.67-1.97
			c0.62-0.68,1.45-1.27,1.79-2.07c0.19-0.44-0.44-1.23-0.71-1.86c-0.35,0.26-0.79,0.45-1.03,0.78c-1.64,2.21-3.13,4.55-4.89,6.65
			c-1.32,1.58-0.38,3.09-0.16,4.53c0.26,1.7,0.41,3.14-0.93,4.43c-0.32,0.31-0.72,0.81-0.68,1.17c0.27,2.27-1.53,3.02-2.85,4.16
			c-0.38,0.33-0.74,0.81-0.86,1.29c-0.23,0.87-0.35,1.78-0.38,2.68c-0.02,0.79,0.11,1.58,0.23,2.37c0.18,1.21,0.39,2.34-0.78,3.3
			c-0.77,0.62-1.33,1.5-1.96,2.29c-0.89,1.11-1.74,2.24-2.65,3.33c-0.04,0.05-0.76-0.31-0.75-0.41c0.29-1.78,0.58-3.56,1.04-5.31
			c0.08-0.32,0.94-0.37,1.33-0.68c0.5-0.41,1.33-1.16,1.22-1.42c-0.31-0.72-0.97-1.36-1.64-1.82c-0.15-0.1-1.15,0.53-1.3,0.98
			c-0.92,2.71-1.53,5.54-2.61,8.17c-0.4,0.96-1.8,1.52-2.76,2.22c-0.02,0.02-0.47-0.35-0.45-0.51c0.06-0.69,0.14-1.41,0.36-2.07
			c1.33-4.01,2.56-8.07,4.12-11.99C997.2,388.44,997.8,386.41,997.79,384.01 M1001.12,386.04c-0.21,0.68-0.83,1.52,0.54,1.65
			c0.81,0.08,3.1-2.56,2.69-3.16c-0.73-1.05,0.03-1.56,0.62-1.91c1.56-0.92,1.76-2.35,1.69-3.9c-0.01-0.31-0.29-0.61-0.44-0.92
			c-0.22,0.22-0.48,0.41-0.64,0.66C1004.08,380.86,1002.6,383.27,1001.12,386.04 M999.46,391.78c1.53,0.59,1.89,0.15,1.64-2.16
			c-0.04-0.41-0.39-0.78-0.59-1.18c-0.29,0.31-0.72,0.57-0.84,0.93C999.45,390.09,999.39,390.85,999.46,391.78z"/>
		<path class="st1" d="M920.81,341.44c-0.51,0.3-1.01,0.41-1.52,0.52c0.01-0.52-0.17-1.17,0.07-1.53c1.25-1.83,2.63-3.58,3.93-5.37
			c0.47-0.65,0.82-1.4,1.33-2.01c0.22-0.27,0.71-0.33,1.07-0.49c-0.02,0.31-0.03,0.63-0.07,0.94
			C925.17,336.8,922.59,338.78,920.81,341.44z"/>
		<path class="st1" d="M926.36,330.71c0.01-0.81-0.22-1.59,0.07-2.04c1.38-2.14,2.88-4.21,4.39-6.27c0.19-0.26,0.66-0.33,1-0.48
			c-0.06,0.38-0.04,0.8-0.21,1.12c-1.05,1.96-2.14,3.89-3.22,5.83c-0.3,0.55-0.54,1.15-0.95,1.62
			C927.22,330.74,926.73,330.77,926.36,330.71z"/>
		<path class="st1" d="M938.85,311.37c-0.53,0.9-0.92,1.72-1.41,2.49c-0.17,0.26-0.57,0.38-0.86,0.56c-0.2-0.34-0.61-0.72-0.56-1.01
			c0.17-0.89,0.38-1.82,0.84-2.59c0.65-1.1,1.51-2.09,2.33-3.09c0.2-0.24,0.59-0.33,0.9-0.49c0.11,0.44,0.44,0.97,0.3,1.32
			C940.01,309.51,939.44,310.38,938.85,311.37z"/>
		<path class="st1" d="M1019.35,355.05c-0.22,0.65-0.45,1.28-0.86,1.75c-1.4,1.59-2.85,3.14-4.3,4.69
			c-0.22,0.23-0.52,0.39-0.78,0.58c-0.15-0.37-0.37-0.73-0.42-1.11c-0.03-0.24,0.15-0.55,0.31-0.78
			C1014.84,357.93,1016.77,356.12,1019.35,355.05z"/>
		<path class="st1" d="M925.62,273.34c-0.21,0.22-0.51,0.37-0.61,0.28c-1.4-1.23-2.8-2.45-4.12-3.77c-0.32-0.32-0.31-0.96-0.45-1.45
			c0.38-0.08,0.79-0.29,1.14-0.22C923.08,268.46,925.61,271.63,925.62,273.34z"/>
		<path class="st1" d="M947.55,290.83c-1.62,0.41-1.32-0.76-1.12-1.42c0.42-1.35,1.05-2.64,1.67-3.92c0.2-0.41,0.66-0.7,0.99-1.05
			c0.19,0.53,0.67,1.16,0.53,1.58C949.07,287.63,948.32,289.17,947.55,290.83z"/>
		<path class="st1" d="M943.29,302.12c-0.93,0.88-1.49,0.24-1.33-0.43c0.39-1.72,1.02-3.39,1.67-5.03c0.12-0.3,0.81-0.37,1.24-0.55
			c0.07,0.54,0.34,1.16,0.17,1.62c-0.45,1.22-1.1,2.37-1.64,3.57C943.31,301.5,943.38,301.78,943.29,302.12z"/>
		<path class="st1" d="M1022.22,351.81c0.91-1.34,1.73-2.58,2.75-3.61c0.57-0.57,1.47-0.82,2.24-1.19c0.19-0.09,0.43-0.07,0.65-0.11
			c-0.03,0.22,0.02,0.5-0.1,0.64c-1.36,1.52-2.72,3.06-4.17,4.5C1023.37,352.25,1022.69,352.02,1022.22,351.81z"/>
		<path class="st1" d="M962.54,250.3c0.63-0.65,1.16-1.2,1.7-1.76c-0.04,0.81-0.07,1.63-0.14,2.44c-0.02,0.21-0.13,0.44-0.27,0.61
			c-0.31,0.36-0.66,0.69-0.99,1.03c-0.19-0.46-0.44-0.91-0.55-1.39C962.22,250.98,962.38,250.67,962.54,250.3z"/>
		<path class="st1" d="M961.89,257.8c0,0.37,0.08,0.61-0.01,0.73c-0.39,0.52-0.83,1-1.25,1.49c-0.17-0.7-0.38-1.39-0.5-2.1
			c-0.03-0.18,0.18-0.41,0.29-0.6c0.26-0.46,0.53-0.91,0.8-1.36C961.44,256.5,961.66,257.06,961.89,257.8z"/>
		<path class="st1" d="M957.17,265.85c0.03-1.08,0.1-2.08,0.34-3.03c0.03-0.14,1.14-0.27,1.29-0.07
			C959.46,263.65,958.44,265.66,957.17,265.85z"/>
		<path class="st1" d="M952.27,277.41c0.12-0.68,0.21-1.19,0.38-1.67c0.11-0.32,0.34-0.59,0.51-0.89c0.26,0.24,0.76,0.51,0.73,0.71
			c-0.13,0.97-0.4,1.92-0.62,2.88C952.94,278.16,952.6,277.88,952.27,277.41z"/>
		<path class="st1" d="M937.37,250.86c0.43,0.18,0.78,0.22,1.08,0.37c0.19,0.09,0.3,0.33,0.45,0.5c-0.23,0.05-0.46,0.16-0.67,0.14
			c-0.99-0.1-1.99-0.22-2.97-0.38c-0.15-0.02-0.26-0.29-0.39-0.44c0.13-0.09,0.25-0.26,0.38-0.27
			C935.93,250.75,936.6,250.77,937.37,250.86z"/>
		<path class="st1" d="M956.34,270.75c-0.25-0.16-0.39-0.34-0.36-0.47c0.12-0.56,0.3-1.11,0.45-1.66c0.26,0.2,0.77,0.46,0.74,0.6
			C957.05,269.75,956.76,270.24,956.34,270.75z"/>
		<path class="st1" d="M1073.39,366.52c-0.59-1.24-1.12-2.38-1.54-3.56c-0.12-0.32,0.12-0.77,0.2-1.16
			c0.37,0.14,0.75,0.28,1.12,0.42c0.27,0.1,0.52,0.26,0.79,0.31c0.51,0.08,1.04,0.1,1.56,0.14c-0.27-0.75-0.37-1.66-0.87-2.21
			c-0.69-0.76-1.77-1.16-2.48-1.91c-0.35-0.36-0.51-1.54-0.31-1.68c0.98-0.65,1.21-2.63,3.05-1.8c1.45,0.66,2.95,1.22,4.36,1.95
			c0.36,0.18,0.68,0.87,0.62,1.27c-0.05,0.34-0.62,0.78-1.03,0.87c-0.48,0.1-1.05-0.24-1.55-0.17c-0.57,0.08-1.11,0.41-1.66,0.63
			c0.24,0.35,0.42,0.81,0.75,1.04c0.94,0.67,2,1.18,2.89,1.9c0.38,0.31,0.64,1,0.59,1.49c-0.02,0.27-0.79,0.63-1.23,0.65
			c-0.62,0.03-1.25-0.21-1.87-0.36c-0.48-0.11-0.94-0.25-1.42-0.38c0.02,0.67-0.17,1.45,0.11,1.98c0.77,1.42,1.8,2.7,2.6,4.11
			c0.68,1.21-0.36,4.34-1.54,4.94c-0.16,0.08-0.54,0.06-0.6-0.05c-0.2-0.34-0.52-0.88-0.39-1.09
			C1077.55,370.65,1074.88,368.82,1073.39,366.52z"/>
		<path class="st1" d="M1079.22,341.81c-2.65-0.57-4.44-2.07-5.75-4.15c-0.12-0.2,0.21-0.87,0.51-1.08
			c0.27-0.19,1.01-0.21,1.14-0.02c1.68,2.45,4.24,3.19,6.92,3.83c0.62,0.15,1.09,0.95,1.63,1.44c-0.66,0.24-1.33,0.69-1.99,0.67
			C1080.91,342.48,1080.16,342.06,1079.22,341.81z"/>
		<path class="st1" d="M1091.15,329.88c0.7,0.7,1.33,1.28,1.9,1.92c0.25,0.28,0.37,0.67,0.54,1.01c-0.42,0.17-0.84,0.46-1.26,0.47
			c-1.8,0.05-3.33-1.35-3.46-3.19c-0.04-0.48,0.26-0.98,0.4-1.47c0.43,0.22,0.86,0.41,1.27,0.66
			C1090.74,329.4,1090.89,329.61,1091.15,329.88z"/>
		<path class="st1" d="M1087.08,348.75c-0.57-0.47-1.06-0.86-1.54-1.24c0.74-0.39,0.95-1.86,2.31-0.99c0.7,0.45,1.6,0.58,2.35,0.96
			c0.23,0.11,0.47,0.64,0.39,0.84c-0.11,0.25-0.54,0.48-0.85,0.5C1088.89,348.89,1088.03,348.85,1087.08,348.75z"/>
		<path class="st1" d="M1062.93,306.65c-0.62-0.22-1.05-0.43-1.48-0.65c0.38-0.4,0.74-0.82,1.15-1.19c0.1-0.09,0.35-0.02,0.53-0.03
			c0.83-0.02,1.66-0.05,2.49-0.05c0.05,0,0.17,0.35,0.15,0.36C1064.89,305.62,1064,306.14,1062.93,306.65z"/>
		<path class="st1" d="M1084.49,320.99c-0.46-0.47-0.82-0.85-1.18-1.22c0.53-0.18,1.09-0.55,1.59-0.49c0.7,0.09,1.36,0.5,2,0.84
			c0.05,0.02-0.13,0.8-0.28,0.83C1085.95,321.08,1085.26,321.06,1084.49,320.99z"/>
		<path class="st1" d="M1098.09,341.07c-0.49,0-0.89,0.12-1.08-0.02c-0.55-0.41-1.03-0.91-1.47-1.43c-0.04-0.05,0.46-0.76,0.59-0.72
			c0.81,0.23,1.61,0.54,2.34,0.96C1098.59,339.93,1098.35,340.65,1098.09,341.07z"/>
		<path class="st1" d="M1075.79,310.08c0.09,0.39,0.2,0.75,0.07,0.99c-0.27,0.51-0.65,0.96-0.98,1.43
			c-0.16-0.42-0.56-0.95-0.42-1.23C1074.71,310.76,1075.27,310.4,1075.79,310.08z"/>
	</g>
</g>
<g id="borsten">
	<g id="Vorm_10_1_">
		<path class="st1" d="M1049.4,668.69c-3.14,2.26-6.09,4.58-9.26,6.52c-1.98,1.21-4.35,1.75-6.46,2.77
			c-1.65,0.79-3.09,2.05-4.77,2.76c-3.19,1.35-6.45,2.54-9.73,3.65c-1.96,0.66-4,1.11-6.03,1.54c-2.82,0.59-5.66,1.06-8.5,1.59
			c-1.3,0.24-2.6,0.72-3.89,0.68c-5.04-0.15-10.15-0.04-15.1-0.84c-4.75-0.77-9.49-2.17-13.93-4.02c-5.54-2.3-11.04-4.88-15.93-8.47
			c-3.48-2.55-6.87-5.24-10.19-8c-5.59-4.64-10.84-9.67-14.47-16.05c-1.77-3.1-3.01-6.5-4.5-9.76c-1.48-3.26-3.02-6.5-4.42-9.8
			c-0.5-1.17-0.99-2.54-0.84-3.75c0.16-1.32,1.12-1.43,1.88-0.31c0.86,1.27,1.64,2.62,2.27,4.01c2.84,6.19,5.15,12.69,8.56,18.54
			c3.51,6.02,8.16,11.29,14.13,15.27c2.85,1.9,5.14,4.62,7.94,6.6c2.89,2.05,6.01,3.82,9.19,5.4c3.73,1.85,7.57,3.5,11.47,4.98
			c2.15,0.82,4.49,1.13,6.75,1.64c1.22,0.28,2.45,0.61,3.69,0.75c2.9,0.32,5.8,0.56,8.71,0.78c7.44,0.56,14.49-1.39,21.58-3.26
			c5.82-1.54,10.84-4.82,16.3-7.14c4.4-1.88,8.56-4.14,12.28-7.15c1.5-1.22,2.77-2.73,4.16-4.09c0.54-0.54,1.04-1.2,1.7-1.51
			c0.47-0.22,1.29-0.1,1.73,0.19c0.3,0.2,0.31,0.97,0.31,1.49c0.01,2.15-1.74,2.93-3.18,3.94
			C1050.38,667.95,1049.94,668.27,1049.4,668.69z"/>
		<path class="st1" d="M775.04,672.5c2.84,0.68,5.56,1.59,8.33,1.77c4.75,0.32,9.52,0.22,14.29,0.21c1.85,0,3.71-0.17,5.56-0.37
			c4.3-0.47,8.61-0.94,12.9-1.53c2.92-0.4,5.85-0.82,8.69-1.56c2.43-0.63,4.79-1.61,7.09-2.64c3.43-1.55,6.8-3.22,10.15-4.94
			c4.04-2.09,7.66-4.75,11.09-7.76c6.9-6.05,11.51-13.7,15.53-21.76c1.44-2.87,2.36-6.01,3.52-9.02c0.13-0.33,0.16-0.76,0.4-0.97
			c0.81-0.7,1.69-1.31,2.55-1.96c0.03,0.96,0.38,2.04,0.05,2.86c-1.28,3.21-2.72,6.37-4.21,9.5c-1.82,3.82-3.69,7.63-5.68,11.36
			c-0.93,1.74-2.1,3.37-3.35,4.89c-1.97,2.4-3.92,4.88-6.23,6.92c-2.13,1.88-4.77,3.17-7.12,4.82c-4.87,3.42-10.38,5.57-15.64,8.24
			c-5.49,2.79-11.35,3.86-17.3,4.69c-4.68,0.65-9.4,1.08-14.1,1.54c-3.15,0.31-6.31,0.76-9.47,0.72c-4.95-0.07-9.9-0.37-14.72-1.81
			c-1.72-0.51-3.69-0.27-5.37-0.86c-3.78-1.34-7.61-2.68-10.72-5.4c-0.67-0.59-1.56-0.92-2.21-1.52c-0.89-0.82-2.27-1.71-1.2-3.11
			c1.09-1.43,2.35-0.23,3.32,0.37c1.54,0.95,2.99,2.07,4.37,3.25C768.27,670.74,771.7,671.33,775.04,672.5z"/>
		<path class="st1" d="M1002.88,635.89c3.62-1.09,3.55-1.04,5.17,1.13c1.2,1.6,0.43,2.99-0.34,4.27c-1.05,1.73-3.36,2.51-5.01,1.84
			c-1.53-0.62-2.08-1.82-2.05-3.49C1000.68,637.95,1001.13,636.66,1002.88,635.89z"/>
		<path class="st1" d="M800.78,632.46c0.7-3.05,3.16-4.57,5.53-3.3c1.3,0.69,2.02,1.93,1.82,3.55c-0.18,1.46-0.84,2.38-2.29,2.92
			C801.53,637.24,800.6,635.36,800.78,632.46z"/>
	</g>
</g>
</svg>
