<?xml version="1.0" encoding="utf-8"?>
<!-- Generator: Adobe Illustrator 23.0.4, SVG Export Plug-In . SVG Version: 6.00 Build 0)  -->
<svg version="1.1" xmlns="http://www.w3.org/2000/svg" xmlns:xlink="http://www.w3.org/1999/xlink" x="0px" y="0px"
	 viewBox="0 0 736 693" style="enable-background:new 0 0 736 693;" xml:space="preserve">
<style type="text/css">
	.st0{fill:#606060;}
	.st1{fill:#FFFFFF;}
</style>
<g id="knuppel">
	<path class="st0" d="M544,560.5c0,0-2-8-7-5s-7,14-5,15s5,3,8,1s29,11,29,11s30,16,33,19s30,23,38,25s38,25,49,18c6-5,6-26,1-29
		c-9.59-5.75-56-19-62-21S544,560.5,544,560.5z"/>
	<g id="Vorm_14_1_">
		<path class="st1" d="M598.69,610.37c-1.41-1.08-2.81-2.06-4.18-3.08c-2.1-1.56-4.18-3.15-6.26-4.72c-0.14-0.11-0.28-0.24-0.45-0.3
			c-1.41-0.48-2.52-1.36-3.58-2.41c-0.71-0.71-1.68-1.17-2.54-1.73c-0.65-0.42-1.28-0.87-1.96-1.25c-0.79-0.44-1.6-0.83-2.41-1.22
			c-0.65-0.31-1.31-0.65-1.99-0.88c-1.03-0.36-2.09-0.61-3.12-0.96c-0.95-0.32-1.87-0.73-2.81-1.09c-1.63-0.62-3.27-1.2-4.9-1.84
			c-0.34-0.14-0.6-0.49-0.94-0.65c-1.37-0.63-2.75-1.23-4.14-1.81c-1.2-0.5-2.41-0.96-3.62-1.43c-0.39-0.15-0.81-0.24-1.19-0.42
			c-1.11-0.52-2.2-1.09-3.31-1.59c-0.39-0.18-0.87-0.16-1.26-0.34c-0.78-0.37-1.5-0.85-2.28-1.23c-1.26-0.62-2.3-1.69-3.89-1.69
			c-0.72,0-1.47-0.37-2.15-0.69c-0.61-0.29-1.02-0.24-1.39,0.33c-0.19,0.29-0.48,0.51-0.71,0.77c-0.89,0.97-1.94,1.41-3.29,1.36
			c-1.16-0.04-2.24-0.06-3.29-0.76c-1.48-0.98-1.8-2.44-1.84-3.97c-0.06-2.4,0.44-4.68,1.51-6.88c0.78-1.62,1.09-3.48,1.88-5.09
			c0.85-1.73,2.78-2.84,4.78-2.54c1.54,0.23,3.1,0.59,3.98,1.96c0.68,1.05,0.96,2.35,1.48,3.51c0.18,0.39,0.51,0.82,0.88,1.01
			c1.22,0.63,2.53,1.1,3.75,1.73c2.76,1.41,5.47,2.9,8.23,4.3c1.01,0.51,2.12,0.84,3.16,1.32c2.1,0.96,4.15,2.04,6.28,2.91
			c2.96,1.22,5.99,2.28,8.98,3.43c0.93,0.36,1.82,0.82,2.73,1.21c0.43,0.19,0.9,0.3,1.33,0.48c2.42,1.04,4.81,2.15,7.26,3.11
			c2.47,0.96,5,1.77,7.5,2.63c1.19,0.41,2.38,0.81,3.57,1.23c1.96,0.69,3.92,1.36,5.87,2.08c1.59,0.58,3.15,1.23,4.74,1.8
			c2.02,0.73,4.06,1.43,6.1,2.11c2.4,0.8,4.81,1.57,7.21,2.36c1.49,0.49,2.95,1.09,4.47,1.48c2.59,0.66,5.23,1.13,7.82,1.8
			c1.4,0.36,2.74,0.93,4.09,1.44c1.54,0.58,3.05,1.26,4.61,1.79c1.61,0.55,3.27,0.96,4.91,1.45c1.22,0.37,2.45,0.73,3.64,1.16
			c2.24,0.8,4.44,1.7,6.69,2.48c2.09,0.72,4.22,1.31,6.32,1.98c1.15,0.36,2.3,0.73,3.42,1.16c3.89,1.51,7.77,3.07,11.66,4.59
			c1.15,0.45,2.35,0.76,3.48,1.22c0.67,0.27,1.26,0.74,1.9,1.08c1.43,0.75,2.88,1.45,4.3,2.21c0.31,0.17,0.6,0.49,0.77,0.8
			c0.54,0.99,1.16,1.97,1.48,3.03c0.55,1.82,1.25,3.59,1.47,5.53c0.17,1.52,0.29,3.01,0.12,4.52c-0.21,1.85-0.4,3.7-0.69,5.54
			c-0.15,0.96-0.43,1.91-0.76,2.83c-0.91,2.49-1.87,4.96-2.83,7.43c-0.15,0.39-0.37,0.76-0.62,1.09c-0.59,0.82-1.6,0.78-2.11-0.18
			c-0.4-0.74-0.94-0.78-1.65-0.76c-0.9,0.02-1.8-0.08-2.69-0.22c-1.87-0.29-3.74-0.6-5.6-0.96c-0.71-0.14-1.38-0.49-2.09-0.71
			c-1.76-0.55-3.55-1-5.27-1.65c-1.35-0.5-2.61-1.23-3.91-1.85c-0.12-0.06-0.24-0.13-0.37-0.16c-3.12-0.87-5.91-2.54-8.89-3.74
			c-1.34-0.54-2.69-1.07-4-1.68c-1.2-0.56-2.33-1.28-3.54-1.81c-1.6-0.7-3.24-1.35-4.9-1.91c-1.69-0.57-3.36-1.15-4.87-2.11
			c-0.16-0.1-0.35-0.15-0.52-0.24c-1.74-0.87-3.48-1.75-5.23-2.59c-0.69-0.33-1.47-0.48-2.13-0.85c-1.63-0.91-3.23-1.88-4.82-2.87
			c-1-0.62-1.95-1.32-2.93-1.98c-0.57-0.39-1.19-0.73-1.72-1.16c-1.35-1.11-2.79-2.07-4.26-3.02c-1.79-1.15-3.51-2.46-4.94-4.09
			c-0.41-0.46-1.1-0.66-1.63-1.02c-0.54-0.37-1.04-0.81-1.57-1.2c-0.83-0.6-1.7-1.14-2.5-1.77c-0.83-0.65-1.61-1.37-2.4-2.07
			c-1.62-1.43-3.23-2.87-4.83-4.31C599.11,610.9,598.92,610.66,598.69,610.37 M662.85,647.44c2.12,0.91,4.26,1.79,6.37,2.75
			c2.13,0.97,4.36,1.61,6.63,2.12c1.77,0.4,3.58,0.66,5.38,0.92c1.04,0.15,2.1,0.16,3.15,0.23c0.7,0.05,1.5-0.25,2.08,0.32
			c0.46,0.45,0.65,0.27,0.85-0.19c0.84-2.02,1.79-4,2.5-6.06c0.51-1.48,0.72-3.07,1.02-4.62c0.14-0.74,0.18-1.5,0.26-2.24
			c0.17-1.5,0.48-3,0.47-4.49c-0.01-1.21-0.39-2.42-0.65-3.62c-0.14-0.66-0.34-1.31-0.56-1.95c-0.42-1.18-0.87-2.35-1.34-3.52
			c-0.09-0.23-0.26-0.47-0.45-0.59c-0.79-0.51-1.57-1.03-2.41-1.44c-1.57-0.77-3.18-1.46-4.78-2.17c-1.08-0.49-2.15-0.98-3.24-1.45
			c-0.38-0.17-0.78-0.34-1.19-0.4c-1.82-0.27-3.47-1.06-5.02-1.94c-2.06-1.18-4.14-2.2-6.54-2.42c-0.2-0.02-0.41-0.03-0.6-0.1
			c-3.02-1.18-6.03-2.37-9.05-3.55c-0.56-0.22-1.13-0.39-1.71-0.55c-1.6-0.45-3.26-0.67-4.78-1.45c-1.08-0.56-2.32-0.82-3.48-1.22
			c-2.88-0.99-5.74-2.03-8.63-2.98c-2.09-0.68-4.21-1.29-6.33-1.85c-1.07-0.28-2.22-0.3-3.28-0.61c-1.49-0.44-2.92-1.07-4.39-1.56
			c-1.22-0.4-2.48-0.71-3.72-1.05c-1.19-0.33-2.41-0.58-3.57-0.99c-2.37-0.84-4.7-1.78-7.06-2.64c-2.07-0.75-4.16-1.43-6.23-2.18
			c-1.6-0.59-3.16-1.28-4.76-1.86c-1.09-0.4-2.23-0.69-3.35-1.02c-1.69-0.5-3.42-0.9-5.05-1.53c-2.5-0.97-4.94-2.12-7.42-3.17
			c-1.82-0.77-3.65-1.5-5.49-2.22c-2.39-0.93-4.79-1.82-7.19-2.73c-0.87-0.33-1.38-0.06-1.59,0.86c-0.12,0.52-0.14,1.12-0.41,1.55
			c-0.69,1.11-0.7,2.38-0.89,3.59c-0.05,0.33,0.45,0.95,0.83,1.1c2.08,0.81,4.2,1.5,6.3,2.25c0.85,0.31,1.69,0.66,2.53,1
			c1.28,0.53,2.66,0.91,3.83,1.63c2.08,1.29,4.02,2.81,6.06,4.18c1.93,1.29,3.9,2.51,5.85,3.77c1.71,1.1,3.44,2.18,5.11,3.34
			c0.91,0.63,1.73,1.38,2.55,2.13c0.91,0.82,1.74,1.74,2.65,2.55c1.52,1.35,3.07,2.69,4.65,3.98c2.46,2.02,4.95,4.01,7.44,5.99
			c0.66,0.52,1.42,0.93,2.07,1.45c1.83,1.47,3.62,2.99,5.46,4.44c0.65,0.51,1.41,0.87,2.1,1.33c1.88,1.25,3.72,2.56,5.62,3.77
			c0.89,0.57,1.9,0.95,2.85,1.43c1.3,0.66,2.6,1.34,3.9,2c0.38,0.19,0.79,0.34,1.17,0.53c1.79,0.88,3.55,1.84,5.38,2.64
			c1.89,0.83,3.87,1.45,5.78,2.26c2.39,1.01,4.75,2.1,7.11,3.18c1.37,0.62,2.69,1.33,4.07,1.93
			C660.69,646.7,661.73,647.02,662.85,647.44 M533.61,577.3c-0.02,0.85-0.09,1.7-0.06,2.55c0.04,1.35,0.42,1.85,1.66,2.19
			c1.07,0.3,2.15,0.32,2.96-0.59c1.1-1.24,1.98-2.63,2.52-4.21c0.71-2.07,1.32-4.18,2.07-6.24c0.54-1.45,0.4-3.58-0.83-4.32
			c-0.27-0.16-0.6-0.24-0.86-0.41c-1.89-1.21-4.02-0.41-4.68,1.73c-0.36,1.18-0.82,2.32-1.18,3.5
			C534.64,573.37,534.1,575.26,533.61,577.3z"/>
		<path class="st1" d="M653.22,622.45c1.57,1.21,3.36,1.87,5.09,2.66c0.53,0.24,1.09,0.4,1.62,0.62c0.12,0.05,0.29,0.29,0.26,0.36
			c-0.09,0.17-0.3,0.44-0.42,0.42c-0.92-0.16-1.91-0.23-2.74-0.61c-2.07-0.94-4.06-2.05-6.09-3.07c-0.44-0.22-0.81-0.4-0.55-1.01
			c0.05-0.11-0.2-0.34-0.31-0.52c-0.06-0.1-0.12-0.19-0.18-0.29c0.12,0,0.25-0.05,0.35-0.01c0.41,0.18,0.81,0.39,1.21,0.59
			C652.03,621.87,652.6,622.15,653.22,622.45z"/>
		<path class="st1" d="M659.08,641.96c-0.39-0.2-0.73-0.38-1.07-0.56c0.34,0.05,0.68,0.1,1.02,0.15c0.12,0.02,0.26,0.01,0.37,0.05
			c1.81,0.6,3.6,1.25,5.43,1.79c1.52,0.44,3.08,0.74,4.61,1.11c0.9,0.22,1.83,0.35,2.67,0.7c1.35,0.56,2.78,0.6,4.19,0.84
			c0.15,0.03,0.33,0.01,0.44,0.09c0.15,0.11,0.24,0.3,0.36,0.45c-0.16,0.08-0.33,0.23-0.49,0.22c-0.35-0.02-0.73-0.06-1.04-0.21
			c-1.7-0.85-3.59-0.73-5.37-1.14c-1.14-0.26-2.3-0.48-3.42-0.81c-1.65-0.48-3.28-1.01-4.91-1.56
			C660.93,642.76,660.04,642.35,659.08,641.96z"/>
		<path class="st1" d="M687.66,642.27c-0.27,0.84-0.56,1.61-0.88,2.36c-0.05,0.12-0.24,0.19-0.36,0.29
			c-0.06-0.16-0.2-0.33-0.17-0.47c0.32-1.49,0.66-2.98,1-4.46c0.2-0.89,0.4-1.79,0.64-2.67c0.06-0.23,0.2-0.47,0.36-0.64
			c0.13-0.14,0.36-0.18,0.55-0.26c0.02,0.19,0.09,0.4,0.04,0.58C688.44,638.73,688.03,640.46,687.66,642.27z"/>
		<path class="st1" d="M642.86,619.44c1.41,0.51,2.78,0.98,4.13,1.49c0.19,0.07,0.32,0.31,0.47,0.47c-0.21,0.02-0.45,0.1-0.64,0.04
			c-1.64-0.5-3.28-0.99-4.9-1.56c-1.25-0.44-2.46-1-3.68-1.52c-0.11-0.05-0.18-0.16-0.27-0.25c0.13-0.06,0.29-0.21,0.39-0.18
			c0.82,0.22,1.64,0.44,2.44,0.71C641.48,618.88,642.14,619.16,642.86,619.44z"/>
		<path class="st1" d="M635.81,616.9c0.15,0.07,0.27,0.09,0.34,0.16c0.13,0.14,0.22,0.3,0.33,0.46c-0.19,0.02-0.4,0.1-0.56,0.05
			c-0.43-0.15-0.83-0.35-1.24-0.55c-0.07-0.03-0.09-0.15-0.14-0.23c0.09-0.03,0.18-0.09,0.26-0.07
			C635.13,616.75,635.44,616.82,635.81,616.9z"/>
		<path class="st1" d="M649.19,620.77c-0.13-0.06-0.2-0.08-0.27-0.12c-0.16-0.1-0.32-0.2-0.47-0.32c-0.01-0.01,0.12-0.24,0.15-0.24
			c0.22,0.05,0.46,0.09,0.65,0.21c0.19,0.13,0.33,0.34,0.49,0.52C649.57,620.81,649.41,620.8,649.19,620.77z"/>
		<path class="st1" d="M647.87,636.49c0.08-0.07,0.15-0.12,0.18-0.1c0.3,0.16,0.59,0.33,0.88,0.5c0,0-0.04,0.08-0.06,0.13
			C648.53,636.86,648.18,636.7,647.87,636.49z"/>
		<path class="st1" d="M640.25,632c0.13,0.2,0.2,0.37,0.28,0.55c-0.22-0.11-0.43-0.22-0.65-0.33
			C639.99,632.13,640.09,632.05,640.25,632z"/>
		<path class="st1" d="M630.1,614.47c0.2,0.17,0.34,0.31,0.49,0.45c-0.14-0.02-0.33,0.02-0.42-0.06
			C630.09,614.77,630.09,614.58,630.1,614.47z"/>
		<path class="st1" d="M633.56,628.36c0.11,0.18,0.16,0.33,0.22,0.48c-0.18-0.1-0.36-0.2-0.54-0.3
			C633.33,628.48,633.42,628.41,633.56,628.36z"/>
	</g>
</g>
<g id="sluitels">
	<path class="st0" d="M176.5,142c-1-9-9-50-9-50s-6-8-15-7c-3.29,0.36-6.36,0.8-8.96,1.2c0.71-14.35-5.89-18.71-14.04-40.2
		c-5.5-14.5-32.41-21.04-52-16C60,34.5,53,49.5,48.5,65c-6.44,22.17,14,44,14,44l1.8,2.39c-13.47,15.24-32.2,37.42-4.3,72.11
		c-6,29-4,30-4,30l8.1,6.11L31,307.5l5,24l19-13c-0.5-4.5,4.5-10.5,4.5-10.5s-2-2,0-4s9-18,9-18v-7l3-7l7-9l-1-17l10-5l5-17l-3-5
		l9-2l5,64l10,16l11-16l-5-3l-2-10l6,1l-7-11l8-9l-7-8l3-9c0,0,4-5,3-5s0-7,0-7l18,67l13,12l9-19l-3-12l3-7l-3-6h-8v-11l4-9l-4-5
		c-4,0-6-3-6-3l-4-8l6-5l-1-8l7-8l-2-21l21-23C173.5,154,177.5,151,176.5,142z M124,87.5c0,0-44-4-50,11
		c-0.83,2.08-2.41,4.33-4.42,6.79c-1.52-1.22-3.49-2.92-6.08-5.29c-15.8-14.43-4-50,7-59s34.22-7.13,43.5-0.5
		c10.5,7.5,15.53,24.72,18,30c2.5,5.36,3.73,13.02,4.22,16.96c-0.13,0.03-0.22,0.04-0.22,0.04H124z"/>
	<g id="Vorm_13_1_">
		<path class="st1" d="M97.3,249.82c0.7-1.56,1.83-3.05,1.85-4.56c0.02-2.41,1.22-4.32,1.91-6.42c0.61-1.86,0.36-3.26-1.03-4.54
			c-2.57-2.39-1.31-3.27,0.75-4.7c1.25-0.87,2.51-2.17,3.87-2.31c3.08-0.32,2.52-2.59,2.66-4.31c0.22-2.66-0.05-5.35,0.09-8.01
			c0.11-2.24,0.32-4.51,0.87-6.67c0.24-0.94,1.3-1.83,2.19-2.43c2.52-1.68,5.31-2.72,8.27-3.53c3.39-0.93,6.61-2.51,9.9-3.8
			c1.71-0.67,3.46-1.23,5.13-1.97c1.07-0.48,2.01-1.24,3.04-1.81c1.65-0.91,3.48-1.57,4.94-2.71c2.02-1.58,3.87-3.42,5.62-5.31
			c1.74-1.88,3.35-3.89,4.88-5.95c1.2-1.62,2.13-3.45,3.28-5.12c3.05-4.42,4.13-9.65,6.03-14.53c0.76-1.95,0.68-4.23,0.96-6.36
			c0.37-2.78,0.89-5.55,1.03-8.34c0.13-2.51-0.1-5.05-0.3-7.56c-0.12-1.57-0.52-3.12-0.72-4.69c-0.43-3.38-1.52-6.5-3.13-9.52
			c-2.01-3.77-5.66-5.89-8.39-8.92c-2.59-2.88-4.83-6.07-7.46-8.9c-1.24-1.33-2.93-2.37-4.6-3.14c-2.68-1.22-5.51-2.15-8.3-3.11
			c-1.07-0.37-2.22-0.56-3.35-0.71c-1.26-0.17-2.53-0.22-3.81-0.28c-2.21-0.11-4.44-0.11-6.64-0.3c-1.43-0.13-2.83-0.62-4.27-0.75
			c-1.07-0.09-2.18,0.11-3.26,0.24c-1.24,0.15-2.51,0.2-3.69,0.56c-2.42,0.75-4.89,1.49-7.16,2.61c-1.93,0.95-3.64,2.37-5.37,3.68
			c-1.94,1.47-3.82,3.01-5.66,4.6c-0.44,0.38-0.52,1.15-0.9,1.63c-0.58,0.73-1.26,1.39-1.94,2.04c-0.3,0.29-0.79,0.42-1,0.74
			c-0.6,0.93-0.78,1.65,0.5,2.45c1.72,1.07,3.1,2.68,4.78,3.83c3.67,2.53,7.52,4.75,11.96,5.7c0.72,0.15,1.38,0.6,2.09,0.81
			c1.37,0.4,2.76,0.74,4.16,1.05c0.71,0.16,1.45,0.21,2.18,0.28c1.2,0.12,1.54-0.68,1.59-1.63c0.17-3.11,1.81-5.55,3.7-7.78
			c1.35-1.6,2.95-3.16,4.75-4.15c1.79-0.99,3.95-1.59,5.99-1.71c1.18-0.07,2.55,0.99,3.65,1.79c2.53,1.85,5.14,3.73,6.67,6.55
			c0.76,1.4,1.19,3.07,1.42,4.66c0.24,1.65-0.09,3.37,0.08,5.04c0.36,3.52-1.21,6.48-2.43,9.6c-1.48,3.77-4,6.81-6.52,9.85
			c-0.79,0.96-2.1,1.62-3.29,2.08c-1.83,0.71-3.74,1.33-5.67,1.61c-2.29,0.34-4.65,0.07-6.49-1.52c-2.23-1.92-4.28-4.05-6.45-6.04
			c-0.72-0.66-0.34-1.23-0.09-1.9c0.19-0.51,0.48-1.15,0.33-1.59c-0.59-1.74-0.67-3.44-0.25-5.22c0.28-1.21-0.19-1.73-1.84-1.75
			c-4.41-0.06-8.52-1.49-12.66-2.75c-0.75-0.23-1.46-0.65-2.11-1.09c-3.91-2.61-7.84-5.18-10.98-8.77
			c-1.15-1.32-2.01-1.28-3.33-0.14c-1.39,1.2-3.05,2.21-4.1,3.66c-2.36,3.25-4.62,6.6-6.53,10.13c-1.63,3.02-3.04,6.26-3.96,9.56
			c-1.16,4.18-2.9,8.31-2.35,12.84c0.12,1.02-0.24,2.09-0.22,3.13c0.1,5.04,1.33,9.8,3.25,14.46c1.38,3.33,3.2,6.34,5.44,9.08
			c1.28,1.57,2.88,2.9,4.47,4.18c1.66,1.33,3.48,2.46,5.22,3.69c0.89,0.63,0.82,0.99-0.19,1.56c-2.22,1.26-2.51,1.23-4.23-0.57
			c-0.29-0.3-0.7-0.5-1.03-0.77c-4.14-3.49-8.18-7.03-10.7-12c-2.1-4.13-3.43-8.51-4.66-12.94c-0.24-0.87-0.24-1.81-0.28-2.72
			c-0.11-2.44-0.3-4.88-0.25-7.32c0.06-3.13,0.44-6.22,1.57-9.2c1.05-2.77,1.88-5.62,2.91-8.39c1.48-4,3.28-7.82,5.99-11.18
			c1.71-2.13,3.12-4.5,4.84-6.62c0.76-0.93,1.94-1.54,2.98-2.22c1.14-0.75,1.67-0.94,0.28-2.39c-1.44-1.51-2.69-3.25-3.74-5.06
			c-2.12-3.65-4.02-7.43-6.06-11.13c-1.19-2.17-2.73-4.19-3.65-6.46c-1.08-2.67-1.75-5.51-2.41-8.32c-0.45-1.92-0.73-3.91-0.8-5.88
			c-0.06-1.63,0.26-3.28,0.51-4.91c0.31-2.07,0.58-4.15,1.1-6.17c0.72-2.79,1.49-5.59,2.56-8.26c1.86-4.64,4.69-8.7,8.17-12.3
			c3.11-3.22,6.64-5.85,10.71-7.71c1.51-0.69,3.17-1.05,4.72-1.66c2.68-1.04,5.29-2.26,8-3.2c2.06-0.71,4.21-1.46,6.35-1.57
			c2.93-0.15,5.94-0.02,8.81,0.53c4.2,0.81,8.42,1.78,12.42,3.27c3.18,1.18,6.32,2.88,8.98,4.99c3.28,2.6,6.18,5.74,8.95,8.89
			c1.65,1.88,2.61,4.35,4.13,6.36c2.41,3.19,4.33,6.65,6.02,10.22c1.46,3.08,2.66,6.29,3.94,9.45c0.5,1.24,1.02,2.48,1.33,3.77
			c0.39,1.62,0.59,3.28,0.83,4.93c0.17,1.15,0.27,2.32,0.43,3.47c0.08,0.58-1.02,2.28-1.51,2.09c-0.54-0.21-1.14-0.8-1.3-1.35
			c-0.28-0.95-0.37-1.99-0.3-2.98c0.24-3.44-0.81-6.61-2.1-9.68c-1.37-3.26-2.75-6.55-4.46-9.63c-1.94-3.5-4.26-6.8-6.41-10.19
			c-0.47-0.75-0.92-1.51-1.38-2.27c-1.49-2.45-3.24-4.66-5.47-6.51c-1.7-1.42-3.12-3.19-4.89-4.5c-1.77-1.32-3.78-2.35-5.76-3.35
			c-3.47-1.76-7.29-2.3-11.06-3c-2.62-0.49-5.23-1.49-7.84-1.48c-2.09,0.01-4.22-0.3-6.46,0.47c-3.08,1.07-6.07,2.35-9.12,3.47
			c-3.92,1.44-8.02,2.61-11.35,5.18c-2.63,2.02-4.99,4.44-7.22,6.91c-3.09,3.42-4.76,7.7-6.32,11.96c-0.72,1.97-0.89,4.14-1.28,6.23
			c-0.38,2.1-0.78,4.2-1.05,6.32c-0.14,1.12-0.18,2.3-0.01,3.41c0.41,2.8,0.89,5.59,1.47,8.35c0.76,3.58,2.81,6.6,4.57,9.73
			c1.83,3.25,3.61,6.54,5.58,9.71c1.45,2.34,2.76,4.78,4.98,6.59c1.77,1.45,3.26,3.23,4.91,4.83c3.09,3.01,6.46,5.7,10.35,7.59
			c1.75,0.85,3.72,1.23,5.59,1.83c3.25,1.04,6.59,1.37,9.98,1.35c2-0.01,4,0,5.99,0c1.77,0,3.55,0.1,5.32-0.02
			c2.37-0.17,4.75-0.4,7.09-0.84c1.07-0.2,2.09-0.85,3.02-1.47c0.3-0.2,0.28-0.95,0.31-1.46c0.04-0.96,0.02-1.92,0.01-2.88
			c0-0.21-0.08-0.42-0.12-0.62c-0.31,0.12-0.65,0.19-0.92,0.37c-1.39,0.91-2.67,2.02-4.15,2.72c-1.93,0.92-3.86,2.07-6.16,1.76
			c-0.51-0.07-1.01-0.24-1.51-0.25c-1.37-0.04-2.73-0.01-4.1-0.01c-4.72,0.01-9.27-0.82-13.73-2.4c-3.11-1.11-5.99-2.6-8.7-4.44
			c-1.66-1.13-3.25-2.37-4.9-3.52c-0.86-0.6-2-0.91-2.66-1.67c-3.12-3.53-6.52-6.84-8.74-11.09c-0.95-1.83-2.32-3.46-3.09-5.34
			c-1.06-2.58-1.73-5.32-2.57-7.99c-0.19-0.6-0.21-1.33-0.58-1.78c-1.38-1.69-1.64-3.79-2.07-5.76c-0.5-2.27-0.8-4.63-0.8-6.95
			c0-2.09,0.65-4.17,0.76-6.27c0.15-2.91,1.43-5.51,2.55-8.01c1.62-3.63,3.11-7.52,6.72-9.93c0.82-0.55,1.18-1.75,1.96-2.38
			c1.5-1.19,2.63-2.8,4.65-3.44c2.49-0.79,4.78-2.18,7.25-3.04c1.94-0.68,4.02-0.97,6.05-1.39c2.41-0.5,4.82-1.03,7.25-1.39
			c1.06-0.16,2.19,0,3.27,0.16c1.72,0.26,3.42,0.65,5.14,0.96c3.32,0.59,6.59,1.2,9.55,3.08c1.93,1.22,3.82,2.39,5.54,3.94
			c3.23,2.92,6.72,5.55,9.96,8.46c1.85,1.66,3.72,3.34,4.94,5.63c1.11,2.08,2.65,3.94,3.75,6.03c0.99,1.87,1.75,3.88,2.4,5.89
			c1.03,3.19,2.14,6.38,2.74,9.66c0.43,2.32,0.17,4.8,0.01,7.19c-0.03,0.49-1.03,1.31-1.53,1.27c-0.85-0.07-1.33-0.85-1.33-1.87
			c0.01-2.35,0.24-4.77-0.2-7.05c-0.75-3.89-2.25-7.58-3.81-11.24c-1.99-4.67-4.37-9.09-8.1-12.57c-2.62-2.45-5.59-4.53-8.36-6.84
			c-1.33-1.11-2.41-2.55-3.84-3.48c-3.2-2.07-6.51-3.99-10.39-4.6c-2.31-0.36-4.57-1.11-6.88-1.26c-1.82-0.12-3.68,0.37-5.51,0.64
			c-1.95,0.28-3.9,0.59-5.84,0.92c-2.79,0.48-5.39,1.5-7.9,2.79c-0.85,0.43-1.86,0.58-2.65,1.09C80.62,54.56,79,55.76,77.42,57
			c-0.61,0.48-0.96,1.27-1.56,1.76c-3.42,2.86-5.07,6.81-6.58,10.8c-1.12,2.95-1.62,6.05-1.96,9.2c-0.34,3.1,0.16,6.09,0.88,9.04
			c0.74,3.04,1.77,6.01,2.74,9c0.74,2.26,1.5,4.51,2.41,6.7c0.42,1,1.27,1.81,1.87,2.74c0.92,1.46,1.91,2.89,2.65,4.44
			c0.69,1.43,1.83,2.31,3.07,3.12c0.22,0.14,0.83,0.06,0.99-0.14c1.18-1.43,2.14-3.07,3.47-4.34c2.21-2.11,4.52-4.15,7.01-5.91
			c2.39-1.69,4.97-3.16,7.63-4.39c2.26-1.04,4.7-1.91,7.15-2.27c3.28-0.48,6.66-1.04,9.98,0.05c0.36,0.12,0.79,0.05,1.18,0.09
			c2.04,0.18,4.08,0.37,6.13,0.53c1.37,0.11,2.73-0.26,4.14,0.23c2.01,0.71,4.19,0.96,6.18,1.73c1.79,0.69,3.41,0.3,5.13-0.03
			c2.36-0.45,4.74-0.74,7.11-1.12c2.36-0.38,4.72-0.79,7.07-1.2c0.08-0.01,0.13-0.14,0.21-0.15c2.5-0.28,5-0.56,7.5-0.81
			c2-0.2,3.99-0.42,5.99-0.53c3.25-0.19,5.79,1.43,8.2,3.35c1.29,1.03,1.96,2.32,2.22,3.96c0.14,0.86,0.85,1.62,1.21,2.46
			c1.11,2.6,2.37,5.17,3.2,7.86c0.68,2.23,0.84,4.62,1.22,6.93c0.35,2.11,0.7,4.22,1.03,6.33c0.06,0.35,0.05,0.71,0.05,1.06
			c0,1.91-0.17,3.83,0.04,5.72c0.38,3.5,0.98,6.97,1.48,10.46c0.05,0.34,0.11,0.69,0.1,1.04c-0.11,2.93,0.64,5.75,1.04,8.61
			c0.18,1.28,0.04,2.67-0.26,3.93c-0.63,2.61-1.47,5.21-3.22,7.29c-1.24,1.47-2.82,2.66-4.26,3.97c-1.37,1.24-2.74,2.47-4.13,3.67
			c-1.05,0.91-2.2,1.72-3.2,2.7c-1.42,1.39-2.76,2.88-4.1,4.35c-1.27,1.4-2.7,2.71-3.69,4.29c-1.78,2.88-2.77,5.99-1.99,9.5
			c0.46,2.1,0.55,4.28,0.85,6.41c0.24,1.74,0.43,3.49,0.86,5.19c0.97,3.81,0.3,5.9-2.83,8.15c-3.25,2.34-4.05,4.97-2.8,8.69
			c0.99,2.95,0.2,5.63-1.55,8.09c-0.08,0.11-0.27,0.19-0.27,0.29c-0.05,1.61-0.09,3.21-0.05,4.82c0,0.12,0.69,0.36,1.03,0.31
			c2.32-0.34,3.35,1.47,4.66,2.77c0.22,0.22,0.21,0.89,0.04,1.23c-0.58,1.19,0.22,1.43,1.04,1.69c0.4,0.13,0.86,0.11,1.23,0.3
			c0.32,0.16,0.55,0.52,0.81,0.79c-0.3,0.18-0.6,0.38-0.91,0.54c-0.55,0.29-1.13,0.55-1.68,0.84c-1.27,0.68-2.22,0.08-2.94-0.87
			c-0.7-0.91-0.61-1.92,0.14-2.84c0.13-0.16,0.23-0.36,0.28-0.56c0.09-0.36,0.13-0.73,0.19-1.1c-0.33,0.01-0.67-0.01-1,0.03
			c-2,0.28-3.85,0.06-5.32-1.51c-0.17-0.18-0.34-0.42-0.36-0.65c-0.26-2.87-0.36-5.75,1.67-8.13c1.74-2.05,0.97-4.22,0.45-6.38
			c-0.05-0.22-0.61-0.35-0.95-0.48c-0.36-0.14-0.99-0.15-1.06-0.37c-0.14-0.39-0.06-0.95,0.13-1.34c0.61-1.24,1.32-2.43,1.98-3.64
			c0.1-0.18,0.26-0.47,0.19-0.58c-0.8-1.28-0.5-2.79-0.86-4.12c-0.92-3.34-1.92-6.63-2.41-10.09c-0.3-2.14-1.11-4.21-1.64-6.33
			c-0.07-0.27,0.19-0.62,0.29-0.93c0.22,0.1,0.53,0.14,0.65,0.32c0.38,0.51,0.82,1.02,0.99,1.61c1.04,3.63,1.93,7.3,3.03,10.92
			c0.54,1.78,1.38,3.48,2.13,5.19c0.09,0.2,0.54,0.44,0.7,0.37c1.58-0.67,2.58-2.64,2.28-4.29c-0.47-2.56-0.85-5.13-1.37-7.68
			c-0.95-4.67-1.13-9.47-2.63-14.04c-0.24-0.74-0.38-1.84,0.62-2.19c0.26-0.09,1,0.94,1.36,1.54c0.32,0.55,0.43,1.22,0.63,1.84
			c0.19-0.65,0.38-1.31,0.59-1.95c0.08-0.24,0.18-0.48,0.33-0.67c1.36-1.65,2.73-3.28,4.1-4.93c1.34-1.61,2.59-3.3,4.04-4.8
			c1.27-1.31,2.78-2.39,4.16-3.61c0.54-0.48,0.95-1.09,1.51-1.55c1.9-1.58,3.89-3.06,5.75-4.68c0.7-0.61,1.29-1.43,1.68-2.27
			c0.66-1.43,1.4-2.92,1.61-4.45c0.27-2.01-0.13-4.1,0.12-6.11c0.27-2.2-0.39-4.15-0.82-6.21c-0.45-2.1-0.66-4.27-0.83-6.42
			c-0.18-2.34-0.17-4.7-0.3-7.05c-0.14-2.5-0.21-5.01-0.57-7.48c-0.41-2.8-1.29-5.54-1.64-8.35c-0.35-2.76-1.87-5.01-2.75-7.53
			c-0.57-1.65-1.63-3.16-2-4.83c-0.59-2.64-2.44-3.79-4.63-4.68c-2.17-0.89-4.39-1.04-6.72-0.58c-2.16,0.42-4.37,0.55-6.55,0.85
			c-2.51,0.34-5.01,0.75-7.53,1.07c-2.54,0.32-5.09,0.54-7.64,0.83c-0.46,0.05-0.92,0.16-1.37,0.27c-0.26,0.06-0.51,0.17-0.76,0.26
			c0.3,0.18,0.59,0.4,0.91,0.54c0.73,0.3,1.69,0.36,2.18,0.88c2.11,2.18,4.05,4.52,6.12,6.73c0.38,0.41,1.18,0.85,1.63,0.72
			c1.34-0.39,2.59-0.19,3.9,0.04c1.53,0.27,3.1,0.34,4.64,0.57c1.43,0.22,2.85,0.49,4.26,0.81c1.25,0.28,1.72-0.02,2.06-1.25
			c0.27-1,0.62-2,1.08-2.93c0.21-0.42,0.77-0.66,1.17-0.98c0.21,0.61,0.53,1.21,0.6,1.83c0.04,0.41-0.24,0.87-0.44,1.28
			c-1.17,2.47-0.15,4.57,1,6.72c0.56,1.05,0.87,2.26,1.15,3.44c0.35,1.49,0.53,3.02,0.84,4.52c0.6,2.9,1.19,5.8,1.9,8.67
			c0.63,2.52,0.77,5.06,0.83,7.64c0.04,1.52,0.49,3.02,0.77,4.53c0.16,0.83,0.45,1.65,0.52,2.48c0.22,2.8,1.9,4.36,4.31,5.4
			c0.34,0.15,0.56,0.59,0.84,0.89c-0.39,0.24-0.78,0.66-1.18,0.67c-1.44,0.06-2.11-1.19-2.89-2.07c-0.74-0.85-0.98-1.66-1.5,0.16
			c-0.34,1.21-1.26,2.27-1.95,3.37c-1.42,2.25-2.87,4.49-4.3,6.74c-1.72,2.71-3.42,5.44-5.19,8.12c-0.28,0.42-0.92,0.59-1.39,0.88
			c0.11-0.56,0.07-1.21,0.36-1.66c1.51-2.4,3.12-4.74,4.65-7.14c1.96-3.06,3.77-6.21,5.85-9.19c1.05-1.51,0.86-2.91,0.51-4.45
			c-0.06-0.26,0.01-0.54-0.02-0.81c-0.25-2.42-0.51-4.84-0.75-7.25c-0.12-1.23-0.19-2.47-0.33-3.7c-0.24-2.05-0.48-4.11-0.82-6.15
			c-0.39-2.3-0.86-4.59-1.34-6.87c-0.42-1.98-0.89-3.95-1.35-5.93c-0.5-2.18-1.84-3.26-3.95-3.8c-1.8-0.46-3.48-1.37-5.26-1.97
			c-0.99-0.34-2.05-0.51-3.1-0.67c-1.41-0.22-2.82-0.38-4.24-0.54c-0.24-0.03-0.5,0.08-0.75,0.12c0.16,0.25,0.27,0.55,0.48,0.74
			c2.18,2.02,4.39,4,6.55,6.04c2.48,2.34,3.82,5.32,4.91,8.51c1.02,2.97,1.15,6.03,1.58,9.07c0.24,1.69,0.64,3.37,0.78,5.07
			c0.13,1.72,0.09,3.45,0,5.18c-0.07,1.28-0.33,2.56-0.51,3.83c-0.36,2.51-0.69,5.02-1.09,7.53c-0.32,2.02-0.55,4.08-1.12,6.03
			c-0.58,1.99-1.52,3.87-2.33,5.79c-0.91,2.15-1.78,4.31-2.78,6.42c-1.54,3.26-3.64,6.16-6.01,8.87c-1.13,1.28-2.23,2.59-3.35,3.88
			c-2.82,3.26-6.34,5.68-10.04,7.75c-2.83,1.58-5.87,2.79-8.84,4.09c-1.72,0.75-3.52,1.3-5.23,2.06c-0.39,0.17-0.82,0.81-0.81,1.22
			c0.11,3.8,0.3,7.6,0.51,11.4c0.13,2.32,0.42,4.62,0.52,6.94c0.15,3.61,0.19,7.22,0.29,10.84c0.07,2.55,0.16,5.09,0.27,7.64
			c0.17,3.98,0.25,7.97,0.57,11.94c0.3,3.61,0.86,7.2,1.32,10.8c0.1,0.76,0.23,1.52,0.35,2.29c0.47-0.53,0.93-1.07,1.42-1.58
			c1.26-1.28,2.58-2.5,3.78-3.83c0.59-0.65,1.08-1.43,1.43-2.24c0.46-1.08-0.12-2.42-1.33-3.1c-1.56-0.87-2.23-2.09-2.18-3.9
			c0.03-1.27-0.38-2.55-0.47-3.83c-0.04-0.57,0.07-1.27,0.39-1.71c1.41-1.97,1.05-3.92,0.08-5.88c-0.28-0.57-0.73-1.05-1.02-1.61
			c-0.12-0.23-0.08-0.59,0.01-0.85c0.11-0.31,0.28-0.66,0.53-0.85c2.09-1.61,0.94-3.34,0.27-5.09c-0.71-1.84-0.59-2.38,1.3-3.15
			c1.82-0.75,2.02-1.21,1.4-3.18c-1.22-3.87-2.53-7.7-3.61-11.61c-0.61-2.21-0.86-4.52-1.25-6.79c-0.21-1.23-0.42-2.46-0.51-3.7
			c-0.03-0.41,0.33-0.84,0.51-1.26c0.32,0.23,0.79,0.39,0.93,0.7c0.47,1.06,1.05,2.15,1.2,3.28c0.61,4.76,2.01,9.27,3.77,13.72
			c1.24,3.14,2.22,6.42,2.97,9.71c0.85,3.7,1.21,7.51,1.98,11.23c0.59,2.87,1.43,5.7,2.26,8.52c0.98,3.33,2.14,6.6,3.09,9.93
			c0.89,3.11,1.93,6.23,2.34,9.41c0.34,2.62,1.59,4.89,2.1,7.4c0.41,1.99,0.79,3.99,1.26,5.97c1.08,4.5,2.21,8.99,3.33,13.49
			c0.04,0.16,0.11,0.31,0.17,0.46c-1.16,0.14-0.89,1.33-1.43,1.92c-0.15,0.16-0.77,0.17-0.89,0.02c-0.54-0.7-1.17-1.42-1.42-2.23
			c-0.42-1.37-0.58-2.83-0.85-4.25c-0.54-2.79-0.99-5.61-1.65-8.38c-0.7-2.93-1.62-5.81-2.4-8.73c-0.58-2.2-1.06-4.42-1.64-6.62
			c-0.61-2.31-1.29-4.6-1.91-6.91c-0.64-2.4-1.23-4.81-1.87-7.2c-0.56-2.06-1.21-4.1-1.75-6.17c-0.46-1.76-0.87-3.53-1.21-5.31
			c-0.53-2.81-0.99-5.63-1.49-8.44c-0.12-0.67-0.21-1.35-0.45-1.98c-0.12-0.31-0.54-0.5-0.83-0.74c-0.16,0.27-0.51,0.57-0.46,0.8
			c0.2,1.12,0.37,2.27,0.82,3.3c0.59,1.36,0.12,2.23-0.85,3.12c-0.31,0.29-0.61,1.06-0.45,1.31c1.72,2.74,1,5.41,0.13,8.2
			c-0.65,2.07-0.09,4.01,1.48,5.69c1.76,1.89,2.82,4.15,1.77,6.74c-0.5,1.23-1.46,2.31-2.35,3.34c-0.99,1.15-2.18,2.13-3.18,3.28
			c-0.24,0.27-0.28,1.08-0.06,1.32c3.01,3.28,3.06,7.53,3.81,11.54c0.06,0.31-0.52,1.05-0.79,1.05c-1.94-0.02-1.9,1.29-1.68,2.52
			c0.33,1.82,0.87,3.6,1.32,5.39c0.23,0.91,0.85,0.91,1.58,0.7c1.06-0.31,2.94,0.73,2.99,1.81c0.1,2.01,0.06,3.97-1.65,5.53
			c-2.95,2.71-4.76,6.16-6.2,9.86c-0.28,0.73-0.91,1.43-1.57,1.87c-1.14,0.77-1.92,0.41-2.88-0.58c-2.97-3.07-5.93-6.17-9.08-9.04
			c-1.64-1.49-2.18-3.2-2.41-5.25c-0.35-2.98-0.88-5.94-1.32-8.91c-0.04-0.26,0-0.54-0.01-0.81c-0.09-3.3-0.19-6.59-0.27-9.89
			c-0.1-4.2-0.12-8.4-0.29-12.59c-0.19-4.73-0.56-9.45-0.78-14.17c-0.1-2.26,0.08-4.54-0.05-6.8c-0.12-2.06-0.53-4.11-0.72-6.17
			c-0.17-1.86-0.26-3.73-0.32-5.59c-0.12-3.49-0.2-6.98-0.27-10.48c-0.03-1.68,0-3.36-0.01-5.05c0-0.12-0.05-0.25-0.08-0.37
			c-0.06,0.12-0.17,0.24-0.18,0.36c-0.1,1.69-0.23,3.38-0.27,5.07c-0.05,1.92,0.06,3.85-0.04,5.77c-0.05,0.95-0.43,1.88-0.66,2.82
			c-0.15,0.61-0.13,1.41-0.52,1.79c-0.64,0.62-1.55,0.99-2.35,1.44c-1.02,0.57-2.18,0.98-3.04,1.73c-0.34,0.3-0.3,1.5,0.02,2.02
			c1.33,2.21,1.14,4.46,0.34,6.7c-0.5,1.41-1.39,2.67-1.88,4.08c-0.5,1.43-0.6,2.99-1.1,4.42c-0.4,1.13-1.01,2.23-1.73,3.19
			c-1.59,2.15-3.79,3.63-5.93,5.17c-0.49,0.35-1.08,0.68-1.38,1.17c-0.22,0.36-0.25,1.26-0.03,1.4c1.44,0.94,1,2.44,0.87,3.56
			c-0.41,3.55-1.54,6.95-2.81,10.3c-0.84,2.21-2.56,3.47-4.4,4.64c-1.07,0.67-1.66,1.42-1.64,2.8c0.01,0.68-0.58,1.57-1.16,2.03
			c-1.52,1.23-2.05,2.49-1.78,4.33c0.13,0.93-0.1,1.91-0.22,2.86c-0.15,1.1-0.41,2.18-0.52,3.29c-0.03,0.29,0.25,0.72,0.51,0.91
			c1.82,1.25,3.11,3.39,1.15,5.78c-0.93,1.13-1.92,2.24-2.65,3.5c-0.89,1.54-1.7,3.18-2.24,4.87c-0.71,2.24-1.23,4.57-1.64,6.89
			c-0.45,2.54-2.22,3.88-4.26,4.87c-1.03,0.5-1.51,1.05-1.76,2.1c-0.23,0.96-0.71,1.87-1.12,2.77c-0.4,0.87-0.23,1.51,0.64,1.94
			c0.69,0.35,1.69,0.67,1.29,1.61c-0.35,0.83-1.03,1.73-1.8,2.12c-2.89,1.48-5.85,2.83-8.84,4.1c-3.57,1.52-6.46,3.97-9.38,6.41
			c-1.17,0.98-2.08,0.82-2.76-0.5c-0.46-0.88-0.74-1.87-0.93-2.85c-0.59-3.15-1.02-6.32-1.66-9.46c-0.61-2.97-1.43-5.89-2.1-8.85
			c-0.14-0.63-0.13-1.36,0.05-1.98c1.19-4.01,2.4-8.01,3.71-11.98c0.47-1.41,1.38-2.68,1.84-4.1c1-3.07,2.13-6.13,2.64-9.29
			c0.46-2.83,2.39-5.01,2.8-7.78c0.1-0.7,0.3-1.4,0.54-2.07c0.41-1.18,0.96-2.31,1.33-3.5c0.68-2.2,1.2-4.46,1.93-6.64
			c0.54-1.61,1.29-3.16,2.01-4.71c1.28-2.76,2.56-5.52,3.92-8.24c1.66-3.34,2.86-6.84,3.92-10.41c1.35-4.53,2.78-9.03,4.18-13.54
			c0.37-1.2,0.6-2.46,1.12-3.59c0.53-1.18,0-1.8-0.86-2.33c-0.67-0.42-1.4-0.74-2.11-1.09c-1.95-0.97-2.71-2.35-2.18-4.37
			c0.94-3.57,1.91-7.13,3.01-10.65c0.88-2.82,1.97-5.58,2.93-8.38c0.49-1.42,0.78-2.92,1.38-4.29c0.49-1.11,1.26-2.11,2-3.08
			c0.18-0.24,0.79-0.37,1.09-0.25c0.65,0.26,0.41,0.65,0.17,1.25c-0.65,1.67-1.01,3.45-1.55,5.17c-0.76,2.43-1.6,4.83-2.38,7.26
			c-0.97,3.02-1.98,6.04-2.84,9.09c-0.37,1.31-0.39,2.72-0.59,4.09c-0.12,0.84,0.15,1.35,0.96,1.75c1.35,0.67,2.62,1.51,3.92,2.28
			c1.1,0.65,0.33,1.54,0.16,2.2c-0.88,3.36-1.82,6.71-2.9,10.01c-1.06,3.25-2.26,6.45-3.48,9.64c-1.38,3.62-2.78,7.23-4.31,10.78
			c-1.15,2.68-2.61,5.23-3.77,7.9c-0.71,1.64-1.12,3.41-1.66,5.12c-1.08,3.38-2.13,6.77-3.26,10.14c-0.55,1.66-1.32,3.24-1.86,4.9
			c-0.52,1.6-0.82,3.26-1.29,4.88c-1.54,5.31-3.11,10.61-4.69,15.9c-0.73,2.44-1.73,4.83-2.21,7.31c-0.33,1.72-0.27,3.63,0.11,5.34
			c0.88,3.96,2.32,7.78,2.66,11.87c0.09,1.06,0.32,2.11,0.55,3.15c0.06,0.27,0.38,0.48,0.58,0.72c0.19-0.17,0.38-0.35,0.58-0.5
			c2.11-1.64,4.11-3.47,6.38-4.85c2.34-1.42,4.93-2.43,7.44-3.55c0.62-0.28,0.87-0.51,0.51-1.13c-0.87-1.52-0.45-2.75,0.56-4.12
			c0.68-0.93,0.94-2.23,1.2-3.4c0.31-1.43,1.62-3.01,3.1-3.25c1.41-0.24,2.24-1.07,2.59-2.36c0.68-2.47,1.15-5.01,1.94-7.45
			c0.77-2.39,1.65-4.77,3.81-6.41c0.8-0.61,1.38-1.55,1.89-2.44c0.17-0.29-0.13-0.95-0.38-1.33c-0.14-0.21-0.61-0.2-0.93-0.32
			c-1.59-0.61-1.66-0.97-1.22-2.66c0.56-2.13,0.96-4.3,1.35-6.47c0.09-0.47-0.06-1.05-0.26-1.5c-0.76-1.69,0.11-2.98,1.01-4.24
			c0.67-0.94,1.41-1.7,1.54-3.05c0.12-1.27,1.08-2.37,2.35-3.04c0.75-0.39,1.41-0.93,2.16-1.32c0.9-0.46,1.21-1.25,1.7-2.08
			c1.4-2.36,1.72-5,2.39-7.53c0.39-1.48,0.39-3.24-0.76-4.64c-0.64-0.78-0.53-2.35,0.45-3.29c1.91-1.83,3.93-3.55,5.9-5.31
			C95.67,251.34,96.45,250.61,97.3,249.82 M120.61,204.61c-1.22,0.56-1.47,1.57-1.36,2.79c0.13,1.36,0.15,2.72,0.29,4.08
			c0.24,2.37,0.53,4.73,0.8,7.1c0.36,3.05,0.83,6.09,1.05,9.15c0.23,3.24,0.12,6.51,0.33,9.75c0.26,4.09,0.78,8.17,1.04,12.26
			c0.28,4.47,0.41,8.95,0.53,13.42c0.01,0.53-0.42,1.07-0.65,1.6c-0.4-0.41-1.03-0.77-1.16-1.25c-0.32-1.15-0.62-2.37-0.55-3.55
			c0.31-5.42-0.59-10.77-0.85-16.15c-0.02-0.43-0.14-0.85-0.18-1.27c-0.13-1.3-0.25-2.6-0.35-3.91c-0.08-1.12-0.11-2.24-0.17-3.36
			c-0.04-0.75-0.13-1.5-0.1-2.25c0.05-1.38,0.28-2.75,0.23-4.12c-0.05-1.51-0.36-3-0.5-4.51c-0.13-1.45-0.13-2.9-0.29-4.34
			c-0.31-2.69-0.76-5.37-1.05-8.07c-0.19-1.72-0.18-3.47-0.31-5.2c-0.02-0.32-0.31-0.63-0.47-0.94c-0.2,0.38-0.56,0.75-0.57,1.13
			c-0.13,4.93-0.26,9.87-0.28,14.8c-0.01,3,0.29,6,0.21,8.99c-0.06,2.62,0.54,5.13,0.86,7.68c0.29,2.34,0.75,4.65,1.05,6.99
			c0.25,1.9,0.39,3.81,0.55,5.72c0.37,4.44,0.81,8.89,1.05,13.34c0.16,2.98,0,5.98,0.04,8.96c0.04,2.37,0.05,4.74,0.3,7.09
			c0.2,1.94,0.5,3.91,1.17,5.72c0.34,0.91,0.12,1.46-0.14,2.16c-0.14,0.39-0.32,0.77-0.54,1.13c-0.2,0.32-0.47,0.6-0.71,0.9
			c-0.24-0.26-0.63-0.48-0.71-0.79c-0.46-1.75-1.08-3.51-1.22-5.29c-0.26-3.21-0.25-6.44-0.31-9.66c-0.04-1.8,0.02-3.6-0.02-5.4
			c-0.02-0.82-0.25-1.64-0.24-2.46c0.03-1.5,0.33-3,0.22-4.48c-0.26-3.46-0.68-6.91-1.05-10.36c-0.04-0.38-0.17-0.74-0.22-1.12
			c-0.29-2.09-0.59-4.18-0.85-6.27c-0.21-1.68-0.32-3.37-0.56-5.04c-0.32-2.29-0.91-4.56-1.03-6.85c-0.23-4.37-0.23-8.75-0.31-13.13
			c-0.03-1.53-0.04-3.06,0-4.59c0.05-1.96,0.18-3.92,0.25-5.88c0.01-0.26-0.15-0.53-0.16-0.8c-0.01-0.36,0.04-0.73,0.06-1.1
			c-0.4,0.11-0.8,0.22-1.19,0.32c-0.79,0.22-0.91,0.78-0.88,1.51c0.05,1.32,0,2.64,0.02,3.96c0.08,5.11,0.18,10.23,0.27,15.34
			c0,0.18-0.02,0.36,0,0.54c0.36,2.46,0.86,4.92,1.04,7.39c0.24,3.24,0.18,6.5,0.32,9.75c0.13,3.04,0.38,6.07,0.52,9.1
			c0.13,2.86,0.19,5.72,0.28,8.58c0.08,2.55,0.15,5.09,0.28,7.64c0.15,2.9,0.37,5.8,0.52,8.7c0.06,1.18-0.21,2.43,0.1,3.53
			c0.8,2.85,0.41,5.86,1.44,8.72c0.62,1.72,0.84,3.45,2.41,4.7c1.29,1.04,2.36,2.35,3.56,3.5c1.47,1.42,2.95,2.84,4.49,4.18
			c0.36,0.32,1.36,0.56,1.47,0.41c0.57-0.81,1.02-1.72,1.39-2.65c0.48-1.2,0.65-2.57,1.32-3.63c1.21-1.92,2.7-3.66,4.06-5.49
			c0.25-0.33,0.4-0.73,0.59-1.1c-0.45,0-0.95-0.13-1.35,0.02c-1.39,0.49-2.53,0.03-2.96-1.42c-0.87-2.95-1.84-5.86-2.26-8.95
			c-0.2-1.5,0.01-2.38,1.3-3.05c1.04-0.54,1.51-1.72,1.09-2.93c-0.64-1.85-1.31-3.69-2.07-5.49c-0.18-0.43-0.75-0.69-1.13-1.02
			c-0.15,0.51-0.44,1.03-0.43,1.54c0.04,2.5,0.17,5,0.24,7.5c0.03,1.23-0.02,2.46,0.01,3.69c0.07,3.04,0.17,6.08,0.27,9.12
			c0.01,0.38,0.07,0.78,0.17,1.15c0.26,0.95,0.96,1.93-0.32,2.73c-0.14,0.09-0.03,0.51-0.13,0.74c-0.27,0.61-0.64,1.13-1.21,0.26
			c-0.24-0.37-0.44-0.84-0.47-1.28c-0.19-2.47-0.36-4.95-0.45-7.43c-0.04-0.99,0.24-2,0.23-3c-0.01-1.18-0.2-2.36-0.24-3.54
			c-0.11-3.43-0.18-6.86-0.29-10.29c-0.03-0.87-0.02-1.78-0.29-2.58c-1.17-3.52-1.28-7.2-1.55-10.83
			c-0.38-5.09-0.46-10.21-0.57-15.31c-0.05-2.14,0.21-4.28,0.23-6.42c0.01-1.33-0.19-2.66-0.25-3.99
			c-0.19-4.43-0.33-8.86-0.56-13.29c-0.22-4.17-0.59-8.33-0.76-12.5C121.97,204.58,121.68,204.32,120.61,204.61 M124.53,144.73
			c0.14-0.17,0.32-0.32,0.4-0.51c1.18-2.84,2.35-5.69,3.52-8.54c0.16-0.39,0.28-0.81,0.42-1.21c-0.46,0.27-0.93,0.53-1.38,0.82
			c-0.54,0.34-1.02,0.93-1.6,1.02c-1.8,0.29-3.62,0.45-5.44,0.57c-3.23,0.22-6.45,0.39-9.68,0.54c-0.95,0.04-1.71,0.52-1.73,1.36
			c-0.06,2.19-0.07,4.28,1.22,6.38C113.46,150.41,121.99,149.56,124.53,144.73 M132.24,121.35c-1.13-0.95-2.36-1.82-3.39-2.88
			c-2.46-2.54-5.24-2.96-8.41-1.58c-0.38,0.17-0.83,0.21-1.16,0.44c-0.19,0.13-0.19,0.52-0.27,0.8c0.22-0.05,0.43-0.1,0.65-0.14
			c1.33-0.27,2.68-0.86,3.98-0.75c2.34,0.19,4.17,1.58,5.34,3.59c2.17,3.74,3.63,7.69,2.72,12.14c-0.34,1.7-0.57,3.44-1.12,5.08
			c-0.75,2.24-1.67,4.44-2.69,6.58c-1.1,2.28-2.46,4.51-4.85,5.61c-2.66,1.22-5.47,2.15-8.47,1.05c-0.2-0.07-0.47,0.07-0.71,0.11
			c0.13,0.21,0.22,0.49,0.41,0.63c0.23,0.16,0.55,0.19,0.82,0.29c2.28,0.84,4.48,0.17,6.74-0.24c3.44-0.62,5.86-2.47,7.77-5.32
			c1.68-2.49,3.06-5.1,3.97-7.95c0.55-1.72,1.14-3.47,1.31-5.25c0.18-1.89-0.17-3.82-0.2-5.73
			C134.65,125.43,133.97,123.3,132.24,121.35 M121.15,128.38c1.84-0.77,3.74-1.44,5.5-2.35c0.53-0.27,1.55-0.72,1.14-1.81
			c-1.25-3.39-4.83-4.74-8.14-3.3c-3.05,1.33-4.62,3.88-6.07,6.6c-0.2,0.37-0.36,0.75-0.54,1.13c0.44-0.04,0.87-0.11,1.31-0.12
			c0.63-0.02,1.26-0.01,1.89-0.01C117.84,128.51,119.43,128.51,121.15,128.38z"/>
		<path class="st1" d="M66.75,283.34c-1.53,4.6-3.1,9.1-4.43,13.66c-1,3.44-1.68,6.96-2.54,10.44c-0.41,1.67-0.87,3.33-1.36,4.98
			c-0.3,1-0.6,1.88-1.59,2.63c-0.67,0.5-0.61,1.93-0.94,2.92c-0.97,2.98-1.96,5.95-2.96,8.91c-0.27,0.79-0.54,1.6-0.99,2.28
			c-0.19,0.28-1,0.45-1.31,0.28c-0.39-0.22-1.07-0.5-0.61-1.41c0.7-1.36,1.19-2.84,1.65-4.31c0.61-1.96,1.01-3.99,1.66-5.94
			c0.81-2.41,1.86-4.73,2.66-7.14c0.58-1.75,0.93-3.58,1.38-5.38c0.4-1.59,0.79-3.19,1.18-4.78c1.06-4.45,3.13-8.53,4.66-12.8
			c2.12-5.93,4.09-11.92,6.04-17.91c0.68-2.07,1.09-4.23,1.65-6.35c0.48-1.82,1.18-3.61,1.46-5.46c0.23-1.53,0.48-3.03,1.26-4.36
			c0.75-1.28,1.74-2.42,2.5-3.7c0.5-0.85,0.79-1.83,1.17-2.75c0.75-1.81,1.55-3.59,2.25-5.42c1.33-3.48,2-7.12,2.78-10.76
			c0.88-4.08,2.24-8.06,3.49-12.06c0.89-2.82,1.94-5.59,2.93-8.38c0.08-0.23,0.28-0.42,0.39-0.65c0.22-0.45,0.36-0.78-0.42-0.84
			c-1.01-0.08-2.01-0.35-3.02-0.51c-0.96-0.16-1.43,0.13-1.6,1.24c-0.31,2.13-0.89,4.22-1.31,6.34c-0.45,2.25-0.9,4.51-1.25,6.78
			c-0.59,3.85-2.25,7.35-3.43,11.02c-0.64,2-1.02,4.08-1.55,6.12c-0.85,3.24-1.9,6.39-3.57,9.34c-0.74,1.31-0.77,3-1.31,4.45
			c-1.23,3.32-1.29,7.05-3.67,9.99c-0.58,0.71-0.44,1.96-0.83,2.88c-2.35,5.56-4.86,11.05-7.09,16.66
			c-0.77,1.94-0.87,4.14-1.37,6.19c-0.73,3.02-1.58,6.02-2.3,9.04c-0.64,2.68-1.14,5.38-1.75,8.06c-0.29,1.26-0.63,2.53-1.11,3.73
			c-0.18,0.45-0.82,0.73-1.24,1.08c-0.46-0.69-1.57-0.99-1.22-2.17c0.63-2.13,1.25-4.26,1.81-6.41c0.45-1.71,0.62-3.52,1.27-5.15
			c1.33-3.33,1.52-6.91,2.46-10.32c0.6-2.2,1.22-4.36,2.11-6.44c1.1-2.56,2.38-5.05,3.48-7.61c1.15-2.68,2.17-5.41,3.26-8.11
			c0.25-0.62,0.56-1.21,0.8-1.83c1.32-3.32,2.13-6.79,3.02-10.25c0.51-1.96,1.45-3.81,2.11-5.74c1.03-3,2.04-6.01,2.97-9.04
			c0.96-3.12,1.84-6.27,2.71-9.42c1.37-4.98,2.78-9.94,4.03-14.95c0.56-2.23,0.78-4.56,1.1-6.84c0.18-1.28,1.05-1.88,2.37-1.63
			c1.64,0.31,3.31,0.47,4.93,0.85c1.38,0.32,2.08,1.73,1.62,3.03c-1.53,4.32-2.64,8.78-4.67,12.94c-0.79,1.63-0.89,3.6-1.26,5.42
			c-0.51,2.5-0.92,5.02-1.5,7.49c-0.49,2.08-0.95,4.2-1.8,6.14c-1.71,3.89-3.71,7.65-5.52,11.5c-0.44,0.94-0.64,1.99-0.92,3
			c-0.38,1.38-0.71,2.77-1.09,4.15c-1.16,4.25-2.2,8.54-3.56,12.72c-1.07,3.32-2.54,6.51-3.82,9.77
			C66.92,282.78,66.88,283.03,66.75,283.34z"/>
		<path class="st1" d="M77.09,187.99c3.04,3.06,6.68,4.5,10.87,4.92c2.46,0.24,4.89,0.96,7.3,1.59c2.43,0.63,4.88,1.27,7.19,2.2
			c1.43,0.57,2.64,1.69,3.9,2.63c0.3,0.23,0.59,0.75,0.56,1.11c-0.16,2.1-0.66,2.33-2.4,1.07c-3.03-2.21-6.4-3.46-10.08-4.08
			c-2.83-0.48-5.58-1.49-8.42-1.79c-3.25-0.35-5.97-1.94-8.85-3.14c-1.76-0.73-2.39-2.6-3.34-4.11c-1.48-2.36-2.99-4.7-4.37-7.11
			c-0.59-1.04-0.84-2.26-1.3-3.38c-0.6-1.46-1.13-2.98-1.91-4.34c-1.42-2.48-1.95-5.17-2.43-7.92c-0.32-1.85-0.45-3.66,0.01-5.5
			c1.14-4.57,1.31-9.42,3.59-13.65c2.07-3.85,4.44-7.53,6.65-11.31c0.78-1.34,1.34-2.82,2.25-4.05c0.77-1.04,1.9-1.82,2.9-2.67
			c0.13-0.11,0.48,0.06,0.73,0.09c-0.05,0.22-0.04,0.56-0.17,0.63c-2.12,1.17-2.59,3.49-3.65,5.35c-2.25,3.96-4.48,7.95-6.37,12.09
			c-1.08,2.38-1.53,5.05-2.12,7.63c-0.5,2.2-0.88,4.43-1.17,6.67c-0.15,1.13-0.1,2.33,0.1,3.46c0.35,1.99,0.79,3.98,1.35,5.92
			c0.4,1.39,0.95,2.77,1.63,4.05c2.37,4.43,4.82,8.82,7.24,13.22C76.87,187.67,77,187.75,77.09,187.99z"/>
		<path class="st1" d="M169.07,281.72c-0.94-2.35-1.11-4.5,0.83-6.43c0.34-0.33,0.46-1.04,0.43-1.55c-0.1-1.51-0.43-3-0.47-4.51
			c-0.02-0.86-0.26-0.98-1.04-1c-0.88-0.02-1.75-0.3-2.62-0.48c-1.04-0.22-1.7-0.76-1.8-1.92c-0.12-1.42-0.32-2.83-0.53-4.23
			c-0.37-2.45-0.76-4.9-1.18-7.35c-0.41-2.43-1.29-3.05,1.42-5.21c0.37-0.29,0.52-1.02,0.55-1.55c0.04-1.01-0.22-2.05-0.08-3.03
			c0.08-0.52,0.72-0.98,1.17-1.39c0.05-0.05,0.64,0.33,0.81,0.61c1.05,1.76,0.92,3.71,0.81,5.64c-0.01,0.18-0.2,0.4-0.36,0.52
			c-1.41,1.03-1.75,2.3-1.28,4c0.44,1.6,0.61,3.27,0.84,4.92c0.22,1.59,0.39,3.18,0.54,4.77c0.13,1.44,0.8,1.97,2.17,1.75
			c2.52-0.4,3.29,0.9,3.28,3.09c-0.01,1.3,0.19,2.6,0.35,3.89c0.18,1.43,0.46,2.76-0.69,4.06c-1.25,1.41-0.93,3.62,0.23,5.46
			c0.58,0.91,0.94,1.78,0.92,2.88c-0.01,0.75,0.25,1.5,0.4,2.26c0.02,0.12,0.15,0.28,0.1,0.35c-0.68,1.22,0.11,2.31,0.29,3.45
			c0.38,2.37-0.61,4.37-1.66,6.34c-1.61,3.01-2.66,6.21-3.46,9.51c-0.07,0.29,0.12,0.66,0.22,0.98c0.36,1.15-1.27,3.1-2.45,2.85
			c-0.3-0.06-0.59-0.4-0.78-0.69c-1.56-2.35-3.95-3.68-6.24-5.13c-2.14-1.36-4.75-1.93-6.46-4c-0.43-0.52-0.81-0.92-0.32-1.59
			c0.48-0.64,0.94-0.81,1.7-0.33c1.92,1.21,3.9,2.31,5.86,3.46c1.49,0.87,2.95,1.78,4.45,2.62c1.2,0.68,1.87,0.32,2.37-1.15
			c0.71-2.05,1.41-4.1,2.17-6.13c0.51-1.36,1.32-2.64,1.64-4.04c0.26-1.18,0.02-2.47-0.04-3.72c-0.02-0.42-0.28-0.84-0.24-1.24
			C171.18,286.02,170.36,283.86,169.07,281.72z"/>
		<path class="st1" d="M148.39,236.44c-0.86-3.03-1.73-5.97-2.44-8.95c-0.69-2.88-1.2-5.81-1.83-8.71c-0.3-1.39-0.77-2.75-1.06-4.15
			c-0.34-1.68-0.56-3.37-0.83-5.07c-0.37-2.37-0.73-4.75-1.08-7.12c-0.2-1.36-0.44-2.73-0.5-4.1c-0.02-0.38,0.52-0.78,0.8-1.17
			c0.35,0.28,0.93,0.5,1.01,0.84c0.36,1.44,0.64,2.91,0.84,4.39c0.32,2.36,0.44,4.75,0.87,7.08c0.47,2.52,1.25,4.97,1.83,7.47
			c0.76,3.25,1.37,6.54,2.19,9.77c0.88,3.45,1.99,6.84,2.89,10.28c0.81,3.1,1.46,6.24,2.23,9.35c0.86,3.47,1.83,6.91,2.64,10.39
			c0.98,4.16,1.8,8.35,2.77,12.5c0.45,1.91,1.08,3.78,1.63,5.67c0.95,3.21,1.9,6.42,2.87,9.62c0.68,2.24,1.4,4.47,2.1,6.7
			c0.19,0.61-0.46,2.99-0.97,3.08c-0.3,0.05-0.86-0.39-1.02-0.74c-0.53-1.17-1-2.39-1.37-3.62c-0.77-2.57-1.47-5.16-2.17-7.75
			c-0.65-2.39-1.28-4.79-1.89-7.19c-0.74-2.94-1.3-5.93-2.21-8.82c-0.86-2.72-1.8-5.36-1.92-8.28c-0.07-1.67-0.87-3.31-1.32-4.97
			c-0.54-2.03-1.1-4.06-1.57-6.1c-0.51-2.19-0.9-4.4-1.4-6.58C149.21,239,148.81,237.76,148.39,236.44z"/>
		<path class="st1" d="M76.82,273.41c1.71-5.24,3.42-10.34,5.14-15.44c0.99-2.92,2.03-5.83,2.97-8.77c0.87-2.71,1.58-5.47,2.45-8.18
			c1.61-5.05,3.2-10.11,4.94-15.11c1.42-4.09,3.03-8.11,4.56-12.16c0.06-0.16,0.11-0.35,0.22-0.44c0.31-0.25,0.66-0.44,1-0.66
			c0.07,0.43,0.3,0.91,0.18,1.28c-0.42,1.3-0.98,2.57-1.46,3.85c-0.76,2.03-1.48,4.07-2.24,6.1c-0.88,2.34-1.84,4.65-2.66,7.01
			c-1.75,5.04-3.16,10.17-4.33,15.38c-0.43,1.94-1.1,3.81-1.99,5.66c-1.5,3.14-2.39,6.57-3.53,9.88
			c-2.33,6.74-4.67,13.47-6.97,20.22c-2.42,7.11-4.67,14.27-7.28,21.31c-0.93,2.52-1.2,5.16-2.13,7.63
			c-0.72,1.91-1.44,3.76-1.67,5.82c-0.08,0.69-1.15,1.3-1.82,1.88c-0.11,0.1-0.69-0.09-0.79-0.28c-0.31-0.61-0.85-1.39-0.68-1.91
			c0.96-2.92,2.05-5.81,3.21-8.66c0.78-1.93,1.88-3.73,2.63-5.67c1.09-2.84,2-5.75,2.99-8.63c0.79-2.28,1.6-4.56,2.39-6.85
			c1.35-3.9,2.69-7.8,4.07-11.69C76.2,274.46,76.55,274.02,76.82,273.41z"/>
	</g>
</g>
</svg>
