<?xml version="1.0" encoding="utf-8"?>
<!-- Generator: Adobe Illustrator 23.0.4, SVG Export Plug-In . SVG Version: 6.00 Build 0)  -->
<svg version="1.1" xmlns="http://www.w3.org/2000/svg" xmlns:xlink="http://www.w3.org/1999/xlink" x="0px" y="0px"
	 viewBox="0 0 766 524" style="enable-background:new 0 0 766 524;" xml:space="preserve">
<style type="text/css">
	.st0{fill:#606060;}
	.st1{fill:#FFFFFF;}
</style>
<g id="kruis">
	<polygon class="st0" points="24,377 65,344 81,374 117,350 146,372 112,406 153,442 134,471 90,439 67,489 32,467 62,420 	"/>
	<g id="Vorm_15_1_">
		<path d="M97.16,464.88c-1.43-1.16-2.79-2.18-4.07-3.31c-1.32-1.16-2.26-0.87-3.11,0.53c-1.25,2.04-2.6,4.02-3.79,6.1
			c-4.11,7.2-8.26,14.39-12.2,21.69c-1.49,2.76-2.35,5.84-3.71,8.68c-0.79,1.65-1.95,3.14-3.05,4.62c-0.22,0.29-1.01,0.44-1.4,0.29
			c-5.7-2.22-11.54-4.16-17.01-6.86c-6.01-2.97-11.75-6.51-17.43-10.1c-1.73-1.1-3.08-3.03-4.14-4.84
			c-0.37-0.63,0.41-2.24,1.05-3.12c4.74-6.52,10.1-12.56,14.56-19.33c4.34-6.59,9.12-12.89,13.78-19.27c1.7-2.32,1.83-3.35-0.34-5.3
			c-5.38-4.83-10.76-9.66-16.29-14.31c-4.96-4.17-10.19-8.02-15.19-12.15c-2.35-1.94-3.11-4.84-3.58-7.72
			c-0.1-0.58,0.55-1.32,0.91-1.95c1.76-3.01,3.45-6.06,5.35-8.99c1.76-2.71,3.54-5.45,5.68-7.85c2.49-2.79,5.36-5.24,8.12-7.79
			c0.57-0.53,1.41-0.77,2.01-1.28c2.14-1.81,4.25-3.66,6.33-5.53c1.86-1.68,3.66-3.42,5.52-5.11c0.99-0.89,2.48-0.57,3.49,0.65
			c1.89,2.3,3.79,4.6,5.7,6.88c2.17,2.58,4.31,5.18,6.54,7.71c3.44,3.9,6.94,7.74,10.41,11.62c0.29,0.33,0.6,0.66,0.82,1.04
			c0.74,1.3,1.36,1.42,2.65,0.37c3.97-3.25,8.14-6.27,12.18-9.45c1.75-1.38,3.39-2.9,5.08-4.36c5.06-4.4,10.08-8.84,15.19-13.18
			c1.8-1.53,3.77-2.87,5.76-4.14c0.43-0.28,1.53-0.1,1.94,0.28c3.34,3.07,6.69,6.15,9.83,9.42c3.15,3.28,6,6.83,9.09,10.17
			c1.44,1.56,3.25,2.77,4.64,4.36c1.38,1.57,2.34,3.51,3.68,5.13c1.51,1.81,0.35,2.9-0.86,3.95c-4.12,3.52-8.64,6.46-13.16,9.43
			c-3.09,2.04-5.45,5.16-8.27,7.65c-2.94,2.6-6.09,4.96-9.03,7.56c-1.27,1.12-2.22,2.6-3.33,3.91c-0.63,0.74-0.25,0.99,0.41,1.55
			c5.72,4.89,12.29,8.63,17.63,14.08c4.74,4.84,10.28,8.9,15.47,13.29c2.37,2.01,4.81,3.95,7.14,6c1.1,0.97,1.16,2.3-0.02,3.17
			c-4.52,3.36-5.91,8.88-9.17,13.1c-1.9,2.47-3.67,5.03-5.53,7.53c-1.93,2.61-3.86,5.23-5.85,7.8c-0.94,1.21-1.95,2.39-3.09,3.41
			c-0.34,0.31-1.38,0.29-1.8-0.01c-3.53-2.43-6.99-4.98-10.48-7.47c-5.66-4.04-11.37-8.01-16.99-12.11
			C102.49,469.34,99.91,467.11,97.16,464.88 M29.43,393.22c-1.48,2.4-2.92,4.83-4.47,7.18c-0.6,0.92-0.8,1.54,0.2,2.35
			c3.21,2.59,6.34,5.28,9.52,7.9c2.83,2.33,5.69,4.62,8.52,6.96c4.01,3.32,7.98,6.68,11.98,10c1.94,1.61,4,3.08,5.87,4.77
			c0.68,0.61,1.55,1.96,1.3,2.48c-1.67,3.52-3.39,7.04-5.51,10.29c-3.6,5.5-7.48,10.82-11.29,16.17
			c-4.62,6.48-9.28,12.94-13.99,19.36c-0.6,0.82-0.38,0.88,0.34,1.22c1.93,0.89,3.86,1.79,5.69,2.86c3.86,2.26,7.5,4.94,11.52,6.87
			c4.57,2.19,9.44,3.78,14.2,5.58c2.7,1.02,2.74,0.97,3.97-1.46c1.95-3.85,3.75-7.77,5.83-11.54c2.9-5.24,5.96-10.39,9.06-15.51
			c2.92-4.83,6-9.57,8.99-14.37c0.84-1.35,1.49-2.83,2.44-4.08c0.42-0.54,1.38-0.67,2.1-0.98c0.06,0.59,0.3,1.23,0.14,1.75
			c-0.35,1.15-0.82,2.28-1.38,3.36c-0.82,1.58-0.79,2.91,0.83,3.91c0.77,0.48,1.69,0.74,2.41,1.28
			c6.82,5.07,13.57,10.24,20.43,15.25c5.16,3.77,10.44,7.36,15.71,10.96c0.29,0.2,1.22,0,1.44-0.31c3.68-5.01,7.39-10,10.88-15.15
			c2.4-3.54,4.51-7.29,6.61-11.02c0.27-0.49-0.1-1.69-0.57-2.19c-1.45-1.55-3.1-2.91-4.66-4.35c-5.26-4.86-10.52-9.73-15.78-14.59
			c-0.84-0.78-1.7-1.55-2.6-2.27c-3.75-2.97-7.44-6.01-11.31-8.81c-1.61-1.16-2.72-3.62-5.49-2.67c-0.35,0.12-1.43-0.67-1.46-1.1
			c-0.06-0.71,0.26-1.67,0.76-2.17c2.46-2.48,4.98-4.89,7.59-7.21c1.15-1.02,2.64-1.66,3.78-2.69c3.07-2.8,6-5.75,9.05-8.58
			c1.53-1.42,3.12-2.81,4.82-4.02c3.68-2.62,7.43-5.13,11.17-7.66c0.97-0.66,0.81-1.19-0.03-1.82c-0.86-0.65-1.75-1.3-2.47-2.09
			c-3.32-3.65-6.46-7.49-9.92-11c-3.9-3.96-8.06-7.66-12.19-11.39c-0.33-0.3-1.47-0.12-1.94,0.23c-1.33,0.99-2.48,2.23-3.77,3.28
			c-4.24,3.5-8.52,6.95-12.78,10.44c-3.04,2.49-5.97,5.11-9.1,7.47c-3.36,2.54-7.01,4.7-10.31,7.31c-2.58,2.04-3.43,2.27-5.72-0.13
			c-2.12-2.22-4.07-4.61-6.14-6.88c-1.15-1.26-2.48-2.35-3.59-3.64c-4.53-5.25-9-10.55-13.5-15.83c-0.6-0.71-1.03-1.26-1.99-0.16
			c-1.8,2.06-3.82,3.93-5.78,5.84c-1.1,1.08-2.24,2.12-3.43,3.1c-2.04,1.69-4.43,3.05-6.13,5.02
			C35.87,384.67,32.82,388.91,29.43,393.22z"/>
		<path d="M58.04,402.36c-0.67-0.08-1.25-0.26-1.82-0.44c0.2-0.21,0.53-0.64,0.59-0.6C57.28,401.58,57.7,401.94,58.04,402.36z"/>
	</g>
</g>
<g id="taart">
	<path class="st0" d="M634,375c0,0-29,1-29,8s-2,46-2,46s0.29,12.37,5.14,11.18C613,439,613,443,618,441s10.05,6.48,12.02,2.74
		C632,440,641,445,641,444s8,3,9,0s10,6,11,2s10,2,10-1s9,3,9,0s13,7,11-1s8,1,8-3s10.43,1.61,10.72-1.19C710,437,721,444,720,439
		s11,0,8-6s-4-5-4-5s0.26-36.85,0-40c-1-12-32-20-35-18s-2-9-2-9l-4-2l1-20l-4-2v-4c0,0,3-10-1-11s-6.5,15.5-2.5,13.5l-3,3l-17,21
		l1,11c0,0-13,2-12,2s2-27,2-27l-4-2l-1-2c0,0,1-12-3-12s-3,10,0,11s0,4,0,4l-13,14l7,4l6-3c0,0-3,14-3,15S634,375,634,375z"/>
	<g id="Vorm_16_1_">
		<path class="st1" d="M618.12,400.32c1.49,0.65,2.94,1.26,4.4,1.87c1.99,0.83,3.94,1.74,6.11,2.05c1.41,0.2,2.78,0.65,4.18,0.92
			c1.05,0.21,2.13,0.27,3.18,0.47c1.84,0.34,3.67,0.74,5.51,1.12c0.67,0.14,1.33,0.31,2,0.41c2.27,0.34,4.55,0.67,6.83,0.99
			c0.47,0.07,0.94,0.12,1.42,0.14c1.15,0.06,2.3,0.09,3.45,0.15c1.83,0.09,3.67,0.18,5.5,0.28c1.34,0.08,2.68,0.21,4.03,0.27
			c2.66,0.11,5.32,0.27,7.99,0.26c1.47-0.01,2.93-0.36,4.4-0.53c1.01-0.12,2.03-0.16,3.04-0.29c1.17-0.15,2.33-0.36,3.5-0.52
			c0.91-0.12,1.84-0.19,2.75-0.32c1.26-0.18,2.52-0.34,3.76-0.59c1.83-0.37,3.65-0.79,5.46-1.24c1.71-0.43,3.4-0.94,5.11-1.39
			c1.84-0.49,3.69-0.92,5.53-1.41c1.98-0.53,3.96-1.05,5.9-1.69c3.13-1.03,6.22-2.15,9.33-3.24c1.57-0.55,3.16-1.07,4.71-1.68
			c0.8-0.31,1.4-1.02,2.33-1.18c0.88-0.15,1.23-0.1,1.42,0.71c0.33,1.44,0.63,2.89,0.84,4.36c0.29,2,0.5,4.02,0.71,6.03
			c0.09,0.82,0.12,1.65,0.14,2.47c0.06,1.88,0.17,3.77,0.13,5.66c-0.07,2.71-0.26,5.41-0.41,8.11c-0.03,0.52-0.28,1.12-0.1,1.54
			c0.51,1.25-0.23,2.43-0.06,3.65c0.07,0.52-0.2,1.09-0.24,1.64c-0.05,0.57,0.02,1.14-0.02,1.71c-0.07,1.2-0.1,2.42-0.31,3.6
			c-0.09,0.48-0.57,0.91-0.94,1.31c-0.06,0.06-0.63-0.17-0.7-0.36c-0.14-0.39-0.16-0.85-0.14-1.27c0.06-0.92,0.19-1.84,0.27-2.76
			c0.11-1.27,0.22-2.54,0.28-3.82c0.04-1.03-0.32-1.3-1.33-1.02c-2.22,0.62-4.43,1.3-6.67,1.87c-2.17,0.55-4.36,1-6.55,1.49
			c-1.67,0.37-3.34,0.76-5.02,1.1c-1.54,0.31-3.09,0.56-4.63,0.88c-1.48,0.31-2.96,0.64-4.42,1.05c-0.3,0.08-0.58,0.47-0.72,0.79
			c-0.6,1.34-1.05,2.76-1.73,4.06c-0.69,1.33-1.61,2.47-3.15,3c-1.01,0.34-2.31-0.5-2.47-1.62c-0.09-0.67-0.47-1.31-0.63-1.98
			c-0.28-1.15-0.52-2.32-0.74-3.49c-0.14-0.72-0.18-1.47-0.33-2.19c-0.1-0.48-0.96-0.74-1.76-0.61c-0.38,0.06-0.76,0.1-1.14,0.14
			c-1.58,0.19-3.17,0.39-4.75,0.56c-1.85,0.2-3.7,0.37-5.55,0.57c-0.5,0.06-1.02,0.13-1.49,0.3c-0.23,0.08-0.39,0.39-0.58,0.6
			c0.23,0.17,0.46,0.49,0.68,0.48c1.19-0.07,2.38-0.23,3.57-0.36c0.18-0.02,0.36-0.04,0.55-0.04c2.27,0,4.51-0.24,6.74-0.69
			c0.93-0.19,1.88-0.24,2.83-0.28c0.27-0.01,0.54,0.23,0.81,0.35c-0.22,0.16-0.41,0.38-0.65,0.47c-2.05,0.78-4.14,1.39-6.37,1.42
			c-1.55,0.02-3.11,0.16-4.66,0.27c-1.09,0.08-2.17,0.16-3.25,0.3c-0.23,0.03-0.5,0.25-0.64,0.46c-0.24,0.33-0.39,0.72-0.57,1.09
			c-0.81,1.64-2.21,2.65-3.83,3.33c-1.19,0.49-2.41,0.09-3.41-0.58c-1.2-0.8-2.25-1.81-2.54-3.34c-0.11-0.56-0.31-1.12-0.32-1.69
			c-0.01-0.66-0.41-0.59-0.79-0.54c-1.17,0.16-2.32,0.46-3.49,0.53c-2.56,0.16-5.12,0.22-7.68,0.3c-1.99,0.06-3.99,0.11-5.98,0.13
			c-0.47,0-0.83,0.22-0.88,0.59c-0.16,1.14-0.71,2.1-1.28,3.06c-0.75,1.27-1.75,2.21-3.21,2.59c-0.72,0.19-1.42,0.15-2.08-0.21
			c-0.36-0.19-0.72-0.41-1.11-0.53c-1.17-0.38-2.08-1.05-2.36-2.27c-0.12-0.51,0.06-1.1,0.1-1.65c0.08-1.08,0.18-2.15,0.22-3.23
			c0.02-0.52-0.37-0.63-0.8-0.59c-1.49,0.14-2.98,0.4-4.46,0.39c-2.05-0.02-4.1-0.22-6.15-0.4c-1.54-0.14-3.08-0.34-4.61-0.56
			c-1.03-0.15-2.07-0.28-3.06-0.58c-1.39-0.41-2.73-0.98-4.1-1.46c-0.22-0.08-0.48-0.07-0.72-0.1c-0.01,0.25-0.05,0.51-0.01,0.76
			c0.19,1.18,0.4,2.36,0.61,3.54c0.1,0.57,0.1,1.17,0.32,1.7c0.12,0.29,0.58,0.62,0.89,0.62c2.16-0.03,3.33,1.25,4.21,2.98
			c0.1,0.2,0.25,0.38,0.37,0.56c0.09-0.21,0.14-0.45,0.27-0.63c0.58-0.78,1.32-1.38,2.27-1.6c2.43-0.58,4.36,0.33,5.96,2.12
			c0.39,0.44,0.73,0.91,1.1,1.37c0.32,0.41,0.82,0.34,1.21-0.07c0.63-0.64,1.36-1.07,2.3-1.21c1.02-0.15,1.99-0.17,2.93,0.3
			c1.16,0.59,2.41,1.05,3.45,1.81c0.8,0.58,1.39,1.48,1.94,2.33c0.35,0.54,0.51,0.57,0.92,0.12c1.22-1.35,2.82-1.99,4.58-2.13
			c1.17-0.1,2.12,0.55,3.07,1.22c1.02,0.72,1.18,1.86,1.72,2.81c0.1,0.17,0.21,0.33,0.28,0.52c0.18,0.53,0.42,0.4,0.74,0.11
			c1.57-1.41,3.34-2.35,5.46-2.75c1.65-0.31,2.44,0.61,3.22,1.71c0.26,0.37,0.47,0.79,0.71,1.18c0.24,0.4,0.9,0.57,1.17,0.23
			c0.97-1.22,2.48-1.37,3.75-1.98c1.02-0.49,2.1-0.5,3.16-0.68c0.8-0.13,1.55,0.1,2.08,0.7c0.68,0.77,1.27,1.62,1.9,2.44
			c0.14,0.18,0.23,0.43,0.41,0.51c0.15,0.07,0.49-0.01,0.57-0.14c0.52-0.83,0.92-1.75,1.51-2.52c0.65-0.85,1.7-1.26,2.7-1.38
			c1.4-0.18,2.86-0.12,4.12,0.67c0.64,0.41,1.25,0.91,1.78,1.46c0.78,0.83,1.28,1.14,2.41,0.03c0.95-0.94,1.91-1.94,3.22-2.39
			c1.79-0.61,3.61-1.21,5.53-0.55c0.74,0.25,1.48,0.52,2.16,0.89c0.33,0.18,0.5,0.62,0.76,0.93c0.1,0.12,0.26,0.29,0.38,0.28
			c0.12-0.01,0.26-0.2,0.32-0.34c0.41-0.96,0.94-1.81,1.84-2.39c1.35-0.86,2.74-1.65,4.33-1.91c0.82-0.14,1.69-0.08,2.37,0.51
			c0.75,0.65,1.46,1.34,2.17,2.02c0.68,0.66,1.1,0.59,1.47-0.28c0.27-0.64,0.55-1.27,0.79-1.92c0.43-1.16,1.15-2.09,2.13-2.83
			c0.76-0.57,1.56-0.58,2.38-0.15c1,0.52,2.01,1.03,2.99,1.6c0.78,0.45,1.09,0.27,1.33-0.6c0.32-1.19,0.71-2.38,1.27-3.47
			c0.44-0.85,1.16-1.58,2.2-1.77c0.37-0.07,0.81-0.08,1.16,0.05c0.97,0.37,1.94,0.76,2.85,1.26c0.73,0.4,1.38,0.98,2.06,1.47
			c0.29,0.21,0.56,0.45,0.88,0.58c0.38,0.16,0.61-0.06,0.8-0.4c0.29-0.52,0.79-0.62,1.1-0.17c0.78,1.11,1.31,2.43,0.94,3.74
			c-0.33,1.16-1.1,2.18-2.37,2.65c-1.07,0.4-2.09,0.98-3.19,1.28c-1.13,0.31-2.34,0.6-3.33-0.46c-0.29-0.31-0.56-0.15-0.71,0.19
			c-0.87,1.98-2.56,3-4.46,3.7c-0.57,0.21-1.31,0-1.96-0.1c-0.4-0.06-0.77-0.32-1.17-0.39c-0.26-0.04-0.66-0.01-0.83,0.16
			c-0.98,1-2.27,1.33-3.55,1.62c-1.11,0.25-2.27,0.41-3.4,0.41c-0.78,0-1.58-0.32-2.35-0.58c-0.47-0.16-0.72-0.11-0.98,0.34
			c-0.2,0.35-0.53,0.66-0.87,0.89c-1.36,0.88-2.86,1.29-4.49,1.39c-0.97,0.06-1.92,0.25-2.85-0.17c-0.06-0.03-0.17,0.01-0.2-0.02
			c-0.75-1.01-1.47-0.27-2.22,0.01c-0.85,0.32-1.72,0.59-2.6,0.84c-0.61,0.18-1.24,0.31-1.86,0.42c-1.23,0.24-2.46,0.38-3.57-0.42
			c-0.36-0.26-0.73-0.51-1.07-0.81c-0.44-0.38-0.73-0.39-1.11,0.13c-1.1,1.48-2.52,2.53-4.45,2.33c-0.99-0.11-1.99-0.5-2.89-0.96
			c-0.98-0.5-0.91-0.47-1.74,0.26c-0.71,0.62-1.67,1.04-2.58,1.35c-1.37,0.47-2.83,0.5-4.22,0.06c-0.52-0.17-0.97-0.64-1.39-1.04
			c-0.47-0.46-0.79-0.4-1.28,0.01c-1.95,1.64-4.2,2.25-6.65,1.45c-1.1-0.36-2.14-1.02-2.76-2.13c-0.21-0.39-0.51-0.73-0.78-1.08
			c-0.25-0.31-0.49-0.37-0.87-0.1c-1.42,0.99-2.85,1.98-4.58,2.32c-0.32,0.06-0.74-0.12-1.04-0.31c-0.98-0.64-1.72-1.53-2.26-2.55
			c-0.32-0.6-0.58-0.57-1-0.12c-0.71,0.75-1.46,1.43-2.47,1.83c-0.71,0.28-1.31,0.21-1.89-0.08c-0.87-0.44-1.75-0.92-2.53-1.52
			c-0.72-0.54-1.34-1.22-1.93-1.91c-0.45-0.52-0.62-0.54-1.18-0.12c-1.11,0.84-2.16,1.88-3.77,1.59c-1.51-0.28-2.85-0.9-3.96-1.96
			c-1.21-1.16-1.2-1.19-2.41,0c-0.78,0.77-1.72,0.5-2.57,0.34c-1.83-0.33-3.31-1.34-4.57-2.7c-0.6-0.65-0.74-0.63-1.4-0.07
			c-0.95,0.8-2.08,1.19-3.27,1.43c-0.82,0.17-1.61,0.24-2.33-0.36c-0.85-0.71-1.3-1.64-1.5-2.68c-0.22-1.12-0.33-2.27-0.42-3.41
			c-0.02-0.32,0.2-0.65,0.32-0.98c0.12-0.35,0.25-0.69,0.36-1.04c0.12-0.35,0.12-0.8,0.35-1.04c0.79-0.85,0.44-1.72,0.23-2.64
			c-0.25-1.08-0.33-2.2-0.59-3.27c-0.36-1.47-0.12-3.03-0.8-4.44c-0.06-0.13-0.01-0.37,0.07-0.51c0.57-0.92,0.22-1.86,0.11-2.8
			c-0.09-0.75-0.25-1.49-0.34-2.24c-0.2-1.68-0.39-3.36-0.56-5.04c-0.05-0.54-0.03-1.09,0-1.64c0.08-1.46,0.18-2.92,0.28-4.38
			c0.11-1.8,0.15-3.62,0.56-5.39c0.24-1.02,0.54-2.03,0.73-3.07c0.32-1.7,0.95-3.38,0.65-5.13c-0.22-1.28,0.02-2.44,0.59-3.51
			c0.59-1.1,1.32-2.13,2.02-3.17c0.35-0.52,0.8-0.98,1.18-1.48c0.71-0.94,1.73-1.37,2.77-1.79c1.36-0.55,2.69-1.22,4.09-1.66
			c2.06-0.65,4.14-1.31,6.27-1.62c1.2-0.18,2.29-0.66,3.46-0.84c1.56-0.24,3.11-0.55,4.67-0.76c1.34-0.19,2.69-0.29,4.04-0.43
			c0.12-0.01,0.27-0.05,0.34,0.01c0.23,0.16,0.43,0.36,0.65,0.55c-0.18,0.11-0.34,0.27-0.53,0.31c-0.83,0.15-1.68,0.24-2.51,0.4
			c-1.84,0.36-3.67,0.74-5.51,1.12c-1.98,0.41-3.96,0.83-5.94,1.26c-3.11,0.68-6.16,1.6-8.93,3.17c-0.99,0.56-1.85,1.49-2.56,2.41
			c-0.94,1.22-1.89,2.46-2.19,4.08c-0.23,1.22,0.16,2.14,1.31,2.57c0.67,0.25,1.3,0.59,1.96,0.87
			C616.98,399.85,617.54,400.06,618.12,400.32 M677.86,424.94c0.79-0.37,1.59-0.7,2.36-1.1c0.72-0.37,1.49-0.72,2.07-1.26
			c0.82-0.77,1.44-1.75,2.22-2.57c0.63-0.66,1.17-1.48,2.21-1.6c1-0.12,1.99-0.32,2.99-0.4c0.66-0.05,1.21,0.57,1.23,1.25
			c0.01,0.21-0.04,0.43,0.01,0.63c0.23,1-0.07,1.9-0.52,2.76c-0.18,0.35-0.43,0.66-0.6,1.01c-0.53,1.07-0.69,2.15,0.08,3.2
			c0.6,0.82,1.17,1.68,1.8,2.48c1.04,1.33,1.24,2.93,1.49,4.51c0.1,0.65,0.04,1.33,0.22,1.95c0.28,1,0.72,1.95,1.05,2.93
			c0.21,0.63,0.81,1.1,1.32,0.31c0.75-1.15,1.4-2.36,2.05-3.57c0.21-0.4,0.33-0.85,0.42-1.3c0.07-0.31,0.06-0.67-0.45-0.37
			c-0.07,0.04-0.27-0.04-0.32-0.12c-0.06-0.09-0.07-0.29-0.01-0.36c0.14-0.17,0.31-0.35,0.51-0.44c0.86-0.38,1.1-1.09,1.12-1.95
			c0.03-1.16,0.08-2.32,0.14-3.48c0.04-0.88,0.15-1.76,0.13-2.63c-0.03-1.25,0.25-2.45,0.59-3.63c0.17-0.6,0.42-1.24,0.82-1.68
			c0.65-0.72,3.07-0.81,3.82-0.17c0.61,0.53,1.21,1.06,1.77,1.63c0.84,0.85,1.69,1.71,2.46,2.62c0.38,0.45,0.69,0.99,1.33,1.01
			c1.35,0.03,2.69-0.01,4.04-0.03c0.11,0,0.3-0.1,0.33-0.19c0.21-0.62,0.5-1.23,0.56-1.87c0.07-0.72-0.16-1.47-0.09-2.18
			c0.1-1.03,0.31-2.06,0.55-3.07c0.22-0.94,0.48-1.83,1.31-2.55c1.36-1.17,2.85-1.72,4.61-1.49c0.4,0.05,0.78,0.26,1.16,0.41
			c1.34,0.52,2.3,1.43,2.74,2.82c0.12,0.37,0.14,0.79,0.3,1.14c0.26,0.57,0.47,1.33,0.94,1.6c0.54,0.3,1.34,0.25,2.01,0.17
			c0.6-0.07,1.2-0.36,1.25-1.15c0.04-0.68,0.14-1.37,0.13-2.05c-0.03-2.73-0.08-5.46-0.14-8.18c-0.02-0.78-0.07-1.56-0.14-2.33
			c-0.17-1.8-0.34-3.59-0.57-5.39c-0.12-0.98-0.32-1.97-0.57-2.92c-0.1-0.4-0.39-0.66-0.96-0.39c-1.1,0.51-2.24,0.92-3.39,1.3
			c-1.01,0.34-2.07,0.53-3.08,0.87c-1.7,0.57-3.38,1.23-5.07,1.82c-2,0.71-4.01,1.41-6.02,2.08c-1.03,0.34-2.09,0.61-3.14,0.9
			c-1.51,0.43-3.01,0.88-4.53,1.27c-1.74,0.45-3.49,0.83-5.23,1.28c-1.35,0.35-2.68,0.78-4.03,1.11c-1.52,0.37-3.05,0.66-4.58,0.99
			c-0.64,0.14-1.28,0.34-1.93,0.41c-1.65,0.18-3.3,0.29-4.95,0.44c-0.9,0.08-1.8,0.17-2.69,0.28c-1.66,0.22-3.32,0.48-4.98,0.69
			c-0.77,0.1-1.55,0.1-2.33,0.15c-1.41,0.09-2.83,0.3-4.24,0.25c-1.94-0.07-3.87-0.36-5.81-0.53c-1.36-0.12-2.73-0.2-4.1-0.28
			c-1.65-0.1-3.29-0.2-4.94-0.28c-1.13-0.06-2.26-0.04-3.38-0.16c-1.28-0.13-2.56-0.35-3.83-0.57c-1.44-0.25-2.86-0.57-4.3-0.81
			c-1.51-0.26-3.04-0.46-4.55-0.72c-1.93-0.34-3.86-0.73-5.79-1.11c-1.36-0.27-2.72-0.55-4.08-0.84c-1.33-0.28-2.58-0.77-3.77-1.41
			c-0.73-0.39-1.46-0.76-2.21-1.11c-1.59-0.75-3.17-1.49-4.77-2.22c-0.69-0.31-1.27-0.79-2.15-0.81c-0.63-0.02-0.78,0.24-0.88,0.61
			c-0.24,0.87-0.42,1.76-0.57,2.64c-0.3,1.71-0.59,3.41-0.84,5.13c-0.15,1.03-0.21,2.07-0.28,3.11c-0.01,0.19,0.08,0.39,0.12,0.58
			c0.15-0.09,0.34-0.16,0.44-0.29c0.6-0.81,1.5-0.91,2.36-0.86c0.93,0.05,2.26,1.8,2.27,2.75c0.02,1.55,0.22,3.06,0.99,4.44
			c0.39,0.69,0.81,1.37,1.28,1.99c0.35,0.46,0.83,0.82,1.22,1.25c0.56,0.62,1.05,1.33,1.66,1.9c0.37,0.35,0.81,0.8,1.47,0.49
			c1.07-0.5,1.89-1.29,2.65-2.16c0.86-0.97,1.67-2.02,2.9-2.55c1.37-0.59,2.75-1.19,4.17-1.62c0.91-0.27,1.89-0.11,2.65,0.62
			c0.4,0.39,0.81,0.77,1.18,1.19c0.54,0.61,0.9,1.31,0.89,2.16c-0.01,1.01-0.04,2.03,0.01,3.04c0.04,0.95,0.22,1.89,0.26,2.83
			c0.08,1.81,0.12,3.63,0.14,5.44c0.01,0.54-0.08,1.09-0.13,1.63c-0.05,0.5-0.12,1.01-0.13,1.51c-0.01,0.49-0.07,1.02,0.08,1.46
			c0.45,1.3,1.7,1.67,2.82,2.08c0.52,0.19,1.27,0.23,1.75-0.01c1.05-0.51,1.57-1.61,2.05-2.6c0.32-0.66,0.65-1.44,0.34-2.28
			c-0.13-0.35-0.12-0.82,0-1.18c0.2-0.56,0.02-0.94-0.41-1.19c-0.54-0.31-0.38-0.55-0.08-0.91c0.19-0.23,0.37-0.51,0.45-0.79
			c0.37-1.3,0.57-2.67,1.08-3.91c0.57-1.37,1.91-2.1,3.14-2.82c0.93-0.54,1.99-0.71,2.92,0.03c0.9,0.71,1.7,1.54,2.59,2.26
			c0.31,0.25,0.73,0.44,1.12,0.48c1.55,0.17,3.04-0.06,4.46-0.73c1.46-0.69,2.96-1.19,4.61-1.07c1.31,0.1,2.26,0.58,2.15,2.19
			c-0.07,1.1-0.11,2.21-0.14,3.31c-0.02,0.69-0.02,1.37,0,2.06c0.02,0.66,0.14,1.32,0.12,1.98c-0.05,1.61,0.71,2.81,1.96,3.66
			c0.66,0.45,1.55,0.83,2.31,0.78c0.97-0.06,1.7-0.87,2.36-1.62c0.94-1.07,1.07-2.33,0.99-3.67c-0.03-0.5-0.24-0.58-0.65-0.54
			c-0.54,0.05-1.09,0.14-1.63,0.12c-0.24-0.01-0.46-0.26-0.69-0.41c0.19-0.23,0.34-0.58,0.59-0.67c0.49-0.18,1.06-0.15,1.55-0.33
			c0.31-0.11,0.64-0.38,0.79-0.67c0.19-0.38,0.15-0.87,0.32-1.27C675.21,427.73,675.9,425.93,677.86,424.94 M641.06,450.93
			c0.44,0.25,0.86,0.52,1.31,0.74c1,0.49,1.82,0.41,2.38-0.44c0.74-1.11,1.24-2.23,1.24-3.57c0-0.43,0.17-0.82,0.73-0.88
			c0.59-0.06,0.73,0.28,0.8,0.75c0.2,1.26,0.55,2.44,1.24,3.56c1.21,1.99,2,2.33,4,1.31c1.42-0.72,2.7-1.62,3.33-3.17
			c0.13-0.31,0.25-0.57,0.69-0.43c0.46,0.16,0.47,0.49,0.43,0.87c-0.04,0.37-0.23,0.77-0.14,1.09c0.77,2.53,3.48,4.15,6.03,3.6
			c1.18-0.25,2.33-0.68,2.69-2.04c0.18-0.66,0.35-1.33,0.39-2.01c0.03-0.54,0.37-0.83,0.72-0.81c0.45,0.02,0.74,0.36,0.72,0.95
			c-0.04,1.41,1.1,3,2.44,3.36c1.34,0.36,2.67,0.34,3.95-0.39c0.86-0.49,1.29-1.15,1.15-2.1c-0.04-0.26-0.35-0.55-0.61-0.69
			c-0.11-0.06-0.42,0.17-0.61,0.32c-0.16,0.13-0.27,0.33-0.41,0.49c-0.14-0.15-0.32-0.29-0.42-0.47c-0.72-1.22-1.36-2.5-2.16-3.66
			c-0.59-0.84-1.37-1.58-2.58-1.35c-0.67,0.13-1.36,0.21-2,0.43c-1.57,0.54-3.17,1.04-4.12,2.59c-0.22,0.36-0.56,0.64-0.82,0.98
			c-0.14,0.19-0.23,0.42-0.35,0.63c-0.17-0.23-0.41-0.44-0.48-0.7c-0.42-1.53-1.09-2.92-2.2-4.07c-0.84-0.87-2.11-0.9-3.07-0.17
			c-0.72,0.55-1.46,1.08-2.24,1.54c-1.29,0.76-1.54,1.32-0.92,2.63c0.22,0.46,0.13,0.64-0.35,0.64c-1.16-0.01-2.23-0.6-2.49-1.89
			c-0.16-0.77-0.5-1.52-0.83-2.25c-0.43-0.93-1.04-1.79-2.01-2.16c-1.29-0.48-2.43-0.04-3.55,0.78c-1.04,0.77-0.9,2.21-1.98,2.93
			c-0.52,0.35-0.78,0.49-1.08-0.08c-0.14-0.27-0.21-0.57-0.37-0.83c-0.63-1.05-1.2-2.15-1.94-3.12c-0.99-1.31-2.53-1.82-4.01-2.32
			c-1.63-0.56-3.17,0.04-3.72,1.49c-0.22,0.57-0.35,1.08-1.02,1.24c-0.11,0.03-0.22,0.23-0.26,0.37c-0.3,1.04-0.11,1.99,0.48,2.91
			c0.55,0.86,1.4,1.27,2.25,1.67c2,0.94,2.96,0.82,4.39-0.62c0.32-0.32,0.59-0.75,0.71-1.17c0.15-0.52,0.05-1.11,0.19-1.64
			c0.07-0.26,0.42-0.52,0.69-0.61c0.18-0.06,0.58,0.15,0.66,0.33c0.14,0.35,0.1,0.76,0.17,1.15c0.09,0.52,0.14,1.06,0.33,1.55
			C638.94,449.37,639.9,450.18,641.06,450.93 M702.24,443.41c-0.08,0.08-0.15,0.18-0.25,0.25c-1.34,0.9-1.99,2.18-2.06,3.77
			c-0.02,0.58,0.13,1.25-0.84,1.05c-0.05-0.01-0.12,0.05-0.17,0.09c-0.77,0.52-0.83,0.43-1.12-0.46c-0.26-0.77-0.56-1.64-1.12-2.18
			c-1.15-1.12-2.52-1.74-4.29-1.43c-1.44,0.25-2.73,0.6-3.73,1.7c-0.51,0.56-1.11,1.06-1.51,1.69c-0.36,0.56-1.12,1-0.74,1.92
			c0.4,0.96,1.17,1.52,2.07,1.74c1.79,0.44,3.58,0.15,5.32-0.39c1.36-0.43,1.77-0.98,1.78-2.36c0-0.14-0.04-0.3,0.01-0.42
			c0.19-0.46,0.4-0.9,1.04-0.88c0.66,0.03,0.55,0.47,0.65,0.91c0.36,1.55,0.73,2.34,2.44,2.32c0.97-0.01,1.96-0.08,2.9-0.3
			c0.57-0.13,1.12-0.54,1.55-0.96c0.2-0.19,0.17-0.71,0.1-1.05c-0.1-0.51-0.33-0.98-0.48-1.48c-0.1-0.34-0.24-0.71-0.18-1.03
			c0.05-0.27,0.32-0.57,0.57-0.71c0.16-0.08,0.53,0.04,0.69,0.19c0.23,0.22,0.37,0.54,0.53,0.82c0.15,0.26,0.24,0.58,0.43,0.8
			c1.22,1.39,2.94,1.47,4.59,1.6c1.23,0.09,2.42-0.27,3.54-0.81c0.94-0.46,1.15-1.21,0.54-2.06c-0.44-0.61-0.8-1.26-0.66-2.04
			c0.05-0.29,0.22-0.72,0.44-0.79c0.37-0.12,0.87-0.18,1.06,0.41c0.12,0.39,0.31,0.76,0.46,1.15c0.85,2.2,2.85,2.71,5.01,1.89
			c1.42-0.54,2.11-1.82,2.61-3.24c0.22-0.62,0.01-1.18,0.14-1.73c0.08-0.33,0.47-0.59,0.71-0.88c0.2,0.18,0.45,0.32,0.57,0.54
			c0.21,0.37,0.32,0.8,0.51,1.19c0.44,0.87,1.09,1.43,2.17,1.47c1.49,0.04,2.68-0.76,3.87-1.49c1.24-0.76,1.15-1.99,0.96-3.19
			c-0.03-0.21-0.25-0.43-0.43-0.58c-0.13-0.11-0.34-0.1-0.52-0.15c0.04,0.14,0.07,0.29,0.13,0.43c0.27,0.63,0.17,1.22-0.31,1.43
			c-0.62,0.27-0.91-0.24-1.23-0.61c-0.08-0.09-0.07-0.26-0.15-0.36c-0.43-0.55-0.81-1.16-1.31-1.63c-0.8-0.74-1.8-1.11-2.83-1.46
			c-1.5-0.52-2.07-0.56-2.83,0.36c-0.27,0.33-0.51,0.74-0.59,1.15c-0.16,0.77-0.16,1.58-0.31,2.36c-0.19,1.01-0.09,2.2-1.43,2.61
			c-0.12,0.04-0.19,0.25-0.3,0.28c-0.2,0.04-0.54,0.07-0.61-0.03c-0.8-1.28-2.21-1.77-3.37-2.57c-0.5-0.34-1.25-0.68-1.87-0.21
			c-0.57,0.43-1.1,0.95-1.26,1.71c-0.08,0.38-0.19,0.76-0.35,1.12c-0.33,0.75-0.9,1.46-1,2.24c-0.14,1.05-1.21,1-1.58,1.7
			c-0.01,0.02-0.26-0.05-0.35-0.13c-0.19-0.17-0.35-0.36-0.51-0.56c-0.86-1.06-1.33-2.4-2.47-3.25c-0.77-0.58-1.62-0.87-2.53-0.53
			C703.63,442.56,702.98,442.99,702.24,443.41 M621.04,425.15c-0.97-0.97-1.94-1.94-2.91-2.91c-0.89-0.89-1.68-1.89-2.16-3.04
			c-0.66-1.55-1-3.2-1.04-4.9c-0.02-0.7-0.36-1.32-0.93-1.62c-0.59-0.31-1.44-0.08-2,0.42c-1.16,1.01-0.92,2.36-0.97,3.63
			c-0.03,0.73,0.2,1.46,0.25,2.2c0.16,2.07,0.34,4.14,0.41,6.21c0.04,1.43,0.58,1.41,1.63,1.43c0.57,0.01,1.15,0.05,1.71,0.16
			c1.01,0.19,2,0.54,3.02,0.65c2.26,0.25,4.54,0.42,6.81,0.57c1.81,0.13,3.62,0.18,5.43,0.29c0.78,0.05,1.56,0.19,2.34,0.27
			c0.92,0.1,1.84,0.21,2.76,0.26c0.15,0.01,0.46-0.29,0.46-0.46c0.08-1.71,0.07-3.43,0.18-5.13c0.07-1.09-0.16-2.03-0.85-2.89
			c-0.68-0.84-1.59-1.53-2.6-1.28c-2.21,0.54-4.38,1.2-5.93,3.14c-0.86,1.08-2.03,1.92-3.08,2.85
			C622.98,425.52,621.69,425.57,621.04,425.15 M703.64,421.07c-1.21-0.72-1.97-0.51-2.18,0.82c-0.3,1.83-0.41,3.69-0.54,5.54
			c-0.07,0.91,0.35,1.16,1.25,0.89c0.5-0.15,1.02-0.26,1.54-0.36c1.09-0.2,2.19-0.37,3.28-0.57c0.91-0.17,1.8-0.48,2.72-0.54
			c2.13-0.12,4.27-0.09,6.4-0.18c0.8-0.03,1.59-0.21,2.38-0.35c0.8-0.14,1.59-0.36,2.4-0.47c1.06-0.14,2.12-0.19,3.18-0.3
			c0.21-0.02,0.4-0.16,0.61-0.22c1.09-0.3,2.19-0.6,3.28-0.9c1.08-0.3,1.82-0.67,1.63-1.79c-0.03-0.16,0.07-0.34,0.11-0.51
			c0.3-1.13,0.02-1.49-1.15-1.49c-0.68,0-1.36,0.02-2.04-0.01c-0.36-0.01-0.74-0.04-1.09-0.14c-1.13-0.32-1.16-1.37-1.31-2.23
			c-0.3-1.65-1.21-2.73-2.67-3.42c-0.29-0.14-0.65-0.27-0.94-0.21c-1.48,0.31-2.92,0.76-3.33,2.48c-0.25,1.08-0.55,2.21-0.47,3.29
			c0.09,1.2,0.26,2.34-0.18,3.51c-0.54,1.44-1.41,2-2.81,2.05c-1.61,0.06-3.23,0.05-4.84-0.01c-0.38-0.01-0.8-0.27-1.1-0.53
			c-0.29-0.25-0.41-0.68-0.68-0.97C705.99,423.33,704.88,422.2,703.64,421.07 M651.94,432.17c-0.78,0.05-1.55,0.15-2.33,0.13
			c-0.97-0.03-1.94-0.17-2.9-0.27c-0.39-0.04-0.67,0.09-0.74,0.52c-0.09,0.6,0.13,0.89,0.86,0.87c0.97-0.03,1.93-0.22,2.9-0.25
			c0.77-0.03,1.55,0.12,2.33,0.12c1.1-0.01,2.21-0.08,3.31-0.13c0.64-0.03,1.27-0.08,1.91-0.14c2.05-0.18,4.1-0.39,6.16-0.55
			c1.24-0.1,1.48-0.33,1.5-1.62c0.02-0.96,0.07-1.93,0.14-2.89c0.08-1.1-0.33-1.74-1.15-1.67c-0.57,0.05-1.14,0.16-1.71,0.28
			c-0.81,0.17-1.75,0.19-2.4,0.62c-0.88,0.58-1.7,1.09-2.77,1.15c-1.21,0.06-2.46,0.23-3.5-0.6c-0.52-0.42-0.96-0.94-1.43-1.41
			c-0.63-0.62-1.18-1.36-2.25-1.18c-0.88,0.15-1.65,0.52-2.27,1.13c-1.08,1.07-1.35,2.52-1.75,3.9c-0.04,0.14,0.29,0.54,0.49,0.57
			c0.65,0.12,1.31,0.16,1.97,0.16c1.39-0.02,2.77-0.08,4.15-0.13c0.8-0.03,1.6-0.09,2.4-0.14c0.64-0.04,1.27-0.07,1.91-0.14
			c1.99-0.22,3.97-0.48,5.96-0.69c0.56-0.06,1.03,0.42,0.77,0.72c-0.34,0.39-0.79,0.81-1.27,0.92c-0.89,0.22-1.83,0.25-2.75,0.31
			C657.02,431.9,654.55,432.03,651.94,432.17 M683.2,430.56c0.32-0.02,0.64-0.04,0.95-0.07c1.65-0.18,3.31-0.37,4.96-0.56
			c0.19-0.02,0.37-0.08,0.55-0.12c-0.09-0.17-0.18-0.35-0.29-0.51c-0.46-0.7-1.09-1.33-1.37-2.1c-0.49-1.37,0-2.69,0.55-3.98
			c0.32-0.75,0.66-1.53,0.79-2.33c0.17-0.97,0.09-1.26-1.2-1.21c-0.39,0.02-0.79,0.11-1.17,0.22c-1.21,0.34-1.99,1.35-2.6,2.26
			c-1.15,1.7-2.62,2.87-4.5,3.54c-2.39,0.85-3.46,2.73-4.12,4.97c-0.12,0.41,0.03,0.74,0.57,0.66c0.4-0.06,0.8-0.1,1.2-0.14
			C679.41,431,681.27,430.81,683.2,430.56 M621.32,439.34c-0.26,0.24-0.63,0.43-0.75,0.73c-0.3,0.76-0.51,1.57-0.72,2.37
			c-0.08,0.3,0.1,0.76-0.51,0.44c-0.07-0.04-0.47,0.27-0.45,0.38c0.07,0.49,0.12,1.05,0.38,1.44c0.49,0.73,1.17,1.33,1.7,2.04
			c0.76,1.01,1.9,1.26,3,1.59c0.32,0.09,0.69,0.2,0.99,0.13c1.12-0.27,1.91-1.35,1.91-2.52c0-0.56-0.05-1.13,0.02-1.68
			c0.05-0.4,0.28-0.77,0.37-1.17c0.06-0.27,0.15-0.67,0.02-0.84c-0.67-0.81-1.36-1.64-2.16-2.31c-0.47-0.39-1.19-0.48-1.79-0.74
			C622.67,438.92,622.07,439.12,621.32,439.34 M612.26,443.06c0.01,0.22,0.07,0.46,0.01,0.66c-0.03,0.08-0.4,0.17-0.48,0.1
			c-1.06-0.87-0.68,0.11-0.64,0.51c0.1,1.25,0.61,2.21,1.8,2.82c1.17,0.6,3.64-0.52,4.2-1.29c0.24-0.33,0.38-0.75,0.21-1.29
			c-0.19-0.65-0.16-1.43-0.01-2.11c0.1-0.46,0.19-0.83-0.05-1.24c-0.11-0.18-0.18-0.39-0.27-0.59c-0.93-1.92-1.2-2.79-3.38-2.54
			c-0.72,0.08-1.45,0.1-1.84,1C611.19,440.5,611.36,441.73,612.26,443.06 M679.62,445.66c-0.46-0.01-0.94-0.12-1.37-0.02
			c-1.59,0.4-2.35,1.68-3.06,3.01c-0.27,0.5-0.11,0.71,0.39,0.65c0.54-0.07,0.77,0.23,1,0.62c0.78,1.34,1.64,2.51,3.36,2.84
			c1.7,0.33,3.29-0.26,4.1-1.8c0.33-0.62,0.47-1.29,0.13-1.93c-0.75-1.37-1.67-2.59-3.31-2.98
			C680.48,445.96,680.13,445.79,679.62,445.66 M700.62,431.4c-0.1,0.56,0.18,0.63,0.63,0.49c0.48-0.15,0.95-0.31,1.44-0.42
			c1.35-0.3,2.71-0.58,4.06-0.87c1.03-0.22,2.05-0.48,3.09-0.67c1.34-0.25,2.69-0.41,4.02-0.69c1.87-0.39,3.71-0.86,5.57-1.28
			c1.14-0.26,2.29-0.46,3.43-0.72c0.18-0.04,0.34-0.2,0.51-0.31c-0.17-0.04-0.34-0.12-0.49-0.1c-1.09,0.14-2.18,0.32-3.27,0.45
			c-1.83,0.23-3.67,0.46-5.51,0.65c-1.24,0.13-2.5,0.13-3.74,0.3c-1.4,0.2-2.77,0.52-4.16,0.79c-1.26,0.24-2.5,0.55-3.77,0.72
			C701.01,429.96,700.9,430.01,700.62,431.4 M619.14,430.13c1.22,0.16,2.44,0.36,3.66,0.48c0.63,0.06,1.28-0.03,1.92,0.02
			c1.37,0.11,2.74,0.32,4.11,0.4c1.62,0.1,3.25,0.08,4.88,0.17c0.54,0.03,1.07,0.25,1.61,0.34c0.21,0.03,0.44-0.08,0.67-0.12
			c-0.09-0.19-0.15-0.41-0.27-0.57c-0.08-0.11-0.25-0.2-0.39-0.21c-1.23-0.15-2.46-0.3-3.69-0.42c-0.75-0.07-1.51-0.07-2.26-0.15
			c-1.61-0.18-3.18-0.62-4.82-0.57c-1.08,0.03-2.21,0.1-3.23-0.18c-1.28-0.35-2.56-0.43-3.85-0.52c-0.6-0.04-1.19-0.17-1.78-0.28
			c-0.67-0.13-1.33-0.29-2-0.41c-0.12-0.02-0.28,0.11-0.41,0.17c0.11,0.08,0.21,0.19,0.33,0.24c0.41,0.15,0.82,0.29,1.24,0.41
			C616.25,429.31,617.66,429.68,619.14,430.13z"/>
		<path class="st1" d="M689.38,362.07c-0.3,1.68-0.57,3.29-0.9,4.9c-0.15,0.74,0,1.06,0.78,1.29c0.98,0.29,1.94,0.64,2.93,0.89
			c0.36,0.09,0.83,0.08,1.16-0.07c0.55-0.25,0.76,0,0.79,0.43c0.09,1.13,0.1,2.27,0.16,3.41c0.03,0.61,0.1,1.23,0.13,1.84
			c0.01,0.24-0.86,1.66-1.05,1.63c-0.18-0.03-0.47-0.25-0.47-0.38c0.01-1.62,0.07-3.24,0.12-4.86c0-0.16,0.03-0.33-0.01-0.49
			c-0.04-0.19-0.12-0.37-0.19-0.55c-0.13,0.12-0.29,0.22-0.38,0.37c-0.49,0.76-1.17,0.43-1.77,0.28c-1.48-0.38-2.95-0.78-4.4-1.24
			c-0.36-0.11-0.72-0.43-0.93-0.75c-0.09-0.14,0.21-0.53,0.34-0.8c0.03-0.05,0.11-0.12,0.16-0.11c1.07,0.21,1-0.63,1.15-1.25
			c0.32-1.32,0.75-2.63,0.9-3.97c0.21-1.86,1.13-3.6,0.92-5.53c-0.18-1.66-0.38-3.31-0.56-4.97c-0.05-0.48-0.05-0.96-0.09-1.44
			c-0.08-1.13-0.52-2.24-0.1-3.41c0.13-0.37-0.05-0.82-0.62-0.79c-0.57,0.03-1.13,0.11-1.7,0.13c-0.75,0.02-1.51,0.1-2.24-0.02
			c-1.07-0.17-1.94,0.3-2.78,0.76c-0.51,0.28-0.85,0.88-1.24,1.36c-1.17,1.43-2.3,2.9-3.49,4.31c-1.26,1.5-2.56,2.98-3.88,4.43
			c-0.6,0.66-1.37,1.18-1.96,1.86c-1.4,1.63-2.77,3.28-4.1,4.97c-0.69,0.88-1.26,1.86-1.87,2.81c-0.09,0.14-0.11,0.34-0.11,0.51
			c-0.01,2.06-0.02,4.12,0,6.18c0.01,0.82,0.08,1.65,0.14,2.47c0.01,0.11,0.13,0.26,0.24,0.3c0.36,0.15,0.73,0.38,1.1,0.38
			c1.96-0.01,3.91-0.08,5.87-0.12c0.16,0,0.33,0.01,0.49,0c1.3-0.09,2.59-0.21,3.89-0.27c0.9-0.04,1.81,0.03,2.72-0.02
			c0.88-0.05,1.75-0.27,2.62-0.25c1.72,0.03,3.43,0.17,5.15,0.26c1.69,0.09,3.39,0.21,5.08,0.27c0.97,0.04,1.94-0.02,2.9,0.03
			c0.29,0.02,0.56,0.26,0.84,0.4c-0.19,0.19-0.37,0.38-0.56,0.56c-0.01,0.01-0.06-0.01-0.07,0c-0.45,1.14-1.35,0.75-2.21,0.72
			c-1.41-0.04-2.82,0.09-4.23,0.11c-0.64,0.01-1.27-0.11-1.91-0.13c-0.98-0.02-1.37,0.49-1.15,1.45c0.05,0.24,0.12,0.47,0.14,0.71
			c0.15,1.6,0.27,3.21,0.44,4.81c0.02,0.22,0.28,0.47,0.49,0.61c0.86,0.61,1.83,0.54,2.68,0c0.26-0.16,0.82-0.15,1.04,0.03
			c0.25,0.21,0.37,0.69,0.38,1.06c0.03,0.64-0.21,1.31-0.09,1.92c0.28,1.38,0.09,2.72-0.21,4.04c-0.16,0.69-0.67,1.31-1.05,1.95
			c-0.05,0.08-0.25,0.14-0.36,0.12c-2.18-0.35-4.31-0.17-6.39,0.57c-1.14,0.4-2.27,0.14-3.42,0.02c-0.74-0.07-1.5,0.09-2.26,0.11
			c-0.68,0.02-1.36-0.01-2.04-0.04c-0.17-0.01-0.35-0.09-0.52-0.09c-0.7-0.03-1.2-0.71-0.99-1.4c0.32-1.06,0.62-2.12,0.49-3.23
			c-0.12-1.03-0.09-2.09-0.58-3.06c-0.21-0.41,0.19-1.08,0.66-1.16c0.05-0.01,0.09,0,0.14,0c1.53-0.14,3.07-0.27,4.6-0.42
			c0.75-0.07,0.58-0.78,0.63-1.17c0.15-1.12,0.11-2.27,0.18-3.4c0.03-0.51-0.22-0.71-0.65-0.76c-0.73-0.07-1.46-0.11-2.19-0.15
			c-1.1-0.05-2.21-0.14-3.31-0.13c-2.61,0.02-5.22,0.03-7.83,0.15c-1.59,0.08-3.17,0.37-4.76,0.53c-0.89,0.09-1.79,0.09-2.68,0.15
			c-1.16,0.08-2.26,0.26-3.27,0.95c-0.38,0.26-1.02,0.09-1.53,0.19c-0.27,0.05-0.6,0.21-0.75,0.42c-0.37,0.55-0.18,0.86,0.47,0.82
			c0.81-0.06,1.61-0.16,2.41-0.28c1.23-0.18,1.79,0.35,1.99,1.72c0.25,1.75,0.33,3.53,0.44,5.3c0.05,0.75,0.19,1.57-0.04,2.26
			c-0.27,0.83-0.87,1.56-1.37,2.31c-0.07,0.1-0.34,0.08-0.51,0.08c-1.16,0.01-2.31,0-3.47,0c-1.17,0-2.34-0.04-3.51,0.01
			c-1.34,0.05-2.69,0.26-4.03,0.25c-2.19-0.02-4.37-0.17-6.56-0.25c-0.28-0.01-0.65,0.2-0.82,0.08c-0.38-0.27-0.72-0.56-0.51-1.22
			c0.27-0.88,0.38-1.84,0.44-2.77c0.1-1.55,0.12-3.1,0.15-4.65c0.01-0.26-0.08-0.53-0.13-0.79c-0.11-0.54,0.35-1.05,0.98-1.06
			c1.19-0.01,2.37,0.01,3.44-0.68c0.4-0.26,0.64-0.48,0.64-1c0.01-1.34,0.09-2.68,0.12-4.02c0.02-0.92-0.03-1.84,0.01-2.76
			c0.07-1.74,0.13-3.49,0.29-5.22c0.09-1.03,0.37-2.05,0.54-3.07c0.03-0.21-0.04-0.44-0.07-0.67c-0.16,0.12-0.34,0.22-0.48,0.35
			c-0.76,0.73-1.4,1.62-2.51,1.9c-0.06,0.02-0.15,0.04-0.17,0.08c-0.54,0.88-1.06,0.45-1.7,0.08c-1.18-0.68-2.45-1.21-3.65-1.86
			c-0.71-0.38-1.43-0.8-2.04-1.32c-0.39-0.33-0.35-0.92,0.1-1.26c1.23-0.92,2.01-2.22,2.85-3.45c0.75-1.1,1.32-2.32,2.08-3.42
			c0.67-0.96,1.48-1.84,2.26-2.72c1.01-1.14,2.03-2.26,3.09-3.35c0.23-0.24,0.59-0.42,0.92-0.47c0.72-0.11,1.46-0.12,2.19-0.16
			c0.68-0.04,0.88-0.31,0.81-0.98c-0.06-0.49-0.03-0.98,0-1.47c0.03-0.52-0.17-0.8-0.62-1.08c-0.73-0.46-1.49-0.98-2.03-1.65
			c-1.11-1.38-0.94-3.84,0.07-5.4c0.59-0.91,1.05-1.9,1.48-2.89c0.14-0.33,0.01-0.78,0-1.17c-0.01-0.47-0.18-0.94,0.28-1.34
			c0.47-0.4,1.22-0.38,1.49,0.18c0.55,1.16,1.29,2.19,1.94,3.28c0.48,0.79,0.53,1.83,0.75,2.77c0.28,1.22,0.19,2.43-0.15,3.61
			c-0.12,0.41-0.37,0.81-0.67,1.12c-0.59,0.61-1.06,1.19-0.74,2.13c0.15,0.46,0.13,0.98,0.15,1.48c0.03,0.69,0.57,0.84,1.06,0.99
			c0.61,0.19,1.24,0.29,1.85,0.46c1.14,0.33,1.34,0.67,1.47,1.87c0.08,0.74,0.34,1.45,0.47,2.18c0.05,0.29-0.04,0.6-0.07,0.9
			c-0.04,0.41-0.12,0.82-0.14,1.23c-0.06,1.2-0.12,2.4-0.14,3.59c-0.02,1.51-0.01,3.01-0.01,4.52c0,1.01-0.01,2.03,0.01,3.04
			c0.01,0.31,0.15,0.62,0.12,0.92c-0.17,1.73-0.36,3.45-0.55,5.18c-0.01,0.07,0,0.14,0,0.21c-0.05,1.71-0.07,3.43-0.15,5.14
			c-0.03,0.63,0.25,0.6,0.69,0.49c0.72-0.18,1.44-0.38,2.18-0.51c0.99-0.17,1.99-0.31,2.99-0.43c1.68-0.2,3.35-0.41,5.04-0.56
			c1.53-0.14,3.06-0.22,4.59-0.28c1.11-0.04,2.22,0.03,3.32-0.02c1.13-0.05,2.26-0.25,3.4-0.25c1.11,0,2.22,0.17,3.33,0.26
			c0.12,0.01,0.23,0.01,0.35,0c0.61-0.05,0.53-0.5,0.55-0.92c0.03-0.5-0.28-0.5-0.63-0.48c-1.2,0.05-2.4,0.1-3.59,0.14
			c-1.24,0.05-2.49,0.09-3.73,0.14c-1.24,0.05-2.49,0.13-3.73,0.13c-1.02,0-2.04-0.07-3.06-0.14c-0.45-0.03-0.79,0.1-1.1,0.44
			c-0.14,0.16-0.43,0.19-0.65,0.27c-0.08-0.22-0.21-0.44-0.22-0.67c-0.02-1.11-0.01-2.22-0.01-3.33c0-1.94,0.01-3.87-0.01-5.81
			c0-0.52-0.11-1.04-0.13-1.56c-0.02-0.74,0.24-1.29,0.83-1.84c0.72-0.67,1.18-1.6,1.77-2.4c1.07-1.48,2.02-3.06,3.56-4.13
			c0.09-0.07,0.17-0.16,0.25-0.25c1.78-1.88,3.61-3.71,5.33-5.64c1.62-1.82,3.15-3.74,4.67-5.65c0.47-0.59,0.75-1.33,1.14-1.98
			c0.3-0.49,0.61-0.95,1.32-0.9c0.49,0.03,0.99-0.08,1.49-0.13c0.27-0.03,0.69,0.13,0.69-0.33c0-0.6,0.29-1.45-0.34-1.72
			c-1.24-0.53-1.67-1.6-1.84-2.66c-0.16-1.04-0.01-2.2,0.29-3.23c0.24-0.85,0.92-1.58,1.34-2.39c0.57-1.12,1.28-2.2,1.3-3.55
			c0-0.24,0.35-0.6,0.6-0.68c0.22-0.06,0.63,0.13,0.79,0.34c0.97,1.24,1.69,2.6,1.95,4.17c0.18,1.09,0.53,2.19,0.51,3.28
			c-0.01,0.93-0.37,1.88-0.7,2.78c-0.3,0.81-0.68,1.63-1.77,1.69c-0.15,0.01-0.4,0.36-0.41,0.56c-0.02,1.29,0.67,1.83,1.95,1.6
			c0.47-0.08,0.94-0.13,1.42-0.14c1.09-0.02,1.56,0.7,1.39,1.78c-0.16,1.03-0.13,2.09-0.13,3.13c0,0.78,0.07,1.55,0.13,2.33
			c0.18,2.03,0.44,4.06,0.53,6.09c0.04,0.88-0.28,1.79-0.46,2.68C689.64,361.11,689.5,361.55,689.38,362.07 M644.15,383.91
			c-0.19,0.21-0.35,0.45-0.56,0.62c-0.22,0.17-0.57,0.21-0.73,0.41c-0.68,0.84-1.64,1.25-2.6,1.53c-0.91,0.26-1.4,0.49-1.34,1.61
			c0.1,1.78-0.06,3.58-0.08,5.37c0,0.12,0.24,0.33,0.38,0.35c1.5,0.12,3.01,0.3,4.52,0.27c1.86-0.04,3.72-0.3,5.58-0.38
			c1.67-0.07,3.34-0.03,5.01-0.01c0.75,0.01,1.3-0.33,1.43-1.02c0.16-0.88,0.26-1.8,0.18-2.68c-0.13-1.29-0.42-2.57-0.69-3.85
			c-0.05-0.23-0.34-0.58-0.5-0.57c-0.85,0.04-1.69,0.21-2.54,0.28c-0.42,0.03-1.08,0.11-1.24-0.11c-0.44-0.62-0.78-1.35-0.62-2.19
			c0.15-0.81,0.31-1.61,0.42-2.42c0.16-1.16,0.32-2.33,0.41-3.5c0.06-0.78-0.04-1.56,0.02-2.34c0.15-1.78,0.41-3.56,0.54-5.34
			c0.08-1.17,0.02-2.36,0.02-3.53c0-0.8,0.17-1.64-0.04-2.38c-0.41-1.49,0.14-2.92,0-4.38c-0.07-0.71-0.15-1.42-0.23-2.12
			c-0.1-0.85-0.3-1.7-0.27-2.54c0.03-0.76-0.11-1.18-0.83-1.34c-0.43-0.09-0.84-0.24-1.27-0.31c-0.34-0.05-0.7-0.06-1.04-0.01
			c-1.06,0.14-2.13,0.27-3.17,0.48c-0.48,0.1-1,0.27-1.36,0.58c-0.81,0.7-1.59,1.46-2.29,2.28c-0.77,0.9-1.47,1.86-2.13,2.83
			c-1.3,1.91-2.53,3.88-3.85,5.77c-0.57,0.81-0.64,0.79,0.1,1.43c0.13,0.11,0.28,0.22,0.44,0.3c1.02,0.48,2.04,0.96,3.07,1.39
			c0.28,0.12,0.67,0.15,0.94,0.05c1.35-0.53,2.11-1.75,3.07-2.74c0.45-0.46,0.86-0.95,1.56-0.93c0.17,0,0.38,0.16,0.49,0.3
			c0.05,0.06-0.08,0.31-0.19,0.42c-0.37,0.36-0.59,0.7-0.18,1.19c0.09,0.1,0.1,0.31,0.07,0.47c-0.1,0.77-0.29,1.54-0.33,2.31
			c-0.09,1.77-0.12,3.53-0.15,5.3c-0.02,1.32-0.02,2.64,0,3.96c0.01,0.45,0.13,0.9,0.13,1.35
			C644.26,381.29,644.19,382.53,644.15,383.91 M683.55,393.4c0.1-0.05,0.19-0.13,0.29-0.13c1.2-0.06,2.39-0.13,3.59-0.13
			c0.48,0,0.75-0.17,0.82-0.59c0.17-1.04,0.33-2.08,0.42-3.12c0.07-0.77-0.23-1.03-1.02-1.08c-0.16-0.01-0.34,0.03-0.49-0.01
			c-0.84-0.23-1.7-0.42-2.49-0.75c-0.28-0.12-0.55-0.58-0.6-0.91c-0.16-1.1-0.23-2.21-0.3-3.32c-0.07-1.22-0.09-2.44-0.15-3.66
			c-0.06-1.28-0.07-1.27-1.35-1.47c-0.1-0.02-0.2-0.13-0.29-0.13c-0.46,0.03-1.07-0.22-1.28,0.37c-0.14,0.4-0.04,0.9-0.02,1.35
			c0.02,0.31,0.15,0.62,0.12,0.92c-0.06,0.9-0.24,1.79-0.25,2.69c-0.02,1.31,0.1,2.63,0.1,3.94c0,0.23-0.23,0.5-0.42,0.68
			c-0.18,0.17-0.44,0.28-0.69,0.35c-0.24,0.07-0.52,0.11-0.76,0.08c-0.43-0.06-0.87-0.28-1.28-0.25c-0.65,0.05-1.3,0.22-1.93,0.41
			c-0.5,0.15-0.63,0.57-0.63,1.08c0.01,1.07,0.05,2.14-0.05,3.19c-0.08,0.82,0.08,1.16,0.93,1.19c0.45,0.02,0.91,0.02,1.36,0
			C679.27,394.01,681.4,394.18,683.55,393.4 M684.89,334.18c-0.49,0.87-0.99,1.73-1.48,2.61c-0.49,0.88-0.97,1.79-0.75,2.83
			c0.11,0.52,0.31,1.36,0.62,1.43c0.69,0.15,1.5,0.03,2.2-0.19c0.53-0.17,0.87-1.77,0.75-2.4c-0.24-1.24-0.47-2.48-0.61-3.73
			C685.55,334.24,685.44,334.04,684.89,334.18 M645.27,343.31c0,0.56,0,1.12,0,1.68c0.01,0.77,0.64,1.59,1.38,1.76
			c0.48,0.11,0.96-0.04,1.11-0.48c0.38-1.09,0.87-2.19,0.47-3.41c-0.24-0.72-0.37-1.48-0.58-2.21c-0.07-0.23-0.27-0.42-0.4-0.63
			c-0.16,0.18-0.33,0.34-0.46,0.54c-0.16,0.23-0.32,0.47-0.45,0.73C645.99,341.93,645.67,342.59,645.27,343.31z"/>
		<path class="st1" d="M718.46,386.23c-1.48-0.56-2.88-1.13-4.29-1.68c-0.38-0.15-0.76-0.32-1.16-0.42
			c-1.11-0.26-2.24-0.47-3.36-0.71c-0.55-0.12-1.09-0.33-1.65-0.41c-0.91-0.13-1.83-0.17-2.74-0.3c-1.21-0.16-2.42-0.38-3.63-0.55
			c-0.82-0.12-1.66-0.17-2.48-0.29c-1.25-0.19-2.5-0.4-3.74-0.64c-1.45-0.28-2.9-0.54-4.32-0.92c-1.04-0.28-1.89,0.11-2.8,0.46
			c-0.15,0.06-0.35,0-0.53-0.01c0.02-0.16-0.03-0.39,0.06-0.47c0.33-0.29,0.67-0.69,1.06-0.77c1.17-0.24,2.35-0.23,3.55,0.09
			c0.84,0.22,1.74,0.2,2.61,0.31c1.42,0.18,2.84,0.39,4.26,0.55c0.7,0.08,1.42,0.06,2.12,0.15c1.42,0.18,2.82,0.41,4.24,0.61
			c0.62,0.09,1.25,0.2,1.87,0.22c2.21,0.08,4.34,0.6,6.44,1.24c1.45,0.44,2.84,1.04,4.26,1.58c1.31,0.5,2.67,0.93,3.91,1.57
			c1.13,0.59,2.13,1.41,3.19,2.14c1.13,0.79,1.75,1.97,2.41,3.13c0.11,0.2,0.37,0.35,0.59,0.45c0.45,0.21,0.65,0.47,0.47,1
			c-0.13,0.37-0.09,0.8-0.24,1.16c-0.11,0.26-0.36,0.54-0.61,0.62c-0.15,0.05-0.43-0.26-0.63-0.44c-0.87-0.8-1.24-1.91-1.81-2.89
			c-0.43-0.74-1.11-1.37-1.77-1.93C722.22,387.76,720.36,387.01,718.46,386.23z"/>
		<path class="st1" d="M679.13,359.12c0.41-0.43,0.86-0.77,1.22-1.17c0.19-0.21,0.19-0.58,0.34-0.83c0.17-0.29,0.36-0.62,0.63-0.75
			c0.16-0.08,0.61,0.11,0.73,0.3c0.35,0.54,0.82,1.07,0.36,1.82c-0.18,0.3-0.18,0.74-0.17,1.11c0.04,1.64-0.03,3.25-0.56,4.82
			c-0.12,0.35-0.12,0.75-0.15,1.13c-0.1,1.22-0.33,2.46-0.23,3.67c0.07,0.86-0.37,0.94-0.88,1.32c-0.65,0.49-1.3,0.38-1.96,0.37
			c-1.72-0.03-3.38,0.21-4.98,0.86c-0.3,0.12-0.54,0.42-0.84,0.5c-0.41,0.1-0.89,0.17-1.27,0.05c-0.52-0.17-0.41-0.73-0.37-1.15
			c0.13-1.68,0.87-3.14,1.72-4.54c0.52-0.86,1.19-1.62,1.82-2.4c0.93-1.14,1.85-2.29,2.83-3.38
			C677.89,360.24,678.54,359.73,679.13,359.12 M679.27,368.74c0.4-1.4,0.26-2.88,0.8-4.3c0.46-1.22,0.53-2.59,0.74-3.9
			c0.03-0.2-0.08-0.43-0.12-0.64c-0.15,0.1-0.31,0.18-0.44,0.3c-2.33,2.11-4.22,4.6-6.08,7.1c-0.54,0.73-0.87,1.65-1.19,2.52
			c-0.18,0.5,0.17,0.61,0.61,0.41c0.55-0.24,1.1-0.56,1.68-0.68c0.83-0.18,1.7-0.19,2.54-0.31
			C678.29,369.15,678.78,369,679.27,368.74z"/>
	</g>
</g>
<g id="vagina">
	<path class="st0" d="M710,4c0,0-9,2-18,3s-19,11-24,29s-52,33-43,75c2,13-6,13-12,26s12,44,12,52s50.61-16.64,55.31-23.82
		c4.69-7.18,9.15-32.43,22.42-44.31C716,109,727,83,722,67s0.25-23.75,1.13-31.37C724,28,710,4,710,4z"/>
	<g id="Vorm_17_1_">
		<path class="st1" d="M630.08,195.29c-1.89-3.67-3.86-7.22-5.52-10.91c-1.56-3.44-2.98-6.97-3.31-10.8
			c-0.21-2.47-0.46-4.94-0.42-7.41c0.02-1.22,0.14-2.37-0.23-3.59c-0.22-0.72,0.06-1.64,0.27-2.43c0.64-2.42,1.46-4.8,2.03-7.23
			c0.57-2.44,1.94-4.34,3.57-6.15c0.99-1.1,1.81-2.36,2.66-3.57c1.02-1.44,2.11-2.86,2.96-4.4c1.34-2.44,2.35-4.97,2.57-7.85
			c0.19-2.62-0.48-5.12-0.6-7.69c-0.08-1.85-0.92-3.65-1.38-5.49c-0.89-3.58-1.84-7.2-1.3-10.9c0.27-1.83,1.11-3.58,1.74-5.35
			c0.42-1.19,0.81-2.42,1.43-3.5c1.03-1.81,2.14-3.6,3.39-5.27c2.69-3.59,5.45-7.13,8.29-10.61c0.82-1.01,2.01-1.72,3-2.59
			c0.95-0.84,1.85-1.73,2.81-2.56c3.12-2.72,6.19-5.51,9.95-7.36c3.13-1.54,6.12-3.28,8.89-5.38c0.81-0.62,1.79-1.03,2.57-1.68
			c2.69-2.22,3.61-5.21,3.8-8.59c0.21-3.58,0.37-7.2,0.98-10.72c0.62-3.56,2.59-6.43,5.34-8.9c2.88-2.58,6.09-4.6,9.37-6.55
			c1.56-0.93,3.11-1.94,4.8-2.53c2.23-0.78,4.61-0.74,6.95-0.29c2.52,0.49,5.01,0.38,7.41-0.57c2.38-0.94,4.73-1.96,7.1-2.94
			c0.72-0.3,1.19-0.12,1.66,0.61c1.73,2.69,3.6,5.3,5.34,7.98c1.25,1.93,2.5,3.87,3.54,5.91c1.28,2.5,2.47,5.07,3.45,7.7
			c0.51,1.36,0.49,2.92,0.71,4.39c0.39,2.59,0.12,5.17-0.76,7.57c-0.82,2.23-2.03,4.32-3.19,6.4c-0.89,1.6-2.18,3-2.89,4.66
			c-0.49,1.15-0.51,2.62-0.33,3.89c0.63,4.55,3.05,8.48,4.56,12.73c0.52,1.47,0.79,3.03,1.2,4.54c0.28,1.01,0.71,2,0.87,3.03
			c0.26,1.61,0.85,3.11,0.62,4.88c-0.22,1.72,0.12,3.62,0.67,5.29c0.61,1.87,0.6,3.68,0.38,5.53c-0.22,1.83-0.6,3.65-0.92,5.47
			c-0.43,2.49-1.97,4.49-3.02,6.71c-0.92,1.92-1.82,3.86-2.85,5.72c-0.76,1.38-1.64,2.7-2.57,3.97c-1.09,1.48-2.14,3.04-3.47,4.28
			c-2,1.88-4.24,3.49-6.34,5.26c-1.09,0.91-2.12,1.9-3.13,2.89c-1.69,1.65-3.35,3.35-5.03,5.01c-1.73,1.72-2.85,3.84-4.1,5.9
			c-1.36,2.24-1.66,4.68-2.01,7.13c-0.55,3.86-0.88,7.77-2.42,11.41c-1.18,2.79-2.19,5.69-3.7,8.29c-1.39,2.38-3.03,4.64-5.16,6.56
			c-2,1.8-3.94,3.64-6.19,5.15c-4.04,2.72-7.94,5.68-12.33,7.82c-2.49,1.21-5.09,2.25-7.71,3.13c-2.21,0.74-4.56,1.02-6.79,1.7
			c-3.49,1.07-6.96,2.22-10.37,3.52c-2.62,1-5.16,2.25-7.7,3.44c-1.35,0.63-2.49,1.85-4.2,1.46c-0.14-0.03-0.32,0.14-0.49,0.22
			c-0.28,0.13-0.74,0.43-0.8,0.36c-0.31-0.34-0.69-0.76-0.75-1.19c-0.29-2.2-0.41-4.42-0.76-6.61c-0.29-1.83-0.83-3.63-1.26-5.44
			C630.69,197.62,630.41,196.48,630.08,195.29 M715.97,135.52c0.46-0.3,0.97-0.54,1.37-0.92c2.97-2.82,5.96-5.66,8.08-9.18
			c1.84-3.07,3.31-6.35,4.96-9.53c1.31-2.52,2.24-5.15,2.08-8.03c-0.14-2.6-0.54-5.19-0.66-7.79c-0.1-2.34-0.02-4.67-0.7-6.98
			c-0.77-2.63-1.19-5.35-1.94-7.99c-0.44-1.55-1.31-2.97-1.82-4.51c-0.92-2.78-1.98-5.56-2.48-8.43c-0.3-1.71-0.88-3.67,0.13-5.41
			c0.88-1.52,1.96-2.93,2.8-4.46c1.16-2.12,2.38-4.25,3.22-6.5c1.03-2.76,1.09-5.74,0.45-8.59c-0.38-1.69-0.61-3.48-1.74-5.02
			c-0.94-1.29-1.55-2.86-2.15-4.36c-0.62-1.56-1.16-3.13-2.53-4.23c-0.21-0.17-0.51-0.39-0.52-0.59c-0.07-1.48-1.03-2.48-1.81-3.59
			c-0.95-1.36-1.95-2.7-2.89-4.07c-1.01-1.48-1.43-1.63-3.05-0.94c-0.86,0.37-1.72,0.75-2.61,1.05c-2.47,0.83-4.93,1.71-7.61,1.42
			c-0.2-0.02-0.42,0.19-0.62,0.16c-1.39-0.16-2.9,0.76-4.14-0.14c-0.7-0.51-1.37-0.62-2.02-0.47c-1.3,0.3-2.67,0.6-3.79,1.27
			c-3.15,1.87-6.22,3.87-9.25,5.94c-2.93,2-4.9,4.85-5.8,8.21c-0.71,2.64-0.83,5.45-1.14,8.2c-0.22,1.88-0.21,3.79-0.52,5.65
			c-0.23,1.42-0.53,2.96-1.29,4.12c-0.99,1.52-2.38,2.82-3.74,4.05c-2.86,2.58-6.21,4.46-9.56,6.31c-3.79,2.09-7.53,4.22-10.71,7.2
			c-1.12,1.05-2.26,2.07-3.37,3.12c-1.43,1.35-2.94,2.62-4.25,4.08c-1.75,1.96-3.37,4.05-4.98,6.12c-1.34,1.73-2.75,3.44-3.86,5.31
			c-1.17,1.98-2.1,4.12-3,6.24c-1.2,2.84-1.1,5.83-0.62,8.79c0.3,1.88,0.79,3.73,1.15,5.6c0.46,2.31,0.96,4.62,1.29,6.95
			c0.31,2.22,0.56,4.47,0.56,6.71c0,3.61-1.51,6.75-3.57,9.63c-2.07,2.9-4.19,5.76-6.28,8.64c-1.83,2.52-2.73,5.44-3.44,8.41
			c-0.44,1.87-0.83,3.79-0.91,5.7c-0.08,1.84,0.38,3.69,0.39,5.54c0.01,3.09,1.03,5.96,1.67,8.92c0.81,3.75,2.5,7.24,4.37,10.46
			c2.24,3.85,3.55,7.92,4.74,12.1c0.52,1.83,0.81,3.73,1.18,5.6c0.06,0.28,0.01,0.57,0.01,0.86c0,0.55-0.07,1.1,0.02,1.64
			c0.11,0.69,0.67,0.98,1.28,0.76c1.83-0.67,3.63-1.41,5.44-2.14c2.07-0.83,4.12-1.75,6.22-2.5c2.15-0.77,4.36-1.33,6.52-2.07
			c2.49-0.86,4.93-1.87,7.43-2.7c2.27-0.76,4.61-1.29,6.87-2.07c1.63-0.56,3.22-1.3,4.74-2.1c1.48-0.78,2.91-1.68,4.28-2.65
			c1.29-0.91,2.44-2.01,3.7-2.95c1.48-1.1,3.07-2.06,4.53-3.17c1.03-0.79,1.99-1.68,2.87-2.63c1.64-1.78,3.43-3.5,4.74-5.52
			c1.22-1.88,1.79-4.17,2.82-6.19c1.96-3.88,2.53-8.09,2.88-12.29c0.37-4.35,1.86-8.22,4.29-11.69c1.48-2.11,3.4-3.94,5.25-5.77
			C711.18,139.88,713.54,137.79,715.97,135.52z"/>
		<path class="st1" d="M688.51,59.93c-3.67,3.37-5.53,7.62-6.89,12.22c-1.14,3.85-3.01,7.35-5.36,10.68
			c-2.13,3.02-4.7,5.55-7.62,7.63c-2.94,2.1-5.42,4.65-8.08,7.02c-1.11,0.98-2.34,1.84-3.34,2.92c-2.47,2.67-4.54,5.62-5.52,9.18
			c-0.86,3.13-1.65,6.28-2.33,9.45c-0.33,1.54-0.33,3.14-0.5,4.72c-0.22,1.93-0.43,3.87-0.71,5.8c-0.19,1.35-0.27,2.77-0.78,4.01
			c-0.88,2.13-1.87,4.27-3.14,6.18c-2.2,3.33-3.71,6.93-4.43,10.8c-0.26,1.39,0.21,2.97,0.54,4.42c0.58,2.55,1.31,5.07,1.96,7.61
			c0.51,1.98,1.05,3.95,1.47,5.94c0.3,1.42,0.49,2.86,0.62,4.31c0.28,3.06,0.5,6.13,0.7,9.19c0.04,0.58-0.19,1.18-0.2,1.78
			c-0.02,0.59,0.31,0.83,0.89,0.6c1.84-0.75,3.7-1.43,5.49-2.28c1.9-0.9,3.74-1.91,5.57-2.95c1.34-0.76,2.57-1.7,3.9-2.46
			c3.11-1.76,6.22-3.48,8.94-5.86c2.13-1.86,4.53-3.4,6.73-5.19c0.84-0.68,1.41-1.7,2.2-2.46c2.27-2.2,3.25-5.21,4.92-7.78
			c2.05-3.16,3.35-6.64,4.71-10.11c0.8-2.05,2.03-3.92,2.98-5.91c1.2-2.51,2.9-4.62,4.9-6.52c1.85-1.76,3.72-3.48,5.51-5.29
			c2.68-2.71,4.84-5.85,6.58-9.22c0.8-1.55,1.01-3.4,1.54-5.09c1.02-3.25,1.73-6.54,1.65-9.98c-0.04-1.97,0.29-3.95,0.18-5.91
			c-0.18-3.16-0.67-6.3-0.87-9.45c-0.14-2.22,0-4.45-0.04-6.67c-0.05-2.82-0.14-5.63-0.23-8.45c-0.06-1.76-0.33-3.54-0.19-5.29
			c0.27-3.48,0.75-6.94,1.13-10.41c0.17-1.53,0.2-3.09,0.51-4.6c0.19-0.93,0.79-1.77,1.2-2.65c0.08-0.17,0.19-0.33,0.29-0.5
			c-0.2-0.08-0.43-0.28-0.59-0.23c-1.61,0.44-3.34,0.67-4.78,1.45c-2,1.09-3.71,2.7-5.67,3.88c-1.25,0.75-2.77,1.05-4.08,1.71
			c-1.11,0.56-2.12,1.32-3.12,2.07c-0.35,0.27-0.47,0.82-0.78,1.18c-0.13,0.15-0.46,0.14-0.7,0.21c0-0.21-0.04-0.43-0.01-0.63
			c0.2-1.27,0.94-2.15,2.05-2.76c1.81-1.01,3.61-2.03,5.4-3.06c1.01-0.58,2.17-1.04,2.96-1.85c1.92-1.96,4.49-2.76,6.78-4.05
			c0.87-0.49,1.87-0.76,2.85-1.03c0.46-0.13,0.99,0,1.5,0.02c-0.14,0.4-0.29,0.8-0.41,1.21c-0.67,2.22-1.5,4.41-1.95,6.68
			c-0.4,2.03-0.36,4.15-0.52,6.24c-0.23,3.14-0.53,6.28-0.67,9.43c-0.06,1.23,0.33,2.46,0.34,3.7c0.02,2.16-0.11,4.31-0.12,6.47
			c0,0.83,0.18,1.65,0.21,2.48c0.1,2.5,0.11,5.01,0.25,7.51c0.18,3.22,0.51,6.44,0.67,9.66c0.11,2.19,0.19,4.41-0.02,6.59
			c-0.28,2.99-0.96,5.93-1.83,8.83c-1.3,4.35-3.82,7.95-6.56,11.45c-0.23,0.29-0.5,0.57-0.65,0.9c-0.83,1.75-2.42,2.76-3.77,4.03
			c-2.75,2.61-5.6,5.16-7.31,8.67c-2.53,5.2-5.2,10.33-7.58,15.6c-2.04,4.53-4.51,8.7-8.41,11.84c-2.76,2.21-5.59,4.34-8.48,6.38
			c-5.61,3.96-11.56,7.38-17.63,10.58c-1.45,0.77-3.14,1.08-4.71,1.61c-0.48,0.16-0.93,0.38-1.4,0.57
			c-0.71,0.29-1.77-0.19-1.87-0.88c-0.12-0.82-0.2-1.65-0.24-2.48c-0.17-3.29-0.1-6.61-0.54-9.87c-0.41-3.03-1.28-6-2.06-8.97
			c-0.87-3.34-1.98-6.62-2.75-9.97c-0.42-1.84,0-3.77,0.69-5.54c1.04-2.69,2.11-5.38,3.32-7.99c0.87-1.87,2.06-3.59,3.01-5.43
			c0.41-0.79,0.74-1.68,0.86-2.56c0.38-2.71,0.63-5.44,0.97-8.15c0.19-1.51,0.4-3.02,0.71-4.51c0.58-2.83,1.23-5.65,1.86-8.48
			c0.51-2.26,1.47-4.28,2.76-6.25c1.55-2.36,3.09-4.69,5.13-6.64c2.92-2.78,5.78-5.65,8.93-8.15c2.13-1.69,4.47-3.13,6.23-5.21
			c1.39-1.64,2.67-3.39,3.8-5.21c1.02-1.65,1.87-3.43,2.63-5.23c0.81-1.89,1.4-3.87,2.14-5.79c0.9-2.34,2-4.58,3.79-6.39
			c1.83-1.85,3.66-3.7,5.53-5.51c0.59-0.57,1.26-1.07,1.97-1.47c0.29-0.16,0.77,0.02,1.17,0.05c-0.12,0.25-0.19,0.57-0.38,0.73
			C691.09,57.84,689.83,58.85,688.51,59.93z"/>
		<path class="st1" d="M672.58,143.3c-1.22,1.37-2.34,2.73-3.54,4c-2.07,2.18-4.57,3.78-7.26,5.07c-1.5,0.72-3.03,1.36-4.53,2.07
			c-0.46,0.22-0.84,0.61-1.31,0.8c-0.44,0.19-1.19,0.46-1.38,0.28c-0.52-0.51-1.24-1.35-1.12-1.88c0.69-3,1.6-5.96,2.46-8.92
			c0.74-2.55,0.87-5.17,0.96-7.81c0.06-1.51,0.41-3.01,0.68-4.51c0.37-2.07,0.77-4.13,1.17-6.19c0.46-2.44,1.9-4.36,3.46-6.17
			c1.17-1.35,2.55-2.51,3.77-3.82c3.66-3.94,7.21-7.99,10.98-11.82c1.64-1.67,3.38-3.22,4.68-5.2c0.4-0.61,1.01-0.64,1.58-0.21
			c0.75,0.56,0.21,0.94-0.19,1.38c-1.7,1.9-3.35,3.85-5.07,5.74c-0.99,1.09-2.1,2.08-3.12,3.14c-2.91,3.04-5.82,6.08-8.69,9.17
			c-2.3,2.47-4.45,5.08-5.37,8.42c-0.45,1.62-0.72,3.29-1.09,4.94c-0.88,3.86-0.12,7.89-1.37,11.72c-0.7,2.15-1.1,4.39-1.59,6.6
			c-0.1,0.44-0.05,1,0.15,1.39c0.08,0.15,0.82,0.1,1.18-0.06c3.28-1.44,6.51-2.84,9.32-5.29c3.42-2.99,5.72-6.66,7.89-10.47
			c0.59-1.03,0.49-2.43,0.82-3.63c0.82-3.01,1.75-5.99,2.54-9.01c0.36-1.39,0.66-2.84,0.69-4.27c0.05-2.83,0.73-5.53,1.29-8.26
			c0.17-0.84,0.26-1.69,0.38-2.54c0.16-1.11,0.07-2.33,0.53-3.29c0.53-1.08,1.56-1.93,2.42-2.83c0.04-0.04,0.7,0.29,0.75,0.52
			c0.08,0.36,0,0.87-0.21,1.17c-1.25,1.78-1.29,3.87-1.63,5.89c-0.3,1.82-0.67,3.63-0.99,5.44c-0.16,0.88-0.44,1.77-0.38,2.64
			c0.17,2.34-0.7,4.46-1.21,6.66c-0.5,2.13-0.99,4.26-1.65,6.34c-0.82,2.54-0.97,5.3-2.62,7.58
			C674.78,139.73,673.75,141.52,672.58,143.3z"/>
		<path class="st1" d="M695.3,83.82c-0.91,1.69-1.73,3.35-2.64,4.95c-0.35,0.61-0.9,1.11-1.39,1.64c-0.28,0.3-0.61,0.56-0.91,0.84
			c-0.33-0.38-0.88-0.73-0.94-1.15c-0.37-2.5-0.97-4.94-0.56-7.56c0.71-4.46,3.28-7.6,6.57-10.36c0.37-0.31,0.58-0.79,0.93-1.12
			c0.22-0.21,0.57-0.28,0.87-0.42c0.12,0.34,0.29,0.68,0.33,1.03c0.03,0.23-0.2,0.48-0.2,0.72c-0.03,0.99-0.02,1.97-0.01,2.96
			c0.03,2.63-0.46,5.14-1.64,7.5C695.57,83.14,695.48,83.46,695.3,83.82 M692.67,78.02c-0.16,0.21-0.32,0.41-0.47,0.62
			c-1.62,2.31-1.84,4.92-1.63,7.62c0.03,0.34,0.23,0.67,0.35,1.01c0.27-0.23,0.57-0.44,0.8-0.71c1.67-2,2.17-4.55,3.2-6.85
			c0.48-1.08,0.77-2.27,0.98-3.44c0.08-0.47-0.28-1.03-0.44-1.54c-0.38,0.27-0.84,0.48-1.14,0.83
			C693.72,76.26,693.21,77.04,692.67,78.02z"/>
		<path class="st1" d="M698.93,52.32c-0.18-0.03-0.29-0.12-0.41-0.21c0.21-0.05,0.42-0.11,0.62-0.16
			C699.09,52.05,699.04,52.16,698.93,52.32z"/>
	</g>
</g>
</svg>
