<?xml version="1.0" encoding="utf-8"?>
<!-- Generator: Adobe Illustrator 23.0.4, SVG Export Plug-In . SVG Version: 6.00 Build 0)  -->
<svg version="1.1" xmlns="http://www.w3.org/2000/svg" xmlns:xlink="http://www.w3.org/1999/xlink" x="0px" y="0px"
	 viewBox="0 0 1154 679" style="enable-background:new 0 0 1154 679;" xml:space="preserve">
<style type="text/css">
	.s0{fill:#606060;}
	.s1{fill:#FFFFFF;}
</style>
<g id="schrijven">
	<path class="s0" d="M99,81L31,52c0,0-12,2-15,8S-2,165,4,173s76,30,80,27s10,6,13,3s70,25,75,22s13-2,13-10s11-88,16-94
		s-9-37-20-36c0,0-62-1-63-1S103,78,99,81z"/>
	<path class="s0" d="M185,16c0,0,4,7,5,10s-15.86,9.81-24.93,8.9C156,34,106,56,106,56l-14-1l7-9l63-28C162,18,184,12,185,16z"/>
	<g id="Vorm_20_1_">
		<path d="M197.97,177.2c-0.48,2.3-0.9,4.5-1.22,6.72c-0.52,3.53-1.05,7.06-1.42,10.61c-0.39,3.66-0.72,7.33-0.85,11
			c-0.11,3.14-0.45,6.16-1.55,9.17c-0.83,2.27-0.98,4.78-1.42,7.19c-0.25,1.4-0.5,2.81-0.67,4.22c-0.07,0.54,0,1.13,0.14,1.66
			c0.36,1.32-0.59,3.34-1.9,3.76c-0.8,0.25-1.65,0.44-2.48,0.51c-2.08,0.18-4.22,0.06-6.25,0.49c-1.84,0.39-3.44-0.24-5.13-0.5
			c-2.9-0.45-5.78-0.95-8.67-1.48c-2.28-0.41-4.55-0.85-6.81-1.33c-3.25-0.7-6.51-1.37-9.72-2.2c-1.78-0.46-3.49-1.18-5.21-1.84
			c-2.42-0.93-4.84-1.87-7.22-2.88c-4.42-1.88-8.96-3.5-13.02-6.19c-2.31-1.52-4.71-2.97-7.24-4.05c-2.39-1.01-5.06-1.35-7.51-2.25
			c-1.62-0.59-2.99,0.03-4.42,0.36c-1.12,0.26-2.22,0.19-2.89-0.54c-1.26-1.36-3.04-1.44-4.51-2.26c-1.17-0.66-2.33-0.91-3.81-0.72
			c-1.71,0.23-3.52-0.36-5.29-0.62c-1.92-0.29-3.86-0.54-5.76-0.92c-3.43-0.68-6.85-1.46-10.28-2.16c-0.61-0.12-1.27-0.01-1.89-0.07
			c-3.32-0.33-6.63-0.67-9.94-1.03c-2.96-0.33-5.91-0.67-8.86-1.05c-1.84-0.24-3.67-0.77-5.51-0.81c-2.25-0.05-4.05-1.21-6.03-1.91
			c-0.63-0.22-1.23-0.51-1.85-0.76c-2.01-0.81-4.08-1.53-6.04-2.46c-2.72-1.29-5.49-2.56-7.98-4.21c-1.46-0.97-2.64-2.54-3.56-4.07
			c-1.4-2.33-3.13-4.55-3.62-7.32c-0.36-2.04-0.47-4.12-0.68-6.18c-0.41-4-0.97-8-1.17-12.02c-0.24-4.84-0.33-9.71-0.17-14.55
			c0.11-3.3,0.88-6.56,1.13-9.86c0.2-2.66,0-5.36,0.08-8.03c0.05-1.48,0.32-2.96,0.48-4.44c0.1-0.96,0.2-1.93,0.27-2.9
			c0.22-3.24,0.14-6.54,0.72-9.71c0.77-4.2,2.2-8.27,3.1-12.45c0.86-3.96,1.38-7.98,2.09-11.97c0.57-3.21,1.31-6.37,2.67-9.37
			c0.45-0.99,0.29-2.26,0.77-3.22c1.18-2.32,2.31-4.76,3.98-6.7c1.59-1.85,3.72-3.41,6.55-2.84c1.59,0.32,3.17,0.71,4.76,1.02
			c1.15,0.22,2.32,0.3,3.46,0.55c3.07,0.69,6.2,1.23,9.17,2.22c2.28,0.76,4.34,2.15,6.51,3.22c1.76,0.86,3.54,1.7,5.34,2.48
			c2,0.86,4.03,1.62,6.04,2.45c5.61,2.3,11.24,4.54,16.8,6.93c3.57,1.53,7.02,3.33,10.55,4.95c1.86,0.85,3.81,1.51,5.65,2.39
			c1.06,0.51,1.96,1.33,2.96,1.97c1.16,0.74,2.39,1.02,3.8,0.71c1.79-0.39,3.62-0.7,5.45-0.82c1.75-0.12,3.26,0.82,4.42,2
			c1.13,1.15,2.21,1.49,3.83,1.32c3.45-0.36,6.93-0.42,10.41-0.54c2.8-0.1,5.6-0.24,8.39-0.13c3.04,0.12,6.07,0.51,9.1,0.78
			c3.03,0.27,6.05,0.66,9.08,0.78c2.08,0.08,4.17-0.33,6.26-0.34c2.04-0.01,4.09,0.17,6.13,0.34c2.63,0.22,5.26,0.46,7.88,0.8
			c1.61,0.21,3.21,0.56,4.78,0.96c3.52,0.92,7.05,1.8,10.5,2.91c2.22,0.71,4.51,1.52,6.4,2.82c1.77,1.21,3.24,3,3.82,5.23
			c0.52,2,0.9,4.04,1.41,6.04c0.18,0.72,0.71,1.36,0.86,2.08c0.51,2.46,1.18,4.92,1.27,7.4c0.07,1.78-0.63,3.6-1.09,5.37
			c-0.48,1.88-1.04,3.74-1.62,5.59c-0.43,1.36-0.91,2.7-1.45,4.02c-1.68,4.12-3.26,8.27-4.39,12.59c-0.99,3.79-2.31,7.48-3.33,11.26
			c-0.6,2.23-0.91,4.54-1.34,6.82C198.81,173.14,198.44,175.12,197.97,177.2 M176.13,230.05c0.42,0.08,0.85,0.25,1.27,0.21
			c2.41-0.22,4.81-0.55,7.22-0.73c1.53-0.12,1.89-1.15,2.13-2.34c0.19-0.93,0.33-1.87,0.47-2.81c0.26-1.73,1.35-3.18,1.34-5.06
			c-0.01-1.78,0.3-3.66,0.89-5.34c1.34-3.79,1.91-7.68,2.18-11.64c0.06-0.91,0.23-1.83,0.25-2.74c0.02-1.1-0.18-2.21-0.06-3.29
			c0.22-2.02,0.57-4.03,0.91-6.04c0.65-3.96,1.32-7.91,1.99-11.87c0.18-1.06,0.37-2.12,0.59-3.17c0.33-1.59,0.82-3.16,0.99-4.76
			c0.33-3.12,1.02-6.17,1.9-9.16c0.82-2.81,2.02-5.52,2.78-8.35c0.84-3.14,1.55-6.29,3.15-9.17c2.06-3.71,2.94-7.85,4.17-11.86
			c0.25-0.8,0.7-1.57,0.8-2.38c0.21-1.89,0.47-3.81,0.32-5.69c-0.17-2.15-0.67-4.28-1.17-6.38c-0.39-1.62-1.29-3.16-1.45-4.79
			c-0.23-2.32-1.29-4.24-2.88-5.57c-1.73-1.45-3.92-2.44-6.04-3.3c-1.87-0.76-3.93-1.02-5.89-1.57c-2.35-0.66-4.65-1.55-7.04-2.03
			c-2.6-0.52-5.27-0.83-7.92-0.99c-3.54-0.22-7.09-0.22-10.64-0.32c-4.05-0.11-8.14,0.1-12.14-0.41c-4.49-0.57-8.94-1.27-13.48-1.05
			c-5.18,0.26-10.37,0.52-15.55,0.72c-1.3,0.05-2.46-0.14-3.65-1.09c-1.79-1.44-3.9-2.54-6.39-1.47c-0.27,0.11-0.59,0.09-0.87,0.18
			c-2.26,0.7-4.47,0.62-6.53-0.58c-2.26-1.31-4.41-2.82-6.7-4.05c-1.46-0.79-3.14-1.16-4.66-1.84c-2.29-1.02-4.51-2.18-6.81-3.2
			c-3.55-1.57-7.14-3.07-10.7-4.61c-2.15-0.92-4.28-1.9-6.45-2.76c-1.95-0.77-3.97-1.34-5.92-2.11c-1.63-0.65-3.27-1.32-4.77-2.22
			c-3.3-1.98-6.75-3.6-10.49-4.47c-4.04-0.95-8.12-1.74-12.22-2.43c-2.15-0.36-4.34-0.31-5.92,1.66c-1.09,1.36-2.33,2.56-2.75,4.41
			c-0.29,1.27-1.29,2.35-1.72,3.61c-0.75,2.19-1.4,4.43-1.91,6.69c-0.69,3.1-1.16,6.24-1.83,9.35c-0.57,2.66-1.29,5.28-1.92,7.92
			c-0.67,2.82-1.47,5.61-1.92,8.46c-0.65,4.18-1.1,8.4-1.5,12.62c-0.22,2.32-0.15,4.67-0.21,7c-0.01,0.53,0,1.07-0.04,1.6
			c-0.27,3.26-0.68,6.51-0.8,9.78c-0.12,3.08,0.03,6.18,0.11,9.27c0.11,4.18,0.16,8.37,0.46,12.53c0.24,3.34,0.83,6.65,1.23,9.98
			c0.47,3.96,0.43,8.05,2.55,11.63c0.92,1.55,1.79,3.29,3.14,4.38c1.9,1.54,4.17,2.68,6.39,3.75c3.08,1.49,6.19,2.99,9.43,4.06
			c3.5,1.15,7.16,1.84,10.76,2.63c1.9,0.42,3.83,0.7,5.76,0.92c2.15,0.25,4.31,0.31,6.46,0.55c3.25,0.37,6.49,0.82,9.73,1.24
			c2.02,0.26,4.04,0.54,6.06,0.82c4.39,0.6,8.76,1.38,13.17,1.74c2.4,0.19,4.85-0.31,7.28-0.54c0.78-0.07,1.7-0.63,2.3-0.37
			c2.26,0.98,4.41,2.22,6.61,3.32c0.67,0.34,1.38,0.74,2.1,0.81c2.15,0.2,3.9,1.3,5.71,2.3c1.54,0.85,3.12,1.62,4.68,2.42
			c0.33,0.17,0.7,0.28,1.02,0.47c2.19,1.25,4.33,2.59,6.57,3.74c2.38,1.22,4.81,2.35,7.29,3.34c3.26,1.31,6.58,2.49,9.9,3.65
			c2.18,0.77,4.39,1.45,6.61,2.1c2.84,0.82,5.69,1.65,8.56,2.32c2.13,0.5,4.32,0.79,6.49,1.15
			C171.24,229.29,173.59,229.66,176.13,230.05 M106.34,206.32c-0.44,0.22-0.98-1.02-1.31,0.07c-0.07,0.23,0.2,0.78,0.39,0.83
			C105.92,207.33,106.59,207.41,106.34,206.32z"/>
		<path d="M97.35,57.96c-0.86-0.02-1.63-0.01-2.4-0.07c-1.18-0.1-1.5-0.61-0.86-1.56c0.48-0.71,1.24-1.24,1.86-1.86
			c0.62-0.63,1.2-1.32,1.84-1.93c0.66-0.63,1.4-1.17,2.05-1.81c0.68-0.66,1.26-1.43,1.94-2.08c0.46-0.44,1.01-1.02,1.57-1.09
			c1.96-0.26,2.62-2.34,4.46-2.86c3.17-0.9,6.25-2.1,9.32-3.3c2.33-0.91,4.62-1.96,6.88-3.04c1.86-0.89,3.62-1.99,5.47-2.89
			c0.89-0.43,1.92-0.59,2.85-0.94c5.15-1.97,10.28-3.98,15.43-5.95c1.33-0.51,2.69-0.91,4.02-1.4c2.31-0.86,4.6-1.77,6.91-2.61
			c2.94-1.08,5.84-2.32,8.86-3.11c3.65-0.94,7.39-1.5,11.11-2.18c1.81-0.33,3.63-0.67,5.46-0.79c1.6-0.11,2.7,0.72,3.45,2.23
			c0.79,1.59,1.94,3,2.76,4.58c0.86,1.67,1.68,3.4,2.15,5.2c0.19,0.71-0.35,2.09-0.98,2.46c-1.81,1.08-2.89,2.72-4.04,4.34
			c-1.53,2.15-3.44,3.79-6,4.54c-1.94,0.57-3.91,1.03-5.88,1.45c-0.68,0.14-1.44,0.13-2.11-0.03c-0.38-0.09-0.84-0.58-0.91-0.97
			c-0.05-0.24,0.52-0.81,0.87-0.87c1.69-0.29,3.47-0.25,5.1-0.72c1.83-0.52,3.57-1.42,5.3-2.25c0.59-0.28,0.43-1.36-0.23-1.57
			c-0.46-0.15-1.01-0.21-1.48-0.12c-2.77,0.58-5.52,1.2-8.27,1.85c-2.6,0.61-5.26,0.55-7.89,0.82c-3.46,0.36-6.78,1.48-10.08,2.69
			c-5.14,1.88-10.39,3.47-15.61,5.12c-1.56,0.49-3.22,0.7-4.77,1.21c-2.46,0.81-4.85,1.81-7.3,2.65c-3.71,1.28-7.52,2.32-11.15,3.8
			c-2.63,1.07-5.57,1.48-7.81,3.44c-0.14,0.13-0.39,0.17-0.59,0.2c-2.94,0.36-5.87,1.03-8.8-0.15
			C99.12,58.08,98.25,58.09,97.35,57.96 M134.59,46.48c3.5-1.01,7.01-1.99,10.5-3.05c2.48-0.75,4.92-1.61,7.38-2.42
			c1.15-0.38,2.31-0.73,3.46-1.12c2.17-0.74,4.35-1.48,6.5-2.28c0.33-0.12,0.81-0.6,0.77-0.86c-0.22-1.59-0.5-3.19-0.88-4.75
			c-0.3-1.26-0.98-2.46-1.09-3.72c-0.1-1.1-0.65-1.23-1.37-1.05c-1.09,0.27-2.13,0.73-3.19,1.11c-1.69,0.61-3.37,1.23-5.07,1.81
			c-0.71,0.24-1.48,0.34-2.18,0.6c-1.37,0.51-2.7,1.13-4.08,1.61c-0.83,0.29-1.77,0.29-2.58,0.61c-2.72,1.07-5.4,2.23-8.1,3.34
			c-1.23,0.51-2.45,1.09-3.73,1.46c-1.82,0.54-3.1,2.36-5.22,2.16c-0.17-0.02-0.35,0.24-0.54,0.33c-1.5,0.74-2.98,1.54-4.53,2.18
			c-1.61,0.68-3.29,1.22-4.94,1.8c-2.36,0.84-4.75,1.61-7.08,2.53c-0.93,0.37-1.87,0.92-2.55,1.63c-0.25,0.25,0.24,1.21,0.39,1.85
			c0.12,0.49,0.25,0.98,0.34,1.48c0.24,1.35,0.85,2.56,2.11,3.07c0.58,0.23,1.46-0.29,2.2-0.47c0.08-0.02,0.18,0,0.26-0.03
			c1.9-0.65,3.78-1.32,5.69-1.95c2.74-0.9,5.48-1.79,8.23-2.65c0.76-0.24,1.58-0.31,2.33-0.57c1.62-0.55,3.23-1.14,4.82-1.75
			C133.12,47.12,133.75,46.78,134.59,46.48 M164.6,28.86c0.52,1.99,1.02,3.99,1.56,5.97c0.32,1.16,0.93,1.95,2.26,2.22
			c2.45,0.49,4.52-0.78,6.76-1.23c1.85-0.38,3.66-1.04,5.52-1.31c2.02-0.3,4.04-0.45,5.9-1.41c1.98-1.02,2.46-1.71,1.41-4.07
			c-0.58-1.29-1.21-2.59-1.6-3.94c-0.56-1.94-2.71-3.55-4.66-3.25c-1.51,0.24-3,0.58-4.51,0.81c-0.86,0.13-1.78-0.01-2.62,0.17
			c-2.14,0.45-4.24,1.07-6.38,1.52C165.76,24.87,164.48,26.25,164.6,28.86 M102.22,51.56c-0.33,0.28-0.81,0.49-0.95,0.84
			c-0.47,1.19-0.45,2.37,0.8,3.09c0.67,0.39,1.47,0.6,2.23,0.79c1.03,0.27,1.61-0.39,1.29-1.41c-0.29-0.95-0.59-1.91-0.88-2.86
			C104.18,50.29,103.72,50.16,102.22,51.56z"/>
		<path d="M78.35,87c3.98,1.34,7.91,2.56,11.74,4.04c6.31,2.44,12.57,5.03,18.82,7.62c1.7,0.7,3.36,1.53,4.92,2.48
			c0.66,0.4,1,1.29,1.53,1.92c0.26,0.31,0.54,1.01,0.91-0.06c0.13-0.39,1.07-0.63,1.67-0.72c2.18-0.34,4.1-1.38,6.35-1.72
			c5.71-0.86,11.42-0.71,17.12-0.66c4.13,0.03,8.31,0.3,12.38,1.36c2.33,0.61,4.76,0.87,7.16,1.18c5.73,0.74,11.34,2.06,16.94,3.49
			c3.14,0.8,6.37,1.27,9.52,2.05c3.61,0.89,7.2,1.86,10.74,2.99c1.94,0.62,3.82,1.57,4.72,3.63c0.18,0.41,0.17,0.96,0.1,1.42
			c-0.27,1.7-0.59,3.39-0.91,5.08c-0.58,3.07-1.19,6.14-1.78,9.22c-0.46,2.45-0.77,4.94-1.38,7.35c-1.16,4.61-0.7,9.38-1.54,14
			c-0.38,2.1-1.21,4.11-1.82,6.17c-0.73,2.51-1.5,5.01-2.14,7.55c-0.63,2.52-1.08,5.09-1.67,7.63c-0.71,3.06-1.57,6.08-2.23,9.15
			c-0.62,2.9-1.03,5.85-1.61,8.75c-0.48,2.38-1.29,4.7-1.57,7.1c-0.59,4.91-2.39,9.63-2.28,14.65c0.02,0.8-0.13,1.68-0.47,2.38
			c-0.27,0.56-1.13,1.38-1.44,1.27c-0.78-0.28-1.98-0.3-1.82-1.85c0.36-3.58,0.55-7.16,1.65-10.63c0.48-1.51,0.37-3.2,0.78-4.74
			c0.54-2,0.38-4.16,1.57-6.02c0.4-0.62,0.22-1.61,0.35-2.42c0.26-1.66,0.5-3.33,0.84-4.97c0.43-2.08,0.91-4.16,1.43-6.22
			c0.43-1.71,0.98-3.39,1.42-5.1c0.68-2.68,1.28-5.37,1.95-8.05c0.64-2.55,1.03-5.21,2.07-7.58c0.88-2.01,1.19-4.08,1.57-6.15
			c0.41-2.23,0.41-4.54,0.76-6.79c0.49-3.11,0.85-6.23,1.88-9.27c0.93-2.78,1.22-5.77,1.85-8.65c0.37-1.69,1.04-3.34,1.27-5.04
			c0.34-2.54,0.53-5.12,0.51-7.68c-0.01-0.7-0.88-1.77-1.59-2.03c-2.41-0.88-4.91-1.54-7.4-2.17c-3.87-0.98-7.76-1.89-11.65-2.8
			c-4.15-0.97-8.27-2.04-12.46-2.81c-6.12-1.13-12.27-2.04-18.42-3.01c-1.8-0.29-3.6-0.63-5.42-0.7c-3.4-0.13-6.8-0.14-10.2-0.09
			c-2.32,0.03-4.66,0.1-6.96,0.41c-2.19,0.3-4.46,0.54-6.39,1.88c-0.39,0.27-0.97,0.32-1.46,0.35c-1.28,0.07-2.56,0.11-3.83,0.08
			c-0.34-0.01-0.79-0.21-1.01-0.47c-1.83-2.14-4.29-3.13-6.89-3.97c-1.7-0.55-3.32-1.37-4.99-2.02c-3.2-1.24-6.42-2.42-9.62-3.65
			c-2.77-1.06-5.5-2.25-8.31-3.21c-3.7-1.26-7.46-2.35-11.19-3.52c-1.76-0.55-3.49-1.27-5.29-1.64c-4.41-0.92-8.87-1.66-13.3-2.5
			c-2.14-0.41-4.25-1.04-6.4-1.3c-1.95-0.24-3.95-0.23-5.92-0.1c-0.79,0.05-1.49,0.64-1.61,1.76c-0.39,3.72-0.84,7.44-1.44,11.13
			c-0.47,2.86-1.27,5.66-1.8,8.51c-0.28,1.5-0.25,3.06-0.45,4.59c-0.13,1.01-0.42,2-0.64,3c-0.06,0.25-0.17,0.48-0.2,0.73
			c-0.34,2.91-0.35,5.9-1.12,8.69c-0.49,1.79-0.67,3.6-1.13,5.36c-0.65,2.48-1.07,4.97-1.23,7.52c-0.08,1.3-0.42,2.58-0.5,3.88
			c-0.11,1.98-0.09,3.96-0.13,5.94c-0.04,1.66-0.11,3.31-0.12,4.97c-0.01,1.15,0.11,2.3,0.08,3.45c-0.05,1.55-0.26,3.09-0.29,4.64
			c-0.06,2.81,0.03,5.63-0.07,8.44c-0.06,1.56-0.43,3.1-0.59,4.66c-0.09,0.87,0,1.77-0.08,2.64c-0.04,0.51-0.25,1.01-0.38,1.52
			c-0.47-0.22-1-0.36-1.39-0.67c-1.33-1.07-1.74-2.54-1.66-4.18c0.3-6.54,0.64-13.08,0.89-19.62c0.11-3.03-0.16-6.08,0.12-9.09
			c0.34-3.66,1.01-7.29,1.66-10.91c0.54-3.03,1.29-6.01,1.88-9.03c0.72-3.71,1.38-7.44,2.03-11.17c0.57-3.28,1.04-6.57,1.62-9.84
			c0.54-2.99,1.24-5.96,1.74-8.95c0.36-2.16,0.54-4.34,0.77-6.52c0.28-2.65,0.75-2.2,2.51-2.98c2.09-0.92,4.18-0.74,6.24-0.81
			c1.73-0.06,3.48,0.5,5.22,0.84c2.94,0.57,5.88,1.14,8.81,1.78c1.7,0.37,3.35,0.96,5.06,1.25C69.76,84.13,73.93,85.81,78.35,87z"/>
		<path d="M110.93,127.87c0.38-2.17,0.73-4.25,1.13-6.31c0.34-1.76,0.77-3.5,1.11-5.26c0.33-1.74,0.57-3.49,0.9-5.23
			c0.12-0.61,0.31-1.24,0.63-1.77c0.41-0.68,1.4-0.64,1.73,0.08c0.24,0.53,0.35,1.18,0.28,1.76c-0.14,1.24-0.63,2.46-0.61,3.68
			c0.05,3-1.27,5.7-1.73,8.57c-0.37,2.31-0.69,4.63-1.02,6.95c-0.37,2.58-0.77,5.16-1.07,7.75c-0.35,3.01-0.59,6.03-0.92,9.04
			c-0.36,3.25-0.77,6.48-1.14,9.73c-0.08,0.71-0.09,1.43-0.13,2.14c-0.22,3.38-0.35,6.76-0.68,10.13c-0.22,2.27-0.85,4.5-1.06,6.77
			c-0.12,1.36,0.27,2.75,0.32,4.14c0.02,0.6-0.04,1.44-0.42,1.77c-0.56,0.49-1.18,1.27-2.23,0.75c-0.84-0.41-1.01-1.01-0.92-1.83
			c0.51-4.48,1.02-8.95,1.51-13.43c0.13-1.23,0.19-2.47,0.3-3.71c0.27-2.99,0.55-5.98,0.81-8.96c0.06-0.71-0.02-1.44,0.07-2.14
			c0.54-4.1,1.14-8.19,1.65-12.29c0.34-2.75,0.51-5.51,0.82-8.26C110.41,130.59,110.7,129.28,110.93,127.87z"/>
		<path d="M42.97,190.34c-2.6-1.56-5.09-3.03-7.61-4.46c-0.83-0.47-1.79-0.72-2.61-1.22c-1.41-0.86-2.75-1.84-4.13-2.74
			c-0.81-0.53-1.85-0.86-2.41-1.57c-0.45-0.58-0.34-1.6-0.47-2.42c0.61,0.01,1.35-0.22,1.8,0.06c2.06,1.27,4.01,2.69,6.03,4.02
			c1.55,1.02,3.14,1.98,4.72,2.94c1.65,1,3.3,2.01,4.99,2.96c0.98,0.55,2.04,0.96,3.04,1.49c1.99,1.07,3.89,2.35,5.96,3.23
			c2.77,1.18,5.63,2.17,8.5,3.07c3.89,1.22,7.94,1.55,12,1.71c1.27,0.05,2.52,0.49,3.79,0.63c1.2,0.13,2.42,0.13,3.63,0.11
			c2.47-0.03,4.96,0.03,7.41-0.22c2.36-0.24,4.69-0.77,7.02-1.26c2.31-0.49,4.58-1.13,6.88-1.61c0.44-0.09,0.97,0.21,1.46,0.32
			c-0.32,0.42-0.57,1.07-0.98,1.21c-1.67,0.57-3.38,0.98-5.08,1.44c-1.54,0.42-3.06,0.96-4.62,1.22c-2.79,0.46-5.62,1.05-8.43,1.04
			c-3.36-0.02-6.72-0.61-10.07-0.96c-2.31-0.24-4.62-0.55-6.93-0.75c-3.61-0.31-7.13-0.82-10.66-1.89
			c-3.13-0.95-5.83-2.55-8.69-3.92C46.01,192.03,44.55,191.21,42.97,190.34z"/>
		<path d="M108.61,196.98c-1.71-0.65-2.18-1.9-0.98-2.4c0.77-0.32,2.03-0.03,2.84,0.41c1.21,0.64,2.15,1.78,3.33,2.49
			c1.9,1.15,3.86,2.2,5.86,3.14c1.51,0.71,3.17,1.09,4.68,1.79c2.92,1.35,5.79,2.81,8.67,4.24c2.28,1.13,4.47,2.53,6.85,3.37
			c2.31,0.82,4.82,1.09,7.24,1.6c3.64,0.76,7.29,1.45,10.91,2.3c3.21,0.76,6.34,1.84,9.56,2.51c2.82,0.59,5.7,1.03,8.61,0.48
			c0.96-0.18,1.93-0.35,2.89-0.49c0.34-0.05,0.7,0.01,1.06,0.01c-0.21,0.41-0.32,0.97-0.66,1.21c-1.72,1.21-3.74,1.31-5.76,1.41
			c-2.78,0.13-5.46-0.44-8.15-1.09c-4.02-0.97-8.06-1.81-12.09-2.71c-3.87-0.86-7.74-1.67-11.59-2.6c-3.57-0.86-6.9-2.29-10.05-4.21
			c-2.16-1.32-4.56-2.27-6.87-3.34c-1.89-0.88-3.85-1.61-5.72-2.54c-2.55-1.27-5.03-2.65-7.55-3.99
			C110.7,198.03,109.7,197.51,108.61,196.98z"/>
	</g>
</g>
<g id="fiets">
	<path class="s0" d="M543,539c-10.2-3.4-25.8,1.66-36.03,4.07L503,529c0,0-17-23-2-23s10-11,5-13s-20,1-28,0c-9.36-1.17-10,9-7,11
		s7.78,1.65,10,4c2.89,3.06,0.43,7,1,7c0.98,0-88.09,4.79-91.86,5.93C391.11,519.63,396,501,396,501s9,4,15,1s15,2,14-1s-35-8-35-8
		l-18.92,55.75c-0.37-0.14-0.58-0.21-0.58-0.21s-27.84-10.85-50.13,15.68s-19.11,15.92-20.17,30.78
		c-1.06,14.86,2.12,28.66,16.98,36.09s30.78,13.8,40.34,7.43c9.55-6.37,39.28-19.11,39.28-29.72c0-10.62,2.12-36.09-7.43-46.71
		c-4.42-4.91-8.78-8.16-12.19-10.26L379,546l10,5l46.17,41.32c0.81,9.33,16.04,13.89,16.83,14.68l35-3c0,0,15,20,18,23
		s62,29,69.5-24.33C581.99,549.33,558,544,543,539z"/>
	<g id="Vorm_21_1_">
		<path class="s1" d="M410.17,595.43c0.39,1.87,0.72,3.66,1.05,5.46c0.03,0.17,0.11,0.33,0.12,0.5c0.19,2.82,0.34,5.65,0.56,8.47
			c0.31,3.89-0.82,7.42-2.55,10.82c-1.18,2.32-2.35,4.64-3.54,6.96c-0.1,0.19-0.22,0.38-0.37,0.54c-1.69,1.79-3.4,3.56-5.07,5.36
			c-1.87,2.02-3.68,4.1-5.58,6.1c-1.64,1.74-3.52,3.09-5.75,4.1c-2.68,1.2-5.21,2.77-7.78,4.21c-4.45,2.51-8.97,4.8-14.08,5.68
			c-2.01,0.35-4.01,0.81-6.04,1.07c-0.9,0.11-1.86-0.27-2.78-0.22c-1.77,0.1-3.56,0.64-5.29,0.47c-3.47-0.35-6.94-0.92-10.35-1.64
			c-3.1-0.65-6.21-1.41-9.17-2.51c-2.3-0.86-4.41-2.25-6.54-3.53c-1.05-0.63-2.02-1.46-2.89-2.34c-0.9-0.91-1.64-1.98-2.46-2.97
			c-2.99-3.62-5.66-7.48-7.57-11.77c-0.74-1.66-0.94-3.56-1.52-5.3c-0.7-2.1-1.6-4.13-2.31-6.22c-0.75-2.19-0.76-4.44-0.27-6.71
			c0.09-0.44,0.05-0.92,0.01-1.38c-0.32-3.13,0.85-5.92,1.94-8.73c1.34-3.45,3.01-6.74,5.26-9.69c1.69-2.22,3.42-4.4,5.21-6.54
			c1.93-2.3,3.81-4.69,5.98-6.75c2.9-2.76,6.09-5.19,9.46-7.41c4.15-2.73,8.55-4.87,13.21-6.46c3.92-1.34,7.88-2.71,11.93-3.49
			c3.01-0.58,6.13-0.87,9.31-0.48c2.62,0.32,5.27,0.34,7.82,1.2c0.97,0.33,2.01,0.49,2.96,0.86c1.13,0.44,1.52-0.21,1.76-1.06
			c1.72-6.17,4.47-11.99,5.96-18.25c0.95-3.99,2.31-7.87,3.43-11.83c0.88-3.14,1.48-6.37,2.55-9.44c1.25-3.61,2.92-7.07,4.32-10.63
			c0.92-2.34,1.7-4.73,2.53-7.1c0.52-1.5,1.08-1.69,2.54-1.09c4.55,1.9,9.09,3.85,13.71,5.56c2.36,0.87,4.82,1.27,7.46,0.88
			c2.11-0.31,4.33,0.09,6.5,0.21c0.29,0.01,0.61,0.11,0.84,0.28c0.26,0.19,0.42,0.5,0.63,0.76c-0.28,0.11-0.56,0.2-0.83,0.33
			c-3.31,1.56-6.89,0.72-10.32,0.97c-2.25,0.16-4.64-0.83-6.88-1.56c-2.3-0.75-4.51-1.78-6.73-2.73c-1.64-0.7-3.27-1.45-4.86-2.26
			c-0.73-0.37-0.97-0.22-1.23,0.52c-1.25,3.67-2.55,7.32-3.83,10.98c-1.04,2.97-2.08,5.95-3.12,8.92c-0.17,0.48-0.4,0.96-0.47,1.46
			c-0.08,0.61-0.15,1.26,0.74,1.47c0.79,0.18,1.53,0.66,2.32,0.71c2.55,0.17,5.11,0.17,7.66,0.32c2.18,0.12,4.36,0.5,6.54,0.51
			c3.87,0.02,7.75-0.24,11.62-0.23c6.73,0.02,13.45,0.2,20.18,0.24c2.58,0.02,5.17-0.18,7.75-0.25c1.49-0.04,2.98,0.04,4.46-0.02
			c3.06-0.13,6.13-0.3,9.19-0.48c1.66-0.09,3.31-0.28,4.97-0.33c1.84-0.06,3.68,0.01,5.52-0.02c4.06-0.07,8.11-0.16,12.17-0.28
			c2.13-0.06,4.25-0.2,6.37-0.26c1.35-0.04,2.13-0.57,2.82-1.88c1.35-2.59,3.06-5,4.62-7.48c0.12-0.19,0.22-0.39,0.32-0.58
			c-0.24-0.09-0.48-0.28-0.71-0.27c-1.39,0.06-2.78,0.26-4.17,0.24c-2.97-0.03-5.94-0.16-8.91-0.26c-1.65-0.06-3.15-1.27-3.76-3
			c-0.88-2.5-0.27-4.11,1.97-5.75c2.13-1.56,4.56-2.18,7.09-2.56c3.21-0.48,6.45-0.8,9.63-1.43c1.95-0.39,3.86-0.84,5.88-0.81
			c4.25,0.08,6.59,2.04,7.18,6.2c0.43,3.04-2.14,6.49-5.14,6.78c-1.93,0.19-3.88,0.22-5.82,0.29c-0.9,0.03-1.38,0.29-1.84,1.25
			c-0.86,1.78-2.26,3.29-3.21,5.03c-0.73,1.33-1.27,2.81-1.58,4.29c-0.14,0.67,0.33,1.61,0.78,2.25c1.21,1.73,2.67,3.29,3.82,5.06
			c2.56,3.94,4.97,7.98,7.49,11.94c1.54,2.41,3.15,4.78,4.78,7.13c1.13,1.63,2.19,1.87,4.25,1.39c3.7-0.86,7.44-1.59,11.14-2.45
			c2.09-0.48,4.13-1.17,6.21-1.64c1.28-0.29,2.61-0.43,3.92-0.54c1.84-0.15,3.71-0.41,5.54-0.24c3.1,0.28,6.18,0.77,9.24,1.32
			c2.5,0.45,5.03,0.93,7.43,1.72c2.93,0.96,5.55,2.5,7.9,4.65c3.32,3.04,6.47,6.19,8.79,10.04c2.83,4.67,5.6,9.41,7.22,14.67
			c0.59,1.9,0.88,3.91,1.11,5.89c0.23,1.97,0.4,3.98,0.26,5.95c-0.21,3.08-0.72,6.14-1.05,9.21c-0.1,0.96-0.1,1.94,0,2.9
			c0.39,3.59-0.99,6.78-2.22,9.99c-1.67,4.35-4.32,8.13-7.43,11.55c-2.95,3.24-5.89,6.53-9.19,9.39c-2.87,2.49-6.22,4.43-9.41,6.55
			c-2.22,1.48-4.56,2.78-6.78,4.27c-2.51,1.68-5.22,1.89-8.11,1.57c-1.74-0.19-3.52-0.04-5.29-0.04c-1.81,0-3.68,0.3-5.42-0.07
			c-2.7-0.57-5.52-1.2-7.91-2.51c-3.27-1.79-6.27-4.12-9.2-6.45c-2.48-1.97-4.73-4.22-7.02-6.41c-3.47-3.34-6.51-7.06-9.17-11.08
			c-1.1-1.66-2.34-3.22-2.38-5.38c-0.02-0.73-0.49-1.36-1.61-1.27c-3.27,0.29-6.56,0.52-9.85,0.55c-2.18,0.02-4.35-0.41-6.54-0.49
			c-1.48-0.05-2.96,0.27-4.44,0.22c-2.14-0.08-4.3-0.66-6.39-0.41c-1.37,0.16-2.62,1.38-3.89,2.19c-0.15,0.1-0.13,0.61-0.06,0.89
			c0.61,2.41,1.17,4.84,1.93,7.21c0.48,1.49,0.7,2.22,2.71,2.3c0.59,0.03,1.18,0.1,0.6,0.95c-0.13,0.19-0.15,0.62-0.02,0.8
			c1.08,1.52-0.14,1.18-0.97,1.3c-1.6,0.22-3.17,0.65-4.77,0.78c-1.86,0.15-3.36-0.62-4.22-2.35c-0.11-0.23,0.06-0.88,0.16-0.89
			c0.7-0.1,1.45-0.2,2.13-0.07c1.39,0.28,2.44-0.64,2.12-2.01c-0.54-2.35-1.03-4.72-1.7-7.03c-0.18-0.61-0.53-1.28-1.78-0.95
			c-3.06,0.81-5.95,0.08-8.41-2.01c-2.69-2.29-4.53-5.03-5.35-8.57c-0.42-1.84-1.49-3.53-1.28-5.54c0.02-0.2-0.23-0.46-0.4-0.65
			c-1.78-1.89-3.55-3.79-5.37-5.64c-3.06-3.11-6.18-6.16-9.24-9.27c-2.59-2.63-5.16-5.29-7.69-7.97c-1.61-1.7-3.06-3.55-4.71-5.22
			c-4.93-5-9.97-9.9-14.87-14.93c-3.63-3.74-7.14-7.6-10.64-11.47c-0.98-1.09-1.7-2.42-2.56-3.62c-0.18-0.26-0.44-0.46-0.66-0.68
			c-0.15,0.26-0.34,0.5-0.43,0.78c-0.94,2.92-1.86,5.85-2.8,8.78c-0.27,0.85-0.58,1.69-0.88,2.54c-0.52,1.49-1.05,2.97-1.57,4.46
			c-0.66,1.88-0.31,2.77,1.58,3.27c3.53,0.94,6.64,2.58,9.48,4.77c2.16,1.67,3.96,3.71,5.22,6.18c1.57,3.08,3.39,6.06,4.63,9.26
			C408.81,589.16,409.32,592.31,410.17,595.43 M379.87,576.45c0-0.18-0.05-0.39,0.01-0.55c0.96-2.55,2-5.07,2.89-7.64
			c0.3-0.87,0.79-2.01-0.47-2.62c-0.84-0.4-1.74-0.73-2.65-0.91c-2.14-0.43-4.28-0.89-6.44-1.09c-2.52-0.24-5.14-0.61-7.6-0.22
			c-3.84,0.62-7.62,1.74-11.38,2.81c-4.18,1.19-8.31,2.54-12.09,4.8c-3.95,2.36-7.87,4.79-11.15,8.01
			c-2.94,2.89-5.54,6.13-8.23,9.27c-2.67,3.11-5.12,6.38-6.84,10.14c-1.15,2.51-2.53,4.96-3.32,7.59c-0.61,2.01-0.41,4.24-0.65,6.37
			c-0.3,2.64,0.05,5.16,1.11,7.6c0.51,1.17,1.11,2.34,1.36,3.57c0.85,4.28,2.74,8.08,5.03,11.73c2.19,3.48,4.81,6.57,7.9,9.26
			c2.01,1.75,4.18,3.3,6.74,4.04c3.63,1.05,7.31,1.94,11,2.77c3.26,0.73,6.52,1.57,9.91,1.4c1.71-0.09,3.43-0.1,5.13-0.29
			c2.88-0.32,5.82-0.5,8.61-1.23c2.69-0.7,5.31-1.84,7.82-3.09c3.86-1.92,7.62-4.06,11.39-6.17c1.71-0.96,3.49-1.75,4.86-3.33
			c2.62-3.02,5.37-5.93,8.19-8.76c2.08-2.09,4-4.21,5.08-7.02c0.91-2.38,2.24-4.61,3.02-7.03c0.91-2.83,0.73-5.79,0.72-8.77
			c-0.01-5.46-1.68-10.51-2.78-15.72c-0.93-4.41-3.02-8.25-5.1-12.12c-0.9-1.68-2-3.31-3.29-4.7c-3.35-3.58-7.81-5.3-12.35-6.78
			c-0.31-0.1-0.99,0.16-1.12,0.44c-0.55,1.15-0.98,2.35-1.42,3.55c-0.73,2-1.43,4.01-2.17,6.01c-0.65,1.76-1.59,3.45-1.92,5.26
			c-0.54,3.02-2.1,5.59-3.18,8.36c-0.56,1.42-1.47,2.7-2.1,4.1c-0.64,1.43-1.13,2.93-1.68,4.41c-0.56,1.52-1.04,3.07-1.68,4.55
			c-0.68,1.6-0.57,3.58-2.14,4.77c-0.29,0.22-0.69,0.32-1.03,0.47c-0.13-0.36-0.43-0.75-0.37-1.07c0.25-1.31,0.5-2.64,0.96-3.88
			c0.88-2.35,1.89-4.65,2.88-6.95c1.27-2.93,2.67-5.8,3.84-8.76C376.77,584.93,378.21,580.74,379.87,576.45 M536.56,616.07
			c-0.42,0.09-0.84,0.24-1.27,0.27c-3.88,0.2-7.76,0.4-11.64,0.55c-1.44,0.06-2.88-0.02-4.33,0.02c-2.13,0.06-4.26,0.06-6.37,0.3
			c-3.04,0.35-6.06,0.89-9.09,1.35c-1.08,0.17-1.7,0.72-1.4,1.89c0.14,0.53,0.29,1.08,0.56,1.56c2.81,4.93,6.53,9.16,10.47,13.17
			c2.57,2.61,5.38,5.03,8.32,7.22c3.79,2.81,7.4,6.01,12.31,6.9c2.25,0.41,4.41,0.96,6.76,0.51c1.89-0.36,3.93-0.57,5.8-0.25
			c2.62,0.44,4.98,0.2,7.2-1.15c2.65-1.62,5.18-3.45,7.88-4.97c5-2.83,9.37-6.42,13.27-10.62c1.06-1.15,2.29-2.15,3.29-3.34
			c1.38-1.65,2.68-3.37,3.9-5.14c1.92-2.79,3.66-5.7,4.52-9.03c0.45-1.74,1.38-3.36,1.05-5.29c-0.17-0.98-0.11-2.03-0.02-3.03
			c0.33-3.58,0.8-7.14,1.05-10.73c0.12-1.65-0.08-3.33-0.26-4.99c-0.15-1.42-0.38-2.86-0.75-4.24c-1.11-4.2-3.3-7.94-5.33-11.73
			c-2.84-5.33-6.42-10.09-11.3-13.77c-2.46-1.85-4.93-3.66-7.99-4.37c-1.87-0.43-3.86-0.43-5.64-1.05
			c-3.39-1.19-6.89-1.05-10.35-1.3c-1.1-0.08-2.23,0.11-3.33,0.26c-1.73,0.24-3.47,0.48-5.18,0.83c-1.85,0.39-3.66,0.95-5.51,1.35
			c-2.37,0.51-4.79,0.84-7.15,1.43c-1.52,0.38-2.96,1.06-4.41,1.67c-0.15,0.06-0.24,0.68-0.11,0.92c0.5,0.95,1.03,1.9,1.65,2.77
			c2.94,4.08,5.93,8.13,8.86,12.21c1.5,2.08,3,4.17,4.38,6.33c1.98,3.08,3.85,6.22,5.77,9.34c1.85,2.99,4.34,5.59,5.31,9.12
			c0.25,0.89,0.63,1.63,0.23,2.58c-0.79,1.88-1.36,3.86-2.27,5.68c-0.67,1.35-1.54,2.69-2.64,3.7
			C541.17,614.54,539.14,615.62,536.56,616.07 M455.52,598.53c0.36-0.14,0.8-0.19,1.05-0.44c0.35-0.35,0.87-0.98,0.76-1.27
			c-0.6-1.54-1.33-3.04-2.12-4.5c-0.17-0.31-0.77-0.5-1.18-0.53c-0.5-0.04-1.02,0.18-1.54,0.24c-1.04,0.12-1.78-0.3-1.92-1.39
			c-0.14-1.05,0.76-2.06,1.83-2.2c0.52-0.07,1.05-0.12,1.56-0.23c1.22-0.27,2.42-0.65,3.65-0.85c1.03-0.17,1.12,0.55,0.86,1.29
			c-0.14,0.39-0.57,0.68-0.74,1.07c-0.18,0.41-0.25,0.88-0.28,1.33c-0.13,2.11,1.71,3.32,2.4,5.08c0.13,0.34,1.15,0.54,1.72,0.46
			c2.46-0.34,4.91-0.78,7.34-1.27c0.46-0.09,1.02-0.52,1.22-0.94c0.64-1.34,1.19-2.73,1.68-4.13c0.85-2.46,1.6-4.95,2.45-7.41
			c0.9-2.57,1.85-5.12,2.81-7.67c1.19-3.19,2.37-6.38,3.64-9.54c1.11-2.76,2.36-5.46,3.53-8.2c1.3-3.05,2.54-6.13,3.88-9.16
			c1.24-2.8,2.51-5.59,3.87-8.34c1.27-2.59,2.26-5.35,4.41-7.43c0.18-0.18,0.27-0.45,0.4-0.68c-0.33-0.09-0.67-0.28-0.99-0.25
			c-2.6,0.25-5.2,0.55-7.8,0.81c-2.52,0.25-4.91-0.93-7.55-0.37c-1.99,0.42-4.17-0.23-6.26-0.14c-4.08,0.17-8.14,0.61-12.22,0.77
			c-3.37,0.13-6.75,0.04-10.12,0.01c-0.47,0-0.94-0.27-1.4-0.25c-2.87,0.15-5.74,0.49-8.61,0.5c-4.52,0.03-9.03-0.18-13.55-0.24
			c-3.22-0.04-6.44-0.01-9.66-0.01c-0.36,0-0.73,0.02-1.09,0.02c-2,0.01-4.01,0.04-6.01,0c-1.42-0.03-2.84-0.18-4.26-0.22
			c-1.51-0.04-3.03,0.08-4.53-0.02c-1.9-0.13-3.78-0.46-5.68-0.57c-0.37-0.02-1.01,0.47-1.14,0.85c-0.77,2.36-1.49,4.73-2.11,7.13
			c-0.44,1.73-0.93,3.52,0.45,5.13c3.68,4.31,7.2,8.76,11.05,12.91c4.22,4.54,8.77,8.78,13.11,13.21c2.73,2.79,5.33,5.71,8.02,8.54
			c2.9,3.04,5.82,6.05,8.77,9.04c2.96,3.01,5.99,5.96,8.95,8.97c1.69,1.71,3.32,3.48,4.96,5.24c0.75,0.8,1.5,0.57,1.87-0.2
			C451.95,600.77,453.72,599.79,455.52,598.53 M485.06,560.71c-0.91,2.02-1.94,3.99-2.71,6.05c-2.34,6.3-4.57,12.64-6.85,18.97
			c-1.14,3.16-2.29,6.32-3.39,9.5c-0.09,0.26,0.05,0.76,0.26,0.94c1.42,1.23,3.26,0.96,4.91,1.07c3.59,0.24,7.06-1.26,10.73-0.87
			c2.19,0.23,4.44-0.13,6.66-0.17c1.84-0.04,2.53-0.89,2.29-2.72c-0.13-1.06-0.3-2.24,0.02-3.2c1.61-4.8,2.81-9.75,5.21-14.26
			c1.98-3.73,4.3-7.23,7.33-10.21c1.06-1.04,2.21-2.01,3.29-3.04c0.8-0.75,1.49-1.62,2.34-2.3c1.65-1.33,1.73-1.56,0.55-3.37
			c-0.45-0.69-0.94-1.35-1.37-2.05c-3.23-5.24-6.38-10.53-9.7-15.71c-1.56-2.44-3.05-5.02-5.63-6.6c-0.29-0.17-1.07-0.11-1.18,0.1
			c-1.36,2.42-2.73,4.84-3.9,7.35c-1.78,3.81-3.45,7.68-5.1,11.55C487.57,554.65,486.41,557.62,485.06,560.71 M522.75,598.95
			c-2.45-0.09-4.89-0.17-7.33-0.28c-3.88-0.17-7.76-0.4-11.64-0.53c-1.15-0.04-2.31,0.25-3.47,0.24c-1.71-0.02-3.42-0.25-5.13-0.24
			c-2.77,0.02-5.53,0.15-8.3,0.26c-1.57,0.06-3.14,0.16-4.71,0.28c-2.22,0.17-4.45,0.37-6.67,0.54c-0.67,0.05-1.08,0.01-0.7,1.02
			c0.57,1.52,1.02,3.16,1.08,4.77c0.05,1.3-0.72,2.63,0.05,3.97c0.1,0.17-0.03,0.52-0.13,0.75c-0.8,1.83-1.59,3.67-2.44,5.47
			c-0.43,0.9-0.18,1.25,0.77,1.45c2.37,0.52,4.74,0.22,7.11,0.26c1.76,0.03,3.51,0.16,5.27,0.27c1.3,0.08,2.6,0.34,3.88,0.24
			c3.49-0.28,6.96-0.72,10.44-1.07c2.27-0.22,4.54-0.36,6.81-0.56c4.96-0.45,9.91-0.97,14.88-1.34c1.6-0.12,3.24,0.27,4.85,0.22
			c2.79-0.09,5.63-0.08,8.36-0.6c2.52-0.48,4.82-1.7,6.51-3.88c1.6-2.06,2.29-4.48,3.16-6.84c0.13-0.36,0.01-1.02-0.25-1.28
			c-0.68-0.67-1.43-1.5-2.29-1.72c-2.06-0.53-4.19-0.93-6.3-1.04c-2.36-0.13-4.74,0.22-7.11,0.18
			C527.29,599.43,525.16,599.13,522.75,598.95 M499.42,590.8c-0.28,1.13-0.52,2.26-0.84,3.38c-0.44,1.51-0.12,1.97,1.47,2.01
			c3.27,0.09,6.54,0.19,9.82,0.27c4.01,0.1,8.01,0.17,12.02,0.29c1.71,0.05,3.42,0.18,5.13,0.27c1.94,0.1,3.89,0.37,5.81,0.23
			c2.9-0.21,5.78-0.6,8.63,0.32c0.59,0.19,1.2,0.32,1.81,0.48c-0.32-0.54-0.63-1.08-0.95-1.63c-0.04-0.07-0.05-0.16-0.1-0.24
			c-1.66-2.62-3.3-5.26-4.98-7.87c-1.73-2.69-3.48-5.37-5.27-8.02c-1.62-2.42-3.12-4.95-5.01-7.15c-2.84-3.3-5.38-6.75-7.39-10.61
			c-0.69-1.32-1.43-1.56-2.52-0.64c-1.72,1.46-3.39,3.01-4.94,4.66c-1.75,1.85-3.45,3.77-4.97,5.8c-2.31,3.1-4.1,6.53-5.44,10.15
			C500.74,585.1,500.17,587.85,499.42,590.8 M469.74,616.89c2.37-1.57,3.07-4.16,3.99-6.59c0.94-2.49,0.46-5.03-0.01-7.52
			c-0.62-3.31-3.03-5.49-5.87-5.17c-2.18,0.24-4.32,0.84-6.45,1.36c-0.55,0.13-1.01,0.38-0.68,1.31c0.75,2.08,1.22,4.27,1.87,6.39
			c0.22,0.72,0.63,1.39,0.94,2.09c0.5,1.13,1.1,2.22,1.45,3.39c0.53,1.77,0.85,3.59,1.33,5.38c0.21,0.8,0.6,1.46,1.58,0.67
			C468.43,617.78,469.03,617.42,469.74,616.89 M452.35,604.19c-1.23,1.55-0.03,3.54-0.93,5.15c-0.01,0.01,0.07,0.06,0.09,0.1
			c0.85,1.76,1.6,3.57,2.55,5.28c1.9,3.43,5.19,5.39,9.19,4.93c0.64-0.07,1.22-0.24,0.87-1.25c-0.44-1.25-0.55-2.61-0.93-3.89
			c-0.41-1.39-0.18-2.93-1.29-4.16c-0.94-1.05-2.11-2.15-1.42-3.86c0.03-0.09-0.09-0.23-0.13-0.35c-0.51-1.67-1.15-3.32-1.47-5.03
			c-0.24-1.24-0.64-1.17-1.61-0.8C455.26,601.07,453.94,602.63,452.35,604.19z"/>
		<path class="s1" d="M363.65,679.36c0.16,0.12,0.24,0.31,0.33,0.5c-0.13,0.05-0.25,0.09-0.38,0.14
			C363.59,679.81,363.59,679.62,363.65,679.36z"/>
	</g>
</g>
<g id="haha">
	<g id="Vorm_19_2_">
		<path class="s1" d="M1055.95,200.42c-1.33,2.12-2.6,4.13-3.79,6.2c-0.39,0.67-0.61,1.45-0.85,2.19
			c-0.32,1.02-1.05,1.59-1.93,1.04c-0.33-0.2-0.32-1.53-0.01-2.09c3.01-5.39,6.12-10.72,9.2-16.06c0.34-0.59,0.65-1.19,0.97-1.78
			c-0.7-0.09-1.43-0.08-2.09-0.29c-1.94-0.63-3.91-1.22-5.76-2.07c-1.02-0.46-1.65-0.21-2.06,0.55c-1.87,3.47-3.66,6.97-5.48,10.47
			c-0.05,0.09-0.11,0.21-0.19,0.26c-0.7,0.42-1.77,1.34-2.05,1.15c-0.94-0.66-0.4-1.47,0.16-2.37c2.18-3.49,4.24-7.06,6.22-10.67
			c0.17-0.31-0.45-1.34-0.95-1.69c-2.14-1.48-4.38-2.81-6.53-4.27c-0.3-0.21-0.32-0.84-0.47-1.27c0.55-0.08,1.22-0.41,1.63-0.21
			c2.18,1.04,4.3,2.2,6.42,3.36c0.92,0.5,1.47,0.65,1.92-0.64c1.38-3.95,2.89-7.86,4.41-11.76c0.14-0.35,0.65-0.81,0.96-0.79
			c0.54,0.04,1.06,0.41,1.58,0.65c-0.18,0.39-0.29,0.85-0.56,1.17c-1.65,1.96-2.13,4.44-3.02,6.74c-0.64,1.66-1.18,3.37-1.69,5.07
			c-0.13,0.44-0.2,1.27-0.01,1.37c1.99,1.05,3.96,2.3,6.1,2.87c2.32,0.62,2.72,0.02,3.77-2.47c1.49-3.52,3.09-6.99,4.69-10.46
			c0.24-0.53,0.62-1.1,1.09-1.38c0.36-0.2,0.97,0.04,1.47,0.09c-0.11,0.35-0.16,0.73-0.32,1.06c-1.59,3.19-3.47,6.27-4.73,9.59
			C1061.84,189.66,1058.92,194.98,1055.95,200.42z"/>
		<path class="s1" d="M904.87,159.74c-0.98,0.36-1.77,0.8-2.62,1.04c-0.37,0.1-1.02-0.11-1.24-0.4c-0.17-0.24-0.02-1.05,0.23-1.2
			c1.48-0.9,3-1.75,4.57-2.47c1.13-0.51,1.75-0.84,1.15-2.36c-1.14-2.87-1.96-5.87-2.88-8.82c-0.27-0.86-0.51-1.76-0.52-2.65
			c0-0.38,0.64-0.76,0.99-1.14c0.22,0.34,0.51,0.65,0.63,1.02c1.26,3.78,2.52,7.56,3.71,11.36c0.34,1.1,0.97,0.98,1.76,0.68
			c1.96-0.73,3.9-1.51,5.89-2.18c1.62-0.54,1.08-1.69,0.77-2.65c-1.26-3.94-2.64-7.85-3.9-11.79c-0.13-0.41,0.25-0.99,0.4-1.49
			c0.35,0.32,0.9,0.57,1.03,0.96c1.13,3.33,2.19,6.68,3.27,10.02c0.24,0.75,0.42,1.52,0.69,2.26c0.14,0.39,0.36,1,0.63,1.06
			c2.27,0.47,1.46,2.26,1.78,3.66c0.63,2.76,1.36,5.54,2.39,8.17c0.74,1.89,2.01,3.58,3.11,5.33c0.56,0.9,0.2,1.55-0.51,1.95
			c-0.64,0.37-1.28,0.36-1.67-0.62c-1.29-3.25-2.73-6.45-4.04-9.7c-0.55-1.36-0.85-2.82-1.41-4.17c-0.23-0.55-0.53-1.19-1.59-0.68
			c-2.02,0.97-4.22,1.56-6.26,2.49c-0.39,0.18-0.71,1.34-0.51,1.82c1.21,2.95,2.67,5.8,3.85,8.76c0.33,0.82,0.29,1.99-0.02,2.83
			c-0.35,0.97-1.08,0.27-1.33-0.22c-0.61-1.21-1.11-2.48-1.57-3.76c-0.84-2.31-1.55-4.68-2.45-6.97c-0.41-1.05-1.05-2.11-2.47-0.9
			C906.3,159.39,905.62,159.5,904.87,159.74z"/>
		<path class="s1" d="M906.57,251.8c0.34,1.61,0.88,3.05,0.94,4.5c0.03,0.77-0.76,1.57-1.18,2.36c-0.37-0.23-1-0.4-1.07-0.71
			c-0.33-1.29-0.56-2.62-0.71-3.95c-0.27-2.45-0.53-4.9-0.66-7.36c-0.06-1.03-0.4-1.39-1.4-1.32c-1.01,0.07-2.05-0.07-3.05,0.04
			c-1.2,0.13-1.86-0.47-2.37-1.41c0.8-0.33,1.57-0.81,2.4-0.95c0.93-0.17,1.94,0.08,2.87-0.09c0.45-0.08,1.16-0.75,1.13-1.1
			c-0.24-3.21-0.66-6.4-0.93-9.6c-0.05-0.59,0.31-1.21,0.49-1.81c0.39,0.45,1.06,0.86,1.14,1.36c0.43,3.01,0.85,6.04,1.01,9.08
			c0.09,1.58,0.55,2.18,2.15,2.16c2.1-0.02,4.21,0.15,6.31,0.32c2.02,0.17,2.71-1.05,2.1-3.61c-0.82-3.46-1.6-6.93-2.32-10.41
			c-0.08-0.38,0.32-0.85,0.5-1.28c0.39,0.28,1.02,0.49,1.12,0.85c0.64,2.35,1.28,4.71,1.71,7.1c0.56,3.07,0.97,6.18,1.37,9.28
			c0.2,1.53,0.18,3.08,0.37,4.61c0.41,3.38,0.95,6.75,1.31,10.14c0.1,0.94-0.05,1.99-0.4,2.87c-0.32,0.82-1.02,0.6-1.24-0.18
			c-0.31-1.13-0.55-2.29-0.69-3.45c-0.49-3.94-0.92-7.88-1.37-11.83c-0.01-0.06,0.01-0.11,0-0.17c-0.32-2.22-0.83-2.56-2.99-2.24
			c-1.93,0.28-3.88,0.55-5.83,0.66c-0.99,0.06-1.51,0.3-1.37,1.34C906.1,248.54,906.34,250.08,906.57,251.8z"/>
		<path class="s1" d="M1093.48,224.71c-0.65,1.66-1.12,3.29-1.82,4.8c-0.38,0.8-1.18,1.42-2.16,0.56
			c-0.93-0.81-0.63-1.54,0.17-2.22c2.08-1.77,2.39-4.44,3.36-6.76c0.43-1.04-0.37-1.6-1.28-1.89c-1.5-0.48-3.05-0.84-4.51-1.41
			c-0.48-0.19-0.78-0.85-1.16-1.3c0.62-0.18,1.28-0.6,1.85-0.51c1.78,0.29,3.51,0.82,5.29,1.12c0.35,0.06,1.08-0.41,1.16-0.75
			c0.78-3.43,1.28-6.9,1.06-10.44c-0.01-0.23,0.09-0.52-0.02-0.67c-0.44-0.63-0.48-1.27,0.37-1.28c0.44-0.01,1.3,0.74,1.29,1.11
			c-0.18,3.68-0.39,7.37-0.83,11.03c-0.17,1.46-0.46,2.4,1.48,2.81c1.54,0.33,2.92,1.38,4.42,2.01c0.77,0.32,1.62,0.5,2.46,0.61
			c0.91,0.12,1.47,0.06,1.79-1.27c1.03-4.35,2.4-8.61,3.67-12.9c0.13-0.44,0.37-0.9,0.68-1.23c0.16-0.18,0.59-0.11,0.89-0.15
			c0.04,0.29,0.17,0.6,0.1,0.86c-1.45,5.34-2.91,10.68-4.41,16c-1.51,5.37-3.06,10.73-4.65,16.07c-0.17,0.57-0.69,1.04-1.05,1.55
			c-0.21-0.73-0.76-1.55-0.59-2.18c1.05-3.91,2.27-7.77,3.43-11.65c0.2-0.65,0.26-1.41,0.63-1.94c0.98-1.41-0.21-1.81-1-1.72
			c-2.9,0.31-5.33-1.07-7.9-1.91c-0.84-0.27-1.17-0.21-1.44,0.64C1094.42,222.71,1093.96,223.66,1093.48,224.71z"/>
		<path class="s1" d="M976.97,145.05c1.39,2.43,2.66,4.79,4,7.11c0.52,0.91,0.38,1.7-0.38,2.25c-0.2,0.14-1.1-0.3-1.34-0.69
			c-0.89-1.42-1.76-2.88-2.41-4.43c-1.21-2.89-2.3-5.84-3.37-8.78c-0.79-2.18-0.66-2.1-2.56-0.5c-1.29,1.08-2.86,1.81-4.27,2.76
			c-0.59,0.4-1.28,0.7-0.74,1.81c0.88,1.83,1.53,3.78,2.11,5.74c0.21,0.7,0.19,1.81-0.23,2.28c-0.87,0.96-1.49,0.03-1.74-0.76
			c-0.54-1.71-0.88-3.48-1.4-5.2c-1.19-3.98-2.19-4.4-6.14-2.67c-0.43,0.19-0.84,0.51-1.28,0.57c-0.52,0.07-1.08-0.08-1.61-0.14
			c0.19-0.51,0.25-1.27,0.61-1.47c1.51-0.83,3.08-1.57,4.69-2.19c0.9-0.35,1.44-0.5,1.07-1.73c-0.88-2.93-1.59-5.91-2.29-8.89
			c-0.26-1.1-0.37-2.24-0.43-3.38c-0.02-0.31,0.38-0.87,0.65-0.92c0.29-0.05,0.89,0.3,0.97,0.59c0.32,1.18,0.46,2.41,0.73,3.61
			c0.66,2.95,1.25,5.92,2.08,8.82c0.56,1.96,2.47,1.34,3.66,1.09c1.32-0.28,2.61-1.18,3.68-2.09c1.34-1.14,0.67-2.58,0.21-4.01
			c-1.13-3.5-2.13-7.04-3.18-10.57c-0.02-0.05-0.01-0.11,0-0.17c0.14-0.67,0.29-1.35,0.44-2.02c0.31,0.56,0.71,1.1,0.9,1.7
			c1.5,4.75,2.9,9.54,4.46,14.28C974.73,139.74,975.87,142.33,976.97,145.05z"/>
		<path class="s1" d="M1029.28,306.24c0.74,0.23,1.58,0.4,2.03,0.9c1.87,2.07,3.65,4.24,5.42,6.4c0.83,1.02,1.71,1.51,2.93,0.66
			c0.17-0.12,0.4-0.14,0.57-0.25c2.63-1.53,2.43-1.08,0.49-3.51c-1.97-2.47-4.22-4.71-6.31-7.09c-0.26-0.29-0.23-0.83-0.33-1.26
			c0.47-0.01,1.09-0.21,1.38,0.01c1.44,1.09,2.94,2.17,4.14,3.5c1.51,1.67,2.75,3.6,4.12,5.4c0.54,0.72,1.08,0.83,1.78,0.1
			c0.38-0.4,0.99-0.59,1.49-0.88c-0.05,0.66,0.11,1.43-0.19,1.95c-0.71,1.25-0.02,2.19,0.54,3.09c0.99,1.59,2.11,3.1,3.23,4.61
			c0.36,0.49,0.91,0.83,1.27,1.32c0.37,0.5,0.61,1.09,0.9,1.65c-0.81-0.05-1.93,0.23-2.36-0.19c-1.64-1.61-3.06-3.45-4.55-5.21
			c-0.13-0.16-0.18-0.39-0.31-0.55c-1.49-1.81-4.24-1.64-5.2,0.51c-0.22,0.49,0.63,2.02,1.26,2.22c2.03,0.65,1.91,2.13,1.84,3.66
			c-0.02,0.39-0.19,0.96-0.48,1.11c-0.24,0.13-0.89-0.09-1.1-0.36c-0.98-1.21-2-2.42-2.75-3.78c-0.83-1.5-1.57-1.91-3.19-0.91
			c-1.35,0.83-2.99,1.23-4.54,1.72c-0.31,0.1-0.76-0.28-1.15-0.44c0.18-0.43,0.24-1.03,0.56-1.25c1.27-0.85,2.56-1.72,3.96-2.31
			c1.34-0.57,1.15-1.44,0.56-2.18c-1.88-2.36-3.92-4.6-5.82-6.95C1029.2,307.56,1029.29,306.87,1029.28,306.24z"/>
		<path class="s1" d="M936.46,143.78c-0.23-2.62-0.47-5.08-0.66-7.53c-0.03-0.39,0.18-1.08,0.39-1.13
			c0.45-0.11,1.23-0.06,1.45,0.23c1.48,2.03,2.95,4.07,4.2,6.24c0.75,1.3,1.14,2.81,1.59,4.26c0.36,1.16,0.58,2.37,0.84,3.56
			c0.05,0.22-0.08,0.58,0.03,0.65c1.94,1.33,1.51,3.67,2.36,5.46c0.59,1.23,1.33,2.39,1.91,3.63c0.55,1.18,0.96,2.43,1.48,3.63
			c0.41,0.94,0.28,1.93-0.56,2.3c-0.35,0.16-1.47-0.67-1.78-1.28c-1.25-2.42-2.39-4.89-3.41-7.41c-0.48-1.18-0.87-1.76-2.24-1.1
			c-1.08,0.51-2.29,0.98-3.46,1.02c-1.96,0.06-1.9,1.45-2.14,2.68c-0.45,2.31-0.81,4.64-1.29,6.94c-0.1,0.48-0.59,0.87-0.9,1.3
			c-0.18-0.49-0.55-1-0.5-1.46c0.32-2.57,0.72-5.12,1.13-7.68c0.26-1.64,0.69-3.26,0.85-4.9
			C936.07,150.11,936.23,147.02,936.46,143.78 M942.07,149.55c-1.08-3.12-2.14-6.25-3.24-9.36c-0.15-0.43-0.53-0.79-0.81-1.18
			c-0.11,0.57-0.35,1.16-0.31,1.72c0.09,1.58,0.51,3.16,0.41,4.72c-0.16,2.53-0.65,5.04-0.95,7.56c-0.04,0.34,0.09,0.79,0.31,1.03
			c0.13,0.14,0.62-0.01,0.92-0.1c1-0.32,1.97-0.74,2.98-0.99c1.16-0.28,1.29-1.08,1.19-2.03
			C942.52,150.53,942.35,150.13,942.07,149.55z"/>
		<path class="s1" d="M1015.86,341.22c1.04,0.93,2.04,1.72,2.92,2.63c0.29,0.3,0.26,0.91,0.38,1.37c-0.5,0.06-1.18,0.35-1.47,0.13
			c-1.49-1.11-3.03-2.23-4.27-3.59c-1.48-1.63-2.67-3.52-4.02-5.27c-0.11-0.14-0.69-0.16-0.79-0.04c-1.51,1.91-3.12,3.77-4.36,5.84
			c-0.29,0.49,0.63,1.75,1.06,2.61c0.68,1.36,1.46,2.67,2.12,4.05c0.12,0.24-0.15,0.67-0.24,1.01c-0.34-0.14-0.78-0.2-0.99-0.44
			c-1.19-1.36-2.39-2.72-3.48-4.16c-1.08-1.43-1.64-1.52-3.17-0.61c-1.02,0.61-2.16,1.07-3.31,1.42c-0.36,0.11-0.9-0.37-1.35-0.58
			c0.27-0.45,0.43-1.07,0.83-1.33c1-0.67,2.08-1.24,3.17-1.76c0.86-0.41,1.06-0.8,0.39-1.6c-2.35-2.75-4.66-5.53-6.96-8.32
			c-0.3-0.36-0.44-0.86-0.66-1.29c0.58,0,1.28-0.22,1.72,0.03c0.8,0.45,1.53,1.1,2.14,1.79c1.8,2.06,3.58,4.15,5.28,6.3
			c0.76,0.97,1.55,0.79,2.22,0.17c1.54-1.4,2.99-2.91,4.42-4.42c0.18-0.19,0.16-0.75,0.02-1.04c-1.3-2.67-3.32-4.69-5.82-6.25
			c-0.14-0.09-0.28-0.17-0.39-0.29c-0.51-0.55-1.01-1.1-1.51-1.66c0.86-0.03,1.98-0.43,2.52-0.03c1.74,1.3,3.44,2.75,4.85,4.41
			C1010.08,333.84,1012.89,337.52,1015.86,341.22z"/>
		<path class="s1" d="M867.76,356c-2.02-1.63-4.19-3.16-5.83-5.12c-1.08-1.29-1.87-1.95-3.48-1.28c-0.39,0.16-0.91-0.02-1.38-0.04
			c0.21-0.51,0.31-1.34,0.65-1.46c1.87-0.66,1.37-1.71,0.72-2.96c-1.44-2.74-2.8-5.51-4.18-8.28c-0.16-0.32-0.33-0.7-0.32-1.04
			c0.01-0.34,0.24-0.68,0.37-1.02c0.31,0.13,0.77,0.17,0.92,0.4c1.12,1.85,2.19,3.73,3.26,5.6c0.63,1.1,1.18,2.25,1.9,3.28
			c0.55,0.79,1.58,2.16,1.9,2.03c1.1-0.44,2.32-1.24,2.89-2.25c1.36-2.39,1.89-4.89-0.37-7.27c-0.92-0.97-1.49-2.3-2.12-3.52
			c-0.24-0.47-0.19-1.08-0.28-1.63c0.77,0.1,1.85-0.09,2.24,0.34c1.17,1.31,2.13,2.81,3.05,4.31c1.68,2.75,3.14,5.63,4.94,8.29
			c1.07,1.59,2.62,2.86,3.93,4.3c0.3,0.33,0.48,0.78,0.72,1.17c-0.45,0.15-1.04,0.55-1.32,0.4c-1.25-0.71-2.67-1.37-3.54-2.44
			c-1.49-1.84-2.62-3.99-3.91-5.99c-0.17-0.26-0.41-0.46-0.62-0.69c-0.14,0.29-0.32,0.58-0.42,0.88c-0.35,1.1-0.55,2.27-1.03,3.31
			c-0.39,0.83-0.96,1.73-1.7,2.21c-1.24,0.8-1.13,1.56-0.38,2.51c0.65,0.82,1.28,1.68,2.05,2.36
			C867.51,353.38,868.04,354.47,867.76,356z"/>
		<path class="s1" d="M886.27,63.69c1.62-1.62,1.62-1.61-0.16-3.05c-0.68-0.55-1.37-1.1-2.02-1.68c-1.87-1.7-2.53-1.55-4.05,0.41
			c-1.26,1.62-2.71,3.1-4.22,4.49c-0.39,0.35-1.34,0.08-2.03,0.1c0.29-0.63,0.45-1.69,0.88-1.81c2.6-0.73,3.2-3.42,5.02-4.9
			c0.63-0.51,1.26-2.16,0.97-2.5c-1.32-1.55-1.86-3.95-4.31-4.39c-0.93-0.17-1.75-1.87-1.26-2.64c0.76-1.2,1.73-0.85,2.43-0.04
			c1.38,1.6,2.62,3.32,3.91,4.99c0.27,0.34,0.53,0.69,0.79,1.03c0.19-0.22,0.41-0.43,0.56-0.67c1.46-2.28,2.91-4.56,4.36-6.86
			c0.28-0.44,0.39-1.08,0.77-1.35c0.55-0.4,1.28-0.56,1.93-0.82c-0.04,0.66,0.15,1.47-0.17,1.95c-1.31,2.03-2.81,3.93-4.16,5.93
			c-1.97,2.93-1.91,3.62,0.43,6.21c0.76,0.84,1.59,1.61,2.39,2.41c0.56-0.87,1.12-1.73,1.68-2.6c1.55-2.41,3.1-4.83,4.66-7.24
			c0.21-0.32,0.45-0.65,0.76-0.86c0.25-0.18,0.61-0.2,0.93-0.3c0,0.36,0.14,0.8-0.01,1.06c-1.55,2.65-3.14,5.27-4.74,7.89
			c-2.14,3.53-4.3,7.05-6.45,10.57c-0.77,1.26-1.5,2.55-2.28,3.81c-0.23,0.37-0.61,0.65-0.92,0.97c-0.18-0.49-0.62-1.07-0.49-1.44
			c0.45-1.22,1.07-2.39,1.72-3.53C884.15,67.12,885.19,65.46,886.27,63.69z"/>
		<path class="s1" d="M1076.75,202.2c0.45-2.36,0.93-4.54,1.33-6.74c0.07-0.38-0.19-0.81-0.29-1.22c-0.32,0.19-0.71,0.32-0.95,0.59
			c-2.86,3.28-5.73,6.55-8.52,9.88c-1.7,2.03-3.25,4.18-4.93,6.23c-0.37,0.45-1.01,0.68-1.52,1.01c-0.02-0.69-0.33-1.57-0.01-2.04
			c1.4-2.05,2.88-4.07,4.51-5.94c2.06-2.36,4.33-4.54,6.45-6.85c1.41-1.54,2.69-3.21,4.1-4.74c1.15-1.24,2.26-1.01,2.48,0.68
			c0.25,1.88,0.14,3.86-0.14,5.74c-0.6,3.96-1.35,7.9-2.19,11.82c-0.6,2.78-1.5,5.49-2.19,8.25c-0.36,1.45-0.46,2.97-0.88,4.39
			c-0.22,0.75-0.89,1.36-1.35,2.03c-0.33-0.8-1.04-1.67-0.91-2.39c0.41-2.27,1.13-4.49,1.74-6.73c0.35-1.27,0.77-2.52,1.03-3.81
			c0.06-0.28-0.38-0.84-0.72-0.98c-2.14-0.85-4.32-1.59-6.46-2.43c-0.4-0.16-0.7-0.58-1.04-0.89c0.51-0.26,1.12-0.85,1.52-0.74
			c1.96,0.56,3.89,1.25,5.78,2c1.21,0.48,1.7,0.45,1.86-1.09C1075.67,206.28,1076.3,204.34,1076.75,202.2z"/>
		<path class="s1" d="M1030.13,331.71c-1.19-1.08-2.36-2.01-3.38-3.08c-0.97-1.02-1.72-0.99-2.61,0.05
			c-1.12,1.31-2.39,2.49-3.43,3.86c-0.41,0.54-0.61,1.5-0.46,2.15c0.62,2.61,1.46,5.16,2.11,7.76c0.13,0.52-0.22,1.16-0.35,1.74
			c-0.52-0.36-1.35-0.63-1.5-1.11c-0.68-2.1-1.03-4.32-1.75-6.4c-1.79-5.19-3.73-10.32-5.59-15.49c-0.37-1.04-0.7-2.1-0.94-3.17
			c-0.27-1.23,1.09-1.99,2.6-1.21c2.11,1.08,4.22,2.26,6.08,3.71c3.54,2.75,6.95,5.68,10.32,8.64c0.5,0.44,0.46,1.48,0.68,2.24
			C1031.35,331.53,1030.78,331.67,1030.13,331.71 M1014.93,320.93c0.11,0.18,0.26,0.35,0.34,0.54c1.14,2.8,2.27,5.61,3.4,8.42
			c0.28,0.71,0.59,1,1.28,0.31c1.06-1.04,2.23-1.97,3.28-3.01c0.23-0.23,0.34-0.99,0.18-1.12c-2.35-1.92-4.73-3.8-7.16-5.62
			C1015.99,320.26,1015.38,320.53,1014.93,320.93z"/>
		<path class="s1" d="M921.17,197.11c-0.23,2.74-0.52,5.3-0.64,7.87c-0.04,0.81,0.42,1.63,0.58,2.45c0.09,0.45,0.04,0.93,0.06,1.4
			c-0.61-0.05-1.62,0.12-1.77-0.17c-0.58-1.1-1.19-2.34-1.21-3.53c-0.02-1.45,0.61-2.9,0.8-4.37c0.03-0.26-0.67-0.86-1.06-0.88
			c-1.54-0.1-3.09-0.04-4.64-0.04c-0.28,0-0.57,0.02-0.83-0.05c-2.94-0.77-3.86-0.17-4.21,2.71c-0.2,1.66-0.39,3.33-0.71,4.97
			c-0.09,0.45-0.63,0.81-0.96,1.2c-0.35-0.44-1.04-0.93-0.98-1.32c0.27-1.95,0.71-3.87,1.12-5.8c0.12-0.56,0.44-1.09,0.49-1.65
			c0.09-0.88,0.22-1.68-1.22-1.83c-1.43-0.14-2.83-0.77-4.18-1.33c-0.41-0.17-0.62-0.83-0.92-1.26c0.62-0.21,1.27-0.65,1.85-0.58
			c1.42,0.16,2.8,0.6,4.21,0.86c0.89,0.16,1.27-0.21,1.32-1.2c0.15-2.97,0.38-5.93,0.7-8.88c0.06-0.52,0.68-0.98,1.03-1.46
			c0.21,0.46,0.61,0.93,0.59,1.37c-0.17,3.08-0.36,6.16-0.67,9.22c-0.19,1.84-0.01,2.29,1.95,2.63c1.76,0.31,3.54,0.48,5.32,0.69
			c1.62,0.2,2.17-0.85,2.25-2.16c0.18-2.95,0.24-5.9,0.37-8.85c0.02-0.42,0.05-0.9,0.24-1.25c0.16-0.29,0.59-0.43,0.9-0.64
			c0.18,0.31,0.52,0.62,0.52,0.94c0.04,3.47,0.03,6.94,0.01,10.41C921.5,196.69,921.29,196.82,921.17,197.11z"/>
		<path class="s1" d="M994.97,136.05c0.72-0.2,1.39-0.22,1.96-0.47c0.25-0.11,0.52-0.78,0.4-1.02c-0.52-1.09-1.12-2.15-1.77-3.17
			c-1.79-2.77-3.61-5.52-5.44-8.27c-0.19-0.29-0.49-0.5-0.74-0.75c-0.09,0.34-0.29,0.69-0.26,1.01c0.19,2.23,0.59,4.45,0.62,6.68
			c0.05,2.72-0.15,5.45-0.31,8.18c-0.18,3.02-0.42,6.04-0.69,9.05c-0.05,0.54-0.37,1.05-0.57,1.57c-0.37-0.53-1.05-1.06-1.05-1.6
			c-0.01-1.81,0.18-3.63,0.36-5.43c0.15-1.45,0.53-2.88,0.57-4.33c0.09-3.3,0.11-6.6,0-9.9c-0.08-2.4-0.46-4.79-0.62-7.19
			c-0.03-0.4,0.32-0.94,0.66-1.21c0.21-0.17,0.87-0.08,1.08,0.14c0.93,0.93,1.88,1.86,2.62,2.94c1.77,2.59,3.41,5.26,5.12,7.89
			c0.82,1.25,1.58,2.56,2.54,3.68c0.47,0.55,1.41,0.68,2.05,1.12c0.3,0.21,0.62,0.98,0.57,1.01c-1.23,0.9-0.32,1.82,0.05,2.61
			c0.56,1.19,1.2,2.38,2.04,3.39c0.98,1.18,0.27,2.1-0.23,3.02c-0.16,0.3-0.87,0.48-1.29,0.42c-0.25-0.03-0.63-0.63-0.62-0.96
			c0.12-2.25-1.1-3.98-2.21-5.71c-1.08-1.68-2.62-0.39-3.88-0.23c-1.49,0.19-2.92,0.85-4.39,1.24c-0.39,0.1-0.85-0.04-1.27-0.07
			c0.13-0.47,0.16-1,0.41-1.39C991.67,136.79,993.42,136.73,994.97,136.05z"/>
		<path class="s1" d="M1059.77,305.13c-2.78,1.56-2.77,1.55-1.52,5.46c0.35,1.11,0.6,2.25,0.82,3.39c0.05,0.26-0.22,0.57-0.34,0.86
			c-0.24-0.15-0.61-0.24-0.7-0.45c-0.69-1.64-1.44-3.26-1.97-4.95c-1.86-5.91-2.6-12.16-5.46-17.77c-0.14-0.27-0.06-0.92,0.1-1
			c0.4-0.19,1.05-0.36,1.35-0.17c1.93,1.25,3.85,2.54,5.67,3.94c1.74,1.35,3.3,2.93,5.05,4.26c0.53,0.4,1.48,0.18,2.15,0.46
			c0.48,0.2,0.92,0.7,1.17,1.17c0.33,0.64,0.27,1.54,0.71,2.05c1.09,1.29,2.39,2.41,3.55,3.64c0.31,0.33,0.59,0.82,0.61,1.25
			c0.02,0.5-0.26,1.01-0.4,1.51c-0.47-0.2-1.03-0.28-1.38-0.61c-1.4-1.31-2.76-2.68-4.09-4.07c-0.9-0.95-1.68-0.98-2.72-0.11
			C1061.7,304.57,1060.75,304.77,1059.77,305.13 M1060.45,299.53c-1.98-1.75-3.95-3.51-5.94-5.25c-0.19-0.17-0.46-0.24-0.69-0.35
			c-0.05,0.26-0.21,0.54-0.15,0.77c0.17,0.65,0.46,1.27,0.66,1.92c0.58,1.96,1.07,3.95,1.74,5.87c0.24,0.69,0.49,2.01,1.84,0.69
			c0.65-0.63,1.8-0.76,2.73-1.1c0.49-0.18,0.99-0.33,1.49-0.49c-0.3-0.43-0.59-0.87-0.91-1.29
			C1061.04,300.08,1060.82,299.9,1060.45,299.53z"/>
		<path class="s1" d="M1046.86,88.41c-1.22-0.26-1.94-0.22-2.09,1.2c-0.16,1.46-0.61,2.9-0.98,4.34c-0.18,0.71-0.34,1.46-0.71,2.07
			c-0.2,0.32-0.87,0.57-1.25,0.49c-0.31-0.06-0.74-0.69-0.7-1.03c0.11-1.05,0.35-2.1,0.65-3.11c0.4-1.36,0.75-2.76,1.39-4
			c0.6-1.17,0.05-1.53-0.81-2c-0.98-0.53-2-1.05-2.81-1.78c-0.39-0.35-0.34-1.18-0.49-1.79c0.57,0.02,1.15,0.03,1.72,0.06
			c0.04,0,0.07,0.09,0.12,0.11c3.59,1.6,3.65,1.61,4.57-2.28c0.39-1.62,0.45-3.32,0.73-4.97c0.07-0.43,0.38-0.82,0.59-1.22
			c0.36,0.42,1.03,0.85,1.04,1.27c0.01,1.47-0.15,2.95-0.39,4.41c-0.2,1.19-0.43,2.43-0.96,3.5c-0.7,1.42-0.16,2.04,1.11,2.36
			c1.54,0.39,3.1,0.79,4.67,0.97c0.48,0.05,1.35-0.51,1.52-0.99c1.06-2.91,1.97-5.87,2.93-8.81c0.1-0.3,0.16-0.67,0.38-0.85
			c0.37-0.31,0.85-0.48,1.28-0.71c0.01,0.41,0.13,0.85,0.02,1.23c-1.14,4.05-2.32,8.09-3.46,12.14c-0.89,3.14-1.72,6.3-2.67,9.43
			c-0.17,0.57-0.76,1.02-1.16,1.53c-0.28-0.73-0.94-1.55-0.79-2.18c0.64-2.65,1.36-5.31,2.39-7.83c0.58-1.41-0.05-1.17-0.9-1.22
			C1050.22,88.66,1048.62,88.52,1046.86,88.41z"/>
		<path class="s1" d="M999.05,261.57c-0.54-2.22-1.03-4.34-1.43-6.48c-0.25-1.36-0.97-1.95-2.28-1.51
			c-1.84,0.63-3.64,0.85-5.57,0.33c-0.43-0.11-1.32,0.59-1.63,1.13c-0.99,1.72-1.75,3.57-2.71,5.31c-0.22,0.41-0.9,0.57-1.36,0.84
			c-0.02-0.58-0.24-1.25-0.03-1.72c1.17-2.63,2.68-5.13,3.62-7.83c1.16-3.32,1.89-6.8,2.81-10.21c0.55-2.03,1.07-4.08,1.77-6.06
			c0.08-0.24,1.66-0.35,1.81-0.09c0.96,1.61,1.94,3.28,2.48,5.06c1.06,3.48,2.27,7,2.61,10.59c0.3,3.11,1.14,5.94,2.1,8.84
			c0.17,0.51-0.45,1.36-0.88,1.92C1000.23,261.88,999.56,261.68,999.05,261.57 M992.51,239.06c-0.6,2.97-1.17,5.95-1.8,8.92
			c-0.24,1.13-0.65,2.22-0.88,3.35c-0.04,0.22,0.39,0.78,0.6,0.77c1.37-0.04,2.73-0.19,4.1-0.3c2.05-0.17,2.55-0.89,2.07-2.9
			c-0.05-0.21,0.04-0.46-0.01-0.67c-0.9-3.41-1.8-6.82-2.72-10.23c-0.05-0.18-0.31-0.31-0.47-0.47c-0.18,0.19-0.4,0.36-0.52,0.59
			C992.75,238.35,992.74,238.63,992.51,239.06z"/>
		<path class="s1" d="M1127.03,224.96c-0.11,0.75-0.34,1.32-0.32,1.9c0.1,2.91-0.38,5.71-1.33,8.45c-0.16,0.45-0.25,1.18-0.01,1.48
			c1.2,1.45-0.18,2.04-0.72,3.07c-0.82,1.55-1.26,3.34-1.65,5.07c-0.22,0.99,0.14,2.11-0.1,3.09c-0.17,0.72-0.84,1.36-1.39,1.94
			c-0.14,0.15-0.91,0.02-0.96-0.12c-0.2-0.57-0.41-1.24-0.27-1.79c0.7-2.87,1.53-5.7,2.22-8.57c0.08-0.35-0.37-1.01-0.75-1.24
			c-1.71-1.03-3.44-2.05-5.27-2.85c-0.56-0.24-1.59,0.07-2.14,0.48c-1.37,1.01-2.56,2.28-3.91,3.33c-0.33,0.26-1.03,0.04-1.56,0.04
			c0.2-0.55,0.25-1.25,0.64-1.61c1.93-1.82,4.1-3.41,5.9-5.34c3.04-3.26,5.86-6.73,8.81-10.07c0.4-0.45,1.07-0.66,1.62-0.99
			c0.29,0.61,0.63,1.21,0.85,1.85C1126.86,223.62,1126.91,224.22,1127.03,224.96 M1118.2,231.59c0.04,0.78-1.93,1.2-0.46,2.19
			c1.17,0.79,2.48,1.36,3.7,2.08c1.3,0.76,1.97,0.24,2.19-1.05c0.49-2.85,0.92-5.71,1.36-8.56c0.08-0.53,0.1-1.07,0.14-1.61
			c-0.54,0.33-1.19,0.55-1.6,1C1121.76,227.52,1120.08,229.48,1118.2,231.59z"/>
		<path class="s1" d="M937.48,254.52c-1.82,1.18-3.43,2.4-5.64,2.44c-0.51,0.01-1.13,0.78-1.46,1.34
			c-0.36,0.62-0.38,1.42-0.68,2.09c-0.16,0.36-0.6,0.6-0.91,0.9c-0.19-0.47-0.64-1.03-0.52-1.41c1.58-5.28,3.32-10.52,4.85-15.82
			c0.64-2.2,0.85-4.51,1.33-6.76c0.13-0.6,0.49-1.15,0.75-1.72c0.51,0.23,1.11,0.35,1.5,0.7c2.3,2.06,2.87,4.99,3.86,7.73
			c1.38,3.85,1.25,7.9,1.7,11.87c0.09,0.83,0.6,1.66,0.53,2.47c-0.08,0.95-0.53,1.87-0.92,2.76c-0.04,0.09-1.01,0.01-1.18-0.24
			c-0.31-0.45-0.44-1.09-0.46-1.66c-0.05-1.89,0-3.78-0.08-5.66c0-0.09-0.93-0.34-1.27-0.19
			C938.39,253.58,938.05,254.12,937.48,254.52 M933.4,254.35c1.59-0.8,3.15-1.66,4.78-2.37c1.25-0.55,1.47-1.53,1.32-2.65
			c-0.42-3.09-0.66-6.25-2.36-9.01c-0.36-0.59-0.73-1.18-1.1-1.77c-0.2,0.63-0.52,1.25-0.58,1.9c-0.43,4.47-2.16,8.56-3.6,12.74
			c-0.19,0.54-0.18,1.15-0.27,1.73C932.14,254.79,932.69,254.65,933.4,254.35z"/>
		<path class="s1" d="M974.42,211.63c-0.16,0.16-0.26,0.24-0.32,0.33c-0.35,0.48-0.69,0.97-1.03,1.46
			c-0.41-0.61-1.03-1.16-1.18-1.83c-0.37-1.68-0.6-3.4-0.73-5.12c-0.03-0.49,0.5-1.01,0.77-1.52c0.18,0.47,0.36,0.95,0.54,1.42
			c0.24,0.65,0.48,1.3,0.72,1.95c0.25-0.55,0.61-1.08,0.73-1.65c0.17-0.85,0.15-1.74,0.23-2.61c0.05-0.51-0.07-1.23,0.22-1.48
			c1.78-1.54,1.84-3.77,2.52-5.76c0.52-1.53,1.04-3.08,1.72-4.54c0.52-1.14,1.41-1.18,2.38-0.4c1.83,1.46,2.12,3.64,2.66,5.68
			c0.34,1.29,0.41,2.65,0.75,3.94c0.08,0.3,0.81,0.64,1.21,0.61c0.83-0.06,1.64-0.49,2.47-0.52c0.44-0.01,0.9,0.5,1.35,0.78
			c-0.34,0.24-0.65,0.53-1.02,0.71c-0.47,0.22-1.01,0.3-1.48,0.51c-2.25,0.99-2.39,1.59-1.08,3.73c0.28,0.46,0.55,1.14,0.41,1.59
			c-0.17,0.56-0.76,0.99-1.17,1.47c-0.58-0.73-1.29-1.4-1.7-2.22c-0.32-0.64-0.29-1.46-0.39-2.21c-0.2-1.52-1.08-2.11-2.55-1.68
			c-0.81,0.24-1.6,0.53-2.42,0.7c-1.54,0.32-2.38,1.12-2.55,2.78C975.35,209.02,974.85,210.27,974.42,211.63 M977.73,202.2
			c1.12,0,2.25-0.05,3.37,0.01c1.15,0.07,1.39-0.6,1.19-1.46c-0.5-2.14-1.1-4.26-1.69-6.39c-0.16-0.57-0.51-0.87-0.95-0.2
			c-0.25,0.39-0.48,0.82-0.59,1.27C978.49,197.69,977.95,199.95,977.73,202.2z"/>
		<path class="s1" d="M913.28,88.83c-1-1.39-1.54-0.93-2.14,0.25c-1.12,2.2-2.35,4.35-3.55,6.5c-0.16,0.28-0.38,0.56-0.63,0.75
			c-0.65,0.49-1.32,1.48-2.18,0.57c-0.85-0.9,0.4-1.26,0.75-1.85c1.56-2.58,3.19-5.12,4.64-7.75c0.58-1.06-0.59-1.47-1.26-1.94
			c-0.6-0.42-1.35-0.66-1.88-1.15c-0.38-0.35-0.5-0.97-0.74-1.47c0.58-0.06,1.21-0.3,1.73-0.15c0.89,0.26,1.68,0.89,2.58,1.11
			c0.56,0.14,1.56,0.01,1.78-0.36c0.7-1.15,1.06-2.5,1.68-3.7c0.79-1.54,1.7-3.04,2.6-4.52c0.09-0.15,0.52-0.09,0.79-0.12
			c0.02,0.31,0.14,0.68,0.03,0.93c-1.21,2.72-2.42,5.45-3.72,8.13c-0.44,0.91-0.48,1.52,0.35,2.25c1.27,1.12,2.42,2.37,3.62,3.58
			c0.85,0.86,1.32,1.03,1.91-0.4c1.02-2.46,2.36-4.79,3.57-7.17c0.12-0.24,0.26-0.5,0.46-0.65c0.36-0.25,0.78-0.43,1.17-0.63
			c-0.05,0.43-0.01,0.91-0.17,1.29c-2.54,5.96-5.1,11.92-7.66,17.87c-0.27,0.62-0.46,1.32-0.87,1.83c-0.27,0.33-0.9,0.36-1.36,0.53
			c-0.07-0.54-0.34-1.16-0.17-1.6c1-2.53,2.02-5.05,3.2-7.5c0.48-1.01,0.33-1.51-0.57-2.04C915.93,90.63,914.65,89.76,913.28,88.83z
			"/>
		<path class="s1" d="M966.69,200.51c0.4,2.61,0.83,5.04,1.17,7.49c0.07,0.52-0.16,1.08-0.26,1.62c-0.54-0.15-1.26-0.14-1.59-0.49
			c-1.4-1.51-1.15-3.51-1.36-5.36c-0.02-0.2,0.06-0.4,0.09-0.61c-0.26,0.02-0.55-0.03-0.76,0.08c-2.12,1.14-4.31,1.88-6.78,1.72
			c-1.13-0.07-1.49,0.97-1.35,2.27c0.16,1.54,0.03,3.12-0.08,4.67c-0.02,0.3-0.51,0.56-0.78,0.84c-0.18-0.31-0.49-0.62-0.52-0.95
			c-0.16-1.87-0.28-3.75-0.35-5.63c-0.06-1.72-0.75-2.57-2.38-2.95c-0.55-0.13-1.11-0.38-1.56-0.72c-0.35-0.27-0.54-0.76-0.8-1.16
			c0.56-0.16,1.15-0.53,1.66-0.44c2.92,0.48,2.92,0.52,2.38-2.46c-0.23-1.26-0.53-2.52-0.64-3.8c-0.04-0.51,0.34-1.06,0.53-1.59
			c0.38,0.41,0.96,0.77,1.09,1.25c0.44,1.64,0.86,3.32,1.03,5c0.31,3.16,2.09,4.4,5.18,3.38c0.1-0.03,0.19-0.09,0.29-0.11
			c3.7-1.01,3.84-1.57,3.08-5.9c-0.34-1.93-0.88-3.82-1.28-5.74c-0.05-0.24,0.13-0.72,0.31-0.78c0.3-0.1,0.86-0.08,1,0.12
			c0.72,1.04,1.67,2.08,1.92,3.26C966.42,195.73,966.47,198.05,966.69,200.51z"/>
		<path class="s1" d="M945.21,201.1c-0.84,0.31-1.65,0.43-2.34,0.79c-1.18,0.6-2.43,1.18-1.69,3.01c0.42,1.04-1.46,4.92-2.47,5.38
			c-0.31,0.14-0.75,0.02-1.13,0.01c0.08-0.5-0.02-1.17,0.26-1.49c1.37-1.51,0.9-3.31,1-5.04c0.06-0.98-0.37-1.28-1.29-1.24
			c-1.24,0.05-2.49,0.08-3.73-0.02c-0.5-0.04-0.96-0.45-1.44-0.69c0.41-0.44,0.75-1.13,1.24-1.26c1.1-0.28,2.27-0.4,3.41-0.36
			c1.33,0.05,1.94-0.24,1.84-1.75c-0.14-2.16-0.02-4.34-0.05-6.51c-0.01-0.4-0.26-0.79-0.39-1.19c-0.32,0.26-0.73,0.45-0.93,0.78
			c-1.5,2.37-2.88,4.82-4.45,7.14c-1.55,2.27-3.3,4.4-4.92,6.63c-0.59,0.81-1,1.75-1.59,2.55c-0.25,0.35-0.76,0.5-1.16,0.75
			c-0.1-0.54-0.45-1.19-0.26-1.6c0.45-1.01,1.07-1.97,1.77-2.83c3.98-4.91,7.89-9.87,10.64-15.63c0.26-0.54,0.94-0.87,1.43-1.29
			c0.31,0.54,0.67,1.05,0.91,1.62c1.31,3.03,1.01,6.24,1.03,9.42c0.01,1.9,0.49,2.26,2.3,1.79c0.62-0.16,1.29-0.24,1.93-0.24
			c0.27,0,0.55,0.29,0.82,0.44C945.72,200.54,945.51,200.78,945.21,201.1z"/>
		<path class="s1" d="M1091.02,94.18c0.08,1.45,0.07,2.9-0.11,4.33c-0.23,1.86-0.59,3.71-0.92,5.56c-0.21,1.16,0.36,1.8,1.4,1.98
			c1.71,0.29,3.43,0.6,5.15,0.62c0.53,0.01,1.38-0.79,1.55-1.38c0.6-2.03,0.96-4.14,1.42-6.21c0.07-0.3,0.14-0.68,0.35-0.86
			c0.33-0.28,0.78-0.43,1.18-0.64c0.13,0.43,0.46,0.9,0.37,1.27c-1.17,5-2.44,9.98-3.57,14.98c-0.24,1.08,0,2.26-0.06,3.39
			c-0.02,0.34-0.28,0.67-0.43,1.01c-0.31-0.16-0.64-0.29-0.94-0.48c-1.53-0.99-0.8-2.48-0.6-3.68c0.29-1.69,1.02-3.31,1.44-4.99
			c0.06-0.24-0.57-0.92-0.91-0.94c-1.71-0.1-3.44,0.03-5.15-0.07c-1.31-0.07-2.06,0.27-2.25,1.68c-0.26,1.85-0.57,3.71-1.05,5.51
			c-0.17,0.63-0.9,1.11-1.38,1.66c-0.2-0.63-0.67-1.31-0.56-1.89c0.41-2.24,1-4.44,1.54-6.66c0.23-0.93,0.23-1.6-1.04-1.68
			c-0.71-0.05-1.44-0.34-2.07-0.7c-0.29-0.16-0.48-0.74-0.46-1.11c0.01-0.19,0.57-0.46,0.91-0.51c1.08-0.16,2.51,0.14,3.17-0.44
			c0.62-0.56,0.44-2.01,0.63-3.07c0.33-1.79,0.61-3.59,1.06-5.34C1089.83,95.02,1090.45,94.63,1091.02,94.18z"/>
		<path class="s1" d="M922.45,309.8c-0.78,0.76-1.82,1.32-0.11,2.17c1.14,0.57,2.19,1.45,3.05,2.39c0.49,0.54,0.93,1.72,0.67,2.23
			c-0.57,1.07-1.43,0.18-1.99-0.28c-1.25-1.01-2.36-2.19-3.62-3.18c-0.33-0.26-1.21-0.36-1.45-0.13c-1.36,1.31-2.48,2.88-3.91,4.1
			c-1.34,1.15-1.39,2.37-1.02,3.88c0.28,1.14,0.53,2.3,0.61,3.46c0.03,0.44-0.48,0.91-0.74,1.36c-0.3-0.4-0.78-0.76-0.88-1.21
			c-1.29-5.63-2.6-11.26-3.68-16.94c-0.18-0.96,0.49-2.36,1.22-3.13c0.42-0.44,1.93-0.35,2.63,0.05c2.02,1.19,3.94,2.59,5.79,4.04
			c0.96,0.75,1.64,0.86,2.61,0.06c0.55-0.46,1.38-0.58,2.09-0.85C923.31,308.45,922.92,309.08,922.45,309.8 M912.17,306.49
			c-0.4,0.56-1.2,1.19-1.12,1.67c0.42,2.44,1.04,4.85,1.67,7.26c0.05,0.19,0.89,0.43,1.04,0.3c1.24-1.13,2.35-2.42,3.62-3.52
			c1.04-0.89,0.93-1.8,0.03-2.44C915.82,308.62,914.71,306.72,912.17,306.49z"/>
		<path class="s1" d="M865.55,178.51c0.1-0.4,0.27-0.86,0.12-1.02c-1.24-1.32-2.54-2.57-3.81-3.86c-0.3-0.31-0.62-0.64-0.79-1.03
			c-0.14-0.31-0.06-0.72-0.07-1.09c0.43,0.05,1-0.05,1.25,0.19c1.41,1.3,2.84,2.61,4.08,4.07c1.41,1.66,3.65,1.72,5.06-0.04
			c0.07-0.08,0.13-0.17,0.19-0.26c1.82-2.68,1.8-2.67-0.12-5.5c-1.35-1.98-2.67-3.97-3.94-6.01c-0.24-0.39-0.15-0.98-0.21-1.48
			c0.51,0.26,1.17,0.41,1.49,0.81c2.96,3.68,5.8,7.45,8.81,11.09c1.08,1.31,2.51,2.32,3.76,3.49c0.18,0.17,0.43,0.6,0.37,0.65
			c-0.32,0.35-0.81,0.93-1.09,0.86c-0.9-0.23-1.9-0.53-2.55-1.14c-1.06-0.99-1.85-2.27-2.81-3.39c-0.45-0.53-0.92-1.38-1.46,0.07
			c-0.62,1.66-1.57,3.13-3.36,3.89c-0.24,0.1-0.39,1.22-0.15,1.5c1.09,1.28,2.34,2.42,3.53,3.62c0.27,0.27,0.73,0.58,0.73,0.86
			c-0.01,0.68-0.24,1.35-0.38,2.03c-0.55-0.26-1.24-0.39-1.61-0.81c-1.2-1.34-2.34-2.73-3.38-4.19c-1.29-1.79-2.23-2.12-4.3-1.35
			c-0.59,0.22-1.23,0.34-1.86,0.42c-0.05,0.01-0.35-0.88-0.24-0.95c0.63-0.46,1.35-0.81,2.04-1.18
			C865.04,178.68,865.26,178.65,865.55,178.51z"/>
		<path class="s1" d="M877.69,323.13c2.99,2.67,5.02,5.9,6.79,9.31c0.96,1.84,1.77,2.01,3.4,0.75c0.35-0.27,0.92-0.25,1.38-0.36
			c-0.15,0.47-0.16,1.06-0.46,1.4c-1.95,2.29-1.96,2.26,0.14,4.4c0.85,0.87,1.65,1.79,2.38,2.75c0.19,0.25,0.23,0.89,0.05,1.1
			c-0.19,0.22-0.9,0.31-1.09,0.13c-1.3-1.23-2.69-2.42-3.7-3.87c-0.87-1.24-1.56-1.52-2.82-0.7c-0.69,0.45-1.58,0.61-2.26,1.07
			c-0.47,0.32-1.06,0.96-1.04,1.43c0.09,2.06,0.4,4.12,0.61,6.18c0.05,0.45,0.09,0.92-0.01,1.35c-0.08,0.32-0.39,0.58-0.6,0.87
			c-0.24-0.2-0.61-0.34-0.71-0.59c-0.29-0.73-0.59-1.49-0.68-2.26c-0.6-4.74-1.14-9.49-1.72-14.23c-0.33-2.69-0.72-5.37-0.99-8.07
			C876.29,323.1,876.55,322.32,877.69,323.13 M878.71,329.76c0.34,2.29,0.65,4.58,1.05,6.86c0.05,0.29,0.68,0.78,0.82,0.72
			c1.09-0.52,2.14-1.12,3.16-1.78c0.19-0.12,0.3-0.69,0.18-0.9c-1.56-2.75-3.16-5.48-4.78-8.19c-0.14-0.23-0.47-0.34-0.71-0.5
			c-0.13,0.28-0.41,0.6-0.37,0.85C878.22,327.69,878.49,328.55,878.71,329.76z"/>
		<path class="s1" d="M1107.24,115.5c-1.82,1.36-3.53,2.67-5.29,3.91c-0.55,0.39-1.18,0.75-1.83,0.88
			c-0.38,0.08-0.86-0.3-1.29-0.48c0.22-0.39,0.34-0.98,0.67-1.14c4.41-2.19,8.03-5.4,11.38-8.92c1.44-1.5,2.49-3.37,3.76-5.03
			c0.32-0.41,0.84-0.98,1.23-0.95c0.45,0.03,1.05,0.55,1.26,1.01c0.37,0.8,0.68,1.72,0.68,2.58c0,2.16-0.26,4.32-0.25,6.47
			c0,0.53,0.61,1.07,0.98,1.58c0.28,0.39,0.63,0.72,0.94,1.08c-0.4,0.26-0.77,0.68-1.21,0.76c-1.46,0.26-1.66,1.29-1.81,2.49
			c-0.1,0.83-0.34,1.67-0.68,2.42c-0.13,0.29-0.77,0.57-1.08,0.48c-0.27-0.07-0.57-0.66-0.56-1.02c0.02-0.97,0.01-2.01,0.35-2.9
			c0.52-1.35-0.36-1.69-1.19-2.13c-0.88-0.46-1.98-0.67-2.65-1.34C1109.38,114,1108.39,114.11,1107.24,115.5 M1111.23,112.53
			c0.86,0.52,1.68,1.12,2.58,1.53c1,0.45,1.61,0.19,1.69-1.11c0.11-1.72,0.45-3.42,0.62-5.14c0.03-0.32-0.25-0.68-0.44-0.98
			c-0.04-0.06-0.45,0-0.54,0.12C1113.77,108.74,1112.42,110.55,1111.23,112.53z"/>
		<path class="s1" d="M886.78,161.87c0.71,0.48,1.29,1.02,1.98,1.24c1.1,0.37,1.27,1.12,1.16,2.07c-0.08,0.72-0.15,1.43-1.18,0.7
			c-1.17-0.82-2.41-1.54-3.63-2.29c-0.99-0.61-2.18-1.88-2.94-1.66c-1.36,0.39-2.48,1.65-3.63,2.64c-0.21,0.18-0.19,0.87-0.04,1.22
			c1.32,3.07,2.72,6.11,4.03,9.19c0.21,0.5,0.1,1.13,0.13,1.71c-0.47-0.21-1.14-0.29-1.36-0.65c-0.81-1.34-1.53-2.75-2.18-4.18
			c-0.97-2.14-1.98-4.28-2.75-6.49c-1.02-2.92-1.84-5.91-2.74-8.88c-0.03-0.1-0.01-0.23,0-0.34c0.02-0.69,0.04-1.38,0.07-2.07
			c0.92,0.17,2.01,0.08,2.73,0.55C879.89,156.93,883.28,159.38,886.78,161.87 M877.18,162.46c0.77,0.23,3.55-1.28,3.54-1.97
			c-0.01-0.27-0.29-0.59-0.53-0.78c-1.19-0.92-2.39-1.81-3.61-2.68c-0.36-0.25-0.79-0.4-1.19-0.59c0.03,0.53-0.05,1.09,0.11,1.58
			C875.95,159.46,876.5,160.87,877.18,162.46z"/>
		<path class="s1" d="M852.64,184.8c2.08,2.2,4.03,4.36,6.1,6.41c1.2,1.19,2.62,2.15,3.88,3.28c0.47,0.42,0.94,0.99,1.08,1.57
			c0.12,0.5-0.24,1.11-0.38,1.67c-0.51-0.23-1.11-0.36-1.5-0.72c-1.33-1.23-2.55-2.57-3.89-3.79c-0.24-0.22-0.99-0.22-1.25-0.01
			c-1.24,1.02-2.38,2.15-3.57,3.23c-0.64,0.59-1.29,0.95-0.99,2.21c0.43,1.86,0.36,3.85,0.39,5.78c0.01,0.5-0.39,1.02-0.61,1.52
			c-0.24-0.48-0.62-0.94-0.69-1.45c-0.29-2.1-0.21-4.3-0.78-6.31c-0.62-2.22,0.15-4.43-0.54-6.66c-0.91-2.93-1.36-6.01-1.93-9.04
			c-0.07-0.35,0.27-0.84,0.55-1.14c0.1-0.1,0.68,0.07,0.89,0.28C850.49,182.61,851.52,183.67,852.64,184.8 M853.41,193.71
			c0.59-0.48,1.18-0.96,1.78-1.43c0.86-0.67,1.06-1.26,0.13-2.14c-1.28-1.21-2.38-2.6-3.6-3.87c-0.39-0.41-0.93-0.68-1.4-1.01
			c0.03,0.57,0.01,1.15,0.1,1.71c0.35,2.1,0.74,4.2,1.13,6.3c0.09,0.46,0.26,0.91,0.4,1.36
			C852.37,194.38,852.8,194.13,853.41,193.71z"/>
		<path class="s1" d="M1076.41,91.13c-0.52,2.5-1.04,4.83-1.55,7.16c-0.08,0.37-0.28,0.94-0.12,1.1c1.41,1.34,0.15,2.15-0.41,3.25
			c-0.47,0.91-0.46,2.07-0.63,3.13c-0.05,0.33,0.1,0.73-0.03,1.01c-0.34,0.7-0.77,1.38-1.25,1.99c-0.07,0.09-0.88-0.16-0.94-0.37
			c-0.19-0.66-0.31-1.39-0.22-2.06c0.14-1.04,0.54-2.05,0.71-3.09c0.1-0.58,0.31-1.3-0.87-1.29c-0.98,0.01-1.99-0.33-2.93-0.67
			c-0.39-0.14-0.63-0.7-0.94-1.06c0.42-0.31,0.84-0.88,1.26-0.88c0.83-0.01,1.67,0.27,2.49,0.48c0.91,0.24,1.5,0.33,1.72-0.95
			c0.38-2.18,1.06-4.31,1.55-6.47c0.11-0.5-0.03-1.06-0.06-1.59c-0.39,0.27-0.84,0.49-1.17,0.82c-2.94,3.02-5.85,6.06-8.78,9.09
			c-0.34,0.35-0.72,0.68-1.14,0.93c-0.33,0.2-0.74,0.27-1.11,0.4c-0.02-0.46-0.21-1.01-0.02-1.36c0.28-0.52,0.84-0.88,1.26-1.32
			c3.52-3.74,7.03-7.5,10.58-11.23c0.43-0.45,1.05-0.73,1.58-1.08c0.33,0.57,0.82,1.1,0.96,1.71
			C1076.54,89.45,1076.41,90.22,1076.41,91.13z"/>
		<path class="s1" d="M927.03,98c2.71-1.99,5.55-3.63,7.46-6.4c0.34-0.49,0.98-0.8,1.54-1.06c0.09-0.04,0.74,0.64,0.72,0.97
			c-0.04,0.6-0.39,1.18-0.59,1.77c-1.04,3.07-2.59,6.1-2.9,9.24c-0.18,1.81-1.29,2.62-1.78,3.96c-0.53,1.42-0.86,2.92-1.36,4.35
			c-0.14,0.39-0.58,0.67-0.89,1c-0.2-0.47-0.64-1-0.54-1.4c0.38-1.57,0.8-3.17,1.47-4.64c0.47-1.03,0.36-1.45-0.68-1.8
			c-1.44-0.47-2.82-1.14-4.28-1.52c-0.83-0.22-1.79-0.18-2.64,0.01c-1.11,0.25-2.14,0.85-3.25,1.11c-0.39,0.09-0.92-0.4-1.39-0.63
			c0.27-0.33,0.47-0.81,0.82-0.97c1.79-0.84,3.64-1.58,5.44-2.41C925.14,99.16,926.03,98.6,927.03,98 M929.16,102
			c0.98,0.5,2.02,0.61,2.52-0.52c0.8-1.81,1.41-3.7,2.04-5.57c0.08-0.23-0.2-0.57-0.31-0.87c-0.24,0.12-0.5,0.22-0.71,0.38
			c-1.42,1.06-2.86,2.11-4.23,3.23c-0.78,0.63-1.46,1.39-2.19,2.1c0.82,0.31,1.63,0.61,2.45,0.92
			C928.82,101.7,928.9,101.77,929.16,102z"/>
		<path class="s1" d="M957.18,252.14c-1.05,0.2-1.93,0.56-2.81,0.55c-0.65-0.01-1.3-0.49-1.95-0.76c0.46-0.38,0.88-1,1.39-1.11
			c2.1-0.44,4.24-0.69,6.35-1.09c0.29-0.06,0.74-0.59,0.71-0.85c-0.3-2.29-0.7-4.57-1.06-6.85c-0.2-1.22-0.48-2.43-0.55-3.66
			c-0.02-0.37,0.51-0.78,0.79-1.18c0.4,0.44,1.06,0.83,1.15,1.33c0.65,3.37,1.14,6.77,1.79,10.14c0.08,0.42,0.85,1.08,1.2,1.03
			c1.88-0.29,3.74-0.76,5.6-1.2c0.3-0.07,0.56-0.43,0.83-0.41c0.57,0.04,1.14,0.23,1.71,0.36c-0.35,0.32-0.65,0.75-1.05,0.96
			c-1.39,0.72-2.77,1.51-4.25,2.03c-3.33,1.17-3.55,1.45-2.57,4.77c0.36,1.22,0.89,2.46-0.18,3.55c-0.3,0.31-0.89,0.56-1.27,0.48
			c-0.31-0.06-0.66-0.65-0.71-1.04c-0.19-1.36-0.27-2.73-0.37-4.1C961.74,252.39,959.89,251.19,957.18,252.14z"/>
		<path class="s1" d="M897.74,79.58c0.77-1.13,1.53-2.1,2.32-3.05c0.19-0.22,0.46-0.37,0.7-0.56c-0.28-0.27-0.55-0.74-0.86-0.77
			c-2.05-0.19-3.66-1.24-5.38-2.24c-0.83-0.48-2.3,0.2-3.48,0.23c-1.73,0.04-3.46,0-5.18-0.1c-0.25-0.02-0.72-0.74-0.64-0.9
			c0.23-0.43,0.78-1.1,1.07-1.04c5.85,1.19,10.97-0.87,15.98-3.46c0.89-0.46,1.73-1.02,2.6-1.51c1.2-0.67,2.2-0.13,2,1.22
			c-0.18,1.23-0.52,2.52-1.11,3.6c-1.44,2.64-3.1,5.17-4.62,7.77C900.14,80.47,899.3,80.75,897.74,79.58 M900.62,73.46
			c0.5-0.16,1.17-0.16,1.46-0.5c0.79-0.92,1.45-1.97,2.09-3c0.2-0.32,0.19-0.77,0.27-1.16c-0.39,0.08-0.81,0.11-1.17,0.26
			c-1.82,0.77-3.63,1.56-5.42,2.38c-0.3,0.14-0.53,0.45-0.8,0.68c0.27,0.22,0.51,0.54,0.82,0.65
			C898.66,73.05,899.48,73.23,900.62,73.46z"/>
		<path class="s1" d="M826.83,201.44c1.69,2.25,3.24,4.46,4.91,6.57c0.95,1.21,3.31,1.04,5.2-0.2c0.58-0.38,1.15-0.78,1.77-1.06
			c0.27-0.12,0.68,0.07,1.03,0.11c-0.11,0.28-0.14,0.64-0.33,0.83c-1.15,1.13-2.27,2.31-3.53,3.31c-0.78,0.62-0.85,1-0.18,1.69
			c1.35,1.4,2.65,2.86,3.97,4.29c0.11,0.12,0.31,0.22,0.35,0.36c0.22,0.8,0.79,2.08,0.51,2.32c-0.74,0.63-1.62,0.11-2.25-0.67
			c-1.51-1.87-3.1-3.68-4.54-5.6c-1.08-1.45-2.29-1.61-3.87-0.95c-0.86,0.36-2.17,1.39-2.67,0.08c-0.52-1.38,1.2-1.44,2.09-1.83
			c1.31-0.57,1.47-1.04,0.61-2.14c-2.53-3.19-5.06-6.39-7.55-9.61c-0.26-0.34-0.24-0.9-0.35-1.36c0.38,0.06,0.89-0.01,1.13,0.21
			C824.37,198.95,825.54,200.17,826.83,201.44z"/>
		<path class="s1" d="M847.55,208.57c1.16,1.39,2.31,2.65,3.28,4.03c0.27,0.38,0,1.13-0.02,1.71c-0.55-0.24-1.28-0.33-1.61-0.74
			c-2.21-2.74-4.4-5.5-6.48-8.33c-3.8-5.17-6.9-10.85-11.5-15.43c-0.35-0.35-0.34-1.07-0.5-1.61c0.59,0.18,1.39,0.18,1.72,0.58
			c2.12,2.54,4.17,5.15,6.18,7.77c2.89,3.77,5.74,7.57,8.59,11.36C847.34,208.08,847.38,208.3,847.55,208.57z"/>
		<path class="s1" d="M901.05,323.39c0.37,0.19,0.95,0.63,0.9,0.73c-0.61,1.17-1.21,2.36-2.02,3.39c-0.65,0.83-0.72,1.44,0.06,2.12
			c0.83,0.72,1.71,1.39,2.47,2.19c0.23,0.24,0.09,0.82,0.12,1.25c-0.37-0.03-0.81,0.06-1.1-0.1c-1.1-0.63-2.31-1.19-3.2-2.06
			c-0.96-0.93-1.67-0.59-2.61-0.15c-0.51,0.24-1.15,0.22-1.72,0.31c0.2-0.51,0.49-1.01,0.59-1.54c0.12-0.6,0.35-1.48,0.05-1.81
			c-1.94-2.22-4.02-4.33-6.05-6.47c-0.32-0.34-0.63-0.7-0.94-1.06c0.61-0.14,1.44-0.61,1.8-0.37c1.39,0.94,2.68,2.05,3.9,3.21
			c1.09,1.03,2,2.23,3.06,3.29c0.72,0.73,1.52,0.63,2.2-0.12C899.38,325.31,900.16,324.39,901.05,323.39z"/>
		<path class="s1" d="M971.87,239.83c-0.2-1.11-0.38-2.14-0.39-3.17c-0.01-0.49,0.3-0.99,0.47-1.49c0.4,0.45,1.07,0.84,1.16,1.35
			c0.65,3.54,1.21,7.09,1.73,10.65c0.6,4.11,1.19,8.23,1.66,12.36c0.07,0.65-0.47,1.36-0.72,2.05c-0.4-0.46-1.01-0.86-1.16-1.39
			c-0.37-1.33-0.63-2.71-0.77-4.09c-0.39-3.92-0.66-7.86-1.06-11.78C972.63,242.83,972.24,241.38,971.87,239.83z"/>
		<path class="s1" d="M899.18,317.61c-0.88-1-1.72-1.88-2.46-2.84c-0.25-0.33-0.26-0.85-0.38-1.28c0.5,0.02,1.21-0.16,1.46,0.1
			c1.95,1.98,3.89,3.99,5.69,6.12c1.95,2.31,3.64,4.85,6.28,6.51c0.37,0.23,0.52,0.84,0.76,1.27c-0.52,0.02-1.1,0.21-1.55,0.04
			c-2.18-0.84-3.82-2.33-5.19-4.23C902.4,321.35,900.78,319.56,899.18,317.61z"/>
		<path class="s1" d="M997.52,141.82c-0.08-0.42-0.08-0.76-0.08-1.1c0.54,0.31,1.08,0.6,1.6,0.94c0.08,0.05,0.04,0.3,0.06,0.45
			C998.6,142.05,998.1,141.98,997.52,141.82z"/>
	</g>
</g>
</svg>
