<?xml version="1.0" encoding="utf-8"?>
<!-- Generator: Adobe Illustrator 23.0.4, SVG Export Plug-In . SVG Version: 6.00 Build 0)  -->
<svg version="1.1" xmlns="http://www.w3.org/2000/svg" xmlns:xlink="http://www.w3.org/1999/xlink" x="0px" y="0px"
	 viewBox="0 0 926 986" style="enable-background:new 0 0 926 986;" xml:space="preserve">
<style type="text/css">
	.st0{fill:#606060;}
	.st1{fill:#FFFFFF;}
</style>
<g id="sst">
	<path class="st0" d="M360.73,826.1C362,822,364,810,363,806s-27-35-33-39s-38.5-2.5-41.5,0.5s5-32,2-38
		c-2.85-5.71,1.52-7.79,2.82-9.7c12.93-2.1,23.04-8.07,31.39-22.35C339,673,357,647,356,640s-166,18-166,18s41,60,71,62
		c3.35,0.22,6.56,0.42,9.66,0.56C268.45,720.82,267,721,267,721s-3,7-2,11s-15,48-11,56s-10,56-10,56l-40,78l48,25l46.34-79.41
		c0,0,18.66-18.59,19.66-37.59s16.68,15.2,16.68,15.2S349,870,357,869s3-17,3-17s11,6,12,1S359.47,830.19,360.73,826.1z"/>
	<g id="Vorm_24_1_">
		<path d="M383.24,843.44c-0.85-2.54-1.35-5.14-2.47-7.44c-1.46-2.98-3.39-5.73-5.17-8.54c-0.63-1-1.35-1.98-2.19-2.8
			c-2.12-2.03-4.48-3.82-6.47-5.96c-2.62-2.81-5.05-5.81-7.43-8.83c-2.53-3.22-5.17-6.28-8.83-8.27c-0.37-0.2-0.83-0.3-1.25-0.32
			c-0.25-0.01-0.5,0.26-0.75,0.41c0.17,0.16,0.33,0.34,0.51,0.49c0.49,0.42,1.11,0.77,1.45,1.29c0.19,0.3-0.07,0.88-0.12,1.34
			c-0.36-0.15-0.76-0.24-1.07-0.45c-0.68-0.48-1.24-1.26-1.98-1.49c-1.01-0.32-1.21-0.62-0.69-1.53c0.42-0.73-0.23-1.81-1.03-1.94
			c-0.38-0.06-0.74-0.28-1.11-0.43c0.17-0.29,0.33-0.58,0.52-0.85c0.22-0.32,0.47-0.63,0.7-0.95c-0.37-0.08-0.73-0.16-1.1-0.23
			c-2.88-0.52-5.76-1.03-8.65-1.54c-0.1-0.02-0.21,0-0.31-0.01c-3.26-0.1-6.52-0.34-9.78-0.28c-4.56,0.08-9.11,0.4-13.67,0.56
			c-0.48,0.02-0.98-0.41-1.47-0.63c0.52-0.3,1.04-0.84,1.58-0.85c4.91-0.17,9.82-0.27,14.73-0.34c3.01-0.04,6.03-0.16,9.03,0.03
			c4.17,0.27,8.33,0.79,12.49,1.21c0.23,0.02,0.52,0.1,0.66,0.26c1.3,1.57,2.54,3.18,3.85,4.74c0.94,1.12,1.95,2.19,2.95,3.27
			c1.48,1.6,3.04,3.14,4.45,4.79c3.1,3.63,5.95,7.41,9.72,10.5c3.16,2.59,5.71,5.98,8.29,9.21c1.58,1.97,3.32,3.96,3.78,6.62
			c0.03,0.18,0.32,0.33,0.49,0.49c0.14-0.2,0.38-0.39,0.41-0.6c0.43-3.02,0.96-6.04,1.21-9.08c0.21-2.48-0.69-4.65-2.57-6.38
			c-0.26-0.24-0.55-0.83-0.44-1c0.25-0.37,0.73-0.8,1.14-0.81c1.89-0.06,1.06-1.14,0.6-1.76c-1.03-1.41-2.17-2.75-3.37-4.02
			c-2.88-3.05-5.9-5.98-8.72-9.09c-3.4-3.75-6.54-7.74-10-11.43c-2.31-2.47-5.02-4.56-7.44-6.93c-1.47-1.44-2.68-3.12-4.1-4.62
			c-0.37-0.39-1.14-0.79-1.56-0.66c-0.89,0.29-0.54,1-0.2,1.66c0.36,0.68-0.36,3.61-1.01,4.06c-0.18,0.12-0.93-0.16-0.93-0.29
			c-0.03-0.47,0.16-0.95,0.23-1.43c0.07-0.49,0.28-1.08,0.09-1.46c-0.52-1.03-0.9-1.93,0.35-2.72c0.15-0.1,0.27-0.54,0.18-0.65
			c-0.14-0.18-0.46-0.28-0.71-0.3c-3.42-0.28-6.75,0.32-10.09,1.04c-3.57,0.76-7.15,1.51-10.77,2.01c-3.51,0.49-7.07,0.61-10.6,0.99
			c-1.95,0.21-3.87,0.62-5.81,0.89c-0.32,0.04-0.67-0.19-1.01-0.3c0.19-0.34,0.29-0.84,0.57-0.98c1.16-0.59,1.18-1.62,1.31-2.71
			c0.33-2.73,0.82-5.44,1.16-8.18c0.2-1.64,0.28-3.3,0.36-4.96c0.13-2.69,0.33-5.38,0.28-8.07c-0.04-2.34-0.46-4.68-0.56-7.02
			c-0.1-2.39-0.01-4.78-0.04-7.17c0-0.43-0.19-0.85-0.27-1.27c-0.14-0.76-0.38-0.97-1.01-0.31c-0.19,0.2-0.62,0.15-0.95,0.22
			c0.02-0.34-0.07-0.76,0.09-1c1.78-2.52,2.94-5.28,3.48-8.31c0.31-1.74,0.69-3.48,0.81-5.23c0.21-3.24,0.19-6.49,0.36-9.73
			c0.12-2.39,0.46-4.78,0.54-7.17c0.02-0.47-0.66-1.31-1.12-1.39c-1.42-0.25-1.29-1.37-0.8-1.86c1.81-1.81,2.27-4.25,2.78-6.44
			c0.97-4.1,0.88-8.41-0.65-12.4c-1.14-2.97-2.96-5.68-4.41-8.54c-1.73-3.42-4.85-5.37-7.82-7.48c-1.08-0.77-1.7-0.54-1.84,0.84
			c-0.29,2.85-0.41,5.71-0.66,8.56c-0.15,1.78,0.16,3.93-0.73,5.24c-1.91,2.81-0.81,5.71-1.08,8.55c-0.14,1.43,0.22,2.9,0.25,4.36
			c0.02,0.83-0.45,1.74-0.23,2.49c0.39,1.35,0.07,2.59,0.06,3.89c-0.05,7.57-1.74,14.78-3.98,21.92c-0.06,0.18-0.2,0.4-0.15,0.55
			c1.21,3.18-1.26,5.51-1.87,8.27c-0.33,1.52-0.62,3.04-0.93,4.57c-0.11,0.52-0.04,1.17-0.34,1.55c-1.96,2.56-2.23,5.71-3.04,8.65
			c-1.8,6.57-3.18,13.25-5.61,19.66c-1.03,2.73-1.35,5.75-2.54,8.39c-2,4.42-2.46,9.04-2.32,13.71c0.07,2.4,1.11,4.77,1.65,7.17
			c0.11,0.47,0.18,1.23-0.08,1.45c-1.52,1.27-1.77,3.13-2.24,4.82c-0.77,2.75-1.34,5.55-1.86,8.36c-0.34,1.8-0.39,3.65-0.67,5.46
			c-0.55,3.63-1.19,7.25-1.76,10.87c-0.27,1.75-0.45,3.52-0.71,5.28c-0.47,3.1-0.92,6.2-1.5,9.29c-0.56,3-1.06,6.04-1.95,8.94
			c-1,3.22-2.31,6.37-3.69,9.45c-1.63,3.66-3.44,7.25-5.25,10.83c-1.49,2.95-3.14,5.82-4.62,8.77c-2.12,4.23-4.13,8.5-6.21,12.75
			c-2.05,4.21-4.2,8.37-6.17,12.61c-3.39,7.32-7.57,14.17-12.02,20.87c-1.06,1.6-1.9,3.34-2.88,4.99c-0.17,0.29-0.57,0.44-0.86,0.66
			c-0.18-0.46-0.66-1.08-0.51-1.36c0.77-1.45,1.68-2.82,2.58-4.2c4.32-6.62,8.62-13.25,12.03-20.4c2.53-5.3,4.97-10.64,7.57-15.9
			c3.06-6.17,6.29-12.25,9.38-18.4c1.67-3.32,3.3-6.68,4.8-10.08c1.42-3.23,2.91-6.46,3.9-9.83c1.31-4.44,2.3-8.99,3.18-13.54
			c0.71-3.67,1.03-7.41,1.6-11.11c0.57-3.72,1.49-7.41,1.77-11.15c0.28-3.8,1.13-7.46,1.95-11.14c0.47-2.1,1.25-4.14,1.7-6.25
			c0.24-1.14,0.39-2.46,0.04-3.52c-1.16-3.54-1.03-7.09-0.5-10.67c0.35-2.37,0.59-4.78,1.27-7.06c1.5-5.03,3.39-9.96,4.87-15
			c1.33-4.53,2.28-9.17,3.45-13.74c0.69-2.7,1.53-5.36,2.19-8.06c0.17-0.68-0.13-1.46-0.12-2.2c0.01-0.63,0.06-1.29,0.25-1.89
			c0.52-1.64,1.12-3.25,1.7-4.86c0.15-0.4,0.33-0.81,0.59-1.15c0.97-1.26,0.88-1.68-0.71-1.7c-2.24-0.03-4.09-1.04-6.05-1.89
			c-1.4-0.61-2.92-0.96-4.26-1.66c-2.09-1.09-4.05-2.42-6.11-3.57c-1.46-0.81-3.03-1.42-4.49-2.23c-2.15-1.18-4.29-2.39-6.35-3.72
			c-2.62-1.68-5.21-3.42-7.73-5.25c-1.77-1.28-3.39-2.78-5.11-4.13c-2.6-2.05-5.24-4.04-7.85-6.08c-0.91-0.71-1.8-1.45-2.62-2.25
			c-1.7-1.64-3.35-3.33-5.02-5.01c-1.31-1.31-2.68-2.55-3.91-3.93c-2.16-2.43-4.29-4.9-6.3-7.45c-2.25-2.86-4.29-5.87-6.54-8.73
			c-1.26-1.59-2.78-2.97-4.11-4.51c-0.32-0.37-0.44-0.98-0.47-1.48c-0.02-0.32,0.31-0.66,0.48-0.99c0.24,0.21,0.5,0.4,0.72,0.63
			c2.04,2.18,4.12,4.34,6.1,6.58c1.04,1.18,1.91,2.5,2.86,3.76c1.93,2.55,3.7,5.25,5.84,7.62c3.36,3.73,6.84,7.38,10.51,10.81
			c3.09,2.88,6.53,5.37,9.8,8.05c2.01,1.65,3.94,3.4,5.99,4.99c1.61,1.26,3.32,2.41,5.04,3.51c2.44,1.55,4.93,3.03,7.43,4.49
			c2.7,1.57,5.37,3.21,8.16,4.58c4.11,2.02,8.3,3.86,12.5,5.69c0.91,0.4,2,0.49,3.01,0.52c0.35,0.01,0.95-0.51,1.04-0.88
			c1.19-4.88,2.24-9.8,3.48-14.67c0.37-1.45,0.02-2.59-0.42-3.92c-0.37-1.12-0.18-2.47-0.05-3.7c0.28-2.62,1.78-5.02,1.39-7.79
			c-0.11-0.8-0.24-1.23-1.14-1.18c-0.99,0.05-2.03,0.19-2.99-0.02c-3.39-0.74-6.84-1.37-10.09-2.54c-1.95-0.7-3.78-2.09-5.31-3.55
			c-2.88-2.75-6.05-4.97-9.67-6.61c-0.5-0.23-0.79-0.94-1.17-1.43c0.54-0.34,1.03-0.78,1.61-0.99c1.92-0.72,3.91-1.27,5.8-2.05
			c2.38-0.99,4.69-2.12,7.02-3.23c1.85-0.89,3.65-1.89,5.52-2.75c1.51-0.7,3.05-1.4,4.64-1.85c1.57-0.45,2.82,0.34,3.82,1.58
			c0.2,0.25,0.56,0.36,0.84,0.54c0.05-0.29,0.13-0.58,0.14-0.87c0.11-2.35,0.26-4.69,0.29-7.04c0.01-1.03-0.26-2.07-0.3-3.11
			c-0.02-0.49,0.05-1.19,0.36-1.44c0.27-0.21,1.04-0.07,1.41,0.17c1.5,0.99,2.64,2.15,3.33,4c0.46,1.24,2.08,2.08,3.24,3.02
			c1.61,1.31,3.24,2.59,4.94,3.78c0.49,0.34,1.38,0.61,1.85,0.39c1.77-0.81,3.23-0.41,4.87,0.44c2.71,1.39,5.55,2.52,8.34,3.76
			c1.26,0.56,2.54,1.09,3.81,1.65c0.83,0.37,1.65,0.76,2.47,1.14c1.03,0.48,1.49,1.1,0.39,1.99c-1.54,1.25-3.1,2.48-4.65,3.72
			c-2.09,1.68-4.15,3.4-6.3,5c-0.48,0.36-1.27,0.26-1.88,0.49c-0.23,0.09-0.5,0.52-0.48,0.76c0.31,3.16,0.08,6.33-1.05,9.23
			c-0.73,1.87-0.47,3.6-0.52,5.41c-0.1,3.57-0.19,7.14-0.31,10.7c-0.09,2.64-0.07,5.29-0.35,7.92c-0.26,2.47-0.88,4.89-1.27,7.35
			c-0.08,0.5-0.06,1.24,0.24,1.55c0.85,0.85,0.46,1.62-0.08,2.24c-0.95,1.09-1.15,2.19-1.1,3.67c0.13,3.51-0.22,7.03-0.2,10.55
			c0.01,1.72,0.46,3.43,0.59,5.15c0.11,1.41,0.07,2.84,0.02,4.26c-0.07,1.86-0.14,3.73-0.36,5.58c-0.32,2.68-0.83,5.34-1.14,8.03
			c-0.16,1.37-0.1,2.77-0.04,4.15c0.01,0.2,0.58,0.56,0.87,0.54c2.27-0.21,4.53-0.46,6.79-0.77c3.94-0.54,7.9-1.05,11.82-1.74
			c4.35-0.76,8.64-2.06,13.02-2.46c2.6-0.24,5.46,0.27,7.75,2.04c0.46,0.35,1.09,0.52,0.66,1.49c-0.21,0.47,0.36,1.53,0.87,2.02
			c1.51,1.48,3.18,2.77,4.74,4.2c1.99,1.83,4.05,3.61,5.87,5.6c2.14,2.35,4.03,4.94,6.1,7.36c1.25,1.47,2.66,2.8,3.98,4.21
			c0.72,0.77,1.37,1.61,2.09,2.38c2.87,3.09,5.76,6.15,8.61,9.26c0.72,0.79,1.41,1.65,1.92,2.58c0.22,0.4,0.92,1.48-0.57,1.46
			c-0.11,0-0.33,0.45-0.31,0.67c0.2,1.78,0.69,3.57,0.62,5.34c-0.12,3.23-0.52,6.46-0.91,9.67c-0.1,0.83-0.61,1.6-0.89,2.41
			c-1.18,3.38,0.03,6.18,2.02,8.87c1.18,1.59,2.17,3.32,3.19,5.02c1.13,1.9,2.25,3.8,3.28,5.76c1.13,2.16,2.25,4.33,3.15,6.59
			c0.58,1.45-0.64,2.46-1.7,2.96c-3.5,1.66-7.14,2.64-11.02,1.29c-0.27-0.09-0.63-0.13-0.78-0.32c-0.44-0.54-0.8-1.14-1.19-1.72
			c0.61,0.06,1.29-0.02,1.82,0.21c2.9,1.27,5.74,0.38,8.59-0.15c0.26-0.05,0.67-0.76,0.59-1.02c-0.84-2.54-1.66-5.09-2.7-7.54
			c-1.2-2.86-2.58-5.64-3.95-8.42C384.88,845.99,384.06,844.77,383.24,843.44 M276.37,685.5c0.68,0.1,1.35,0.28,2.03,0.3
			c1.78,0.04,3.57,0.01,5.36,0.01c3.19,0,6.38-0.01,9.58,0c1.01,0,1.47-0.48,1.45-1.48c-0.02-0.88-0.25-1.84,0.04-2.61
			c0.93-2.46-0.31-3.98-1.98-5.46c-1.07-0.96-2.06-1.28-3.41-0.47c-2.22,1.32-4.48,2.59-6.8,3.71c-3.52,1.69-7.11,3.22-10.66,4.83
			c-0.27,0.12-0.48,0.39-0.72,0.59c0.31,0.19,0.62,0.53,0.94,0.55C273.49,685.54,274.78,685.5,276.37,685.5 M274.98,688.44
			c1.01,0.8,2.06,1.55,3.01,2.41c2.13,1.92,4.5,3.35,7.34,3.93c3.04,0.62,6.11,1.12,9.1,1.92c1.18,0.31,1.29,0.01,1.29-0.94
			c-0.01-2.28-0.06-4.57,0.02-6.85c0.03-1.08-0.45-1.32-1.37-1.25c-1.55,0.12-3.11,0.34-4.66,0.28c-2.34-0.09-4.67-0.43-7.01-0.58
			c-2.58-0.16-5.17-0.22-7.75-0.32c-0.37-0.01-0.74,0.03-1.11,0.05C274.17,687.5,274.5,687.89,274.98,688.44 M315.68,678.07
			c-1.41-0.69-2.81-1.41-4.25-2.05c-0.32-0.14-0.75-0.01-1.14,0c0.05,0.38-0.04,0.91,0.17,1.12c1.92,1.9,2.9,4.31,3.94,6.72
			c0.15,0.34,0.8,0.69,1.19,0.67c1.41-0.11,2.81-0.43,4.23-0.57c1.7-0.16,3.42-0.19,5.12-0.35c0.38-0.03,0.74-0.35,1.1-0.54
			c-0.28-0.23-0.52-0.53-0.83-0.67C322.1,681,318.97,679.62,315.68,678.07 M326.67,684.73c-0.04-0.04-0.08-0.11-0.11-0.1
			c-3.42,0.39-6.85,0.77-10.26,1.22c-0.26,0.03-0.69,0.58-0.65,0.82c0.31,1.7,0.73,3.39,1.12,5.08c0.05,0.2,0.19,0.38,0.29,0.57
			c0.11-0.08,0.22-0.15,0.32-0.23c1.38-1.16,2.7-2.38,4.14-3.47C323.19,687.36,324.95,686.22,326.67,684.73z"/>
		<path d="M362.34,869.59c-1.61-2.54-3.19-4.97-4.64-7.48c-0.42-0.72-0.64-1.65-0.67-2.49c-0.1-2.73-1.05-5.02-2.96-7
			c-1.32-1.37-2.41-2.97-3.75-4.3c-2.91-2.89-5.51-6.38-9.68-7.43c-2.19-0.55-3.4-2.31-5.25-3.05c-3.32-1.33-6.77-2.32-10.17-3.46
			c-0.59-0.2-1.17-0.43-1.76-0.62c-3.87-1.24-7.75-2.45-11.6-3.75c-0.52-0.18-0.86-0.86-1.29-1.31c0.6-0.07,1.25-0.32,1.79-0.17
			c3.41,0.97,6.8,2,10.17,3.08c1.73,0.55,3.39,1.28,5.12,1.83c2.55,0.82,5.12,1.6,7.7,2.31c0.39,0.11,1.01-0.17,1.36-0.46
			c1.13-0.95,2.62-0.84,2.93,0.54c0.68,3.05,3.14,4.01,5.39,5.43c1.6,1,2.87,2.54,4.26,3.86c0.86,0.82,1.75,1.62,2.51,2.52
			c1.97,2.36,3.87,4.79,5.82,7.17c0.29,0.36,0.71,0.62,1.07,0.93c0.26-0.35,0.51-0.7,0.79-1.03c0.26-0.31,0.52-0.64,0.85-0.87
			c0.17-0.12,0.57-0.15,0.71-0.04c0.14,0.12,0.16,0.49,0.11,0.71c-0.08,0.32-0.23,0.65-0.44,0.89c-2.04,2.39-1.34,5.24-0.47,7.54
			c1.1,2.93,2.88,5.77,4.98,8.09c1.73,1.92,4.38,3,6.57,4.52c2.16,1.5,4.42,2.65,7.14,2.55c0.13,0,0.38-0.41,0.34-0.55
			c-0.59-1.71-1.34-3.38-1.8-5.13c-0.39-1.52-0.45-3.12-0.66-4.68c-0.1-0.73,0.01-1.6-0.35-2.16c-0.72-1.1-0.58-1.79,0.35-2.67
			c0.29-0.27,0.09-1.25-0.11-1.83c-0.49-1.51-0.35-3.3-2.21-4.24c-0.46-0.24-0.23-1.68-0.5-2.51c-0.28-0.85-0.74-1.66-1.22-2.43
			c-0.14-0.22-0.62-0.23-0.94-0.33c0.02,0.32-0.04,0.68,0.09,0.96c0.8,1.73-0.29,3.89-2.16,4.09c-0.2,0.02-0.66-0.49-0.66-0.77
			c-0.01-0.62-0.42-1.66,0.73-1.64c1.99,0.03,0.96-1.01,0.56-1.59c-0.68-1.02-1.13-1.92-0.3-3.11c0.21-0.3-0.02-1.15-0.32-1.53
			c-3.1-3.89-6.3-7.7-9.36-11.61c-1.96-2.5-3.63-5.23-5.62-7.71c-1.24-1.54-2.77-2.87-4.28-4.16c-0.66-0.57-1.54-0.64-2.27,0.19
			c-0.28,0.31-0.7,0.59-1.09,0.68c-0.34,0.07-0.74-0.15-1.11-0.25c0.2-0.22,0.38-0.47,0.61-0.65c0.61-0.48,0.55-0.82-0.1-1.24
			c-1.83-1.19-3.54-2.62-5.48-3.61c-1.42-0.73-3.12-0.94-4.7-1.33c-3.94-0.95-7.88-1.91-11.85-2.78c-2.34-0.51-4.72-0.79-7.06-1.27
			c-1.5-0.31-2.97-0.78-4.43-1.24c-0.25-0.08-0.4-0.49-0.59-0.74c0.3-0.16,0.62-0.48,0.88-0.44c0.75,0.12,1.47,0.44,2.23,0.58
			c4.03,0.74,8.07,1.44,12.1,2.18c3.31,0.6,6.59,1.33,9.91,1.82c2.04,0.3,4.15,0.16,6.21,0.38c1.03,0.11,2.02,0.57,3.02,0.9
			c0.22,0.07,0.56,0.26,0.58,0.42c0.3,3.01,2.97,3.86,4.82,5.52c1.92,1.72,3.42,3.9,5.08,5.91c1.23,1.49,2.28,3.16,3.64,4.51
			c3.99,3.96,7.22,8.53,10.79,12.84c2.2,2.65,3.6,5.65,5.21,8.57c0.81,1.47,1,3.29,1.47,4.95c0.04,0.14-0.04,0.34,0.02,0.46
			c2.13,3.96,2.5,8.39,3.37,12.68c0.43,2.12,0.65,4.28,0.94,6.42c0.05,0.35,0.1,0.78-0.06,1.05c-0.36,0.59-0.85,1.1-1.29,1.64
			c-0.37-0.49-0.72-1.01-1.12-1.48c-0.31-0.35-0.7-0.93-1.03-0.92c-3.89,0.15-6.96-1.79-10.08-3.73
			C366.29,874.76,363.99,872.59,362.34,869.59z"/>
		<path d="M360.33,689.45c-3.87,5.73-7.61,11.41-11.46,17.01c-3.58,5.2-7.77,9.88-12.35,14.22c-3.57,3.38-7.23,6.68-11.57,9.04
			c-2.44,1.32-5.08,2.31-7.92,2.52c-0.87,0.06-1.8-0.07-1.73-1.12c0.03-0.48,0.88-1.31,1.34-1.3c5.23,0.08,9.35-2.48,13.17-5.58
			c3.09-2.51,6.21-5.07,8.88-8.01c3.63-4,6.96-8.29,10.19-12.62c2.67-3.58,5.06-7.37,7.49-11.12c2.74-4.22,5.46-8.44,8.04-12.76
			c2.38-3.99,4.6-8.09,6.82-12.18c1.03-1.88,2.04-3.8,2.8-5.8c0.96-2.54,1.63-5.2,2.51-7.78c0.14-0.41,0.73-0.66,1.12-0.99
			c0.24,0.42,0.75,0.91,0.66,1.26c-1.23,5.25-3.27,10.18-5.99,14.84c-2.25,3.86-4.43,7.76-6.68,11.61
			C363.95,683.62,362.16,686.48,360.33,689.45z"/>
		<path d="M298.5,907.43c1.34-1.92,2.7-3.67,4.02-5.45c2.93-3.94,5.83-7.9,8.78-11.83c2.34-3.11,4.7-6.21,7.13-9.26
			c0.46-0.57,1.26-0.87,1.9-1.3c-0.24,0.64-0.35,1.36-0.73,1.9c-1.44,2.05-2.96,4.04-4.47,6.05c-2.34,3.11-4.73,6.18-7.04,9.31
			c-3.26,4.42-6.42,8.9-9.71,13.3c-4.49,6.02-8.12,12.47-10.78,19.52c-1.44,3.83-3.46,7.44-5.04,11.21
			c-1.81,4.3-3.35,8.72-5.16,13.02c-0.7,1.67-1.81,3.17-2.75,4.74c-0.11,0.18-0.35,0.27-0.54,0.41c-0.13-0.2-0.34-0.4-0.37-0.61
			c-0.05-0.34-0.09-0.75,0.04-1.05c3.59-8.05,7.23-16.09,10.8-24.15c1.74-3.92,3.08-8.04,5.11-11.79c2.42-4.45,5.39-8.6,8.13-12.89
			C298.06,908.22,298.29,907.91,298.5,907.43z"/>
		<path d="M334.02,862.47c-1.97,2.8-3.68,5.68-5.82,8.2c-2,2.36-4.3,4.53-6.74,6.41c-1.59,1.22-3.38,2.65-5.72,2.17
			c-0.4-0.08-0.76-0.34-1.14-0.51c0.38-0.34,0.75-0.96,1.14-0.97c2.84-0.08,4.94-1.54,6.77-3.48c2.65-2.8,5.47-5.47,7.81-8.52
			c2.81-3.67,4.16-8.06,5.04-12.59c0.63-3.23,1.42-6.42,2.16-9.62c0.07-0.31,0.28-0.65,0.52-0.85c0.38-0.32,0.84-0.53,1.26-0.79
			c0.2,0.56,0.73,1.31,0.54,1.67c-1.87,3.46-2.17,7.36-3.27,11.03C335.78,857.21,334.93,859.8,334.02,862.47z"/>
		<path d="M303.77,863.79c1.55-4.47,3.08-8.78,4.65-13.09c0.67-1.83,1.62-3.59,2.11-5.46c0.61-2.36,0.86-4.81,1.29-7.21
			c0.13-0.71,0.28-1.43,0.5-2.11c0.07-0.23,0.41-0.36,0.63-0.54c0.13,0.25,0.41,0.53,0.38,0.76c-0.48,3.53-0.46,7.12-1.8,10.55
			c-1.81,4.62-3.21,9.4-5.04,14.01c-1.26,3.19-2.89,6.24-4.47,9.29c-2.02,3.91-4.97,7.11-8.18,10.09c-0.52,0.48-0.81,1.21-1.25,1.79
			c-0.22,0.29-0.55,0.5-0.82,0.75c-0.12-0.46-0.49-1.05-0.33-1.34c0.62-1.1,1.21-2.38,2.18-3.09c2.94-2.14,4.84-5.09,6.7-8.07
			C301.58,868.11,302.63,866,303.77,863.79z"/>
		<path d="M298.2,885.14c-0.93,2.81-1.78,5.5-2.8,8.12c-1.37,3.5-2.79,6.99-4.34,10.42c-1.22,2.7-2.68,5.28-3.99,7.94
			c-0.97,1.97-1.85,3.97-2.8,5.95c-0.22,0.47-0.51,0.92-0.86,1.29c-0.08,0.09-0.74-0.12-0.75-0.24c-0.07-0.55-0.2-1.2,0.03-1.65
			c1.41-2.82,2.97-5.57,4.36-8.4c1.62-3.29,3.17-6.62,4.64-9.98c1.36-3.09,2.67-6.22,3.83-9.39c0.67-1.85,0.94-3.83,1.47-5.73
			c0.25-0.9,0.71-1.75,1.07-2.62c0.15,0.81,0.38,1.62,0.43,2.44C298.51,883.83,298.3,884.41,298.2,885.14z"/>
		<path d="M380.45,844.67c-0.86-1.83-1.93-3.51-1.45-5.57c0.09-0.37,0.42-0.68,0.63-1.01c0.3,0.37,0.72,0.69,0.87,1.11
			c0.4,1.12,0.61,2.32,1.03,3.43C382.1,844.14,381.83,844.83,380.45,844.67z"/>
		<path d="M356.62,818.21c-0.17-0.14-0.27-0.35-0.37-0.56c0.14-0.05,0.28-0.1,0.43-0.15C356.68,817.71,356.69,817.92,356.62,818.21z
			"/>
	</g>
</g>
<g id="rugzak">
	<path class="st0" d="M679,493l135,5c0,0,10-4,10-19c10,2,16-3,15-6s1.92-117.4,0.46-127.2C838,336,828,277,824,270s-29-20-33-12
		s-6,18-6,18s-19.75-12.8-28.37-12.4C748,264,752,249,748,249c-33-9-34,21-34,21s-39.14,24.79-43.07,61.4S667,473,679,493z"/>
	<g id="Vorm_23_2_">
		<path class="st1" d="M770.85,285.43c3.22,0.86,6.31,1.47,9.2,2.63c5.22,2.09,10.09,4.83,14.13,8.86c0.14,0.14,1.04-0.13,1.05-0.25
			c0.09-0.99,0.27-2.05,0.01-2.99c-1.16-4.27,0.39-7.99,2.85-11.09c1.9-2.39,5.05-3.4,8.12-4.01c6.33-1.26,12.35-0.44,18.05,2.63
			c1.58,0.85,3.21,1.6,4.72,2.55c0.5,0.31,0.68,1.13,1,1.72c-0.68,0.09-1.47,0.44-2.03,0.22c-2.15-0.84-4.23-1.87-6.33-2.83
			c-3.69-1.7-7.37-2.69-11.6-1.84c-2.59,0.52-5.29,0.33-7.52,2.09c-2.73,2.16-4.31,5.04-5.07,8.36c-0.46,1.99-1.08,4.13-0.74,6.04
			c0.27,1.5,1.8,2.86,2.98,4.08c3.76,3.89,7.89,7.46,11.37,11.59c3.3,3.91,5.99,8.34,8.87,12.59c0.66,0.97,0.98,2.16,1.52,3.22
			c0.14,0.27,0.53,0.4,0.81,0.59c0.15-0.25,0.45-0.5,0.44-0.74c-0.26-4.52,1.73-8.58,2.55-12.87c0.65-3.42,0.81-6.94,1.36-10.38
			c0.54-3.46,1.26-6.89,1.96-10.33c0.25-1.23,0.75-2.42,1-3.65c0.28-1.41,1.32-0.94,2.15-1.03c0.02,0.63,0.15,1.28,0.04,1.88
			c-0.54,2.84-1.18,5.66-1.73,8.49c-1.02,5.22-1.97,10.46-3.02,15.68c-0.95,4.74-2.09,9.44-2.92,14.2c-0.2,1.15,0.18,2.69,0.86,3.66
			c2.56,3.65,3.58,7.85,4.6,12.03c0.91,3.73,1.6,7.52,2.14,11.32c0.47,3.28,0.52,6.63,0.92,9.92c0.4,3.3,0.93,6.59,1.54,9.86
			c1.14,6.16,2.47,12.28,3.54,18.45c0.41,2.39,0.41,4.87,0.46,7.32c0.18,9.94,0.28,19.88,0.46,29.82c0.07,3.68,0.45,7.36,0.37,11.04
			c-0.1,4.67-0.45,9.34-0.83,14c-0.49,5.84-1.12,11.67-1.7,17.51c-0.42,4.25-0.76,8.51-1.31,12.75c-0.51,3.9-1.39,7.74-1.84,11.64
			c-0.45,3.93-2.23,7.68-1.29,11.87c0.23,1.04-1.31,2.91-2.5,3.73c-1.88,1.29-4.12,2.08-6.26,2.93c-0.67,0.26-1.53,0.06-2.3,0.04
			c-0.7-0.02-1.56-0.36-2.06-0.07c-2.12,1.22-4.04,0.5-6.19,0.03c-4.5-0.98-9.1-1.58-13.67-2.21c-5.69-0.79-11.39-1.62-17.11-2.11
			c-5.79-0.5-11.62-0.61-17.43-0.91c-2.16-0.11-4.31-0.41-6.47-0.39c-2.87,0.02-5.74,0.31-8.61,0.39c-6.3,0.18-12.6,0.28-18.89,0.45
			c-3.61,0.1-7.22,0.28-10.82,0.42c-4.01,0.15-8.04,0.56-12.03,0.35c-3.86-0.2-7.67-1.17-11.53-1.55c-2.54-0.25-5.13-0.08-7.69-0.08
			c-2.85-0.01-2.91-0.56-3.78-3.15c-2.09-6.17-1.18-12.7-2.75-18.97c-1.05-4.2-1.47-8.56-2.98-12.72c-0.75-2.07-0.92-4.41-1.01-6.64
			c-0.25-6.08-0.15-12.18-0.52-18.25c-0.34-5.71-1.12-11.38-1.65-17.08c-0.13-1.44-0.02-2.9-0.02-4.36c0-0.5,0-1,0-1.5
			c-0.14-12.58-0.45-25.17-0.34-37.75c0.04-4.7,1.09-9.38,1.62-14.08c0.47-4.2,0.68-8.44,1.34-12.6c0.86-5.44,0.49-11.06,2.44-16.33
			c0.07-0.19,0.1-0.41,0.08-0.61c-0.53-5.09,1.78-9.3,4.15-13.5c0.34-0.61,0.47-1.43,0.46-2.15c-0.06-2.79,1.75-4.71,3.03-6.9
			c0.59-1.02,0.82-2.24,1.4-3.27c0.98-1.75,1.97-3.53,3.2-5.09c2.74-3.47,5.54-6.9,8.5-10.19c1.37-1.52,3.18-2.64,4.75-3.98
			c1.32-1.12,2.46-2.53,3.92-3.41c3.82-2.28,7.72-4.43,11.7-6.41c1.3-0.65,1.88-0.82,1.44-2.59c-0.86-3.45,0.06-6.91,1.29-10.19
			c1.7-4.53,3.95-8.79,8.33-11.25c2.39-1.35,5.09-2.25,7.75-2.98c4.52-1.23,8.56,0.42,12.52,2.49c1.03,0.54,2.34,0.54,3.47,0.92
			c0.61,0.21,1.13,0.7,1.69,1.06c-0.36,0.49-0.61,1.17-1.09,1.45c-2.1,1.21-3.96,0.08-5.64-0.96c-5.45-3.38-10.8-3.16-16.16,0.1
			c-1.48,0.9-3.07,1.68-4.42,2.75c-3.39,2.71-4,6.88-5.22,10.67c-0.53,1.66-0.67,3.46-0.88,5.2c-0.2,1.6,0.75,1.88,1.83,1.09
			c3.14-2.29,6.76-3.42,10.44-4.28c3.67-0.86,7.4-1.51,11.13-2.09c2.72-0.43,5.49-0.47,8.2-0.93c1.67-0.28,0.92-1.82,0.85-2.79
			c-0.11-1.54-0.59-3.06-0.71-4.6c-0.04-0.49,0.58-1.04,0.9-1.56c0.4,0.44,1.03,0.83,1.15,1.34c0.4,1.71,0.62,3.47,0.9,5.21
			c0.22,1.41,0.86,2,2.46,2.1C765,284.39,767.81,285,770.85,285.43 M786.49,509.15c2.38,0.29,4.76,0.57,7.14,0.86
			c5.85,0.71,11.68,1.61,17.55,2.06c2.89,0.22,5.75,0.06,8.29,1.78c0.37,0.25,0.86,0.38,1.31,0.43c3.67,0.46,6.23-3.49,7.01-7.14
			c1.07-5.03,1.79-10.13,2.62-15.21c0.88-5.43,1.83-10.85,2.54-16.29c0.59-4.51,0.99-9.06,1.29-13.61
			c0.39-5.95,0.76-11.9,0.84-17.86c0.07-5.58-0.28-11.17-0.37-16.75c-0.17-10.15-0.27-20.31-0.46-30.46
			c-0.03-1.48-0.34-2.98-0.68-4.43c-0.86-3.7-1.94-7.36-2.68-11.09c-0.51-2.55-0.54-5.19-0.92-7.78
			c-0.81-5.58-1.59-11.17-2.59-16.72c-0.81-4.48-1.68-8.98-2.93-13.35c-2.32-8.15-7.67-14.74-12.03-21.77
			c-4.24-6.85-9.97-12.64-16.09-17.9c-4.77-4.1-9.59-8.16-15.43-10.82c-5.06-2.3-10.4-3.66-15.82-4.12
			c-4.4-0.36-8.94,0.14-13.34,0.8c-5.3,0.79-10.62,1.82-15.73,3.38c-3.94,1.2-7.64,3.27-11.36,5.14c-4.03,2.03-8.11,4.02-11.87,6.48
			c-5.25,3.44-9.33,8.22-13.46,12.91c-5.72,6.49-8.92,14.35-12.02,22.24c-0.87,2.22-0.71,4.94-1.88,6.92
			c-1.57,2.66-0.96,5.47-1.52,8.16c-0.5,2.37-0.21,4.89-0.54,7.3c-0.42,3.07-1.18,6.09-1.65,9.16c-0.29,1.92,0.04,3.98-0.52,5.8
			c-2.15,7.02-2.03,14.27-2.47,21.45c-0.22,3.63-0.09,7.28-0.02,10.93c0.06,2.97,0.35,5.93,0.39,8.9c0.07,4.45-0.19,8.92,0.07,13.36
			c0.38,6.49,1.26,12.95,1.62,19.44c0.36,6.43,0.26,12.88,0.51,19.32c0.09,2.23,0.28,4.56,0.98,6.66c3.17,9.42,4.24,19.18,4.95,29
			c0.09,1.2,0.47,1.56,1.63,1.58c2.51,0.06,5.04,0.15,7.53,0.43c4.42,0.49,8.8,1.32,13.22,1.62c3.06,0.21,6.16-0.26,9.25-0.35
			c2.31-0.07,4.63,0.09,6.93-0.04c3.6-0.2,7.19-0.63,10.79-0.82c6.81-0.35,13.62-0.73,20.43-0.83c5.22-0.08,10.45,0.26,15.68,0.38
			c1.93,0.04,3.86-0.1,5.78,0.03C781.02,508.5,783.54,508.86,786.49,509.15z"/>
		<path class="st1" d="M846.71,354c0.14,1.01,0.38,1.81,0.41,2.61c0.18,4.65,0.29,9.31,0.45,13.96c0.11,3.23,0.33,6.45,0.41,9.68
			c0.18,7.1,0.32,14.21,0.43,21.32c0.06,4.02,0.06,8.05-0.01,12.07c-0.05,2.73-0.4,5.45-0.38,8.18c0.04,5.01,0.54,10.03,0.32,15.03
			c-0.25,5.7-1.23,11.37-1.59,17.08c-0.27,4.29,0.06,8.62-0.08,12.92c-0.14,4.32-0.63,8.62-0.76,12.94
			c-0.07,2.19,0.28,4.41,0.52,6.6c0.16,1.41,0.58,2.8,0.62,4.21c0.01,0.47-0.76,1.07-1.3,1.37c-0.2,0.11-0.85-0.45-1.18-0.81
			c-0.25-0.27-0.41-0.71-0.43-1.09c-0.31-4.66-0.64-9.33-0.84-14c-0.06-1.36,0.36-2.73,0.38-4.11c0.06-3.66-0.2-7.35,0.07-10.99
			c0.35-4.78,1.26-9.51,1.61-14.29c0.27-3.72,0.03-7.47,0.07-11.21c0.01-1.03,0.26-2.06,0.26-3.09c-0.01-1.21-0.2-2.41-0.27-3.62
			c-0.16-2.8-0.46-5.6-0.39-8.39c0.07-2.81,0.73-5.62,0.76-8.43c0.05-3.96-0.24-7.93-0.38-11.89c-0.02-0.5,0-1,0-1.5
			c0-4.93,0.1-9.86-0.02-14.78c-0.2-7.74-0.52-15.47-0.84-23.21c-0.24-5.88-0.36-11.78-0.91-17.63c-0.42-4.43-1.43-8.81-2.17-13.22
			c-0.54-3.2-0.93-6.44-1.65-9.6c-1.26-5.6-2.76-11.14-4.09-16.72c-0.84-3.52-1.58-7.07-2.27-10.62c-0.1-0.51,0.34-1.12,0.54-1.68
			c0.38,0.51,0.86,0.98,1.12,1.55c3.59,7.97,4.88,16.59,6.84,25.01c1.32,5.7,2.46,11.45,3.41,17.22c0.57,3.48,0.66,7.04,0.9,10.56
			C846.47,348.19,846.57,350.99,846.71,354z"/>
		<path class="st1" d="M840.17,496.18c-2.31-0.32-3-2.29-2.34-3.71c1.25-2.7,0.03-4.94-0.34-7.39c-0.2-1.3,0.14-2.68,0.24-4.03
			c1.54,0.12,3.08,0.21,4.61,0.41c0.18,0.02,0.47,0.7,0.39,0.98c-0.97,3.49-1.77,6.95-0.41,10.56
			C842.97,494.74,842,495.74,840.17,496.18z"/>
		<path class="st1" d="M806.32,494.9c-1.14,1.38-2.41,1.97-4.11,1.85c-1.85-0.13-3.71-0.1-5.57-0.02
			c-6.03,0.25-12.05,0.51-18.07,0.87c-1.96,0.12-3.95,0.95-5.85,0.75c-4.44-0.47-8.84-1.35-13.25-2.1
			c-3.13-0.53-6.23-1.29-9.38-1.64c-6.25-0.7-12.52-1.28-18.79-1.71c-2.81-0.19-5.65,0.16-8.47,0.18c-1.94,0.01-3.88-0.18-5.82-0.21
			c-2.17-0.04-4.34,0.05-6.5-0.03c-1.29-0.05-2.64-0.14-3.83-0.57c-1.49-0.54-2.97-4.7-2.12-6.1c0.81-1.34,0.83-2.59,0.79-4.07
			c-0.08-3.01,0.35-6.02,0.33-9.03c-0.02-4.25-0.19-8.51-0.42-12.75c-0.18-3.24-0.67-6.47-0.78-9.72c-0.05-1.37,0.58-2.75,0.78-4.15
			c0.22-1.45-0.05-3.1,0.55-4.34c0.55-1.15,1.83-2.3,3.04-2.74c3.86-1.39,7.92-2.27,11.76-3.7c3.2-1.2,6.28-1.85,9.72-1.2
			c2.16,0.41,4.47-0.06,6.68,0.15c3.39,0.32,6.77,0.87,10.14,1.35c1.54,0.22,3.07,0.6,4.61,0.74c3.73,0.34,7.48,0.56,11.21,0.88
			c4.54,0.39,9.1,0.66,13.6,1.34c3.76,0.57,7.5,1.45,11.14,2.58c2.56,0.8,4.92,2.24,7.37,3.39c1.38,0.65,2.5,1.9,1.7,3.13
			c-0.44,0.66-2.68,0.78-3.72,0.3c-6.17-2.86-12.8-4.04-19.33-5.56c-1.87-0.44-3.88-0.29-5.81-0.48
			c-5.48-0.55-10.97-1.03-16.43-1.74c-4.08-0.53-8.1-1.73-12.19-2.02c-5.02-0.36-10.15-0.57-15.12,0.04
			c-5.45,0.68-10.56,2.99-15.41,5.63c-2.15,1.17-1.28,3.61-1.72,5.47c-0.22,0.93,0.32,2.01,0.35,3.02
			c0.31,10.45,0.6,20.9,0.85,31.36c0.03,1.08-0.23,2.17-0.41,3.25c-0.34,1.93,0.04,2.21,2.14,2.18c1.87-0.03,3.74,0.43,5.61,0.36
			c4.67-0.18,9.33-0.66,14-0.77c2.02-0.05,4.04,0.56,6.07,0.79c2.81,0.32,5.61,0.68,8.43,0.85c6.64,0.41,13.2,1.09,19.74,2.47
			c4.63,0.97,9.48,1.1,14.27,0.17c2.76-0.54,5.61-0.7,8.42-0.88c3.58-0.23,7.17-0.26,10.75-0.5c0.5-0.03,1.33-0.78,1.37-1.25
			c0.26-3.07,0.36-6.16,0.49-9.25c0.15-3.68,0.38-7.36,0.4-11.04c0.02-2.51-0.46-5.03-0.35-7.53c0.18-4.24,0.17-8.43-0.82-12.6
			c-0.16-0.68,0.71-1.61,1.11-2.42c0.63,0.52,1.52,0.93,1.82,1.6c0.49,1.08,0.77,2.32,0.81,3.51c0.1,3.35,0.04,6.71,0.04,10.07
			c0,8.81,0.03,17.62-0.02,26.43c-0.01,1.74,0.49,2.64,2.4,2.57C806.43,491.96,806.32,493.49,806.32,494.9z"/>
		<path class="st1" d="M733.56,302.57c4.57-0.86,8.9-2.01,13.3-2.48c3.91-0.42,7.9-0.19,11.85-0.07c6.67,0.21,12.14,3.36,17.41,7.12
			c2.71,1.93,5.99,3.12,8.49,5.27c4.51,3.86,8.89,7.95,12.83,12.38c6.1,6.85,10.37,14.94,14.32,23.18
			c3.17,6.62,6.8,13.04,9.56,19.83c2.51,6.18,4.38,12.66,6.02,19.14c1.18,4.66,1.61,9.52,2.2,14.31c0.44,3.51,0.6,7.05,0.88,10.57
			c0.03,0.35,0.12,0.77-0.02,1.06c-0.33,0.7-0.79,1.33-1.19,1.99c-0.59-0.7-1.61-1.34-1.71-2.11c-0.34-2.56-0.37-5.16-0.5-7.74
			c-0.28-5.47-1-10.88-2.27-16.2c-0.63-2.66-1.16-5.36-2.05-7.94c-1.83-5.31-3.64-10.64-5.89-15.77c-2.12-4.84-4.83-9.42-7.19-14.17
			c-1.17-2.36-1.98-4.91-3.2-7.24c-4.85-9.21-10.36-18.02-18.54-24.64c-6.63-5.36-13.59-10.37-21.44-13.87
			c-1.56-0.7-3.32-1.08-5.03-1.29c-3.46-0.42-6.96-0.91-10.43-0.81c-3.38,0.1-6.79,0.69-10.09,1.46c-3.47,0.81-6.93,1.87-10.21,3.25
			c-2,0.84-3.76,2.38-5.44,3.81c-2.36,2.01-4.84,3.98-6.75,6.39c-3.32,4.18-6.3,8.64-9.31,13.05c-1.77,2.59-3.44,5.27-4.97,8.01
			c-1.97,3.53-3.88,7.1-5.59,10.75c-1.25,2.68-2.08,5.56-3.19,8.32c-1.23,3.06-2.72,6.03-3.81,9.13
			c-1.84,5.24-3.46,10.57-5.19,15.85c-0.16,0.5-0.46,0.96-0.74,1.4c-0.19,0.29-0.47,0.51-0.71,0.76c-0.23-0.33-0.69-0.7-0.64-0.98
			c0.8-4.18,1.39-8.43,2.61-12.49c1.25-4.15,3.11-8.13,4.78-12.15c1.77-4.27,3.48-8.57,5.48-12.73c2.36-4.89,4.93-9.69,7.56-14.44
			c2.65-4.78,5.15-9.69,8.36-14.08c2.47-3.37,5.92-6.03,8.95-8.99c1.21-1.18,2.53-2.24,3.7-3.45
			C727.85,303.82,730.71,303.47,733.56,302.57z"/>
		<path class="st1" d="M715.88,457.18c2.76,0.4,5.41,0.93,8.07,1.42c1.66,0.31,3.33,0.72,5.01,0.8c4.72,0.23,9.44,0.45,14.16,0.43
			c7.5-0.03,15.01-0.09,22.5-0.47c3.85-0.19,7.65-1.28,11.5-1.59c4.42-0.36,9.01-1.1,12.86,2.11c0.52,0.43,0.83,1.11,1.24,1.68
			c-0.73,0-1.62,0.27-2.17-0.05c-3.48-2.05-7.14-1.64-10.86-1.07c-3.49,0.54-6.83,1.71-10.48,1.65c-6.86-0.12-13.72,0.15-20.58,0.38
			c-2.74,0.1-5.52,1.02-8.2,0.73c-5.99-0.64-12.11-0.15-17.96-2.05c-1.32-0.43-2.71-0.72-3.94-1.33
			C716.15,459.37,714.31,459.07,715.88,457.18z"/>
	</g>
</g>
<g id="hart">
	<path class="st0" d="M175.93,55.61c0,0,17.07,6.91,17.07,16.63c0,0,14.26-13.6,27.22-13.6c7.13,1.95,3.04,15.44,3.04,15.44
		L239,72.91l0,6.48l1.94,2.59l0.26,11.63l4.89,5.61c0,0-11.47,11.87-11.55,11.57c-0.09-0.3-1.92-9.55-5.54-5.57
		c-3.62,3.98-2.83,2.84-0.31,8.27s7.05,15.15,8.35,14.5s3.74,11.55-1.37,12.25c-5.11,0.71,5.81,11.98,5.81,11.98
		s2.42,3.56-0.37,15.26s-5.71,15.99-8.14,26.16c-2.43,10.16-3.73,13.4-3.74,22.48s-18.81,44.05-36.3,37.57s-23.96-29.82-23.96-29.82
		s-10.68-1.69-15.38-10.24c-4.7-8.56-8.19-1.33-13.57-8.19c-5.38-6.85-14.45-13.98-13.15-20.46c1.3-6.48,1.6-2.8-2.76-10.15
		s-13.32-13.1-13.7-19.94c-0.37-6.85,1.73-7.44,1.01-17.19c-0.72-9.74-2.02-5.21-0.72-13.63s2.6-16.2,4.54-18.14
		c1.94-1.94-0.31-8.35-0.8-12.6c-0.49-4.25,0.81-2.95,2.11-10.73c1.3-7.77,8.63-11.44,8.63-11.44l-11.76,7.28l-5.93-16.59
		c0,0,16.2-5.18,15.55-4.53c-0.65,0.65-4.53-8.43-4.53-8.43s14.91-13.6,16.85-10.36c1.94,3.24,5.14,13.07,5.14,13.07l4.89,5.4
		c0,0-9.06-20.09-5.18-20.09c3.89,0,15.93,1.37,15.93,1.37s1.56,22.61,4.15,21.96c2.59-0.65,5.19-18.14,5.19-18.14
		s11.66,1.3,11.01,3.24C175.84,47.29,175.93,55.61,175.93,55.61z"/>
	<g id="Vorm_22_1_">
		<path d="M140.45,64.57c0.94,1.45,1.82,2.86,2.71,4.26c0.11,0.17,0.3,0.28,0.46,0.41c0.05-0.23,0.2-0.49,0.13-0.67
			c-0.39-1-0.95-1.95-1.24-2.98c-0.41-1.44-0.73-2.91-0.91-4.39c-0.17-1.32-0.1-2.66-0.15-3.99c-0.06-1.92-0.11-3.83-0.22-5.74
			c-0.04-0.74-0.25-1.48-0.37-2.22c-0.16-0.98,0.16-1.3,1.2-1.14c2.66,0.41,5.32,0.86,7.98,1.22c1.29,0.18,2.61,0.31,3.91,0.27
			c1.25-0.03,1.84,0.73,2.15,1.65c0.37,1.09,0.41,2.28,0.68,3.41c0.71,2.96,0.57,6.07,2,8.93c0.84,1.68,1.03,3.69,1.54,5.54
			c0.09,0.32,0.26,0.62,0.45,0.89c0.04,0.05,0.5-0.06,0.53-0.17c0.65-2.23,1.33-4.46,1.88-6.72c0.61-2.51,1.1-5.06,1.63-7.59
			c0.01-0.06-0.04-0.14-0.03-0.21c0.31-2.21,0.96-2.53,3.17-2c3.26,0.79,6.08,2.52,9.01,4.02c0.48,0.24,0.54,0.59,0.55,1.18
			c0.05,3.45-1.13,6.69-1.61,10.05c-0.06,0.39-0.18,0.82-0.42,1.12c-0.56,0.71-0.14,0.9,0.46,1c0.98,0.16,1.99,0.22,2.95,0.46
			c0.68,0.17,1.29,0.62,1.95,0.88c2.05,0.79,3.76,2.06,5.21,3.68c0.11,0.13,0.23,0.27,0.37,0.35c2.33,1.22,3.64,3.46,5.27,5.37
			c1.07,1.26,2.13,2.54,2.36,4.29c0.06,0.47,0.31,0.65,0.84,0.18c3.2-2.83,6.17-5.95,10.02-7.96c1.92-1,3.78-2.11,5.71-3.08
			c2.92-1.47,5.94-2.7,9.24-2.93c1.53-0.11,2.77,0.69,3.13,2.36c0.33,1.55,0.43,3.17,0.43,4.76c0.01,2.66-0.21,5.32-0.21,7.99
			c0,2.25-0.87,4.04-2.48,5.52c-0.91,0.83-1.9,1.58-2.85,2.38c-0.16,0.13-0.25,0.34-0.38,0.51c0.21-0.03,0.46,0,0.63-0.1
			c1.31-0.79,2.57-1.65,3.9-2.4c2.21-1.24,4.44-2.44,6.69-3.59c1.82-0.93,3.71-1.71,5.52-2.65c0.91-0.47,1.75-1.08,2.56-1.71
			c1.01-0.78,2.11-0.13,2.6,1.13c0.68,1.75,0.71,3.59,0.25,5.46c-0.23,0.94-0.79,1.43-1.46,1.94c-0.15,0.11-0.24,0.3-0.36,0.45
			c0.2,0.05,0.41,0.18,0.59,0.15c0.97-0.2,1.91-0.27,2.79,0.28c0.98,0.62,1.51,2.01,1.31,3.18c-0.24,1.44-0.34,2.91-0.62,4.35
			c-0.23,1.2-0.66,2.37-0.93,3.57c-0.07,0.33,0.02,0.76,0.19,1.06c1.08,1.93,2.55,3.55,4.23,4.97c0.23,0.2,0.44,0.42,0.66,0.64
			c1.18,1.18,1.25,2.28-0.05,3.34c-2.11,1.72-4.31,3.35-6.52,4.94c-1.62,1.16-3.33,2.18-4.98,3.3c-0.95,0.65-1.77,0.85-2.1-0.93
			c-0.39-2.1-1.67-3.57-3.44-4.64c-0.87-0.52-2.8-0.31-3.42,0.3c-0.88,0.86-1.17,2.55-0.37,3.7c1.05,1.5,2.26,2.89,3.48,4.27
			c1.01,1.14,1.76,2.37,2.1,3.87c0.1,0.46,0.42,0.97,0.79,1.25c1.6,1.22,2.65,2.83,3.64,4.53c0.83,1.43,1.82,2.79,2.91,4.04
			c1.8,2.09,2.2,4.34,1.79,7.06c-0.43,2.83-2.04,4.58-4.24,5.99c-0.56,0.36-1.34,0.36-2.01,0.57c-0.24,0.08-0.45,0.28-0.67,0.42
			c0.2,0.09,0.4,0.22,0.61,0.27c1.51,0.31,2.2,1.53,2.97,2.67c1.06,1.57,2.14,3.12,3.15,4.72c0.67,1.07,1.51,2.15,1.76,3.33
			c0.29,1.39,0.11,2.9-0.02,4.34c-0.24,2.69-0.63,5.36-0.9,8.05c-0.28,2.76-0.29,5.57-0.77,8.29c-0.55,3.13-1.3,6.26-2.32,9.27
			c-1.32,3.88-3,7.64-4.5,11.47c-1.28,3.27-2.44,6.59-2.49,10.15c-0.02,1.72,0.21,3.43,0.26,5.15c0.04,1.49,0,2.98-0.05,4.47
			c-0.06,1.88-0.11,3.77-0.26,5.65c-0.17,2.17-0.92,4.21-1.46,6.31c-0.41,1.58-1.28,2.79-2.03,4.12c-1.7,3.01-3.44,6.01-5.24,8.96
			c-1.7,2.79-4.14,4.92-6.58,7.04c-0.85,0.73-1.49,1.71-2.39,2.37c-1.06,0.78-2.34,1.27-3.45,2c-2.46,1.64-5.18,2.59-7.98,3.44
			c-3.08,0.94-6.16,0.68-9.22,0.06c-2.67-0.54-4.61-2.34-6.54-4.15c-0.99-0.93-2.29-1.57-3.2-2.57c-3.14-3.46-6.2-6.99-8.17-11.31
			c-0.9-1.98-1.8-3.96-2.8-5.9c-1.11-2.17-2.83-3.85-4.7-5.38c-1-0.82-1.97-1.68-3.02-2.42c-0.73-0.51-1.54-0.95-2.37-1.27
			c-3.38-1.31-5.73-3.79-7.71-6.7c-1-1.47-1.95-2.95-3.34-4.14c-1.07-0.91-2.16-1.51-3.53-1.62c-2.46-0.21-4.74-0.88-6.7-2.42
			c-0.49-0.39-1.04-0.87-1.25-1.43c-0.84-2.25-2.53-3.82-4.04-5.59c-1.53-1.78-2.83-3.78-4.03-5.8c-0.92-1.55-1.56-3.27-2.24-4.95
			c-0.36-0.9-0.52-1.88-0.77-2.83c-0.23-0.88-0.55-1.74-0.68-2.63c-0.1-0.72-0.02-1.48,0.06-2.22c0.09-0.84-0.03-1.47-0.71-2.13
			c-0.89-0.87-1.55-1.98-2.26-3.03c-1.6-2.36-3.2-4.72-4.75-7.12c-0.57-0.89-0.98-1.89-1.48-2.84c-0.96-1.82-2.36-3.3-3.71-4.84
			c-1.4-1.59-2.76-3.29-3.77-5.14c-1.16-2.14-1.2-4.59-0.82-6.99c0.3-1.93,0.69-3.86,1.04-5.78c0.27-1.47,0.57-2.94,0.78-4.41
			c0.21-1.42,0.14-2.78-0.34-4.21c-0.56-1.69-0.71-3.48-0.36-5.34c0.28-1.47-0.02-3.05,0.01-4.58c0.05-2.78,0.13-5.58,0.98-8.23
			c0.71-2.21,1.76-4.32,2.74-6.44c0.51-1.1,1.29-2.09,1.76-3.2c0.2-0.48-0.02-1.17-0.12-1.75c-0.33-1.92-0.7-3.84-1.05-5.76
			c-0.03-0.14-0.06-0.28-0.08-0.42c-0.34-3.02-0.77-6.04-0.99-9.07c-0.27-3.67,0.95-6.85,3.53-9.51c1.01-1.04,1.86-2.22,2.92-3.2
			c1.49-1.38,3.11-2.64,4.67-3.95c0.13-0.11,0.29-0.18,0.4-0.3c0.14-0.17,0.24-0.37,0.35-0.56c-0.23-0.01-0.47-0.07-0.68-0.01
			c-0.25,0.06-0.49,0.21-0.72,0.34c-2.12,1.19-4.27,2.32-6.33,3.6c-1.63,1.02-3.16,2.21-4.71,3.35c-1.22,0.9-1.7,0.78-2.11-0.63
			c-0.66-2.31-1.18-4.66-1.98-6.92c-0.69-1.95-1.69-3.8-2.56-5.69c-0.22-0.49-0.53-0.95-0.68-1.45c-0.21-0.74,0.21-1.22,0.86-1.53
			c1.75-0.84,3.51-1.66,5.25-2.51c0.84-0.41,1.6-1.06,2.47-1.29c1.78-0.46,3.62-0.71,5.43-1.04c1.33-0.25,1.37-0.34,0.61-1.45
			c-1.22-1.78-2.46-3.55-3.69-5.32c-0.04-0.05-0.01-0.15-0.05-0.21c-1.24-1.82-1.25-1.83,0.8-2.45c1.6-0.49,2.96-1.39,4.23-2.44
			c2.76-2.28,5.84-4.04,8.98-5.73c0.89-0.48,1.61-1.29,2.41-1.95c0.21-0.17,0.38-0.4,0.6-0.54c1.27-0.76,1.86-0.67,2.39,0.83
			c0.4,1.16,0.7,2.37,0.88,3.58C137.76,58.14,139.09,61.32,140.45,64.57 M200.43,264.82c0.37-0.07,0.78-0.06,1.11-0.22
			c2.59-1.19,5.17-2.38,7.74-3.62c0.96-0.46,1.95-0.91,2.78-1.56c1.06-0.83,1.98-1.83,2.95-2.78c2.29-2.23,4.61-4.43,6.21-7.25
			c0.75-1.33,1.39-2.73,2.23-3.99c1.71-2.59,3.48-5.12,4.46-8.11c0.88-2.68,1.54-5.38,1.54-8.22c0.01-2.2,0.09-4.4,0.09-6.6
			c0-2.18-0.18-4.36-0.07-6.54c0.1-1.82,0.3-3.68,0.82-5.41c0.63-2.12,1.64-4.13,2.48-6.19c1.03-2.53,2.17-5.02,3.03-7.6
			c0.96-2.9,1.89-5.84,2.43-8.84c0.62-3.47,0.81-7.02,1.18-10.54c0.29-2.82,0.41-5.67,0.91-8.46c0.32-1.81,0.01-3.31-0.93-4.78
			c-0.75-1.17-1.55-2.33-2.18-3.57c-1.54-3.03-3.87-5.27-6.84-6.76c-1.04-0.52-2.46-0.64-3.63-0.46c-1.49,0.23-2.95,0.86-4.36,1.47
			c-1.21,0.53-2.45,1.27-3.66,0.45c-0.98-0.67-2.01-1-3.11-1.24c-0.6-0.13-1.12-0.1-1.21,0.76c-0.06,0.55-0.34,1.08-0.53,1.61
			c-1.25,3.43-2.52,6.86-3.74,10.3c-0.37,1.05-0.08,2.06,0.73,2.82c1.68,1.57,3.45,3.05,5.09,4.66c1.14,1.13,2.23,2.34,3.14,3.65
			c1.16,1.66,2.51,3.21,3.02,5.29c0.29,1.18,0.89,2.34,1.58,3.35c1.35,1.98,3.41,3.08,5.61,3.89c0.72,0.27,1.07,0.5,0.63,1.34
			c-0.56,1.07-2.54,2.21-3.82,2.02c-0.69-0.1-1.07,0.19-1.04,0.86c0.04,1.24,0.18,2.48,0.23,3.72c0.07,1.57,0.19,3.15,0.13,4.71
			c-0.1,2.51-0.29,5.02-0.51,7.52c-0.1,1.09-0.33,2.17-0.62,3.22c-0.08,0.28-0.75,0.67-0.94,0.57c-0.34-0.16-0.68-0.64-0.73-1.02
			c-0.36-2.88-0.63-5.76-0.98-8.64c-0.08-0.71-0.44-1.38-0.51-2.09c-0.17-1.72-0.25-3.44-0.39-5.16c-0.01-0.16-0.19-0.3-0.28-0.46
			c-0.12,0.12-0.31,0.23-0.34,0.37c-0.46,2.01-1.05,4-1.28,6.03c-0.18,1.58,0.15,3.22,0.15,4.83c0,0.4-0.31,1.03-0.64,1.16
			c-0.61,0.25-0.94-0.23-1.02-0.85c-0.16-1.29-0.42-2.58-0.47-3.87c-0.08-2,0-4.01-0.04-6.01c-0.03-1.24,0.11-2.57-0.3-3.7
			c-0.71-1.96-0.62-3.92-0.69-5.91c-0.05-1.22-0.21-2.47-0.55-3.64c-0.49-1.7-1.56-3.09-2.78-4.35c-1.25-1.28-2.43-2.65-3.76-3.84
			c-0.87-0.78-2.67-0.46-3.2,0.54c-0.76,1.43-1.47,2.92-1.96,4.46c-0.56,1.8-0.72,3.72-1.29,5.52c-1.23,3.89-0.33,7.5,1.09,11.11
			c1.03,2.63,2.13,5.26,2.84,7.99c0.68,2.64,0.92,5.39,1.33,8.1c0.15,0.98,0.19,1.97,0.34,2.95c0.17,1.06,0.26,2.16,0.64,3.15
			c0.92,2.41,0.78,4.84,0.42,7.3c-0.04,0.26-0.38,0.47-0.57,0.7c-0.25-0.22-0.63-0.39-0.72-0.66c-0.31-0.89-0.49-1.82-0.76-2.72
			c-0.09-0.3-0.32-0.57-0.48-0.85c-0.12,0.31-0.35,0.63-0.35,0.94c0.01,1.1,0.02,2.21,0.17,3.29c0.2,1.47,0.57,2.92,0.76,4.39
			c0.05,0.38-0.19,0.97-0.5,1.18c-0.46,0.31-0.96,0.12-1.32-0.43c-0.81-1.26-1.58-2.53-1.82-4.04c-1.01-6.23-1.99-12.47-3.03-18.69
			c-0.28-1.67-0.72-3.31-1.14-4.96c-0.06-0.24-0.36-0.43-0.54-0.64c-0.19,0.17-0.45,0.31-0.54,0.53c-0.75,1.73-1.34,3.56-2.25,5.21
			c-1.08,1.96-2.36,3.81-3.67,5.63c-1.29,1.79-1.61,3.71-1.33,5.84c0.21,1.58,0.34,3.18,0.45,4.78c0.16,2.3,0.07,4.64,0.46,6.9
			c0.47,2.76,0.72,5.5,0.61,8.29c-0.11,2.79-0.27,5.55-1.49,8.14c-0.28,0.6-0.31,1.32-0.62,1.89c-0.2,0.35-0.73,0.51-1.11,0.76
			c-0.11-0.43-0.31-0.85-0.32-1.28c-0.06-1.36,0.11-2.75-0.1-4.08c-0.56-3.55-1.27-7.07-1.93-10.6c-0.07-0.36-0.24-0.7-0.41-1.04
			c-0.1-0.2-0.28-0.37-0.42-0.56c-0.14,0.24-0.36,0.46-0.41,0.72c-0.15,0.95-0.28,1.91-0.35,2.88c-0.16,2.04-0.26,4.08-0.43,6.12
			c-0.03,0.31-0.3,0.77-0.56,0.85c-0.29,0.09-0.77-0.07-1.02-0.29c-1.4-1.27-1.64-3.03-1.75-4.75c-0.1-1.68,0.09-3.37,0.09-5.06
			c0-0.7-0.39-1.23-1.15-0.95c-0.94,0.34-1.88,0.75-2.72,1.29c-0.95,0.61-1.78,1.41-2.68,2.09c-0.74,0.57-1.47,0.29-1.39-0.61
			c0.11-1.34,0.06-2.81,1.35-3.77c0.56-0.42,1.04-0.95,1.6-1.37c1.85-1.42,4.13-2.34,5.08-4.78c1.23-3.15,2.7-6.2,3.91-9.35
			c0.93-2.42,1.52-4.98,2.45-7.41c1.1-2.85,3.02-5.23,4.68-7.77c0.83-1.27,1.29-2.91,1.49-4.44c0.23-1.74-0.12-3.54-0.02-5.31
			c0.26-4.58,1.57-8.96,2.79-13.35c0.14-0.52,0.48-0.98,0.72-1.47c0.13-0.27,0.25-0.55,0.38-0.83c-0.31,0.08-0.67,0.08-0.91,0.26
			c-1.67,1.21-3.32,2.45-4.96,3.69c-1.96,1.49-3.91,3-5.87,4.48c-1.09,0.82-2.31,1.49-3.29,2.42c-1.7,1.63-3.33,3.35-4.85,5.15
			c-1.28,1.51-2.4,3.16-3.51,4.81c-0.84,1.25-1.47,2.64-2.34,3.86c-1.61,2.29-3.3,4.52-5,6.74c-1.04,1.35-2.11,2.68-3.27,3.93
			c-1.33,1.43-2.86,2.5-4.94,2.64c-2.09,0.14-4.18,0.4-6.26,0.72c-1.18,0.18-2.32,0.57-3.48,0.83c-0.42,0.1-0.89,0.32-1.11-0.38
			c-0.21-0.71,0.13-1.09,0.69-1.28c1.28-0.42,2.58-0.8,3.88-1.16c1.08-0.3,2.27-0.36,3.24-0.86c3.08-1.59,5.47-3.95,6.91-7.14
			c0.57-1.27,0.92-2.65,1.35-3.98c0.07-0.23,0.01-0.5,0.01-0.76c-0.21,0.11-0.49,0.16-0.61,0.33c-1.06,1.48-2.44,2.62-3.88,3.7
			c-0.31,0.23-0.74,0.29-1.11,0.44c-0.05-0.51-0.11-1.02-0.14-1.53c-0.01-0.08,0.11-0.18,0.17-0.27c0.91-1.15,1.83-2.3,2.74-3.46
			c0.13-0.17,0.2-0.39,0.29-0.59c-0.19-0.05-0.39-0.16-0.58-0.14c-1.26,0.14-2.53,0.22-3.76,0.49c-2.16,0.47-4.3,1.02-6.42,1.62
			c-1.03,0.29-2.02,0.77-3.01,1.2c-1.04,0.46-2.05,1-3.1,1.43c-1.88,0.78-3.76,1.53-5.67,2.22c-0.37,0.13-0.86-0.07-1.29-0.11
			c0.07-0.41,0.06-0.86,0.24-1.23c0.22-0.48,0.57-0.9,0.89-1.32c0.63-0.84,1.12-1.9,1.94-2.47c2.69-1.88,5.43-3.61,8.89-3.96
			c4.56-0.47,8.93-1.82,13.12-3.7c2.22-0.99,4.11-2.45,5.87-4.12c1.85-1.75,3.83-3.36,5.75-5.03c0.13-0.11,0.23-0.25,0.35-0.38
			c-0.14-0.09-0.28-0.24-0.43-0.25c-0.83-0.09-1.71-0.35-2.49-0.17c-1.88,0.44-3.71,1.07-5.56,1.64c-2.9,0.89-5.76,1.91-8.7,2.66
			c-2.51,0.64-5.1,0.99-7.66,1.43c-0.22,0.04-0.63-0.17-0.7-0.36c-0.08-0.23,0.01-0.68,0.19-0.82c1.21-0.93,2.46-1.81,3.72-2.68
			c1.78-1.22,3.57-2.42,5.37-3.62c1.08-0.72,2.16-1.42,3.23-2.15c0.15-0.1,0.23-0.32,0.34-0.48c-0.23-0.11-0.45-0.3-0.68-0.31
			c-0.68-0.04-1.36,0.05-2.04-0.01c-2.27-0.18-4.53-0.4-6.79-0.6c-1.6-0.14-3.21-0.22-4.8-0.44c-0.36-0.05-0.89-0.48-0.95-0.81
			c-0.12-0.63,0.45-0.79,1.01-0.93c1.55-0.39,3.13-0.73,4.61-1.3c2.33-0.89,4.74-1.1,7.15-0.81c1.5,0.18,2.95,0.8,4.41,1.26
			c1.62,0.51,3.2,1.27,4.86,1.54c2.63,0.43,5.31,0.75,7.97,0.75c2.04,0,4.13-0.36,6.09-0.94c2.49-0.74,4.87-1.85,7.29-2.82
			c2.93-1.18,5.52-2.83,7.37-5.46c0.38-0.54,0.65-1.16,1.01-1.71c1.24-1.86,2.62-3.64,3.7-5.59c0.85-1.52,1.45-3.2,1.96-4.86
			c0.53-1.74,1.17-3.56,1.15-5.33c-0.03-2.14-0.64-4.28-1.13-6.39c-0.15-0.64-0.69-1.2-1.09-1.77c-0.42-0.6-0.25-1.71,0.46-2.48
			c0.56-0.6,1.11-0.3,1.66,0.04c0.5,0.31,1.08,0.52,1.53,0.89c1.92,1.59,3.8,3.23,5.71,4.83c0.2,0.17,0.49,0.24,0.73,0.35
			c0-0.23,0.05-0.48,0-0.7c-0.5-2-0.96-4.02-1.56-5.99c-0.5-1.66-1.11-3.29-1.77-4.9c-0.9-2.15-0.29-4.09,0.67-6.01
			c0.13-0.27,0.31-0.52,0.47-0.77c-0.33-0.04-0.71-0.2-0.99-0.09c-1.63,0.61-3.07-0.29-4.58-0.53c-0.23-0.04-0.39-0.55-0.58-0.84
			c0.29-0.16,0.56-0.39,0.87-0.47c0.19-0.05,0.43,0.17,0.66,0.22c1.85,0.37,3.69,0.67,5.57,0.15c1.89-0.52,3.77-1.09,5.68-1.47
			c2.69-0.53,5.3,0.14,7.81,1c1.04,0.35,1.92,1.15,2.88,1.74c0.17,0.1,0.37,0.14,0.56,0.2c0-0.2,0.03-0.42-0.02-0.61
			c-0.04-0.15-0.18-0.28-0.28-0.41c-1.56-1.92-3.08-3.87-4.7-5.73c-1.12-1.28-1.12-2.69-0.59-4.1c0.51-1.37,1.75-2.08,3.11-2.24
			c1.9-0.22,3.63,0.48,4.89,1.93c0.86,0.99,1.52,2.18,2.16,3.34c0.42,0.76,0.73,0.78,1.39,0.29c1.74-1.28,3.48-2.57,5.33-3.68
			c1.36-0.82,2.66-1.66,3.76-2.81c1.36-1.42,1.38-2-0.03-3.4c-1.04-1.03-2.34-1.9-3.06-3.12c-1.14-1.94-2.75-3.05-4.74-3.81
			c-1.51-0.57-3.01-1.15-4.51-1.74c-1.77-0.7-3.65-0.7-5.4-0.3c-1.42,0.33-2.72,1.25-4.02,2c-1.32,0.76-2.57,1.64-3.88,2.44
			c-0.19,0.12-0.5,0.05-0.75,0.07c0.05-0.35-0.01-0.78,0.18-1.02c0.34-0.44,0.87-0.73,1.26-1.15c2.09-2.21,4.08-4.53,6.28-6.62
			c1.74-1.64,3.61-3.23,5.67-4.41c1.63-0.94,3.62-1.29,5.48-1.79c0.86-0.23,1.41-0.73,1.48-1.5c0.13-1.48,0.09-2.97,0.07-4.46
			c0-0.19-0.24-0.39-0.37-0.58c-0.18,0.13-0.43,0.22-0.52,0.39c-0.15,0.29-0.23,0.63-0.26,0.96c-0.1,1.13-0.12,2.28-0.29,3.4
			c-0.05,0.36-0.44,0.67-0.67,1c-0.27-0.31-0.79-0.63-0.78-0.94c0.01-0.96,0.16-1.93,0.38-2.86c0.15-0.63,0.03-0.82-0.56-0.61
			c-0.53,0.19-1.03,0.48-1.55,0.71c-2.08,0.95-4.21,1.79-6.22,2.86c-2.87,1.54-5.67,3.2-8.45,4.9c-2.66,1.62-5.2,3.42-7.28,5.79
			c-0.21,0.24-0.62,0.55-0.84,0.48c-0.88-0.25-1.33,0.23-1.81,0.8c-1.32,1.55-2.95,2.93-3.94,4.66c-2.11,3.69-2.96,7.72-1.95,11.98
			c0.35,1.45,0.85,2.86,1.21,4.31c0.54,2.17,0.02,4.3-0.32,6.44c-0.18,1.15-0.19,2.34-0.24,3.51c-0.08,1.65,0.04,3.33-0.24,4.94
			c-0.25,1.5-1,2.9-1.37,4.39c-0.83,3.35-1.55,6.73-2.36,10.08c-0.08,0.32-0.47,0.56-0.72,0.84c-0.17-0.39-0.55-0.82-0.47-1.15
			c0.36-1.52,0.85-3.01,1.27-4.51c0.66-2.4,1.33-4.8,1.94-7.22c0.33-1.32,0.65-2.65,0.79-4c0.23-2.3,0.02-4.69,0.55-6.91
			c0.45-1.92-0.14-3.64-0.25-5.43c-0.11-1.74-0.87-3.43-1.3-5.16c-0.12-0.49-0.04-1.03-0.09-1.54c-0.08-0.81-0.34-1.64-0.25-2.44
			c0.15-1.45,0.52-2.87,0.77-4.31c0.38-2.21,1.54-4.06,2.91-5.72c1.6-1.95,3.35-3.8,5.19-5.52c2.12-1.99,4.42-3.79,6.64-5.67
			c0.4-0.34,0.98-0.68,0.04-1.09c-0.22-0.1-0.43-0.21-0.64-0.34c-1.34-0.81-2.93-1.48-3.54-2.97c-0.69-1.71-1.2-3.51-1.1-5.45
			c0.18-3.35,1.14-6.42,2.86-9.27c0.14-0.23,0.24-0.49,0.36-0.74c-0.3,0-0.6-0.02-0.89,0.02c-0.15,0.02-0.29,0.16-0.44,0.23
			c-1.3,0.62-2.58,1.27-3.89,1.86c-3.64,1.63-6.92,3.85-10.03,6.31c-2.96,2.34-5.72,4.94-8.74,7.21c-2.89,2.17-5.92,4.17-9.01,6.04
			c-2.36,1.43-4.8,2.92-7.41,3.72c-3.9,1.21-7.98,1.52-11.99,0.11c-0.69-0.24-1.13-0.04-1.29,0.7c-0.08,0.36-0.19,0.71-0.24,1.07
			c-0.32,2.58-0.7,5.15-0.92,7.74c-0.12,1.42-0.06,2.87,0.09,4.29c0.12,1.12,0.5,2.21,0.8,3.3c0.24,0.86,0.45,1.75,0.83,2.55
			c0.65,1.39,1.54,2.67,2.09,4.09c0.33,0.86,0.78,0.67,1.3,0.53c1.51-0.4,3-0.91,4.52-1.23c0.58-0.12,1.42-0.07,1.84,0.27
			c1.19,0.96,2.22,2.15,2.4,3.75c0.19,1.71,0.3,3.43,0.3,5.15c-0.02,4.29-0.63,8.47-2.52,12.39c-0.94,1.94-1.78,3.94-2.87,5.79
			c-1.16,1.95-1.54,4.03-1.47,6.21c0.05,1.52,0.45,1.66,1.78,0.92c1.01-0.56,2.05-1.02,3.2-0.4c1.8,0.97,3.53,2.1,5.4,2.91
			c1.19,0.52,2.71,1.09,3.85,0.78c2.88-0.78,5.73-1.58,8.73-1.73c0.31-0.02,0.66,0.03,0.93-0.1c1.35-0.65,2.65-1.41,4.02-2.02
			c1.21-0.54,2.25-1.78,3.81-1.04c0.37,0.18,0.74,0.36,1.11,0.55c-0.31,0.25-0.61,0.51-0.92,0.74c-0.08,0.06-0.21,0.06-0.31,0.06
			c-2.2,0.08-3.92,1.31-5.7,2.38c-0.2,0.12-0.47,0.38-0.46,0.56c0.05,0.89-0.03,0.98-0.95,0.9c-2.05-0.18-4.09-0.48-6.14,0.12
			c-1.38,0.41-2.79,0.77-4.22,0.98c-1.3,0.19-2.64,0.28-3.88-0.37c-1.59-0.84-3.16-1.71-4.76-2.52c-1.23-0.62-2.42-0.86-3.68,0.13
			c-1.39,1.1-2.67,0.5-3.08-1.25c-0.55-2.39-0.15-4.65,0.82-6.85c0.67-1.51,0.67-1.51-0.92-1.59c-0.27-0.01-0.54-0.08-0.8-0.06
			c-2.14,0.16-4.28,0.33-6.42,0.52c-3.22,0.29-6.44,0.58-9.66,0.92c-0.71,0.08-1.39,0.46-2.1,0.57c-1.58,0.25-2.77,1.22-3.96,2.13
			c-0.7,0.53-1.28,1.33-1.67,2.13c-0.96,1.99-1.17,4.15-1.28,6.34c-0.04,0.75-0.04,1.69-0.46,2.21c-1.16,1.41-2.45,2.75-3.85,3.92
			c-1.26,1.06-2.81,1.78-4.12,2.79c-1.8,1.39-3.38,3.01-3.96,5.33c-0.74,2.99-0.71,6-0.18,9.02c0.33,1.84,0.73,3.67,1,5.51
			c0.23,1.62,0.54,3.27,0.42,4.88c-0.13,1.69,0.47,3.12,0.95,4.61c0.37,1.14,0.96,2.22,1.44,3.33c0.97,2.22,2.32,4.19,3.95,5.98
			c1.26,1.38,2.45,2.84,3.58,4.32c0.54,0.71,0.71,1.76,1.34,2.32c1.56,1.38,3.43,2.36,5.55,2.45c3.46,0.15,5.86,1.87,7.66,4.67
			c0.75,1.17,1.56,2.31,2.35,3.46c1.53,2.23,3.8,3.43,6.19,4.48c0.63,0.28,1.24,0.64,1.79,1.05c0.97,0.73,1.89,1.54,2.84,2.31
			c0.79,0.64,1.58,1.28,2.38,1.9c2.49,1.94,3.48,4.86,4.87,7.52c0.69,1.31,1.14,2.74,1.83,4.04c1.72,3.22,3.94,6.1,6.46,8.75
			c1.06,1.12,2,2.3,3.48,2.96c0.79,0.35,1.44,1.01,2.17,1.51c1.09,0.75,2.11,1.69,3.31,2.17
			C193.99,265.21,197.11,265.17,200.43,264.82 M114.18,170.82c0.19,0.19,0.39,0.37,0.57,0.58c1.2,1.39,2.72,2.63,3.53,4.22
			c1.53,3.02,3.51,5.72,5.32,8.54c0.84,1.31,1.56,2.71,2.34,4.06c0.12,0.21,0.31,0.39,0.46,0.59c0.05-0.26,0.19-0.54,0.14-0.78
			c-0.28-1.31-0.58-2.61-0.93-3.9c-0.62-2.26,0.03-4.45,0.28-6.66c0.06-0.56,0.15-1.15,0.4-1.64c1.2-2.32,3.04-4.1,5.08-5.65
			c1.64-1.24,3.38-2.36,5.03-3.59c0.51-0.38,1.11-0.9,1.25-1.46c0.48-1.89,0.87-3.82,1.12-5.76c0.19-1.5,0.51-2.93,1.35-4.19
			c1.77-2.66,4.46-3.99,7.43-4.6c3.08-0.64,6.24-0.91,9.36-1.33c0.13-0.02,0.27,0.03,0.4,0.03c2.7-0.09,5.4-0.19,8.1-0.28
			c0.57-0.02,1.16,0.08,1.72-0.01c0.39-0.06,0.88-0.24,1.08-0.54c0.6-0.89,1.11-1.85,1.59-2.81c1.05-2.07,2.18-4.13,2.29-6.53
			c0.01-0.22-0.02-0.58-0.14-0.64c-1.5-0.73-2.32-2.15-3.18-3.41c-2.07-3.01-4.05-6.08-5.88-9.24c-2.19-3.79-3.82-7.79-4.29-12.23
			c-0.29-2.8-0.17-5.56,0.16-8.32c0.26-2.2,0.57-4.4,1.77-6.34c0.97-1.57,2.08-2.92,3.84-3.79c1.4-0.7,2.75-1.24,4.31-1.14
			c3.03,0.18,5.86,1,8.36,2.79c0.51,0.36,0.98,0.45,1.57,0.04c1.11-0.78,2.31-1.44,3.44-2.19c3.29-2.18,6.58-4.36,9.84-6.59
			c1.27-0.87,1.36-1.33,0.58-2.63c-1.01-1.68-2.02-3.37-3.17-4.94c-1.2-1.64-2.54-3.17-4.37-4.17c-0.51-0.28-0.89-0.78-1.38-1.11
			c-1.9-1.24-3.61-2.85-6.09-2.95c-1.74-0.07-3.48-0.44-5.2-0.36c-2.24,0.11-4.58,0.18-6.67,0.89c-2.96,1.01-5.78,2.49-8.58,3.93
			c-3.46,1.78-7.12,3.27-9.76,6.36c-1.1,1.3-2.42,2.42-3.5,3.74c-2.49,3.07-3.33,6.92-4.73,10.49c-0.99,2.53-1.6,5.21-2.31,7.84
			c-1.37,5.05-1.64,10.14-0.26,15.24c0.19,0.72,0.5,1.41,0.79,2.1c0.53,1.28,1.05,2.55,1.61,3.82c0.85,1.94,1.66,3.89,2.62,5.78
			c0.97,1.93,2.08,3.79,3.16,5.66c0.86,1.49,1.61,3.1,2.71,4.4c1.62,1.91,3.51,3.58,5.27,5.37c0.26,0.27,0.44,0.63,0.65,0.95
			c-0.56,0.19-1.11,0.48-1.68,0.52c-0.35,0.02-0.84-0.25-1.08-0.55c-2.36-2.84-4.97-5.49-6.71-8.82c-1.09-2.09-2.56-3.98-3.57-6.1
			c-1.25-2.62-2.17-5.39-3.31-8.07c-0.32-0.75-0.75-1.61-1.38-2.04c-1.4-0.93-2.98-1.57-4.45-2.41c-0.96-0.55-1.85-1.23-2.76-1.86
			c-1.03-0.72-1.95-1.81-3.08-2.13c-2.63-0.74-5.32-0.31-7.25,1.67c-1.36,1.4-2.25,3.3-3.18,5.07c-0.65,1.24-0.97,2.64-1.47,3.95
			c-1.2,3.15-1.44,6.4-1.16,9.73c0.07,0.83,0.03,1.69-0.08,2.52c-0.23,1.77-0.65,3.58,0.04,5.28c0.68,1.67,0.81,3.38,0.58,5.07
			c-0.39,2.86-1.09,5.67-1.55,8.52c-0.27,1.65-0.48,3.33-0.44,4.99C110.8,166.57,112.32,168.69,114.18,170.82 M183.85,186.9
			c0.11-0.07,0.23-0.14,0.34-0.22c2.89-2.13,5.72-4.35,8.68-6.38c2.48-1.7,5.01-3.3,6.55-6.02c0.18-0.32,0.71-0.49,1.11-0.63
			c0.22-0.08,0.6-0.02,0.75,0.13c0.12,0.12,0.05,0.51-0.04,0.73c-0.43,1.03-0.88,2.06-1.37,3.07c-2.13,4.4-3.53,9.03-4.16,13.87
			c-0.27,2.06-0.56,4.16-0.4,6.21c0.2,2.46-0.48,4.65-1.54,6.7c-1.38,2.67-3.07,5.18-4.55,7.8c-0.53,0.93-1.1,1.96-1.22,2.99
			c-0.3,2.65-1.41,5.02-2.33,7.44c-0.86,2.25-1.89,4.46-3.05,6.57c-0.96,1.75-2.21,3.31-3.99,4.42c-1.29,0.81-2.42,1.89-3.56,2.91
			c-0.21,0.19-0.16,0.66-0.23,1c0.32-0.16,0.64-0.32,0.95-0.49c0.06-0.03,0.08-0.12,0.13-0.17c1.52-1.6,3.44-2.46,5.6-2.67
			c0.41-0.04,1.27,0.59,1.27,0.93c0.03,1.67-0.22,3.35-0.23,5.02c-0.01,1.41,0.15,2.83,0.29,4.23c0.02,0.21,0.37,0.39,0.57,0.59
			c0.09-0.24,0.24-0.48,0.24-0.73c0.01-0.62-0.13-1.24-0.07-1.85c0.24-2.46,0.52-4.91,0.8-7.36c0.1-0.88,0.78-1.23,1.45-0.63
			c1.53,1.37,2.54,2.97,2.72,5.18c0.23,2.83,0.83,5.62,1.29,8.43c0.03,0.19,0.22,0.35,0.33,0.53c0.17-0.21,0.49-0.42,0.49-0.64
			c0.1-3.3,0.49-6.6,0.16-9.91c-0.24-2.5-0.53-4.99-0.75-7.5c-0.27-3.16-0.62-6.31-0.82-9.47c-0.04-0.68-0.01-1.49,0.31-2.05
			c1.04-1.88,2.25-3.67,3.37-5.5c0.6-0.98,1.17-1.97,1.69-3c0.89-1.77,1.69-3.58,2.6-5.34c0.34-0.66,0.75-1.41,1.7-1.31
			c1.09,0.11,1.1,1.16,1.49,1.85c0.15,0.27,0.13,0.63,0.19,0.95c0.18,0.95,0.35,1.91,0.53,2.86c0.33,1.78,0.68,3.55,0.97,5.34
			c0.08,0.49-0.08,1.02-0.02,1.51c0.22,1.6,0.46,3.2,0.76,4.78c0.2,1.06,0.62,2.09,0.77,3.16c0.27,1.83,0.4,3.68,0.61,5.52
			c0.01,0.12,0.18,0.23,0.27,0.35c0.13-0.12,0.31-0.21,0.36-0.35c0.08-0.21,0.16-0.48,0.09-0.68c-0.62-1.87-0.14-3.76-0.12-5.64
			c0-0.32,0.34-0.83,0.61-0.9c0.32-0.08,0.82,0.14,1.08,0.4c0.29,0.29,0.39,0.77,0.6,1.15c0.12,0.22,0.3,0.42,0.45,0.62
			c0.06-0.26,0.16-0.52,0.16-0.78c0-0.28-0.06-0.57-0.15-0.85c-0.29-0.91-0.75-1.79-0.88-2.71c-0.41-2.96-0.66-5.95-1.08-8.91
			c-0.22-1.61-0.54-3.2-1-4.76c-0.43-1.42-0.64-3.01-1.35-4.32c-1.59-2.95-2.63-6.05-2.96-9.38c-0.1-1.04-0.16-2.13,0.03-3.14
			c0.36-1.92,1-3.79,1.37-5.71c0.43-2.23,1.12-4.36,2.15-6.35c1.19-2.29,3.42-3.5,5.72-1.56c2.5,2.11,4.67,4.6,6.36,7.48
			c0.75,1.28,0.97,2.56,1.05,3.93c0.1,1.81,0.06,3.63,0.21,5.43c0.15,1.72,0.46,3.43,0.72,5.14c0.02,0.16,0.2,0.29,0.3,0.43
			c0.19-0.14,0.5-0.26,0.54-0.43c0.24-1.27,0.4-2.56,0.66-3.83c0.07-0.33,0.39-0.76,0.68-0.86c0.25-0.08,0.87,0.2,0.92,0.41
			c0.54,2.17,1.1,4.34,1.43,6.54c0.33,2.19,0.4,4.42,0.61,6.63c0.02,0.23,0.22,0.44,0.33,0.65c0.1-0.23,0.3-0.47,0.29-0.7
			c-0.04-1.3-0.23-2.59-0.15-3.89c0.22-3.45,0.07-6.86-0.67-10.24c-0.08-0.39,0-1.03,0.26-1.22c0.32-0.23,0.91-0.2,1.35-0.11
			c0.78,0.15,1.53,0.45,2.31,0.61c0.2,0.04,0.46-0.19,0.69-0.29c-0.13-0.19-0.22-0.45-0.4-0.56c-1.12-0.74-2.31-1.37-3.37-2.18
			c-1.58-1.2-2.63-2.77-3.11-4.75c-0.23-0.94-0.57-1.92-1.1-2.72c-1.19-1.8-2.44-3.58-3.83-5.22c-1.19-1.39-2.6-2.6-3.94-3.85
			c-0.61-0.57-1.38-0.97-1.95-1.57c-0.83-0.87-1.44-1.89-1.4-3.16c0.08-2.53,1.37-4.68,2.22-6.95c1.08-2.88,2.78-5.59,2.51-8.82
			c-0.11-1.33-0.34-2.69-1.63-3.57c-0.62-0.42-1.1-1.04-1.7-1.5c-1.72-1.34-3.46-2.65-5.21-3.96c-0.13-0.09-0.39,0-0.59,0.01
			c0.05,0.19,0.06,0.4,0.15,0.57c0.44,0.82,1.06,1.58,1.33,2.45c0.65,2.06,1.67,4.06,1.17,6.34c-0.23,1.04-0.25,2.13-0.55,3.14
			c-0.61,2.08-1.13,4.23-2.07,6.16c-1.29,2.63-2.95,5.08-4.44,7.62c-1.98,3.37-4.99,5.51-8.48,7.05c-1.43,0.63-2.91,1.13-4.38,1.67
			c-1.76,0.64-3.52,1.31-5.31,1.86c-0.71,0.22-1.59-0.02-2.26,0.26c-1.42,0.59-2.87,0.66-4.35,0.53c-1.96-0.17-3.95-0.27-5.85-0.7
			c-2.14-0.49-4.23-1.23-6.28-2.03c-3.53-1.37-7.06-1.25-10.63-0.28c-0.22,0.06-0.44,0.18-0.61,0.33c-0.12,0.1-0.18,0.28-0.26,0.43
			c0.16,0.06,0.32,0.17,0.48,0.18c3.8,0.19,7.59,0.34,11.39,0.58c0.47,0.03,1.33,0.69,1.29,0.82c-0.2,0.62-0.54,1.31-1.04,1.69
			c-1.27,0.95-2.67,1.74-3.99,2.62c-1.74,1.16-3.46,2.35-5.2,3.5c-0.55,0.37-1.19,0.61-1.73,0.99c-0.22,0.15-0.3,0.52-0.44,0.79
			c0.23,0.01,0.47,0.06,0.69,0.01c0.6-0.15,1.19-0.37,1.78-0.54c1.68-0.46,3.38-0.86,5.04-1.38c2.42-0.76,4.81-1.6,7.21-2.41
			c1.39-0.47,2.77-1.02,4.18-1.4c0.86-0.23,1.8-0.27,2.7-0.29c0.73-0.01,1.46,0.21,2.19,0.22c0.93,0.02,1.32,0.44,0.82,1.19
			c-0.56,0.85-1.28,1.61-2.03,2.32c-1.79,1.7-3.73,3.25-5.44,5.03c-1.96,2.05-4.41,3.58-7.08,4.55c-1.19,0.43-2.37,0.89-3.57,1.27
			c-1.46,0.46-2.92,0.93-4.41,1.24c-2.58,0.54-5.26,0.72-7.74,1.53c-2.31,0.75-4.3,2.28-5.92,4.18c-0.17,0.19-0.22,0.49-0.32,0.73
			c0.27-0.02,0.58,0.04,0.82-0.06c1.23-0.53,2.44-1.13,3.68-1.64c2.01-0.81,3.83-2.11,6.08-2.36c0.78-0.09,1.52-0.46,2.29-0.66
			c2.16-0.55,4.32-1.09,6.49-1.58c0.67-0.15,1.4-0.04,2.06-0.2c0.86-0.21,1.67-0.6,2.51-0.86c0.23-0.07,0.52,0.08,0.78,0.13
			c-0.06,0.21-0.18,0.43-0.18,0.64c0,0.27,0.05,0.76,0.15,0.78c1,0.16,1.39,0.55,1.19,1.54c-0.3,1.46-0.61,2.94-1.11,4.34
			c-0.73,2.04-1.55,4.08-3.16,5.61c-1.01,0.96-2.18,1.76-3.26,2.64c-0.19,0.16-0.32,0.39-0.47,0.59c0.21,0.09,0.44,0.3,0.61,0.26
			c1.01-0.25,2.15-0.34,2.96-0.91c1.11-0.77,2.09-1.76,3-2.79c0.73-0.82,1.39-1.71,2.02-2.61c1.85-2.65,3.93-5.13,5.76-7.79
			c0.88-1.28,1.42-2.79,2.32-4.06c1.25-1.77,2.58-3.5,4.06-5.08C180.23,190.16,182.04,188.64,183.85,186.9 M116.84,87.17
			c0.4-0.29,0.78-0.65,1.22-0.87c1.05-0.53,2.22-0.86,3.16-1.52c1.57-1.1,3.29-1.75,5.1-2.16c0.89-0.2,1.7-0.33,2.35-1.04
			c0.4-0.43,0.93-0.77,1.45-1.05c0.98-0.52,2.44-0.71,3.35-0.09c1.71,1.17,2.75,2.77,3.22,4.68c0.55,2.24,1.01,4.52,1.24,6.81
			c0.15,1.47,0.13,3.01-0.74,4.41c-1.34,2.14-2.4,4.41-2.27,7.03c0.01,0.26,0.24,0.5,0.36,0.76c0.15-0.22,0.36-0.43,0.43-0.68
			c0.4-1.51,0.67-3.06,1.18-4.53c0.43-1.25,1.34-2.36,1.66-3.62c0.5-2,0.93-4,2.05-5.77c0.75-1.19,1.38-2.46,2.25-3.56
			c0.99-1.25,2.13-2.4,3.31-3.48c1.44-1.33,2.59-3.06,4.66-3.62c0.4-0.11,0.68-0.62,1.02-0.94c-0.36-0.24-0.71-0.47-1.07-0.71
			c-0.15-0.1-0.29-0.21-0.44-0.3c-3.56-2.2-6.57-4.98-8.82-8.51c-1.19-1.88-2.25-3.85-3.21-5.86c-0.67-1.41-1.1-2.94-1.57-4.44
			c-0.58-1.85-1.08-3.73-1.63-5.59c-0.1-0.33-0.26-0.65-0.39-0.97c-0.32,0.19-0.65,0.36-0.95,0.56c-1.3,0.87-2.5,1.93-3.89,2.58
			c-2.42,1.13-4.56,2.58-6.61,4.27c-1.48,1.22-3,2.47-4.96,2.96c-0.53,0.13-0.55,0.47-0.21,0.95c1.58,2.22,3.1,4.48,4.66,6.7
			c0.52,0.74,0.41,1.34-0.43,1.67c-0.16,0.06-0.35,0.08-0.53,0.1c-1.4,0.19-2.79,0.37-4.19,0.55c-0.7,0.09-1.48,0.02-2.1,0.31
			c-2.05,0.96-4.02,2.1-6.06,3.08c-2.79,1.35-2.07,1.66-1.03,3.28c1.35,2.13,2.04,4.43,2.72,6.78c0.38,1.33,0.74,2.67,1.2,3.97
			c0.11,0.31,0.74,0.77,0.8,0.72C114.32,89.14,115.47,88.17,116.84,87.17 M234.25,152.3c2.4-0.75,3.84-2.4,4.41-4.8
			c0.59-2.49,0.15-4.74-1.58-6.74c-1.01-1.17-1.94-2.46-2.67-3.83c-1.86-3.48-4.67-5.89-8.02-7.84c-2.01-1.16-4.23-1.27-6.4-1.5
			c-2.05-0.22-4.04,0.37-5.95,1.24c-1.88,0.85-2.91,2.22-2.91,4.22c0,1.14,0.27,2.32,0.62,3.42c0.61,1.91,1.43,3.75,2.05,5.65
			c0.73,2.2,1.47,4.4,0.97,6.81c-0.19,0.91-0.24,1.97,0.06,2.82c0.21,0.59,1.17,1.39,1.68,1.31c0.91-0.14-0.04-0.83-0.01-1.3
			c0.01-0.07-0.02-0.14-0.04-0.21c-0.48-2.23,0-4.33,1.02-6.28c0.3-0.57,1.03-0.93,1.6-1.33c0.1-0.07,0.37,0.1,0.56,0.16
			c-0.07,0.14-0.13,0.3-0.22,0.43c-0.37,0.5-0.86,0.93-1.12,1.48c-0.87,1.82-1.01,3.72-0.52,5.69c0.13,0.51,0.24,0.66,0.74,0.35
			c0.2-0.12,0.54-0.02,0.81-0.01c-0.1,0.2-0.18,0.41-0.31,0.58c-0.44,0.58-0.2,1.47,0.51,1.48c0.75,0.02,1.57-0.1,2.25-0.41
			c2.57-1.14,5.09-2.28,8.05-1.7C231.21,152.26,232.64,152.23,234.25,152.3 M133.89,100.02c0.18-0.54,0.29-1.12,0.58-1.6
			c0.25-0.43,0.28-0.62-0.17-0.91c-1.9-1.23-2.87-2.97-3.07-5.25c-0.17-2.01-0.6-3.99-0.84-5.99c-0.12-1.01-0.07-2.04-0.09-3.06
			c-0.01-0.28,0-0.56,0-0.84c-0.32,0.13-0.71,0.18-0.96,0.39c-1.11,0.92-2.13,1.94-3.27,2.82c-3.7,2.84-7.14,5.92-9.45,10.04
			c-0.62,1.1-1.12,2.34-1.33,3.57c-0.17,0.99,0.2,2.07,0.29,3.12c0.26,2.93,0.5,5.87,0.75,8.8c0.03,0.32,0.11,0.64,0.17,0.95
			c0.31,1.67,0.6,3.34,0.95,5.01c0.02,0.11,0.55,0.26,0.67,0.17c1.42-1.12,3.04-1.54,4.81-1.61c1.6-0.07,3.15-0.04,4.44,1.16
			c0.83,0.78,1.7,1.57,2.65,2.18c1.55,1,3.18,1.86,4.8,2.75c0.08,0.04,0.48-0.25,0.47-0.33c-0.12-0.53-0.38-1.04-0.47-1.57
			c-0.24-1.46-0.49-2.92-0.58-4.4c-0.1-1.52-0.04-3.05-0.02-4.58c0.02-1.41,0.43-2.93,0.05-4.22
			C133.61,104.45,133.39,102.35,133.89,100.02 M156.55,60.67c-0.39-2.53-0.81-5.05-1.16-7.58c-0.15-1.09-0.8-1.68-1.78-1.6
			c-3.34,0.28-6.42-1.17-9.7-1.35c-1.26-0.07-1.66,0.18-1.54,1.5c0.15,1.5,0.18,3.02,0.25,4.52c0.1,2.22-0.04,4.49,0.36,6.66
			c0.41,2.24,1.28,4.41,2.09,6.57c0.43,1.14,0.93,2.41,1.78,3.21c1.49,1.39,3.24,2.52,4.95,3.65c0.92,0.61,1.92,0.87,3.05,0.21
			c1.55-0.91,3.23-1.61,4.8-2.48c0.28-0.15,0.49-0.8,0.41-1.14c-0.32-1.38-0.78-2.73-1.15-4.1c-0.16-0.59-0.17-1.22-0.35-1.79
			C157.93,64.91,157.25,62.9,156.55,60.67 M175.22,64.46c0.25-1.44,0.47-2.88,0.75-4.32c0.15-0.78-0.15-1.01-0.88-1.04
			c-2.83-0.12-5.35-1.17-7.62-2.81c-0.24-0.17-0.35-1.03-0.19-1.17c0.59-0.49-0.01-0.67-0.17-0.64c-0.43,0.05-1.02-0.09-1.06,0.71
			c-0.05,0.86-0.2,1.72-0.39,2.56c-0.55,2.46-1.08,4.93-1.72,7.36c-0.61,2.31-1.37,4.59-2.03,6.89c-0.08,0.27,0.02,0.58,0.03,0.88
			c0.24-0.1,0.47-0.21,0.71-0.29c1.42-0.49,2.84-0.99,4.28-1.44c0.54-0.17,1.12-0.23,1.69-0.32c1.24-0.2,2.48-0.57,3.72-0.55
			c1.62,0.02,1.86-0.08,2.13-1.71C174.66,67.26,174.98,65.97,175.22,64.46 M215.48,90.89c0.63,0.37,1.22,0.89,1.9,1.09
			c1.42,0.43,2.01,0.43,2.93-0.8c1.01-1.36,1.34-2.88,1.5-4.47c0.11-1.14,0.03-2.3,0.03-3.45c0-2.41,0.06-4.82-0.04-7.22
			c-0.04-1.1-0.59-2.23-1.77-2.37c-1.37-0.17-2.85-0.2-3.87,1.16c-1.78,2.38-2.54,5.17-3.11,7.98c-0.29,1.43-0.3,3-0.04,4.44
			C213.26,88.67,214.14,89.91,215.48,90.89 M232.36,95.67c-0.5,0.2-1.04,0.34-1.51,0.59c-2.92,1.55-5.07,4.02-7.43,6.24
			c-0.2,0.19-0.24,0.55-0.35,0.82c0.3-0.06,0.67-0.04,0.88-0.21c1.69-1.36,3.71-1.49,5.69-1.33c3.05,0.25,5.83,1.49,8.52,2.88
			c0.93,0.48,1.32,0.39,1.55-0.6c0.46-2.04,0.86-4.08,1.27-6.13c0.41-2.02-0.06-2.47-1.83-2.58
			C236.97,95.22,234.76,95.52,232.36,95.67 M171.52,135.93c0.07,0.11,0.12,0.26,0.22,0.33c0.25,0.18,0.53,0.32,0.79,0.47
			c0.03-0.24,0.05-0.49,0.1-0.73c0.42-2.34,0.32-4.7,0.24-7.06c-0.07-2.02-1.44-3.87-3.2-3.86c-1.19,0.01-2.37,0.56-3.57,0.76
			c-1.13,0.19-1.03,0.64-0.57,1.48C167.18,130.38,169.15,133.2,171.52,135.93 M133.69,82.31c-0.37-0.19-0.72-0.48-1.1-0.53
			c-0.23-0.03-0.74,0.31-0.73,0.48c0.02,1.98,0.04,3.97,0.21,5.94c0.12,1.39,0.55,2.74,0.72,4.13c0.16,1.3,0.64,2.39,1.71,3.16
			c0.33,0.24,0.76,0.47,1.13,0.44c0.21-0.02,0.52-0.54,0.55-0.86c0.12-1.2,0.28-2.43,0.16-3.62c-0.16-1.61-0.6-3.19-0.84-4.8
			C135.25,85.09,134.93,83.59,133.69,82.31 M168.98,99.58c1.45-0.23,2.9-0.43,4.34-0.7c0.92-0.18,1.82-0.46,2.72-0.73
			c0.07-0.02,0.11-0.45,0.05-0.49c-0.77-0.45-1.53-1.03-2.37-1.25c-2.01-0.52-4.07-1.19-6.12-1.2c-2.03-0.01-3.77,1.22-5.03,2.92
			c-0.23,0.31-0.44,0.64-0.66,0.96c0.3,0.05,0.6,0.1,0.9,0.14C164.83,99.45,166.82,99.91,168.98,99.58 M169.76,56.26
			c0.25,0.11,0.49,0.23,0.74,0.32c0.75,0.26,1.5,0.56,2.27,0.74c0.22,0.05,0.52-0.25,0.78-0.39c-0.18-0.1-0.35-0.21-0.54-0.29
			c-1.02-0.4-2.04-0.82-3.08-1.18c-0.47-0.16-0.98-0.19-1.47-0.28C168.86,55.52,169.24,55.85,169.76,56.26z"/>
		<path d="M151.58,269.94c0.37-0.02,0.69,0.02,1.02,0.05c-0.08,0.14-0.17,0.39-0.25,0.39c-0.32,0-0.65-0.07-0.97-0.12
			C151.43,270.17,151.48,270.09,151.58,269.94z"/>
		<path d="M188.57,70.05c0.23-0.05,0.41-0.03,0.6-0.02c-0.04,0.11-0.09,0.21-0.13,0.32C188.87,70.27,188.7,70.19,188.57,70.05z"/>
		<path d="M248.5,213.83c-0.21,0.07-0.37,0.09-0.53,0.1c0.06-0.13,0.12-0.27,0.18-0.4C248.29,213.61,248.42,213.69,248.5,213.83z"/>
		<path d="M150.17,192.18c0.63-0.1,1.21-0.15,1.79-0.15c0.12,0,0.24,0.14,0.36,0.22c-0.11,0.07-0.22,0.2-0.32,0.19
			C151.38,192.35,150.65,193.24,150.17,192.18z"/>
		<path d="M209.44,90.53c-0.27,0.14-0.49,0.25-0.72,0.28c-0.13,0.02-0.27-0.09-0.41-0.14c0.11-0.09,0.22-0.19,0.34-0.27
			c0.17-0.11,0.33-0.22,0.52-0.29c0.31-0.11,0.64-0.19,0.96-0.28C209.92,90.04,209.7,90.25,209.44,90.53z"/>
	</g>
</g>
</svg>
