<?xml version="1.0" encoding="utf-8"?>
<!-- Generator: Adobe Illustrator 23.0.4, SVG Export Plug-In . SVG Version: 6.00 Build 0)  -->
<svg version="1.1" xmlns="http://www.w3.org/2000/svg" xmlns:xlink="http://www.w3.org/1999/xlink" x="0px" y="0px"
	 viewBox="0 0 1252 876" style="enable-background:new 0 0 1252 876;" xml:space="preserve">
<style type="text/css">
	.st0{fill:#606060;}
	.st1{fill:#FFFFFF;}
	.st2{font-family:'IndieFlower';}
	.st3{font-size:20px;}
</style>
<g id="mes">
	<path class="st0" d="M1000,775l18,18c0,0,84.21-84.77,94.61-85.88C1123,706,1225,691,1199,592L1000,775z"/>
	<g id="Vorm_26_1_">
		<path class="st1" d="M1109.94,724.42c-6.33,4.86-12.53,9.67-18.63,14.61c-3.12,2.53-6.1,5.24-9.05,7.97
			c-7.19,6.66-14.33,13.38-21.5,20.06c-3.09,2.88-6.16,5.79-9.32,8.59c-3.16,2.81-6.61,5.31-9.56,8.31
			c-2.3,2.34-3.89,5.35-6.05,7.84c-1.96,2.26-4.26,4.24-6.43,6.32c-0.35,0.34-0.83,0.55-1.23,0.84c-1.22,0.85-2.44,0.89-3.48-0.22
			c-2-2.15-3.8-4.49-5.9-6.52c-2.34-2.26-4.91-4.27-7.39-6.39c-0.41-0.35-0.95-0.62-1.26-1.04c-0.98-1.37-0.66-1.95,0.84-2.92
			c1.23-0.8,2.27-1.91,3.34-2.94c3.24-3.11,6.44-6.25,9.68-9.35c1.08-1.03,2.33-1.89,3.34-2.98c5.47-5.88,11.78-10.83,17.83-16.06
			c2.15-1.86,4.11-3.94,6.23-5.84c5.05-4.52,10.15-8.98,15.22-13.48c3.31-2.94,6.58-5.93,9.92-8.84c2.97-2.58,6.12-4.96,8.97-7.66
			c2.2-2.08,4.06-4.52,6.07-6.81c0.61-0.69,1.17-1.43,1.83-2.06c3.95-3.75,7.63-7.88,11.98-11.09c4.3-3.18,7.71-7.16,11.56-10.73
			c3.47-3.21,6.78-6.59,10.22-9.83c4.77-4.48,9.52-8.99,14.41-13.33c4.26-3.78,8.7-7.34,13.06-11c0.27-0.23,0.49-0.51,0.75-0.74
			c5.9-5.2,11.8-10.39,17.7-15.59c2.29-2.02,4.55-4.07,6.82-6.11c4.46-4,9.08-7.83,13.33-12.04c4.67-4.62,8.98-9.61,13.51-14.38
			c0.53-0.55,1.42-0.81,2.2-1.01c0.12-0.03,0.6,0.98,0.76,1.55c1.38,4.95,2.09,9.97,1.82,15.14c-0.12,2.35,0.42,4.74,0.26,7.08
			c-0.29,4.4-0.19,8.83-1.29,13.19c-0.83,3.3-0.95,6.77-1.5,10.15c-0.52,3.17-1.14,6.33-1.82,9.47c-0.98,4.52-2.01,9.03-3.12,13.52
			c-0.47,1.9-1.18,3.74-1.86,5.58c-2.74,7.44-6.15,14.41-11.89,20.16c-2.78,2.78-5.41,5.67-8.97,7.33
			c-2.89,1.35-5.98,2.33-9.06,3.23c-5.57,1.63-11.12,3.44-16.8,4.52c-5.66,1.07-11.23,2.63-17.12,2.69
			c-4.12,0.05-8.29,1.06-12.33,2.08c-2.27,0.57-4.35,1.97-6.46,3.1c-2.94,1.59-5.82,3.27-8.71,4.93
			C1110.59,723.89,1110.37,724.18,1109.94,724.42 M1198.47,679.1c0.24-0.61,0.52-1.2,0.7-1.82c1.66-5.78,3.4-11.54,4.91-17.36
			c0.91-3.53,1.51-7.15,2.14-10.76c0.56-3.26,0.64-6.63,1.5-9.8c1.34-4.88,1.57-9.83,1.66-14.81c0.05-2.89-0.12-5.79-0.34-8.67
			c-0.25-3.21-0.66-6.41-1.06-9.61c-0.05-0.38-0.38-0.97-0.64-1.01c-0.43-0.06-1.06,0.12-1.36,0.43c-2.07,2.11-4.06,4.3-6.12,6.41
			c-2.29,2.35-4.54,4.75-6.97,6.95c-5.84,5.26-11.79,10.4-17.68,15.61c-1.82,1.62-3.51,3.38-5.36,4.97
			c-3.41,2.92-6.96,5.68-10.34,8.63c-4.68,4.08-9.24,8.3-13.88,12.43c-4.93,4.39-9.92,8.71-14.84,13.11
			c-2.25,2.01-4.44,4.11-6.59,6.23c-4.63,4.58-9.32,9.12-13.77,13.87c-1.22,1.31-2.6,2.12-4.02,3.05c-2.3,1.5-4.63,3.08-6.54,5.02
			c-4.3,4.36-8.24,9.09-12.55,13.44c-3.45,3.47-7.22,6.62-10.87,9.88c-2.91,2.6-5.85,5.17-8.79,7.73
			c-4.44,3.87-8.93,7.7-13.35,11.61c-3.07,2.72-6.06,5.55-9.07,8.34c-6.46,5.98-12.91,11.97-19.37,17.96c-0.34,0.32-0.66,0.67-1,1
			c-3.35,3.24-6.77,6.41-10.02,9.74c-1.26,1.28-0.9,2.32,0.55,3.55c3.45,2.92,6.93,5.8,10.23,8.89c1.38,1.29,2.57,1.28,3.99,0.47
			c0.63-0.36,1.31-0.76,1.73-1.31c0.58-0.78,1.51-1.99,1.26-2.54c-0.63-1.38,0.32-1.79,0.95-2.41c1.87-1.82,3.8-3.59,5.7-5.38
			c0.34-0.32,0.64-0.7,1-0.99c3.15-2.46,6.47-4.74,9.43-7.4c4.25-3.82,8.19-7.98,12.35-11.89c3.4-3.2,6.95-6.23,10.38-9.38
			c1.51-1.38,2.86-2.93,4.36-4.32c1.98-1.83,4.02-3.6,6.06-5.37c2.28-1.97,4.56-3.94,6.9-5.83c2.71-2.2,5.5-4.32,8.24-6.5
			c3.63-2.89,7.1-5.99,10.88-8.68c4.78-3.4,9.62-6.73,15.22-8.78c4.62-1.69,9.3-2.86,14.21-3.16c2.44-0.15,4.9-0.24,7.28-0.73
			c6.32-1.3,12.61-2.69,18.87-4.24c3.91-0.97,7.81-2.12,11.58-3.53c3.09-1.16,6.38-2.36,8.9-4.38
			C1190.99,692.9,1195.3,686.55,1198.47,679.1z"/>
		<path class="st1" d="M1159.58,699.64c-0.5,0.38-0.87,0.79-1.33,0.92c-0.3,0.09-0.75-0.17-1.07-0.37c-0.09-0.05-0.04-0.55,0.11-0.7
			c1.04-1.12,2.11-2.21,3.19-3.29c1.19-1.19,2.4-2.37,3.62-3.54c2.77-2.66,5.53-5.34,8.33-7.97c3.25-3.06,6.73-5.89,9.75-9.15
			c3.34-3.61,6.58-7.4,9.32-11.47c2.64-3.93,4.48-8.37,5.22-13.16c0.67-4.36,1.35-8.71,2.14-13.05c0.29-1.6,1.03-3.12,1.35-4.72
			c0.46-2.3,0.63-4.66,1.13-6.95c0.25-1.14,0.94-2.19,1.49-3.25c0.03-0.05,0.89,0.2,0.89,0.28c-0.04,0.72-0.17,1.44-0.31,2.15
			c-0.95,4.82-1.67,9.65-3.05,14.41c-1.25,4.31-1.35,8.94-2.28,13.36c-0.98,4.62-2.98,8.88-5.55,12.85
			c-4.41,6.8-10.44,12.15-16.1,17.83c-2.73,2.74-5.71,5.23-8.53,7.88C1165.12,694.3,1162.41,696.94,1159.58,699.64z"/>
	</g>
</g>
<g id="hand">
	<path class="st0" d="M203,105l-43-51L95,16c0,0-11,16,17,34s28,18,28,18l22,45c0,0-27-7-26-11S56,88,56,88s1,20,16,23s-16,0-16,0
		s6,20,27,29s36,13,38,13s-24,6-15,19s11,10,11,10s-10-2-11-3s-32,2-32,2l-25,1c0,0,4,24,17,26s37.85,1.84,37.85,1.84
		S142,219,148,228s16,31,19,38s49.57,26.86,52.78,28.93C223,297,224,363,224,363l78-6c0,0-7-116-11-120s-57-87-65-93s-14-29-17-32
		S206,104,203,105z"/>
	<g id="Vorm_27_2_">
		<path d="M174.61,100.59c-2.56-3.34-5-6.61-7.4-9.91c-3.92-5.38-7.83-10.77-11.69-16.19c-1.03-1.45-1.97-2.99-2.79-4.58
			c-0.99-1.91-1.4-4.25-2.76-5.8c-3.56-4.07-7.65-7.45-12.65-9.94c-6.34-3.15-12.26-7.15-18.38-10.75
			c-3.83-2.25-7.66-4.48-11.55-6.62c-2.87-1.58-5.79-3.1-8.78-4.45c-3.28-1.47-6.72-2.59-9.98-4.11c-1.65-0.76-3.04-2.08-4.58-3.09
			c-0.35-0.23-0.84-0.24-1.26-0.35c-0.07,0.38-0.17,0.75-0.21,1.13c-0.47,3.99,1.16,7.6,2.24,11.27c1.43,4.89,4.56,8.84,7.88,12.57
			c4.55,5.12,9.57,9.61,16.57,11.14c0.57,0.13,1.07,0.73,1.54,1.18c1.51,1.42,2.83,3.09,4.5,4.26c5.41,3.79,10.95,7.41,16.45,11.07
			c1.03,0.68,1.99,1.2,0.6,2.49c-0.24,0.22-0.08,1.04,0.09,1.5c0.8,2.16,1.72,4.28,2.5,6.45c0.6,1.66,0.83,3.48,1.6,5.04
			c3.17,6.42,6.5,12.76,9.75,19.13c0.28,0.56,0.4,1.2,0.71,1.75c1.9,3.36,3.81,6.72,5.78,10.05c0.42,0.71,0.95,1.51,1.64,1.9
			c6.18,3.4,12.41,6.71,18.61,10.07c2.61,1.42,5.2,2.87,7.76,4.37c0.38,0.22,0.56,0.79,0.83,1.19c-0.43-0.04-0.87-0.06-1.3-0.14
			c-0.27-0.05-0.53-0.19-0.77-0.33c-5.31-2.95-10.6-5.95-15.94-8.84c-5.74-3.11-11.57-6.04-17.3-9.17
			c-4.72-2.58-9.33-5.36-14.03-7.99c-1.86-1.04-3.73-2.17-5.74-2.77c-3.47-1.04-7.04-1.79-10.61-2.49
			c-10.75-2.12-21.5-4.2-32.27-6.21c-2.87-0.53-5.81-1.08-8.7-1.01c-3.12,0.07-6.21,1.08-9.34,1.29c-5.77,0.39-11.19-1.2-16.42-3.54
			c-0.48-0.22-0.99-0.39-1.48-0.59c0.02,0.58-0.12,1.22,0.07,1.74c1.69,4.56,4.63,8.22,8.14,11.53c2.06,1.94,3.68,4.35,5.69,6.36
			c2.54,2.53,4.61,5.64,8.74,6.2c6.35,0.86,12.65,2.03,18.95,3.21c5.75,1.08,11.42,2.71,17.21,3.46c5.12,0.66,9.36,2.04,13.6,5.45
			c7.78,6.27,16.29,11.7,24.77,17.04c5.57,3.5,11.63,6.22,17.46,9.31c3.05,1.62,6.11,3.23,9.1,4.97c0.52,0.3,0.67,1.22,0.99,1.86
			c-0.48-0.17-0.99-0.27-1.44-0.51c-3.37-1.77-6.73-3.55-10.09-5.34c-4.31-2.3-8.69-4.49-12.91-6.94c-3.67-2.13-7.2-4.51-10.71-6.89
			c-6.43-4.37-12.8-8.84-19.21-13.23c-1.64-1.12-2.74-2.89-5.08-3.2c-4.67-0.62-9.29-1.66-13.92-2.52
			c-6.7-1.25-13.38-2.59-20.1-3.73c-3.71-0.63-7.47-1.06-11.22-1.3c-2.76-0.17-5.56,0.23-8.34,0.18c-4.09-0.07-7.93-1.22-11.59-3.04
			c-0.43-0.22-1.14-0.32-1.5-0.1c-0.28,0.17-0.42,0.99-0.27,1.39c0.63,1.59,1.24,3.22,2.16,4.65c1.69,2.64,3.52,5.2,5.4,7.71
			c2.67,3.58,6.11,6.27,10.28,7.83c5.46,2.04,11.16,3.14,16.99,3.54c0.64,0.05,1.32,0.45,1.87,0.84c0.79,0.56,1.41,1.38,2.23,1.87
			c1.53,0.9,3.27,1.47,4.74,2.45c5.78,3.88,12.16,5.81,19.03,6.4c1.14,0.1,2.28,0.5,3.38,0.88c0.32,0.11,0.49,0.66,0.72,1.01
			c-0.37,0.02-0.76-0.02-1.11,0.08c-0.49,0.13-0.96,0.37-1.43,0.56c0.38,0.37,0.69,0.84,1.14,1.11c2.25,1.34,4.6,2.54,6.79,3.96
			c8.3,5.39,16.05,11.49,23.53,17.96c5.89,5.1,11.07,11.11,18.5,14.22c1.01,0.42,1.29,1.24,0.79,2.5c-0.79,1.95-2.14,2.16-3.91,1.95
			c-1.67-0.21-3.35-0.35-5.03-0.43c-1.68-0.08-3.38,0.11-5.04-0.1c-8.54-1.08-17.13-1.66-25.35-4.73
			c-5.56-2.07-11.43-3.3-17.14-4.96c-5.95-1.73-11.92-2.82-18.19-2.25c-4.37,0.4-8.79,0.1-13.18,0.34
			c-3.25,0.18-6.74,0.08-9.64,1.27c-2.81,1.15-5.55,2.23-8.53,2.69c-4.01,0.62-8.06,1.84-12.02-0.27c-0.22-0.12-0.82-0.01-0.84,0.08
			c-0.1,0.43-0.25,1.01-0.04,1.33c2.74,4.32,5.14,8.84,8.5,12.79c1.66,1.95,3.4,3.22,5.77,3.52c3.66,0.45,7.35,0.63,11.03,0.95
			c5.36,0.48,10.7,1.08,16.07,1.43c3.22,0.21,6.57-0.48,9.67,0.15c6,1.22,11.89,3,17.77,4.72c3.71,1.09,7.37,2.4,10.99,3.79
			c4.46,1.71,9.29,2.94,13.16,5.55c6.62,4.47,11.97,10.43,15.02,18.03c1,2.49,1.21,5.3,2.28,7.75c1.87,4.27,4.1,8.39,6.25,12.54
			c0.76,1.47,1.68,2.85,2.57,4.25c1.13,1.78,2.18,3.62,3.47,5.28c1.47,1.88,2.87,4.07,4.82,5.28c4.83,3,9.8,5.84,14.99,8.15
			c6.72,2.99,13.71,5.38,20.57,8.07c5.78,2.27,11.74,3.67,17.97,3.94c0.51,0.02,1.01,0.4,1.52,0.62c-0.55,0.31-1.11,0.91-1.63,0.87
			c-2.39-0.17-4.78-0.46-7.16-0.82c-1.14-0.17-1.95-0.01-1.94,1.3c0.08,9.31,0.2,18.62,0.3,27.92c0.06,6.08-0.05,12.16,0.22,18.23
			c0.3,6.87,0.95,13.72,1.4,20.58c0.04,0.54-0.32,1.1-0.49,1.65c-0.33-0.44-0.91-0.86-0.94-1.32c-0.56-9.25-1.34-18.49-1.51-27.75
			c-0.23-12.98,0.02-25.98-0.03-38.97c0-0.74-0.7-1.87-1.36-2.15c-3.41-1.43-6.91-2.65-10.38-3.94c-5.27-1.96-10.59-3.78-15.78-5.94
			c-3.92-1.63-7.67-3.7-11.49-5.59c-0.48-0.24-0.92-0.54-1.37-0.83c-3.82-2.42-6.9-5.4-9.28-9.41c-2.27-3.83-4.99-7.39-6.69-11.56
			c-0.53-1.3-1.18-2.59-2.01-3.71c-2.08-2.83-3.42-5.93-4.08-9.39c-0.35-1.86-0.82-3.79-1.72-5.43c-1.91-3.5-4.28-6.68-6.82-9.81
			c-5.01-6.18-11.92-8.96-18.88-11.65c-4.94-1.91-10.12-3.23-15.21-4.73c-5.7-1.67-11.36-3.53-17.38-3.8
			c-5.3-0.24-10.59-0.58-15.88-0.95c-5.42-0.37-10.84-0.86-16.27-1.24c-3.77-0.26-6.86-1.56-9.01-4.87
			c-2.28-3.51-4.95-6.79-7.06-10.4c-1.18-2.02-1.66-4.48-2.25-6.8c-0.12-0.48-0.75-1.93,1.01-1.81c4.39,0.28,8.78,0.54,13.17,0.65
			c1.94,0.05,3.9-0.18,5.82-0.5c1.42-0.24,2.77-1.15,4.17-1.2c8.72-0.31,17.45-0.44,26.18-0.67c1.68-0.04,3.48-0.7,5.03-0.3
			c4.5,1.15,8.89,2.7,13.33,4.06c0.35,0.11,0.79-0.07,1.19-0.11c-0.11-0.37-0.13-0.81-0.36-1.1c-1.22-1.6-2.67-3.05-3.71-4.75
			c-1.64-2.7-4.78-4.67-4.31-8.46c0.03-0.24-0.23-0.51-0.28-0.78c-0.35-1.62-0.9-3.23-0.98-4.86c-0.23-4.81,2.57-9.95,9.07-8.12
			c0.61,0.17,1.29,0.21,1.93,0.17c0.23-0.01,0.47-0.39,0.66-0.64c0.05-0.06-0.07-0.36-0.15-0.39c-2.41-0.68-3.78-3.01-6.6-3.41
			c-3.82-0.54-7.61-1.89-11.17-3.45c-3.95-1.73-7.62-4.1-11.44-6.15c-1.16-0.62-2.37-1.23-3.63-1.55c-1.83-0.46-3.74-0.61-5.6-0.97
			c-7.95-1.53-15.29-4.1-20.42-10.99c-2.81-3.78-6.04-7.29-7.46-11.91c-0.56-1.83-0.96-3.74-1.21-5.64
			c-0.17-1.29,0.33-2.23,2.01-1.89c3.02,0.62,6.06,1.09,9.08,1.71c1.82,0.37,3.6,0.95,5.41,1.33c0.47,0.1,1.02-0.19,1.53-0.31
			c-0.06-0.23-0.06-0.52-0.2-0.69c-2.09-2.39-3.95-5.03-6.34-7.07c-4.61-3.93-7.86-8.65-9.63-14.41c-0.23-0.76-0.24-1.82,0.13-2.45
			c0.21-0.35,1.44-0.23,2.18-0.11c1.18,0.2,2.3,0.71,3.48,0.85c5.74,0.65,11.47,1.4,17.23,1.75c5.66,0.34,11.27,0.76,16.84,1.95
			c5.31,1.13,10.71,1.81,16.03,2.88c5.82,1.16,11.59,2.57,17.39,3.82c4.37,0.94,8.78,1.83,12.71,4.07
			c5.47,3.12,10.83,6.42,16.27,9.6c0.62,0.36,1.38,0.47,2.08,0.7c-0.18-0.76-0.2-1.59-0.56-2.25c-1.39-2.58-2.96-5.07-4.32-7.67
			c-1.14-2.18-2.01-4.5-3.14-6.69c-2.28-4.42-4.86-8.7-6.92-13.22c-1.71-3.76-2.85-7.77-4.22-11.68c-0.12-0.35-0.21-0.86-0.05-1.14
			c0.85-1.47-0.17-1.89-1.17-2.56c-5.49-3.67-10.95-7.37-16.36-11.15c-1.48-1.03-2.65-2.53-4.16-3.5c-1.79-1.14-3.79-1.93-5.71-2.86
			c-6.37-3.09-10.91-8.22-15.18-13.64c-2.67-3.4-4.49-7.27-5.81-11.35c-1.14-3.52-1.92-7.12-1.45-10.87
			c0.29-2.3,1.05-3.08,3.12-2.22c3.25,1.37,6.37,3.07,9.45,4.81c3.73,2.1,7.32,4.44,11.03,6.58c3.29,1.89,6.7,3.57,9.97,5.47
			c5.79,3.37,11.49,6.87,17.28,10.25c3.56,2.08,7.34,3.8,10.78,6.05c5.24,3.43,9.64,7.66,11.47,13.99c0.45,1.54,1.25,3.03,2.16,4.36
			c2.61,3.83,5.31,7.61,8.06,11.34c3.36,4.55,6.97,8.94,10.2,13.58c3.21,4.61,6.98,8.88,8.98,14.29c0.44,1.18,1.58,2.52,2.72,2.94
			c5.77,2.16,9.65,6.54,13.51,10.99c0.43,0.49,0.87,1.04,1.08,1.64c1.13,3.1,2.38,6.18,3.18,9.37c0.46,1.82,1.77,3.86-0.03,5.79
			c-0.16,0.17-0.03,0.84,0.18,1.1c1.97,2.41,3.91,4.84,6,7.14c3.79,4.15,7.84,8.07,11.5,12.34c4.64,5.42,8.9,11.16,13.49,16.62
			c5.04,5.99,10.33,11.77,15.38,17.75c2.39,2.83,4.61,5.83,6.69,8.89c1.76,2.57,3.2,5.36,4.81,8.04c1.43,2.38,3.02,4.68,4.34,7.12
			c1.62,2.98,2.99,6.09,4.54,9.11c2.43,4.74,5,9.4,7.36,14.17c2.82,5.68,2.87,12.01,3.68,18.1c1.04,7.84,1.2,15.79,2.03,23.67
			c1.21,11.48,2.75,22.92,4.03,34.39c1.02,9.18,1.9,18.38,2.77,27.58c0.49,5.23,0.86,10.48,1.22,15.73
			c0.04,0.56-0.35,1.14-0.54,1.72c-0.24-0.52-0.67-1.03-0.69-1.56c-0.11-3.55,0.07-7.13-0.22-10.66c-0.5-6.03-1.23-12.05-1.95-18.07
			c-0.92-7.65-1.96-15.28-2.88-22.93c-1.09-9.06-2.2-18.12-3.13-27.2c-0.55-5.35-0.65-10.75-1.17-16.1
			c-0.34-3.46-1.34-6.86-1.57-10.31c-0.34-5.16-1.27-10.12-3.53-14.79c-0.86-1.78-1.68-3.58-2.57-5.34c-1.98-3.92-3.88-7.88-6-11.73
			c-2.73-4.96-5.66-9.8-8.48-14.71c-3.27-5.7-6.91-11.13-11.29-16.05c-3.06-3.43-6.11-6.86-9.05-10.39
			c-4.94-5.93-9.69-12.02-14.71-17.87c-5.51-6.43-11.32-12.61-16.83-19.04c-2.12-2.47-3.9-5.27-5.56-8.09
			c-0.8-1.36-1.05-3.07-1.43-4.65c-0.33-1.34-0.7-2.72-0.68-4.08c0.03-2.41-0.2-4.62-2.09-6.39c-0.7-0.66-1.26-1.49-1.82-2.28
			c-2.27-3.21-5.33-5.5-9.01-6.59c-2.15-0.64-3.18-1.89-4.07-3.65c-1.27-2.54-2.48-5.11-3.91-7.55
			C177.78,104.94,176.21,102.83,174.61,100.59 M112.37,170.47c1.12,2.21-7.62,4.15-6.39,6.1c0.53,0.84,1,1.73,1.5,2.59
			c1.2,2.07,3.25,3.16,5.09,4.51c1.35,0.99,2.5,2.25,3.78,3.34c0.31,0.26,0.8,0.32,1.2,0.48c-0.04-0.37,0.03-0.8-0.14-1.1
			c-0.29-0.51-0.91-0.96,0.21-1.22c0.04-0.01,0.07-0.81-0.12-0.96c-1.02-0.82-2.13-1.53-3.18-2.32c-0.28-0.21-0.46-0.56-0.69-0.84
			c0.42,0.02,0.95-0.12,1.25,0.08c1.65,1.08,3.53,1.99,4.8,3.43c2.27,2.55,5.41,3.6,8.14,5.32c2.92,1.83,6.14,3.19,9.25,4.72
			c0.29,0.14,0.72,0.02,1.08,0.02c-0.04-0.4,0.07-0.96-0.15-1.17c-1.72-1.66-3.51-3.25-5.27-4.88c-0.26-0.24-0.43-0.56-0.65-0.85
			c0.3,0.09,0.62,0.15,0.9,0.29c3.39,1.63,6.05,4.2,8.13,7.21c1.56,2.25,3,4.17,6,4.11c0.25,0,0.56,0.15,0.76,0.33
			c0.73,0.63,1.42,1.29,2.12,1.94c-0.86-0.18-1.75-0.26-2.56-0.56c-0.94-0.35-1.72-0.71-2.57,0.29c-0.22,0.25-1.18-0.04-1.76-0.22
			c-1.29-0.39-2.54-0.92-3.83-1.3c-0.88-0.26-1.79-0.4-2.7-0.53c-0.46-0.07-0.94-0.02-1.41-0.02c0.18,0.48,0.23,1.1,0.56,1.4
			c0.63,0.56,1.39,1.27,2.15,1.34c5.21,0.51,10.41,1.47,15.67,0.74c0.36-0.05,0.69-0.34,1.04-0.52c-0.26-0.22-0.53-0.43-0.79-0.65
			c-0.75-0.62-1.54-1.21-2.24-1.88c-1.5-1.42-3.06-2.8-4.39-4.37c-0.98-1.14-1.55-2.62-2.46-3.83c-1.01-1.34-2.04-2.73-3.33-3.78
			c-5.79-4.74-11.63-9.43-17.55-14.01c-2.3-1.78-4.8-3.3-7.31-4.78c-0.87-0.51-2.02-0.56-3.06-0.73c-1.8-0.29-3.6-0.66-5.41-0.7
			c-2.37-0.05-4.44,0.76-5.67,2.99 M140.72,199.1c-0.11-0.8-0.21-1.67-0.58-1.81c-2.34-0.88-4.81-1.43-7.08-2.44
			c-1.61-0.72-2.98-1.98-4.44-3.03c-0.53-0.38-0.95-0.95-1.53-1.2c-0.57-0.25-1.27-0.2-1.92-0.29c0.39,0.4,0.79,0.8,1.16,1.22
			c0.13,0.14,0.27,0.34,0.27,0.52c0.01,0.14-0.18,0.29-0.28,0.44c-1.59-1.19-3.72,0.47-5.24-0.99c-0.4-0.38-0.74-0.84-1.11-1.26
			c0.48,0.15,0.95,0.37,1.44,0.44c0.62,0.09,1.26,0.05,1.9,0.07c-0.35-0.44-0.61-1.01-1.06-1.29c-0.7-0.44-1.51-0.71-2.29-1.02
			c-0.3-0.12-0.86-0.29-0.93-0.18c-1.42,2.07-2.48,0.14-3.35-0.46c-2.57-1.78-5.11-3.65-7.37-5.8c-1.56-1.48-3.51-2.81-3.8-5.37
			c-0.11-0.98-0.94-1.9-1.52-2.8c-0.1-0.16-0.63-0.25-0.79-0.14c-0.29,0.21-0.68,0.63-0.64,0.91c0.18,1.44,0.29,2.93,0.8,4.26
			c0.91,2.38,2.07,4.67,3.18,6.98c0.12,0.26,0.51,0.47,0.81,0.54c2.63,0.61,4.37,2.43,6.08,4.33c0.37,0.41,1,0.59,1.51,0.87
			c0-0.52,0.01-1.03,0-1.55c0-0.19-0.06-0.39-0.09-0.58c0.24,0.06,0.53,0.05,0.7,0.19c1.21,0.98,2.4,1.99,3.55,3.04
			c0.03,0.03-0.31,0.66-0.58,0.8c-0.32,0.17-0.79,0.05-1.14,0.19c-0.41,0.16-0.75,0.48-1.12,0.73c0.35,0.25,0.66,0.61,1.05,0.74
			c1.52,0.52,3.49,0.53,4.51,1.52c3.38,3.31,7.92,3.19,11.93,4.6c0.37,0.13,0.95-0.33,1.43-0.51c-0.36-0.31-0.67-0.74-1.09-0.93
			c-1.51-0.67-3.05-1.26-4.58-1.89c-0.39-0.16-0.8-0.52-1.15-0.47c-3.23,0.49-2.79-2.54-3.93-4.04c-0.1-0.13-0.04-0.38-0.05-0.57
			c0.13,0.11,0.29,0.2,0.39,0.34c0.12,0.16,0.15,0.48,0.28,0.52c2.99,1,5.98,1.99,8.99,2.95c1.66,0.53,3.34,1.02,5.01,1.53
			C138.93,198.53,139.83,198.82,140.72,199.1 M52.71,124.65c3.99,0.33,7.58,0.84,11.19,1.26c0.45,0.05,0.96-0.35,1.44-0.54
			c-0.4-0.31-0.75-0.81-1.19-0.9c-3.2-0.68-6.42-1.24-9.62-1.9c-2.45-0.5-4.87-1.1-7.32-1.59c-0.44-0.09-0.95,0.16-1.42,0.26
			c0.39,0.41,0.71,1,1.19,1.2C48.85,123.24,50.79,123.92,52.71,124.65 M50.19,196.02c1.07-0.54,1.74-0.92,2.42-1.31
			c-0.78-0.17-1.56-0.46-2.35-0.5c-2-0.1-4-0.13-6-0.09c-0.53,0.01-1.05,0.39-1.57,0.59c0.44,0.29,0.85,0.8,1.32,0.85
			C46.05,195.78,48.12,195.88,50.19,196.02 M153.54,200.14c1.58,0.98,2.11,3.03,4.15,2.75c0.59-0.08,1.15-0.42,1.73-0.65
			c-0.37-0.33-0.7-0.71-1.1-0.99c-1.35-0.94-2.69-1.92-4.13-2.72c-0.57-0.32-1.39-0.2-2.09-0.29c0.37,0.47,0.73,0.95,1.09,1.42
			C153.31,199.82,153.42,199.98,153.54,200.14 M63.93,101.05c-1.88-0.17-3.48-0.25-5.09-0.24c-0.38,0-0.75,0.33-1.12,0.5
			c0.32,0.12,0.63,0.33,0.96,0.36c2.18,0.22,4.36,0.42,6.55,0.57c0.41,0.03,0.83-0.2,1.24-0.31c-0.39-0.24-0.76-0.56-1.19-0.71
			C64.85,101.07,64.38,101.1,63.93,101.05 M110.99,192.34c0.5-0.46,0.69-0.77,0.67-1.07c-0.01-0.18-0.35-0.35-0.56-0.5
			c-0.91-0.64-1.81-1.29-2.75-1.89c-0.07-0.05-0.39,0.29-0.59,0.44c0.88,0.92,1.76,1.85,2.66,2.76
			C110.56,192.22,110.8,192.25,110.99,192.34 M86.31,25.68c0.4,0.17,0.52,0.24,0.66,0.28c0.75,0.28,1.51,0.55,2.26,0.82
			c0.04-0.28,0.19-0.76,0.1-0.82c-0.99-0.58-2-1.14-3.05-1.59c-0.18-0.08-0.6,0.39-0.91,0.61C85.67,25.22,85.99,25.45,86.31,25.68
			 M201.89,135.73c-0.26,0.85-0.15,1.56,0,2.25c0.06,0.27,0.2,0.52,0.31,0.78c0.28-0.16,0.83-0.43,0.81-0.47
			C202.68,137.42,202.28,136.58,201.89,135.73 M113.41,194.95c-0.15-0.15-0.39-0.45-0.42-0.44c-0.37,0.25-0.7,0.54-1.04,0.83
			C112.62,195.29,113.01,195.12,113.41,194.95z"/>
		<path d="M136.95,186.45c1.58,1.25,3.2,2.47,4.78,3.72c0.17,0.14,0.23,0.41,0.34,0.63c-0.23-0.05-0.5-0.04-0.69-0.16
			c-3.13-1.88-6.27-3.75-9.36-5.69c-0.93-0.58-1.68-1.44-2.59-2.05c-0.94-0.63-2-1.09-2.98-1.66c-0.18-0.1-0.23-0.41-0.34-0.62
			c0.23,0.05,0.49,0.05,0.69,0.15c0.89,0.47,1.73,1.06,2.66,1.45c1.69,0.7,3.43,1.29,5.22,2.13
			C135.48,185.18,136.19,185.85,136.95,186.45z"/>
		<path d="M116.08,178.39c0.08,0.16,0.1,0.53,0.06,0.55c-0.22,0.08-0.6,0.2-0.71,0.09c-0.81-0.83-1.58-1.7-2.35-2.56
			c-0.46-0.52-0.83-1.22-1.4-1.52c-1.65-0.86-3.42-1.49-5.05-2.39c-0.38-0.21-0.37-1.11-0.55-1.69c0.5,0.08,1.2-0.01,1.47,0.28
			c1.67,1.84,3.66,2.7,6.22,2.49C114.59,175.36,115.35,176.87,116.08,178.39z"/>
		<path d="M118.11,173.76c1.65,2.3,3.63,4.24,6.14,5.6c0.22,0.12,0.31,0.48,0.47,0.73c-0.24-0.07-0.48-0.14-0.72-0.21
			c-0.88-0.27-1.77-0.53-2.65-0.83c-0.58-0.2-1.4-0.33-1.64-0.75c-0.99-1.77-1.8-3.64-2.57-5.52
			C117.53,173.07,117.85,173.39,118.11,173.76z"/>
		<path d="M123.04,184.29c-0.13-0.09-0.17-0.33-0.25-0.5c0.22,0.02,0.49-0.05,0.65,0.06c1.19,0.81,2.38,1.64,3.53,2.51
			c0.23,0.17,0.3,0.54,0.44,0.82c-0.31-0.24-0.61-0.48-1.06-0.78C125.15,185.65,124.08,184.99,123.04,184.29z"/>
		<path d="M124.89,176.72c0.11,0.07,0.06,0.37,0.08,0.57c-0.16-0.15-0.31-0.32-0.5-0.44c-0.99-0.66-2-1.3-3.07-2.15
			C122.51,175.23,123.71,175.96,124.89,176.72z"/>
		<path d="M114.6,171.56c-0.29-0.2-0.43-0.63-0.64-0.95c0.34,0.06,0.78,0,1,0.19c0.74,0.62,1.4,1.33,1.99,2.05
			C116.09,172.45,115.31,172.05,114.6,171.56z"/>
		<path d="M112.45,171.64c0.12,0.12,0.06,0.43,0.08,0.66c-0.55-0.35-1.16-0.63-1.63-1.07c-0.24-0.22-0.22-0.71-0.18-1.01
			C111.4,170.73,111.95,171.16,112.45,171.64z"/>
		<path d="M115.69,175.08c0.13-0.18,0.26-0.36,0.39-0.54c0.21,0.29,0.43,0.58,0.58,1.01C116.3,175.48,115.99,175.28,115.69,175.08z"
			/>
		<path d="M128.64,188.19c0.39,0.33,0.79,0.67,1.12,1.14C129.35,189.04,128.99,188.62,128.64,188.19z"/>
		<path d="M107.72,184.52c-0.45-0.67-0.75-1.44-1.11-2.17c0.55,0.46,1.13,0.89,1.64,1.38c0.18,0.18,0.22,0.51,0.4,0.96
			C108.38,184.77,107.88,184.76,107.72,184.52z"/>
	</g>
</g>
<g id="telefoon">
	<path class="st0" d="M196,525c0,0,80.65-9.18,99,0c32,16,13,120-5,162s-1,77-45,84s-85-13-85-13s-18,0-13-38s29-175,29-175
		S177,529,196,525z"/>
	<g id="Vorm_28_2_">
		<path class="st1" d="M308.25,659.79c-0.52,2.33-1,4.58-1.42,6.85c-0.36,1.92-0.62,3.87-0.97,5.79c-0.28,1.55-0.56,3.11-0.97,4.63
			c-1.08,3.97-2.31,7.91-3.33,11.9c-0.54,2.13-0.72,4.34-1.12,6.51c-0.39,2.07-0.82,4.12-1.29,6.17c-0.75,3.25-1.52,6.5-2.32,9.74
			c-0.53,2.14-1.12,4.26-1.68,6.4c-0.05,0.2-0.18,0.45-0.1,0.59c0.91,1.77-0.06,3.45-0.22,5.16c-0.14,1.47-0.17,2.96-0.33,4.43
			c-0.07,0.63-0.22,1.29-0.52,1.84c-0.92,1.74-1.06,3.65-1.24,5.54c-0.15,1.57-0.65,2.93-1.36,4.35c-0.98,1.98-1.59,4.15-2.26,6.28
			c-0.59,1.87-0.91,3.83-1.59,5.66c-1.45,3.87-3.02,7.69-4.63,11.49c-0.85,2.01-1.78,4.01-2.85,5.91c-0.76,1.34-1.78,2.56-2.77,3.75
			c-1.38,1.64-2.86,3.2-4.27,4.82c-1.61,1.85-3.94,2.33-6.08,3.06c-2.04,0.7-4.22,1.01-6.3,1.6c-2.87,0.81-5.77,1.26-8.75,1.29
			c-1.34,0.01-2.68,0.27-4.02,0.22c-2.12-0.08-4.24-0.29-6.35-0.53c-1.62-0.18-3.23-0.49-4.85-0.73c-3.12-0.46-6.25-0.88-9.37-1.36
			c-2.5-0.38-4.98-0.91-7.49-1.2c-3.67-0.43-7.37-0.68-11.05-1.06c-3.74-0.39-7.47-0.81-11.2-1.29c-2.75-0.36-5.51-0.76-8.23-1.3
			c-3.52-0.69-7.01-1.54-10.52-2.3c-4.07-0.88-8.16-1.65-12.21-2.61c-3.09-0.73-5.97-2.08-8.26-4.3c-2.93-2.84-5.04-6.31-5.84-10.31
			c-0.43-2.13-0.88-4.44,0.15-6.64c0.16-0.35-0.01-0.85,0.04-1.27c0.33-2.87,0.77-5.73,1-8.6c0.21-2.59,0.2-5.2,0.28-7.8
			c0.09-2.54,0.08-5.09,0.28-7.63c0.25-3.22,0.51-6.45,1.05-9.63c0.6-3.54,1.57-7,2.26-10.53c0.39-2.02,0.49-4.09,0.82-6.12
			c0.2-1.27,0.61-2.5,0.89-3.75c0.49-2.25,0.98-4.5,1.41-6.77c0.31-1.65,0.55-3.31,0.78-4.96c0.13-0.95,0.4-1.95,0.22-2.85
			c-0.63-3.13,0.59-5.92,1.39-8.78c0.84-3,1.68-5.97,2.06-9.09c0.46-3.7,1.16-7.39,2.04-11.01c1.58-6.46,3.44-12.85,5.05-19.3
			c0.7-2.79,1.07-5.66,1.62-8.49c0.57-2.94,1.23-5.86,1.76-8.81c0.23-1.27,0.15-2.59,0.32-3.88c0.29-2.23,0.67-4.45,0.97-6.68
			c0.15-1.07,0.18-2.16,0.31-3.23c0.33-2.83,0.7-5.65,1.02-8.47c0.2-1.69,0.29-3.39,0.53-5.07c0.3-2.1,0.71-4.17,1.06-6.26
			c0.25-1.49,0.5-2.98,0.73-4.47c0.28-1.78,0.57-3.55,0.81-5.34c0.12-0.91,0.1-1.84,0.23-2.75c0.36-2.55,0.76-5.1,1.15-7.65
			c0.21-1.41,0.3-2.87,0.68-4.23c0.54-1.91,1.11-3.85,2-5.61c2.34-4.62,5.43-8.59,10.16-11.08c1.43-0.76,2.59-2.02,4-2.82
			c1.58-0.9,3.25-1.77,4.98-2.26c3.29-0.94,6.64-1.67,9.99-2.34c1.7-0.34,3.46-0.36,5.2-0.55c3.08-0.33,6.16-0.74,9.25-1.01
			c1.55-0.13,3.12,0.03,4.68-0.03c3.2-0.13,6.39-0.37,9.59-0.48c1.08-0.04,2.16,0.23,3.25,0.22c2.29-0.03,4.57-0.13,6.86-0.25
			c2.94-0.15,5.88-0.35,8.82-0.49c0.47-0.02,0.96,0.24,1.44,0.22c1.26-0.04,2.51-0.24,3.76-0.23c3.66,0.04,7.35-0.09,10.98,0.31
			c3.32,0.37,6.71,0.15,9.97,1.4c1.83,0.7,3.99,0.92,5.96,0.78c2.72-0.19,5.35,0.23,7.95,0.65c3.87,0.63,7.85,1.23,10.96,4.02
			c2.69,2.42,3.72,5.71,4.56,9.07c0.42,1.69,0.81,3.4,1.01,5.12c0.22,1.88,0.28,3.79,0.27,5.69c-0.01,2.54-0.13,5.09-0.24,7.63
			c-0.15,3.5-0.34,6.99-0.51,10.49c-0.08,1.6-0.21,3.19-0.25,4.79c-0.11,3.89,0.16,7.83-0.35,11.66
			c-0.66,5.01-0.67,10.02-0.69,15.04c-0.01,2.03,0.11,4.08-0.03,6.1c-0.15,1.99-0.53,3.97-0.87,5.95c-0.45,2.64-0.94,5.28-1.42,7.92
			c-0.67,3.67-1.26,7.37-2.06,11.02c-0.74,3.41-1.76,6.75-2.56,10.15c-0.32,1.36-0.35,2.78-0.54,4.16
			c-0.33,2.27-0.68,4.53-1.03,6.79C308.39,659.07,308.36,659.4,308.25,659.79 M304.32,667.33c0.43-1.63,0.91-3.25,1.26-4.89
			c0.57-2.7,1.12-5.4,1.55-8.12c0.36-2.24,0.36-4.55,0.84-6.76c0.73-3.36,1.85-6.64,2.61-10c0.71-3.13,1.17-6.31,1.73-9.48
			c0.41-2.28,0.85-4.56,1.21-6.85c0.49-3.12,1.03-6.23,1.34-9.37c0.21-2.14-0.02-4.33,0.05-6.49c0.13-3.76,0.35-7.51,0.5-11.26
			c0.12-3.07,0.18-6.15,0.27-9.22c0.08-2.82,0.13-5.63,0.27-8.45c0.12-2.42,0.37-4.84,0.5-7.27c0.21-4.05,0.37-8.11,0.52-12.17
			c0.05-1.52,0.26-3.09-0.04-4.55c-0.61-2.94-1.28-5.9-2.35-8.69c-1.24-3.23-3.5-5.64-7.03-6.62c-1.73-0.48-3.52-0.7-5.24-1.09
			c-3.59-0.82-7.22-0.87-10.84-1.2c-0.89-0.08-1.77-0.28-2.66-0.43c-2.61-0.45-5.2-1.09-7.82-1.32c-3.23-0.28-6.49-0.29-9.73-0.29
			c-4.44,0.01-8.87,0.22-13.3,0.22c-4.35,0-8.7-0.18-13.05-0.22c-1.55-0.01-3.11,0.17-4.66,0.24c-2.13,0.1-4.26,0.14-6.38,0.27
			c-3.98,0.23-7.96,0.45-11.93,0.79c-2.7,0.23-5.43,0.49-8.08,1.05c-3.64,0.77-7.25,1.76-10.82,2.83c-1.62,0.49-3.22,1.24-4.64,2.15
			c-1.76,1.13-3.44,2.44-4.93,3.9c-1.9,1.86-4.02,3.53-5.23,6.07c-1.86,3.88-3,7.98-4.07,12.11c-0.43,1.66-0.59,3.39-0.78,5.09
			c-0.1,0.86,0.07,1.76-0.04,2.62c-0.18,1.36-0.51,2.71-0.75,4.07c-0.39,2.25-0.76,4.5-1.14,6.75c-0.39,2.29-0.83,4.57-1.16,6.86
			c-0.18,1.24-0.01,2.55-0.31,3.75c-0.9,3.65-1.09,7.36-1.26,11.08c-0.01,0.3,0.03,0.6-0.01,0.9c-0.33,2.44-0.68,4.88-1.02,7.31
			c-0.23,1.67-0.45,3.33-0.71,4.99c-0.35,2.26-0.73,4.51-1.09,6.77c-0.28,1.73-0.43,3.5-0.84,5.2c-0.76,3.11-1.67,6.18-2.51,9.27
			c-0.6,2.21-1.13,4.43-1.76,6.62c-0.47,1.64-1.17,3.23-1.56,4.89c-0.42,1.74-0.6,3.54-0.89,5.31c-0.49,3.02-0.98,6.04-1.47,9.06
			c-0.18,1.09-0.25,2.2-0.53,3.26c-1.07,4.07-2.34,8.1-2.56,12.35c-0.2,3.73-0.75,7.37-1.73,11.01c-1.03,3.84-1.41,7.84-2.16,11.76
			c-0.48,2.53-1.09,5.04-1.68,7.55c-0.34,1.44-0.97,2.85-1.1,4.3c-0.37,4.14-0.62,8.29-0.79,12.44c-0.12,2.88-0.02,5.76-0.02,8.64
			c0,0.34,0.04,0.69-0.01,1.03c-0.33,2.7-0.7,5.39-1.02,8.09c-0.16,1.37,0.01,2.82-0.39,4.1c-0.74,2.33-0.39,4.64-0.37,6.97
			c0.01,0.63,0.26,1.26,0.38,1.9c0.39,2.04,1.29,3.86,2.46,5.56c1.47,2.14,3.27,4.04,5.55,5.2c4.42,2.25,9.37,2.97,14.14,4.13
			c4.41,1.07,8.89,1.83,13.37,2.6c3.55,0.62,7.13,1.1,10.71,1.55c2.19,0.27,4.41,0.36,6.62,0.54c0.15,0.01,0.29,0.13,0.45,0.16
			c1.68,0.29,3.36,0.68,5.06,0.84c2.06,0.2,4.14,0.14,6.21,0.3c1.67,0.14,3.34,0.41,5,0.69c2.48,0.42,4.95,0.95,7.43,1.34
			c1.63,0.26,3.3,0.34,4.94,0.54c2.7,0.33,5.38,0.78,8.09,0.99c2.02,0.16,4.07,0.1,6.1,0.01c1.88-0.08,3.76-0.3,5.63-0.51
			c0.63-0.07,1.25-0.29,1.87-0.45c2.94-0.79,5.85-1.75,8.83-2.32c2.6-0.49,4.51-2.01,6.17-3.74c3.06-3.17,5.1-7.08,7.08-10.97
			c1.06-2.08,1.84-4.31,2.72-6.48c0.92-2.28,1.92-4.54,2.69-6.88c0.57-1.71,0.77-3.54,1.25-5.29c0.96-3.5,3.1-6.55,3.6-10.26
			c0.33-2.44,1.43-4.77,1.82-7.21c0.24-1.51-0.21-3.14-0.35-4.71c-0.04-0.5-0.19-1.03-0.08-1.5c0.95-4.05,1.79-8.12,3.26-12.05
			c0.99-2.66,1.3-5.57,1.87-8.38c0.47-2.31,0.84-4.63,1.3-6.94c0.39-1.98,0.77-3.97,1.3-5.91c0.88-3.24,2.04-6.41,2.77-9.67
			C303.45,674.16,303.8,670.86,304.32,667.33z"/>
		<path class="st1" d="M310.83,564.35c0.14,2.54-0.83,4.79-1.45,7.1c-1.01,3.78-2.29,7.5-3.22,11.3c-0.94,3.85-1.64,7.76-2.34,11.67
			c-0.53,2.99-0.87,6-1.31,9.01c-0.42,2.88-0.92,5.74-1.27,8.62c-0.34,2.76-0.5,5.55-0.8,8.32c-0.31,2.87-0.69,5.73-1.02,8.6
			c-0.12,1.04-0.15,2.08-0.27,3.12c-0.24,2-0.47,4.01-0.77,6c-0.59,3.92-1.22,7.83-1.84,11.75c-0.32,2.06-0.67,4.11-0.99,6.17
			c-0.35,2.22-0.67,4.45-1.04,6.66c-0.31,1.88-0.65,3.76-1.03,5.63c-0.66,3.25-1.33,6.49-2.07,9.72c-0.82,3.61-1.68,7.21-2.58,10.8
			c-1.04,4.16-2.18,8.3-3.22,12.46c-0.62,2.46-1.1,4.96-1.68,7.43c-0.35,1.48-0.82,2.93-1.15,4.42c-0.51,2.33-1.02,4.67-1.41,7.02
			c-0.5,2.99-0.91,6-1.29,9.01c-0.18,1.41-0.13,2.86-0.29,4.27c-0.31,2.87-0.68,5.73-1.02,8.6c-0.01,0.08-0.01,0.17,0,0.26
			c0.29,2.4-0.33,4.66-1.03,6.93c-0.81,2.64-1.54,5.29-2.34,7.93c-0.2,0.64-0.51,1.26-0.86,1.83c-0.52,0.83-2.31,1.16-3.73,0.71
			c-1.79-0.55-3.54-1.27-5.35-1.7c-3.22-0.77-6.51-1.27-9.72-2.09c-3.57-0.91-7.17-1.09-10.82-1.34c-3.73-0.25-7.41-1.15-11.12-1.72
			c-3.61-0.55-7.23-0.99-10.83-1.57c-2.64-0.43-5.24-1.1-7.88-1.5c-2.03-0.31-4.1-0.3-6.14-0.56c-2.43-0.31-4.85-0.75-7.27-1.12
			c-2.67-0.41-5.34-1.03-8.02-1.12c-3.13-0.11-6.19-0.38-9.25-1.06c-1.73-0.38-3.55-0.36-5.32-0.56c-3.65-0.41-7.3-0.86-10.94-1.28
			c-0.42-0.05-0.86-0.04-1.29,0c-1.56,0.16-3.13,0.33-4.69,0.51c-0.48,0.06-0.97,0.26-1.44,0.23c-0.55-0.03-1.3-0.08-1.59-0.42
			c-0.33-0.39-0.41-1.17-0.3-1.71c0.82-3.86,1.78-7.7,2.54-11.57c0.25-1.3,0.03-2.69,0.05-4.03c0-0.37,0-0.79,0.17-1.09
			c1.51-2.65,1.73-5.62,2.12-8.53c0.42-3.12,0.72-6.24,1.55-9.29c0.7-2.56,1.25-5.17,1.77-7.78c0.43-2.16,0.72-4.34,1.09-6.51
			c0.5-2.93,1.07-5.84,1.53-8.78c0.34-2.16,0.48-4.35,0.8-6.51c0.28-1.88,0.68-3.75,1.06-5.62c0.66-3.25,1.33-6.5,2.03-9.74
			c0.48-2.24,1.03-4.47,1.54-6.71c0.44-1.97,0.82-3.95,1.3-5.91c0.74-3.04,1.62-6.05,2.31-9.1c0.53-2.34,0.88-4.72,1.29-7.08
			c0.36-2.09,0.68-4.19,1.04-6.28c0.24-1.4,0.56-2.79,0.76-4.2c0.46-3.26,0.86-6.52,1.3-9.78c0.32-2.31,0.63-4.63,1.05-6.92
			c0.34-1.86,0.9-3.68,1.25-5.53c0.34-1.77,0.51-3.57,0.8-5.35c0.35-2.17,0.71-4.34,1.11-6.5c0.46-2.47,0.95-4.93,1.47-7.39
			c0.54-2.56,1.19-5.1,1.7-7.67c0.3-1.53,0.4-3.1,0.62-4.65c0.42-3,0.83-6.01,1.3-9.01c0.16-1.02,0.78-1.29,1.72-0.75
			c0.27,0.15,0.61,0.24,0.92,0.26c1.91,0.11,3.83,0.29,5.74,0.24c3.46-0.09,6.91-0.25,10.36-0.51c3.47-0.26,6.94-0.69,10.41-1
			c1.59-0.14,3.19-0.21,4.79-0.26c1.52-0.04,3.04,0,4.56-0.01c3.12-0.02,6.23,0.38,9.36-0.19c1.49-0.27,3.1,0.18,4.65,0.18
			s3.11-0.2,4.67-0.23c2.03-0.04,4.07-0.01,6.11-0.01c2.51,0,5.02-0.03,7.52,0.01c1.3,0.02,2.6,0.25,3.89,0.22
			c1.18-0.03,2.36-0.42,3.54-0.43c1.75-0.01,3.51,0.17,5.26,0.28c0.19,0.01,0.38,0.16,0.57,0.17c6.47,0.27,12.94,0.64,19.41,0.72
			c2.29,0.03,4.58-0.71,6.88-1.07c0.97-0.16,1.95-0.31,2.93-0.4c1.29-0.12,2.59-0.25,3.89-0.23c0.56,0.01,1.12,0.38,1.68,0.58
			c-0.28,0.38-0.54,0.79-0.84,1.15c-0.49,0.6-1.08,0.6-1.87,0.62c-2.74,0.08-5.47,0.43-8.2,0.69c-1.58,0.15-3.15,0.49-4.72,0.5
			c-3.02,0.02-6.03-0.14-9.05-0.23c-2.64-0.08-5.29-0.13-7.93-0.27c-2-0.11-3.98-0.43-5.98-0.47c-1.95-0.04-3.91,0.19-5.87,0.21
			c-1.12,0.01-2.25-0.22-3.37-0.22c-1.21,0-2.42,0.21-3.63,0.22c-1,0.01-1.99-0.24-2.99-0.22c-2.03,0.03-4.06,0.21-6.08,0.23
			c-4.33,0.04-8.66-0.02-12.98,0.02c-5.04,0.05-10.08,0.06-15.11,0.29c-3.22,0.15-6.42,0.65-9.63,0.99c-0.17,0.02-0.34,0-0.52,0
			c-5.64,0.09-11.28,0.21-16.92,0.23c-1.25,0-1.52,0.53-1.65,1.62c-0.24,1.93-0.71,3.84-0.99,5.77c-0.18,1.21-0.05,2.48-0.3,3.67
			c-0.88,4.31-1.93,8.58-2.79,12.89c-0.55,2.76-0.83,5.58-1.33,8.36c-0.41,2.26-1.01,4.49-1.45,6.74c-0.34,1.76-0.53,3.56-0.86,5.32
			c-0.6,3.18-1.34,6.34-1.85,9.54c-0.26,1.59-0.09,3.25-0.22,4.87c-0.11,1.39-0.36,2.76-0.58,4.14c-0.46,2.88-1.61,5.58-1.8,8.57
			c-0.19,2.93-0.92,5.85-1.59,8.73c-1.35,5.79-2.93,11.52-4.23,17.32c-0.95,4.24-1.55,8.56-2.36,12.83
			c-0.73,3.82-1.6,7.6-2.29,11.42c-0.54,2.98-0.83,6.01-1.33,9c-0.45,2.72-1.03,5.42-1.53,8.13c-0.7,3.75-1.42,7.5-2.05,11.27
			c-0.58,3.43-1.08,6.87-1.55,10.32c-0.33,2.42-0.49,4.86-0.8,7.28c-0.17,1.32-0.51,2.62-0.8,3.92c-0.49,2.24-1.03,4.48-1.48,6.73
			c-0.08,0.39,0.18,0.85,0.29,1.28c0.33-0.2,0.65-0.53,0.99-0.56c0.92-0.08,1.87-0.12,2.79-0.03c1.5,0.16,2.99,0.48,4.49,0.65
			c3.34,0.37,6.68,0.7,10.02,1.04c1.78,0.18,3.56,0.29,5.33,0.53c1.94,0.26,3.86,0.67,5.79,0.94c0.92,0.13,1.88,0.15,2.81,0.07
			c2.66-0.23,5.22,0.35,7.81,0.79c2.01,0.34,4.01,0.72,6.02,1.02c4.3,0.65,8.68,0.68,12.93,1.77c2.06,0.52,4.25,0.53,6.37,0.83
			c1.45,0.2,2.88,0.51,4.32,0.76c1.96,0.35,3.92,0.78,5.89,1.01c3.46,0.41,6.94,0.68,10.4,1.06c2.7,0.3,5.4,0.62,8.08,1.04
			c2.41,0.37,4.79,0.87,7.18,1.34c1.55,0.3,3.09,0.64,4.63,0.97c1.14,0.25,2.27,0.56,3.42,0.76c0.96,0.17,1.75-0.09,2.08-1.14
			c0.6-1.9,1.19-3.8,1.81-5.7c0.51-1.57,0.79-3.16,0.82-4.84c0.02-1.49,0.45-2.97,0.74-4.44c0.4-2.02,0.97-4.02,1.23-6.05
			c0.31-2.46,0.3-4.96,0.57-7.43c0.23-2.11,0.61-4.2,1.02-6.28c0.55-2.81,1.15-5.62,1.81-8.41c0.57-2.42,1.23-4.82,1.87-7.22
			c1-3.71,2.07-7.4,3-11.13c1.1-4.41,2.12-8.85,3.09-13.29c0.85-3.92,1.58-7.86,2.34-11.8c0.71-3.67,1.42-7.33,2.06-11.01
			c0.57-3.3,1.04-6.62,1.56-9.93c0.6-3.79,1.25-7.58,1.79-11.38c0.35-2.5,0.55-5.03,0.79-7.54c0.27-2.86,0.45-5.73,0.8-8.58
			c0.44-3.62,1.03-7.22,1.52-10.84c0.46-3.34,0.78-6.71,1.32-10.04c0.56-3.48,1.29-6.93,1.99-10.39c0.51-2.54,0.98-5.08,1.62-7.58
			c0.8-3.13,1.85-6.21,2.63-9.35c0.55-2.25,0.76-4.58,1.25-6.84c0.27-1.23,0.79-2.42,1.27-3.59c0.09-0.22,0.55-0.28,0.84-0.42
			c0.06,0.26,0.2,0.54,0.17,0.79C311.17,562.58,311.02,563.44,310.83,564.35z"/>
		<path class="st1" d="M216.94,719.11c3.17-2.63,6.43-1.62,9.58-0.3c3.04,1.28,4.32,3.97,4.79,7.07c0.4,2.65,0.41,5.27-0.2,7.94
			c-0.49,2.11-1.87,3.44-3.48,4.45c-3.93,2.46-8.26,2.57-12.57,1.22c-1.93-0.61-2.81-2.49-3.58-4.23c-0.49-1.12-0.88-2.35-1.01-3.56
			c-0.1-0.93,0.14-1.97,0.49-2.86c0.86-2.18,1.7-4.39,2.87-6.41C214.56,721.17,215.85,720.25,216.94,719.11 M227.07,736.07
			c1.98-1.34,2.34-3.43,2.41-5.56c0.04-1.21-0.26-2.44-0.49-3.65c-0.41-2.11-0.87-4.2-2.48-5.8c-1.9-1.89-6.64-2.57-9.3,0.66
			c-2.45,2.98-4.19,6.26-3.99,10.35c0.1,2,1.97,5.21,4.28,5.75c1.63,0.38,3.43,0.51,5.07,0.23
			C224.09,737.79,225.49,736.84,227.07,736.07z"/>
		<path class="st1" d="M221.26,771.92c-3.94,2.34-7.64,1.85-11.34-0.35c-1.69-1-3.19-2.07-3.88-4.01c-1.33-3.72,0.12-7.62,3.99-9.61
			c3.17-1.63,6.31-1.83,9.69-0.89c2.3,0.64,3.97,2.04,5.11,3.97c1.26,2.14,1.02,4.39-0.16,6.6
			C223.82,769.27,223.06,770.93,221.26,771.92 M210.3,760.32c-1.76,0.97-3.06,4.83-1.41,6.86c1.64,2,3.86,2.87,6.27,3.47
			c1.82,0.46,3.56-0.02,4.87-1.06c2.74-2.2,3.79-4.69,1.4-8.14c-0.5-0.72-0.5-0.94,0.28-1.2c0.12-0.04,0.19-0.23,0.28-0.35
			c-0.16-0.03-0.32-0.09-0.48-0.08c-0.42,0.03-0.9,0.24-1.25,0.12c-1.16-0.41-2.27-0.94-3.41-1.41c-0.29-0.12-0.63-0.29-0.92-0.25
			C213.98,758.56,212.05,758.93,210.3,760.32z"/>
		<path class="st1" d="M256.08,674.17c2.87,0.56,4.15,2.89,5.86,4.7c0.05,0.05,0.07,0.15,0.07,0.22c0.12,3.57,0.13,7.11-1.8,10.32
			c-2.69,4.48-9.28,3.17-11.03-0.14c-0.44-0.83-0.63-1.81-0.82-2.74c-0.53-2.64-0.05-5.2,1.06-7.58c1.21-2.6,3.27-4.27,6.26-4.54
			C255.77,674.41,255.86,674.25,256.08,674.17 M256.73,690.16c1.56-0.46,2.12-1.78,2.6-3.13c0.65-1.81,1.55-3.61,0.87-5.6
			c-0.45-1.31-1.02-2.58-1.6-3.84c-0.62-1.32-2.16-1.84-3.6-1.45c-1.49,0.4-2.37,1.45-3.13,2.65c-1.66,2.61-1.71,5.43-0.93,8.32
			c0.34,1.25,1.42,2.18,2.29,2.01c1.27-0.25,2.74-1.85,2.85-3.18c0.05-0.55,0.07-1.05-0.87-0.78c-0.52,0.15-1.31-0.11-1.8-0.44
			c-2.11-1.41-1.41-4.95,0.98-6.19c2.24-1.16,4.03-0.19,4.01,2.28c-0.01,1.17-0.21,2.33-0.23,3.5c-0.05,2.26-0.74,4.17-2.78,5.41
			c-0.16,0.1-0.19,0.4-0.28,0.61c0.22,0.03,0.44,0.09,0.65,0.08C256.03,690.4,256.32,690.33,256.73,690.16 M256.08,683.07
			c0.21-0.38,0.38-0.8,0.64-1.14c0.63-0.82,0.51-1.57-0.31-2.06c-0.73-0.44-1.88,0.12-2.02,1.07c-0.11,0.74,0.17,1.56,0.39,2.31
			C254.81,683.34,255.55,683.22,256.08,683.07z"/>
		<path class="st1" d="M225.84,662.11c-0.82-1.97-1.62-3.83-1.77-5.94c-0.18-2.59,0.44-4.84,2.21-6.75c1.82-1.97,4-2.94,6.65-2.06
			c2.62,0.87,3.95,2.96,4.86,5.45c1.4,3.82-0.12,7.14-2.18,10c-1.85,2.57-5.67,3.89-8.52,0.8
			C226.67,663.16,226.3,662.65,225.84,662.11 M233.39,657.53c0.43,0.59,1.33,1.3,1.21,1.74c-0.55,2.11-4.5,3.27-6.06,1.89
			c-0.24-0.21-0.33-0.58-0.48-0.88c0.42-0.13,0.82-0.34,1.25-0.38c0.74-0.06,1.51,0.08,2.24-0.05c0.53-0.1,1.19-0.45,0.28-1.06
			c-0.5-0.34-0.99-0.71-1.52-1c-1.48-0.81-1.6-1.84-0.43-2.97c0.58-0.56,1.1-1.23,1.43-1.96c0.52-1.16,1.31-1.68,2.49-1.4
			c0.29,0.07,0.59,0.09,0.88,0.14c-0.02-0.37,0.06-0.79-0.08-1.11c-0.61-1.36-2.62-2.1-4.13-1.65c-3.13,0.94-4.01,3.37-4.26,5.62
			c-0.25,2.24,0.41,4.4,1.32,6.4c0.6,1.32,1.68,2.39,3.31,2.45c2.33,0.1,4.09-1.29,4.63-3.63c0.38-1.65,0.75-3.32,1.02-4.99
			c0.14-0.89-0.49-1.69-1.26-1.63c-1.19,0.09-2.19,0.63-2.78,1.97C231.88,656.3,232.62,656.75,233.39,657.53z"/>
		<path class="st1" d="M256.34,734.27c-0.26,0.8-0.62,1.44-0.76,2.13c-0.5,2.48-1.63,3.24-4.05,2.79c-1.46-0.27-2.95-0.32-4.42-0.55
			c-1.23-0.19-2.46-0.46-3.67-0.79c-0.31-0.09-0.54-0.56-0.77-0.87c-1.01-1.34-2.03-2.68-3-4.05c-0.32-0.45-0.53-0.98-0.73-1.5
			c-0.3-0.79-0.02-1.37,0.81-1.54c1.88-0.38,3.56-1.22,5.08-2.35c1.82-1.35,3.47-1.27,5.4-0.1c1.62,0.98,3.48,1.49,5.49,1.21
			c0.52-0.07,1.6,0.08,1.38,1.25C256.85,731.31,256.6,732.72,256.34,734.27 M247.57,729.49c-0.71-0.5-1.37-0.48-2.12,0.03
			c-0.92,0.62-1.9,1.19-2.93,1.62c-0.79,0.33-0.83,0.83-0.44,1.34c0.63,0.82,1.3,1.67,2.12,2.28c1.58,1.17,3.4,1.69,5.37,1.96
			c1.89,0.27,3.36-0.32,3.93-2.14c0.12-0.38,0.16-0.79,0.27-1.18c0.54-2.04,0.54-2.04-1.54-2.48c-0.3-0.06-0.62,0.01-0.93,0.01
			c0.02,0.35-0.06,0.75,0.08,1.04c0.53,1.07-0.39,3.17-1.57,3.28c-0.39,0.04-0.92-0.33-1.21-0.67c-0.32-0.37-0.41-0.94-0.67-1.38
			c-0.5-0.83-0.31-1.42,0.56-1.79c0.42-0.18,0.78-0.5,1.16-0.75c-0.42-0.26-0.84-0.53-1.27-0.78
			C248.16,729.77,247.92,729.71,247.57,729.49z"/>
		<path class="st1" d="M258.21,598.92c1.88-1.93,3.23-4.08,3.97-6.57c0.34-1.14-0.07-2.17-0.83-3.06c-0.81-0.95-1.92-1.26-3.05-0.96
			c-0.53,0.14-1.09,0.76-1.33,1.3c-0.5,1.12-1.24,0.84-1.91,0.42c-0.62-0.38-1-0.83-0.45-1.78c2.47-4.29,8.48-2.67,9.66,0.61
			c0.46,1.27,0.32,2.89,0.01,4.26c-0.36,1.6-0.96,3.26-1.89,4.6c-1.58,2.28-3.57,4.23-6.27,5.25c-0.31,0.12-0.53,0.47-0.8,0.71
			c0.32,0.19,0.61,0.48,0.95,0.55c1.96,0.38,3.92,0.72,5.89,1.04c0.77,0.13,1.57,0.13,2.34,0.28c0.73,0.14,0.86,0.56,0.36,1.16
			c-0.29,0.34-0.44,0.83-0.79,1.07c-0.41,0.29-0.99,0.6-1.43,0.51c-0.92-0.19-1.77-0.71-2.69-0.93c-1.73-0.41-3.48-0.75-5.24-1.04
			c-1.46-0.24-2.95-0.47-4.42-0.48c-0.82-0.01-1.23-0.38-1.37-0.95c-0.17-0.68-0.2-1.5,0.6-1.9c0.49-0.25,1.05-0.52,1.58-0.52
			C254.04,602.51,256.1,600.76,258.21,598.92z"/>
		<path class="st1" d="M260.79,621.61c1.44-1.23,3.05-0.99,4.58-0.68c2.75,0.56,4.51,2.24,5.18,5.04c0.32,1.35,0.91,2.64,1.24,3.99
			c0.13,0.51-0.08,1.14-0.23,1.68c-0.84,2.97-2.07,5.69-4.9,7.32c-2.4,1.39-4.97,2.2-7.68,1.34c-1.07-0.34-2.05-1.26-2.83-2.13
			c-2.8-3.09-2.78-7.85-0.59-11.11C256.97,624.95,258.49,622.99,260.79,621.61 M269.5,628.38c-0.55-1.32-0.93-2.74-1.69-3.92
			c-0.52-0.8-1.48-1.47-2.39-1.84c-2.21-0.9-4.09,0.37-5.43,1.74c-2.29,2.33-4.03,5.09-3.65,8.67c0.45,4.24,3.57,6.37,7.52,5.11
			C268.34,636.72,270.45,633.14,269.5,628.38z"/>
		<path class="st1" d="M258.92,668.75c-1.73,0.79-3-0.22-4.14-0.98c-2.97-1.97-4.11-6.51-3.41-9.97c0.48-2.37,1.2-4.53,3.07-6.07
			c3.36-2.76,6.45-2.83,10,0.01c2.94,2.34,2.92,5.54,2.5,8.92c-0.37,3.03-1.74,5.38-4.26,6.95
			C261.65,668.26,260.27,668.39,258.92,668.75 M253.5,660.88c0,2.58,1.63,4.93,3.87,5.69c2.42,0.82,5.31-0.63,6.49-2.58
			c1.24-2.04,1.51-4.2,1.5-6.47c-0.01-2.54-1.79-5-4.2-5.79c-2.92-0.96-5.77,0.57-6.94,3.4
			C253.47,656.95,253.52,658.77,253.5,660.88z"/>
		<path class="st1" d="M199.92,632.06c-3.71-3.07-4.46-7.22-3.82-11.46c0.45-2.98,2.45-5.3,5.64-6.31c2.07-0.66,3.48-0.11,5.2,1.17
			c2,1.49,3.21,3.25,3.8,5.53c0.49,1.89,0.12,3.75-0.28,5.64c-0.65,3.08-2.41,5.1-5.36,6.03
			C203.36,633.2,201.6,633.13,199.92,632.06 M207.98,619.23c-0.82-0.9-1.66-1.79-2.45-2.72c-0.63-0.74-1.41-1.04-2.33-0.88
			c-1.58,0.28-4.33,3.19-4.64,4.75c-0.46,2.32-0.27,4.56,0.52,6.78c0.72,2.02,2.01,3.54,4.12,3.87c1.54,0.24,3.17-0.4,4.13-1.67
			C209.26,626.82,210.06,622.4,207.98,619.23z"/>
		<path class="st1" d="M244.48,631.61c-0.59,2.36-1.63,4.31-3.64,5.55c-1.35,0.84-2.85,1.17-4.44,0.69
			c-0.96-0.29-2.06-0.34-2.85-0.87c-1.8-1.19-2.8-3.05-3.58-5.04c-1.68-4.3-0.31-7.97,2.55-11.1c1.74-1.9,6.26-2.43,8.59-0.03
			c2.85,2.93,3.86,6.33,3.61,10.26C244.72,631.21,244.56,631.34,244.48,631.61 M242.03,633.16c0.71-1.76,1.04-3.5,0.7-5.46
			c-0.33-1.94-1.45-3.37-2.37-4.96c-0.92-1.6-4.05-2.42-5.58-1.43c-1.7,1.1-3.61,5.37-3.19,7.3c0.42,1.92,1,3.74,2.2,5.42
			c1.25,1.75,2.77,2.42,4.76,2.2C240.31,636.04,241.39,634.95,242.03,633.16z"/>
		<path class="st1" d="M232.1,704.86c-0.77,1.48-1.5,2.87-2.33,4.18c-1.34,2.11-6.19,4.17-8.51,3.53c-1.87-0.52-3.17-1.85-3.57-3.76
			c-0.33-1.57-0.62-3.22-0.5-4.8c0.26-3.39,0.79-6.72,3.62-9.18c1.73-1.5,3.9-1.76,5.81-0.49c1,0.66,2.07,1.21,3.1,1.83
			c1.61,0.97,2.59,2.38,2.61,4.29C232.35,701.89,232.18,703.31,232.1,704.86 M228.23,697.51c-1.07-0.73-2.05-1.8-3.23-2.12
			c-2.21-0.59-3.9,1.42-4.52,3.14c-0.97,2.69-1.3,5.44-0.73,8.22c0.82,4.05,3.2,5.14,6.49,3.02c3.42-2.2,4.81-5.5,4.3-9.54
			c-0.06-0.46-0.39-0.95-0.73-1.3C229.34,698.49,228.75,698.15,228.23,697.51z"/>
		<path class="st1" d="M244.99,705.38c0.95-2.01,1.8-3.95,2.86-5.77c1.03-1.76,5.06-3.25,6.81-2.43c1.05,0.49,1.88,1.53,2.68,2.43
			c0.76,0.85,1.36,1.84,2.04,2.75c1.15,1.54,1.32,3.37,1,5.08c-0.29,1.52-1.05,3.02-1.89,4.35c-1.74,2.77-6.1,4.38-9.31,3.64
			c-2.7-0.62-4.48-2.79-4.45-5.53C244.77,708.44,244.91,706.97,244.99,705.38 M257.76,703.31c-0.73-1.07-1.43-2.16-2.21-3.2
			c-0.34-0.46-0.78-0.93-1.28-1.16c-1.64-0.77-3.19-0.02-4.19,1.04c-2.37,2.52-3.77,5.62-3.22,9.15c0.27,1.71,0.5,3.84,2.67,4.45
			c0.93,0.26,2.01,0.15,2.99,0.01C257.36,712.94,259.91,707.52,257.76,703.31z"/>
		<path class="st1" d="M190.5,691.38c1.32-0.45,2.56-0.93,3.84-1.18c0.59-0.12,1.51,0,1.85,0.38c1.68,1.93,3.64,3.63,4.47,6.25
			c1.42,4.49-1.29,8.72-5.28,10.1c-1.56,0.54-3.09,0.68-4.71,0.27c-2.01-0.51-3.06-1.89-3.71-3.69c-1.05-2.92-0.67-5.71,0.63-8.5
			C188.27,693.54,189.04,692.28,190.5,691.38 M190.96,705.12c0.53,0.17,1.06,0.5,1.59,0.49c2.26-0.02,4.1-0.82,5.58-2.69
			c1.85-2.34,1.29-5.79-0.35-7.76c-0.63-0.76-1.18-1.58-1.8-2.34c-0.26-0.32-0.6-0.78-0.94-0.82c-1.93-0.2-3.46,0.58-4.74,2.03
			c-1.6,1.81-1.91,3.92-1.81,6.22C188.57,702.21,188.88,703.99,190.96,705.12z"/>
		<path class="st1" d="M195.21,684.48c-2.2-0.14-4.49-2-4.88-4.05c-0.3-1.58-0.49-3.2-0.52-4.8c-0.06-3.99,2.59-6.56,5.74-8.03
			c0.82-0.38,2.18-0.25,3.02,0.18c1.52,0.79,2.85,1.83,3.47,3.7c0.45,1.33,1.28,2.53,1.16,4.02c-0.05,0.61-0.03,1.28-0.28,1.81
			c-1.01,2.15-1.87,4.42-3.67,6.06C198.18,684.36,196.77,684.54,195.21,684.48 M198.31,681.78c3.25-2.71,3.59-7.24,1.55-10.67
			c-1.08-1.82-2.49-2.57-4.07-1.81c-1.6,0.76-2.93,1.98-3.37,3.73c-0.56,2.23-0.55,4.52,0.21,6.76
			C193.53,682.47,195.76,683.35,198.31,681.78z"/>
		<path class="st1" d="M194.18,647.6c1.14-1.87,2.39-3.47,4.42-4.31c1.8-0.75,3.38-0.31,4.81,0.79c2.35,1.81,3.09,4.37,3.46,7.21
			c0.27,2.1,0.06,4.08-0.81,5.92c-1.88,4.02-5.66,4.26-8.69,1.89c-3.35-2.63-3.95-6.43-3.69-10.43
			C193.7,648.35,194.01,648.05,194.18,647.6 M202.56,658.69c0.73-0.85,1.75-1.59,2.14-2.57c1-2.58,0.9-5.23-0.35-7.76
			c-0.26-0.54-0.66-1.02-0.87-1.57c-0.72-1.88-3.04-2.86-4.71-1.78c-0.97,0.63-1.93,1.52-2.5,2.51c-1.3,2.26-0.58,4.58,0.23,6.84
			C197.34,656.7,199.6,658.97,202.56,658.69z"/>
		<path class="st1" d="M226.94,688.35c-3.66-1.28-5.34-3.94-5.96-7.54c-0.39-2.27,0.06-4.23,1.31-6.1c1.23-1.82,5.33-3.69,7.19-2.8
			c1.73,0.83,3.32,2.16,4.15,4.04c0.84,1.91,1.27,3.93,1.32,6.04c0.06,2.24-0.86,3.9-2.72,5.04c-0.87,0.54-1.83,1.01-2.81,1.29
			C228.69,688.52,227.85,688.35,226.94,688.35 M232.1,684.61c0.26-0.41,0.63-0.78,0.75-1.23c0.77-2.82-0.03-5.41-1.55-7.74
			c-0.6-0.93-1.62-1.87-2.64-2.18c-2.16-0.66-5.33,1.64-5.57,3.9c-0.27,2.53-0.03,5.04,1.53,7.2
			C226.97,687.83,230.16,687.64,232.1,684.61z"/>
		<path class="st1" d="M220.75,585.44c0.58-0.62,1.08-1,1.96-0.55c0.87,0.44,0.86,1.09,0.88,1.84c0.09,3.65-0.59,7.19-1.51,10.71
			c-0.3,1.15-0.3,2.41-0.27,3.62c0.02,0.98-0.33,1.68-1.03,2.29c-0.76,0.66-1.4,0.48-1.85-0.41c-0.73-1.45,0.26-2.7,0.41-4.03
			c0.29-2.53,0.92-5.01,1.41-7.52c0.18-0.92,0.36-1.83,0.51-2.75c0.04-0.26-0.02-0.53-0.04-0.8c-0.25,0.06-0.53,0.07-0.76,0.18
			c-1.41,0.75-2.78,1.58-4.22,2.26c-0.56,0.27-1.37,0.9-1.82-0.22c-0.42-1.04,0.15-1.44,1.09-1.59
			C217.6,588.14,219.31,587.1,220.75,585.44z"/>
		<path class="st1" d="M240.8,590.53c-0.82,2.54-1.63,5-2.31,7.5c-0.43,1.56-0.55,3.2-1.03,4.73c-0.18,0.59-0.87,1.18-1.48,1.46
			c-0.83,0.39-1.68-0.26-1.53-1.19c0.25-1.49,0.65-2.98,1.12-4.42c0.94-2.91,1.99-5.79,2.95-8.69c0.09-0.27-0.03-0.69-0.21-0.92
			c-0.1-0.12-0.54-0.03-0.81,0.05c-0.5,0.14-0.96,0.39-1.47,0.49c-0.79,0.17-1.53-0.04-1.42-0.99c0.06-0.55,0.52-1.47,0.88-1.51
			c1.49-0.15,2.66-0.69,3.68-1.79c0.25-0.27,1.06-0.21,1.51-0.04c0.32,0.13,0.67,0.71,0.65,1.07
			C241.26,587.7,241.04,589.08,240.8,590.53z"/>
		<path class="st1" d="M239.06,546.49c1.78,0.17,3.42,0.42,5.07,0.5c3.07,0.14,6.14,0.18,9.21,0.28c2,0.07,4,0.14,5.99,0.28
			c0.45,0.03,1.15,0.26,1.25,0.56c0.13,0.38-0.13,1.03-0.44,1.36c-0.32,0.33-0.92,0.61-1.38,0.57c-2.22-0.18-4.43-0.56-6.65-0.69
			c-4.09-0.24-8.19-0.32-12.28-0.57c-0.93-0.06-1.85-0.47-2.74-0.82c-0.2-0.08-0.36-0.58-0.32-0.85c0.04-0.23,0.37-0.54,0.61-0.59
			C237.89,546.43,238.42,546.49,239.06,546.49z"/>
		<path class="st1" d="M201.66,706.15c0.34,0.19,0.56,0.39,0.77,0.58c-0.21,0.06-0.44,0.2-0.63,0.17c-0.3-0.04-0.58-0.21-0.86-0.32
			C201.13,706.44,201.33,706.3,201.66,706.15z"/>
		<path class="st1" d="M223.13,730.2c0.76-0.72,1.54-0.79,2.25-0.18c0.97,0.84,0.63,1.98,0.36,2.94c-0.66,2.33-1.85,3.49-4.54,3.41
			c-2.52-0.07-4.61-0.65-6.02-2.89c-0.94-1.5-0.65-3.05-0.26-4.61c0.18-0.73,0.46-1.44,0.65-2.17c0.39-1.45,1.52-2.25,2.69-2.94
			c0.7-0.42,1.55-0.65,2.36-0.81c0.47-0.09,1.01,0.06,1.49,0.21c0.33,0.11,0.67,0.35,0.89,0.63c0.48,0.59,0.88,1.24,1.32,1.87
			c-0.7,0.38-1.45,0.69-2.1,1.14c-0.71,0.49-1.68,0.99-1.9,1.69c-0.24,0.73,0.15,1.76,0.51,2.55c0.13,0.29,1.01,0.44,1.45,0.32
			C222.62,731.28,222.81,730.65,223.13,730.2 M216.88,732.33c0.33,1.38,3.22,2.8,4.45,2.18c0.1-0.05,0.21-0.28,0.18-0.38
			c-0.04-0.15-0.19-0.32-0.33-0.37c-0.64-0.23-1.36-0.29-1.92-0.64c-2.11-1.3-2.12-3.45-1.34-5.67c0.14-0.39,0.27-0.77,0.41-1.16
			c-0.36,0.26-0.73,0.5-1.07,0.78c-0.08,0.06-0.06,0.23-0.12,0.33C216.18,728.94,216.18,730.55,216.88,732.33z"/>
		<path class="st1" d="M262.21,627.93c0.44-0.56,0.66-0.99-0.29-0.97c-0.39,0.01-0.77,0.01-1.16,0c-0.35-0.01-0.69-0.06-1.03-0.09
			c0.19-0.3,0.32-0.65,0.57-0.88c0.94-0.88,3.43-0.7,4.26,0.34c0.21,0.26,0.32,0.84,0.17,1.1c-0.45,0.81-0.17,1.3,0.45,1.82
			c0.45,0.38,0.89,0.81,1.21,1.3c0.64,0.99,0.44,2.58-0.37,3.65c-1.27,1.66-4.14,2.52-6.11,1.8c-0.33-0.12-0.69-0.32-0.9-0.59
			c-0.21-0.27-0.24-0.67-0.34-1.01c0.33-0.04,0.71-0.2,0.99-0.09c1.32,0.53,2.65,0.6,3.82-0.21c0.6-0.41,1.29-1.2,1.29-1.82
			c0-0.65-0.7-1.37-1.23-1.93c-0.29-0.31-0.9-0.3-1.29-0.56c-0.31-0.21-0.65-0.59-0.69-0.92
			C261.52,628.6,261.93,628.29,262.21,627.93z"/>
		<path class="st1" d="M261.18,656.56c-0.91,1.36-0.83,1.58,0.9,2.84c1.26,0.91,1.83,2.14,1.49,3.22c-0.38,1.21-2.14,2.35-3.5,2.26
			c-0.9-0.05-2.06-1.66-2.19-2.92c-0.34-3.33,1.15-5.89,3.44-8.07c0.25-0.24,0.85-0.11,1.29-0.15c-0.06,0.44-0.02,0.94-0.22,1.3
			C262.1,655.58,261.64,656.02,261.18,656.56 M260.47,662.69c0.59,0.62,1.01,0.59,1.33-0.28c0.43-1.19-0.72-1.46-1.17-2.12
			c-0.1-0.15-0.46-0.29-0.58-0.22c-0.17,0.1-0.36,0.42-0.32,0.59C259.87,661.31,260.12,661.93,260.47,662.69z"/>
		<path class="st1" d="M202.24,622.77c-0.06-0.36-0.13-0.68-0.05-0.96c0.1-0.36,0.3-0.69,0.46-1.04c0.36,0.28,0.89,0.5,1.04,0.87
			c0.83,2.11,0.74,4.24-0.09,6.33c-0.12,0.31-0.44,0.54-0.66,0.8c-0.25-0.3-0.67-0.58-0.72-0.91c-0.07-0.45,0.2-0.95,0.2-1.43
			C202.42,625.23,202.35,624.04,202.24,622.77z"/>
		<path class="st1" d="M237.83,631.42c-0.2,0.62-0.55,1.25-0.4,1.72c0.18,0.57,0.77,0.69,1.47,0.39c0.33-0.14,0.92,0.3,1.39,0.47
			c-0.33,0.24-0.64,0.61-1.01,0.68c-0.94,0.17-1.92,0.37-2.85,0.25c-1.45-0.2-2.02-2.38-0.99-3.44c0.54-0.55,1.03-1.17,1.65-1.62
			c0.87-0.63,0.77-1.5,0.64-2.31c-0.16-1.03-1.08-0.45-1.66-0.57c-0.41-0.09-1.01-0.03-1.2-0.28c-0.25-0.33-0.34-0.97-0.19-1.36
			c0.12-0.32,0.68-0.65,1.06-0.67c2.44-0.11,4.47,1.61,4.01,3.6C239.51,629.38,238.54,630.33,237.83,631.42z"/>
		<path class="st1" d="M221.78,703.31c-0.27-3.06,3.28-5.21,5.31-3.63c0.88,0.68,1.83,2.66,1.24,3.59
			c-0.67,1.06-1.49,2.12-2.49,2.84C223.59,707.74,221.99,705.91,221.78,703.31 M224.1,704.22c0.33,0.21,0.83,0.68,0.95,0.6
			c0.48-0.32,1.08-0.77,1.19-1.27c0.14-0.64-0.01-1.43-0.29-2.04c-0.14-0.3-1-0.61-1.24-0.46c-0.48,0.3-0.94,0.88-1.08,1.43
			C223.51,702.95,223.84,703.55,224.1,704.22z"/>
		<path class="st1" d="M252.79,704.67c0.11-0.22,0.13-0.38,0.2-0.52c0.19-0.44,0.39-0.87,0.59-1.3c0.23,0.39,0.43,0.8,0.7,1.15
			c0.26,0.33,0.61,0.59,0.91,0.89c0.42,0.41,0.95,0.74,0.18,1.38c-0.27,0.23-0.17,0.85-0.35,1.25c-0.3,0.65-0.57,1.41-1.09,1.82
			c-0.28,0.22-1.06-0.24-1.62-0.34c-0.2-0.04-0.51,0.01-0.61,0.14c-0.24,0.31-0.3,0.78-0.59,1.02c-0.28,0.24-0.74,0.35-1.11,0.33
			c-0.14-0.01-0.28-0.53-0.38-0.83c-0.27-0.79-0.44-1.62-0.8-2.37c-0.53-1.08-0.06-2.88,0.96-3.53c0.28-0.18,0.39-0.6,0.61-0.89
			c0.35-0.46,0.44-1.21,1.39-0.9c1.1,0.36,0.57,0.95,0.36,1.52C251.93,704.11,251.59,704.75,252.79,704.67z"/>
		<path class="st1" d="M190.05,701.77c0.09-0.65,0.19-1.17,0.26-1.69c0.04-0.32,0.17-0.73,0.02-0.95c-0.53-0.84-0.21-1.44,0.39-2.05
			c0.59-0.6,1.14-0.91,1.98-0.32c0.27,0.19,0.84-0.04,1.28-0.09c0.58-0.06,1.36-0.39,1.69-0.13c0.52,0.4,1.08,1.25,1,1.81
			c-0.13,0.9-0.18,2.02-1.39,2.5c-0.47,0.18-0.65,1.03-1.12,1.27c-1.02,0.51-2.13,0.88-3.24,1.13
			C190.74,703.28,190.35,702.37,190.05,701.77 M194.44,698.8c0.2,0.05,0.41,0.11,0.61,0.16c0.03-0.25,0.05-0.51,0.08-0.76
			C194.9,698.31,194.67,698.43,194.44,698.8z"/>
		<path class="st1" d="M196.76,679.07c-0.09,0.44-0.11,0.79-0.27,1.04c-0.24,0.38-0.59,0.68-0.9,1.02c-0.3-0.34-0.81-0.66-0.85-1.03
			c-0.12-1.08-0.08-2.17-0.01-3.26c0.01-0.21,0.4-0.41,0.62-0.61c0.29-0.25,0.6-0.5,0.9-0.75c-0.33-0.27-0.64-0.57-1-0.79
			c-0.16-0.09-0.47,0.07-0.62-0.03c-0.35-0.22-0.64-0.53-0.96-0.81c0.4-0.33,0.81-0.93,1.2-0.93c1.18,0.02,2.36,0.23,3.52,0.49
			c0.52,0.11,1.06,0.2,0.71,1.22c-0.51,1.49-1.24,2.71-2.32,3.79C196.68,678.52,196.76,678.77,196.76,679.07z"/>
		<path class="st1" d="M200.31,655.15c-0.42-0.24-0.78-0.41-1.14-0.58c-0.69-0.32-1.11-0.74-1.15-1.6
			c-0.04-0.97-0.38-1.92-0.43-2.89c-0.03-0.56,0.1-1.47,0.43-1.63c0.83-0.4,1.29,0.43,1.51,1.07c0.24,0.68,0.15,1.48,0.35,2.18
			c0.14,0.48,0.55,0.89,0.84,1.33c0.4-0.28,0.83-0.54,1.19-0.86c0.2-0.18,0.24-0.54,0.44-0.7c0.37-0.3,0.8-0.51,1.21-0.75
			c0.21,0.49,0.69,1.06,0.58,1.46c-0.47,1.64-1.09,3.24-1.72,4.82c-0.12,0.29-0.58,0.65-0.84,0.62c-0.26-0.03-0.52-0.49-0.67-0.81
			C200.67,656.29,200.54,655.74,200.31,655.15z"/>
		<path class="st1" d="M226.49,684.94c-1.12-1.18-1.52-2.58-0.78-3.87c0.59-1.03,0.4-1.88,0.05-2.74c-0.45-1.14,0.29-1.65,0.94-2.22
			c0.98-0.85,1.95-0.23,2.77,0.26c0.67,0.4,1.08,1.08,0.63,2c-0.79,1.67-0.67,3.32,0.15,4.99c0.21,0.43,0.14,1.42-0.13,1.58
			c-0.71,0.4-1.59,0.58-2.42,0.66C227.34,685.63,226.93,685.21,226.49,684.94 M227.58,681.65c-1.18,0.67-0.47,1.46-0.1,2.19
			c0.09,0.18,0.45,0.22,0.69,0.32c0.03-0.27,0.13-0.55,0.07-0.8C228.11,682.82,227.89,682.3,227.58,681.65 M228.1,677.78
			c-0.05,0.47-0.11,0.93-0.13,1.4c0,0.03,0.27,0.08,0.42,0.11C228.33,678.83,228.28,678.37,228.1,677.78z"/>
	</g>
</g>
<g id="volgen">
	<g>
		<path class="st0" d="M896,690c0,0-29.22-4.56-40.61,20.72c-11.39,25.28-5.17,43.27,5.72,51.78c10.89,8.5,27.12,18.14,37.5,13.82
			C909,772,935,759,937,740S914,689,896,690z"/>
		<path class="st0" d="M943,681c-15-2-15,4-20.37,11.62c-5.37,7.62-3.63,12.38,12.96,10.86S943,681,943,681z"/>
	</g>
	<g id="Vorm_25_1_">
		<path d="M945.71,752.45c-0.9,5.06-2.68,9.66-5.44,13.86c-1.51,2.29-2.94,4.67-4.75,6.7c-2.38,2.66-5.01,5.11-7.71,7.46
			c-1.11,0.96-2.67,1.41-4.02,2.09c-4,2.03-8.25,3.37-12.53,4.71c-3.5,1.09-7.04,1.46-10.57,1.12c-3.85-0.38-7.8-0.63-11.24-2.91
			c-2.4-1.59-4.98-2.94-7.53-4.3c-2.5-1.33-5.16-2.39-7.59-3.85c-2.12-1.27-4.13-2.78-5.96-4.44c-2.21-2-4.44-4.09-6.18-6.48
			c-1.77-2.44-2.9-5.33-4.39-7.98c-1.26-2.25-1.2-4.76-1.45-7.19c-0.17-1.63,0.08-3.31,0.21-4.97c0.12-1.49,0.38-2.96,0.48-4.45
			c0.14-2.02,0.15-4.04,0.27-6.06c0.15-2.3,0.67-4.54,1.76-6.57c2.3-4.26,4.43-8.66,7.2-12.6c1.95-2.77,4.73-5.03,7.38-7.23
			c3-2.49,6.2-4.78,9.46-6.93c1.36-0.89,3.09-1.23,4.68-1.73c2.12-0.67,4.24-1.35,6.4-1.85c1.71-0.4,3.47-0.66,5.22-0.75
			c2.47-0.12,4.95-0.08,7.43-0.02c3.91,0.09,7.59,1.14,10.82,3.31c1.36,0.91,2.71,1.68,4.23,2.29c1.08,0.43,2.03,1.29,2.9,2.1
			c1.65,1.54,3.21,3.18,4.82,4.76c0.05,0.05,0.39-0.08,0.44-0.2c0.08-0.17,0.01-0.41,0.02-0.62c0.08-1.45,0-2.93,0.29-4.34
			c0.44-2.18,1.12-4.31,1.73-6.45c0.59-2.1,1.99-3.7,3.59-5.04c1.42-1.19,3.01-2.2,4.62-3.11c0.93-0.52,2.04-0.89,3.1-0.98
			c1.79-0.16,3.62-0.17,5.41,0c1.47,0.14,2.93,0.57,4.36,0.99c1.18,0.35,1.82,1.15,1.88,2.49c0.02,0.6,0.44,1.28,0.86,1.76
			c1.24,1.38,1.81,3.05,2.1,4.8c0.6,3.65-0.22,6.97-2.48,9.96c-1.97,2.6-4.69,3.97-7.67,4.86c-3.12,0.93-6.39,0.94-9.62,0.75
			c-1.26-0.08-2.49-0.64-3.75-0.94c-0.33-0.08-0.69-0.01-1.03,0c0.14,0.29,0.21,0.64,0.42,0.87c1.34,1.46,3.01,2.72,4,4.38
			c1.65,2.75,3.11,5.67,4.23,8.68c1.55,4.19,2.92,8.48,3.95,12.83c0.67,2.83,0.75,5.83,0,8.75
			C945.88,750.73,945.83,751.54,945.71,752.45 M937.65,723.12c-0.34-0.45-0.72-0.87-1-1.35c-2.39-4.18-5.91-7.43-9.08-10.95
			c-1.31-1.45-2.92-2.63-4.39-3.94c-0.09-0.08-0.17-0.19-0.27-0.25c-3.29-1.79-6.53-3.66-9.88-5.32c-2.23-1.11-4.74-1.29-7.19-1.45
			c-1.35-0.09-2.73,0.19-4.09,0.2c-0.93,0.01-1.89-0.35-2.78-0.2c-2.88,0.49-5.75,1.04-8.58,1.75c-2.87,0.72-5.73,1.56-8.15,3.4
			c-3.06,2.33-6.2,4.55-9.18,6.97c-1.9,1.54-3.87,3.14-5.28,5.09c-2.1,2.91-3.77,6.13-5.58,9.25c-1.98,3.4-3.08,7.04-2.86,11.03
			c0.05,0.84-0.13,1.69-0.24,2.54c-0.41,3.35-1.05,6.69-1.17,10.05c-0.07,1.92,0.55,3.92,1.11,5.8c1.53,5.07,4.38,9.36,8.05,13.16
			c2.58,2.67,5.5,4.82,8.69,6.68c1,0.58,1.56,0.5,2.23-0.45c1.23-1.74,2.47-3.46,4.38-4.58c1.33-0.78,2.55-1.73,3.85-2.56
			c3.4-2.16,7.08-3.44,11.15-3.47c2.49-0.01,4.98-0.03,7.47,0.01c1.6,0.03,3.22,0.05,4.8,0.27c1.88,0.26,3.86,0.4,5.55,1.15
			c3.61,1.61,7.2,3.31,10.29,5.88c1.4,1.17,2.95,2.17,4.46,3.2c0.25,0.17,0.82,0.22,1,0.05c1.35-1.25,2.8-2.43,3.9-3.88
			c1.68-2.19,3.19-4.52,4.61-6.89c1.13-1.9,2.29-3.86,2.92-5.95c0.88-2.94,1.5-5.97,1.95-9.05c0.43-2.92,0.35-5.69-0.29-8.47
			c-0.48-2.08-1.31-4.08-1.82-6.16C941.21,730.71,939.62,726.96,937.65,723.12 M925.56,779.78c0.88-0.62,1.75-1.25,2.63-1.87
			c0.51-0.36,0.47-0.68,0-1.06c-1.27-1-2.51-2.04-3.79-3.02c-2.75-2.11-5.63-3.96-8.92-5.21c-2.79-1.06-5.59-2.03-8.58-2.04
			c-3.83-0.02-7.65,0.09-11.48,0.25c-2.42,0.1-4.67,0.95-6.85,1.99c-3.55,1.7-6.48,4.11-8.77,7.33c-0.47,0.67-0.46,1.16,0.15,1.55
			c0.71,0.46,1.5,0.83,2.28,1.19c1.27,0.58,2.75,0.88,3.8,1.72c4,3.2,8.6,4.99,13.57,5.51c4.27,0.45,8.59,0.22,12.73-1.39
			C916.67,783.04,921.06,781.5,925.56,779.78 M949.49,712.29c3.15-1.36,5.6-3.28,6.63-6.82c0.9-3.08,0.81-5.93-0.86-8.65
			c-0.8-1.29-1.91-2.38-2.71-3.67c-0.81-1.3-1.82-1.97-3.37-1.9c-1.47,0.07-2.94-0.01-4.41,0.02c-0.81,0.02-1.72-0.08-2.41,0.25
			c-1.65,0.79-3.34,1.62-4.76,2.76c-1.66,1.33-3.25,2.83-3.88,5.04c-0.57,2.02-1.51,3.98-1.78,6.03c-0.21,1.56-0.67,3.22,0.08,4.87
			c1.15,2.53,3.48,3.35,5.76,3.61C941.69,714.28,945.62,713.87,949.49,712.29z"/>
		<path d="M889.3,743.14c-0.16-3.15,0.61-5.95,1.95-8.63c1.67-3.34,4.57-5.18,7.95-6.16c2.63-0.76,5.39-0.96,8.13-0.08
			c2.28,0.73,4.21,1.8,5.15,4.16c0.16,0.39,0.45,0.82,0.8,1.04c1.59,0.99,2.19,2.6,2.43,4.26c0.53,3.72,0.91,7.57-0.79,11.02
			c-1.59,3.2-3.71,6.1-7.5,7.31c-1.46,0.47-2.84,1.14-4.39,0.92c-3.3-0.47-6.64-0.91-9.1-3.55c-1.77-1.9-3.44-3.9-4.16-6.45
			C889.44,745.78,889.45,744.5,889.3,743.14 M913.98,739.99c-0.2-1.88-0.86-3.52-2.28-4.83c-0.35-0.33-0.5-0.87-0.74-1.32
			c-0.46-0.85-0.74-1.92-1.43-2.51c-2.94-2.5-6.42-2.52-9.86-1.48c-1.79,0.54-3.57,1.49-5.04,2.66c-1.47,1.17-2.31,2.95-2.92,4.79
			c-0.8,2.39-1.01,4.9-0.52,7.25c0.78,3.66,2.88,6.71,6.13,8.71c2.49,1.53,5.41,2.24,8.2,1.64c5.21-1.13,8.83-6.2,8.7-11.23
			C914.19,742.52,914.06,741.38,913.98,739.99z"/>
		<path d="M944.01,703.41c-1.07,1.79-2.04,3.53-3.11,5.21c-0.29,0.45-1.06,1.05-1.34,0.93c-0.6-0.26-0.67-0.93-0.76-1.71
			c-0.16-1.5-0.95-2.93-1.42-4.41c-0.1-0.3,0.05-0.69,0.08-1.03c0.37,0.08,0.76,0.1,1.1,0.26c0.17,0.08,0.26,0.38,0.36,0.59
			c0.34,0.7,0.64,1.42,1,2.1c0.11,0.22,0.38,0.35,0.57,0.52c0.14-0.19,0.3-0.36,0.42-0.56c0.73-1.25,1.24-2.71,2.22-3.71
			c2.03-2.07,4.32-3.9,6.49-5.83c0.06-0.06,0.11-0.16,0.18-0.17c0.54-0.09,1.07-0.21,1.61-0.22c0.11,0,0.37,0.62,0.3,0.68
			c-0.46,0.42,0.09,1.29-1,1.56c-2.18,0.53-3.53,2.35-5.01,3.89C945.14,702.1,944.62,702.73,944.01,703.41z"/>
	</g>
	<text transform="matrix(1 0 0 1 845.5562 809.5439)" class="st2 st3">Hij volgt je nu</text>
</g>
</svg>
