<?xml version="1.0" encoding="utf-8"?>
<!-- Generator: Adobe Illustrator 23.0.4, SVG Export Plug-In . SVG Version: 6.00 Build 0)  -->
<svg version="1.1" xmlns="http://www.w3.org/2000/svg" xmlns:xlink="http://www.w3.org/1999/xlink" x="0px" y="0px"
	 viewBox="0 0 862 744" style="enable-background:new 0 0 862 744;" xml:space="preserve">
<style type="text/css">
	.st0{fill:#606060;}
	.st1{fill:#FFFFFF;}
</style>
<g id="trein">
	<path class="st0" d="M305.4,77.71c6.1-4.61,10.23-7.12,11.6-6.71l-4-4c0,0-4.47,3.66-11.97,9.82c-26-5.26-58.15-11.68-80.78-16.2
		c4.79-2.91,8.49-4.87,10.75-5.63l-2-5c-4.16,0.69-10.51,3.83-18.36,8.71C199.27,56.45,192,55,192,55s-30,18-31,19l21.92,4.18
		c-8.51,6.45-17.59,13.63-26.83,21.15C137.55,96.74,125,95,125,95l-27,21l32.11,4.91c-8.73,7.39-17.27,14.74-25.28,21.71L77,139
		l-26,17l30.24,7.38C65.43,177.44,55,187,55,187l8,3c0.48-4.06,9.14-13.51,22.32-25.62l86.05,21.01
		C153.52,200.9,141.27,212.14,141,214c-0.2,1.4,9,6,9,6s13.63-13.2,33.12-31.74L223,198l23-37l-29.9-3.89
		c6.98-6.54,14.14-13.21,21.26-19.79L281,144c0,0,25-23,28-23c1,0-19.12-2.89-46.39-6.74c6.82-6.14,13.35-11.94,19.37-17.18L313,103
		c0,0,29-17,32-17C346.02,86,328.71,82.43,305.4,77.71z M206.04,155.8l-96.44-12.55c8.32-6.96,17.26-14.2,26.39-21.43l93.49,14.3
		C221.6,142.7,213.7,149.33,206.04,155.8z M256.72,113.43c-29.6-4.18-65.99-9.26-93.01-13.03c9.78-7.38,19.27-14.36,27.95-20.54
		l85.83,16.38C271.07,101.54,264.06,107.33,256.72,113.43z"/>
	<g id="Vorm_33_1_">
		<path class="st1" d="M352.5,98.09c-0.37,0.04-0.93,0.14-1.07-0.05c-1.31-1.84-3.46-1.61-5.27-2.12c-2.66-0.74-5.42-1.12-8.11-1.77
			c-2.75-0.67-5.45-1.55-8.2-2.2c-1.54-0.36-3.15-0.43-4.73-0.64c-2.07-0.28-4.13-0.56-6.2-0.86c-0.13-0.02-0.36-0.2-0.35-0.27
			c0.03-0.16,0.16-0.41,0.28-0.43c1.03-0.17,2.09-0.5,3.1-0.39c2.37,0.25,4.73,0.68,7.08,1.11c2.95,0.54,5.89,1.11,8.82,1.77
			c3.47,0.78,6.93,1.59,10.35,2.53c1.43,0.39,3.07,0.37,4.22,1.68C352.5,96.97,352.5,97.49,352.5,98.09z"/>
		<path class="st1" d="M286.53,83.54c-3.7-1.46-7.58-1.85-11.41-2.51c-2.15-0.37-4.26-0.98-6.4-1.39c-1.43-0.28-2.89-0.36-4.32-0.6
			c-1.6-0.26-3.18-0.59-4.77-0.87c-2.17-0.38-4.35-0.74-6.53-1.12c-2.72-0.47-5.41-0.95-7.95-2.15c-1.18-0.55-2.65-0.5-3.99-0.7
			c-2.6-0.39-5.21-0.69-7.79-1.19c-0.67-0.13-1.27-0.81-1.78-1.35c-0.13-0.14,0.13-0.78,0.36-1.07c0.08-0.1,0.73,0.05,0.91,0.26
			c0.81,0.94,1.87,0.95,2.99,1.1c4.35,0.62,8.7,1.1,12.94,2.47c2.84,0.92,5.87,1.22,8.83,1.77c1.86,0.35,3.72,0.65,5.58,0.99
			c2.83,0.52,5.65,1.05,8.47,1.58c3.49,0.65,6.97,1.34,10.46,1.93c2.33,0.39,4.69,0.61,7.04,0.93c2.74,0.37,5.51,0.64,8.22,1.16
			c4.47,0.86,8.91,1.88,13.37,2.82c0.09,0.02,0.23-0.04,0.28,0.01c2.25,1.97,3.45-0.24,4.9-1.27c2.14-1.51,4.22-3.1,6.37-4.6
			c0.3-0.21,0.83-0.07,1.26-0.09c-0.16,0.43-0.2,1.02-0.51,1.25c-1.87,1.4-3.85,2.66-5.71,4.08c-2.4,1.82-4.77,3.7-7.07,5.65
			c-2.98,2.51-5.81,5.18-8.83,7.63c-3.03,2.45-6.13,4.83-9.36,7.01c-4.5,3.03-8.72,6.39-12.91,9.82c-4.21,3.45-8.67,6.6-12.99,9.93
			c-2.46,1.9-4.86,3.88-7.28,5.84c-2.64,2.14-5.28,4.27-7.88,6.46c-3.85,3.24-7.69,6.49-11.49,9.78c-3.86,3.33-7.7,6.7-11.51,10.08
			c-3.87,3.44-7.62,7-11.56,10.35c-2.8,2.39-5.83,4.5-8.72,6.79c-1.83,1.45-3.61,2.98-5.38,4.52c-1.79,1.55-3.57,3.11-5.29,4.73
			c-1.62,1.53-3.1,3.21-4.74,4.7c-4.24,3.84-8.54,7.61-12.81,11.41c-3.61,3.22-7.17,6.51-10.84,9.66c-2.77,2.39-5.69,4.61-8.53,6.92
			c-0.93,0.76-1.86,1.54-2.72,2.38c-1.7,1.65-3.36,3.34-5.04,5.01c-0.1,0.1-0.31,0.22-0.39,0.18c-0.14-0.08-0.35-0.3-0.32-0.41
			c0.19-0.68,0.24-1.57,0.7-1.97c2.63-2.3,5.38-4.45,8.04-6.7c1.87-1.59,3.66-3.29,5.51-4.91c4.6-4.04,9.17-8.12,13.83-12.08
			c1.85-1.58,3.93-2.89,5.89-4.33c0.21-0.15,0.53-0.51,0.5-0.56c-0.23-0.32-0.5-0.75-0.84-0.84c-2.06-0.56-4.12-1.13-6.22-1.52
			c-2.94-0.54-5.91-0.87-8.85-1.38c-1.93-0.34-3.82-0.9-5.75-1.25c-2.23-0.4-4.47-0.69-6.71-1.02c-2.11-0.31-4.22-0.58-6.32-0.93
			c-1.95-0.32-3.88-0.72-5.83-1.07c-2.7-0.49-5.4-0.97-8.1-1.44c-2.22-0.39-4.44-0.76-6.66-1.13c-3.03-0.5-6.05-1-9.08-1.49
			c-0.49-0.08-0.98-0.16-1.48-0.22c-3.31-0.38-6.62-0.77-9.94-1.14c-1.92-0.21-3.84-0.33-5.75-0.59c-3.19-0.42-6.36-1.05-9.56-1.3
			c-0.87-0.07-1.98,0.79-2.72,1.49c-2.48,2.33-4.88,4.75-7.24,7.21c-3.39,3.51-6.75,7.06-10.05,10.65c-0.6,0.65-0.84,1.64-1.27,2.46
			c-0.11,0.21-0.31,0.37-0.47,0.55c-0.12-0.19-0.39-0.4-0.35-0.55c0.2-0.86,0.22-1.94,0.75-2.52c3.93-4.26,7.96-8.41,11.96-12.61
			c1.36-1.43,2.64-2.93,4.05-4.3c1.19-1.15,2.57-2.11,3.77-3.26c1.21-1.16,2.23-2.51,3.44-3.67c2.09-2,4.2-4,6.42-5.84
			c3.52-2.92,7.14-5.7,10.71-8.56c1.79-1.44,3.54-2.92,5.33-4.36c2.45-1.99,4.93-3.95,7.36-5.97c0.45-0.37,0.69-0.99,1.13-1.37
			c3.42-2.98,6.85-5.93,10.29-8.88c1.22-1.05,2.44-2.11,3.7-3.12c0.55-0.44,1.2-0.75,1.82-1.11c0.3-0.18,0.72-0.26,0.91-0.52
			c2.34-3.15,5.82-4.98,8.73-7.47c3.23-2.77,6.75-5.2,10.2-7.7c2.76-2.01,5.65-3.85,8.4-5.88c3.69-2.72,7.29-5.55,10.93-8.34
			c0.87-0.66,1.71-1.36,2.6-2c0.19-0.14,0.52-0.1,0.78-0.14c-0.04,0.3,0.02,0.72-0.15,0.87c-1.46,1.25-2.96,2.46-4.47,3.64
			c-1.07,0.84-2.17,1.64-3.28,2.42c-0.99,0.69-2.01,1.34-3.02,2c-0.19,0.12-0.52,0.27-0.51,0.39c0.02,0.24,0.18,0.62,0.36,0.67
			c0.6,0.18,1.23,0.33,1.85,0.34c1.68,0.05,3.37-0.09,5.04,0.05c1.89,0.16,3.75,0.61,5.64,0.81c4.53,0.48,9.09,0.62,13.56,1.67
			c2.57,0.6,5.27,0.61,7.9,0.92c2.17,0.26,4.33,0.57,6.49,0.85c1.54,0.2,3.07,0.39,4.61,0.57c1.63,0.2,3.26,0.43,4.9,0.55
			c1.15,0.09,2.32-0.09,3.47,0.04c2.84,0.32,5.67,0.76,8.52,1.11c1.91,0.23,3.84,0.35,5.75,0.59c2.84,0.35,5.67,0.76,8.51,1.13
			c2.26,0.3,4.51,0.59,6.78,0.85c1.91,0.22,3.84,0.38,5.75,0.58c0.22,0.02,0.51,0,0.65,0.13c2.24,2.08,3.63,0.03,5.12-1.11
			c3.26-2.5,6.46-5.08,9.67-7.65c2.97-2.37,5.84-4.87,8.89-7.13c4.12-3.06,8.43-5.85,12.54-8.93c2.15-1.62,4.01-3.63,6.05-5.4
			c1.24-1.07,2.6-1.99,3.88-3.01c0.28-0.22,0.69-0.72,0.61-0.84c-0.2-0.35-0.61-0.79-0.97-0.83c-4.46-0.5-8.76-1.69-13.1-2.78
			C293.85,83.41,290.23,82.9,286.53,83.54 M221.43,160.91c1.37-1.28,2.69-2.61,4.12-3.82c3.19-2.69,6.5-5.25,9.65-8
			c3.48-3.04,6.83-6.24,10.26-9.35c0.85-0.77,1.74-1.51,2.65-2.22c2.26-1.76,4.54-3.5,6.81-5.25c2.59-2.01,5.17-4.04,7.76-6.05
			c0.75-0.58,1.55-1.11,2.26-1.75c0.13-0.11-0.06-0.88-0.16-0.9c-1.72-0.25-3.45-0.42-5.18-0.61c-2.5-0.28-4.99-0.55-7.49-0.86
			c-3.8-0.46-7.59-0.96-11.39-1.42c-1.77-0.22-3.55-0.36-5.32-0.59c-2.61-0.35-5.19-0.83-7.81-1.1c-2.23-0.22-4.48-0.17-6.72-0.32
			c-1.92-0.13-3.84-0.31-5.75-0.57c-3.09-0.43-6.16-0.96-9.25-1.4c-2.93-0.42-5.86-0.78-8.8-1.15c-3.22-0.4-6.44-0.74-9.65-1.15
			c-2.33-0.3-4.64-0.76-6.98-1.03c-1.97-0.22-3.96-0.26-5.93-0.39c-1.64-0.1-2.61,0.97-3.81,1.87c-2.75,2.08-5.75,3.81-8.55,5.82
			c-3.21,2.3-6.32,4.74-9.45,7.15c-2.28,1.75-4.53,3.54-6.76,5.36c-0.27,0.22-0.29,0.76-0.43,1.15c0.42,0.09,0.85,0.28,1.26,0.24
			c1.03-0.1,2.05-0.44,3.08-0.45c1.86-0.01,3.72,0.25,5.59,0.24c2.91-0.02,5.82-0.31,8.72-0.22c2.55,0.08,5.09,0.56,7.63,0.81
			c3.27,0.32,6.55,0.58,9.82,0.86c3.4,0.29,6.8,0.56,10.2,0.86c1.92,0.17,3.84,0.33,5.75,0.58c2.61,0.34,5.19,0.83,7.8,1.11
			c3.39,0.37,6.8,0.59,10.2,0.88c3.35,0.28,6.71,0.52,10.05,0.87c4.04,0.42,8.07,0.91,12.1,1.44c0.67,0.09,1.3,0.51,1.93,0.82
			c0.06,0.03-0.04,0.55-0.08,0.56c-1.07,0.06-2.16,0.21-3.22,0.08c-2.79-0.33-5.55-0.83-8.34-1.18c-1.47-0.19-2.97-0.14-4.44-0.31
			c-3.85-0.44-7.68-1.03-11.54-1.39c-3.47-0.32-6.97-0.38-10.46-0.61c-1.08-0.07-2.14-0.35-3.21-0.51
			c-2.16-0.31-4.31-0.67-6.47-0.88c-1.85-0.19-3.73-0.14-5.58-0.32c-3.41-0.33-6.81-0.77-10.23-1.12c-2.2-0.23-4.4-0.47-6.61-0.56
			c-4.16-0.16-8.32-0.17-12.48-0.31c-4.11-0.14-8.21-0.38-12.31-0.55c-0.54-0.02-1.23-0.06-1.6,0.23c-2.7,2.13-5.35,4.33-8,6.53
			c-2.26,1.87-4.52,3.75-6.77,5.63c-0.22,0.18-0.41,0.39-0.58,0.61c-0.49,0.65-0.86,1.43-1.46,1.95c-2.18,1.9-4.44,3.72-6.67,5.57
			c-1.63,1.35-3.23,2.72-4.89,4.03c-2.86,2.25-5.81,4.38-8.63,6.68c-2.48,2.03-4.84,4.2-7.22,6.34c-0.88,0.79-1.75,1.62-2.49,2.54
			c-0.4,0.49-0.62,1.22,0.55,1.25c1.44,0.04,2.87,0.15,4.3,0.28c1.83,0.16,3.65,0.36,5.47,0.57c3.12,0.37,6.24,0.78,9.37,1.13
			c2.1,0.23,4.24,0.26,6.32,0.6c5.85,0.97,11.69,2.06,17.53,3.12c2.43,0.44,4.85,0.94,7.28,1.35c3.21,0.54,6.43,1.03,9.65,1.49
			c2.3,0.33,4.63,0.47,6.91,0.89c4.22,0.77,8.39,1.92,12.64,2.47c3.49,0.46,6.88,1.15,10.2,2.27c0.45,0.15,1.24-0.07,1.61-0.41
			c4.03-3.76,7.96-7.62,12.01-11.35c2.68-2.48,5.5-4.81,8.29-7.17C212.75,168.24,217.02,164.65,221.43,160.91z"/>
		<path class="st1" d="M261,135.6c3.78-3.5,7.49-6.94,11.22-10.35c2.92-2.67,5.83-5.37,8.83-7.96c4.18-3.61,8.42-7.17,12.68-10.69
			c3.81-3.14,7.71-6.17,11.54-9.29c2.46-2.01,5.01-3.95,7.26-6.18c3.17-3.14,6.89-5.52,10.48-8.08c0.87-0.62,1.79-1.17,2.72-1.7
			c0.24-0.13,0.6-0.04,0.91-0.05c-0.05,0.36,0.03,0.85-0.18,1.05c-0.51,0.49-1.14,0.87-1.74,1.26c-2.14,1.38-4.29,2.73-6.42,4.12
			c-0.28,0.18-0.41,0.58-0.61,0.88c-0.2,0.3-0.34,0.76-0.62,0.86c-2.76,1.08-4.33,3.64-6.63,5.31c-3.69,2.69-7.17,5.67-10.75,8.51
			c-1.39,1.1-3.12,1.93-4.15,3.3c-1.63,2.16-4.16,3.05-5.96,4.93c-1.87,1.94-3.97,3.67-5.99,5.47c-2.43,2.16-5.09,4.11-7.22,6.53
			c-1.12,1.27-2.38,2.18-3.61,3.24c-2.96,2.52-5.62,5.39-8.6,7.89c-3.77,3.17-7.72,6.11-11.6,9.15c-0.07,0.06-0.16,0.09-0.22,0.16
			c-2.26,3.02-6.05,4.03-8.65,6.62c-1.54,1.54-3.25,2.92-4.89,4.35c-2.93,2.56-5.9,5.08-8.79,7.68c-1.48,1.33-2.77,2.86-4.24,4.19
			c-3.06,2.77-5.93,5.86-9.35,8.1c-8.39,5.51-15.11,12.8-22.18,19.74c-0.17,0.17-0.41,0.31-0.49,0.51
			c-0.21,0.57-0.36,1.17-0.53,1.76c0.58-0.05,1.16-0.11,1.75-0.14c1.57-0.09,3.14-0.29,4.7-0.23c1.63,0.07,3.26,0.31,4.87,0.62
			c1.79,0.34,3.58,0.74,5.31,1.28c4.28,1.35,8.53,2.82,12.8,4.2c1.31,0.42,2.64,0.82,3.99,1c0.56,0.07,1.43-0.29,1.78-0.74
			c3.24-4.18,6.97-7.9,10.57-11.75c3.29-3.51,6.17-7.4,9.22-11.13c1.56-1.91,3.1-3.85,4.64-5.78c0.62-0.78,1.21-1.59,1.82-2.38
			c0.57-0.75,0.32-1.31-0.64-1.54c-4.32-1.04-8.62-2.2-12.97-3.1c-2.84-0.59-5.76-0.81-8.65-1.18c-0.91-0.12-1.82-0.18-2.73-0.3
			c-0.16-0.02-0.39-0.22-0.41-0.35c-0.02-0.15,0.14-0.42,0.28-0.47c0.67-0.23,1.37-0.61,2.04-0.55c4.49,0.37,8.89,1.03,13.23,2.45
			c3.05,1,6.34,1.25,9.53,1.78c1.27,0.21,1.98,1.04,1.39,2.18c-1.18,2.28-2.36,4.59-3.87,6.66c-2.68,3.69-5.59,7.21-8.44,10.77
			c-0.81,1.02-1.72,1.96-2.62,2.91c-2.14,2.26-4.36,4.44-6.43,6.76c-1.71,1.91-3.24,3.98-4.86,5.96c-0.76,0.92-1.52,1.61-2.93,1.05
			c-0.83-0.33-1.9-0.03-2.8-0.26c-1.7-0.43-3.37-1.02-5.04-1.59c-2.79-0.95-5.52-2.13-8.36-2.88c-4.7-1.24-9.39-2.68-14.37-2.19
			c-1.23,0.12-2.65,0.81-3.62-0.69c-0.01-0.01-0.41,0.19-0.58,0.34c-1.31,1.2-2.63,2.4-3.92,3.63c-2.26,2.14-4.61,4.19-6.71,6.48
			c-2.19,2.39-4.07,5.07-6.18,7.54c-1.34,1.57-2.78,3.06-4.25,4.51c-2.21,2.19-4.5,4.29-6.72,6.47c-0.9,0.88-1.67,1.88-2.54,2.79
			c-0.33,0.35-0.77,0.6-1.17,0.89c0.04-0.7-0.09-1.49,0.18-2.09c0.24-0.52,0.98-0.8,1.44-1.24c3.37-3.25,6.83-6.41,10.03-9.81
			c2.25-2.39,4.08-5.16,6.2-7.67c1.4-1.65,2.99-3.13,4.51-4.68c0.96-0.98,1.95-1.93,2.9-2.91c2.96-3.04,5.89-6.11,8.87-9.13
			c1.22-1.23,2.57-2.32,3.79-3.55c1.48-1.49,2.76-3.22,4.35-4.56c4.48-3.78,9.09-7.42,13.63-11.12c1.71-1.39,3.46-2.76,5.08-4.25
			c2.53-2.33,4.92-4.82,7.47-7.13c4.16-3.78,8.39-7.49,12.61-11.2c1.73-1.52,3.49-3.01,5.3-4.42c0.68-0.53,1.63-0.72,2.32-1.25
			c2.76-2.11,5.45-4.29,8.18-6.43C258.47,137.54,259.71,136.61,261,135.6z"/>
		<path class="st1" d="M279.19,148.65c-4.03-0.48-7.92-0.99-11.81-1.41c-2.43-0.26-4.88-0.42-7.32-0.58
			c-1.94-0.13-3.88-0.19-5.82-0.3c-0.24-0.01-0.48-0.14-0.72-0.21c0.2-0.21,0.37-0.49,0.62-0.62c0.3-0.16,0.68-0.3,1.01-0.29
			c4.25,0.17,8.5,0.25,12.73,0.59c4,0.32,7.98,0.88,11.95,1.41c2.18,0.29,4.35,0.69,6.51,1.14c1.56,0.32,2.55-0.66,3.52-1.47
			c3.81-3.17,8.23-5.25,12.6-7.45c3.66-1.84,7.27-3.8,10.87-5.75c0.31-0.17,0.58-0.65,0.59-1c0.01-0.19-0.54-0.54-0.87-0.59
			c-2.88-0.42-5.78-0.7-8.64-1.19c-2.55-0.43-5.07-1.07-7.6-1.6c-0.75-0.16-1.52-0.23-2.27-0.38c-3.24-0.66-6.47-1.4-9.73-1.97
			c-2.33-0.41-4.7-0.59-7.05-0.88c-0.29-0.04-0.58-0.14-0.87-0.21c0.25-0.22,0.48-0.61,0.74-0.64c1.33-0.13,2.69-0.37,4-0.2
			c2.58,0.32,5.14,0.85,7.7,1.35c2.67,0.53,5.32,1.14,7.99,1.7c1.06,0.22,2.12,0.39,3.18,0.57c1.64,0.29,3.28,0.59,4.92,0.85
			c1.97,0.31,3.95,0.55,5.91,0.87c1.46,0.24,2.92,0.5,4.33,0.91c0.25,0.07,0.54,1.12,0.35,1.37c-0.65,0.85-1.39,1.73-2.3,2.25
			c-3.11,1.76-6.33,3.31-9.45,5.04c-4.1,2.27-8.16,4.63-12.21,6.99c-0.63,0.37-1.4,0.86-1.63,1.48c-0.82,2.18-2.65,1.75-4.15,1.59
			C283.96,149.75,281.65,149.12,279.19,148.65z"/>
		<path class="st1" d="M279.47,105c-3.4-0.26-6.64-0.53-9.84-1.36c-2.92-0.75-5.96-1-8.94-1.5c-3.42-0.58-6.82-1.22-10.24-1.77
			c-2.52-0.41-5.06-0.71-7.59-1.08c-2.69-0.39-5.38-0.77-8.06-1.19c-2.04-0.33-4.08-0.69-6.11-1.1c-2.36-0.47-4.71-1.05-7.07-1.51
			c-2.08-0.4-4.19-0.64-6.27-1.07c-2.48-0.52-4.93-1.19-7.4-1.75c-0.68-0.15-1.41-0.11-2.09-0.25c-0.3-0.06-0.55-0.36-0.83-0.55
			c0.32-0.19,0.63-0.51,0.96-0.55c2.88-0.33,5.58,0.69,8.35,1.18c2.73,0.48,5.44,1.08,8.15,1.66c1.88,0.4,3.73,0.87,5.62,1.24
			c2.43,0.48,4.86,0.91,7.3,1.31c2.59,0.43,5.18,0.81,7.77,1.22c1.56,0.25,3.11,0.53,4.67,0.78c3.43,0.55,6.87,1.1,10.31,1.63
			c1.52,0.24,3.05,0.42,4.58,0.65c2.06,0.31,4.11,0.63,6.16,0.97c2.58,0.43,5.14,0.92,7.73,1.3c2.39,0.35,4.8,0.57,7.2,0.88
			c0.38,0.05,0.83,0.2,1.07,0.46c0.27,0.29,0.35,0.76,0.52,1.15c-0.42,0.11-0.87,0.39-1.25,0.31
			C282.63,105.78,281.13,105.37,279.47,105z"/>
		<path class="st1" d="M214.65,75.91c-0.66,1.56-2.3,1.83-3.61,2.56c-0.23,0.13-0.52,0.15-0.73,0.29c-1.87,1.23-3.77,2.41-5.58,3.72
			c-2.28,1.66-4.48,3.42-6.71,5.14c-3.61,2.78-7.06,5.76-11.08,8c-1.65,0.92-3.05,2.27-4.6,3.38c-0.98,0.69-2.06,1.24-3.04,1.93
			c-2.4,1.69-4.77,3.41-7.14,5.13c-2.49,1.81-4.95,3.64-7.45,5.42c-0.32,0.23-0.83,0.2-1.25,0.29c0.15-0.39,0.18-0.95,0.47-1.15
			c1.64-1.16,3.39-2.17,5.01-3.37c2.63-1.95,5.15-4.06,7.78-6.02c1.98-1.48,4.05-2.84,6.08-4.23c3.11-2.13,6.23-4.24,9.33-6.38
			c0.28-0.19,0.66-0.69,0.59-0.84c-0.16-0.33-0.56-0.68-0.91-0.74c-1.43-0.26-2.88-0.44-4.32-0.59c-1.88-0.2-3.76-0.32-5.63-0.52
			c-1.6-0.17-3.19-0.36-4.77-0.65c-0.99-0.18-1.99-0.47-2.92-0.86c-0.77-0.32-0.71-0.93-0.07-1.39c0.97-0.71,2.15-0.29,2.71,0.86
			c0.23,0.47,0.48,1.2,1.24,0.37c0.2-0.22,0.81-0.12,1.22-0.08c3.45,0.27,6.9,0.51,10.33,0.88c1.17,0.13,2.34,0.52,3.43,1
			c0.83,0.37,1.41,0.43,2.18-0.16c2.51-1.93,5-3.9,7.65-5.63c2.85-1.86,5.86-3.49,8.84-5.16C212.59,76.61,213.61,76.3,214.65,75.91z
			"/>
		<path class="st1" d="M108.89,148.93c-4.2-0.19-8.26-0.32-12.31-0.6c-2.09-0.14-4.17-0.58-6.26-0.8c-0.38-0.04-0.88,0.23-1.2,0.5
			c-2.42,2.09-4.77,4.28-7.24,6.31c-1.31,1.08-2.86,1.85-4.22,2.86c-2.19,1.63-4.31,3.35-6.48,5.02c-1.9,1.47-3.88,2.86-5.71,4.41
			c-1.16,0.98-2.07,2.24-3.17,3.29c-0.38,0.35-1.02,0.43-1.54,0.63c-0.02-0.52-0.26-1.26-0.01-1.52c1.18-1.25,2.44-2.44,3.77-3.53
			c2.04-1.67,4.14-3.27,6.26-4.85c2.97-2.22,5.98-4.38,8.95-6.6c2.62-1.95,5.21-3.94,7.82-5.91c0.04-0.03,0.08-0.06,0.1-0.1
			c1.18-2.46,3.21-2.02,5.25-1.55c0.26,0.06,0.53,0.13,0.79,0.14c3.57,0.1,7.14,0.16,10.71,0.31c1.79,0.07,3.59,0.22,5.36,0.5
			c0.48,0.08,1.3,0.99,1.23,1.1C110.56,149.35,109.83,149.5,108.89,148.93z"/>
		<path class="st1" d="M348.51,98.44c0.47,0.13,0.79,0.27,1.12,0.4c-0.26,0.25-0.48,0.61-0.79,0.72c-2.44,0.9-4.93,1.65-7.33,2.63
			c-3.13,1.28-6.17,2.77-9.28,4.1c-1.82,0.78-3.7,1.39-5.53,2.14c-1.75,0.72-3.45,1.54-5.18,2.3c-0.89,0.39-1.66,0.39-2.55-0.26
			c-0.63-0.46-1.6-0.53-2.43-0.62c-3.11-0.33-6.22-0.7-9.34-0.84c-3.05-0.14-6.12-0.02-9.18-0.04c-0.47,0-0.94-0.15-1.41-0.23
			c0.56-0.4,1.1-1.1,1.68-1.13c2.13-0.14,4.28-0.09,6.41-0.05c2.97,0.06,5.98-0.05,8.91,0.35c2.26,0.31,4.7-0.06,6.82,1.47
			c0.52,0.38,1.98-0.38,2.93-0.79c4.23-1.83,8.4-3.83,12.67-5.57C340.07,101.38,344.24,99.96,348.51,98.44z"/>
		<path class="st1" d="M110.61,151.5c3.74-3.02,7.29-6.09,10.94-9.06c2.86-2.32,5.81-4.54,8.75-6.76c0.99-0.75,2.09-1.36,3.15-2.02
			c0.13-0.08,0.32-0.05,0.48-0.06c-0.05,0.2-0.04,0.47-0.17,0.58c-1.23,1.04-2.47,2.05-3.72,3.06c-1.78,1.44-3.57,2.87-5.34,4.31
			c-3.63,2.95-7.25,5.91-10.87,8.87c-2.73,2.24-5.51,4.43-8.17,6.77c-3.44,3.02-6.84,6.1-10.12,9.28c-2.18,2.11-4.1,4.48-6.19,6.68
			c-0.46,0.49-1.17,0.75-1.76,1.11c-0.4-0.85,0.26-1.26,0.73-1.77c1.08-1.15,2.14-2.33,3.21-3.49c2.42-2.61,4.71-5.36,7.29-7.79
			c2.71-2.54,5.7-4.78,8.57-7.15C108.42,153.21,109.44,152.35,110.61,151.5z"/>
		<path class="st1" d="M120.23,119.76c1.45-0.98,2.83-1.9,4.22-2.79c1.95-1.25,3.91-2.48,5.89-3.69c1.28-0.79,2.59-1.54,3.91-2.27
			c0.19-0.11,0.5-0.01,0.75-0.01c-0.11,0.2-0.17,0.48-0.34,0.59c-1.96,1.33-3.98,2.6-5.91,3.97c-3.27,2.34-6.52,4.72-9.73,7.14
			c-1.68,1.27-3.28,2.66-4.89,4.03c-0.28,0.24-0.42,0.65-0.63,0.98c0.33,0.13,0.65,0.29,0.98,0.38c3.88,0.96,7.76,1.94,11.66,2.83
			c1.41,0.32,2.89,0.35,4.31,0.63c0.55,0.11,1.03,0.56,1.54,0.85c-0.53,0.28-1.1,0.85-1.58,0.78c-2.53-0.37-5.04-0.86-7.54-1.39
			c-2.87-0.61-5.74-1.27-8.58-2.01c-1.18-0.31-2.34-0.79-3.43-1.33c-0.62-0.31-0.74-0.64,0.07-1.25
			C114.08,124.84,117.1,122.31,120.23,119.76z"/>
		<path class="st1" d="M78.44,183.8c-3.19,3.1-6.31,6.13-9.44,9.14c-0.63,0.6-1.3,1.16-1.99,1.68c-0.16,0.12-0.51-0.03-0.77-0.06
			c0.04-0.32-0.03-0.77,0.15-0.96c2.52-2.48,5.01-4.98,7.62-7.35c3.84-3.48,7.79-6.85,11.67-10.3c0.31-0.28,0.45-0.75,0.68-1.14
			c-0.34-0.18-0.66-0.44-1.02-0.51c-1.15-0.23-2.31-0.44-3.48-0.56c-3.21-0.32-6.43-0.5-9.62-0.89c-2.45-0.3-4.87-0.85-7.3-1.29
			c-0.18-0.03-0.35-0.07-0.52-0.11c-0.48-0.11-0.96-0.23-1.45-0.35c0.54-0.26,1.08-0.74,1.62-0.75c1.33-0.02,2.67,0.15,3.99,0.31
			c1.12,0.13,2.23,0.36,3.35,0.5c3.07,0.39,6.15,0.77,9.22,1.14c1.05,0.13,2.11,0.24,3.16,0.28c1.02,0.03,2.07-0.07,2.49,1.18
			c0.43,1.29-0.11,2.33-0.98,3.19c-1.57,1.55-3.2,3.04-4.81,4.55C80.2,182.27,79.35,182.99,78.44,183.8z"/>
		<path class="st1" d="M232.91,64.71c-1.79,1.31-3.53,2.53-5.22,3.81c-0.65,0.5-1.07,1.24-2.12,1.16c-0.42-0.03-1.06,0.44-1.3,0.86
			c-0.59,1-1.05,0.63-1.24-0.11c-0.25-0.95-0.8-1.08-1.63-1.1c-2.1-0.05-4.2-0.16-6.3-0.28c-0.34-0.02-0.73-0.1-1.01-0.29
			c-0.32-0.22-0.53-0.59-0.8-0.9c0.39-0.17,0.79-0.5,1.17-0.48c2.63,0.14,5.26,0.34,7.89,0.56c0.61,0.05,1.21,0.34,1.83,0.36
			c2.62,0.08,3.93-2.34,6.07-3.22c2.87-1.19,4.95-3.58,7.54-5.21c0.22-0.14,0.57-0.07,0.86-0.1c-0.04,0.35,0.04,0.84-0.15,1.03
			c-0.44,0.42-1.04,0.68-1.55,1.04C235.62,62.75,234.3,63.7,232.91,64.71z"/>
		<path class="st1" d="M143.62,126.61c-2.1,1.59-4.14,3.1-6.16,4.64c-0.84,0.64-1.63,1.34-2.46,1.98c-0.17,0.13-0.45,0.13-0.68,0.19
			c0.04-0.26,0.02-0.55,0.14-0.76c0.13-0.24,0.37-0.43,0.59-0.61c2.71-2.17,5.4-4.36,8.14-6.5c3.4-2.66,6.8-5.32,10.27-7.89
			c1.97-1.46,4.08-2.75,6.14-4.08c0.32-0.2,0.76-0.26,1.16-0.28c0.18-0.01,0.37,0.22,0.56,0.35c-0.13,0.16-0.24,0.36-0.4,0.48
			c-4.75,3.44-9.5,6.87-14.26,10.3C145.68,125.13,144.69,125.83,143.62,126.61z"/>
		<path class="st1" d="M139.49,107.07c2.86,0.31,5.64,0.71,8.43,1.05c0.81,0.1,1.66-0.07,2.47,0.03c3.61,0.44,7.21,0.93,10.81,1.42
			c0.3,0.04,0.64,0.12,0.86,0.3c0.22,0.18,0.31,0.52,0.46,0.78c-0.25,0.11-0.5,0.34-0.74,0.32c-2.35-0.16-4.69-0.32-7.03-0.56
			c-2.26-0.23-4.52-0.53-6.77-0.85c-2.1-0.3-4.19-0.67-6.28-0.98c-0.53-0.08-1.09-0.11-1.62-0.08c-0.34,0.02-0.66,0.2-0.99,0.3
			c0.02-0.4,0.01-0.81,0.06-1.21C139.16,107.44,139.32,107.29,139.49,107.07z"/>
		<path class="st1" d="M216.93,80.11c0.66-0.47,1.24-0.91,1.86-1.26c0.19-0.11,0.5,0.01,0.76,0.03c-0.12,0.23-0.19,0.52-0.37,0.68
			c-1.03,0.88-2.05,1.78-3.16,2.57c-0.49,0.35-1.25,0.33-1.75,0.68c-1.56,1.08-2.99,2.35-4.59,3.37c-1.93,1.23-3.98,2.28-5.97,3.43
			c-0.16,0.09-0.4,0.34-0.38,0.38c0.4,0.65,0.03,1.13-0.29,1.66c-0.21,0.33-0.3,0.73-0.44,1.1c-0.23-0.23-0.59-0.43-0.68-0.71
			c-0.13-0.42-0.29-1.14-0.08-1.31c1.66-1.41,3.29-2.94,5.18-3.98c1.1-0.6,2.07-1.26,3.06-2c1.38-1.04,2.91-1.89,4.36-2.84
			C215.26,81.35,216.05,80.76,216.93,80.11z"/>
		<path class="st1" d="M178.85,82.54c1.93-1.31,3.71-2.69,5.67-3.74c2.59-1.39,5.32-2.51,7.98-3.75c0.16-0.07,0.28-0.24,0.44-0.32
			c0.18-0.09,0.39-0.13,0.58-0.19c-0.08,0.23-0.08,0.57-0.24,0.67c-1.56,1.02-3.12,2.02-4.72,2.97c-1.71,1.02-3.43,2.02-5.18,2.95
			c-2.02,1.06-4.08,2.05-6.15,3.03c-0.18,0.08-0.49-0.11-0.74-0.17c0.15-0.22,0.25-0.54,0.45-0.64
			C177.54,83.05,178.17,82.85,178.85,82.54z"/>
		<path class="st1" d="M196.4,95.23c-1.17,0.98-2.36,1.79-3.34,2.81c-1.57,1.64-3.54,2.58-5.53,3.54c-0.14,0.07-0.28,0.14-0.42,0.2
			c-0.01-0.22-0.11-0.53-0.01-0.66c0.43-0.51,0.88-1.01,1.4-1.41c3.06-2.34,6.14-4.64,9.22-6.95c0.54-0.4,1.08-0.82,1.69-1.08
			c0.3-0.13,0.76,0.09,1.14,0.15c-0.18,0.3-0.29,0.69-0.56,0.88C198.85,93.57,197.65,94.35,196.4,95.23z"/>
		<path class="st1" d="M237.33,65.99c0.93-0.74,1.78-1.42,2.66-2.07c0.17-0.13,0.45-0.11,0.68-0.15c0.03,0.26,0.19,0.64,0.07,0.77
			c-0.62,0.7-1.25,1.43-1.99,1.99c-1.06,0.81-2.21,1.51-3.34,2.22c-0.63,0.4-1.3,0.76-1.96,1.1c-0.11,0.06-0.31-0.05-0.47-0.09
			c0.1-0.19,0.16-0.45,0.32-0.57c1.18-0.92,2.37-1.82,3.56-2.73C237,66.35,237.12,66.2,237.33,65.99z"/>
		<path class="st1" d="M210.73,68.49c-1.88,0.29-3.61,0.59-5.35,0.84c-0.39,0.06-0.81-0.09-1.21-0.14c0.24-0.33,0.42-0.73,0.72-0.98
			c1.42-1.15,3.11-0.75,4.6-0.43c0.93,0.2,1.63,0.06,2.43-0.15c0.27-0.07,0.56-0.16,0.81-0.11c0.12,0.02,0.28,0.5,0.24,0.53
			c-0.24,0.18-0.53,0.36-0.82,0.41C211.73,68.54,211.3,68.49,210.73,68.49z"/>
		<path class="st1" d="M214.79,75.91c0.85-1.96,2.77-2.81,4.41-3.98c0.12-0.09,0.43,0.06,0.64,0.13c0.01,0,0,0.27-0.07,0.36
			C218.48,74.07,217.17,75.69,214.79,75.91z"/>
		<path class="st1" d="M222.07,78.12c-0.68,0.22-1.3,0.37-1.91,0.52c0.39-0.5,0.69-1.11,1.18-1.46c1.19-0.84,2.46-1.56,3.71-2.31
			c0.11-0.07,0.41-0.05,0.46,0.03c0.08,0.14,0.12,0.43,0.04,0.53c-0.44,0.47-0.89,0.95-1.4,1.33
			C223.51,77.23,222.81,77.62,222.07,78.12z"/>
		<path class="st1" d="M230.05,72.41c-0.31,0.25-0.56,0.41-0.78,0.61c-0.43,0.38-0.8,0.87-1.29,1.12c-0.32,0.16-0.81-0.01-1.22-0.03
			c0.28-0.26,0.53-0.55,0.84-0.77c0.72-0.53,1.46-1.04,2.21-1.53c0.14-0.09,0.38-0.04,0.58-0.06
			C230.31,71.95,230.22,72.15,230.05,72.41z"/>
		<path class="st1" d="M196.47,73.05c0.03-0.18,0.06-0.23,0.1-0.24c0.67-0.21,1.34-0.41,2.02-0.62c0.01,0.09,0.06,0.23,0.02,0.28
			C198.02,73.1,197.4,73.61,196.47,73.05z"/>
		<path class="st1" d="M137.35,110.07c-0.39,0.13-0.71,0.19-1.03,0.25c0.04-0.16,0.03-0.41,0.13-0.47c0.36-0.21,0.76-0.36,1.15-0.54
			C137.54,109.54,137.48,109.77,137.35,110.07z"/>
		<path class="st1" d="M192.19,157.2c-3.8-0.57-7.47-1.15-11.13-1.71c-3.8-0.58-7.6-1.18-11.42-1.7c-1.44-0.2-2.91-0.14-4.35-0.32
			c-2.61-0.33-5.2-0.76-7.8-1.12c-1.09-0.15-2.2-0.18-3.3-0.3c-3.6-0.37-7.2-0.77-10.79-1.13c-1.19-0.12-2.39-0.21-3.59-0.29
			c-1.62-0.11-3.25-0.19-4.87-0.29c-1.53-0.09-3.06-0.16-4.59-0.3c-0.4-0.04-0.78-0.29-1.16-0.45c0.43-0.23,0.85-0.63,1.29-0.65
			c2.28-0.07,4.57-0.17,6.84,0c3.65,0.27,7.29,0.72,10.94,1.11c2.55,0.27,5.1,0.51,7.63,0.87c2.72,0.38,5.42,0.93,8.14,1.33
			c1.36,0.2,2.76,0.2,4.13,0.38c3.47,0.45,6.93,0.93,10.39,1.42c3.28,0.46,6.54,1,9.82,1.41c4.31,0.53,8.64,0.96,12.96,1.44
			c4.13,0.46,8.26,0.95,12.39,1.42c1.59,0.18,3.17,0.36,4.75,0.59c0.29,0.04,0.55,0.36,0.82,0.55c-0.23,0.28-0.45,0.81-0.68,0.81
			c-1.66,0.03-3.34,0.05-4.99-0.1c-1.57-0.14-3.12-0.48-4.69-0.72c-3.49-0.53-6.98-1.08-10.47-1.57
			C196.42,157.63,194.37,157.44,192.19,157.2z"/>
	</g>
</g>
<g id="gokken">
	<path class="st0" d="M480,610c-1-8-10-37,19-37c18,0,143,0,143,0s12.25,7.94,11.12,21.47C652,608,654,609,654.03,609.72
		C659,610,665,632,655,630c0,6-1,29-1,29s8,16-25,16s-127.48,6.86-133.74-1.07S483,676,480,650c-0.9-7.8-1.66-13.76-4.78-15.35
		C472,633,471,636,469,635S461,607,480,610z"/>
	<g id="Vorm_34_2_">
		<path class="st1" d="M489.82,672.78c-0.26-1.42-0.54-2.73-0.79-4.05c-0.24-1.29-0.44-2.6-0.69-3.89c-0.4-2.08-0.87-4.14-1.21-6.22
			c-0.34-2.08-0.58-4.19-0.83-6.28c-0.31-2.6-0.58-5.2-0.92-7.79c-0.03-0.21-0.4-0.47-0.66-0.54c-0.73-0.19-1.5-0.28-2.24-0.44
			c-1.15-0.26-1.84-1.21-2.15-2.35c-0.65-2.39-0.13-4.75-0.07-7.13c0.04-1.2,0.01-2.41,0.11-3.61c0.08-0.96,0.3-1.9,0.47-2.85
			c0.18-1.01,0.34-2.02,0.58-3.02c0.14-0.59,0.38-1.16,0.63-1.72c0.33-0.74,0.59-1.57,1.11-2.15c1.06-1.18,2.51-1.7,4.09-1.76
			c1.55-0.06,1.58-0.04,1.94-1.53c0.5-2.11,1.03-4.21,1.45-6.33c0.19-0.97,0.09-2.01,0.25-2.99c0.2-1.16,0.6-2.28,0.81-3.44
			c0.33-1.81,0.54-3.65,0.86-5.46c0.3-1.65,0.58-3.32,1.06-4.92c0.92-3.07,2.79-5.64,4.87-7.99c0.93-1.05,2.33-1.71,3.59-2.43
			c1.19-0.68,2.44-1.28,3.71-1.77c0.71-0.27,1.54-0.25,2.31-0.35c0.64-0.08,1.27-0.2,1.91-0.2c1.27,0,2.54,0.02,3.8,0.14
			c1.63,0.17,3.24,0.44,4.86,0.69c1.78,0.27,3.55,0.6,5.33,0.82c1.13,0.14,2.28,0.11,3.41,0.24c0.85,0.1,1.69,0.21,2.51,0.58
			c0.48,0.21,1.13,0,1.7,0.05c1.21,0.11,2.47,0.08,3.6,0.46c1.49,0.5,2.8-0.17,4.19-0.25c0.92-0.05,1.85,0.03,2.77-0.02
			c2.05-0.11,4.09-0.29,6.14-0.4c0.82-0.05,1.64-0.01,2.45-0.01c1.93,0,3.86,0.05,5.78-0.01c1.82-0.06,3.63-0.32,5.45-0.36
			c3.21-0.07,6.42-0.12,9.62-0.02c3.06,0.1,6.11,0.42,9.17,0.6c1.86,0.11,3.73,0.11,5.59,0.23c1.25,0.08,2.5,0.32,3.75,0.39
			c1.14,0.07,2.29,0.03,3.43,0.01c2.69-0.06,5.39-0.17,8.08-0.19c1.95-0.01,3.88-0.18,5.82-0.36c2.01-0.18,4.06,0.12,6.09,0.12
			c1.85,0,3.7-0.19,5.56-0.17c1.15,0.01,2.29,0.34,3.44,0.37c1.26,0.04,2.52-0.13,3.78-0.14c1.12-0.01,2.24,0.12,3.35,0.11
			c1.15-0.01,2.29-0.14,3.44-0.14c0.83,0,1.65,0.14,2.48,0.17c0.71,0.03,1.42,0.02,2.13,0.02c1.18,0,2.37-0.09,3.54,0.02
			c2.28,0.21,4.56,0.51,6.84,0.83c1.75,0.25,3.36,0.9,5.01,1.55c1.34,0.53,2.26,1.56,3.54,2.07c0.38,0.15,0.61,0.7,0.91,1.07
			c1.5,1.86,2.78,3.76,3.54,6.15c0.87,2.74,1.38,5.53,2.02,8.29c0.39,1.68,0.38,3.45,0.56,5.18c0.11,1.03,0.31,2.04,0.36,3.07
			c0.06,1.29,0.02,2.59,0,3.88c-0.02,1.05-0.29,2.16-0.02,3.12c0.15,0.52,1.18,0.92,1.88,1.1c1.19,0.31,2.21,0.75,2.58,2.01
			c0.72,2.44,1.54,4.86,2.03,7.35c0.27,1.36-0.02,2.84-0.12,4.26c-0.09,1.25-0.29,2.5-0.4,3.75c-0.14,1.56-1.57,3.22-3.12,3.46
			c-0.59,0.09-1.22,0.07-1.82,0c-0.66-0.08-0.58,0.34-0.53,0.7c0.19,1.22,0.63,2.45,0.58,3.66c-0.14,3.02,0.4,5.93,0.84,8.88
			c0.37,2.54,0.48,5.14,0.42,7.7c-0.05,2.2-0.36,4.43-0.84,6.58c-0.4,1.79-1.37,3.44-1.8,5.23c-0.39,1.66-1.13,3.09-2.18,4.35
			c-0.71,0.85-1.66,1.49-2.51,2.22c-0.64,0.55-1.26,1.12-1.94,1.63c-0.41,0.31-0.9,0.52-1.37,0.75c-2.31,1.13-4.68,2.08-7.25,2.47
			c-1.33,0.2-2.63,0.58-3.96,0.73c-1.2,0.14-2.43,0.06-3.65,0.1c-1.25,0.04-2.5,0.16-3.75,0.16c-1.17,0-2.34-0.16-3.51-0.15
			c-1.24,0.01-2.48,0.18-3.72,0.23c-1.14,0.05-2.29,0.04-3.43,0.07c-0.6,0.02-1.2,0.11-1.8,0.09c-0.9-0.02-1.79-0.13-2.69-0.17
			c-0.64-0.03-1.28-0.05-1.92-0.02c-0.78,0.03-1.57,0.19-2.35,0.15c-1.15-0.06-2.3-0.28-3.45-0.35c-1.81-0.11-3.63-0.21-5.45-0.21
			c-2.19,0.01-4.38,0.15-6.57,0.19c-1.79,0.03-3.58-0.05-5.36,0.02c-1.35,0.05-2.68,0.33-4.03,0.39c-1.75,0.07-3.51-0.01-5.26,0.02
			c-1.96,0.04-3.91,0.15-5.87,0.2c-1.58,0.03-3.16,0.06-4.73-0.01c-1.76-0.08-3.51-0.42-5.26-0.37c-2.21,0.07-4.42-0.33-6.66,0.12
			c-1.66,0.33-3.42,0.14-5.12,0.28c-1.63,0.14-3.24,0.43-4.86,0.61c-0.99,0.11-2,0.13-3,0.22c-2.03,0.2-4.05,0.46-6.08,0.61
			c-1.72,0.13-3.45,0.18-5.17,0.22c-1.6,0.03-3.2,0.06-4.8-0.01c-1.14-0.05-2.27-0.27-3.4-0.4c-1.25-0.15-2.51-0.24-3.75-0.43
			c-1.24-0.19-2.47-0.48-3.71-0.68c-0.65-0.1-1.32-0.1-1.97-0.15c-0.74-0.06-1.49-0.11-2.22-0.21c-2.41-0.34-4.84-0.63-7.23-1.07
			c-1.6-0.3-3.16-0.84-4.74-1.23c-1.24-0.31-2.49-0.57-3.73-0.85c-1.57-0.35-3.15-0.66-4.71-1.06c-1.38-0.36-2.76-0.78-4.1-1.27
			c-0.51-0.19-0.9-0.68-1.36-1.02c-1.1-0.82-2.48-1.32-3.16-2.63c-0.8-1.52-1.55-3.07-2.3-4.62
			C489.59,673.23,489.75,673.03,489.82,672.78 M509.37,683.4c1.19,0.32,2.37,0.75,3.59,0.92c2.51,0.36,5.05,0.56,7.57,0.88
			c1.63,0.21,3.25,0.5,4.87,0.77c1.34,0.22,2.68,0.49,4.02,0.68c1.02,0.15,2.06,0.22,3.09,0.33c1.47,0.17,2.94,0.44,4.41,0.49
			c2.25,0.08,4.51,0,6.77,0.03c2.3,0.03,4.57-0.09,6.82-0.62c1.3-0.31,2.64-0.49,3.97-0.62c1.4-0.14,2.82-0.13,4.23-0.24
			c1.1-0.09,2.19-0.33,3.3-0.39c1.19-0.07,2.38,0.01,3.58-0.02c1.22-0.04,2.47-0.33,3.66-0.16c2.77,0.4,5.54,0.33,8.31,0.38
			c1.54,0.02,3.09-0.02,4.63,0.01c1.19,0.03,2.4,0.33,3.55,0.16c2.48-0.35,4.95-0.37,7.44-0.38c0.57,0,1.14,0.01,1.7-0.04
			c1.26-0.11,2.51-0.31,3.76-0.35c1.15-0.03,2.31,0.17,3.46,0.16c1.43-0.01,2.86-0.12,4.29-0.2c0.76-0.04,1.52-0.13,2.28-0.16
			c1.07-0.04,2.15-0.13,3.2-0.03c2.04,0.2,4.06,0.68,6.1,0.77c2.23,0.1,4.47-0.12,6.71-0.16c1.79-0.03,3.58,0.02,5.36-0.01
			c1.61-0.03,3.21-0.14,4.82-0.2c0.89-0.03,1.77,0.01,2.66-0.02c1.22-0.04,2.45-0.14,3.67-0.19c1.2-0.05,2.41,0.01,3.59-0.15
			c1.31-0.19,2.59-0.61,3.89-0.88c2.71-0.55,5.26-1.37,7.55-3.08c1.63-1.22,3.18-2.37,4.31-4.13c1.06-1.65,1.68-3.43,2.29-5.24
			c0.42-1.24,0.74-2.51,0.98-3.8c0.3-1.61,0.58-3.23,0.69-4.86c0.08-1.25-0.09-2.51-0.18-3.77c-0.13-1.78-0.22-3.56-0.44-5.32
			c-0.2-1.69-0.64-3.36-0.79-5.05c-0.23-2.59-0.31-5.19-0.46-7.78c-0.13-2.26-0.32-4.51-0.39-6.77c-0.04-1.15,0.19-2.3,0.18-3.45
			c-0.01-1.75-0.14-3.49-0.19-5.24c-0.08-2.55-0.16-5.1-0.2-7.66c-0.03-1.85,0.01-3.69-0.02-5.54c-0.01-0.61-0.15-1.22-0.17-1.83
			c-0.03-1.04,0.12-2.11-0.06-3.12c-0.31-1.76-0.82-3.49-1.23-5.23c-0.37-1.58-0.68-3.17-1.06-4.75c-0.52-2.19-1.38-4.23-2.88-5.95
			c-1.92-2.19-4.28-3.67-7.11-4.36c-1.44-0.35-2.91-0.59-4.38-0.85c-1.02-0.18-2.05-0.38-3.08-0.4c-1.18-0.03-2.37,0.21-3.56,0.17
			c-1.9-0.06-3.78-0.31-5.68-0.39c-1.82-0.07-3.65,0-5.47-0.02c-0.89-0.01-1.78-0.14-2.67-0.16c-1.4-0.04-2.79-0.01-4.19-0.05
			c-1.54-0.04-3.09-0.16-4.63-0.17c-1.26,0-2.52,0.16-3.78,0.16c-1.19,0-2.37-0.21-3.56-0.17c-1.74,0.06-3.48,0.32-5.23,0.38
			c-2.21,0.07-4.45-0.21-6.61,0.1c-1.32,0.19-2.59,0.14-3.89,0.12c-1.69-0.03-3.38-0.12-5.06-0.21c-0.57-0.03-1.13-0.19-1.7-0.19
			c-0.68,0.01-1.38,0.23-2.05,0.18c-2.69-0.23-5.37-0.58-8.06-0.8c-1.21-0.1-2.43,0.01-3.64-0.03c-1.11-0.03-2.21-0.14-3.31-0.2
			c-0.99-0.06-1.98-0.15-2.97-0.14c-1.95,0.02-3.91,0.07-5.86,0.14c-0.72,0.03-1.44,0.15-2.16,0.2c-1.1,0.08-2.21,0.2-3.31,0.2
			c-1.26,0-2.52-0.21-3.77-0.17c-1.65,0.05-3.29,0.3-4.94,0.39c-2.24,0.11-4.48,0.1-6.71,0.25c-0.69,0.05-1.64-0.24-2.01,0.8
			c-0.02,0.06-0.45,0.07-0.62-0.03c-0.73-0.39-1.47-0.5-2.3-0.4c-0.68,0.08-1.4,0.14-2.07,0.01c-1.05-0.2-2.06-0.64-3.12-0.82
			c-1.69-0.29-3.4-0.45-5.1-0.65c-2.48-0.29-4.96-0.54-7.43-0.85c-2.59-0.32-5.14-1.22-7.8-0.62c-1.23,0.27-2.51,0.42-3.67,0.88
			c-1.35,0.54-2.62,1.31-3.86,2.08c-0.76,0.47-1.48,1.08-2.09,1.73c-0.58,0.62-1.05,1.36-1.48,2.09c-0.76,1.29-1.64,2.56-2.1,3.96
			c-0.37,1.11-1.17,2.08-1.01,3.46c0.07,0.64-0.34,1.58-0.5,2.38c-0.12,0.55,0.09,1.17-0.04,1.71c-0.47,2.04-1.08,4.04-1.53,6.09
			c-0.46,2.07-0.81,4.16-1.18,6.24c-0.31,1.74-0.49,3.5-0.87,5.22c-0.48,2.17-1.16,4.29-1.65,6.46c-0.62,2.8-1.26,5.61-1.66,8.45
			c-0.28,2-0.22,4.05-0.24,6.08c-0.01,1.24,0.14,2.49,0.19,3.73c0.04,0.82-0.05,1.66,0.08,2.46c0.18,1.15,0.57,2.28,0.75,3.43
			c0.27,1.78,0.41,3.59,0.65,5.38c0.23,1.66,0.52,3.31,0.79,4.96c0.08,0.47,0.32,0.96,0.23,1.39c-0.29,1.46,0.12,2.85,0.38,4.24
			c0.21,1.13,0.64,2.22,0.9,3.34c0.37,1.63,0.55,3.31,1.05,4.9c0.6,1.92,1.51,3.72,3.23,4.94c0.36,0.26,0.81,0.38,1.19,0.62
			c1.2,0.76,2.46,1.3,3.88,1.56c1.24,0.23,2.43,0.72,3.65,1.08c1.16,0.34,2.31,0.68,3.48,0.99
			C507.97,683.04,508.62,683.16,509.37,683.4 M483.72,642.4c0.36,0.15,0.71,0.31,1.08,0.44c0.11,0.04,0.36-0.02,0.38-0.07
			c0.1-0.38,0.24-0.79,0.21-1.17c-0.1-1.2-0.29-2.38-0.39-3.58c-0.06-0.64-0.1-1.3,0.01-1.92c0.22-1.23,0.56-2.43,0.81-3.65
			c0.24-1.16,0.43-2.33,0.64-3.5c0.09-0.52,0.16-1.05,0.3-1.56c0.58-2,1.2-3.99,1.77-5.99c0.21-0.74-0.28-1.19-0.9-1.37
			c-0.83-0.24-4.98,5.7-5.18,7.78c-0.16,1.7-0.49,3.39-0.6,5.1c-0.11,1.67-0.1,3.35-0.04,5.03c0.03,0.85,0.16,1.75,0.48,2.52
			C482.57,641.14,482.52,642.18,483.72,642.4 M664.1,629.37c0,0.43-0.01,0.86,0,1.29c0.07,2.79,0.1,5.59,0.25,8.37
			c0.02,0.4,0.58,1.08,0.91,1.1c0.66,0.04,1.4-0.19,2-0.5c1.2-0.63,0.79-2.03,1.22-3.04c0.27-0.63,0.22-1.42,0.21-2.14
			c-0.01-1.61,0.01-3.22-0.16-4.81c-0.15-1.36-0.46-2.73-0.88-4.03c-0.33-1.02-0.5-2.21-1.56-2.83c-0.46-0.27-1.12-0.69-1.47-0.54
			c-0.51,0.22-0.77,0.9-0.31,1.53c0.02,0.02,0.01,0.07,0,0.1C663.72,625.61,664.28,627.4,664.1,629.37z"/>
		<path class="st1" d="M498.7,675.15c-0.93-1.65-0.96-3.46-1.09-5.24c-0.12-1.59-0.24-3.19-0.2-4.78c0.07-2.95,0.25-5.89,0.41-8.83
			c0.04-0.78,0.12-1.56,0.21-2.33c0.27-2.27,0.6-4.53,0.82-6.8c0.1-1.03-0.01-2.08,0.03-3.12c0.05-1.33,0.14-2.67,0.25-4
			c0.1-1.22,0.26-2.44,0.37-3.66c0.11-1.24,0.19-2.49,0.29-3.74c0.03-0.4,0.08-0.8,0.13-1.21c0.23-1.97,0.48-3.94,0.67-5.92
			c0.08-0.8-0.02-1.62,0.01-2.42c0.02-0.53,0.11-1.05,0.16-1.58c0.21-2.17,0.53-4.33,0.6-6.5c0.07-2.35-0.16-4.72-0.13-7.07
			c0.03-2.04,0.31-4.08,0.35-6.12c0.02-1.3-0.18-2.6-0.3-3.9c-0.09-1.06-0.57-2.25-0.23-3.14c0.68-1.77,0.85-3.86,2.47-5.14
			c0.61-0.48,1.44-0.72,2.21-0.92c0.88-0.24,1.8-0.33,2.7-0.46c0.58-0.09,1.16-0.21,1.74-0.2c0.89,0.01,1.79,0.18,2.68,0.19
			c2.47,0.03,4.93-0.04,7.4,0.03c2.14,0.06,4.28,0.29,6.42,0.39c1.21,0.06,2.44-0.08,3.64,0.04c1.14,0.11,2.27,0.42,3.4,0.65
			c0.55,0.11,1.08,0.27,1.63,0.36c1.7,0.29,3.46,0.39,5.1,0.89c2.07,0.63,4.59,0.6,5.91,2.64c1.08,1.67,1.79,3.59,2.53,5.46
			c0.49,1.23,0.29,2.56,0.13,3.88c-0.15,1.22,0.01,2.49-0.12,3.72c-0.15,1.49-0.43,2.96-0.71,4.43c-0.2,1.03-0.35,2.1-0.77,3.04
			c-0.86,1.92-0.87,3.98-1.28,5.98c-0.4,1.96-0.65,3.85-0.41,5.87c0.25,2.12,0.13,4.29,0.26,6.43c0.14,2.25,0.43,4.48,0.56,6.73
			c0.06,1.17-0.1,2.36-0.15,3.54c-0.02,0.57,0,1.15,0,1.72c0,0.47-0.02,0.94,0,1.4c0.06,1.17,0.23,2.35,0.19,3.52
			c-0.07,2.16-0.26,4.32-0.4,6.48c-0.07,1.17-0.03,2.37-0.23,3.52c-0.39,2.2-0.34,4.47-1.39,6.57c-0.56,1.11-0.56,2.49-0.91,3.72
			c-0.32,1.12-0.77,2.2-1.14,3.31c-0.2,0.59-0.48,1.18-0.5,1.78c-0.04,1.34-0.79,2.39-1.29,3.54c-0.23,0.53-0.72,0.95-1.14,1.38
			c-0.77,0.8-1.53,1.63-2.39,2.32c-1.12,0.9-2.55,0.91-3.9,1.06c-1.71,0.2-3.36-0.21-5.02-0.55c-1.11-0.22-2.25-0.31-3.37-0.5
			c-1.76-0.31-3.5-0.69-5.26-0.99c-1.19-0.2-2.39-0.3-3.59-0.48c-2.67-0.4-5.33-0.83-8-1.23c-1.06-0.16-2.12-0.36-3.18-0.43
			c-2.35-0.17-4.27-1.16-5.83-2.9C498.9,675.44,498.77,675.33,498.7,675.15 M530.5,590.16c-1.06-0.13-2.12-0.32-3.18-0.38
			c-1.32-0.07-2.65-0.01-3.97-0.05c-0.83-0.02-1.65-0.19-2.47-0.19c-1.08,0.01-2.16,0.19-3.24,0.18c-1.76-0.02-3.52-0.21-5.28-0.17
			c-1.84,0.04-3.69,0.15-5.5,0.43c-1.81,0.27-3.38,0.99-3.82,3.1c-0.21,1-0.56,1.91-0.45,3.02c0.24,2.36,0.21,4.75,0.26,7.13
			c0.03,1.51,0.03,3.02,0,4.52c-0.03,1.22-0.16,2.44-0.19,3.66c-0.04,1.25,0.05,2.5-0.02,3.75c-0.07,1.15-0.32,2.29-0.39,3.44
			c-0.07,1.28,0.04,2.57-0.03,3.85c-0.07,1.36-0.28,2.71-0.4,4.07c-0.15,1.63-0.24,3.28-0.43,4.9c-0.24,2.06-0.61,4.11-0.81,6.17
			c-0.12,1.24,0.05,2.5-0.04,3.75c-0.16,2.35-0.42,4.68-0.61,7.03c-0.1,1.14-0.13,2.28-0.22,3.42c-0.13,1.82-0.32,3.64-0.4,5.47
			c-0.07,1.53,0.01,3.06-0.02,4.59c-0.04,1.72-0.27,3.46-0.17,5.17c0.11,1.79,0.48,3.56,0.81,5.33c0.43,2.26,2.18,4.09,4.28,4.42
			c2.19,0.34,4.39,0.57,6.59,0.86c1.1,0.14,2.29,0.06,3.27,0.47c1.64,0.69,3.38,0.64,5.05,0.99c1.24,0.26,2.5,0.42,3.76,0.57
			c1.81,0.22,3.63,0.34,5.44,0.6c1.02,0.15,2.02,0.47,3.01,0.75c0.17,0.05,0.32,0.4,0.44,0.39c1.17-0.17,2.45-0.16,3.47-0.66
			c1.92-0.95,3.26-2.68,4.15-4.55c1.08-2.27,1.82-4.71,2.56-7.11c0.67-2.19,0.99-4.49,1.75-6.64c0.79-2.25,0.78-4.57,1-6.87
			c0.15-1.53,0.18-3.07,0.22-4.61c0.03-1.4,0.03-2.8,0-4.21c-0.02-1.11-0.15-2.22-0.14-3.33c0.01-1.75,0.11-3.51,0.15-5.26
			c0.02-0.73-0.04-1.47-0.06-2.2c-0.03-1.05,0-2.1-0.09-3.14c-0.12-1.56-0.34-3.11-0.48-4.67c-0.1-1.13-0.18-2.27-0.22-3.41
			c-0.03-1.04-0.08-2.09,0.03-3.12c0.1-0.92,0.4-1.81,0.6-2.72c0.22-1,0.41-2,0.64-3c0.76-3.38,2.17-6.62,2.1-10.16
			c0-0.11-0.02-0.21,0-0.31c0.38-2.19,0.43-4.36-0.19-6.54c-0.38-1.31-0.71-2.6-1.7-3.6c-0.78-0.79-1.45-1.87-2.4-2.26
			c-1.8-0.74-3.74-1.16-5.65-1.56C535.2,590.97,532.89,590.65,530.5,590.16z"/>
		<path class="st1" d="M553.31,637.04c0-0.97-0.01-1.83,0-2.7c0.03-1.7,0.1-3.4,0.11-5.1c0.01-1.07-0.08-2.14-0.09-3.22
			c-0.02-1.43,0.01-2.87-0.03-4.3c-0.04-1.32-0.19-2.64-0.23-3.96c-0.03-1.13,0.04-2.26,0.02-3.38c-0.01-0.65-0.22-1.3-0.18-1.94
			c0.17-2.78,0.43-5.55,0.61-8.32c0.12-1.85,0.16-3.7,0.21-5.55c0.04-1.3,0.26-1.6,1.82-2.12c1.55-0.52,3.08-1.13,4.67-1.49
			c2.78-0.62,5.58-0.99,8.46-0.72c1.05,0.1,2.14-0.18,3.22-0.29c1.39-0.14,2.78-0.32,4.17-0.41c1.86-0.11,3.73-0.23,5.59-0.2
			c1.66,0.03,3.32,0.25,4.98,0.4c2.17,0.2,4.34,0.4,6.5,0.63c2.2,0.24,4.2,1.18,6.11,2.18c0.71,0.37,1.14,1.37,1.57,2.15
			c0.44,0.79,0.76,1.65,1.05,2.5c0.5,1.46,1.19,2.88,1.07,4.5c-0.21,2.7-0.4,5.39-0.6,8.09c-0.08,1.1-0.1,2.21-0.25,3.3
			c-0.19,1.34-0.56,2.66-0.71,4c-0.13,1.16-0.07,2.34-0.05,3.51c0.01,0.87,0.1,1.73,0.14,2.6c0.03,0.53,0,1.07,0.05,1.59
			c0.18,1.88,0.45,3.76,0.56,5.65c0.1,1.7,0.13,3.42-0.01,5.11c-0.14,1.75-0.55,3.48-0.81,5.22c-0.23,1.59-0.45,3.19-0.63,4.78
			c-0.23,2.01-0.35,4.04-0.66,6.04c-0.22,1.45-0.85,2.85-0.98,4.3c-0.15,1.62-0.63,3.17-0.8,4.8c-0.2,2.06-0.59,4.25-1.92,6.07
			c-0.37,0.5-0.46,1.21-0.69,1.81c-0.75,1.9-2.03,3.27-3.87,4.23c-1.87,0.97-3.59,2.22-5.42,3.25c-1.3,0.73-2.66,1.34-4.04,1.92
			c-0.31,0.13-0.77-0.06-1.15-0.16c-1.08-0.27-2.14-0.58-3.23-0.82c-0.37-0.08-0.78,0.01-1.17,0.04c-1.73,0.12-3.45,0.26-5.18,0.35
			c-0.42,0.02-0.85-0.18-1.28-0.19c-1.72-0.02-3.44-0.04-5.15,0c-1.71,0.03-3.44,0.3-5.13,0.16c-2.04-0.17-4.12-0.48-6.05-1.1
			c-0.77-0.25-1.36-1.44-1.79-2.31c-0.41-0.85-0.56-1.84-0.71-2.78c-0.11-0.72-0.03-1.47-0.06-2.21c-0.02-0.57-0.08-1.15-0.11-1.72
			c-0.09-1.98-0.19-3.95-0.23-5.93c-0.04-1.61-0.06-3.23,0.01-4.84c0.05-1.22,0.32-2.43,0.39-3.65c0.07-1.25-0.07-2.51,0.04-3.75
			c0.09-1.08,0.44-2.13,0.59-3.21c0.13-0.88,0.13-1.79,0.23-2.68c0.13-1.13,0.33-2.25,0.47-3.37c0.09-0.72,0.09-1.45,0.16-2.18
			c0.04-0.39,0.17-0.78,0.2-1.17C553.18,639.36,553.24,638.25,553.31,637.04 M592.2,595.52c-0.8-0.18-1.6-0.44-2.41-0.51
			c-1.67-0.13-3.35-0.14-5.03-0.23c-2.16-0.12-4.32-0.35-6.48-0.39c-1.25-0.02-2.5,0.26-3.75,0.39c-1.37,0.15-2.73,0.29-4.1,0.42
			c-0.66,0.06-1.34,0.12-2,0.08c-2.08-0.13-4.16-0.14-6.2,0.35c-1.96,0.47-3.92,0.96-5.87,1.49c-0.33,0.09-0.74,0.37-0.86,0.66
			c-0.31,0.75-0.6,1.54-0.67,2.34c-0.16,1.84-0.16,3.7-0.27,5.54c-0.11,1.89-0.37,3.79-0.39,5.68c-0.02,2.77,0.11,5.55,0.19,8.32
			c0.05,1.5,0.13,3,0.21,4.5c0.06,1.19,0.2,2.37,0.19,3.56c-0.01,1.65-0.15,3.31-0.19,4.96c-0.03,1.49,0.01,2.99-0.02,4.49
			c-0.01,0.53-0.18,1.06-0.19,1.59c-0.03,1.28,0.09,2.58-0.04,3.85c-0.17,1.61-0.57,3.2-0.8,4.81c-0.26,1.82-0.45,3.65-0.64,5.49
			c-0.23,2.2-0.46,4.4-0.62,6.61c-0.08,1.1-0.01,2.22-0.01,3.33c0,1.22-0.08,2.44,0.02,3.64c0.14,1.73,0.58,3.45,0.56,5.17
			c-0.01,1.63,0,3.21,0.47,4.77c0.44,1.44,1.36,2.7,2.77,2.93c2.03,0.33,4.12,0.75,6.23,0.31c0.72-0.15,1.48-0.16,2.22-0.15
			c0.94,0,1.89,0.12,2.83,0.13c1.34,0.01,2.69-0.04,4.03-0.03c1.7,0.01,3.41,0.06,5.11,0.11c1.26,0.04,2.52,0.1,3.79,0.17
			c0.95,0.05,2.06,0.46,2.81,0.11c1.98-0.92,3.8-2.16,5.69-3.28c0.64-0.38,1.27-0.76,1.89-1.16c0.73-0.48,1.65-0.84,2.11-1.51
			c0.89-1.31,1.63-2.75,2.21-4.22c0.55-1.39,0.87-2.88,1.18-4.34c0.41-1.94,0.69-3.91,1.09-5.86c0.29-1.41,0.74-2.79,1.01-4.2
			c0.23-1.22,0.26-2.48,0.45-3.71c0.4-2.67,0.88-5.32,1.24-7.99c0.29-2.19,0.5-4.39,0.65-6.6c0.09-1.35,0.02-2.71-0.01-4.07
			c-0.01-0.63-0.08-1.25-0.12-1.88c-0.09-1.16-0.23-2.32-0.28-3.49c-0.1-2.2-0.33-4.41-0.18-6.6c0.17-2.47,1.16-4.81,1.06-7.38
			c-0.08-2.21,0.42-4.44,0.55-6.67c0.1-1.67-0.17-3.27-0.77-4.89c-0.69-1.86-1.49-3.57-3.08-4.79c-0.4-0.3-0.96-0.39-1.42-0.61
			C595.08,596.11,593.75,595.67,592.2,595.52z"/>
		<path class="st1" d="M653.17,626.53c0.28-2.76,0.57-5.41,0.84-8.06c0.15-1.46,0.33-2.92,0.41-4.38c0.11-2.04,0.19-4.08,0.21-6.12
			c0.01-1.19-0.11-2.37-0.2-3.56c-0.16-2.13-0.85-4.01-2.09-5.8c-1.35-1.96-3.39-2.18-5.35-2.51c-1.5-0.25-3.08-0.02-4.62-0.06
			c-1.29-0.03-2.58-0.19-3.87-0.19c-1.58,0.01-3.17,0.14-4.75,0.19c-1.18,0.03-2.36-0.02-3.54,0.01c-1.85,0.05-3.71,0.09-5.55,0.22
			c-2.31,0.16-4.61,0.42-6.92,0.63c-0.24,0.02-0.48,0-0.72-0.01c0.13-0.28,0.23-0.58,0.4-0.84c0.08-0.12,0.28-0.2,0.43-0.21
			c1.21-0.1,2.43-0.16,3.65-0.27c0.56-0.05,1.1-0.26,1.66-0.29c1.5-0.06,3-0.04,4.49-0.09c1.48-0.05,2.96-0.16,4.44-0.2
			c1.42-0.03,2.85,0.02,4.28-0.02c1.26-0.03,2.51-0.19,3.77-0.19c1.21,0,2.42,0.17,3.63,0.18c0.79,0.01,1.59-0.23,2.36-0.17
			c1.12,0.09,2.22,0.44,3.34,0.54c1.37,0.11,2.39,0.67,3.26,1.74c1.13,1.39,2.19,2.75,2.38,4.64c0.13,1.32,0.52,2.61,0.63,3.93
			c0.13,1.55,0.09,3.12,0.09,4.69c0,1.17-0.01,2.34-0.11,3.49c-0.16,1.67-0.44,3.33-0.61,5c-0.18,1.78-0.27,3.58-0.43,5.36
			c-0.11,1.24-0.36,2.47-0.4,3.72c-0.06,1.77,0.02,3.53,0.04,5.3c0.01,0.67-0.02,1.34-0.01,2c0.01,0.55,0.07,1.1,0.09,1.65
			c0.03,1.43,0.09,2.85,0.07,4.28c-0.03,1.61-0.08,3.22-0.21,4.82c-0.15,1.86-0.44,3.7-0.6,5.56c-0.08,0.95,0.07,1.92-0.03,2.87
			c-0.21,1.89-0.53,3.77-0.8,5.65c-0.22,1.59-0.39,3.19-0.67,4.77c-0.29,1.69-0.59,3.38-1.07,5.02c-0.51,1.77-1.13,3.53-1.91,5.19
			c-0.43,0.91-1.27,1.63-1.98,2.38c-0.98,1.04-1.94,2.1-3.03,3.01c-1.09,0.91-2.23,1.85-3.52,2.4c-1.61,0.68-3.39,0.66-5.14,0.33
			c-0.27-0.05-0.54-0.06-0.82-0.06c-1.53-0.01-3.07-0.11-4.59,0.02c-2.01,0.17-4.02,0-6.04,0.32c-1.59,0.25-3.28-0.21-4.93-0.34
			c-1.07-0.08-2.14-0.14-3.21-0.21c-0.96-0.07-2.52-1.36-2.8-2.27c-0.21-0.68-0.52-1.33-0.68-2.01c-0.26-1.14-0.49-2.29-0.63-3.45
			c-0.19-1.59-0.4-3.2-0.4-4.8c0-1.61,0.28-3.22,0.38-4.84c0.1-1.6,0.11-3.22,0.23-4.82c0.09-1.2,0.3-2.4,0.44-3.6
			c0.2-1.72,0.4-3.43,0.6-5.15c0.07-0.64,0.16-1.27,0.21-1.91c0.09-1.21,0.12-2.42,0.22-3.63c0.19-2.43,0.45-4.85,0.61-7.27
			c0.08-1.24,0-2.5,0.02-3.75c0.01-0.32,0.16-0.64,0.2-0.96c0.15-1.28,0.34-2.57,0.41-3.86c0.07-1.28-0.06-2.58,0.04-3.85
			c0.13-1.64,0.46-3.26,0.59-4.89c0.1-1.32,0.03-2.65,0.06-3.97c0.01-0.28,0.14-0.56,0.17-0.85c0.08-0.96,0.19-1.93,0.21-2.89
			c0.04-2.26,0.03-4.52,0.03-6.77c0-1.97,0.02-3.94-0.04-5.91c-0.03-0.83-0.29-1.65-0.33-2.48c-0.02-0.42,0.18-0.87,0.35-1.28
			c0.04-0.1,0.51-0.14,0.52-0.11c0.13,0.38,0.26,0.77,0.31,1.17c0.22,1.87,0.47,3.75,0.61,5.63c0.09,1.18,0.03,2.38,0.02,3.57
			c-0.01,0.81-0.06,1.61-0.09,2.41c-0.04,1.27-0.06,2.54-0.12,3.81c-0.06,1.17-0.17,2.34-0.25,3.5c-0.06,0.76-0.09,1.52-0.17,2.28
			c-0.12,1.25-0.29,2.5-0.4,3.76c-0.11,1.27-0.15,2.55-0.23,3.83c-0.05,0.69-0.17,1.37-0.19,2.06c-0.04,1.32-0.02,2.65-0.06,3.97
			c-0.03,0.99-0.1,1.99-0.17,2.98c-0.13,1.78-0.27,3.55-0.42,5.33c-0.11,1.22-0.29,2.44-0.36,3.67c-0.07,1.21,0.01,2.42-0.07,3.63
			c-0.11,1.7-0.3,3.4-0.47,5.09c-0.12,1.22-0.23,2.45-0.37,3.67c-0.27,2.3-0.61,4.6-0.82,6.91c-0.11,1.25-0.05,2.52-0.01,3.78
			c0.04,1.67-0.03,3.36,0.25,4.99c0.33,1.93,0.16,3.96,1.2,5.77c0.74,1.28,1.75,1.93,3.19,2.06c1.22,0.11,2.43,0.36,3.65,0.39
			s2.44-0.12,3.66-0.19c1.37-0.07,2.75-0.17,4.12-0.2c1.4-0.04,2.81,0.06,4.21-0.03c1.55-0.09,3.08-0.03,4.61,0.21
			c2.22,0.35,3.75-0.92,5.18-2.37c1.21-1.23,2.42-2.46,3.65-3.67c1.06-1.05,1.64-2.35,2.02-3.75c0.7-2.55,1.39-5.1,2-7.66
			c0.18-0.75,0.03-1.57,0.12-2.34c0.12-1.03,0.33-2.05,0.48-3.07c0.13-0.91,0.23-1.82,0.35-2.73c0.16-1.19,0.35-2.38,0.49-3.58
			c0.08-0.66,0.08-1.32,0.14-1.98c0.28-3.08,0.6-6.17,0.82-9.25c0.1-1.47,0.02-2.94,0.02-4.42c0-1.13,0-2.25-0.03-3.38
			c-0.04-1.18-0.17-2.37-0.16-3.55C652.98,628.78,653.1,627.71,653.17,626.53z"/>
		<path class="st1" d="M641.82,606.98c1.68-0.59,3.94,0.13,5.06,1.46c0.91,1.07,1.64,2.18,1.22,3.62c-0.36,1.23-0.87,2.43-1.42,3.6
			c-0.5,1.09-1.17,2.1-1.71,3.17c-0.62,1.21-1.2,2.44-1.75,3.69c-0.51,1.16-0.98,2.33-1.4,3.52c-0.42,1.19-0.78,2.41-1.12,3.63
			c-0.13,0.48-0.15,0.99-0.23,1.48c-0.32,1.79-0.68,3.57-0.95,5.36c-0.26,1.74-0.45,3.49-0.64,5.24c-0.16,1.53-0.26,3.06-0.43,4.59
			c-0.19,1.7-0.45,3.4-0.61,5.1c-0.13,1.39-0.16,2.79-0.22,4.19c-0.08,1.63-0.14,3.26-0.21,4.89c-0.07,1.56-0.18,3.12-0.2,4.68
			c-0.03,2.79,0,5.58-0.02,8.38c0,0.73-0.02,1.47-0.15,2.19c-0.1,0.55-0.49,0.77-1.15,0.71c-0.56-0.05-1.16,0.16-1.73,0.3
			c-0.53,0.13-1,0.28-1.51-0.18c-1.22-1.1-2.69-1.93-2.66-3.96c0.02-1.06-0.47-2.13-0.68-3.2c-0.37-1.91-1.18-3.7-1.22-5.72
			c-0.03-1.71-0.58-3.4-0.78-5.12c-0.13-1.15-0.07-2.33-0.07-3.5c0-0.7,0.07-1.41,0.05-2.11c-0.02-0.62-0.24-1.24-0.18-1.84
			c0.23-2.21,0.56-4.42,0.81-6.63c0.13-1.13,0.12-2.28,0.23-3.42c0.1-1.08,0.28-2.15,0.41-3.23c0.15-1.24,0.25-2.48,0.43-3.71
			c0.16-1.04,0.37-2.07,0.63-3.08c0.52-2.06,1.43-3.97,2.45-5.82c0.86-1.56,1.76-3.1,2.18-4.86c0.13-0.56,0.44-1.07,0.61-1.62
			c0.2-0.68-0.35-0.96-0.81-1.04c-1.87-0.33-3.75-0.65-5.64-0.83c-0.95-0.09-1.94,0.04-2.89,0.2c-0.83,0.15-0.71,0.96-0.72,1.55
			c-0.04,1.39-0.49,2.6-1.59,3.43c-0.72,0.55-1.62,1-2.56,0.45c-0.37-0.22-0.71-0.58-0.92-0.96c-0.63-1.14-0.75-2.4-0.61-3.66
			c0.25-2.32,0.54-4.63,0.84-6.94c0.06-0.48,0.26-0.94,0.41-1.4c0.28-0.87,0.53-1.74,0.86-2.59c0.07-0.19,0.39-0.36,0.61-0.39
			c0.48-0.06,0.98,0.02,1.47-0.03c0.36-0.04,0.78-0.11,1.04-0.33c0.66-0.56,1.23-1.22,1.87-1.8c0.13-0.12,0.42-0.08,0.63-0.11
			c-0.12,0.14-0.22,0.3-0.35,0.43c-0.5,0.47-1,0.93-1.5,1.4c-0.14,0.13-0.28,0.27-0.41,0.4c0.16,0.14,0.32,0.38,0.5,0.39
			c0.78,0.05,1.56,0.02,2.34,0.06c0.53,0.03,1.06,0.15,1.59,0.19c1.26,0.09,2.51,0.21,3.77,0.2c1.71-0.01,3.42-0.12,5.14-0.2
			C639.18,607.13,640.45,607.05,641.82,606.98 M639.3,630.84c0.07-0.92-0.01-1.88,0.26-2.73c0.51-1.6,1.2-3.14,1.85-4.69
			c0.71-1.7,1.45-3.39,2.2-5.08c0.95-2.1,1.96-4.16,2.88-6.27c0.38-0.89-0.8-3.09-1.74-3.17c-1.52-0.12-3.06-0.06-4.59-0.02
			c-1.15,0.03-2.3,0.12-3.45,0.21c-0.58,0.04-1.16,0.22-1.73,0.18c-2.14-0.16-4.27-0.39-6.4-0.6c-1.32-0.13-2.64-0.32-3.96-0.4
			c-0.53-0.03-1.35-0.06-1.57,0.24c-0.7,0.96-1.41,1.94-1.44,3.27c-0.03,1.16-0.41,2.31-0.54,3.47c-0.19,1.67-0.4,3.36,0.17,5.01
			c0.08,0.23,0.35,0.58,0.51,0.57c0.26-0.02,0.55-0.25,0.72-0.47c0.73-0.93,0.85-1.99,0.65-3.13c-0.15-0.86,0.7-1.82,1.56-1.82
			c1.14-0.01,2.29-0.02,3.43,0c0.73,0.01,1.46,0.06,2.18,0.14c1.34,0.14,2.67,0.44,4,0.45c1.18,0.01,2.01,0.56,2.07,1.72
			c0.12,2.5-1.05,4.64-2.22,6.64c-1.24,2.13-2.32,4.31-2.98,6.63c-0.56,1.98-0.64,4.09-0.89,6.15c-0.17,1.39-0.26,2.78-0.44,4.17
			c-0.06,0.48-0.32,0.93-0.4,1.41c-0.17,1.14-0.31,2.29-0.43,3.43c-0.1,1-0.14,2-0.22,3c-0.06,0.82-0.16,1.65-0.2,2.47
			c-0.03,0.79-0.02,1.59,0,2.38c0.04,1.59,0.02,3.19,0.17,4.77c0.12,1.27,0.44,2.52,0.67,3.78c0.22,1.24,0.35,2.51,0.65,3.73
			c0.42,1.75,1.09,3.45,1.42,5.22c0.4,2.11,1.27,3.13,3.33,3.71c0.83,0.24,0.81-0.4,0.81-0.67c0.01-2.07-0.07-4.14-0.12-6.21
			c-0.02-0.78-0.14-1.6,0.02-2.34c0.41-1.83,0.43-3.65,0.19-5.49c-0.07-0.53-0.04-1.08,0-1.61c0.13-1.83,0.28-3.67,0.41-5.5
			c0.08-1.14,0.08-2.28,0.25-3.41c0.26-1.76,0.84-3.46,0.82-5.27c-0.01-0.53,0.17-1.06,0.19-1.59c0.03-1.14-0.08-2.3,0.04-3.43
			c0.19-1.75,0.49-3.49,0.83-5.22C638.49,633.26,638.88,632.11,639.3,630.84z"/>
		<path class="st1" d="M639.93,674.47c-0.27,0.33-0.53,0.55-0.8,0.78c-0.02-0.57-0.29-1.39-0.02-1.66c1.26-1.25,2.68-2.35,4.04-3.49
			c0.07-0.06,0.19-0.09,0.28-0.07c0.34,0.07,0.68,0.15,1.01,0.24c-0.19,0.21-0.34,0.51-0.57,0.62
			C642.23,671.67,640.87,672.78,639.93,674.47z"/>
		<path class="st1" d="M622.48,604.67c-0.21,0.14-0.41,0.18-0.62,0.21c0-0.13-0.06-0.29,0-0.38c0.44-0.72,0.81-1.52,1.38-2.13
			c1.03-1.1,2.19-2.09,3.3-3.12c0.19-0.18,0.41-0.38,0.65-0.44c0.19-0.05,0.43,0.11,0.64,0.18c-0.07,0.15-0.12,0.33-0.23,0.44
			c-0.67,0.69-1.35,1.39-2.05,2.05c-0.67,0.63-1.38,1.21-2.04,1.85C623.13,603.7,622.82,604.15,622.48,604.67z"/>
		<path class="st1" d="M624.63,599.67c-0.85,0.79-1.68,1.49-2.42,2.27c-0.41,0.44-0.65,1.04-0.99,1.55c-0.08,0.12-0.3,0.3-0.35,0.27
			c-0.18-0.1-0.38-0.25-0.43-0.43c-0.04-0.13,0.09-0.35,0.2-0.49c0.66-0.85,1.15-1.82,2.15-2.44c0.83-0.52,1.43-1.4,2.17-2.08
			c0.17-0.15,0.47-0.15,0.72-0.23c-0.04,0.29,0.01,0.64-0.14,0.85C625.33,599.22,624.98,599.4,624.63,599.67z"/>
		<path class="st1" d="M643.97,673.05c-0.82,0.99-1.6,1.92-2.36,2.86c-0.23,0.28-0.45,0.58-0.67,0.88c-0.12-0.46-0.5-1.11-0.33-1.34
			c0.82-1.09,1.4-2.43,2.75-3.03C643.99,672.12,644.31,672.23,643.97,673.05z"/>
		<path class="st1" d="M629.15,601.67c0.66-0.45,1.26-0.85,1.87-1.23c0.09-0.05,0.32-0.04,0.35,0.01c0.06,0.12,0.1,0.36,0.04,0.41
			c-0.78,0.61-1.58,1.2-2.39,1.77c-0.15,0.1-0.39,0.07-0.59,0.11c0.1-0.14,0.2-0.29,0.3-0.43
			C628.85,602.11,628.98,601.92,629.15,601.67z"/>
		<path class="st1" d="M524.29,635.36c-0.14,1.6-0.35,3.09-0.41,4.59c-0.12,2.91-0.05,5.83-0.25,8.74
			c-0.21,3.06,0.22,6.04,0.62,9.04c0.24,1.78,0.38,3.59,0.42,5.39c0.01,0.55-0.38,1.18-0.77,1.62c-0.11,0.12-0.86-0.29-1.3-0.5
			c-0.1-0.05-0.17-0.27-0.18-0.42c-0.02-1.39,0-2.79-0.04-4.18c-0.04-1.44-0.14-2.89-0.2-4.33c-0.08-1.85-0.17-3.7-0.2-5.56
			c-0.03-1.72-0.06-3.44,0.01-5.15c0.06-1.57,0.3-3.13,0.4-4.7c0.11-1.67,0.09-3.36,0.24-5.03c0.09-1.04,0.35-2.08,0.62-3.1
			c0.6-2.33,1.23-4.66,1.89-6.98c0.35-1.21,0.85-2.39,1.21-3.6c0.44-1.48-0.38-2.56-1.88-2.9c-1.67-0.38-3.29-1-4.95-1.43
			c-1.12-0.29-2.28-0.42-3.41-0.65c-0.58-0.11-1.16-0.25-1.72-0.42c-0.98-0.31-1.06,0.41-1.01,0.98c0.14,1.5-0.58,2.65-1.34,3.8
			c-0.08,0.11-0.25,0.18-0.29,0.3c-0.38,1.14-1.31,0.98-2.09,0.75c-0.92-0.27-1.91-0.61-2.63-1.21c-0.53-0.44-1.04-1.39-0.94-2.02
			c0.29-1.97,0.9-3.89,1.34-5.84c0.46-2.06,0.94-4.12,1.28-6.2c0.31-1.93,1.57-2.73,3.34-2.1c1.78,0.63,3.6,1.14,5.42,1.63
			c1.48,0.4,3.06,0.53,4.47,1.1c2.42,1,5.02,1.04,7.51,1.6c0.72,0.16,1.54-0.13,2.32-0.18c1.19-0.08,2.4-0.01,3.56-0.23
			c1.17-0.22,2.33-0.62,3.42-1.11c0.94-0.43,1.9-0.47,2.2,0.31c0.18,0.47,0.07,1.11-0.07,1.63c-0.46,1.69-1.01,3.36-1.51,5.05
			c-0.62,2.12-1.3,4.23-1.82,6.37c-0.51,2.12-0.89,4.27-1.27,6.41c-0.39,2.2-0.71,4.4-1.06,6.61c-0.35,2.17-0.75,4.33-1.03,6.5
			c-0.17,1.3-0.13,2.63-0.24,3.94c-0.1,1.14-0.3,2.26-0.4,3.4c-0.1,1.1-0.13,2.21-0.22,3.31c-0.2,2.25-0.46,4.5-0.61,6.75
			c-0.09,1.24,0.04,2.5-0.03,3.75c-0.07,1.13-0.31,2.26-0.43,3.39c-0.09,0.86-0.02,1.75-0.22,2.58c-0.14,0.6-0.49,1.27-0.96,1.64
			c-0.24,0.19-0.95-0.25-1.45-0.39c-0.3-0.08-0.61-0.18-0.91-0.17c-1.25,0.03-2.5,0.06-3.74,0.16c-0.7,0.05-1.34,0.05-1.8-0.56
			c-0.13-0.17-0.21-0.38-0.32-0.58c0.29-0.11,0.59-0.32,0.88-0.31c1.33,0.04,2.66,0.18,4,0.22c0.6,0.02,1.34,0.06,1.77-0.25
			c0.45-0.33,0.78-1.04,0.87-1.63c0.35-2.27,0.63-4.55,0.85-6.83c0.11-1.17-0.05-2.36,0.04-3.54c0.14-1.82,0.46-3.63,0.6-5.45
			c0.14-1.78,0.12-3.57,0.24-5.34c0.07-1.03,0.28-2.06,0.4-3.09c0.09-0.68,0.11-1.37,0.22-2.05c0.25-1.5,0.58-2.99,0.82-4.49
			c0.31-1.98,0.56-3.97,0.86-5.95c0.18-1.14,0.42-2.27,0.62-3.4c0.28-1.57,0.53-3.14,0.85-4.7c0.31-1.48,0.69-2.94,1.04-4.4
			c0.42-1.72,0.77-3.46,1.3-5.14c0.19-0.6,0.46-1.06-0.13-1.51c-0.17-0.13-0.44-0.26-0.63-0.22c-1.2,0.25-2.38,0.62-3.58,0.8
			c-1.12,0.17-2.28,0.24-3.41,0.22c-1.99-0.03-3.94-0.41-5.91-0.7c-2.71-0.4-5.22-1.42-7.9-1.86c-1.64-0.27-3.22-0.98-4.79-1.59
			c-1.06-0.42-1.14-0.4-1.44,0.71c-0.43,1.6-1.05,3.16-1.38,4.78c-0.36,1.71-0.48,3.48-0.71,5.21c-0.04,0.32-0.2,0.64-0.19,0.96
			c0,0.84,1.13,1.9,1.95,1.96c1.01,0.08,1.34-0.82,1.53-1.38c0.29-0.86,0.27-1.89,0.17-2.82c-0.13-1.18,0.14-1.47,1.34-1.29
			c1.02,0.15,2.09,0.04,3.09,0.26c1.33,0.28,2.61,0.82,3.93,1.15c1.65,0.42,3.33,0.79,5,1.12c1.1,0.21,2.24,0.2,3.32,0.48
			c0.43,0.11,0.94,0.67,1.04,1.12c0.08,0.36-0.28,1.1-0.62,1.24c-1.32,0.55-1.1,1.78-1.42,2.78c-0.2,0.65-0.36,1.32-0.55,1.98
			c-0.38,1.32-0.76,2.63-1.14,3.94c-0.23,0.77-0.49,1.54-0.7,2.32c-0.28,1.08-0.55,2.16-0.76,3.26
			C524.22,634.24,524.29,634.76,524.29,635.36z"/>
		<path class="st1" d="M509.63,600.51c-0.46,0.53-0.83,1.07-1.31,1.47c-0.18,0.15-0.64-0.04-0.98-0.07c0.1-0.27,0.13-0.61,0.31-0.81
			c1.64-1.7,3.3-3.37,4.96-5.04c0.28-0.29,0.58-0.55,0.87-0.83c-0.04,0.45,0.07,1.01-0.16,1.32c-0.69,0.94-1.5,1.79-2.29,2.64
			C510.62,599.65,510.14,600.04,509.63,600.51z"/>
		<path class="st1" d="M538.01,672.84c0.34-0.04,0.63-0.04,0.92-0.03c-0.07,0.33-0.03,0.76-0.22,0.98
			c-1.18,1.32-2.41,2.61-3.66,3.88c-0.29,0.3-0.72,0.46-1.09,0.69c0.06-0.41,0-0.88,0.2-1.21c0.32-0.54,0.79-1,1.22-1.47
			C536.24,674.74,537.1,673.82,538.01,672.84z"/>
		<path class="st1" d="M533.7,672.94c0.92-0.57,1.77-1.12,2.67-1.57c0.13-0.07,0.49,0.33,0.75,0.51c-0.16,0.14-0.29,0.32-0.47,0.41
			c-1.63,0.86-3.37,1.59-3.97,3.62c-0.06,0.19-0.49,0.27-0.75,0.4c-0.13-0.48-0.52-1.16-0.33-1.39
			C532.16,674.19,532.95,673.63,533.7,672.94z"/>
		<path class="st1" d="M507.11,597.94c1.05-1.05,2.15-2.12,3.28-3.14c0.18-0.16,0.54-0.12,0.82-0.17c-0.14,0.24-0.22,0.56-0.42,0.72
			C509.59,596.23,508.37,597.08,507.11,597.94z"/>
		<path class="st1" d="M507,597.94c-0.83,0.92-1.71,1.84-2.6,2.75c-0.09,0.09-0.22,0.13-0.34,0.19c-0.05-0.14-0.13-0.28-0.16-0.43
			c-0.18-0.85,0.59-0.99,1.04-1.32C505.57,598.67,506.28,598.33,507,597.94z"/>
		<path class="st1" d="M505.16,597.31c-0.48-0.35-0.63-0.6-0.03-0.96c0.49-0.29,0.83-0.81,1.26-1.2c0.09-0.08,0.28-0.05,0.42-0.07
			c-0.07,0.11-0.13,0.23-0.2,0.34C506.17,596.05,505.72,596.68,505.16,597.31z"/>
		<path class="st1" d="M523.45,669.63c-0.24,0.35-0.48,0.6-0.72,0.84c-0.11-0.16-0.34-0.34-0.31-0.47c0.05-0.24,0.2-0.53,0.39-0.64
			C522.95,669.28,523.24,669.46,523.45,669.63z"/>
		<path class="st1" d="M571.18,657.44c-0.07-1.58-0.19-3.06-0.19-4.54c0-1.06,0.14-2.13,0.25-3.18c0.09-0.86,0.26-1.72,0.36-2.58
			c0.22-1.94,0.24-3.93,0.68-5.82c0.52-2.23,1.4-4.37,2.13-6.55c0.53-1.59,1.04-3.2,1.63-4.77c0.48-1.27,1.28-2.44,1.56-3.74
			c0.35-1.67,0.46-3.42,0.43-5.13c-0.04-2.57-2.08-3.18-4.06-3.59c-1.67-0.35-3.39-0.54-5.09-0.63c-2.02-0.11-2.24,0.16-2.32,2.18
			c-0.08,1.95-1.13,3.28-2.77,4.06c-0.78,0.37-1.79,0.16-2.51-0.51c-0.54-0.5-0.63-1.12-0.65-1.88c-0.06-1.69,0.28-3.28,0.68-4.89
			c0.29-1.17,0.53-2.36,0.87-3.51c0.37-1.25,0.78-2.46,0.4-3.8c-0.3-1.07,0.99-1.97,2.24-1.75c1.27,0.23,2.57,0.31,3.87,0.4
			c1.57,0.11,3.14,0.15,4.71,0.22c0.22,0.01,0.45-0.01,0.67,0c1.83,0.14,3.67,0.31,5.5,0.4c0.74,0.04,1.48-0.15,2.22-0.19
			c1.7-0.09,3.41-0.06,5.09-0.28c1.34-0.17,2.64-0.65,3.96-0.99c0.83-0.21,1.4,0.15,1.8,0.86c0.93,1.67,0.35,3.12-0.51,4.63
			c-1.24,2.17-2.38,4.39-3.46,6.64c-0.68,1.42-1.2,2.92-1.72,4.42c-0.29,0.83-0.42,1.71-0.61,2.57c-0.34,1.57-0.76,3.13-0.99,4.72
			c-0.25,1.72-0.31,3.47-0.49,5.2c-0.12,1.17-0.32,2.33-0.44,3.49c-0.09,0.86-0.1,1.73-0.19,2.59c-0.11,1.03-0.3,2.05-0.41,3.09
			c-0.1,0.93-0.15,1.86-0.22,2.79c-0.11,1.55-0.26,3.09-0.29,4.64c-0.03,1.83,0.08,3.67,0.07,5.51c-0.01,1.15-0.16,2.3-0.18,3.45
			c-0.01,0.51,0.13,1.02,0.2,1.53c0.21,1.65,0.4,3.31,0.65,4.96c0.04,0.26,0.34,0.48,0.48,0.74c0.11,0.2,0.28,0.55,0.2,0.63
			c-0.24,0.26-0.74,0.68-0.85,0.61c-1.36-0.93-2.38,0.06-3.44,0.59c-1.27,0.63-2.61,0.48-3.93,0.48c-0.74,0-1.5-0.25-2.22-0.17
			c-1.05,0.13-1.4-0.6-1.58-1.28c-0.38-1.41-0.61-2.87-0.85-4.31c-0.25-1.55-0.48-3.11-0.64-4.67
			C571.11,659.21,571.18,658.37,571.18,657.44 M582.22,666.9c-0.04-0.28-0.08-0.56-0.1-0.83c-0.08-0.91-0.14-1.81-0.21-2.72
			c-0.06-0.68-0.17-1.37-0.2-2.05c-0.06-1.21-0.11-2.42-0.12-3.63c-0.01-0.69,0.07-1.38,0.06-2.07c-0.01-0.76-0.17-1.52-0.12-2.28
			c0.07-1.14,0.31-2.27,0.37-3.41c0.07-1.31-0.03-2.64,0.04-3.95c0.07-1.36,0.23-2.72,0.4-4.07c0.26-2.07,0.56-4.14,0.82-6.21
			c0.23-1.78,0.4-3.56,0.65-5.34c0.16-1.18,0.38-2.36,0.63-3.52c0.23-1.05,0.54-2.08,0.83-3.12c0.36-1.28,0.64-2.59,1.12-3.83
			c0.41-1.05,1.22-1.95,1.58-3c0.71-2.08,2-3.85,2.96-5.78c0.27-0.54,0.41-1.21,0.39-1.81c-0.01-0.28-0.5-0.76-0.81-0.79
			c-0.91-0.07-1.84-0.01-2.75,0.1c-2.24,0.26-4.47,0.59-6.73,0.5c-1.25-0.05-2.5,0.05-3.75-0.03c-1.17-0.07-2.33-0.33-3.51-0.39
			c-1.62-0.09-3.25-0.03-4.87-0.1c-1.16-0.05-2.31-0.27-3.47-0.31c-0.59-0.02-1.09,0.18-1.22,0.98c-0.26,1.6-0.72,3.17-0.99,4.76
			c-0.34,2.01-0.62,4.03-0.84,6.06c-0.03,0.31,0.27,0.84,0.55,0.95c0.33,0.13,1,0.05,1.16-0.18c0.72-1.08,1.5-2.19,0.8-3.64
			c-0.43-0.88,0.16-1.78,1.13-1.81c1.53-0.03,3.07-0.14,4.59,0.02c1.83,0.19,3.65,0.45,5.46,0.92c1.2,0.31,1.92,0.78,2.53,1.73
			c0.84,1.32,1.37,2.78,1.16,4.3c-0.22,1.64-0.75,3.25-1.23,4.84c-0.42,1.39-0.98,2.74-1.45,4.11c-0.57,1.65-1.15,3.3-1.68,4.96
			c-0.34,1.06-0.61,2.14-0.87,3.21c-0.43,1.76-0.89,3.52-1.22,5.31c-0.24,1.27-0.29,2.57-0.44,3.85c-0.12,1-0.41,1.99-0.39,2.98
			c0.04,1.81,0.25,3.62,0.39,5.43c0.13,1.7,0.26,3.4,0.41,5.09c0.07,0.83,0.08,1.69,0.31,2.48c0.33,1.13,0.7,2.3,1.31,3.29
			c0.57,0.93,1.69,0.61,2.66,0.76c1.56,0.23,2.8-0.34,4.18-0.69C582.39,667.81,582.32,667.44,582.22,666.9z"/>
		<path class="st1" d="M559.25,603.46c0.3,1.13-0.58,1.42-1.22,1.83c-0.11,0.07-0.43,0-0.46-0.07c-0.09-0.24-0.21-0.6-0.1-0.77
			c0.6-0.93,1.21-1.85,1.91-2.71c0.61-0.75,1.33-1.42,2.03-2.1c0.53-0.52,1.09-1.02,1.69-1.45c0.14-0.1,0.48,0.07,0.73,0.12
			c-0.16,0.28-0.27,0.62-0.49,0.84c-1.18,1.22-2.39,2.4-3.58,3.61C559.57,602.94,559.45,603.19,559.25,603.46z"/>
		<path class="st1" d="M564.61,600.62c0.32-0.46,0.57-0.9,0.88-1.27c0.1-0.11,0.41-0.04,0.62-0.06c0.01,0.18,0.09,0.42,0,0.54
			c-0.53,0.78-1.08,1.56-1.65,2.31c-0.84,1.1-1.9,2.03-2.36,3.42c-0.11,0.32-0.62,0.5-0.95,0.75c-0.06-0.47-0.35-1.11-0.15-1.39
			c0.76-1.07,1.67-2.02,2.53-3.02C563.88,601.5,564.21,601.08,564.61,600.62z"/>
		<path class="st1" d="M590.05,669.58c0.25-0.16,0.45-0.33,0.66-0.34c0.15-0.01,0.34,0.18,0.45,0.33c0.03,0.04-0.09,0.29-0.19,0.35
			c-2.14,1.26-3.94,2.92-5.49,4.85c-0.09,0.11-0.29,0.14-0.44,0.21c-0.03-0.24-0.18-0.57-0.08-0.7c0.73-0.93,1.43-1.9,2.29-2.7
			C588.07,670.83,589.07,670.27,590.05,669.58z"/>
		<path class="st1" d="M590.26,672.1c-0.93,1.07-1.8,2.11-2.71,3.1c-0.16,0.17-0.51,0.16-0.78,0.24c-0.01-0.29-0.16-0.7-0.02-0.85
			c0.98-1.06,2-2.08,3.04-3.06c0.22-0.21,0.61-0.23,0.93-0.34C590.58,671.48,590.45,671.76,590.26,672.1z"/>
	</g>
</g>
<g id="bank">
	<path class="st0" d="M624,276c0,0,5,41,2,48s8,43,7,47s45,13,45,13s128-77,128-77s15-6,10-7s-38-15-38-15s-25-36-25-42s-6-7-6-7
		L624,276z"/>
	<g id="Vorm_31_1_">
		<path d="M642.58,372.55c-0.76-2.34-1.47-4.58-2.11-6.85c-0.71-2.53-1.58-5.04-1.98-7.62c-0.47-3.08-0.79-6.24-0.66-9.34
			c0.15-3.73,0.93-7.43,1.26-11.16c0.43-4.92,1.04-9.8,0.45-14.8c-0.44-3.72,0.1-7.55-0.15-11.31c-0.18-2.83-0.02-5.74-1.87-8.36
			c-0.97-1.36-0.88-3.43-1.47-5.11c-1.26-3.55-3.05-6.68-7.1-7.7c-2.84-0.71-5.53-0.6-7.69,1.68c-1.39,1.47-2.84,2.94-3.91,4.63
			c-1.89,2.98-0.28,5.82,2.29,6.73c0.88,0.31,1.72,0.78,2.63,0.99c1.7,0.39,3.07-0.46,4.1-2.26c0.5-0.87,0.93-2,2.26-1.75
			c0.48,0.09,0.9,0.53,1.35,0.81c-0.19,0.31-0.33,0.7-0.59,0.92c-1.86,1.56-3.01,4.04-5.76,4.43c-0.53,0.08-1.1,0.31-1.59,0.2
			c-3.13-0.68-6.45-1.06-7.95-4.63c-0.8-1.91-0.24-5.14,1.05-6.75c1.05-1.31,1.71-2.91,2.71-4.26c0.95-1.28,2.15-2.3,3.93-2.27
			c0.46,0.01,0.97-0.12,1.37-0.33c3.68-1.93,7.19-1.22,10.48,0.84c2.15,1.35,4.2,0.82,6.29,0.18c3.34-1.03,6.68-2.09,10-3.2
			c4.5-1.51,8.99-3.05,13.45-4.66c5.58-2.02,11.15-4.09,16.69-6.21c5.4-2.06,10.75-4.23,16.14-6.32c5.83-2.25,11.65-4.52,17.51-6.68
			c4.8-1.76,9.63-3.42,14.48-5.02c3.67-1.21,7.39-2.29,11.11-3.37c1.09-0.32,1.71-1.01,1.87-2.03c0.42-2.79,2.28-4.72,4.42-5.96
			c1.38-0.8,3.53-0.47,5.32-0.35c3.78,0.26,6.23,2.8,8.23,5.61c1.05,1.47,1.42,3.45,1.98,5.24c1.57,5.06,2.96,10.17,6.31,14.46
			c0.87,1.1,1.45,2.43,2.15,3.67c1.89,3.37,3.94,4.33,7.86,3.69c0.44-0.07,0.9-0.01,1.35-0.01c5.47,0,10.82-0.51,15.98-2.62
			c1.88-0.77,4.07-0.85,6.14-1.07c2.94-0.32,5.9-0.69,8.84-0.65c5.27,0.08,10.01,1.89,14.34,4.92c3.03,2.12,5.68,4.59,7.17,7.97
			c0.82,1.85,1.2,3.94,1.47,5.97c0.47,3.48,0.29,6.96-0.99,10.27c-1.68,4.33-3.74,8.48-8.49,10.18c-1.68,0.6-3.58,0.7-5.39,0.83
			c-1.35,0.1-2.11,0.48-2.35,1.94c-0.71,4.25-1.24,8.57-2.42,12.69c-1.27,4.41-1.62,8.87-1.54,13.35c0.08,4.47,0.53,8.97,3.32,12.8
			c1.35,1.85,3.16,2.91,5.42,3.19c3.64,0.46,4.96-0.36,5.97-3.79c0.12-0.41,0.24-0.94,0.08-1.29c-0.33-0.72-0.6-1.57,0.39-1.57
			c0.56,0,1.66,1.15,1.57,1.6c-0.32,1.67-0.72,3.49-1.67,4.85c-2.01,2.89-5.42,3.23-9.36,1.81c-4.95-1.78-7.14-5.57-7.74-10.35
			c-0.53-4.15-0.87-8.39-0.63-12.55c0.21-3.73,1.31-7.41,2.06-11.11c0.49-2.44,1.1-4.85,1.53-7.3c0.18-1,0.01-2.06,0.04-3.09
			c0.03-0.86-0.05-1.37-1.19-1.52c-4.06-0.55-7.48-2.86-11.21-4.32c-3.19-1.25-5.87-3.27-7.84-5.77c-2.08-2.63-4.99-3-7.58-4.28
			c-0.27-0.13-0.78,0.11-1.14,0.27c-3.53,1.55-7.07,3.07-10.56,4.69c-2.51,1.16-4.94,2.5-7.43,3.7c-4.27,2.06-8.59,4.03-12.85,6.1
			c-4.41,2.14-8.77,4.38-13.18,6.53c-2.9,1.41-5.91,2.62-8.78,4.1c-3.63,1.88-7.13,4-10.74,5.91c-2.95,1.56-6.01,2.91-8.98,4.43
			c-1.73,0.89-3.38,1.92-5.04,2.91c-0.24,0.14-0.37,0.46-0.55,0.7c0.28,0.14,0.55,0.32,0.84,0.41c1.82,0.56,3.13,1.78,3.94,3.41
			c1.02,2.05,1.75,4.23,2.67,6.33c1.6,3.63,3.12,7.44,3.13,11.32c0.01,4.64,0.53,9.59-2.55,13.76c-1.52,2.06-2.95,4.18-4.42,6.28
			c-0.03,0.05-0.12,0.09-0.11,0.12c0.69,2.17-1.57,2.05-2.37,3.05c-0.16,0.21-0.25,0.47-0.37,0.71c0.29,0.11,0.65,0.39,0.87,0.3
			c0.97-0.38,1.91-0.83,2.82-1.35c0.16-0.09,0.17-0.85,0.08-0.89c-1.17-0.49-0.39-0.82,0.09-1.11c0.63-0.38,1.3-0.68,1.94-1.03
			c0.61-0.33,1.61-0.5,0.54-1.5c-0.13-0.12,0.1-0.92,0.36-1.09c2.38-1.56,4.79-3.1,7.23-4.56c5.5-3.29,11.03-6.55,16.56-9.81
			c3.62-2.13,7.24-4.27,10.89-6.36c7.97-4.55,16.32-8.38,24.01-13.47c5.69-3.77,11.77-6.96,17.57-10.57
			c3.3-2.05,6.38-4.46,9.59-6.65c2.58-1.76,5.26-3.38,7.82-5.17c1.42-1,2.69-2.22,4.04-3.32c0.27-0.22,0.63-0.32,0.95-0.48
			c-0.02,0.42,0.11,0.96-0.1,1.25c-1.47,2.04-3.33,3.61-5.48,4.97c-4.71,2.98-9.28,6.2-13.86,9.39c-0.92,0.64-1.3,1.4-1.06,2.9
			c0.46,2.93,0.4,6.01,0.07,8.98c-0.23,2.05-3.56,3.64-5.48,2.99c-0.47-0.16-0.8-0.74-1.2-1.13c0.49-0.17,0.97-0.37,1.47-0.51
			c0.21-0.06,0.45-0.02,0.67-0.01c2.2,0.08,2.79-1.18,2.9-2.87c0.13-2.15,0.03-4.32,0.03-6.48c0-0.34-0.02-0.68,0.01-1.01
			c0.03-0.38,0.1-0.76,0.16-1.14c-0.46,0.12-0.97,0.14-1.36,0.38c-4.83,2.9-9.74,5.68-14.44,8.79c-6.1,4.04-12.53,7.45-18.99,10.87
			c-6.73,3.56-13.17,7.67-19.74,11.52c-4.26,2.49-8.5,5.02-12.83,7.38c-2.05,1.12-3.6,2.74-5.28,4.27c-0.68,0.62-1.66,0.92-2.4,1.49
			c-0.35,0.26-0.46,0.83-0.68,1.27c0.35,0.01,0.73-0.05,1.06,0.04c0.29,0.08,0.73,0.28,0.77,0.49c0.05,0.32-0.09,0.87-0.32,0.99
			c-0.59,0.31-1.32,0.36-1.92,0.65c-1.46,0.71-2.8,1.76-4.33,2.19c-3.1,0.87-6.32,1.31-9.44,2.12c-1.85,0.48-3.61,1.33-5.42,2.01
			c-0.29,0.11-0.58,0.24-0.88,0.32c-2.04,0.56-3.63,1.19-4.12,3.86c-0.72,3.94-2.34,7.71-3.3,11.61c-0.97,3.92-1.26,7.89-0.72,11.98
			c0.39,2.88,0.97,5.61,2.08,8.29c1.59,3.86,5.22,4.82,8.58,4.48c1.86-0.19,4.84-3.44,5.3-5.61c0.06-0.26,0.09-0.52,0.16-0.78
			c0.38-1.41-0.54-2.3-1.99-2.12c-0.62,0.08-1.31-0.28-1.93-0.53c-0.1-0.04-0.11-0.75,0.05-0.87c0.48-0.37,1.06-0.82,1.62-0.86
			c2.87-0.21,3.49,0.09,4.3,2.74c0.21,0.69,0.01,1.59-0.2,2.33c-0.97,3.41-2.82,6.07-6.1,7.8c-2.1,1.11-4.08,0.57-5.97,0.11
			c-3.85-0.93-5.53-3.81-6.6-7.55c-1.23-4.26-1.42-8.52-1.19-12.82c0.15-2.76,0.66-5.54,1.34-8.22c0.9-3.54,2.13-7,3.2-10.5
			c0.06-0.2,0.02-0.59-0.11-0.67c-1.11-0.69-2.2-1.64-3.42-1.89c-1.12-0.24-2.12-0.38-3.15-1.04c-0.97-0.63-2.27-0.75-3.43-1.07
			c-2.03-0.55-4.04-1.18-6.09-1.61c-3.7-0.77-7.4-1.52-11.13-2.07c-1.78-0.26-3.64-0.03-5.46-0.05c-1.02-0.01-2.7,0.35-2.73-0.81
			c-0.03-1.21,1.64-0.82,2.64-0.87c0.51-0.02,1.02,0.02,1.52-0.01c0.25-0.02,0.49-0.13,0.73-0.2c-0.17-0.27-0.28-0.68-0.52-0.77
			c-1.02-0.4-2.05-0.85-3.12-1.01c-1.62-0.24-3.28-0.24-4.92-0.38c-1.13-0.1-1.42,0.55-1.22,1.43c0.77,3.33,1.78,6.62,2.36,9.99
			c0.33,1.88,0.13,3.89-0.05,5.82c-0.21,2.35-0.65,4.68-0.98,7.02c-0.6,4.16-1.96,8.02-4.86,11.16c-1.46,1.58-3.02,3.11-4.74,4.39
			c-3.33,2.48-5.44,2.44-8.86,0.08c-1.8-1.24-3.47-2.64-3.91-4.96c-0.13-0.69-0.33-1.41-0.23-2.08c0.08-0.5,0.59-0.94,0.91-1.4
			c0.13,0.47,0.37,0.93,0.37,1.4c0,1.67,0.45,3.01,2.04,3.89c0.71,0.39,1.15,1.25,1.82,1.74c2.22,1.63,5.28,1.47,7.68-0.5
			c3.31-2.72,5.95-6.01,7.11-10.19c0.69-2.46,0.92-5.04,1.29-7.58c0.2-1.35,0.33-2.72,0.34-4.08c0.01-4.71-1.05-9.27-2.25-13.77
			c-0.72-2.71-1.88-5.3-2.78-7.97C642.67,373.88,642.72,373.24,642.58,372.55 M769.26,284.58c1.84-1.75,1.89-1.77,0.66-4.08
			c-1.06-1.99-2.24-3.91-3.36-5.88c-0.34-0.59-0.55-1.27-0.96-1.79c-2.58-3.29-3.85-7.16-5.15-11.05c-1.03-3.06-1.46-6.33-3.32-9.11
			c-0.68-1.02-1.33-1.25-2.43-0.87c-1.34,0.46-2.71,0.8-4.08,1.17c-1.11,0.31-2.24,0.56-3.35,0.88c-0.8,0.23-1.56,0.59-2.37,0.8
			c-4.13,1.06-8.31,1.93-12.38,3.18c-4.28,1.31-8.44,3-12.67,4.49c-4.47,1.58-9.02,2.95-13.43,4.7c-6.63,2.63-13.12,5.58-19.74,8.24
			c-5.65,2.27-11.36,4.41-17.11,6.42c-5.17,1.81-10.46,3.29-15.66,5.04c-3.15,1.06-6.21,2.42-9.35,3.54
			c-1.82,0.65-3.72,1.08-5.6,1.59c-0.82,0.22-1.09,0.43-0.47,1.31c0.75,1.05,1.46,2.24,1.79,3.47c1.06,3.97,2.21,7.95,2.81,12
			c0.58,3.97,0.46,8.03,0.78,12.04c0.19,2.39,0.88,4.7,2.45,6.57c1.18,1.41,2.51,2.74,3.94,3.89c0.51,0.41,1.56,0.4,2.28,0.23
			c1.26-0.29,2.43-0.92,3.68-1.3c4.61-1.39,9.26-2.64,13.84-4.13c3.26-1.06,6.43-2.41,9.63-3.67c3.49-1.37,6.98-2.73,10.43-4.2
			c3.97-1.69,7.86-3.59,11.86-5.23c3.32-1.37,6.81-2.33,10.09-3.78c6.06-2.67,12.1-5.3,18.4-7.41c6.75-2.27,13.26-5.25,19.97-7.65
			C757.04,291.63,763.25,288.59,769.26,284.58 M660.58,336.8c2.61,0.23,5.22,0.62,7.83,0.63c2.55,0,5.11-0.43,7.66-0.62
			c3.4-0.25,6.82-0.29,10.19-0.73c3.67-0.47,7.23-0.23,10.79,0.67c1.69,0.43,3.43,0.67,5.13,1.08c1.8,0.44,2.74-1.03,4.03-1.71
			c4.22-2.19,8.44-4.38,12.65-6.57c4.96-2.58,9.87-5.26,14.88-7.73c3.64-1.79,7.47-3.2,11.11-4.99c4.6-2.25,9.04-4.81,13.65-7.05
			c6.23-3.03,12.53-5.9,18.83-8.8c1.65-0.76,3.38-1.37,5.07-2.04c0.81-0.32,0.93-0.76,0.42-1.5c-1.74-2.48-3.59-4.91-5.07-7.54
			c-0.52-0.92-0.09-2.38-0.09-3.59c0.52,0.71,1.04,1.42,1.55,2.14c0.06,0.09,0.12,0.18,0.18,0.26c1.89,2.65,3.76,5.32,5.7,7.94
			c0.24,0.32,1.04,0.58,1.33,0.42c0.67-0.36,1.31-0.93,1.71-1.57c0.25-0.41,0.1-1.1,0.04-1.66c-0.19-1.76,0.37-3.11,2.05-3.86
			c1.81-0.81,3.56-1.82,5.44-2.35c4.2-1.17,8.18-0.31,11.63,2.28c1.61,1.21,2.79,2.97,4.2,4.45c2.41,2.52,1.62,5.79-1.7,6.96
			c-0.49,0.17-0.97,0.41-1.4,0.68c-0.25,0.16-0.41,0.46-0.6,0.7c0.28,0.21,0.53,0.53,0.85,0.62c2.58,0.71,5.22,1.25,7.76,2.09
			c1.52,0.51,2.97,1.34,4.28,2.27c0.76,0.54,1.03,1.52-0.07,2.29c-0.8,0.57-1.52,1.25-2.25,1.91c-0.19,0.17-0.29,0.44-0.43,0.66
			c0.29,0.08,0.58,0.26,0.86,0.24c2.95-0.27,5.65-1.34,7.37-3.73c3.46-4.8,5.86-9.93,4.69-16.23c-0.69-3.69-1.96-6.99-4.54-9.61
			c-5.03-5.13-11.32-7.52-18.46-7.56c-1.82-0.01-3.65,0.37-5.46,0.65c-2.69,0.41-5.39,0.82-8.05,1.38c-1.21,0.25-2.3,1.1-3.51,1.27
			c-3.22,0.47-6.47,0.77-9.71,1.04c-2.26,0.19-4.52,0.23-6.79,0.36c-0.96,0.06-1.22,0.26-0.61,1.32c1.04,1.79,1.83,3.74,2.61,5.67
			c0.25,0.63,0.14,1.42,0.19,2.13c-0.51-0.4-1.03-0.79-1.53-1.21c-0.3-0.25-0.57-0.55-0.84-0.83c-0.91-0.94-1.87-1.34-3.17-0.68
			c-2.56,1.29-5.15,2.53-7.75,3.73c-8.08,3.73-16.13,7.57-24.29,11.11c-4.2,1.82-8.62,3.11-12.95,4.62
			c-4.82,1.68-9.65,3.34-14.48,5.02c-3.1,1.08-6.26,2.03-9.28,3.29c-4.23,1.76-8.34,3.79-12.52,5.66
			c-6.08,2.73-12.18,5.42-18.26,8.13c-3.28,1.46-6.49,3.13-9.86,4.34c-1.78,0.64-3.85,0.49-5.77,0.78
			c-0.49,0.07-0.92,0.47-1.38,0.73c0.26,0.32,0.45,0.8,0.78,0.93C656.86,335.72,658.56,336.24,660.58,336.8 M651.79,370.26
			c3.8-2.25,7.62-4.47,11.38-6.79c0.74-0.45,1.5-0.88,1.08-2.32c-0.36-1.26-0.14-3.2,0.65-4.17c2.17-2.7,4.64-5.31,8.15-6.28
			c2.45-0.68,5-1.01,7.52-1.43c3.37-0.56,5.92-2.85,8.87-4.28c3.24-1.57,6.22-3.67,9.81-4.48c0.24-0.05,0.44-0.29,0.66-0.44
			c-0.17-0.2-0.3-0.52-0.5-0.58c-0.97-0.26-2.01-0.31-2.93-0.68c-2.9-1.17-5.92-0.72-8.85-0.59c-5.01,0.22-9.99,0.95-14.99,1.25
			c-3.39,0.2-6.8,0.05-10.19,0.03c-0.36,0-0.72-0.15-1.08-0.23c-4.36-1-8.46-2.41-11.96-5.45c-2.24-1.94-4.82-3.45-5.77-6.51
			c-0.12-0.38-0.59-0.66-0.89-0.98c-0.19,0.47-0.52,0.95-0.53,1.42c-0.02,0.84,0.31,1.71,0.21,2.53c-0.35,2.71-0.89,5.39-1.23,8.09
			c-0.23,1.8-0.09,3.65-0.39,5.43c-0.74,4.34-1.04,8.67,0.05,12.96c1.63,6.41,3.37,12.79,5.17,19.15c0.28,0.99,0.99,1.91,2.4,1.83
			c0.82-0.05,1.7,0.19,2.5,0.45c4.32,1.39,8.6,2.94,12.95,4.21c3.04,0.88,6.2,1.36,9.29,2.08c4.21,0.98,8.39,2.06,12.6,3.02
			c2.6,0.6,4.89-1.64,4.37-4.26c-0.06-0.32-0.61-0.69-0.99-0.77c-4.15-0.93-8.44-1.38-12.14-3.75c-3.17-2.03-6.22-4.2-8.12-7.6
			c-1.02-1.83-2.08-3.64-3.03-5.51c-0.67-1.34-1.32-1.17-2.33-0.34c-1.31,1.07-2.7,2.08-4.15,2.95c-1.34,0.8-2.8,1.39-4.21,2.07
			c-2.16,1.04-4.31,2.1-6.5,3.08c-0.34,0.15-0.84-0.03-1.26-0.06c0.26-0.34,0.45-0.78,0.79-0.99
			C649.3,371.64,650.47,371.05,651.79,370.26 M681.2,378.71c0.23,0,0.47-0.06,0.67,0.01c4.07,1.39,8.25,2.15,12.53,2.35
			c0.67,0.03,1.35,0.03,2.02,0.02c2.42-0.05,4.9,0.22,7.24-0.26c4.4-0.89,6.24-4.8,8.42-8.13c1.29-1.97,1.16-4.37,1.49-6.66
			c0.54-3.76,0.06-7.32-1.13-10.79c-1.18-3.44-2.68-6.77-4.02-10.16c-1.02-2.58-3.23-3.84-5.55-4.81c-1.68-0.7-2.92,0.63-4.16,1.57
			c-0.24,0.18-0.59,0.21-0.86,0.35c-3.8,1.96-7.61,3.93-11.4,5.91c-0.28,0.14-0.7,0.57-0.65,0.67c0.17,0.33,0.49,0.77,0.78,0.8
			c2.47,0.22,4.48,1.45,6.47,2.76c1.37,0.91,3.21,1.54,4,2.82c2.49,4,2.88,10.18-3.83,11.77c-1.62,0.39-3.45,0.11-5.15-0.14
			c-0.51-0.07-0.88-1.09-1.31-1.68c0.7-0.01,1.48-0.23,2.08,0.01c2.54,0.97,5.73,0.11,6.91-2c1.26-2.25,0.45-6.34-1.71-7.67
			c-2.09-1.29-4.24-2.53-6.51-3.44c-2.91-1.17-5.91-1.58-8.9,0.13c-3.4,1.95-6.89,3.74-10.34,5.61c-2.15,1.17-2.52,2.09-1.83,4.24
			C668.92,369.64,673.51,375.38,681.2,378.71 M808.63,294.21c-1.26-1.15-2.38-2.53-3.81-3.4c-4.32-2.61-8.76-2-13.1,0.05
			c-1.62,0.76-2.09,2.18-1.86,3.92c0.21,1.58,0.71,2.84,2.4,3.35c2.65,0.8,5.25,1.74,7.92,2.47c1.73,0.48,3.53,0.91,5.32,0.99
			c2.46,0.11,4.93-2.4,4.61-4.56C809.96,296.11,809.25,295.26,808.63,294.21 M803.9,309.42c3.06,1.01,6.11,2.08,9.2,3
			c0.67,0.2,1.59,0,2.25-0.31c1.04-0.49,2.01-1.17,2.9-1.91c0.21-0.17,0.15-1.13-0.09-1.3c-0.71-0.5-1.54-0.9-2.37-1.15
			c-3.65-1.09-7.33-2.1-10.99-3.18c-3.55-1.05-7.07-2.19-10.62-3.24c-0.37-0.11-0.84,0.09-1.26,0.15c0.16,0.38,0.23,0.85,0.5,1.13
			c0.6,0.63,1.25,1.25,1.98,1.72C798.09,306.06,800.84,307.73,803.9,309.42 M746.95,247.73c-2.01,0.58-3.51,2.36-3.35,4.09
			c0.03,0.29,0.57,0.82,0.76,0.77c1.47-0.37,2.9-0.87,4.35-1.3c1.21-0.36,2.43-0.66,3.63-1.03c0.47-0.15,0.91-0.41,1.36-0.62
			c-0.38-0.47-0.69-1.25-1.14-1.34C750.78,247.93,748.94,247.79,746.95,247.73 M696.75,385.81c1.42-0.52,2.85-1,4.24-1.57
			c0.39-0.16,0.67-0.58,1-0.89c-0.4-0.08-0.8-0.22-1.2-0.24c-2.71-0.13-5.42-0.18-8.12-0.37c-1.22-0.09-1.72,0.2-1.52,1.5
			c0.12,0.77,0.04,1.57,0.02,2.36c-0.02,0.75-0.08,1.12,0.94,0.62C693.45,386.56,694.97,386.26,696.75,385.81 M657.2,331.73
			c2.93,0.03,5.66-0.74,8.21-2.15c0.28-0.16,0.43-0.54,0.64-0.82c-0.38-0.11-0.82-0.4-1.14-0.31c-2.45,0.71-4.89,1.48-7.31,2.3
			C657.28,330.86,657.11,331.39,657.2,331.73 M669.37,355.05c-0.4,0.78-0.11,1.34,0.67,0.95c1.55-0.77,2.99-1.77,4.44-2.73
			c0.21-0.14,0.21-0.6,0.3-0.91c-0.3,0-0.66-0.12-0.89,0C672.44,353.18,670.99,354.04,669.37,355.05z"/>
	</g>
</g>
</svg>
